<?xml version="1.0" encoding="utf-8"?>
<!-- Generator: Adobe Illustrator 24.0.2, SVG Export Plug-In . SVG Version: 6.00 Build 0)  -->
<svg version="1.1" xmlns="http://www.w3.org/2000/svg" xmlns:xlink="http://www.w3.org/1999/xlink" x="0px" y="0px"
	 viewBox="0 0 2360 1170" style="enable-background:new 0 0 2360 1170;" xml:space="preserve">
<style type="text/css">
	.st0{fill:#252525;}
	.st1{fill:#FFFFFF;}
	.st2{fill:#FF5757;}
	.st3{fill:#B3E6E0;}
	.st4{clip-path:url(#SVGID_2_);}
	.st5{fill:#7A7980;}
	.st6{clip-path:url(#SVGID_4_);}
	.st7{clip-path:url(#SVGID_6_);}
	.st8{fill:#666666;}
	.st9{clip-path:url(#SVGID_8_);}
	.st10{clip-path:url(#SVGID_10_);}
	.st11{clip-path:url(#SVGID_12_);}
	.st12{fill:#FF5757;stroke:#FF5757;stroke-width:0.75;stroke-miterlimit:10;}
	.st13{clip-path:url(#SVGID_14_);}
	.st14{clip-path:url(#SVGID_16_);}
	.st15{clip-path:url(#SVGID_18_);}
	.st16{clip-path:url(#SVGID_20_);}
	.st17{clip-path:url(#SVGID_22_);}
	.st18{clip-path:url(#SVGID_24_);}
</style>
<g id="Capa_2">
	<rect x="2" y="2" class="st0" width="2360" height="1170"/>
</g>
<g id="Capa_1">
	<g>
		<g>
			<path class="st1" d="M44.35,39.03h6.14v45.06h-8.14V48.76c-1.22,0.55-2.42,0.98-3.59,1.28s-2.35,0.45-3.52,0.45v-7.8
				c1.56-0.16,3.08-0.52,4.55-1.09C41.27,41.03,42.79,40.18,44.35,39.03z"/>
			<path class="st1" d="M78.54,85.05c-2.37,0-4.66-0.32-6.87-0.97s-4.19-1.6-5.93-2.86c-1.75-1.26-3.13-2.83-4.16-4.71
				c-1.02-1.88-1.54-4.04-1.54-6.5h8.56c0.09,1.56,0.56,2.92,1.41,4.05c0.85,1.14,2.01,2.01,3.47,2.62
				c1.46,0.61,3.14,0.92,5.05,0.92c2.81,0,5-0.64,6.59-1.93s2.38-2.92,2.38-4.9c0-1.29-0.32-2.4-0.97-3.33
				c-0.64-0.93-1.63-1.64-2.97-2.14c-1.33-0.49-3.04-0.74-5.11-0.74h-5.93v-6.42h5.04c2.62,0,4.68-0.56,6.18-1.69
				s2.24-2.66,2.24-4.59c0-1.73-0.64-3.17-1.93-4.33c-1.29-1.16-3.22-1.74-5.8-1.74c-2.09,0-3.96,0.43-5.61,1.28
				c-1.64,0.85-2.7,2.33-3.16,4.45h-8.56c0.32-3.06,1.25-5.55,2.78-7.49c1.53-1.93,3.51-3.35,5.95-4.26
				c2.44-0.91,5.19-1.36,8.25-1.36c3.24,0,6.13,0.53,8.66,1.59c2.53,1.06,4.52,2.52,5.99,4.4c1.46,1.88,2.19,4.04,2.19,6.5
				c0,2.28-0.62,4.26-1.86,5.95s-3.08,2.95-5.52,3.78c2.71,0.92,4.89,2.29,6.52,4.11c1.63,1.82,2.45,4.08,2.45,6.8
				c0,2.65-0.74,4.99-2.23,7.02s-3.56,3.63-6.23,4.78S82.11,85.05,78.54,85.05z"/>
			<path class="st1" d="M134.08,85.05c-2.88,0-5.27-0.5-7.19-1.5c-1.92-1-3.36-2.32-4.33-3.95s-1.45-3.4-1.45-5.31
				c0-2.12,0.56-3.89,1.67-5.33c1.12-1.44,2.7-2.52,4.74-3.24s4.46-1.09,7.25-1.09c1.82,0,3.54,0.14,5.16,0.41
				c1.62,0.28,3.24,0.64,4.85,1.1v4.76c-1.26-0.41-2.65-0.74-4.14-0.97c-1.5-0.23-2.9-0.35-4.21-0.35c-1.93,0-3.52,0.36-4.76,1.07
				c-1.24,0.71-1.86,1.92-1.86,3.62c0,1.24,0.51,2.31,1.52,3.21c1.01,0.9,2.62,1.34,4.83,1.34c1.68,0,3.11-0.37,4.28-1.1
				s2.06-1.66,2.67-2.76c0.61-1.1,0.91-2.21,0.91-3.31h1.93c0,2.42-0.45,4.64-1.35,6.68c-0.9,2.04-2.22,3.66-3.98,4.88
				S136.68,85.05,134.08,85.05z M145.06,84.08l-1.04-8.14V62.49c0-2.35-0.48-4.08-1.43-5.21c-0.96-1.13-2.57-1.69-4.85-1.69
				c-1.31,0-2.45,0.2-3.42,0.59c-0.97,0.39-1.71,0.95-2.23,1.67s-0.78,1.6-0.78,2.64h-8.9c0-2.53,0.61-4.59,1.83-6.19
				c1.22-1.6,2.97-2.77,5.26-3.52c2.29-0.75,5.03-1.12,8.23-1.12c2.9,0,5.43,0.47,7.59,1.4s3.84,2.36,5.04,4.29s1.79,4.4,1.79,7.42
				v21.32H145.06z"/>
			<path class="st1" d="M187.14,39.03h6.14v45.06h-8.14V48.76c-1.22,0.55-2.42,0.98-3.59,1.28s-2.35,0.45-3.52,0.45v-7.8
				c1.56-0.16,3.08-0.52,4.55-1.09C184.06,41.03,185.58,40.18,187.14,39.03z"/>
			<path class="st1" d="M220.23,85.05c-3.22,0-6.06-0.56-8.52-1.67c-2.46-1.12-4.4-2.74-5.81-4.88s-2.16-4.74-2.23-7.8h8.28
				c0,2.3,0.79,4.03,2.38,5.17c1.59,1.15,3.55,1.73,5.9,1.73c2.51,0,4.56-0.81,6.16-2.43s2.4-3.62,2.4-5.99c0-4.6-3.08-6.9-9.25-6.9
				h-13.66l2.07-22.98h26.84v7.45H214.5l1.59-2.35l-1.31,13.32l-0.69-0.76c1.1-0.25,2.42-0.44,3.93-0.57
				c1.52-0.13,2.83-0.19,3.93-0.19c4.62,0,8.31,1.12,11.06,3.36c2.75,2.24,4.12,5.45,4.12,9.61c0,2.97-0.7,5.65-2.1,8.06
				c-1.4,2.4-3.37,4.31-5.9,5.71C226.6,84.35,223.63,85.05,220.23,85.05z"/>
			<path class="st1" d="M258.87,84.08l15.25-44.78h10.21l14.63,44.78h-8.56l-3.1-9.66h-16.63l-3.17,9.66H258.87z M272.74,68.28
				h12.63l-6.28-19.25L272.74,68.28z"/>
			<path class="st1" d="M306.92,84.08V50.62h7.11l1.03,6.62v26.84H306.92z M313.79,45.1l-3.24-1.97c0.55-2.78,1.48-4.95,2.78-6.5
				c1.3-1.55,2.83-2.33,4.61-2.33c0.67,0,1.36,0.13,2.09,0.38s1.71,0.7,2.95,1.34c1.17,0.6,2.05,1.02,2.64,1.28
				c0.59,0.25,1.16,0.38,1.71,0.38c0.67,0,1.32-0.27,1.97-0.81c0.64-0.54,1.21-1.4,1.69-2.57l3.45,2.28
				c-0.32,1.66-0.84,3.12-1.57,4.4s-1.56,2.28-2.5,3.02c-0.94,0.74-1.89,1.1-2.83,1.1c-0.83,0-1.65-0.16-2.47-0.48
				s-1.88-0.8-3.19-1.45c-1.08-0.6-1.89-1-2.42-1.21s-1.04-0.31-1.52-0.31c-0.74,0-1.44,0.24-2.12,0.71
				C315.13,42.83,314.46,43.74,313.79,45.1z M329.9,84.08v-19.6c0-2.48-0.6-4.36-1.79-5.62c-1.2-1.26-2.76-1.9-4.69-1.9
				c-1.63,0-3.08,0.45-4.33,1.35c-1.25,0.9-2.24,2.25-2.95,4.05c-0.71,1.81-1.07,4.05-1.07,6.75h-2.69c0-4.35,0.54-7.96,1.62-10.85
				c1.08-2.89,2.61-5.04,4.59-6.47c1.98-1.43,4.3-2.14,6.97-2.14c2.76,0,5.07,0.62,6.92,1.85s3.24,2.96,4.17,5.19
				c0.93,2.23,1.4,4.83,1.4,7.8v19.6H329.9z"/>
			<path class="st1" d="M363.09,85.05c-3.06,0-5.83-0.66-8.3-1.97c-2.47-1.31-4.43-3.27-5.88-5.88c-1.45-2.61-2.17-5.88-2.17-9.82
				c0-4,0.72-7.31,2.17-9.94c1.45-2.62,3.41-4.58,5.88-5.87c2.47-1.29,5.24-1.93,8.3-1.93c3.01,0,5.74,0.64,8.19,1.93
				c2.45,1.29,4.4,3.24,5.85,5.87s2.17,5.93,2.17,9.94c0,3.93-0.72,7.21-2.17,9.82c-1.45,2.61-3.4,4.57-5.85,5.88
				C368.83,84.39,366.1,85.05,363.09,85.05z M362.81,77.94c1.61,0,3.04-0.4,4.29-1.19c1.25-0.79,2.24-1.97,2.97-3.54
				c0.72-1.56,1.09-3.51,1.09-5.83c0-3.54-0.7-6.21-2.09-8c-1.39-1.79-3.29-2.69-5.71-2.69c-1.63,0-3.08,0.4-4.35,1.19
				c-1.27,0.79-2.26,1.98-2.98,3.57s-1.09,3.57-1.09,5.93c0,3.5,0.71,6.13,2.12,7.9C358.48,77.06,360.4,77.94,362.81,77.94z"/>
			<path class="st1" d="M401.45,85.05c-3.22,0-5.99-0.44-8.3-1.33c-2.31-0.88-4.09-2.16-5.33-3.83c-1.24-1.67-1.88-3.67-1.9-6.02
				h7.52c0.07,1.66,0.72,2.86,1.97,3.62c1.24,0.76,2.93,1.14,5.07,1.14c1.17,0,2.21-0.17,3.12-0.52c0.91-0.35,1.62-0.82,2.12-1.42
				c0.51-0.6,0.76-1.26,0.76-2c0-0.94-0.34-1.68-1.02-2.23c-0.68-0.54-1.76-1.04-3.26-1.5l-7.31-2.62
				c-2.62-0.94-4.63-2.19-6.04-3.73c-1.4-1.54-2.1-3.38-2.1-5.52c0-2.83,1.28-5.11,3.85-6.85c2.56-1.74,6-2.6,10.3-2.6
				c4.28,0,7.58,0.94,9.92,2.81c2.33,1.88,3.54,4.25,3.61,7.12h-7.66c-0.12-1.1-0.64-1.98-1.59-2.62c-0.94-0.64-2.37-0.97-4.28-0.97
				c-1.72,0-3.08,0.35-4.05,1.05s-1.47,1.52-1.47,2.47c0,1.59,1.36,2.78,4.07,3.59l7.93,2.97c2.58,0.87,4.58,2,6,3.38
				s2.14,3.13,2.14,5.24c0,1.77-0.59,3.44-1.78,5.02c-1.18,1.58-2.83,2.86-4.95,3.85C406.69,84.56,404.24,85.05,401.45,85.05z"/>
			<path class="st1" d="M455.17,85.05c-2.81,0-5.36-0.74-7.68-2.22s-4.15-3.57-5.52-6.25c-1.37-2.68-2.05-5.81-2.05-9.4
				c0-3.54,0.66-6.63,1.98-9.26c1.32-2.63,3.09-4.67,5.31-6.11s4.69-2.16,7.4-2.16c2.48,0,4.63,0.59,6.45,1.78
				c1.82,1.19,3.21,2.94,4.17,5.26s1.45,5.17,1.45,8.56h-2.55c0-1.75-0.36-3.24-1.07-4.47c-0.71-1.23-1.65-2.17-2.81-2.83
				c-1.16-0.66-2.42-0.98-3.78-0.98c-1.63,0-3.08,0.43-4.33,1.28s-2.24,2.04-2.95,3.57c-0.71,1.53-1.07,3.32-1.07,5.37
				c0,2.12,0.36,3.96,1.07,5.52c0.71,1.56,1.7,2.78,2.95,3.66s2.67,1.31,4.26,1.31c1.29,0,2.52-0.35,3.71-1.05s2.15-1.68,2.9-2.95
				c0.75-1.26,1.12-2.74,1.12-4.42h2.55c0,3.52-0.52,6.45-1.57,8.78c-1.05,2.33-2.44,4.09-4.19,5.26S457.26,85.05,455.17,85.05z
				 M465.66,84.08l-1.52-8.28V36.75h8.21v47.33H465.66z"/>
			<path class="st1" d="M497.67,85.05c-2.85,0-5.46-0.74-7.83-2.21s-4.27-3.54-5.69-6.19s-2.14-5.77-2.14-9.33
				c0-3.68,0.71-6.84,2.12-9.49c1.41-2.64,3.31-4.67,5.67-6.07c2.37-1.4,4.99-2.1,7.87-2.1c2.67,0,4.97,0.53,6.92,1.6
				c1.94,1.07,3.51,2.52,4.69,4.35c1.18,1.83,1.98,3.89,2.4,6.19c0.41,2.3,0.44,4.67,0.07,7.11H488.5v-4.42h17.49l-1.59,1.04
				c0.07-1.08,0.02-2.17-0.16-3.28c-0.17-1.1-0.5-2.12-0.98-3.04c-0.48-0.92-1.17-1.66-2.05-2.23c-0.89-0.56-2.02-0.84-3.4-0.84
				c-1.66,0-3.06,0.41-4.21,1.24c-1.15,0.83-2.02,1.96-2.62,3.38c-0.6,1.43-0.9,3.04-0.9,4.83v3.24c0,1.89,0.28,3.55,0.84,5
				s1.4,2.59,2.52,3.42c1.12,0.83,2.52,1.24,4.23,1.24c1.59,0,2.92-0.37,4-1.1c1.08-0.74,1.77-1.84,2.07-3.31h8.21
				c-0.35,2.16-1.16,4.07-2.43,5.71s-2.93,2.93-4.95,3.86C502.55,84.58,500.25,85.05,497.67,85.05z"/>
			<path class="st1" d="M551.7,85.05c-2.85,0-5.46-0.74-7.83-2.21s-4.27-3.54-5.69-6.19s-2.14-5.77-2.14-9.33
				c0-3.68,0.71-6.84,2.12-9.49c1.41-2.64,3.31-4.67,5.67-6.07c2.37-1.4,4.99-2.1,7.87-2.1c2.67,0,4.97,0.53,6.92,1.6
				c1.94,1.07,3.51,2.52,4.69,4.35c1.18,1.83,1.98,3.89,2.4,6.19c0.41,2.3,0.44,4.67,0.07,7.11h-23.25v-4.42h17.49l-1.59,1.04
				c0.07-1.08,0.02-2.17-0.16-3.28c-0.17-1.1-0.5-2.12-0.98-3.04c-0.48-0.92-1.17-1.66-2.05-2.23c-0.89-0.56-2.02-0.84-3.4-0.84
				c-1.66,0-3.06,0.41-4.21,1.24c-1.15,0.83-2.02,1.96-2.62,3.38c-0.6,1.43-0.9,3.04-0.9,4.83v3.24c0,1.89,0.28,3.55,0.84,5
				s1.4,2.59,2.52,3.42c1.12,0.83,2.52,1.24,4.23,1.24c1.59,0,2.92-0.37,4-1.1c1.08-0.74,1.77-1.84,2.07-3.31h8.21
				c-0.35,2.16-1.16,4.07-2.43,5.71s-2.93,2.93-4.95,3.86C556.58,84.58,554.28,85.05,551.7,85.05z"/>
			<path class="st1" d="M588.13,85.05c-2.81,0-5.36-0.74-7.68-2.22s-4.15-3.57-5.52-6.25c-1.37-2.68-2.05-5.81-2.05-9.4
				c0-3.54,0.66-6.63,1.98-9.26c1.32-2.63,3.09-4.67,5.31-6.11s4.69-2.16,7.4-2.16c2.48,0,4.63,0.59,6.45,1.78
				c1.82,1.19,3.21,2.94,4.17,5.26s1.45,5.17,1.45,8.56h-2.55c0-1.75-0.36-3.24-1.07-4.47c-0.71-1.23-1.65-2.17-2.81-2.83
				c-1.16-0.66-2.42-0.98-3.78-0.98c-1.63,0-3.08,0.43-4.33,1.28s-2.24,2.04-2.95,3.57c-0.71,1.53-1.07,3.32-1.07,5.37
				c0,2.12,0.36,3.96,1.07,5.52c0.71,1.56,1.7,2.78,2.95,3.66s2.67,1.31,4.26,1.31c1.29,0,2.52-0.35,3.71-1.05s2.15-1.68,2.9-2.95
				c0.75-1.26,1.12-2.74,1.12-4.42h2.55c0,3.52-0.52,6.45-1.57,8.78c-1.05,2.33-2.44,4.09-4.19,5.26S590.22,85.05,588.13,85.05z
				 M598.62,84.08l-1.52-8.28V36.75h8.21v47.33H598.62z"/>
			<path class="st1" d="M617.46,50.48h8.14v20.56c0,2.19,0.54,3.82,1.62,4.92c1.08,1.09,2.56,1.64,4.45,1.64
				c1.61,0,3.08-0.42,4.4-1.26c1.32-0.84,2.38-2.08,3.17-3.73c0.79-1.64,1.19-3.69,1.19-6.12h2.21c0,4.09-0.53,7.49-1.59,10.18
				c-1.06,2.69-2.52,4.7-4.38,6.04s-4.01,2-6.45,2c-2.39,0-4.55-0.43-6.49-1.28c-1.93-0.85-3.46-2.22-4.59-4.11
				c-1.13-1.89-1.69-4.37-1.69-7.45V50.48z M640.43,50.48h8.14v33.6h-8.14V50.48z"/>
			<path class="st1" d="M674.11,85.05c-2.81,0-5.41-0.73-7.81-2.19s-4.35-3.52-5.83-6.18c-1.48-2.66-2.22-5.78-2.22-9.37
				c0-3.79,0.74-7.01,2.22-9.64c1.48-2.63,3.43-4.63,5.83-5.99c2.4-1.36,5.01-2.04,7.81-2.04c2.18,0,4.11,0.35,5.78,1.05
				c1.67,0.7,3.09,1.65,4.26,2.83c1.17,1.19,2.09,2.5,2.76,3.95c0.67,1.45,1.09,2.91,1.28,4.38l-8.21,0.21
				c-0.37-1.47-1.05-2.69-2.05-3.66c-1-0.97-2.29-1.45-3.88-1.45c-1.31,0-2.54,0.36-3.69,1.09c-1.15,0.72-2.09,1.85-2.81,3.36
				c-0.72,1.52-1.09,3.48-1.09,5.9c0,2.3,0.34,4.21,1.02,5.74c0.68,1.53,1.59,2.68,2.74,3.45c1.15,0.77,2.43,1.16,3.83,1.16
				c2.07,0,3.58-0.5,4.52-1.5c0.94-1,1.41-2.34,1.41-4.02h8.21c0,2.37-0.54,4.53-1.62,6.49c-1.08,1.96-2.67,3.51-4.76,4.67
				C679.71,84.47,677.14,85.05,674.11,85.05z"/>
			<path class="st1" d="M708.29,85.05c-2.88,0-5.27-0.5-7.19-1.5c-1.92-1-3.36-2.32-4.33-3.95s-1.45-3.4-1.45-5.31
				c0-2.12,0.56-3.89,1.67-5.33c1.12-1.44,2.7-2.52,4.74-3.24s4.46-1.09,7.25-1.09c1.82,0,3.54,0.14,5.16,0.41
				c1.62,0.28,3.24,0.64,4.85,1.1v4.76c-1.26-0.41-2.65-0.74-4.14-0.97c-1.5-0.23-2.9-0.35-4.21-0.35c-1.93,0-3.52,0.36-4.76,1.07
				c-1.24,0.71-1.86,1.92-1.86,3.62c0,1.24,0.51,2.31,1.52,3.21c1.01,0.9,2.62,1.34,4.83,1.34c1.68,0,3.11-0.37,4.28-1.1
				s2.06-1.66,2.67-2.76c0.61-1.1,0.91-2.21,0.91-3.31h1.93c0,2.42-0.45,4.64-1.35,6.68c-0.9,2.04-2.22,3.66-3.98,4.88
				S710.89,85.05,708.29,85.05z M719.27,84.08l-1.04-8.14V62.49c0-2.35-0.48-4.08-1.43-5.21c-0.96-1.13-2.57-1.69-4.85-1.69
				c-1.31,0-2.45,0.2-3.42,0.59c-0.97,0.39-1.71,0.95-2.23,1.67s-0.78,1.6-0.78,2.64h-8.9c0-2.53,0.61-4.59,1.83-6.19
				c1.22-1.6,2.97-2.77,5.26-3.52c2.29-0.75,5.03-1.12,8.23-1.12c2.9,0,5.43,0.47,7.59,1.4s3.84,2.36,5.04,4.29s1.79,4.4,1.79,7.42
				v21.32H719.27z"/>
			<path class="st1" d="M751.01,85.05c-2.81,0-5.41-0.73-7.81-2.19s-4.35-3.52-5.83-6.18c-1.48-2.66-2.22-5.78-2.22-9.37
				c0-3.79,0.74-7.01,2.22-9.64c1.48-2.63,3.43-4.63,5.83-5.99c2.4-1.36,5.01-2.04,7.81-2.04c2.18,0,4.11,0.35,5.78,1.05
				c1.67,0.7,3.09,1.65,4.26,2.83c1.17,1.19,2.09,2.5,2.76,3.95c0.67,1.45,1.09,2.91,1.28,4.38l-8.21,0.21
				c-0.37-1.47-1.05-2.69-2.05-3.66c-1-0.97-2.29-1.45-3.88-1.45c-1.31,0-2.54,0.36-3.69,1.09c-1.15,0.72-2.09,1.85-2.81,3.36
				c-0.72,1.52-1.09,3.48-1.09,5.9c0,2.3,0.34,4.21,1.02,5.74c0.68,1.53,1.59,2.68,2.74,3.45c1.15,0.77,2.43,1.16,3.83,1.16
				c2.07,0,3.58-0.5,4.52-1.5c0.94-1,1.41-2.34,1.41-4.02h8.21c0,2.37-0.54,4.53-1.62,6.49c-1.08,1.96-2.67,3.51-4.76,4.67
				C756.61,84.47,754.04,85.05,751.01,85.05z"/>
			<path class="st1" d="M779.61,44.48c-1.59,0-2.82-0.42-3.71-1.26c-0.89-0.84-1.33-2.01-1.33-3.5c0-1.45,0.44-2.6,1.33-3.47
				c0.88-0.86,2.12-1.29,3.71-1.29c1.54,0,2.77,0.43,3.67,1.29c0.91,0.86,1.36,2.02,1.36,3.47c0,1.5-0.45,2.66-1.36,3.5
				C782.37,44.06,781.15,44.48,779.61,44.48z M775.54,84.08v-33.6h8.14v33.6H775.54z"/>
			<path class="st1" d="M810.65,85.05c-3.06,0-5.83-0.66-8.3-1.97c-2.47-1.31-4.43-3.27-5.88-5.88c-1.45-2.61-2.17-5.88-2.17-9.82
				c0-4,0.72-7.31,2.17-9.94c1.45-2.62,3.41-4.58,5.88-5.87c2.47-1.29,5.24-1.93,8.3-1.93c3.01,0,5.74,0.64,8.19,1.93
				c2.45,1.29,4.4,3.24,5.85,5.87s2.17,5.93,2.17,9.94c0,3.93-0.72,7.21-2.17,9.82c-1.45,2.61-3.4,4.57-5.85,5.88
				C816.4,84.39,813.67,85.05,810.65,85.05z M810.38,77.94c1.61,0,3.04-0.4,4.29-1.19c1.25-0.79,2.24-1.97,2.97-3.54
				c0.72-1.56,1.09-3.51,1.09-5.83c0-3.54-0.7-6.21-2.09-8c-1.39-1.79-3.29-2.69-5.71-2.69c-1.63,0-3.08,0.4-4.35,1.19
				c-1.27,0.79-2.26,1.98-2.98,3.57s-1.09,3.57-1.09,5.93c0,3.5,0.71,6.13,2.12,7.9C806.05,77.06,807.96,77.94,810.38,77.94z
				 M808.38,45.65l-3.9-3.17l12.9-12.87l5.45,4.42L808.38,45.65z"/>
			<path class="st1" d="M836.53,84.08V50.62h7.11l1.03,6.62v26.84H836.53z M859.51,84.08v-19.6c0-2.48-0.6-4.36-1.79-5.62
				c-1.2-1.26-2.76-1.9-4.69-1.9c-1.63,0-3.08,0.45-4.33,1.35c-1.25,0.9-2.24,2.25-2.95,4.05c-0.71,1.81-1.07,4.05-1.07,6.75h-2.69
				c0-4.35,0.54-7.96,1.62-10.85c1.08-2.89,2.61-5.04,4.59-6.47c1.98-1.43,4.3-2.14,6.97-2.14c2.76,0,5.07,0.62,6.92,1.85
				s3.24,2.96,4.17,5.19c0.93,2.23,1.4,4.83,1.4,7.8v19.6H859.51z"/>
		</g>
	</g>
	<g>
		<circle class="st2" cx="1023.48" cy="238.54" r="8.09"/>
		<path class="st2" d="M1036.37,258.49v13.7c-0.01,3.79-2.13,7.26-5.51,9v15.22c0.14,4.07-3.05,7.49-7.12,7.63
			c-4.07,0.14-7.49-3.05-7.63-7.12c-0.01-0.17-0.01-0.34,0-0.5V281.2c-3.38-1.74-5.5-5.21-5.52-9.01v-13.7
			c0.02-5.58,4.55-10.09,10.12-10.11h5.52C1031.82,248.4,1036.35,252.91,1036.37,258.49z"/>
		<circle class="st2" cx="1023.48" cy="332.04" r="8.09"/>
		<path class="st2" d="M1036.37,351.99v13.7c-0.01,3.79-2.13,7.26-5.51,9v15.22c0.14,4.07-3.05,7.49-7.12,7.63
			c-4.07,0.14-7.49-3.05-7.63-7.12c-0.01-0.17-0.01-0.34,0-0.5V374.7c-3.38-1.74-5.5-5.21-5.52-9.01v-13.7
			c0.02-5.58,4.55-10.09,10.12-10.11h5.52C1031.82,341.9,1036.35,346.41,1036.37,351.99z"/>
		<circle class="st2" cx="1023.48" cy="425.55" r="8.09"/>
		<path class="st2" d="M1036.37,445.49v13.7c-0.01,3.79-2.13,7.26-5.51,9v15.22c0.14,4.07-3.05,7.49-7.12,7.63
			c-4.07,0.14-7.49-3.05-7.63-7.12c-0.01-0.17-0.01-0.34,0-0.5V468.2c-3.38-1.74-5.5-5.21-5.52-9.01v-13.7
			c0.02-5.58,4.55-10.09,10.12-10.11h5.52C1031.82,435.4,1036.35,439.91,1036.37,445.49z"/>
		<circle class="st2" cx="1023.48" cy="519.05" r="8.09"/>
		<path class="st2" d="M1036.37,632.49v13.7c-0.01,3.79-2.13,7.26-5.51,9v15.22c0.14,4.07-3.05,7.49-7.12,7.63s-7.49-3.05-7.63-7.12
			c-0.01-0.17-0.01-0.34,0-0.5V655.2c-3.38-1.74-5.5-5.21-5.52-9.01v-13.7c0.02-5.58,4.55-10.09,10.12-10.11h5.52
			C1031.82,622.4,1036.35,626.91,1036.37,632.49z"/>
		<circle class="st3" cx="1023.48" cy="706.05" r="8.09"/>
		<path class="st3" d="M1036.37,725.99v13.7c-0.01,3.79-2.13,7.26-5.51,9v15.22c0.14,4.07-3.05,7.49-7.12,7.63s-7.49-3.05-7.63-7.12
			c-0.01-0.17-0.01-0.34,0-0.5V748.7c-3.38-1.74-5.5-5.21-5.52-9.01v-13.7c0.02-5.58,4.55-10.09,10.12-10.11h5.52
			C1031.82,715.9,1036.35,720.41,1036.37,725.99z"/>
		<circle class="st3" cx="1023.48" cy="799.55" r="8.09"/>
		<path class="st3" d="M1036.37,819.49v13.7c-0.01,3.79-2.13,7.26-5.51,9v15.22c0.14,4.07-3.05,7.49-7.12,7.63
			c-4.07,0.14-7.49-3.05-7.63-7.12c-0.01-0.17-0.01-0.34,0-0.5V842.2c-3.38-1.74-5.5-5.21-5.52-9.01v-13.7
			c0.02-5.58,4.55-10.09,10.12-10.11h5.52C1031.82,809.4,1036.35,813.92,1036.37,819.49z"/>
		<circle class="st3" cx="1023.48" cy="893.05" r="8.09"/>
		<path class="st3" d="M1036.37,912.99v13.7c-0.01,3.79-2.13,7.26-5.51,9v15.22c0.14,4.07-3.05,7.49-7.12,7.63s-7.49-3.05-7.63-7.12
			c-0.01-0.17-0.01-0.34,0-0.5V935.7c-3.38-1.74-5.5-5.21-5.52-9.01v-13.7c0.02-5.58,4.55-10.09,10.12-10.11h5.52
			C1031.82,902.9,1036.35,907.42,1036.37,912.99z"/>
		<circle class="st3" cx="1023.48" cy="986.55" r="8.09"/>
		<path class="st3" d="M1036.37,1006.5v13.7c-0.01,3.79-2.13,7.26-5.51,9v15.22c0.14,4.07-3.05,7.49-7.12,7.63
			c-4.07,0.14-7.49-3.05-7.63-7.12c-0.01-0.17-0.01-0.34,0-0.5v-15.21c-3.38-1.74-5.5-5.21-5.52-9.01v-13.7
			c0.02-5.58,4.55-10.09,10.12-10.11h5.52C1031.82,996.4,1036.35,1000.92,1036.37,1006.5z"/>
		<circle class="st3" cx="1023.48" cy="1080.05" r="8.09"/>
		<path class="st3" d="M1036.37,1100v13.7c-0.01,3.79-2.13,7.26-5.51,9v15.22c0.14,4.07-3.05,7.49-7.12,7.63s-7.49-3.05-7.63-7.12
			c-0.01-0.17-0.01-0.34,0-0.5v-15.21c-3.38-1.74-5.5-5.21-5.52-9.01V1100c0.02-5.58,4.55-10.09,10.12-10.11h5.52
			C1031.82,1089.9,1036.35,1094.42,1036.37,1100z"/>
		<path class="st2" d="M1036.37,538.99v13.7c-0.01,3.79-2.13,7.26-5.51,9v15.22c0.14,4.07-3.05,7.49-7.12,7.63s-7.49-3.05-7.63-7.12
			c-0.01-0.17-0.01-0.34,0-0.5V561.7c-3.38-1.74-5.5-5.21-5.52-9.01v-13.7c0.02-5.58,4.55-10.09,10.12-10.11h5.52
			C1031.82,528.9,1036.35,533.41,1036.37,538.99z"/>
		<circle class="st2" cx="1023.48" cy="612.55" r="8.09"/>
		<circle class="st2" cx="1120.49" cy="238.54" r="8.09"/>
		<path class="st2" d="M1133.37,258.49v13.7c-0.01,3.79-2.13,7.26-5.51,9v15.22c0.14,4.07-3.05,7.49-7.12,7.63
			c-4.07,0.14-7.49-3.05-7.63-7.12c-0.01-0.17-0.01-0.34,0-0.5V281.2c-3.38-1.74-5.5-5.21-5.52-9.01v-13.7
			c0.02-5.58,4.55-10.09,10.12-10.11h5.52C1128.83,248.4,1133.35,252.91,1133.37,258.49z"/>
		<circle class="st2" cx="1120.49" cy="332.04" r="8.09"/>
		<path class="st2" d="M1133.37,351.99v13.7c-0.01,3.79-2.13,7.26-5.51,9v15.22c0.14,4.07-3.05,7.49-7.12,7.63
			c-4.07,0.14-7.49-3.05-7.63-7.12c-0.01-0.17-0.01-0.34,0-0.5V374.7c-3.38-1.74-5.5-5.21-5.52-9.01v-13.7
			c0.02-5.58,4.55-10.09,10.12-10.11h5.52C1128.83,341.9,1133.35,346.41,1133.37,351.99z"/>
		<circle class="st2" cx="1120.49" cy="425.55" r="8.09"/>
		<path class="st2" d="M1133.37,445.49v13.7c-0.01,3.79-2.13,7.26-5.51,9v15.22c0.14,4.07-3.05,7.49-7.12,7.63
			c-4.07,0.14-7.49-3.05-7.63-7.12c-0.01-0.17-0.01-0.34,0-0.5V468.2c-3.38-1.74-5.5-5.21-5.52-9.01v-13.7
			c0.02-5.58,4.55-10.09,10.12-10.11h5.52C1128.83,435.4,1133.35,439.91,1133.37,445.49z"/>
		<circle class="st2" cx="1120.49" cy="519.05" r="8.09"/>
		<path class="st2" d="M1133.37,538.99v13.7c-0.01,3.79-2.13,7.26-5.51,9v15.22c0.14,4.07-3.05,7.49-7.12,7.63s-7.49-3.05-7.63-7.12
			c-0.01-0.17-0.01-0.34,0-0.5V561.7c-3.38-1.74-5.5-5.21-5.52-9.01v-13.7c0.02-5.58,4.55-10.09,10.12-10.11h5.52
			C1128.83,528.9,1133.35,533.41,1133.37,538.99z"/>
		<circle class="st2" cx="1120.49" cy="612.55" r="8.09"/>
		<path class="st2" d="M1133.37,632.49v13.7c-0.01,3.79-2.13,7.26-5.51,9v15.22c0.14,4.07-3.05,7.49-7.12,7.63s-7.49-3.05-7.63-7.12
			c-0.01-0.17-0.01-0.34,0-0.5V655.2c-3.38-1.74-5.5-5.21-5.52-9.01v-13.7c0.02-5.58,4.55-10.09,10.12-10.11h5.52
			C1128.83,622.4,1133.35,626.91,1133.37,632.49z"/>
		<circle class="st3" cx="1120.49" cy="706.05" r="8.09"/>
		<path class="st3" d="M1133.37,725.99v13.7c-0.01,3.79-2.13,7.26-5.51,9v15.22c0.14,4.07-3.05,7.49-7.12,7.63s-7.49-3.05-7.63-7.12
			c-0.01-0.17-0.01-0.34,0-0.5V748.7c-3.38-1.74-5.5-5.21-5.52-9.01v-13.7c0.02-5.58,4.55-10.09,10.12-10.11h5.52
			C1128.83,715.9,1133.35,720.41,1133.37,725.99z"/>
		<circle class="st3" cx="1120.49" cy="799.55" r="8.09"/>
		<path class="st3" d="M1133.37,819.49v13.7c-0.01,3.79-2.13,7.26-5.51,9v15.22c0.14,4.07-3.05,7.49-7.12,7.63
			c-4.07,0.14-7.49-3.05-7.63-7.12c-0.01-0.17-0.01-0.34,0-0.5V842.2c-3.38-1.74-5.5-5.21-5.52-9.01v-13.7
			c0.02-5.58,4.55-10.09,10.12-10.11h5.52C1128.83,809.4,1133.35,813.92,1133.37,819.49z"/>
		<circle class="st3" cx="1120.49" cy="893.05" r="8.09"/>
		<path class="st3" d="M1133.37,912.99v13.7c-0.01,3.79-2.13,7.26-5.51,9v15.22c0.14,4.07-3.05,7.49-7.12,7.63s-7.49-3.05-7.63-7.12
			c-0.01-0.17-0.01-0.34,0-0.5V935.7c-3.38-1.74-5.5-5.21-5.52-9.01v-13.7c0.02-5.58,4.55-10.09,10.12-10.11h5.52
			C1128.83,902.9,1133.35,907.42,1133.37,912.99z"/>
		<circle class="st3" cx="1120.49" cy="986.55" r="8.09"/>
		<path class="st3" d="M1133.37,1006.5v13.7c-0.01,3.79-2.13,7.26-5.51,9v15.22c0.14,4.07-3.05,7.49-7.12,7.63
			c-4.07,0.14-7.49-3.05-7.63-7.12c-0.01-0.17-0.01-0.34,0-0.5v-15.21c-3.38-1.74-5.5-5.21-5.52-9.01v-13.7
			c0.02-5.58,4.55-10.09,10.12-10.11h5.52C1128.83,996.4,1133.35,1000.92,1133.37,1006.5z"/>
		<circle class="st3" cx="1120.49" cy="1080.05" r="8.09"/>
		<path class="st3" d="M1133.37,1100v13.7c-0.01,3.79-2.13,7.26-5.51,9v15.22c0.14,4.07-3.05,7.49-7.12,7.63s-7.49-3.05-7.63-7.12
			c-0.01-0.17-0.01-0.34,0-0.5v-15.21c-3.38-1.74-5.5-5.21-5.52-9.01V1100c0.02-5.58,4.55-10.09,10.12-10.11h5.52
			C1128.83,1089.9,1133.35,1094.42,1133.37,1100z"/>
		<circle class="st2" cx="1217.49" cy="238.54" r="8.09"/>
		<path class="st2" d="M1230.38,258.49v13.7c-0.01,3.79-2.13,7.26-5.51,9v15.22c0.14,4.07-3.05,7.49-7.12,7.63
			c-4.07,0.14-7.49-3.05-7.63-7.12c-0.01-0.17-0.01-0.34,0-0.5V281.2c-3.38-1.74-5.5-5.21-5.52-9.01v-13.7
			c0.02-5.58,4.55-10.09,10.12-10.11h5.52C1225.83,248.4,1230.35,252.91,1230.38,258.49z"/>
		<circle class="st2" cx="1217.49" cy="332.04" r="8.09"/>
		<path class="st2" d="M1230.38,351.99v13.7c-0.01,3.79-2.13,7.26-5.51,9v15.22c0.14,4.07-3.05,7.49-7.12,7.63
			c-4.07,0.14-7.49-3.05-7.63-7.12c-0.01-0.17-0.01-0.34,0-0.5V374.7c-3.38-1.74-5.5-5.21-5.52-9.01v-13.7
			c0.02-5.58,4.55-10.09,10.12-10.11h5.52C1225.83,341.9,1230.35,346.41,1230.38,351.99z"/>
		<circle class="st2" cx="1217.49" cy="425.55" r="8.09"/>
		<path class="st2" d="M1230.38,445.49v13.7c-0.01,3.79-2.13,7.26-5.51,9v15.22c0.14,4.07-3.05,7.49-7.12,7.63
			c-4.07,0.14-7.49-3.05-7.63-7.12c-0.01-0.17-0.01-0.34,0-0.5V468.2c-3.38-1.74-5.5-5.21-5.52-9.01v-13.7
			c0.02-5.58,4.55-10.09,10.12-10.11h5.52C1225.83,435.4,1230.35,439.91,1230.38,445.49z"/>
		<circle class="st2" cx="1217.49" cy="519.05" r="8.09"/>
		<path class="st2" d="M1230.38,538.99v13.7c-0.01,3.79-2.13,7.26-5.51,9v15.22c0.14,4.07-3.05,7.49-7.12,7.63s-7.49-3.05-7.63-7.12
			c-0.01-0.17-0.01-0.34,0-0.5V561.7c-3.38-1.74-5.5-5.21-5.52-9.01v-13.7c0.02-5.58,4.55-10.09,10.12-10.11h5.52
			C1225.83,528.9,1230.35,533.41,1230.38,538.99z"/>
		<circle class="st2" cx="1217.49" cy="612.55" r="8.09"/>
		<path class="st2" d="M1230.38,632.49v13.7c-0.01,3.79-2.13,7.26-5.51,9v15.22c0.14,4.07-3.05,7.49-7.12,7.63s-7.49-3.05-7.63-7.12
			c-0.01-0.17-0.01-0.34,0-0.5V655.2c-3.38-1.74-5.5-5.21-5.52-9.01v-13.7c0.02-5.58,4.55-10.09,10.12-10.11h5.52
			C1225.83,622.4,1230.35,626.91,1230.38,632.49z"/>
		<circle class="st3" cx="1217.49" cy="706.05" r="8.09"/>
		<path class="st3" d="M1230.38,725.99v13.7c-0.01,3.79-2.13,7.26-5.51,9v15.22c0.14,4.07-3.05,7.49-7.12,7.63s-7.49-3.05-7.63-7.12
			c-0.01-0.17-0.01-0.34,0-0.5V748.7c-3.38-1.74-5.5-5.21-5.52-9.01v-13.7c0.02-5.58,4.55-10.09,10.12-10.11h5.52
			C1225.83,715.9,1230.35,720.41,1230.38,725.99z"/>
		<circle class="st3" cx="1217.49" cy="799.55" r="8.09"/>
		<path class="st3" d="M1230.38,819.49v13.7c-0.01,3.79-2.13,7.26-5.51,9v15.22c0.14,4.07-3.05,7.49-7.12,7.63
			c-4.07,0.14-7.49-3.05-7.63-7.12c-0.01-0.17-0.01-0.34,0-0.5V842.2c-3.38-1.74-5.5-5.21-5.52-9.01v-13.7
			c0.02-5.58,4.55-10.09,10.12-10.11h5.52C1225.83,809.4,1230.35,813.92,1230.38,819.49z"/>
		<circle class="st3" cx="1217.49" cy="893.05" r="8.09"/>
		<path class="st3" d="M1230.38,912.99v13.7c-0.01,3.79-2.13,7.26-5.51,9v15.22c0.14,4.07-3.05,7.49-7.12,7.63s-7.49-3.05-7.63-7.12
			c-0.01-0.17-0.01-0.34,0-0.5V935.7c-3.38-1.74-5.5-5.21-5.52-9.01v-13.7c0.02-5.58,4.55-10.09,10.12-10.11h5.52
			C1225.83,902.9,1230.35,907.42,1230.38,912.99z"/>
		<circle class="st3" cx="1217.49" cy="986.55" r="8.09"/>
		<path class="st3" d="M1230.38,1006.5v13.7c-0.01,3.79-2.13,7.26-5.51,9v15.22c0.14,4.07-3.05,7.49-7.12,7.63
			c-4.07,0.14-7.49-3.05-7.63-7.12c-0.01-0.17-0.01-0.34,0-0.5v-15.21c-3.38-1.74-5.5-5.21-5.52-9.01v-13.7
			c0.02-5.58,4.55-10.09,10.12-10.11h5.52C1225.83,996.4,1230.35,1000.92,1230.38,1006.5z"/>
		<circle class="st3" cx="1217.49" cy="1080.05" r="8.09"/>
		<path class="st3" d="M1230.38,1100v13.7c-0.01,3.79-2.13,7.26-5.51,9v15.22c0.14,4.07-3.05,7.49-7.12,7.63s-7.49-3.05-7.63-7.12
			c-0.01-0.17-0.01-0.34,0-0.5v-15.21c-3.38-1.74-5.5-5.21-5.52-9.01V1100c0.02-5.58,4.55-10.09,10.12-10.11h5.52
			C1225.83,1089.9,1230.35,1094.42,1230.38,1100z"/>
		<circle class="st2" cx="1314.49" cy="238.54" r="8.09"/>
		<path class="st2" d="M1327.38,258.49v13.7c-0.01,3.79-2.13,7.26-5.51,9v15.22c0.14,4.07-3.05,7.49-7.12,7.63
			c-4.07,0.14-7.49-3.05-7.63-7.12c-0.01-0.17-0.01-0.34,0-0.5V281.2c-3.38-1.74-5.5-5.21-5.52-9.01v-13.7
			c0.02-5.58,4.55-10.09,10.12-10.11h5.52C1322.84,248.4,1327.36,252.91,1327.38,258.49z"/>
		<circle class="st2" cx="1314.49" cy="332.04" r="8.09"/>
		<path class="st2" d="M1327.38,351.99v13.7c-0.01,3.79-2.13,7.26-5.51,9v15.22c0.14,4.07-3.05,7.49-7.12,7.63
			c-4.07,0.14-7.49-3.05-7.63-7.12c-0.01-0.17-0.01-0.34,0-0.5V374.7c-3.38-1.74-5.5-5.21-5.52-9.01v-13.7
			c0.02-5.58,4.55-10.09,10.12-10.11h5.52C1322.84,341.9,1327.36,346.41,1327.38,351.99z"/>
		<circle class="st2" cx="1314.49" cy="425.55" r="8.09"/>
		<path class="st2" d="M1327.38,445.49v13.7c-0.01,3.79-2.13,7.26-5.51,9v15.22c0.14,4.07-3.05,7.49-7.12,7.63
			c-4.07,0.14-7.49-3.05-7.63-7.12c-0.01-0.17-0.01-0.34,0-0.5V468.2c-3.38-1.74-5.5-5.21-5.52-9.01v-13.7
			c0.02-5.58,4.55-10.09,10.12-10.11h5.52C1322.84,435.4,1327.36,439.91,1327.38,445.49z"/>
		<circle class="st2" cx="1314.49" cy="519.05" r="8.09"/>
		<path class="st2" d="M1327.38,538.99v13.7c-0.01,3.79-2.13,7.26-5.51,9v15.22c0.14,4.07-3.05,7.49-7.12,7.63s-7.49-3.05-7.63-7.12
			c-0.01-0.17-0.01-0.34,0-0.5V561.7c-3.38-1.74-5.5-5.21-5.52-9.01v-13.7c0.02-5.58,4.55-10.09,10.12-10.11h5.52
			C1322.84,528.9,1327.36,533.41,1327.38,538.99z"/>
		<circle class="st2" cx="1314.49" cy="612.55" r="8.09"/>
		<path class="st2" d="M1327.38,632.49v13.7c-0.01,3.79-2.13,7.26-5.51,9v15.22c0.14,4.07-3.05,7.49-7.12,7.63s-7.49-3.05-7.63-7.12
			c-0.01-0.17-0.01-0.34,0-0.5V655.2c-3.38-1.74-5.5-5.21-5.52-9.01v-13.7c0.02-5.58,4.55-10.09,10.12-10.11h5.52
			C1322.84,622.4,1327.36,626.91,1327.38,632.49z"/>
		<circle class="st3" cx="1314.49" cy="706.05" r="8.09"/>
		<path class="st3" d="M1327.38,725.99v13.7c-0.01,3.79-2.13,7.26-5.51,9v15.22c0.14,4.07-3.05,7.49-7.12,7.63s-7.49-3.05-7.63-7.12
			c-0.01-0.17-0.01-0.34,0-0.5V748.7c-3.38-1.74-5.5-5.21-5.52-9.01v-13.7c0.02-5.58,4.55-10.09,10.12-10.11h5.52
			C1322.84,715.9,1327.36,720.41,1327.38,725.99z"/>
		<circle class="st3" cx="1314.49" cy="799.55" r="8.09"/>
		<path class="st3" d="M1327.38,819.49v13.7c-0.01,3.79-2.13,7.26-5.51,9v15.22c0.14,4.07-3.05,7.49-7.12,7.63
			c-4.07,0.14-7.49-3.05-7.63-7.12c-0.01-0.17-0.01-0.34,0-0.5V842.2c-3.38-1.74-5.5-5.21-5.52-9.01v-13.7
			c0.02-5.58,4.55-10.09,10.12-10.11h5.52C1322.84,809.4,1327.36,813.92,1327.38,819.49z"/>
		<circle class="st3" cx="1314.49" cy="893.05" r="8.09"/>
		<path class="st3" d="M1327.38,912.99v13.7c-0.01,3.79-2.13,7.26-5.51,9v15.22c0.14,4.07-3.05,7.49-7.12,7.63s-7.49-3.05-7.63-7.12
			c-0.01-0.17-0.01-0.34,0-0.5V935.7c-3.38-1.74-5.5-5.21-5.52-9.01v-13.7c0.02-5.58,4.55-10.09,10.12-10.11h5.52
			C1322.84,902.9,1327.36,907.42,1327.38,912.99z"/>
		<circle class="st3" cx="1314.49" cy="986.55" r="8.09"/>
		<path class="st3" d="M1327.38,1006.5v13.7c-0.01,3.79-2.13,7.26-5.51,9v15.22c0.14,4.07-3.05,7.49-7.12,7.63
			c-4.07,0.14-7.49-3.05-7.63-7.12c-0.01-0.17-0.01-0.34,0-0.5v-15.21c-3.38-1.74-5.5-5.21-5.52-9.01v-13.7
			c0.02-5.58,4.55-10.09,10.12-10.11h5.52C1322.84,996.4,1327.36,1000.92,1327.38,1006.5z"/>
		<circle class="st3" cx="1314.49" cy="1080.05" r="8.09"/>
		<path class="st3" d="M1327.38,1100v13.7c-0.01,3.79-2.13,7.26-5.51,9v15.22c0.14,4.07-3.05,7.49-7.12,7.63s-7.49-3.05-7.63-7.12
			c-0.01-0.17-0.01-0.34,0-0.5v-15.21c-3.38-1.74-5.5-5.21-5.52-9.01V1100c0.02-5.58,4.55-10.09,10.12-10.11h5.52
			C1322.84,1089.9,1327.36,1094.42,1327.38,1100z"/>
		<circle class="st2" cx="1411.5" cy="238.54" r="8.09"/>
		<path class="st2" d="M1424.38,258.49v13.7c-0.01,3.79-2.13,7.26-5.51,9v15.22c0.14,4.07-3.05,7.49-7.12,7.63
			c-4.07,0.14-7.49-3.05-7.63-7.12c-0.01-0.17-0.01-0.34,0-0.5V281.2c-3.38-1.74-5.5-5.21-5.52-9.01v-13.7
			c0.02-5.58,4.55-10.09,10.12-10.11h5.52C1419.84,248.4,1424.36,252.91,1424.38,258.49z"/>
		<circle class="st2" cx="1411.5" cy="332.04" r="8.09"/>
		<path class="st2" d="M1424.38,351.99v13.7c-0.01,3.79-2.13,7.26-5.51,9v15.22c0.14,4.07-3.05,7.49-7.12,7.63
			c-4.07,0.14-7.49-3.05-7.63-7.12c-0.01-0.17-0.01-0.34,0-0.5V374.7c-3.38-1.74-5.5-5.21-5.52-9.01v-13.7
			c0.02-5.58,4.55-10.09,10.12-10.11h5.52C1419.84,341.9,1424.36,346.41,1424.38,351.99z"/>
		<circle class="st2" cx="1411.5" cy="425.55" r="8.09"/>
		<path class="st2" d="M1424.38,445.49v13.7c-0.01,3.79-2.13,7.26-5.51,9v15.22c0.14,4.07-3.05,7.49-7.12,7.63
			c-4.07,0.14-7.49-3.05-7.63-7.12c-0.01-0.17-0.01-0.34,0-0.5V468.2c-3.38-1.74-5.5-5.21-5.52-9.01v-13.7
			c0.02-5.58,4.55-10.09,10.12-10.11h5.52C1419.84,435.4,1424.36,439.91,1424.38,445.49z"/>
		<circle class="st2" cx="1411.5" cy="519.05" r="8.09"/>
		<path class="st2" d="M1424.38,538.99v13.7c-0.01,3.79-2.13,7.26-5.51,9v15.22c0.14,4.07-3.05,7.49-7.12,7.63s-7.49-3.05-7.63-7.12
			c-0.01-0.17-0.01-0.34,0-0.5V561.7c-3.38-1.74-5.5-5.21-5.52-9.01v-13.7c0.02-5.58,4.55-10.09,10.12-10.11h5.52
			C1419.84,528.9,1424.36,533.41,1424.38,538.99z"/>
		<circle class="st2" cx="1411.5" cy="612.55" r="8.09"/>
		<path class="st2" d="M1424.38,632.49v13.7c-0.01,3.79-2.13,7.26-5.51,9v15.22c0.14,4.07-3.05,7.49-7.12,7.63s-7.49-3.05-7.63-7.12
			c-0.01-0.17-0.01-0.34,0-0.5V655.2c-3.38-1.74-5.5-5.21-5.52-9.01v-13.7c0.02-5.58,4.55-10.09,10.12-10.11h5.52
			C1419.84,622.4,1424.36,626.91,1424.38,632.49z"/>
		<circle class="st3" cx="1411.5" cy="706.05" r="8.09"/>
		<path class="st3" d="M1424.38,725.99v13.7c-0.01,3.79-2.13,7.26-5.51,9v15.22c0.14,4.07-3.05,7.49-7.12,7.63s-7.49-3.05-7.63-7.12
			c-0.01-0.17-0.01-0.34,0-0.5V748.7c-3.38-1.74-5.5-5.21-5.52-9.01v-13.7c0.02-5.58,4.55-10.09,10.12-10.11h5.52
			C1419.84,715.9,1424.36,720.41,1424.38,725.99z"/>
		<circle class="st3" cx="1411.5" cy="799.55" r="8.09"/>
		<path class="st3" d="M1424.38,819.49v13.7c-0.01,3.79-2.13,7.26-5.51,9v15.22c0.14,4.07-3.05,7.49-7.12,7.63
			c-4.07,0.14-7.49-3.05-7.63-7.12c-0.01-0.17-0.01-0.34,0-0.5V842.2c-3.38-1.74-5.5-5.21-5.52-9.01v-13.7
			c0.02-5.58,4.55-10.09,10.12-10.11h5.52C1419.84,809.4,1424.36,813.92,1424.38,819.49z"/>
		<circle class="st3" cx="1411.5" cy="893.05" r="8.09"/>
		<path class="st3" d="M1424.38,912.99v13.7c-0.01,3.79-2.13,7.26-5.51,9v15.22c0.14,4.07-3.05,7.49-7.12,7.63s-7.49-3.05-7.63-7.12
			c-0.01-0.17-0.01-0.34,0-0.5V935.7c-3.38-1.74-5.5-5.21-5.52-9.01v-13.7c0.02-5.58,4.55-10.09,10.12-10.11h5.52
			C1419.84,902.9,1424.36,907.42,1424.38,912.99z"/>
		<circle class="st3" cx="1411.5" cy="986.55" r="8.09"/>
		<path class="st3" d="M1424.38,1006.5v13.7c-0.01,3.79-2.13,7.26-5.51,9v15.22c0.14,4.07-3.05,7.49-7.12,7.63
			c-4.07,0.14-7.49-3.05-7.63-7.12c-0.01-0.17-0.01-0.34,0-0.5v-15.21c-3.38-1.74-5.5-5.21-5.52-9.01v-13.7
			c0.02-5.58,4.55-10.09,10.12-10.11h5.52C1419.84,996.4,1424.36,1000.92,1424.38,1006.5z"/>
		<circle class="st3" cx="1411.5" cy="1080.05" r="8.09"/>
		<path class="st3" d="M1424.38,1100v13.7c-0.01,3.79-2.13,7.26-5.51,9v15.22c0.14,4.07-3.05,7.49-7.12,7.63s-7.49-3.05-7.63-7.12
			c-0.01-0.17-0.01-0.34,0-0.5v-15.21c-3.38-1.74-5.5-5.21-5.52-9.01V1100c0.02-5.58,4.55-10.09,10.12-10.11h5.52
			C1419.84,1089.9,1424.36,1094.42,1424.38,1100z"/>
		<circle class="st2" cx="1508.5" cy="238.54" r="8.09"/>
		<path class="st2" d="M1521.39,258.49v13.7c-0.01,3.79-2.13,7.26-5.51,9v15.22c0.14,4.07-3.05,7.49-7.12,7.63
			c-4.07,0.14-7.49-3.05-7.63-7.12c-0.01-0.17-0.01-0.34,0-0.5V281.2c-3.38-1.74-5.5-5.21-5.52-9.01v-13.7
			c0.02-5.58,4.55-10.09,10.12-10.11h5.52C1516.84,248.4,1521.36,252.91,1521.39,258.49z"/>
		<circle class="st2" cx="1508.5" cy="332.04" r="8.09"/>
		<path class="st2" d="M1521.39,351.99v13.7c-0.01,3.79-2.13,7.26-5.51,9v15.22c0.14,4.07-3.05,7.49-7.12,7.63
			c-4.07,0.14-7.49-3.05-7.63-7.12c-0.01-0.17-0.01-0.34,0-0.5V374.7c-3.38-1.74-5.5-5.21-5.52-9.01v-13.7
			c0.02-5.58,4.55-10.09,10.12-10.11h5.52C1516.84,341.9,1521.36,346.41,1521.39,351.99z"/>
		<circle class="st2" cx="1508.5" cy="425.55" r="8.09"/>
		<path class="st2" d="M1521.39,445.49v13.7c-0.01,3.79-2.13,7.26-5.51,9v15.22c0.14,4.07-3.05,7.49-7.12,7.63
			c-4.07,0.14-7.49-3.05-7.63-7.12c-0.01-0.17-0.01-0.34,0-0.5V468.2c-3.38-1.74-5.5-5.21-5.52-9.01v-13.7
			c0.02-5.58,4.55-10.09,10.12-10.11h5.52C1516.84,435.4,1521.36,439.91,1521.39,445.49z"/>
		<circle class="st2" cx="1508.5" cy="519.05" r="8.09"/>
		<path class="st2" d="M1521.39,538.99v13.7c-0.01,3.79-2.13,7.26-5.51,9v15.22c0.14,4.07-3.05,7.49-7.12,7.63s-7.49-3.05-7.63-7.12
			c-0.01-0.17-0.01-0.34,0-0.5V561.7c-3.38-1.74-5.5-5.21-5.52-9.01v-13.7c0.02-5.58,4.55-10.09,10.12-10.11h5.52
			C1516.84,528.9,1521.36,533.41,1521.39,538.99z"/>
		<circle class="st2" cx="1508.5" cy="612.55" r="8.09"/>
		<path class="st2" d="M1521.39,632.49v13.7c-0.01,3.79-2.13,7.26-5.51,9v15.22c0.14,4.07-3.05,7.49-7.12,7.63s-7.49-3.05-7.63-7.12
			c-0.01-0.17-0.01-0.34,0-0.5V655.2c-3.38-1.74-5.5-5.21-5.52-9.01v-13.7c0.02-5.58,4.55-10.09,10.12-10.11h5.52
			C1516.84,622.4,1521.36,626.91,1521.39,632.49z"/>
		<circle class="st3" cx="1508.5" cy="706.05" r="8.09"/>
		<path class="st3" d="M1521.39,725.99v13.7c-0.01,3.79-2.13,7.26-5.51,9v15.22c0.14,4.07-3.05,7.49-7.12,7.63s-7.49-3.05-7.63-7.12
			c-0.01-0.17-0.01-0.34,0-0.5V748.7c-3.38-1.74-5.5-5.21-5.52-9.01v-13.7c0.02-5.58,4.55-10.09,10.12-10.11h5.52
			C1516.84,715.9,1521.36,720.41,1521.39,725.99z"/>
		<circle class="st3" cx="1508.5" cy="799.55" r="8.09"/>
		<path class="st3" d="M1521.39,819.49v13.7c-0.01,3.79-2.13,7.26-5.51,9v15.22c0.14,4.07-3.05,7.49-7.12,7.63
			c-4.07,0.14-7.49-3.05-7.63-7.12c-0.01-0.17-0.01-0.34,0-0.5V842.2c-3.38-1.74-5.5-5.21-5.52-9.01v-13.7
			c0.02-5.58,4.55-10.09,10.12-10.11h5.52C1516.84,809.4,1521.36,813.92,1521.39,819.49z"/>
		<circle class="st3" cx="1508.5" cy="893.05" r="8.09"/>
		<path class="st3" d="M1521.39,912.99v13.7c-0.01,3.79-2.13,7.26-5.51,9v15.22c0.14,4.07-3.05,7.49-7.12,7.63s-7.49-3.05-7.63-7.12
			c-0.01-0.17-0.01-0.34,0-0.5V935.7c-3.38-1.74-5.5-5.21-5.52-9.01v-13.7c0.02-5.58,4.55-10.09,10.12-10.11h5.52
			C1516.84,902.9,1521.36,907.42,1521.39,912.99z"/>
		<circle class="st3" cx="1508.5" cy="986.55" r="8.09"/>
		<path class="st3" d="M1521.39,1006.5v13.7c-0.01,3.79-2.13,7.26-5.51,9v15.22c0.14,4.07-3.05,7.49-7.12,7.63
			c-4.07,0.14-7.49-3.05-7.63-7.12c-0.01-0.17-0.01-0.34,0-0.5v-15.21c-3.38-1.74-5.5-5.21-5.52-9.01v-13.7
			c0.02-5.58,4.55-10.09,10.12-10.11h5.52C1516.84,996.4,1521.36,1000.92,1521.39,1006.5z"/>
		<circle class="st3" cx="1508.5" cy="1080.05" r="8.09"/>
		<path class="st3" d="M1521.39,1100v13.7c-0.01,3.79-2.13,7.26-5.51,9v15.22c0.14,4.07-3.05,7.49-7.12,7.63s-7.49-3.05-7.63-7.12
			c-0.01-0.17-0.01-0.34,0-0.5v-15.21c-3.38-1.74-5.5-5.21-5.52-9.01V1100c0.02-5.58,4.55-10.09,10.12-10.11h5.52
			C1516.84,1089.9,1521.36,1094.42,1521.39,1100z"/>
		<circle class="st2" cx="1605.51" cy="238.54" r="8.09"/>
		<path class="st2" d="M1618.39,258.49v13.7c-0.01,3.79-2.13,7.26-5.51,9v15.22c0.14,4.07-3.05,7.49-7.12,7.63
			c-4.07,0.14-7.49-3.05-7.63-7.12c-0.01-0.17-0.01-0.34,0-0.5V281.2c-3.38-1.74-5.5-5.21-5.52-9.01v-13.7
			c0.02-5.58,4.55-10.09,10.12-10.11h5.52C1613.85,248.4,1618.37,252.91,1618.39,258.49z"/>
		<circle class="st2" cx="1605.51" cy="332.04" r="8.09"/>
		<path class="st2" d="M1618.39,351.99v13.7c-0.01,3.79-2.13,7.26-5.51,9v15.22c0.14,4.07-3.05,7.49-7.12,7.63
			c-4.07,0.14-7.49-3.05-7.63-7.12c-0.01-0.17-0.01-0.34,0-0.5V374.7c-3.38-1.74-5.5-5.21-5.52-9.01v-13.7
			c0.02-5.58,4.55-10.09,10.12-10.11h5.52C1613.85,341.9,1618.37,346.41,1618.39,351.99z"/>
		<circle class="st2" cx="1605.51" cy="425.55" r="8.09"/>
		<path class="st2" d="M1618.39,445.49v13.7c-0.01,3.79-2.13,7.26-5.51,9v15.22c0.14,4.07-3.05,7.49-7.12,7.63
			c-4.07,0.14-7.49-3.05-7.63-7.12c-0.01-0.17-0.01-0.34,0-0.5V468.2c-3.38-1.74-5.5-5.21-5.52-9.01v-13.7
			c0.02-5.58,4.55-10.09,10.12-10.11h5.52C1613.85,435.4,1618.37,439.91,1618.39,445.49z"/>
		<circle class="st2" cx="1605.51" cy="519.05" r="8.09"/>
		<path class="st2" d="M1618.39,538.99v13.7c-0.01,3.79-2.13,7.26-5.51,9v15.22c0.14,4.07-3.05,7.49-7.12,7.63s-7.49-3.05-7.63-7.12
			c-0.01-0.17-0.01-0.34,0-0.5V561.7c-3.38-1.74-5.5-5.21-5.52-9.01v-13.7c0.02-5.58,4.55-10.09,10.12-10.11h5.52
			C1613.85,528.9,1618.37,533.41,1618.39,538.99z"/>
		<circle class="st2" cx="1605.51" cy="612.55" r="8.09"/>
		<path class="st2" d="M1618.39,632.49v13.7c-0.01,3.79-2.13,7.26-5.51,9v15.22c0.14,4.07-3.05,7.49-7.12,7.63s-7.49-3.05-7.63-7.12
			c-0.01-0.17-0.01-0.34,0-0.5V655.2c-3.38-1.74-5.5-5.21-5.52-9.01v-13.7c0.02-5.58,4.55-10.09,10.12-10.11h5.52
			C1613.85,622.4,1618.37,626.91,1618.39,632.49z"/>
		<circle class="st3" cx="1605.51" cy="706.05" r="8.09"/>
		<path class="st3" d="M1618.39,725.99v13.7c-0.01,3.79-2.13,7.26-5.51,9v15.22c0.14,4.07-3.05,7.49-7.12,7.63s-7.49-3.05-7.63-7.12
			c-0.01-0.17-0.01-0.34,0-0.5V748.7c-3.38-1.74-5.5-5.21-5.52-9.01v-13.7c0.02-5.58,4.55-10.09,10.12-10.11h5.52
			C1613.85,715.9,1618.37,720.41,1618.39,725.99z"/>
		<circle class="st3" cx="1605.51" cy="799.55" r="8.09"/>
		<path class="st3" d="M1618.39,819.49v13.7c-0.01,3.79-2.13,7.26-5.51,9v15.22c0.14,4.07-3.05,7.49-7.12,7.63
			c-4.07,0.14-7.49-3.05-7.63-7.12c-0.01-0.17-0.01-0.34,0-0.5V842.2c-3.38-1.74-5.5-5.21-5.52-9.01v-13.7
			c0.02-5.58,4.55-10.09,10.12-10.11h5.52C1613.85,809.4,1618.37,813.92,1618.39,819.49z"/>
		<circle class="st3" cx="1605.51" cy="893.05" r="8.09"/>
		<path class="st3" d="M1618.39,912.99v13.7c-0.01,3.79-2.13,7.26-5.51,9v15.22c0.14,4.07-3.05,7.49-7.12,7.63s-7.49-3.05-7.63-7.12
			c-0.01-0.17-0.01-0.34,0-0.5V935.7c-3.38-1.74-5.5-5.21-5.52-9.01v-13.7c0.02-5.58,4.55-10.09,10.12-10.11h5.52
			C1613.85,902.9,1618.37,907.42,1618.39,912.99z"/>
		<circle class="st3" cx="1605.51" cy="986.55" r="8.09"/>
		<path class="st3" d="M1618.39,1006.5v13.7c-0.01,3.79-2.13,7.26-5.51,9v15.22c0.14,4.07-3.05,7.49-7.12,7.63
			c-4.07,0.14-7.49-3.05-7.63-7.12c-0.01-0.17-0.01-0.34,0-0.5v-15.21c-3.38-1.74-5.5-5.21-5.52-9.01v-13.7
			c0.02-5.58,4.55-10.09,10.12-10.11h5.52C1613.85,996.4,1618.37,1000.92,1618.39,1006.5z"/>
		<circle class="st3" cx="1605.51" cy="1080.05" r="8.09"/>
		<path class="st3" d="M1618.39,1100v13.7c-0.01,3.79-2.13,7.26-5.51,9v15.22c0.14,4.07-3.05,7.49-7.12,7.63s-7.49-3.05-7.63-7.12
			c-0.01-0.17-0.01-0.34,0-0.5v-15.21c-3.38-1.74-5.5-5.21-5.52-9.01V1100c0.02-5.58,4.55-10.09,10.12-10.11h5.52
			C1613.85,1089.9,1618.37,1094.42,1618.39,1100z"/>
		<circle class="st2" cx="1702.51" cy="238.54" r="8.09"/>
		<path class="st2" d="M1715.39,258.49v13.7c-0.01,3.79-2.13,7.26-5.51,9v15.22c0.14,4.07-3.05,7.49-7.12,7.63
			c-4.07,0.14-7.49-3.05-7.63-7.12c-0.01-0.17-0.01-0.34,0-0.5V281.2c-3.38-1.74-5.5-5.21-5.52-9.01v-13.7
			c0.02-5.58,4.55-10.09,10.12-10.11h5.52C1710.85,248.4,1715.37,252.91,1715.39,258.49z"/>
		<circle class="st2" cx="1702.51" cy="332.04" r="8.09"/>
		<path class="st2" d="M1715.39,351.99v13.7c-0.01,3.79-2.13,7.26-5.51,9v15.22c0.14,4.07-3.05,7.49-7.12,7.63
			c-4.07,0.14-7.49-3.05-7.63-7.12c-0.01-0.17-0.01-0.34,0-0.5V374.7c-3.38-1.74-5.5-5.21-5.52-9.01v-13.7
			c0.02-5.58,4.55-10.09,10.12-10.11h5.52C1710.85,341.9,1715.37,346.41,1715.39,351.99z"/>
		<circle class="st2" cx="1702.51" cy="425.55" r="8.09"/>
		<path class="st2" d="M1715.39,445.49v13.7c-0.01,3.79-2.13,7.26-5.51,9v15.22c0.14,4.07-3.05,7.49-7.12,7.63
			c-4.07,0.14-7.49-3.05-7.63-7.12c-0.01-0.17-0.01-0.34,0-0.5V468.2c-3.38-1.74-5.5-5.21-5.52-9.01v-13.7
			c0.02-5.58,4.55-10.09,10.12-10.11h5.52C1710.85,435.4,1715.37,439.91,1715.39,445.49z"/>
		<circle class="st2" cx="1702.51" cy="519.05" r="8.09"/>
		<path class="st2" d="M1715.39,538.99v13.7c-0.01,3.79-2.13,7.26-5.51,9v15.22c0.14,4.07-3.05,7.49-7.12,7.63
			c-4.07,0.14-7.49-3.05-7.63-7.12c-0.01-0.17-0.01-0.34,0-0.5V561.7c-3.38-1.74-5.5-5.21-5.52-9.01v-13.7
			c0.02-5.58,4.55-10.09,10.12-10.11h5.52C1710.85,528.9,1715.37,533.41,1715.39,538.99z"/>
		<circle class="st2" cx="1702.51" cy="612.55" r="8.09"/>
		<path class="st2" d="M1715.39,632.49v13.7c-0.01,3.79-2.13,7.26-5.51,9v15.22c0.14,4.07-3.05,7.49-7.12,7.63
			c-4.07,0.14-7.49-3.05-7.63-7.12c-0.01-0.17-0.01-0.34,0-0.5V655.2c-3.38-1.74-5.5-5.21-5.52-9.01v-13.7
			c0.02-5.58,4.55-10.09,10.12-10.11h5.52C1710.85,622.4,1715.37,626.91,1715.39,632.49z"/>
		<circle class="st3" cx="1702.51" cy="706.05" r="8.09"/>
		<path class="st3" d="M1715.39,725.99v13.7c-0.01,3.79-2.13,7.26-5.51,9v15.22c0.14,4.07-3.05,7.49-7.12,7.63
			c-4.07,0.14-7.49-3.05-7.63-7.12c-0.01-0.17-0.01-0.34,0-0.5V748.7c-3.38-1.74-5.5-5.21-5.52-9.01v-13.7
			c0.02-5.58,4.55-10.09,10.12-10.11h5.52C1710.85,715.9,1715.37,720.41,1715.39,725.99z"/>
		<circle class="st3" cx="1702.51" cy="799.55" r="8.09"/>
		<path class="st3" d="M1715.39,819.49v13.7c-0.01,3.79-2.13,7.26-5.51,9v15.22c0.14,4.07-3.05,7.49-7.12,7.63
			c-4.07,0.14-7.49-3.05-7.63-7.12c-0.01-0.17-0.01-0.34,0-0.5V842.2c-3.38-1.74-5.5-5.21-5.52-9.01v-13.7
			c0.02-5.58,4.55-10.09,10.12-10.11h5.52C1710.85,809.4,1715.37,813.92,1715.39,819.49z"/>
		<circle class="st3" cx="1702.51" cy="893.05" r="8.09"/>
		<path class="st3" d="M1715.39,912.99v13.7c-0.01,3.79-2.13,7.26-5.51,9v15.22c0.14,4.07-3.05,7.49-7.12,7.63
			c-4.07,0.14-7.49-3.05-7.63-7.12c-0.01-0.17-0.01-0.34,0-0.5V935.7c-3.38-1.74-5.5-5.21-5.52-9.01v-13.7
			c0.02-5.58,4.55-10.09,10.12-10.11h5.52C1710.85,902.9,1715.37,907.42,1715.39,912.99z"/>
		<circle class="st3" cx="1702.51" cy="986.55" r="8.09"/>
		<path class="st3" d="M1715.39,1006.5v13.7c-0.01,3.79-2.13,7.26-5.51,9v15.22c0.14,4.07-3.05,7.49-7.12,7.63
			c-4.07,0.14-7.49-3.05-7.63-7.12c-0.01-0.17-0.01-0.34,0-0.5v-15.21c-3.38-1.74-5.5-5.21-5.52-9.01v-13.7
			c0.02-5.58,4.55-10.09,10.12-10.11h5.52C1710.85,996.4,1715.37,1000.92,1715.39,1006.5z"/>
		<circle class="st3" cx="1702.51" cy="1080.05" r="8.09"/>
		<path class="st3" d="M1715.39,1100v13.7c-0.01,3.79-2.13,7.26-5.51,9v15.22c0.14,4.07-3.05,7.49-7.12,7.63
			c-4.07,0.14-7.49-3.05-7.63-7.12c-0.01-0.17-0.01-0.34,0-0.5v-15.21c-3.38-1.74-5.5-5.21-5.52-9.01V1100
			c0.02-5.58,4.55-10.09,10.12-10.11h5.52C1710.85,1089.9,1715.37,1094.42,1715.39,1100z"/>
		<circle class="st2" cx="1799.51" cy="238.54" r="8.09"/>
		<path class="st2" d="M1812.4,258.49v13.7c-0.01,3.79-2.13,7.26-5.51,9v15.22c0.14,4.07-3.05,7.49-7.12,7.63
			c-4.07,0.14-7.49-3.05-7.63-7.12c-0.01-0.17-0.01-0.34,0-0.5V281.2c-3.38-1.74-5.5-5.21-5.52-9.01v-13.7
			c0.02-5.58,4.55-10.09,10.12-10.11h5.52C1807.85,248.4,1812.37,252.91,1812.4,258.49z"/>
		<circle class="st2" cx="1799.51" cy="332.04" r="8.09"/>
		<path class="st2" d="M1812.4,351.99v13.7c-0.01,3.79-2.13,7.26-5.51,9v15.22c0.14,4.07-3.05,7.49-7.12,7.63
			c-4.07,0.14-7.49-3.05-7.63-7.12c-0.01-0.17-0.01-0.34,0-0.5V374.7c-3.38-1.74-5.5-5.21-5.52-9.01v-13.7
			c0.02-5.58,4.55-10.09,10.12-10.11h5.52C1807.85,341.9,1812.37,346.41,1812.4,351.99z"/>
		<circle class="st2" cx="1799.51" cy="425.55" r="8.09"/>
		<path class="st2" d="M1812.4,445.49v13.7c-0.01,3.79-2.13,7.26-5.51,9v15.22c0.14,4.07-3.05,7.49-7.12,7.63
			c-4.07,0.14-7.49-3.05-7.63-7.12c-0.01-0.17-0.01-0.34,0-0.5V468.2c-3.38-1.74-5.5-5.21-5.52-9.01v-13.7
			c0.02-5.5,4.55-10.09,10.12-10.11h5.52C1807.85,435.4,1812.37,439.91,1812.4,445.49z"/>
		<circle class="st2" cx="1799.51" cy="519.05" r="8.09"/>
		<path class="st2" d="M1812.4,538.99v13.7c-0.01,3.79-2.13,7.26-5.51,9v15.22c0.14,4.07-3.05,7.49-7.12,7.63s-7.49-3.05-7.63-7.12
			c-0.01-0.17-0.01-0.34,0-0.5V561.7c-3.38-1.74-5.5-5.21-5.52-9.01v-13.7c0.02-5.58,4.55-10.09,10.12-10.11h5.52
			C1807.85,528.9,1812.37,533.41,1812.4,538.99z"/>
		<circle class="st3" cx="1799.51" cy="612.55" r="8.09"/>
		<path class="st3" d="M1812.4,632.49v13.7c-0.01,3.79-2.13,7.26-5.51,9v15.22c0.14,4.07-3.05,7.49-7.12,7.63s-7.49-3.05-7.63-7.12
			c-0.01-0.17-0.01-0.34,0-0.5V655.2c-3.38-1.74-5.5-5.21-5.52-9.01v-13.7c0.02-5.58,4.55-10.09,10.12-10.11h5.52
			C1807.85,622.4,1812.37,626.91,1812.4,632.49z"/>
		<circle class="st3" cx="1799.51" cy="706.05" r="8.09"/>
		<path class="st3" d="M1812.4,725.99v13.7c-0.01,3.79-2.13,7.26-5.51,9v15.22c0.14,4.07-3.05,7.49-7.12,7.63s-7.49-3.05-7.63-7.12
			c-0.01-0.17-0.01-0.34,0-0.5V748.7c-3.38-1.74-5.5-5.21-5.52-9.01v-13.7c0.02-5.58,4.55-10.09,10.12-10.11h5.52
			C1807.85,715.9,1812.37,720.41,1812.4,725.99z"/>
		<circle class="st3" cx="1799.51" cy="799.55" r="8.09"/>
		<path class="st3" d="M1812.4,819.49v13.7c-0.01,3.79-2.13,7.26-5.51,9v15.22c0.14,4.07-3.05,7.49-7.12,7.63
			c-4.07,0.14-7.49-3.05-7.63-7.12c-0.01-0.17-0.01-0.34,0-0.5V842.2c-3.38-1.74-5.5-5.21-5.52-9.01v-13.7
			c0.02-5.58,4.55-10.09,10.12-10.11h5.52C1807.85,809.4,1812.37,813.92,1812.4,819.49z"/>
		<circle class="st3" cx="1799.51" cy="893.05" r="8.09"/>
		<path class="st3" d="M1812.4,912.99v13.7c-0.01,3.79-2.13,7.26-5.51,9v15.22c0.14,4.07-3.05,7.49-7.12,7.63s-7.49-3.05-7.63-7.12
			c-0.01-0.17-0.01-0.34,0-0.5V935.7c-3.38-1.74-5.5-5.21-5.52-9.01v-13.7c0.02-5.58,4.55-10.09,10.12-10.11h5.52
			C1807.85,902.9,1812.37,907.42,1812.4,912.99z"/>
		<circle class="st3" cx="1799.51" cy="986.55" r="8.09"/>
		<path class="st3" d="M1812.4,1006.5v13.7c-0.01,3.79-2.13,7.26-5.51,9v15.22c0.14,4.07-3.05,7.49-7.12,7.63
			c-4.07,0.14-7.49-3.05-7.63-7.12c-0.01-0.17-0.01-0.34,0-0.5v-15.21c-3.38-1.74-5.5-5.21-5.52-9.01v-13.7
			c0.02-5.58,4.55-10.09,10.12-10.11h5.52C1807.85,996.4,1812.37,1000.92,1812.4,1006.5z"/>
		<circle class="st3" cx="1799.51" cy="1080.05" r="8.09"/>
		<path class="st3" d="M1812.4,1100v13.7c-0.01,3.79-2.13,7.26-5.51,9v15.22c0.14,4.07-3.05,7.49-7.12,7.63s-7.49-3.05-7.63-7.12
			c-0.01-0.17-0.01-0.34,0-0.5v-15.21c-3.38-1.74-5.5-5.21-5.52-9.01V1100c0.02-5.58,4.55-10.09,10.12-10.11h5.52
			C1807.85,1089.9,1812.37,1094.42,1812.4,1100z"/>
		<circle class="st2" cx="1896.52" cy="238.54" r="8.09"/>
		<path class="st2" d="M1909.4,258.49v13.7c-0.01,3.79-2.13,7.26-5.51,9v15.22c0.14,4.07-3.05,7.49-7.12,7.63
			c-4.07,0.14-7.49-3.05-7.63-7.12c-0.01-0.17-0.01-0.34,0-0.5V281.2c-3.38-1.74-5.5-5.21-5.52-9.01v-13.7
			c0.02-5.58,4.55-10.09,10.12-10.11h5.52C1904.86,248.4,1909.38,252.91,1909.4,258.49z"/>
		<circle class="st2" cx="1896.52" cy="332.04" r="8.09"/>
		<path class="st2" d="M1909.4,351.99v13.7c-0.01,3.79-2.13,7.26-5.51,9v15.22c0.14,4.07-3.05,7.49-7.12,7.63
			c-4.07,0.14-7.49-3.05-7.63-7.12c-0.01-0.17-0.01-0.34,0-0.5V374.7c-3.38-1.74-5.5-5.21-5.52-9.01v-13.7
			c0.02-5.58,4.55-10.09,10.12-10.11h5.52C1904.86,341.9,1909.38,346.41,1909.4,351.99z"/>
		<circle class="st2" cx="1896.52" cy="425.55" r="8.09"/>
		<path class="st2" d="M1909.4,445.49v13.7c-0.01,3.79-2.13,7.26-5.51,9v15.22c0.14,4.07-3.05,7.49-7.12,7.63
			c-4.07,0.14-7.49-3.05-7.63-7.12c-0.01-0.17-0.01-0.34,0-0.5V468.2c-3.38-1.74-5.5-5.21-5.52-9.01v-13.7
			c0.02-5.58,4.55-10.09,10.12-10.11h5.52C1904.86,435.4,1909.38,439.91,1909.4,445.49z"/>
		<circle class="st2" cx="1896.52" cy="519.05" r="8.09"/>
		<path class="st2" d="M1909.4,538.99v13.7c-0.01,3.79-2.13,7.26-5.51,9v15.22c0.14,4.07-3.05,7.49-7.12,7.63s-7.49-3.05-7.63-7.12
			c-0.01-0.17-0.01-0.34,0-0.5V561.7c-3.38-1.74-5.5-5.21-5.52-9.01v-13.7c0.02-5.58,4.55-10.09,10.12-10.11h5.52
			C1904.86,528.9,1909.38,533.41,1909.4,538.99z"/>
		<circle class="st3" cx="1896.52" cy="612.55" r="8.09"/>
		<path class="st3" d="M1909.4,632.49v13.7c-0.01,3.79-2.13,7.26-5.51,9v15.22c0.14,4.07-3.05,7.49-7.12,7.63s-7.49-3.05-7.63-7.12
			c-0.01-0.17-0.01-0.34,0-0.5V655.2c-3.38-1.74-5.5-5.21-5.52-9.01v-13.7c0.02-5.58,4.55-10.09,10.12-10.11h5.52
			C1904.86,622.4,1909.38,626.91,1909.4,632.49z"/>
		<circle class="st3" cx="1896.52" cy="706.05" r="8.09"/>
		<path class="st3" d="M1909.4,725.99v13.7c-0.01,3.79-2.13,7.26-5.51,9v15.22c0.14,4.07-3.05,7.49-7.12,7.63s-7.49-3.05-7.63-7.12
			c-0.01-0.17-0.01-0.34,0-0.5V748.7c-3.38-1.74-5.5-5.21-5.52-9.01v-13.7c0.02-5.58,4.55-10.09,10.12-10.11h5.52
			C1904.86,715.9,1909.38,720.41,1909.4,725.99z"/>
		<circle class="st3" cx="1896.52" cy="799.55" r="8.09"/>
		<path class="st3" d="M1909.4,819.49v13.7c-0.01,3.79-2.13,7.26-5.51,9v15.22c0.14,4.07-3.05,7.49-7.12,7.63
			c-4.07,0.14-7.49-3.05-7.63-7.12c-0.01-0.17-0.01-0.34,0-0.5V842.2c-3.38-1.74-5.5-5.21-5.52-9.01v-13.7
			c0.02-5.58,4.55-10.09,10.12-10.11h5.52C1904.86,809.4,1909.38,813.92,1909.4,819.49z"/>
		<circle class="st3" cx="1896.52" cy="893.05" r="8.09"/>
		<path class="st3" d="M1909.4,912.99v13.7c-0.01,3.79-2.13,7.26-5.51,9v15.22c0.14,4.07-3.05,7.49-7.12,7.63s-7.49-3.05-7.63-7.12
			c-0.01-0.17-0.01-0.34,0-0.5V935.7c-3.38-1.74-5.5-5.21-5.52-9.01v-13.7c0.02-5.58,4.55-10.09,10.12-10.11h5.52
			C1904.86,902.9,1909.38,907.42,1909.4,912.99z"/>
		<circle class="st3" cx="1896.52" cy="986.55" r="8.09"/>
		<path class="st3" d="M1909.4,1006.5v13.7c-0.01,3.79-2.13,7.26-5.51,9v15.22c0.14,4.07-3.05,7.49-7.12,7.63
			c-4.07,0.14-7.49-3.05-7.63-7.12c-0.01-0.17-0.01-0.34,0-0.5v-15.21c-3.38-1.74-5.5-5.21-5.52-9.01v-13.7
			c0.02-5.58,4.55-10.09,10.12-10.11h5.52C1904.86,996.4,1909.38,1000.92,1909.4,1006.5z"/>
		<circle class="st3" cx="1896.52" cy="1080.05" r="8.09"/>
		<path class="st3" d="M1909.4,1100v13.7c-0.01,3.79-2.13,7.26-5.51,9v15.22c0.14,4.07-3.05,7.49-7.12,7.63s-7.49-3.05-7.63-7.12
			c-0.01-0.17-0.01-0.34,0-0.5v-15.21c-3.38-1.74-5.5-5.21-5.52-9.01V1100c0.02-5.58,4.55-10.09,10.12-10.11h5.52
			C1904.86,1089.9,1909.38,1094.42,1909.4,1100z"/>
	</g>
	<g>
		<path class="st2" d="M2070.5,439.17c0-16.54-13.46-30-30-30c-16.54,0-30,13.46-30,30c0,15.53,11.86,28.34,27,29.85v16.48h-10.75
			c-1.66,0-3,1.34-3,3s1.34,3,3,3h10.75v10.33c0,1.66,1.34,3,3,3s3-1.34,3-3V491.5h11.25c1.66,0,3-1.34,3-3s-1.34-3-3-3h-11.25
			v-16.48C2058.64,467.51,2070.5,454.7,2070.5,439.17z M2040.5,463.17c-13.23,0-24-10.77-24-24c0-13.23,10.77-24,24-24
			c13.23,0,24,10.77,24,24C2064.5,452.4,2053.73,463.17,2040.5,463.17z"/>
		<g>
			<g>
				<path class="st1" d="M2145.8,430.96h7.98v28.77h7.91v7.07h-7.91v10.08h-8.19V466.8h-23.03v-6.23L2145.8,430.96z M2146.01,443.21
					l-13.65,17.36h13.65V443.21z"/>
				<path class="st1" d="M2185.28,477.86c-3.9,0-7.28-0.58-10.15-1.73c-2.87-1.16-5.09-2.73-6.67-4.72s-2.36-4.25-2.36-6.77
					c0-2.15,0.57-3.98,1.71-5.5c1.14-1.52,2.71-2.68,4.69-3.5c1.98-0.82,4.21-1.23,6.68-1.23c0.98,0,1.89,0.08,2.73,0.25
					c0.84,0.16,1.82,0.39,2.94,0.67v2.03c-1.98,0-3.75,0.29-5.29,0.88c-1.54,0.58-2.75,1.37-3.62,2.34
					c-0.88,0.98-1.31,2.05-1.31,3.22c0,1.35,0.48,2.51,1.44,3.48c0.96,0.97,2.24,1.71,3.85,2.24c1.61,0.53,3.39,0.79,5.36,0.79
					c3.64,0,6.33-0.47,8.08-1.42c1.75-0.94,2.63-2.15,2.63-3.62c0-1.17-0.43-2.16-1.28-2.99s-2.04-1.53-3.55-2.12l-12.95-4.97
					c-1.56-0.61-3.16-1.45-4.78-2.52c-1.62-1.07-2.99-2.41-4.11-4.02s-1.68-3.51-1.68-5.71c0-2.52,0.69-4.71,2.08-6.56
					c1.39-1.86,3.39-3.29,6.02-4.3c2.63-1.02,5.8-1.52,9.54-1.52c3.31,0,6.3,0.56,8.96,1.68s4.77,2.66,6.34,4.62
					c1.56,1.96,2.34,4.2,2.34,6.72c0,1.75-0.48,3.37-1.43,4.87c-0.96,1.49-2.35,2.7-4.17,3.62c-1.82,0.92-4.01,1.38-6.58,1.38
					c-0.89,0-1.7-0.08-2.45-0.23c-0.75-0.15-1.61-0.38-2.59-0.68v-2.38c1.54,0,2.97-0.25,4.29-0.75c1.32-0.5,2.38-1.2,3.19-2.1
					c0.8-0.9,1.21-1.95,1.21-3.17c0-1.24-0.38-2.31-1.16-3.22c-0.77-0.91-1.84-1.62-3.2-2.12s-2.95-0.75-4.74-0.75
					c-1.71,0-3.24,0.23-4.62,0.68s-2.47,1.08-3.27,1.87c-0.81,0.79-1.21,1.69-1.21,2.69c0,1.14,0.4,2.08,1.19,2.82
					c0.79,0.74,1.94,1.41,3.43,2.01l13.37,5.18c3.34,1.28,5.9,2.77,7.68,4.46c1.79,1.69,2.68,4.05,2.68,7.09
					c0,2.52-0.75,4.76-2.26,6.72c-1.51,1.96-3.69,3.5-6.56,4.62C2192.84,477.3,2189.36,477.86,2185.28,477.86z"/>
			</g>
		</g>
	</g>
	<g>
		<path class="st3" d="M2064,843.53l20.45-20.45v14.9c0,1,0.41,1.91,1.06,2.56s1.56,1.06,2.56,1.06c2,0,3.62-1.62,3.62-3.62v-23.64
			c0-0.47-0.09-0.95-0.28-1.39c-0.01-0.02-0.02-0.03-0.03-0.05c-0.18-0.4-0.42-0.78-0.75-1.12c-0.33-0.33-0.71-0.57-1.12-0.75
			c-0.02-0.01-0.03-0.02-0.05-0.03c-0.45-0.18-0.92-0.28-1.4-0.28h-23.64c-2,0-3.62,1.62-3.62,3.62c0,1,0.41,1.91,1.06,2.56
			s1.56,1.06,2.56,1.06l14.9,0l-20.45,20.45c-12.16-9.61-29.9-8.83-41.12,2.39c-12.09,12.09-12.09,31.76,0,43.85
			c12.09,12.09,31.76,12.09,43.85,0C2072.83,873.43,2073.61,855.69,2064,843.53z M2022.87,879.53c-9.27-9.27-9.27-24.34,0-33.61
			c9.26-9.26,24.34-9.26,33.61,0c9.26,9.27,9.26,24.34,0,33.61C2047.21,888.8,2032.14,888.79,2022.87,879.53z"/>
		<g>
			<g>
				<path class="st1" d="M2145.53,881.04c-3.27,0-6.15-0.57-8.64-1.7c-2.5-1.13-4.46-2.78-5.9-4.95c-1.43-2.17-2.19-4.81-2.26-7.91
					h8.4c0,2.33,0.81,4.08,2.42,5.25s3.61,1.75,5.98,1.75c2.54,0,4.63-0.82,6.25-2.47c1.62-1.64,2.43-3.67,2.43-6.07
					c0-4.67-3.13-7-9.38-7h-13.86l2.1-23.31h27.23v7.56h-20.58l1.61-2.38l-1.33,13.51l-0.7-0.77c1.12-0.26,2.45-0.45,3.99-0.58
					c1.54-0.13,2.87-0.19,3.99-0.19c4.69,0,8.43,1.14,11.22,3.41c2.79,2.28,4.18,5.53,4.18,9.75c0,3.01-0.71,5.73-2.13,8.17
					c-1.42,2.44-3.42,4.37-5.98,5.79C2151.99,880.33,2148.98,881.04,2145.53,881.04z"/>
				<path class="st1" d="M2169.68,880.06v-7.77c0-2.54,0.38-4.7,1.15-6.47s1.92-3.27,3.45-4.5c1.53-1.22,3.45-2.28,5.76-3.17
					l9.31-3.57c2.03-0.82,3.53-1.82,4.5-3.01c0.97-1.19,1.45-2.66,1.45-4.41s-0.64-3.23-1.91-4.43s-3.09-1.8-5.44-1.8
					c-2.26,0-4.16,0.57-5.69,1.7c-1.53,1.13-2.41,2.78-2.64,4.95h-9.17c0.07-3.1,0.88-5.68,2.41-7.74c1.54-2.05,3.61-3.59,6.2-4.6
					c2.59-1.02,5.51-1.52,8.75-1.52c3.06,0,5.82,0.58,8.29,1.73s4.44,2.76,5.9,4.83c1.46,2.07,2.19,4.47,2.19,7.23
					c0,2.33-0.43,4.39-1.28,6.16c-0.85,1.77-2.14,3.32-3.87,4.65c-1.73,1.33-3.91,2.51-6.55,3.54l-9.38,3.64
					c-1.82,0.7-3.14,1.48-3.96,2.33c-0.82,0.85-1.22,1.97-1.22,3.34v1.33h25.97v7.56H2169.68z"/>
			</g>
		</g>
	</g>
	<g>
		<g>
			<g>
				<circle class="st3" cx="450" cy="798.92" r="11.57"/>
				<path class="st3" d="M468.44,827.47v19.6c-0.02,5.43-3.05,10.4-7.88,12.88v21.78c0.2,5.83-4.36,10.72-10.19,10.92
					c-5.83,0.2-10.72-4.36-10.92-10.19c-0.01-0.24-0.01-0.48,0-0.72v-21.77c-4.83-2.49-7.88-7.46-7.89-12.9v-19.6
					c0.03-7.98,6.51-14.44,14.49-14.47h7.91C461.94,813.02,468.41,819.48,468.44,827.47z"/>
			</g>
		</g>
		<g>
			<defs>
				<path id="SVGID_13_" d="M577,840c0,70.14-56.86,127-127,127s-127-56.86-127-127s56.86-127,127-127S577,769.86,577,840z
					 M450,756.46c-46.14,0-83.54,37.4-83.54,83.54s37.4,83.54,83.54,83.54s83.54-37.4,83.54-83.54S496.14,756.46,450,756.46z"/>
			</defs>
			<clipPath id="SVGID_2_">
				<use xlink:href="#SVGID_13_"  style="overflow:visible;"/>
			</clipPath>
			<g>
				<g class="st4">
					<g>
						<g>
							<path class="st8" d="M453.54,852.56l76.5,285.51c-157.69,42.25-319.77-51.33-362.02-209.01s51.33-319.77,209.01-362.02
								c25.23-6.76,50.38-10.07,76.5-10.07V852.56z"/>
						</g>
					</g>
					<g>
						<g>
							<path class="st3" d="M453.54,852.56V556.97c163.25,0,295.59,132.34,295.59,295.59c0,137.13-86.63,250.02-219.08,285.51
								L453.54,852.56z"/>
						</g>
					</g>
				</g>
				<g class="st4">
					<g>
					</g>
					<g>
					</g>
				</g>
			</g>
		</g>
	</g>
	<g>
		<g>
			<circle class="st2" cx="450" cy="408.92" r="11.57"/>
			<path class="st2" d="M468.44,437.47v19.6c-0.02,5.43-3.05,10.4-7.88,12.88v21.78c0.2,5.83-4.36,10.72-10.19,10.92
				c-5.83,0.2-10.72-4.36-10.92-10.19c-0.01-0.24-0.01-0.48,0-0.72v-21.77c-4.83-2.49-7.88-7.46-7.89-12.9v-19.6
				c0.03-7.98,6.51-14.44,14.49-14.47h7.91C461.94,423.02,468.41,429.48,468.44,437.47z"/>
		</g>
		<g>
			<defs>
				<path id="SVGID_15_" d="M577,450c0,70.14-56.86,127-127,127s-127-56.86-127-127s56.86-127,127-127S577,379.86,577,450z
					 M450,366.46c-46.14,0-83.54,37.4-83.54,83.54s37.4,83.54,83.54,83.54s83.54-37.4,83.54-83.54S496.14,366.46,450,366.46z"/>
			</defs>
			<clipPath id="SVGID_4_">
				<use xlink:href="#SVGID_15_"  style="overflow:visible;"/>
			</clipPath>
			<g>
				<g class="st6">
					<g>
						<g>
							<path class="st8" d="M453.06,450.51l-71.51,286.81C223.15,697.82,126.76,537.4,166.25,379
								c33.17-133.06,149.68-224.08,286.81-224.08V450.51z"/>
						</g>
					</g>
					<g>
						<g>
							<path class="st2" d="M453.06,450.51V154.92c163.25,0,295.59,132.34,295.59,295.59S616.3,746.09,453.06,746.09
								c-26.12,0-46.17-2.46-71.51-8.78L453.06,450.51z"/>
						</g>
					</g>
				</g>
				<g class="st6">
					<g>
					</g>
					<g>
					</g>
				</g>
			</g>
		</g>
	</g>
	<g>
		<g>
			<path class="st1" d="M412.57,991.89h6.34v22.61h6.29v5.55h-6.29v7.92h-6.51v-7.92H394.1v-4.89L412.57,991.89z M412.74,1001.52
				l-10.85,13.64h10.85V1001.52z"/>
			<path class="st1" d="M443.9,1028.74c-3.02,0-5.69-0.78-7.99-2.34c-2.3-1.56-4.1-3.69-5.38-6.39c-1.29-2.7-1.93-5.79-1.93-9.25
				c0-4.09,0.65-7.56,1.95-10.42s3.12-5.04,5.47-6.53c2.35-1.49,5.09-2.24,8.22-2.24c2.39,0,4.51,0.44,6.34,1.31
				s3.28,2.09,4.34,3.67c1.06,1.58,1.63,3.42,1.73,5.53h-7.01c-0.2-1.43-0.72-2.56-1.56-3.38c-0.83-0.83-2.04-1.24-3.62-1.24
				c-2.86,0-5.12,1.24-6.79,3.73c-1.67,2.48-2.5,5.86-2.5,10.13c0,0.55,0.01,1.15,0.04,1.79c0.03,0.64,0.09,1.26,0.18,1.84
				c0.3-2.25,0.95-4.02,1.96-5.31c1.01-1.28,2.23-2.2,3.66-2.74c1.43-0.54,2.93-0.81,4.51-0.81c2.26,0,4.26,0.49,5.98,1.46
				c1.73,0.97,3.08,2.31,4.06,4.01c0.98,1.71,1.47,3.66,1.47,5.86c0,2.26-0.55,4.24-1.66,5.94c-1.1,1.71-2.64,3.03-4.62,3.97
				C448.79,1028.27,446.5,1028.74,443.9,1028.74z M443.9,1022.8c1.74,0,3.24-0.52,4.48-1.55c1.24-1.04,1.86-2.41,1.86-4.11
				c0-1.78-0.62-3.18-1.86-4.19c-1.24-1.02-2.74-1.53-4.48-1.53c-1.15,0-2.19,0.24-3.13,0.71c-0.94,0.48-1.69,1.15-2.25,2.01
				c-0.57,0.86-0.85,1.86-0.85,3c0,1.71,0.61,3.08,1.82,4.11C440.71,1022.29,442.18,1022.8,443.9,1022.8z"/>
			<path class="st1" d="M470.73,1008.23c-1.34,0-2.58-0.31-3.73-0.92c-1.15-0.61-2.08-1.54-2.78-2.78
				c-0.71-1.24-1.06-2.79-1.06-4.66c0-1.85,0.35-3.39,1.06-4.62c0.7-1.23,1.63-2.15,2.78-2.76c1.15-0.61,2.39-0.92,3.73-0.92
				c1.37,0,2.64,0.31,3.81,0.92c1.17,0.61,2.1,1.54,2.81,2.76s1.06,2.77,1.06,4.62c0,1.87-0.35,3.42-1.06,4.66
				c-0.71,1.24-1.64,2.16-2.81,2.78C473.37,1007.92,472.1,1008.23,470.73,1008.23z M465.66,1027.97l24.49-35.7h6.62l-24.43,35.7
				H465.66z M470.73,1004.1c0.8,0,1.45-0.32,1.96-0.96c0.51-0.64,0.77-1.73,0.77-3.27c0-1.52-0.26-2.6-0.77-3.23
				c-0.51-0.63-1.16-0.95-1.96-0.95c-0.8,0-1.44,0.32-1.93,0.95s-0.74,1.71-0.74,3.23c0,1.54,0.25,2.63,0.74,3.27
				C469.29,1003.78,469.93,1004.1,470.73,1004.1z M491.77,1028.58c-1.34,0-2.58-0.31-3.73-0.92c-1.15-0.61-2.08-1.54-2.78-2.78
				s-1.06-2.79-1.06-4.66s0.35-3.42,1.06-4.66c0.71-1.24,1.63-2.16,2.78-2.78c1.15-0.61,2.39-0.92,3.73-0.92
				c1.37,0,2.64,0.31,3.81,0.92s2.11,1.54,2.81,2.78c0.7,1.24,1.06,2.79,1.06,4.66s-0.35,3.42-1.06,4.66
				c-0.71,1.24-1.64,2.16-2.81,2.78C494.41,1028.27,493.14,1028.58,491.77,1028.58z M491.77,1024.4c0.82,0,1.48-0.31,1.98-0.93
				c0.5-0.62,0.75-1.71,0.75-3.25c0-1.52-0.25-2.61-0.75-3.26c-0.5-0.65-1.16-0.98-1.98-0.98c-0.8,0-1.44,0.33-1.93,0.98
				c-0.49,0.65-0.74,1.74-0.74,3.26c0,1.54,0.25,2.62,0.74,3.25C490.32,1024.09,490.97,1024.4,491.77,1024.4z"/>
		</g>
	</g>
	<g>
		<g>
			<path class="st1" d="M415.5,640.01c-2.6,0-4.89-0.45-6.87-1.33c-1.99-0.89-3.55-2.19-4.69-3.89c-1.14-1.71-1.74-3.78-1.79-6.21
				h6.68c0,1.83,0.64,3.21,1.92,4.13c1.28,0.92,2.87,1.38,4.76,1.38c2.02,0,3.68-0.65,4.97-1.94c1.29-1.29,1.93-2.88,1.93-4.77
				c0-3.67-2.49-5.5-7.46-5.5h-11.02l1.67-18.31h21.65v5.94h-16.36l1.28-1.87l-1.06,10.62l-0.56-0.61c0.89-0.2,1.95-0.35,3.17-0.45
				c1.22-0.1,2.28-0.15,3.17-0.15c3.73,0,6.7,0.89,8.92,2.68c2.22,1.79,3.33,4.34,3.33,7.66c0,2.37-0.57,4.51-1.7,6.42
				c-1.13,1.92-2.72,3.43-4.76,4.55C420.64,639.45,418.25,640.01,415.5,640.01z"/>
			<path class="st1" d="M451.07,603.16h6.34v22.6h6.29v5.56h-6.29v7.92h-6.51v-7.92h-18.31v-4.9L451.07,603.16z M451.23,612.78
				l-10.85,13.64h10.85V612.78z"/>
			<path class="st1" d="M475.44,619.49c-1.34,0-2.58-0.31-3.73-0.92c-1.15-0.61-2.08-1.54-2.78-2.78c-0.71-1.24-1.06-2.79-1.06-4.66
				c0-1.85,0.35-3.39,1.06-4.62c0.7-1.23,1.63-2.15,2.78-2.76c1.15-0.61,2.39-0.92,3.73-0.92c1.37,0,2.64,0.31,3.81,0.92
				c1.17,0.62,2.11,1.54,2.81,2.76c0.71,1.23,1.06,2.77,1.06,4.62c0,1.87-0.35,3.42-1.06,4.66c-0.71,1.24-1.64,2.16-2.81,2.78
				C478.08,619.18,476.81,619.49,475.44,619.49z M470.38,639.24l24.49-35.69h6.62l-24.43,35.69H470.38z M475.44,615.37
				c0.8,0,1.45-0.32,1.96-0.96c0.51-0.64,0.77-1.73,0.77-3.27c0-1.52-0.26-2.6-0.77-3.23c-0.51-0.63-1.16-0.95-1.96-0.95
				c-0.8,0-1.44,0.32-1.93,0.95c-0.49,0.63-0.74,1.71-0.74,3.23c0,1.54,0.25,2.63,0.74,3.27C474,615.04,474.64,615.37,475.44,615.37
				z M496.48,639.84c-1.34,0-2.58-0.31-3.73-0.92c-1.15-0.61-2.08-1.54-2.78-2.78c-0.71-1.24-1.06-2.79-1.06-4.66
				s0.35-3.42,1.06-4.66c0.7-1.24,1.63-2.16,2.78-2.78c1.15-0.61,2.39-0.92,3.73-0.92c1.37,0,2.64,0.31,3.81,0.92
				c1.17,0.62,2.1,1.54,2.81,2.78s1.06,2.79,1.06,4.66s-0.35,3.42-1.06,4.66s-1.64,2.16-2.81,2.78
				C499.12,639.53,497.85,639.84,496.48,639.84z M496.48,635.66c0.82,0,1.48-0.31,1.98-0.93c0.5-0.62,0.75-1.71,0.75-3.25
				c0-1.52-0.25-2.61-0.75-3.26c-0.5-0.65-1.16-0.98-1.98-0.98c-0.8,0-1.44,0.33-1.93,0.98c-0.49,0.65-0.74,1.74-0.74,3.26
				c0,1.54,0.25,2.62,0.74,3.25C495.04,635.35,495.68,635.66,496.48,635.66z"/>
		</g>
	</g>
	<g>
		<g>
			<path class="st1" d="M188.11,179.71v-29.85h10.53c3.36,0,5.98,0.83,7.85,2.48s2.82,4,2.82,7.04c0,3-0.94,5.34-2.82,6.99
				c-1.88,1.66-4.5,2.48-7.85,2.48h-5.06v10.86H188.11z M193.58,164.11h5.06c1.69,0,2.96-0.44,3.82-1.33
				c0.86-0.89,1.29-2.02,1.29-3.4c0-1.41-0.43-2.57-1.29-3.47c-0.86-0.9-2.13-1.36-3.82-1.36h-5.06V164.11z"/>
			<path class="st1" d="M223.73,180.35c-2.04,0-3.88-0.44-5.53-1.31s-2.96-2.18-3.92-3.92c-0.97-1.74-1.45-3.92-1.45-6.54
				c0-2.67,0.48-4.88,1.45-6.62c0.97-1.75,2.27-3.05,3.92-3.91s3.49-1.29,5.53-1.29c2.01,0,3.83,0.43,5.46,1.29s2.93,2.16,3.9,3.91
				s1.45,3.96,1.45,6.62c0,2.62-0.48,4.8-1.45,6.54s-2.27,3.05-3.9,3.92S225.74,180.35,223.73,180.35z M223.55,175.61
				c1.07,0,2.03-0.26,2.86-0.79s1.5-1.31,1.98-2.36c0.48-1.04,0.72-2.34,0.72-3.89c0-2.36-0.46-4.14-1.39-5.34
				c-0.93-1.2-2.2-1.79-3.81-1.79c-1.09,0-2.05,0.26-2.9,0.79c-0.84,0.53-1.51,1.32-1.99,2.38c-0.48,1.06-0.72,2.38-0.72,3.96
				c0,2.33,0.47,4.09,1.42,5.27C220.66,175.02,221.94,175.61,223.55,175.61z"/>
			<path class="st1" d="M240.98,179.71v-22.4h5.43v22.4H240.98z M245.08,169.91c0-2.93,0.33-5.35,0.99-7.27
				c0.66-1.92,1.54-3.34,2.66-4.27c1.11-0.93,2.35-1.39,3.71-1.39c0.37,0,0.72,0.02,1.05,0.07s0.66,0.12,0.98,0.21l-0.09,5.43
				c-0.4-0.09-0.83-0.17-1.29-0.23s-0.87-0.09-1.24-0.09c-1.2,0-2.2,0.29-3,0.86c-0.81,0.58-1.41,1.42-1.82,2.54
				c-0.41,1.12-0.61,2.5-0.61,4.14H245.08z"/>
			<path class="st1" d="M267.5,180.35c-1.87,0-3.61-0.49-5.21-1.46s-2.9-2.35-3.89-4.12c-0.99-1.77-1.48-3.85-1.48-6.25
				c0-2.53,0.49-4.67,1.48-6.43s2.28-3.09,3.89-3.99c1.6-0.9,3.34-1.36,5.21-1.36c1.46,0,2.74,0.23,3.85,0.7
				c1.11,0.47,2.06,1.1,2.84,1.89c0.78,0.79,1.4,1.67,1.84,2.63c0.44,0.97,0.73,1.94,0.85,2.92l-5.47,0.14
				c-0.25-0.98-0.7-1.79-1.37-2.44c-0.67-0.64-1.53-0.97-2.59-0.97c-0.87,0-1.69,0.24-2.46,0.72c-0.77,0.48-1.39,1.23-1.88,2.24
				c-0.48,1.01-0.72,2.32-0.72,3.93c0,1.53,0.23,2.81,0.68,3.83s1.06,1.79,1.83,2.3s1.62,0.77,2.55,0.77c1.38,0,2.38-0.33,3.01-1
				s0.94-1.56,0.94-2.68h5.47c0,1.58-0.36,3.02-1.08,4.32c-0.72,1.3-1.78,2.34-3.17,3.12C271.23,179.96,269.52,180.35,267.5,180.35z
				"/>
			<path class="st1" d="M291.72,180.35c-1.9,0-3.64-0.49-5.22-1.47s-2.84-2.36-3.79-4.13c-0.95-1.77-1.43-3.84-1.43-6.22
				c0-2.45,0.47-4.56,1.41-6.32c0.94-1.76,2.2-3.11,3.78-4.05c1.58-0.94,3.33-1.4,5.24-1.4c1.78,0,3.32,0.36,4.61,1.07
				c1.29,0.71,2.34,1.68,3.13,2.9c0.79,1.22,1.32,2.59,1.6,4.13c0.28,1.53,0.29,3.11,0.05,4.74h-15.5v-2.94h11.66l-1.06,0.69
				c0.05-0.72,0.01-1.45-0.1-2.19c-0.12-0.74-0.33-1.41-0.66-2.02s-0.78-1.11-1.37-1.48c-0.59-0.38-1.35-0.56-2.27-0.56
				c-1.1,0-2.04,0.28-2.81,0.83c-0.77,0.55-1.35,1.3-1.75,2.25c-0.4,0.95-0.6,2.02-0.6,3.22v2.16c0,1.26,0.19,2.37,0.56,3.33
				s0.94,1.72,1.68,2.28c0.74,0.55,1.68,0.83,2.82,0.83c1.06,0,1.95-0.25,2.67-0.74c0.72-0.49,1.18-1.23,1.38-2.21h5.47
				c-0.23,1.44-0.77,2.71-1.62,3.81c-0.85,1.1-1.95,1.95-3.3,2.58C294.97,180.04,293.44,180.35,291.72,180.35z"/>
			<path class="st1" d="M307.77,179.71V157.4h4.74l0.69,4.42v17.89H307.77z M323.09,179.71v-13.06c0-1.66-0.4-2.91-1.2-3.75
				c-0.8-0.84-1.84-1.26-3.13-1.26c-1.09,0-2.05,0.3-2.89,0.9c-0.84,0.6-1.49,1.5-1.97,2.7s-0.71,2.7-0.71,4.5h-1.79
				c0-2.9,0.36-5.31,1.08-7.23c0.72-1.92,1.74-3.36,3.06-4.31c1.32-0.95,2.87-1.43,4.65-1.43c1.84,0,3.38,0.41,4.61,1.23
				s2.16,1.97,2.78,3.46c0.62,1.49,0.93,3.22,0.93,5.2v13.06H323.09z"/>
			<path class="st1" d="M333.62,160.98v-3.59h14.63v3.59H333.62z M343.97,180.35c-1.32,0-2.53-0.25-3.62-0.74
				c-1.1-0.49-1.97-1.24-2.62-2.25c-0.65-1.01-0.98-2.3-0.98-3.86v-22.03h5.43v21.85c0,1.84,0.87,2.76,2.62,2.76
				c0.54,0,1.07-0.06,1.61-0.18c0.54-0.12,1.15-0.31,1.84-0.55l0.78,3.82c-0.86,0.34-1.69,0.62-2.51,0.85
				C345.71,180.23,344.86,180.35,343.97,180.35z"/>
			<path class="st1" d="M361.48,180.35c-1.92,0-3.52-0.33-4.79-1c-1.28-0.67-2.24-1.54-2.89-2.63c-0.64-1.09-0.97-2.27-0.97-3.54
				c0-1.41,0.37-2.59,1.12-3.55c0.74-0.96,1.8-1.68,3.16-2.16c1.37-0.48,2.97-0.72,4.83-0.72c1.21,0,2.36,0.09,3.44,0.28
				s2.16,0.43,3.23,0.74v3.17c-0.84-0.28-1.76-0.49-2.76-0.64c-1-0.15-1.93-0.23-2.81-0.23c-1.29,0-2.35,0.24-3.17,0.71
				c-0.83,0.48-1.24,1.28-1.24,2.42c0,0.83,0.34,1.54,1.01,2.14c0.67,0.6,1.75,0.9,3.22,0.9c1.12,0,2.07-0.25,2.85-0.74
				c0.78-0.49,1.38-1.1,1.78-1.84s0.61-1.47,0.61-2.21h1.29c0,1.61-0.3,3.09-0.9,4.45c-0.6,1.36-1.48,2.44-2.66,3.25
				C364.66,179.94,363.21,180.35,361.48,180.35z M368.79,179.71l-0.69-5.43v-8.97c0-1.56-0.32-2.72-0.95-3.47
				c-0.64-0.75-1.71-1.13-3.23-1.13c-0.87,0-1.63,0.13-2.28,0.39c-0.64,0.26-1.14,0.63-1.48,1.12c-0.34,0.48-0.52,1.07-0.52,1.76
				h-5.93c0-1.69,0.41-3.06,1.22-4.13c0.81-1.07,1.98-1.85,3.51-2.35c1.53-0.5,3.35-0.75,5.49-0.75c1.93,0,3.62,0.31,5.06,0.93
				s2.56,1.58,3.36,2.86c0.8,1.29,1.2,2.94,1.2,4.95v14.21H368.79z"/>
			<path class="st1" d="M380.15,191.25c-1.2,0-2.3-0.13-3.32-0.39s-2.06-0.61-3.12-1.03l0.09-4.69c0.78,0.38,1.61,0.71,2.47,0.98
				s1.71,0.4,2.54,0.4c1.12,0,1.97-0.32,2.56-0.97c0.59-0.64,0.88-1.73,0.88-3.27V157.3h5.43v25.07c0,3.19-0.66,5.47-1.99,6.83
				C384.38,190.57,382.53,191.25,380.15,191.25z M384.94,153.3c-1.03,0-1.84-0.28-2.45-0.84c-0.61-0.56-0.91-1.34-0.91-2.33
				c0-0.97,0.3-1.74,0.91-2.31s1.42-0.86,2.45-0.86c1.04,0,1.86,0.29,2.46,0.86c0.6,0.58,0.9,1.35,0.9,2.31c0,1-0.3,1.77-0.9,2.33
				C386.8,153.02,385.98,153.3,384.94,153.3z"/>
			<path class="st1" d="M405.22,180.35c-1.9,0-3.64-0.49-5.22-1.47s-2.84-2.36-3.79-4.13c-0.95-1.77-1.43-3.84-1.43-6.22
				c0-2.45,0.47-4.56,1.41-6.32c0.94-1.76,2.2-3.11,3.78-4.05c1.58-0.94,3.33-1.4,5.24-1.4c1.78,0,3.32,0.36,4.61,1.07
				c1.29,0.71,2.34,1.68,3.13,2.9c0.79,1.22,1.32,2.59,1.6,4.13c0.28,1.53,0.29,3.11,0.05,4.74h-15.5v-2.94h11.66l-1.06,0.69
				c0.05-0.72,0.01-1.45-0.1-2.19c-0.12-0.74-0.33-1.41-0.66-2.02s-0.78-1.11-1.37-1.48c-0.59-0.38-1.35-0.56-2.27-0.56
				c-1.1,0-2.04,0.28-2.81,0.83c-0.77,0.55-1.35,1.3-1.75,2.25c-0.4,0.95-0.6,2.02-0.6,3.22v2.16c0,1.26,0.19,2.37,0.56,3.33
				s0.94,1.72,1.68,2.28c0.74,0.55,1.68,0.83,2.82,0.83c1.06,0,1.95-0.25,2.67-0.74c0.72-0.49,1.18-1.23,1.38-2.21h5.47
				c-0.23,1.44-0.77,2.71-1.62,3.81c-0.85,1.1-1.95,1.95-3.3,2.58C408.47,180.04,406.94,180.35,405.22,180.35z"/>
			<path class="st1" d="M430.11,160.98v-3.59h14.63v3.59H430.11z M440.46,180.35c-1.32,0-2.53-0.25-3.62-0.74
				c-1.1-0.49-1.97-1.24-2.62-2.25c-0.65-1.01-0.98-2.3-0.98-3.86v-22.03h5.43v21.85c0,1.84,0.87,2.76,2.62,2.76
				c0.54,0,1.07-0.06,1.61-0.18c0.54-0.12,1.15-0.31,1.84-0.55l0.78,3.82c-0.86,0.34-1.69,0.62-2.51,0.85
				C442.2,180.23,441.35,180.35,440.46,180.35z"/>
			<path class="st1" d="M459.85,180.35c-2.04,0-3.88-0.44-5.53-1.31s-2.96-2.18-3.92-3.92c-0.97-1.74-1.45-3.92-1.45-6.54
				c0-2.67,0.48-4.88,1.45-6.62c0.97-1.75,2.27-3.05,3.92-3.91s3.49-1.29,5.53-1.29c2.01,0,3.83,0.43,5.46,1.29s2.93,2.16,3.9,3.91
				s1.45,3.96,1.45,6.62c0,2.62-0.48,4.8-1.45,6.54s-2.27,3.05-3.9,3.92S461.85,180.35,459.85,180.35z M459.66,175.61
				c1.07,0,2.03-0.26,2.86-0.79s1.5-1.31,1.98-2.36c0.48-1.04,0.72-2.34,0.72-3.89c0-2.36-0.46-4.14-1.39-5.34
				c-0.93-1.2-2.2-1.79-3.81-1.79c-1.09,0-2.05,0.26-2.9,0.79c-0.84,0.53-1.51,1.32-1.99,2.38c-0.48,1.06-0.72,2.38-0.72,3.96
				c0,2.33,0.47,4.09,1.42,5.27C456.77,175.02,458.05,175.61,459.66,175.61z"/>
			<path class="st1" d="M474.29,160.98v-3.59h14.63v3.59H474.29z M484.64,180.35c-1.32,0-2.53-0.25-3.62-0.74
				c-1.1-0.49-1.97-1.24-2.62-2.25c-0.65-1.01-0.98-2.3-0.98-3.86v-22.03h5.43v21.85c0,1.84,0.87,2.76,2.62,2.76
				c0.54,0,1.07-0.06,1.61-0.18c0.54-0.12,1.15-0.31,1.84-0.55l0.78,3.82c-0.86,0.34-1.69,0.62-2.51,0.85
				C486.38,180.23,485.53,180.35,484.64,180.35z"/>
			<path class="st1" d="M502.14,180.35c-1.92,0-3.52-0.33-4.79-1c-1.28-0.67-2.24-1.54-2.89-2.63c-0.64-1.09-0.97-2.27-0.97-3.54
				c0-1.41,0.37-2.59,1.12-3.55c0.74-0.96,1.8-1.68,3.16-2.16c1.37-0.48,2.97-0.72,4.83-0.72c1.21,0,2.36,0.09,3.44,0.28
				s2.16,0.43,3.23,0.74v3.17c-0.84-0.28-1.76-0.49-2.76-0.64c-1-0.15-1.93-0.23-2.81-0.23c-1.29,0-2.35,0.24-3.17,0.71
				c-0.83,0.48-1.24,1.28-1.24,2.42c0,0.83,0.34,1.54,1.01,2.14c0.67,0.6,1.75,0.9,3.22,0.9c1.12,0,2.07-0.25,2.85-0.74
				c0.78-0.49,1.38-1.1,1.78-1.84s0.61-1.47,0.61-2.21h1.29c0,1.61-0.3,3.09-0.9,4.45c-0.6,1.36-1.48,2.44-2.66,3.25
				C505.33,179.94,503.87,180.35,502.14,180.35z M509.46,179.71l-0.69-5.43v-8.97c0-1.56-0.32-2.72-0.95-3.47
				c-0.64-0.75-1.71-1.13-3.23-1.13c-0.87,0-1.63,0.13-2.28,0.39c-0.64,0.26-1.14,0.63-1.48,1.12c-0.34,0.48-0.52,1.07-0.52,1.76
				h-5.93c0-1.69,0.41-3.06,1.22-4.13c0.81-1.07,1.98-1.85,3.51-2.35c1.53-0.5,3.35-0.75,5.49-0.75c1.93,0,3.62,0.31,5.06,0.93
				s2.56,1.58,3.36,2.86c0.8,1.29,1.2,2.94,1.2,4.95v14.21H509.46z"/>
			<path class="st1" d="M522.15,179.71v-31.56h5.43v31.56H522.15z"/>
			<path class="st1" d="M547.8,190.61V157.4h4.46l0.97,5.52v27.69H547.8z M558.97,180.35c-1.64,0-3.04-0.35-4.19-1.06
				c-1.15-0.71-2.03-1.77-2.63-3.21c-0.61-1.43-0.91-3.23-0.91-5.39h1.98c0,1,0.23,1.85,0.69,2.55c0.46,0.71,1.07,1.25,1.83,1.62
				s1.58,0.56,2.45,0.56c0.9,0,1.8-0.25,2.68-0.75s1.61-1.26,2.2-2.28s0.87-2.31,0.87-3.88c0-1.43-0.25-2.66-0.74-3.69
				c-0.49-1.03-1.16-1.83-2.01-2.38c-0.85-0.55-1.82-0.83-2.91-0.83c-0.92,0-1.76,0.21-2.53,0.62c-0.77,0.41-1.38,1.02-1.84,1.81
				c-0.46,0.79-0.69,1.74-0.69,2.86h-1.98c0-2.35,0.36-4.27,1.08-5.76s1.69-2.6,2.9-3.32c1.21-0.72,2.54-1.08,3.98-1.08
				c1.76,0,3.42,0.47,4.98,1.4c1.56,0.93,2.82,2.28,3.78,4.04s1.45,3.87,1.45,6.34c0,2.48-0.49,4.61-1.47,6.37
				c-0.98,1.76-2.27,3.11-3.85,4.05C562.5,179.88,560.8,180.35,558.97,180.35z"/>
			<path class="st1" d="M584.18,180.35c-1.9,0-3.64-0.49-5.22-1.47s-2.84-2.36-3.79-4.13c-0.95-1.77-1.43-3.84-1.43-6.22
				c0-2.45,0.47-4.56,1.41-6.32c0.94-1.76,2.2-3.11,3.78-4.05c1.58-0.94,3.33-1.4,5.24-1.4c1.78,0,3.32,0.36,4.61,1.07
				c1.29,0.71,2.34,1.68,3.13,2.9c0.79,1.22,1.32,2.59,1.6,4.13c0.28,1.53,0.29,3.11,0.05,4.74h-15.5v-2.94h11.66l-1.06,0.69
				c0.05-0.72,0.01-1.45-0.1-2.19c-0.12-0.74-0.33-1.41-0.66-2.02s-0.78-1.11-1.37-1.48c-0.59-0.38-1.35-0.56-2.27-0.56
				c-1.1,0-2.04,0.28-2.81,0.83c-0.77,0.55-1.35,1.3-1.75,2.25c-0.4,0.95-0.6,2.02-0.6,3.22v2.16c0,1.26,0.19,2.37,0.56,3.33
				s0.94,1.72,1.68,2.28c0.74,0.55,1.68,0.83,2.82,0.83c1.06,0,1.95-0.25,2.67-0.74c0.72-0.49,1.18-1.23,1.38-2.21h5.47
				c-0.23,1.44-0.77,2.71-1.62,3.81c-0.85,1.1-1.95,1.95-3.3,2.58C587.43,180.04,585.9,180.35,584.18,180.35z"/>
			<path class="st1" d="M600.24,179.71v-22.4h5.43v22.4H600.24z M604.33,169.91c0-2.93,0.33-5.35,0.99-7.27
				c0.66-1.92,1.54-3.34,2.66-4.27c1.11-0.93,2.35-1.39,3.71-1.39c0.37,0,0.72,0.02,1.05,0.07s0.66,0.12,0.98,0.21l-0.09,5.43
				c-0.4-0.09-0.83-0.17-1.29-0.23s-0.87-0.09-1.24-0.09c-1.2,0-2.2,0.29-3,0.86c-0.81,0.58-1.41,1.42-1.82,2.54
				c-0.41,1.12-0.61,2.5-0.61,4.14H604.33z"/>
			<path class="st1" d="M626.62,180.35c-2.15,0-3.99-0.29-5.53-0.89c-1.54-0.59-2.73-1.44-3.55-2.55c-0.83-1.11-1.25-2.45-1.26-4.01
				h5.01c0.05,1.1,0.48,1.91,1.31,2.42s1.96,0.76,3.38,0.76c0.78,0,1.48-0.12,2.08-0.35c0.61-0.23,1.08-0.54,1.42-0.94
				c0.34-0.4,0.51-0.84,0.51-1.33c0-0.63-0.23-1.12-0.68-1.48s-1.18-0.69-2.17-1l-4.88-1.75c-1.75-0.63-3.09-1.46-4.03-2.48
				c-0.94-1.03-1.4-2.25-1.4-3.68c0-1.89,0.85-3.41,2.56-4.57c1.71-1.16,4-1.74,6.87-1.74c2.85,0,5.06,0.63,6.61,1.87
				c1.56,1.25,2.36,2.83,2.4,4.75h-5.11c-0.08-0.74-0.43-1.32-1.06-1.75s-1.58-0.64-2.85-0.64c-1.15,0-2.05,0.23-2.7,0.7
				s-0.98,1.02-0.98,1.64c0,1.06,0.91,1.86,2.71,2.39l5.29,1.98c1.72,0.58,3.05,1.33,4,2.25c0.95,0.92,1.43,2.08,1.43,3.5
				c0,1.18-0.4,2.3-1.18,3.35c-0.79,1.05-1.89,1.91-3.3,2.56C630.1,180.02,628.47,180.35,626.62,180.35z"/>
			<path class="st1" d="M651.34,180.35c-2.04,0-3.88-0.44-5.53-1.31s-2.96-2.18-3.92-3.92c-0.97-1.74-1.45-3.92-1.45-6.54
				c0-2.67,0.48-4.88,1.45-6.62c0.97-1.75,2.27-3.05,3.92-3.91s3.49-1.29,5.53-1.29c2.01,0,3.83,0.43,5.46,1.29s2.93,2.16,3.9,3.91
				s1.45,3.96,1.45,6.62c0,2.62-0.48,4.8-1.45,6.54s-2.27,3.05-3.9,3.92S653.35,180.35,651.34,180.35z M651.16,175.61
				c1.07,0,2.03-0.26,2.86-0.79s1.5-1.31,1.98-2.36c0.48-1.04,0.72-2.34,0.72-3.89c0-2.36-0.46-4.14-1.39-5.34
				c-0.93-1.2-2.2-1.79-3.81-1.79c-1.09,0-2.05,0.26-2.9,0.79c-0.84,0.53-1.51,1.32-1.99,2.38c-0.48,1.06-0.72,2.38-0.72,3.96
				c0,2.33,0.47,4.09,1.42,5.27C648.27,175.02,649.55,175.61,651.16,175.61z"/>
			<path class="st1" d="M668.59,179.71V157.4h4.74l0.69,4.42v17.89H668.59z M683.91,179.71v-13.06c0-1.66-0.4-2.91-1.2-3.75
				c-0.8-0.84-1.84-1.26-3.13-1.26c-1.09,0-2.05,0.3-2.89,0.9c-0.84,0.6-1.49,1.5-1.97,2.7s-0.71,2.7-0.71,4.5h-1.79
				c0-2.9,0.36-5.31,1.08-7.23c0.72-1.92,1.74-3.36,3.06-4.31c1.32-0.95,2.87-1.43,4.65-1.43c1.84,0,3.38,0.41,4.61,1.23
				s2.16,1.97,2.78,3.46c0.62,1.49,0.93,3.22,0.93,5.2v13.06H683.91z"/>
			<path class="st1" d="M704.15,180.35c-1.92,0-3.52-0.33-4.79-1c-1.28-0.67-2.24-1.54-2.89-2.63c-0.64-1.09-0.97-2.27-0.97-3.54
				c0-1.41,0.37-2.59,1.12-3.55c0.74-0.96,1.8-1.68,3.16-2.16c1.37-0.48,2.97-0.72,4.83-0.72c1.21,0,2.36,0.09,3.44,0.28
				s2.16,0.43,3.23,0.74v3.17c-0.84-0.28-1.76-0.49-2.76-0.64c-1-0.15-1.93-0.23-2.81-0.23c-1.29,0-2.35,0.24-3.17,0.71
				c-0.83,0.48-1.24,1.28-1.24,2.42c0,0.83,0.34,1.54,1.01,2.14c0.67,0.6,1.75,0.9,3.22,0.9c1.12,0,2.07-0.25,2.85-0.74
				c0.78-0.49,1.38-1.1,1.78-1.84s0.61-1.47,0.61-2.21h1.29c0,1.61-0.3,3.09-0.9,4.45c-0.6,1.36-1.48,2.44-2.66,3.25
				C707.33,179.94,705.88,180.35,704.15,180.35z M711.46,179.71l-0.69-5.43v-8.97c0-1.56-0.32-2.72-0.95-3.47
				c-0.64-0.75-1.71-1.13-3.23-1.13c-0.87,0-1.63,0.13-2.28,0.39c-0.64,0.26-1.14,0.63-1.48,1.12c-0.34,0.48-0.52,1.07-0.52,1.76
				h-5.93c0-1.69,0.41-3.06,1.22-4.13c0.81-1.07,1.98-1.85,3.51-2.35c1.53-0.5,3.35-0.75,5.49-0.75c1.93,0,3.62,0.31,5.06,0.93
				s2.56,1.58,3.36,2.86c0.8,1.29,1.2,2.94,1.2,4.95v14.21H711.46z"/>
			<path class="st1" d="M732.48,180.35c-2.15,0-3.99-0.29-5.53-0.89c-1.54-0.59-2.73-1.44-3.55-2.55c-0.83-1.11-1.25-2.45-1.26-4.01
				h5.01c0.05,1.1,0.48,1.91,1.31,2.42s1.96,0.76,3.38,0.76c0.78,0,1.48-0.12,2.08-0.35c0.61-0.23,1.08-0.54,1.42-0.94
				c0.34-0.4,0.51-0.84,0.51-1.33c0-0.63-0.23-1.12-0.68-1.48s-1.18-0.69-2.17-1l-4.88-1.75c-1.75-0.63-3.09-1.46-4.03-2.48
				c-0.94-1.03-1.4-2.25-1.4-3.68c0-1.89,0.85-3.41,2.56-4.57c1.71-1.16,4-1.74,6.87-1.74c2.85,0,5.06,0.63,6.61,1.87
				c1.56,1.25,2.36,2.83,2.4,4.75h-5.11c-0.08-0.74-0.43-1.32-1.06-1.75s-1.58-0.64-2.85-0.64c-1.15,0-2.05,0.23-2.7,0.7
				s-0.98,1.02-0.98,1.64c0,1.06,0.91,1.86,2.71,2.39l5.29,1.98c1.72,0.58,3.05,1.33,4,2.25c0.95,0.92,1.43,2.08,1.43,3.5
				c0,1.18-0.4,2.3-1.18,3.35c-0.79,1.05-1.89,1.91-3.3,2.56C735.97,180.02,734.34,180.35,732.48,180.35z"/>
		</g>
	</g>
	<g>
		<g>
			<path class="st1" d="M1216.69,179.71v-29.85h10.53c3.36,0,5.98,0.83,7.85,2.48s2.82,4,2.82,7.04c0,3-0.94,5.34-2.82,6.99
				c-1.88,1.66-4.5,2.48-7.85,2.48h-5.06v10.86H1216.69z M1222.17,164.11h5.06c1.69,0,2.96-0.44,3.82-1.33
				c0.86-0.89,1.29-2.02,1.29-3.4c0-1.41-0.43-2.57-1.29-3.47c-0.86-0.9-2.13-1.36-3.82-1.36h-5.06V164.11z"/>
			<path class="st1" d="M1251.86,180.35c-1.9,0-3.64-0.49-5.22-1.47s-2.84-2.36-3.79-4.13c-0.95-1.77-1.43-3.84-1.43-6.22
				c0-2.45,0.47-4.56,1.41-6.32c0.94-1.76,2.2-3.11,3.78-4.05c1.58-0.94,3.33-1.4,5.24-1.4c1.78,0,3.32,0.36,4.61,1.07
				c1.29,0.71,2.34,1.68,3.13,2.9c0.79,1.22,1.32,2.59,1.6,4.13c0.28,1.53,0.29,3.11,0.05,4.74h-15.5v-2.94h11.66l-1.06,0.69
				c0.05-0.72,0.01-1.45-0.1-2.19c-0.12-0.74-0.33-1.41-0.66-2.02s-0.78-1.11-1.37-1.48c-0.59-0.38-1.35-0.56-2.27-0.56
				c-1.1,0-2.04,0.28-2.81,0.83c-0.77,0.55-1.35,1.3-1.75,2.25c-0.4,0.95-0.6,2.02-0.6,3.22v2.16c0,1.26,0.19,2.37,0.56,3.33
				s0.94,1.72,1.68,2.28c0.74,0.55,1.68,0.83,2.82,0.83c1.06,0,1.95-0.25,2.67-0.74c0.72-0.49,1.18-1.23,1.38-2.21h5.47
				c-0.23,1.44-0.77,2.71-1.62,3.81c-0.85,1.1-1.95,1.95-3.3,2.58C1255.11,180.04,1253.57,180.35,1251.86,180.35z"/>
			<path class="st1" d="M1267.91,179.71v-22.4h5.43v22.4H1267.91z M1272,169.91c0-2.93,0.33-5.35,0.99-7.27
				c0.66-1.92,1.54-3.34,2.66-4.27c1.11-0.93,2.35-1.39,3.71-1.39c0.37,0,0.72,0.02,1.05,0.07s0.66,0.12,0.98,0.21l-0.09,5.43
				c-0.4-0.09-0.83-0.17-1.29-0.23s-0.87-0.09-1.24-0.09c-1.2,0-2.2,0.29-3,0.86c-0.81,0.58-1.41,1.42-1.82,2.54
				c-0.41,1.12-0.61,2.5-0.61,4.14H1272z"/>
			<path class="st1" d="M1294.29,180.35c-2.15,0-3.99-0.29-5.53-0.89c-1.54-0.59-2.73-1.44-3.55-2.55
				c-0.83-1.11-1.25-2.45-1.26-4.01h5.01c0.05,1.1,0.48,1.91,1.31,2.42s1.96,0.76,3.38,0.76c0.78,0,1.48-0.12,2.08-0.35
				c0.61-0.23,1.08-0.54,1.42-0.94c0.34-0.4,0.51-0.84,0.51-1.33c0-0.63-0.23-1.12-0.68-1.48s-1.18-0.69-2.17-1l-4.88-1.75
				c-1.75-0.63-3.09-1.46-4.03-2.48c-0.94-1.03-1.4-2.25-1.4-3.68c0-1.89,0.85-3.41,2.56-4.57c1.71-1.16,4-1.74,6.87-1.74
				c2.85,0,5.06,0.63,6.61,1.87c1.56,1.25,2.36,2.83,2.4,4.75h-5.11c-0.08-0.74-0.43-1.32-1.06-1.75s-1.58-0.64-2.85-0.64
				c-1.15,0-2.05,0.23-2.7,0.7s-0.98,1.02-0.98,1.64c0,1.06,0.91,1.86,2.71,2.39l5.29,1.98c1.72,0.58,3.05,1.33,4,2.25
				c0.95,0.92,1.43,2.08,1.43,3.5c0,1.18-0.4,2.3-1.18,3.35c-0.79,1.05-1.89,1.91-3.3,2.56
				C1297.78,180.02,1296.15,180.35,1294.29,180.35z"/>
			<path class="st1" d="M1319.02,180.35c-2.04,0-3.88-0.44-5.53-1.31s-2.96-2.18-3.92-3.92c-0.97-1.74-1.45-3.92-1.45-6.54
				c0-2.67,0.48-4.88,1.45-6.62c0.97-1.75,2.27-3.05,3.92-3.91s3.49-1.29,5.53-1.29c2.01,0,3.83,0.43,5.46,1.29s2.93,2.16,3.9,3.91
				s1.45,3.96,1.45,6.62c0,2.62-0.48,4.8-1.45,6.54s-2.27,3.05-3.9,3.92S1321.02,180.35,1319.02,180.35z M1318.83,175.61
				c1.07,0,2.03-0.26,2.86-0.79s1.5-1.31,1.98-2.36c0.48-1.04,0.72-2.34,0.72-3.89c0-2.36-0.46-4.14-1.39-5.34
				c-0.93-1.2-2.2-1.79-3.81-1.79c-1.09,0-2.05,0.26-2.9,0.79c-0.84,0.53-1.51,1.32-1.99,2.38c-0.48,1.06-0.72,2.38-0.72,3.96
				c0,2.33,0.47,4.09,1.42,5.27C1315.95,175.02,1317.22,175.61,1318.83,175.61z"/>
			<path class="st1" d="M1336.27,179.71V157.4h4.74l0.69,4.42v17.89H1336.27z M1351.58,179.71v-13.06c0-1.66-0.4-2.91-1.2-3.75
				c-0.8-0.84-1.84-1.26-3.13-1.26c-1.09,0-2.05,0.3-2.89,0.9c-0.84,0.6-1.49,1.5-1.97,2.7s-0.71,2.7-0.71,4.5h-1.79
				c0-2.9,0.36-5.31,1.08-7.23c0.72-1.92,1.74-3.36,3.06-4.31c1.32-0.95,2.87-1.43,4.65-1.43c1.84,0,3.38,0.41,4.61,1.23
				s2.16,1.97,2.78,3.46c0.62,1.49,0.93,3.22,0.93,5.2v13.06H1351.58z"/>
			<path class="st1" d="M1371.82,180.35c-1.92,0-3.52-0.33-4.79-1c-1.28-0.67-2.24-1.54-2.89-2.63c-0.64-1.09-0.97-2.27-0.97-3.54
				c0-1.41,0.37-2.59,1.12-3.55c0.74-0.96,1.8-1.68,3.16-2.16c1.37-0.48,2.97-0.72,4.83-0.72c1.21,0,2.36,0.09,3.44,0.28
				s2.16,0.43,3.23,0.74v3.17c-0.84-0.28-1.76-0.49-2.76-0.64c-1-0.15-1.93-0.23-2.81-0.23c-1.29,0-2.35,0.24-3.17,0.71
				c-0.83,0.48-1.24,1.28-1.24,2.42c0,0.83,0.34,1.54,1.01,2.14c0.67,0.6,1.75,0.9,3.22,0.9c1.12,0,2.07-0.25,2.85-0.74
				c0.78-0.49,1.38-1.1,1.78-1.84s0.61-1.47,0.61-2.21h1.29c0,1.61-0.3,3.09-0.9,4.45c-0.6,1.36-1.48,2.44-2.66,3.25
				C1375.01,179.94,1373.56,180.35,1371.82,180.35z M1379.14,179.71l-0.69-5.43v-8.97c0-1.56-0.32-2.72-0.95-3.47
				c-0.64-0.75-1.71-1.13-3.23-1.13c-0.87,0-1.63,0.13-2.28,0.39c-0.64,0.26-1.14,0.63-1.48,1.12c-0.34,0.48-0.52,1.07-0.52,1.76
				h-5.93c0-1.69,0.41-3.06,1.22-4.13c0.81-1.07,1.98-1.85,3.51-2.35c1.53-0.5,3.35-0.75,5.49-0.75c1.93,0,3.62,0.31,5.06,0.93
				s2.56,1.58,3.36,2.86c0.8,1.29,1.2,2.94,1.2,4.95v14.21H1379.14z"/>
			<path class="st1" d="M1400.16,180.35c-2.15,0-3.99-0.29-5.53-0.89c-1.54-0.59-2.73-1.44-3.55-2.55
				c-0.83-1.11-1.25-2.45-1.26-4.01h5.01c0.05,1.1,0.48,1.91,1.31,2.42s1.96,0.76,3.38,0.76c0.78,0,1.48-0.12,2.08-0.35
				c0.61-0.23,1.08-0.54,1.42-0.94c0.34-0.4,0.51-0.84,0.51-1.33c0-0.63-0.23-1.12-0.68-1.48s-1.18-0.69-2.17-1l-4.88-1.75
				c-1.75-0.63-3.09-1.46-4.03-2.48c-0.94-1.03-1.4-2.25-1.4-3.68c0-1.89,0.85-3.41,2.56-4.57c1.71-1.16,4-1.74,6.87-1.74
				c2.85,0,5.06,0.63,6.61,1.87c1.56,1.25,2.36,2.83,2.4,4.75h-5.11c-0.08-0.74-0.43-1.32-1.06-1.75s-1.58-0.64-2.85-0.64
				c-1.15,0-2.05,0.23-2.7,0.7s-0.98,1.02-0.98,1.64c0,1.06,0.91,1.86,2.71,2.39l5.29,1.98c1.72,0.58,3.05,1.33,4,2.25
				c0.95,0.92,1.43,2.08,1.43,3.5c0,1.18-0.4,2.3-1.18,3.35c-0.79,1.05-1.89,1.91-3.3,2.56
				C1403.65,180.02,1402.01,180.35,1400.16,180.35z"/>
			<path class="st1" d="M1424.93,160.98v-3.59h14.63v3.59H1424.93z M1435.28,180.35c-1.32,0-2.53-0.25-3.62-0.74
				c-1.1-0.49-1.97-1.24-2.62-2.25c-0.65-1.01-0.98-2.3-0.98-3.86v-22.03h5.43v21.85c0,1.84,0.87,2.76,2.62,2.76
				c0.54,0,1.07-0.06,1.61-0.18c0.54-0.12,1.15-0.31,1.84-0.55l0.78,3.82c-0.86,0.34-1.69,0.62-2.51,0.85
				C1437.02,180.23,1436.17,180.35,1435.28,180.35z"/>
			<path class="st1" d="M1445.88,179.71v-22.4h5.43v22.4H1445.88z M1449.98,169.91c0-2.93,0.33-5.35,0.99-7.27
				c0.66-1.92,1.54-3.34,2.66-4.27c1.11-0.93,2.35-1.39,3.71-1.39c0.37,0,0.72,0.02,1.05,0.07s0.66,0.12,0.98,0.21l-0.09,5.43
				c-0.4-0.09-0.83-0.17-1.29-0.23s-0.87-0.09-1.24-0.09c-1.2,0-2.2,0.29-3,0.86c-0.81,0.58-1.41,1.42-1.82,2.54
				c-0.41,1.12-0.61,2.5-0.61,4.14H1449.98z"/>
			<path class="st1" d="M1470.84,180.35c-1.92,0-3.52-0.33-4.79-1c-1.28-0.67-2.24-1.54-2.89-2.63c-0.64-1.09-0.97-2.27-0.97-3.54
				c0-1.41,0.37-2.59,1.12-3.55c0.74-0.96,1.8-1.68,3.16-2.16c1.37-0.48,2.97-0.72,4.83-0.72c1.21,0,2.36,0.09,3.44,0.28
				s2.16,0.43,3.23,0.74v3.17c-0.84-0.28-1.76-0.49-2.76-0.64c-1-0.15-1.93-0.23-2.81-0.23c-1.29,0-2.35,0.24-3.17,0.71
				c-0.83,0.48-1.24,1.28-1.24,2.42c0,0.83,0.34,1.54,1.01,2.14c0.67,0.6,1.75,0.9,3.22,0.9c1.12,0,2.07-0.25,2.85-0.74
				c0.78-0.49,1.38-1.1,1.78-1.84s0.61-1.47,0.61-2.21h1.29c0,1.61-0.3,3.09-0.9,4.45c-0.6,1.36-1.48,2.44-2.66,3.25
				C1474.02,179.94,1472.57,180.35,1470.84,180.35z M1478.15,179.71l-0.69-5.43v-8.97c0-1.56-0.32-2.72-0.95-3.47
				c-0.64-0.75-1.71-1.13-3.23-1.13c-0.87,0-1.63,0.13-2.28,0.39c-0.64,0.26-1.14,0.63-1.48,1.12c-0.34,0.48-0.52,1.07-0.52,1.76
				h-5.93c0-1.69,0.41-3.06,1.22-4.13c0.81-1.07,1.98-1.85,3.51-2.35c1.53-0.5,3.35-0.75,5.49-0.75c1.93,0,3.62,0.31,5.06,0.93
				s2.56,1.58,3.36,2.86c0.8,1.29,1.2,2.94,1.2,4.95v14.21H1478.15z"/>
			<path class="st1" d="M1490.85,179.71v-31.56h5.43v26.04l-1.89,5.52H1490.85z M1502.25,180.35c-1.39,0-2.67-0.39-3.83-1.17
				c-1.16-0.78-2.08-1.95-2.77-3.51c-0.69-1.56-1.04-3.51-1.04-5.85h1.66c0,1.12,0.25,2.1,0.76,2.94c0.51,0.84,1.16,1.5,1.96,1.97
				c0.8,0.47,1.63,0.7,2.48,0.7c1.06,0,2-0.29,2.83-0.87c0.83-0.58,1.48-1.39,1.97-2.44c0.48-1.04,0.72-2.27,0.72-3.68
				c0-1.36-0.24-2.56-0.71-3.58s-1.13-1.81-1.97-2.38c-0.84-0.57-1.8-0.85-2.89-0.85c-0.91,0-1.75,0.22-2.53,0.66
				c-0.78,0.44-1.42,1.07-1.9,1.89c-0.48,0.82-0.72,1.81-0.72,2.98h-1.66c0-2.25,0.33-4.15,0.98-5.7c0.65-1.55,1.58-2.72,2.78-3.51
				c1.2-0.79,2.63-1.18,4.29-1.18c1.81,0,3.45,0.48,4.93,1.44s2.66,2.32,3.54,4.07s1.32,3.81,1.32,6.17c0,2.39-0.46,4.48-1.37,6.27
				c-0.91,1.79-2.14,3.17-3.69,4.16S1504.14,180.35,1502.25,180.35z"/>
			<path class="st1" d="M1525.99,180.35c-1.92,0-3.52-0.33-4.79-1c-1.28-0.67-2.24-1.54-2.89-2.63c-0.64-1.09-0.97-2.27-0.97-3.54
				c0-1.41,0.37-2.59,1.12-3.55c0.74-0.96,1.8-1.68,3.16-2.16c1.37-0.48,2.97-0.72,4.83-0.72c1.21,0,2.36,0.09,3.44,0.28
				s2.16,0.43,3.23,0.74v3.17c-0.84-0.28-1.76-0.49-2.76-0.64c-1-0.15-1.93-0.23-2.81-0.23c-1.29,0-2.35,0.24-3.17,0.71
				c-0.83,0.48-1.24,1.28-1.24,2.42c0,0.83,0.34,1.54,1.01,2.14c0.67,0.6,1.75,0.9,3.22,0.9c1.12,0,2.07-0.25,2.85-0.74
				c0.78-0.49,1.38-1.1,1.78-1.84s0.61-1.47,0.61-2.21h1.29c0,1.61-0.3,3.09-0.9,4.45c-0.6,1.36-1.48,2.44-2.66,3.25
				C1529.17,179.94,1527.72,180.35,1525.99,180.35z M1533.3,179.71l-0.69-5.43v-8.97c0-1.56-0.32-2.72-0.95-3.47
				c-0.64-0.75-1.71-1.13-3.23-1.13c-0.87,0-1.63,0.13-2.28,0.39c-0.64,0.26-1.14,0.63-1.48,1.12c-0.34,0.48-0.52,1.07-0.52,1.76
				h-5.93c0-1.69,0.41-3.06,1.22-4.13c0.81-1.07,1.98-1.85,3.51-2.35c1.53-0.5,3.35-0.75,5.49-0.75c1.93,0,3.62,0.31,5.06,0.93
				s2.56,1.58,3.36,2.86c0.8,1.29,1.2,2.94,1.2,4.95v14.21H1533.3z"/>
			<path class="st1" d="M1544.67,191.25c-1.2,0-2.3-0.13-3.32-0.39s-2.06-0.61-3.12-1.03l0.09-4.69c0.78,0.38,1.61,0.71,2.47,0.98
				s1.71,0.4,2.54,0.4c1.12,0,1.97-0.32,2.56-0.97c0.59-0.64,0.88-1.73,0.88-3.27V157.3h5.43v25.07c0,3.19-0.66,5.47-1.99,6.83
				C1548.89,190.57,1547.04,191.25,1544.67,191.25z M1549.45,153.3c-1.03,0-1.84-0.28-2.45-0.84c-0.61-0.56-0.91-1.34-0.91-2.33
				c0-0.97,0.3-1.74,0.91-2.31s1.42-0.86,2.45-0.86c1.04,0,1.86,0.29,2.46,0.86c0.6,0.58,0.9,1.35,0.9,2.31c0,1-0.3,1.77-0.9,2.33
				C1551.31,153.02,1550.49,153.3,1549.45,153.3z"/>
			<path class="st1" d="M1568.31,180.35c-1.92,0-3.52-0.33-4.79-1c-1.28-0.67-2.24-1.54-2.89-2.63c-0.64-1.09-0.97-2.27-0.97-3.54
				c0-1.41,0.37-2.59,1.12-3.55c0.74-0.96,1.8-1.68,3.16-2.16c1.37-0.48,2.97-0.72,4.83-0.72c1.21,0,2.36,0.09,3.44,0.28
				s2.16,0.43,3.23,0.74v3.17c-0.84-0.28-1.76-0.49-2.76-0.64c-1-0.15-1.93-0.23-2.81-0.23c-1.29,0-2.35,0.24-3.17,0.71
				c-0.83,0.48-1.24,1.28-1.24,2.42c0,0.83,0.34,1.54,1.01,2.14c0.67,0.6,1.75,0.9,3.22,0.9c1.12,0,2.07-0.25,2.85-0.74
				c0.78-0.49,1.38-1.1,1.78-1.84s0.61-1.47,0.61-2.21h1.29c0,1.61-0.3,3.09-0.9,4.45c-0.6,1.36-1.48,2.44-2.66,3.25
				C1571.49,179.94,1570.04,180.35,1568.31,180.35z M1575.62,179.71l-0.69-5.43v-8.97c0-1.56-0.32-2.72-0.95-3.47
				c-0.64-0.75-1.71-1.13-3.23-1.13c-0.87,0-1.63,0.13-2.28,0.39c-0.64,0.26-1.14,0.63-1.48,1.12c-0.34,0.48-0.52,1.07-0.52,1.76
				h-5.93c0-1.69,0.41-3.06,1.22-4.13c0.81-1.07,1.98-1.85,3.51-2.35c1.53-0.5,3.35-0.75,5.49-0.75c1.93,0,3.62,0.31,5.06,0.93
				s2.56,1.58,3.36,2.86c0.8,1.29,1.2,2.94,1.2,4.95v14.21H1575.62z"/>
			<path class="st1" d="M1596.55,180.35c-1.87,0-3.58-0.49-5.12-1.48s-2.77-2.38-3.68-4.16c-0.91-1.79-1.37-3.88-1.37-6.27
				c0-2.36,0.44-4.42,1.32-6.17c0.88-1.76,2.06-3.11,3.54-4.07c1.48-0.96,3.12-1.44,4.93-1.44c1.66,0,3.09,0.39,4.3,1.18
				c1.21,0.79,2.14,1.96,2.78,3.51c0.64,1.55,0.97,3.45,0.97,5.7h-1.7c0-1.17-0.24-2.16-0.71-2.98c-0.48-0.82-1.1-1.45-1.88-1.89
				c-0.77-0.44-1.61-0.66-2.52-0.66c-1.09,0-2.05,0.28-2.89,0.85c-0.83,0.57-1.49,1.36-1.97,2.38c-0.48,1.02-0.71,2.21-0.71,3.58
				c0,1.41,0.24,2.64,0.71,3.68c0.47,1.04,1.13,1.86,1.97,2.44c0.84,0.58,1.78,0.87,2.84,0.87c0.86,0,1.68-0.23,2.47-0.7
				c0.79-0.47,1.43-1.12,1.93-1.97c0.5-0.84,0.75-1.82,0.75-2.94h1.7c0,2.35-0.35,4.3-1.05,5.85c-0.7,1.56-1.63,2.73-2.79,3.51
				C1599.23,179.96,1597.95,180.35,1596.55,180.35z M1603.54,179.71l-1.01-5.52v-26.04h5.47v31.56H1603.54z"/>
			<path class="st1" d="M1625.35,180.35c-2.04,0-3.88-0.44-5.53-1.31s-2.96-2.18-3.92-3.92c-0.97-1.74-1.45-3.92-1.45-6.54
				c0-2.67,0.48-4.88,1.45-6.62c0.97-1.75,2.27-3.05,3.92-3.91s3.49-1.29,5.53-1.29c2.01,0,3.83,0.43,5.46,1.29s2.93,2.16,3.9,3.91
				s1.45,3.96,1.45,6.62c0,2.62-0.48,4.8-1.45,6.54s-2.27,3.05-3.9,3.92S1627.36,180.35,1625.35,180.35z M1625.16,175.61
				c1.07,0,2.03-0.26,2.86-0.79s1.5-1.31,1.98-2.36c0.48-1.04,0.72-2.34,0.72-3.89c0-2.36-0.46-4.14-1.39-5.34
				c-0.93-1.2-2.2-1.79-3.81-1.79c-1.09,0-2.05,0.26-2.9,0.79c-0.84,0.53-1.51,1.32-1.99,2.38c-0.48,1.06-0.72,2.38-0.72,3.96
				c0,2.33,0.47,4.09,1.42,5.27C1622.28,175.02,1623.55,175.61,1625.16,175.61z"/>
			<path class="st1" d="M1642.6,179.71v-22.4h5.43v22.4H1642.6z M1646.69,169.91c0-2.93,0.33-5.35,0.99-7.27
				c0.66-1.92,1.54-3.34,2.66-4.27c1.11-0.93,2.35-1.39,3.71-1.39c0.37,0,0.72,0.02,1.05,0.07s0.66,0.12,0.98,0.21l-0.09,5.43
				c-0.4-0.09-0.83-0.17-1.29-0.23s-0.87-0.09-1.24-0.09c-1.2,0-2.2,0.29-3,0.86c-0.81,0.58-1.41,1.42-1.82,2.54
				c-0.41,1.12-0.61,2.5-0.61,4.14H1646.69z"/>
			<path class="st1" d="M1667.55,180.35c-1.92,0-3.52-0.33-4.79-1c-1.28-0.67-2.24-1.54-2.89-2.63c-0.64-1.09-0.97-2.27-0.97-3.54
				c0-1.41,0.37-2.59,1.12-3.55c0.74-0.96,1.8-1.68,3.16-2.16c1.37-0.48,2.97-0.72,4.83-0.72c1.21,0,2.36,0.09,3.44,0.28
				s2.16,0.43,3.23,0.74v3.17c-0.84-0.28-1.76-0.49-2.76-0.64c-1-0.15-1.93-0.23-2.81-0.23c-1.29,0-2.35,0.24-3.17,0.71
				c-0.83,0.48-1.24,1.28-1.24,2.42c0,0.83,0.34,1.54,1.01,2.14c0.67,0.6,1.75,0.9,3.22,0.9c1.12,0,2.07-0.25,2.85-0.74
				c0.78-0.49,1.38-1.1,1.78-1.84s0.61-1.47,0.61-2.21h1.29c0,1.61-0.3,3.09-0.9,4.45c-0.6,1.36-1.48,2.44-2.66,3.25
				C1670.74,179.94,1669.28,180.35,1667.55,180.35z M1674.87,179.71l-0.69-5.43v-8.97c0-1.56-0.32-2.72-0.95-3.47
				c-0.64-0.75-1.71-1.13-3.23-1.13c-0.87,0-1.63,0.13-2.28,0.39c-0.64,0.26-1.14,0.63-1.48,1.12c-0.34,0.48-0.52,1.07-0.52,1.76
				h-5.93c0-1.69,0.41-3.06,1.22-4.13c0.81-1.07,1.98-1.85,3.51-2.35c1.53-0.5,3.35-0.75,5.49-0.75c1.93,0,3.62,0.31,5.06,0.93
				s2.56,1.58,3.36,2.86c0.8,1.29,1.2,2.94,1.2,4.95v14.21H1674.87z"/>
			<path class="st1" d="M1695.89,180.35c-2.15,0-3.99-0.29-5.53-0.89c-1.54-0.59-2.73-1.44-3.55-2.55
				c-0.83-1.11-1.25-2.45-1.26-4.01h5.01c0.05,1.1,0.48,1.91,1.31,2.42s1.96,0.76,3.38,0.76c0.78,0,1.48-0.12,2.08-0.35
				c0.61-0.23,1.08-0.54,1.42-0.94c0.34-0.4,0.51-0.84,0.51-1.33c0-0.63-0.23-1.12-0.68-1.48s-1.18-0.69-2.17-1l-4.88-1.75
				c-1.75-0.63-3.09-1.46-4.03-2.48c-0.94-1.03-1.4-2.25-1.4-3.68c0-1.89,0.85-3.41,2.56-4.57c1.71-1.16,4-1.74,6.87-1.74
				c2.85,0,5.06,0.63,6.61,1.87c1.56,1.25,2.36,2.83,2.4,4.75h-5.11c-0.08-0.74-0.43-1.32-1.06-1.75s-1.58-0.64-2.85-0.64
				c-1.15,0-2.05,0.23-2.7,0.7s-0.98,1.02-0.98,1.64c0,1.06,0.91,1.86,2.71,2.39l5.29,1.98c1.72,0.58,3.05,1.33,4,2.25
				c0.95,0.92,1.43,2.08,1.43,3.5c0,1.18-0.4,2.3-1.18,3.35c-0.79,1.05-1.89,1.91-3.3,2.56
				C1699.38,180.02,1697.74,180.35,1695.89,180.35z"/>
		</g>
	</g>
</g>
</svg>
