<svg id="Capa_1" data-name="Capa 1" xmlns="http://www.w3.org/2000/svg" viewBox="0 0 100 125"><defs><style>.cls-1{fill:#fff;}</style></defs>
<path class="cls-1" d="M22.54,13.14A1.12,1.12,0,0,1,21.42,12V8.49a2.71,2.71,0,0,1,2.71-2.71H48.66a1.13,1.13,0,0,1,0,2.25H24.13a.47.47,0,0,0-.47.46V12a1.12,1.12,0,0,1-1.1,1.14Z"/>
<path class="cls-1" d="M77.46,13.84a1.12,1.12,0,0,1-1.12-1.12h0V8.49A.47.47,0,0,0,75.89,8H54.47a1.13,1.13,0,0,1,0-2.25h21.4a2.71,2.71,0,0,1,2.71,2.71v4.23a1.12,1.12,0,0,1-1.09,1.15Z"/>
<path class="cls-1" d="M82.74,20a1.12,1.12,0,0,1-1.12-1.12h0V14.21a.38.38,0,0,0-.38-.37H18.76a.38.38,0,0,0-.38.37v4.63a1.12,1.12,0,0,1-2.24,0V14.21a2.62,2.62,0,0,1,2.62-2.62H81.24a2.62,2.62,0,0,1,2.62,2.62h0v4.63A1.12,1.12,0,0,1,82.78,20Z"/>
<path class="cls-1" d="M13.12,58.05A1.13,1.13,0,0,1,12,56.92V20.42a2.72,2.72,0,0,1,2.71-2.7H85.29A2.72,2.72,0,0,1,88,20.42v9.49a1.13,1.13,0,0,1-2.25,0V20.42a.47.47,0,0,0-.46-.46H14.71a.47.47,0,0,0-.46.46v36.5A1.15,1.15,0,0,1,13.12,58.05Z"/>
<path class="cls-1" d="M86.88,58.05a1.15,1.15,0,0,1-1.13-1.13V42.61a1.13,1.13,0,0,1,2.25,0V56.92A1.13,1.13,0,0,1,86.88,58.05Z"/>
<path class="cls-1" d="M92.28,94.22H7.72A2.72,2.72,0,0,1,5,91.5H5V77.37a1.13,1.13,0,1,1,2.25-.21.74.74,0,0,1,0,.21V91.5a.47.47,0,0,0,.47.47H92.28a.47.47,0,0,0,.47-.47h0v-33a.47.47,0,0,0-.47-.47H64a.85.85,0,0,0-.85.85v4.29a2.62,2.62,0,0,1-2.6,2.6h-21a2.62,2.62,0,0,1-2.6-2.6V58.9a.85.85,0,0,0-.85-.85H7.72a.47.47,0,0,0-.47.47h0v9.56A1.13,1.13,0,0,1,5,68.29a.74.74,0,0,1,0-.21V58.52A2.72,2.72,0,0,1,7.72,55.8H36a3.1,3.1,0,0,1,3.1,3.1v4.29a.35.35,0,0,0,.35.35h21a.35.35,0,0,0,.35-.35V58.9a3.1,3.1,0,0,1,3.1-3.1H92.28A2.72,2.72,0,0,1,95,58.52h0v33A2.73,2.73,0,0,1,92.28,94.22Z"/>
<path class="cls-1" d="M60.49,82.29h-21a2.64,2.64,0,0,1-2.62-2.62v-4a2.64,2.64,0,0,1,2.62-2.62h21a2.64,2.64,0,0,1,2.62,2.62v4A2.64,2.64,0,0,1,60.49,82.29Zm-21-7a.38.38,0,0,0-.37.37h0v4a.36.36,0,0,0,.35.37h21a.36.36,0,0,0,.37-.35v-4a.38.38,0,0,0-.37-.37h-21Z"/>
<path class="cls-1" d="M77.46,37.28h-34a1.13,1.13,0,0,1,0-2.25h34a1.13,1.13,0,0,1,0,2.25Z"/>
<path class="cls-1" d="M71.79,50.35H43.42a1.13,1.13,0,0,1,0-2.25H71.79a1.13,1.13,0,0,1,0,2.25Z"/>
<path class="cls-1" d="M54.47,43.81h-11a1.12,1.12,0,1,1,0-2.24h11a1.12,1.12,0,1,1,0,2.24Z"/>
<path class="cls-1" d="M54.47,57.06h-11a1.13,1.13,0,0,1,0-2.25h11a1.13,1.13,0,0,1,.21,2.25Z"/>
<path class="cls-1" d="M71.79,43.81H61.73a1.12,1.12,0,1,1,0-2.24H71.79a1.12,1.12,0,0,1,0,2.24Z"/>
<path class="cls-1" d="M60.85,28.53H43.42a1.13,1.13,0,0,1,0-2.25H60.85a1.13,1.13,0,0,1,0,2.25Z"/>
<path class="cls-1" d="M33,45.2H24a2.62,2.62,0,0,1-2.62-2.62V28.9A2.62,2.62,0,0,1,24,26.28h9a2.63,2.63,0,0,1,2.6,2.62V42.58A2.62,2.62,0,0,1,33,45.2ZM24,28.53a.38.38,0,0,0-.38.37V42.58A.38.38,0,0,0,24,43h9a.38.38,0,0,0,.37-.38V28.9a.39.39,0,0,0-.37-.37Z"/>
<path class="cls-1" d="M6.12,74.23A1.13,1.13,0,0,1,5,73.1V71.89a1.13,1.13,0,0,1,2.25,0V73.1A1.15,1.15,0,0,1,6.12,74.23Z"/>
<path class="cls-1" d="M86.88,39.27a1.13,1.13,0,0,1-1.13-1.12V34.4a1.13,1.13,0,0,1,2.25,0v3.75a1.12,1.12,0,0,1-1.12,1.12Z"/>
</svg>