<svg id="Capa_1" data-name="Capa 1" xmlns="http://www.w3.org/2000/svg" viewBox="0 0 64 80"><defs><style>.cls-1{fill:#fff;}</style></defs><path class="cls-1" d="M34,39a1,1,0,0,0-1-1H30V36H28v2H26V36H24v2H21a1,1,0,0,0-1,1h0v3a1,1,0,0,0,1,1h1.33l.11,1H11.66a5.64,5.64,0,0,0-4.53,2.29c-2.19.64-3.89,2.43-5.06,5.34l1.86.74A8.41,8.41,0,0,1,6,49.15a4.36,4.36,0,0,0,0,.51V61a1,1,0,0,0,1,1h7a1,1,0,0,0,1-1h0V54h6v7a1,1,0,0,0,1,1h8a1,1,0,0,0,1-1h0V47.32a4.46,4.46,0,0,0,.32-1.19L31.67,43H33a1,1,0,0,0,1-1h0ZM13,60H12V54h1Zm14,0V53H25v7H23V53a1,1,0,0,0-1-1H11a1,1,0,0,0-1,1h0v7H8V49.66A3.66,3.66,0,0,1,11.66,46h11l0,.13A4.32,4.32,0,0,0,29,49.5V60Zm5-19H30.78a1,1,0,0,0-1,.89l-.44,4a2.35,2.35,0,0,1-4.68,0l-.44-4a1,1,0,0,0-1-.89H22V40H32Z"/><path class="cls-1" d="M62,53V51H58V47H56v4H52V47H50v4H46V47H44v4H40V47H38v4H34v2h4v3H34v2h4v4h2V58h4v4h2V58h4v4h2V58h4v4h2V58h4V56H58V53ZM40,56V53h4v3Zm6,0V53h4v3Zm10,0H52V53h4Z"/><path class="cls-1" d="M33.08,32.31a4.59,4.59,0,0,0,3.23,3.09l1.69.39v4a17.64,17.64,0,0,0-2.47,1.4l1.12,1.66A16.56,16.56,0,0,1,46,40a16.15,16.15,0,0,1,14.13,8l1.74-1A17.32,17.32,0,0,0,56,40.87V35.79l1.69-.39a4.59,4.59,0,0,0,3.23-3.09l1-3a1,1,0,0,0-.63-1.27.93.93,0,0,0-.55,0l-2.46.57a4.59,4.59,0,0,0-3.23,3.09l-.08.23-.08-.23a4.59,4.59,0,0,0-3.23-3.09L49.23,28a1,1,0,0,0-1.2.74.94.94,0,0,0,0,.55l1,3a4.59,4.59,0,0,0,3.23,3.09l1.69.39v4A18.9,18.9,0,0,0,40,39V35.79l1.69-.39a4.59,4.59,0,0,0,3.23-3.09l1-3a1,1,0,0,0-.63-1.27.93.93,0,0,0-.55,0l-2.46.57a4.59,4.59,0,0,0-3.23,3.09l-.08.23-.08-.23a4.59,4.59,0,0,0-3.23-3.09L33.23,28a1,1,0,0,0-1.2.74.94.94,0,0,0,0,.55Zm23.89,0a2.62,2.62,0,0,1,1.79-1.79l.71-.17L59,31.66a2.62,2.62,0,0,1-1.79,1.79l-.71.17Zm-4.21,1.11A2.62,2.62,0,0,1,51,31.66l-.44-1.28.71.17A2.62,2.62,0,0,1,53,32.34l.44,1.28ZM41,32.34a2.62,2.62,0,0,1,1.79-1.79l.71-.17L43,31.66a2.62,2.62,0,0,1-1.79,1.79l-.71.17Zm-5.73-1.79A2.62,2.62,0,0,1,37,32.34l.44,1.28-.71-.17A2.62,2.62,0,0,1,35,31.66l-.44-1.28Z"/><path class="cls-1" d="M9.58,15.49a1,1,0,0,0-1.42,0L2.3,21.36a1,1,0,0,0,0,1.41l2.93,2.94a1,1,0,0,0,1.41,0h0L8.8,23.55,7,35.86A1,1,0,0,0,7.86,37H20a1,1,0,0,0,1-1,.61.61,0,0,0,0-.14L19.2,23.54l2.16,2.16a1,1,0,0,0,1.41,0h0l2.94-2.93a1,1,0,0,0,0-1.42l-5.87-5.86a1,1,0,0,0-1.41,0l-.76.76-1-1a3,3,0,0,0-.05-2.45l1.06-1.05.75.76a1,1,0,0,0,1.42,0L25.7,6.64a1,1,0,0,0,0-1.41L22.77,2.29a1,1,0,0,0-1.41,0h0L15.49,8.16a1,1,0,0,0,0,1.41l.76.76-1,1a3,3,0,0,0-2.58-.12l-.9-.91.75-.75a1,1,0,0,0,0-1.42L6.64,2.3a1,1,0,0,0-1.41,0h0L2.29,5.23a1,1,0,0,0,0,1.42l5.87,5.86a1,1,0,0,0,1.41,0l.76-.76.83.82a2.93,2.93,0,0,0-.05,2.91l-.78.77ZM22.06,4.41l1.52,1.52-4.45,4.46L17.61,8.87ZM4.41,5.94,5.93,4.42l4.45,4.45L8.86,10.39ZM5.94,23.59,4.42,22.07l4.45-4.46,1.52,1.52ZM13,35V33h2v2ZM23.59,22.06l-1.52,1.52-4.45-4.45,1.52-1.52Zm-8.69-8A1.08,1.08,0,1,1,13.82,13h0A1.09,1.09,0,0,1,14.9,14.07Zm-2.35,2.79a3,3,0,0,0,2.77-.12l.93.93-.75.75a1,1,0,0,0,0,1.41l1.33,1.34,2,13.83H17V32a1,1,0,0,0-1-1H12a1,1,0,0,0-1,1h0v3H9.16l2-13.82,1.34-1.34a1,1,0,0,0,0-1.41l-.76-.76Z"/><path class="cls-1" d="M47,15a4,4,0,1,0-4-4A4,4,0,0,0,47,15Zm0-6a2,2,0,1,1-2,2A2,2,0,0,1,47,9Z"/><rect class="cls-1" x="46" y="2" width="2" height="3"/><rect class="cls-1" x="46" y="17" width="2" height="3"/><rect class="cls-1" x="53" y="10" width="3" height="2"/><rect class="cls-1" x="38" y="10" width="3" height="2"/><rect class="cls-1" x="50.8" y="4.7" width="3" height="2" transform="translate(11.29 38.65) rotate(-45)"/><rect class="cls-1" x="40.2" y="15.3" width="3" height="2" transform="translate(0.68 34.26) rotate(-45)"/><rect class="cls-1" x="51.3" y="14.8" width="2" height="3" transform="translate(3.79 41.75) rotate(-44.99)"/><rect class="cls-1" x="40.7" y="4.2" width="2" height="3" transform="translate(8.18 31.14) rotate(-44.99)"/></svg>