<?xml version="1.0" encoding="utf-8"?>
<!-- Generator: Adobe Illustrator 24.0.2, SVG Export Plug-In . SVG Version: 6.00 Build 0)  -->
<svg version="1.1" id="Capa_1" xmlns="http://www.w3.org/2000/svg" xmlns:xlink="http://www.w3.org/1999/xlink" x="0px" y="0px"
	 viewBox="0 0 680 480" style="enable-background:new 0 0 680 480;" xml:space="preserve">
<style type="text/css">
	.st0{fill:#252525;}
	.st1{fill:none;stroke:#FF5757;stroke-miterlimit:10;}
	.st2{opacity:0.7;}
	.st3{fill:#FF5757;}
	.st4{fill:#FFFFFF;}
	.st5{opacity:0.6;}
	.st6{opacity:0.5;}
	.st7{opacity:0.4;}
	.st8{opacity:0.8;}
	.st9{opacity:0.9;}
	.st10{fill:none;stroke:#FFFFFF;stroke-width:3;stroke-miterlimit:10;}
</style>
<rect x="-1" y="1" class="st0" width="682" height="480"/>
<g>
	<line class="st1" x1="498.2" y1="141.2" x2="499.7" y2="141.1"/>
	<line class="st1" x1="576.5" y1="133" x2="578" y2="132.9"/>
	<line class="st1" x1="571.9" y1="133.5" x2="573.4" y2="133.3"/>
	<line class="st1" x1="567.3" y1="134" x2="568.8" y2="133.8"/>
	<line class="st1" x1="562.7" y1="134.5" x2="564.2" y2="134.3"/>
	<line class="st1" x1="558.1" y1="135" x2="559.6" y2="134.8"/>
	<line class="st1" x1="553.5" y1="135.4" x2="555" y2="135.3"/>
	<line class="st1" x1="548.9" y1="135.9" x2="550.4" y2="135.8"/>
	<line class="st1" x1="544.3" y1="136.4" x2="545.8" y2="136.2"/>
	<line class="st1" x1="539.7" y1="136.9" x2="541.2" y2="136.7"/>
	<line class="st1" x1="535.1" y1="137.4" x2="536.6" y2="137.2"/>
	<line class="st1" x1="530.5" y1="137.9" x2="532" y2="137.7"/>
	<line class="st1" x1="525.9" y1="138.3" x2="527.4" y2="138.2"/>
	<line class="st1" x1="521.3" y1="138.8" x2="522.8" y2="138.7"/>
	<line class="st1" x1="516.6" y1="139.3" x2="518.1" y2="139.2"/>
	<line class="st1" x1="512" y1="139.8" x2="513.5" y2="139.6"/>
	<line class="st1" x1="507.4" y1="140.3" x2="508.9" y2="140.1"/>
	<line class="st1" x1="502.8" y1="140.8" x2="504.3" y2="140.6"/>
	<line class="st1" x1="581.1" y1="132.5" x2="582.6" y2="132.4"/>
</g>
<g>
	<line class="st1" x1="417" y1="146" x2="418.6" y2="146"/>
	<line class="st1" x1="495.7" y1="141.9" x2="497.2" y2="141.8"/>
	<line class="st1" x1="491" y1="142.2" x2="492.6" y2="142.1"/>
	<line class="st1" x1="486.4" y1="142.4" x2="487.9" y2="142.3"/>
	<line class="st1" x1="481.8" y1="142.6" x2="483.3" y2="142.6"/>
	<line class="st1" x1="477.2" y1="142.9" x2="478.7" y2="142.8"/>
	<line class="st1" x1="472.5" y1="143.1" x2="474.1" y2="143"/>
	<line class="st1" x1="467.9" y1="143.4" x2="469.4" y2="143.3"/>
	<line class="st1" x1="463.3" y1="143.6" x2="464.8" y2="143.5"/>
	<line class="st1" x1="458.7" y1="143.9" x2="460.2" y2="143.8"/>
	<line class="st1" x1="454" y1="144.1" x2="455.6" y2="144"/>
	<line class="st1" x1="449.4" y1="144.3" x2="450.9" y2="144.3"/>
	<line class="st1" x1="444.8" y1="144.6" x2="446.3" y2="144.5"/>
	<line class="st1" x1="440.2" y1="144.8" x2="441.7" y2="144.7"/>
	<line class="st1" x1="435.5" y1="145.1" x2="437.1" y2="145"/>
	<line class="st1" x1="430.9" y1="145.3" x2="432.4" y2="145.2"/>
	<line class="st1" x1="426.3" y1="145.5" x2="427.8" y2="145.5"/>
	<line class="st1" x1="421.7" y1="145.8" x2="423.2" y2="145.7"/>
	<line class="st1" x1="500.3" y1="141.7" x2="501.8" y2="141.6"/>
</g>
<g>
	<line class="st1" x1="334" y1="150" x2="335.6" y2="150"/>
	<line class="st1" x1="412.7" y1="145.9" x2="414.2" y2="145.8"/>
	<line class="st1" x1="408" y1="146.2" x2="409.6" y2="146.1"/>
	<line class="st1" x1="403.4" y1="146.4" x2="404.9" y2="146.3"/>
	<line class="st1" x1="398.8" y1="146.6" x2="400.3" y2="146.6"/>
	<line class="st1" x1="394.2" y1="146.9" x2="395.7" y2="146.8"/>
	<line class="st1" x1="389.5" y1="147.1" x2="391.1" y2="147"/>
	<line class="st1" x1="384.9" y1="147.4" x2="386.4" y2="147.3"/>
	<line class="st1" x1="380.3" y1="147.6" x2="381.8" y2="147.5"/>
	<line class="st1" x1="375.7" y1="147.9" x2="377.2" y2="147.8"/>
	<line class="st1" x1="371" y1="148.1" x2="372.6" y2="148"/>
	<line class="st1" x1="366.4" y1="148.3" x2="367.9" y2="148.3"/>
	<line class="st1" x1="361.8" y1="148.6" x2="363.3" y2="148.5"/>
	<line class="st1" x1="357.2" y1="148.8" x2="358.7" y2="148.7"/>
	<line class="st1" x1="352.5" y1="149.1" x2="354.1" y2="149"/>
	<line class="st1" x1="347.9" y1="149.3" x2="349.4" y2="149.2"/>
	<line class="st1" x1="343.3" y1="149.5" x2="344.8" y2="149.5"/>
	<line class="st1" x1="338.7" y1="149.8" x2="340.2" y2="149.7"/>
	<line class="st1" x1="417.3" y1="145.7" x2="418.8" y2="145.6"/>
</g>
<g>
	<line class="st1" x1="248" y1="154" x2="249.6" y2="154"/>
	<line class="st1" x1="326.7" y1="149.9" x2="328.2" y2="149.8"/>
	<line class="st1" x1="322" y1="150.2" x2="323.6" y2="150.1"/>
	<line class="st1" x1="317.4" y1="150.4" x2="318.9" y2="150.3"/>
	<line class="st1" x1="312.8" y1="150.6" x2="314.3" y2="150.6"/>
	<line class="st1" x1="308.2" y1="150.9" x2="309.7" y2="150.8"/>
	<line class="st1" x1="303.5" y1="151.1" x2="305.1" y2="151"/>
	<line class="st1" x1="298.9" y1="151.4" x2="300.4" y2="151.3"/>
	<line class="st1" x1="294.3" y1="151.6" x2="295.8" y2="151.5"/>
	<line class="st1" x1="289.7" y1="151.9" x2="291.2" y2="151.8"/>
	<line class="st1" x1="285" y1="152.1" x2="286.6" y2="152"/>
	<line class="st1" x1="280.4" y1="152.3" x2="281.9" y2="152.3"/>
	<line class="st1" x1="275.8" y1="152.6" x2="277.3" y2="152.5"/>
	<line class="st1" x1="271.2" y1="152.8" x2="272.7" y2="152.7"/>
	<line class="st1" x1="266.5" y1="153.1" x2="268.1" y2="153"/>
	<line class="st1" x1="261.9" y1="153.3" x2="263.4" y2="153.2"/>
	<line class="st1" x1="257.3" y1="153.5" x2="258.8" y2="153.5"/>
	<line class="st1" x1="252.7" y1="153.8" x2="254.2" y2="153.7"/>
	<line class="st1" x1="331.3" y1="149.7" x2="332.8" y2="149.6"/>
</g>
<g>
	<line class="st1" x1="166" y1="153.8" x2="167.5" y2="153.8"/>
	<line class="st1" x1="244.7" y1="153.8" x2="246.2" y2="153.8"/>
	<line class="st1" x1="240.1" y1="153.8" x2="241.6" y2="153.8"/>
	<line class="st1" x1="235.5" y1="153.8" x2="237" y2="153.8"/>
	<line class="st1" x1="230.8" y1="153.8" x2="232.3" y2="153.8"/>
	<line class="st1" x1="226.2" y1="153.8" x2="227.7" y2="153.8"/>
	<line class="st1" x1="221.6" y1="153.8" x2="223.1" y2="153.8"/>
	<line class="st1" x1="216.9" y1="153.8" x2="218.4" y2="153.8"/>
	<line class="st1" x1="212.3" y1="153.8" x2="213.8" y2="153.8"/>
	<line class="st1" x1="207.7" y1="153.8" x2="209.2" y2="153.8"/>
	<line class="st1" x1="203" y1="153.8" x2="204.6" y2="153.8"/>
	<line class="st1" x1="198.4" y1="153.8" x2="199.9" y2="153.8"/>
	<line class="st1" x1="193.8" y1="153.8" x2="195.3" y2="153.8"/>
	<line class="st1" x1="189.1" y1="153.8" x2="190.7" y2="153.8"/>
	<line class="st1" x1="184.5" y1="153.8" x2="186" y2="153.8"/>
	<line class="st1" x1="179.9" y1="153.8" x2="181.4" y2="153.8"/>
	<line class="st1" x1="175.3" y1="153.8" x2="176.8" y2="153.8"/>
	<line class="st1" x1="170.6" y1="153.8" x2="172.1" y2="153.8"/>
	<line class="st1" x1="249.4" y1="153.8" x2="250.9" y2="153.8"/>
</g>
<g>
	<line class="st1" x1="85" y1="159" x2="86.6" y2="159"/>
	<line class="st1" x1="163.7" y1="154.9" x2="165.2" y2="154.8"/>
	<line class="st1" x1="159" y1="155.2" x2="160.6" y2="155.1"/>
	<line class="st1" x1="154.4" y1="155.4" x2="155.9" y2="155.3"/>
	<line class="st1" x1="149.8" y1="155.6" x2="151.3" y2="155.6"/>
	<line class="st1" x1="145.2" y1="155.9" x2="146.7" y2="155.8"/>
	<line class="st1" x1="140.5" y1="156.1" x2="142.1" y2="156"/>
	<line class="st1" x1="135.9" y1="156.4" x2="137.4" y2="156.3"/>
	<line class="st1" x1="131.3" y1="156.6" x2="132.8" y2="156.5"/>
	<line class="st1" x1="126.7" y1="156.9" x2="128.2" y2="156.8"/>
	<line class="st1" x1="122" y1="157.1" x2="123.6" y2="157"/>
	<line class="st1" x1="117.4" y1="157.3" x2="118.9" y2="157.3"/>
	<line class="st1" x1="112.8" y1="157.6" x2="114.3" y2="157.5"/>
	<line class="st1" x1="108.2" y1="157.8" x2="109.7" y2="157.7"/>
	<line class="st1" x1="103.5" y1="158.1" x2="105.1" y2="158"/>
	<line class="st1" x1="98.9" y1="158.3" x2="100.4" y2="158.2"/>
	<line class="st1" x1="94.3" y1="158.5" x2="95.8" y2="158.5"/>
	<line class="st1" x1="89.7" y1="158.8" x2="91.2" y2="158.7"/>
	<line class="st1" x1="168.3" y1="154.7" x2="169.8" y2="154.6"/>
</g>
<g class="st2">
	<rect x="320" y="202.1" class="st3" width="30" height="204"/>
	<polygon class="st3" points="335,187.1 320,202.1 350,202.1 	"/>
</g>
<g>
	<g>
		<path class="st4" d="M326.3,178.5c-0.6,0-1.1-0.1-1.6-0.3c-0.5-0.2-0.9-0.5-1.2-0.9s-0.4-0.9-0.4-1.5h1.2c0,0.6,0.2,1,0.6,1.3
			c0.4,0.3,0.9,0.4,1.5,0.4c0.7,0,1.2-0.2,1.6-0.6c0.4-0.4,0.6-0.9,0.6-1.5c0-1.2-0.8-1.8-2.3-1.8h-2.5l0.4-4.6h5.2v1.1h-4.3
			l0.2-0.4l-0.3,3.3l-0.1-0.1c0.2-0.1,0.5-0.1,0.8-0.1c0.3,0,0.6,0,0.8,0c1,0,1.8,0.2,2.4,0.7c0.6,0.5,0.9,1.1,0.9,2
			c0,0.6-0.1,1.2-0.4,1.6c-0.3,0.5-0.7,0.9-1.2,1.2C327.6,178.3,327,178.5,326.3,178.5z"/>
		<path class="st4" d="M333,168.8h0.9v9.5h-1.2v-8.1c-0.2,0.2-0.5,0.3-0.8,0.4c-0.3,0.1-0.5,0.1-0.8,0.1v-1.1c0.3,0,0.6-0.1,0.9-0.2
			S332.7,169.1,333,168.8z"/>
		<path class="st4" d="M338.3,173c-0.3,0-0.6-0.1-0.9-0.2c-0.3-0.2-0.5-0.4-0.7-0.7s-0.3-0.7-0.3-1.2s0.1-0.9,0.3-1.2
			s0.4-0.6,0.7-0.7c0.3-0.2,0.6-0.2,0.9-0.2c0.3,0,0.7,0.1,1,0.2s0.5,0.4,0.7,0.7c0.2,0.3,0.3,0.7,0.3,1.2s-0.1,0.9-0.3,1.2
			c-0.2,0.3-0.4,0.6-0.7,0.7S338.6,173,338.3,173z M337.1,178.3l6.3-9.4h1.2l-6.3,9.4H337.1z M338.3,172.2c0.3,0,0.5-0.1,0.7-0.3
			c0.2-0.2,0.3-0.6,0.3-1s-0.1-0.8-0.3-1c-0.2-0.2-0.4-0.3-0.7-0.3c-0.3,0-0.5,0.1-0.7,0.3c-0.2,0.2-0.3,0.6-0.3,1s0.1,0.8,0.3,1
			C337.7,172.1,338,172.2,338.3,172.2z M343.5,178.4c-0.3,0-0.6-0.1-0.9-0.2c-0.3-0.2-0.5-0.4-0.7-0.7c-0.2-0.3-0.3-0.7-0.3-1.2
			c0-0.5,0.1-0.9,0.3-1.2c0.2-0.3,0.4-0.6,0.7-0.7c0.3-0.2,0.6-0.2,0.9-0.2c0.3,0,0.7,0.1,1,0.2s0.5,0.4,0.7,0.7
			c0.2,0.3,0.3,0.7,0.3,1.2c0,0.5-0.1,0.9-0.3,1.2c-0.2,0.3-0.4,0.6-0.7,0.7S343.9,178.4,343.5,178.4z M343.5,177.6
			c0.3,0,0.5-0.1,0.7-0.3s0.3-0.6,0.3-1c0-0.5-0.1-0.8-0.3-1c-0.2-0.2-0.4-0.3-0.7-0.3c-0.3,0-0.5,0.1-0.7,0.3
			c-0.2,0.2-0.3,0.6-0.3,1c0,0.5,0.1,0.8,0.3,1C343,177.5,343.2,177.6,343.5,177.6z"/>
	</g>
</g>
<circle class="st4" cx="336" cy="150.4" r="4"/>
<g class="st5">
	<rect x="233" y="206.1" class="st3" width="30" height="200"/>
	<polygon class="st3" points="248,191.1 233,206.1 263,206.1 	"/>
</g>
<g>
	<g>
		<path class="st4" d="M238.7,181c-0.6,0-1.1-0.1-1.6-0.3c-0.5-0.2-0.9-0.5-1.2-0.9s-0.4-0.9-0.5-1.5h1.2c0,0.6,0.2,1,0.6,1.3
			c0.4,0.3,0.9,0.4,1.5,0.4c0.7,0,1.2-0.2,1.6-0.6c0.4-0.4,0.6-0.9,0.6-1.5c0-1.2-0.8-1.8-2.3-1.8H236l0.4-4.6h5.2v1.1h-4.3l0.2-0.4
			l-0.3,3.3l-0.1-0.1c0.2-0.1,0.5-0.1,0.8-0.1s0.6,0,0.8,0c1,0,1.8,0.2,2.4,0.7c0.6,0.5,0.9,1.1,0.9,2c0,0.6-0.1,1.2-0.4,1.6
			c-0.3,0.5-0.7,0.9-1.2,1.2C240,180.8,239.4,181,238.7,181z"/>
		<path class="st4" d="M247.4,181c-0.7,0-1.4-0.2-1.9-0.5c-0.6-0.4-1-0.9-1.3-1.6c-0.3-0.7-0.5-1.6-0.5-2.7s0.2-2,0.5-2.7
			s0.7-1.3,1.3-1.6s1.2-0.5,1.9-0.5c0.7,0,1.4,0.2,1.9,0.5c0.6,0.4,1,0.9,1.3,1.6c0.3,0.7,0.5,1.6,0.5,2.7s-0.2,2-0.5,2.7
			c-0.3,0.7-0.7,1.3-1.3,1.6C248.8,180.8,248.1,181,247.4,181z M247.4,179.9c0.8,0,1.4-0.3,1.8-1c0.4-0.7,0.6-1.6,0.6-2.8
			s-0.2-2.2-0.6-2.8c-0.4-0.7-1-1-1.8-1c-0.8,0-1.4,0.3-1.8,1c-0.4,0.7-0.6,1.6-0.6,2.8s0.2,2.2,0.6,2.8
			C246,179.6,246.6,179.9,247.4,179.9z"/>
		<path class="st4" d="M254.7,175.5c-0.3,0-0.6-0.1-0.9-0.2c-0.3-0.2-0.5-0.4-0.7-0.7c-0.2-0.3-0.3-0.7-0.3-1.2s0.1-0.9,0.3-1.2
			c0.2-0.3,0.4-0.6,0.7-0.7c0.3-0.2,0.6-0.2,0.9-0.2c0.3,0,0.7,0.1,1,0.2s0.5,0.4,0.7,0.7s0.3,0.7,0.3,1.2s-0.1,0.9-0.3,1.2
			s-0.4,0.6-0.7,0.7S255,175.5,254.7,175.5z M253.5,180.8l6.3-9.4h1.2l-6.3,9.4H253.5z M254.7,174.7c0.3,0,0.5-0.1,0.7-0.3
			c0.2-0.2,0.3-0.6,0.3-1s-0.1-0.8-0.3-1s-0.4-0.3-0.7-0.3c-0.3,0-0.5,0.1-0.7,0.3s-0.3,0.6-0.3,1s0.1,0.8,0.3,1
			C254.1,174.6,254.4,174.7,254.7,174.7z M259.9,180.9c-0.3,0-0.6-0.1-0.9-0.2c-0.3-0.2-0.5-0.4-0.7-0.7c-0.2-0.3-0.3-0.7-0.3-1.2
			c0-0.5,0.1-0.9,0.3-1.2c0.2-0.3,0.4-0.6,0.7-0.7c0.3-0.2,0.6-0.2,0.9-0.2c0.3,0,0.7,0.1,1,0.2s0.5,0.4,0.7,0.7
			c0.2,0.3,0.3,0.7,0.3,1.2c0,0.5-0.1,0.9-0.3,1.2c-0.2,0.3-0.4,0.6-0.7,0.7S260.3,180.9,259.9,180.9z M259.9,180.1
			c0.3,0,0.5-0.1,0.7-0.3s0.3-0.6,0.3-1c0-0.5-0.1-0.8-0.3-1c-0.2-0.2-0.4-0.3-0.7-0.3c-0.3,0-0.5,0.1-0.7,0.3
			c-0.2,0.2-0.3,0.6-0.3,1c0,0.5,0.1,0.8,0.3,1S259.6,180.1,259.9,180.1z"/>
	</g>
</g>
<circle class="st4" cx="248.4" cy="152.9" r="4"/>
<g class="st6">
	<rect x="155" y="206.1" class="st3" width="30" height="200"/>
	<polygon class="st3" points="170,191.1 155,206.1 185,206.1 	"/>
</g>
<g>
	<g>
		<path class="st4" d="M159.7,182c-0.6,0-1.1-0.1-1.6-0.3c-0.5-0.2-0.9-0.5-1.2-0.9s-0.4-0.9-0.5-1.5h1.2c0,0.6,0.2,1,0.6,1.3
			c0.4,0.3,0.9,0.4,1.5,0.4c0.7,0,1.2-0.2,1.6-0.6c0.4-0.4,0.6-0.9,0.6-1.5c0-1.2-0.8-1.8-2.3-1.8H157l0.4-4.6h5.2v1.1h-4.3l0.2-0.4
			l-0.3,3.3l-0.1-0.1c0.2-0.1,0.5-0.1,0.8-0.1s0.6,0,0.8,0c1,0,1.8,0.2,2.4,0.7c0.6,0.5,0.9,1.1,0.9,2c0,0.6-0.1,1.2-0.4,1.6
			c-0.3,0.5-0.7,0.9-1.2,1.2C161,181.8,160.4,182,159.7,182z"/>
		<path class="st4" d="M168.4,182c-0.7,0-1.4-0.2-1.9-0.5c-0.6-0.4-1-0.9-1.3-1.6c-0.3-0.7-0.5-1.6-0.5-2.7s0.2-2,0.5-2.7
			s0.7-1.3,1.3-1.6s1.2-0.5,1.9-0.5c0.7,0,1.4,0.2,1.9,0.5c0.6,0.4,1,0.9,1.3,1.6c0.3,0.7,0.5,1.6,0.5,2.7s-0.2,2-0.5,2.7
			c-0.3,0.7-0.7,1.3-1.3,1.6C169.8,181.8,169.1,182,168.4,182z M168.4,180.9c0.8,0,1.4-0.3,1.8-1c0.4-0.7,0.6-1.6,0.6-2.8
			s-0.2-2.2-0.6-2.8c-0.4-0.7-1-1-1.8-1c-0.8,0-1.4,0.3-1.8,1c-0.4,0.7-0.6,1.6-0.6,2.8s0.2,2.2,0.6,2.8
			C167,180.6,167.6,180.9,168.4,180.9z"/>
		<path class="st4" d="M175.7,176.5c-0.3,0-0.6-0.1-0.9-0.2c-0.3-0.2-0.5-0.4-0.7-0.7c-0.2-0.3-0.3-0.7-0.3-1.2s0.1-0.9,0.3-1.2
			c0.2-0.3,0.4-0.6,0.7-0.7c0.3-0.2,0.6-0.2,0.9-0.2c0.3,0,0.7,0.1,1,0.2s0.5,0.4,0.7,0.7s0.3,0.7,0.3,1.2s-0.1,0.9-0.3,1.2
			s-0.4,0.6-0.7,0.7S176,176.5,175.7,176.5z M174.5,181.8l6.3-9.4h1.2l-6.3,9.4H174.5z M175.7,175.7c0.3,0,0.5-0.1,0.7-0.3
			c0.2-0.2,0.3-0.6,0.3-1s-0.1-0.8-0.3-1s-0.4-0.3-0.7-0.3c-0.3,0-0.5,0.1-0.7,0.3s-0.3,0.6-0.3,1s0.1,0.8,0.3,1
			C175.1,175.6,175.4,175.7,175.7,175.7z M180.9,181.9c-0.3,0-0.6-0.1-0.9-0.2c-0.3-0.2-0.5-0.4-0.7-0.7c-0.2-0.3-0.3-0.7-0.3-1.2
			c0-0.5,0.1-0.9,0.3-1.2c0.2-0.3,0.4-0.6,0.7-0.7c0.3-0.2,0.6-0.2,0.9-0.2c0.3,0,0.7,0.1,1,0.2s0.5,0.4,0.7,0.7
			c0.2,0.3,0.3,0.7,0.3,1.2c0,0.5-0.1,0.9-0.3,1.2c-0.2,0.3-0.4,0.6-0.7,0.7S181.3,181.9,180.9,181.9z M180.9,181.1
			c0.3,0,0.5-0.1,0.7-0.3s0.3-0.6,0.3-1c0-0.5-0.1-0.8-0.3-1c-0.2-0.2-0.4-0.3-0.7-0.3c-0.3,0-0.5,0.1-0.7,0.3
			c-0.2,0.2-0.3,0.6-0.3,1c0,0.5,0.1,0.8,0.3,1S180.6,181.1,180.9,181.1z"/>
	</g>
</g>
<circle class="st4" cx="169.4" cy="153.9" r="4"/>
<g class="st7">
	<rect x="71" y="209.5" class="st3" width="30" height="196"/>
	<polygon class="st3" points="86,194.5 71,209.5 101,209.5 	"/>
</g>
<g>
	<g>
		<path class="st4" d="M77.8,176.7h1.1v6.3h1.6v1h-1.6v2.3h-1.2V184h-4.9v-0.9L77.8,176.7z M77.8,178.6l-3.5,4.5h3.5V178.6z"/>
		<path class="st4" d="M85.1,186.5c-0.6,0-1.2-0.1-1.7-0.4c-0.5-0.3-0.9-0.6-1.1-1.1c-0.3-0.4-0.4-1-0.4-1.5h1.2
			c0,0.6,0.2,1,0.5,1.4c0.3,0.3,0.8,0.5,1.4,0.5c0.6,0,1.1-0.2,1.4-0.5c0.4-0.3,0.6-0.8,0.8-1.4c0.2-0.6,0.3-1.4,0.3-2.2
			c0-0.2,0-0.4,0-0.5c0-0.2,0-0.4-0.1-0.6c-0.1,0.5-0.2,1-0.5,1.3s-0.6,0.6-0.9,0.8c-0.4,0.2-0.8,0.3-1.3,0.3
			c-0.6,0-1.1-0.1-1.5-0.4c-0.4-0.3-0.8-0.6-1.1-1c-0.3-0.4-0.4-0.9-0.4-1.5c0-0.6,0.1-1.1,0.4-1.5c0.3-0.4,0.6-0.8,1.1-1
			c0.5-0.2,1-0.4,1.7-0.4c0.5,0,1,0.1,1.5,0.3c0.5,0.2,0.9,0.5,1.2,0.9s0.6,0.9,0.8,1.5c0.2,0.6,0.3,1.2,0.3,1.9
			c0,1-0.1,1.9-0.4,2.7c-0.3,0.8-0.7,1.3-1.2,1.8C86.6,186.3,86,186.5,85.1,186.5z M85,181.5c0.4,0,0.7-0.1,1-0.2
			c0.3-0.2,0.5-0.4,0.7-0.7c0.2-0.3,0.3-0.6,0.3-0.9c0-0.6-0.2-1-0.6-1.4c-0.4-0.3-0.9-0.5-1.4-0.5c-0.6,0-1,0.2-1.4,0.5
			s-0.6,0.8-0.6,1.4c0,0.6,0.2,1,0.6,1.4S84.5,181.5,85,181.5z"/>
		<path class="st4" d="M92.4,181c-0.3,0-0.6-0.1-0.9-0.2s-0.5-0.4-0.7-0.7c-0.2-0.3-0.3-0.7-0.3-1.2s0.1-0.9,0.3-1.2
			c0.2-0.3,0.4-0.6,0.7-0.7s0.6-0.2,0.9-0.2c0.3,0,0.7,0.1,1,0.2s0.5,0.4,0.7,0.7c0.2,0.3,0.3,0.7,0.3,1.2s-0.1,0.9-0.3,1.2
			c-0.2,0.3-0.4,0.6-0.7,0.7S92.7,181,92.4,181z M91.2,186.3l6.3-9.4h1.2l-6.3,9.4H91.2z M92.4,180.2c0.3,0,0.5-0.1,0.7-0.3
			c0.2-0.2,0.3-0.6,0.3-1s-0.1-0.8-0.3-1c-0.2-0.2-0.4-0.3-0.7-0.3c-0.3,0-0.5,0.1-0.7,0.3c-0.2,0.2-0.3,0.6-0.3,1s0.1,0.8,0.3,1
			C91.8,180.1,92.1,180.2,92.4,180.2z M97.6,186.4c-0.3,0-0.6-0.1-0.9-0.2s-0.5-0.4-0.7-0.7c-0.2-0.3-0.3-0.7-0.3-1.2
			c0-0.5,0.1-0.9,0.3-1.2c0.2-0.3,0.4-0.6,0.7-0.7s0.6-0.2,0.9-0.2c0.3,0,0.7,0.1,1,0.2c0.3,0.2,0.5,0.4,0.7,0.7
			c0.2,0.3,0.3,0.7,0.3,1.2c0,0.5-0.1,0.9-0.3,1.2s-0.4,0.6-0.7,0.7C98.3,186.4,98,186.4,97.6,186.4z M97.6,185.6
			c0.3,0,0.5-0.1,0.7-0.3s0.3-0.6,0.3-1c0-0.5-0.1-0.8-0.3-1c-0.2-0.2-0.4-0.3-0.7-0.3c-0.3,0-0.5,0.1-0.7,0.3
			c-0.2,0.2-0.3,0.6-0.3,1c0,0.5,0.1,0.8,0.3,1C97.1,185.5,97.3,185.6,97.6,185.6z"/>
	</g>
</g>
<circle class="st4" cx="86.4" cy="158.4" r="4"/>
<g class="st8">
	<rect x="402" y="198.1" class="st3" width="30" height="208"/>
	<polygon class="st3" points="417,183.1 402,198.1 432,198.1 	"/>
</g>
<g>
	<g>
		<path class="st4" d="M407.7,174c-0.6,0-1.1-0.1-1.6-0.3c-0.5-0.2-0.9-0.5-1.2-0.9s-0.4-0.9-0.5-1.5h1.2c0,0.6,0.2,1,0.6,1.3
			c0.4,0.3,0.9,0.4,1.5,0.4c0.7,0,1.2-0.2,1.6-0.6c0.4-0.4,0.6-0.9,0.6-1.5c0-1.2-0.8-1.8-2.3-1.8H405l0.4-4.6h5.2v1.1h-4.3l0.2-0.4
			l-0.3,3.3l-0.1-0.1c0.2-0.1,0.5-0.1,0.8-0.1s0.6,0,0.8,0c1,0,1.8,0.2,2.4,0.7c0.6,0.5,0.9,1.1,0.9,2c0,0.6-0.1,1.2-0.4,1.6
			c-0.3,0.5-0.7,0.9-1.2,1.2C409,173.8,408.4,174,407.7,174z"/>
		<path class="st4" d="M412.9,173.8v-1.4c0-0.5,0.1-1,0.3-1.4c0.2-0.4,0.4-0.7,0.8-0.9c0.3-0.2,0.7-0.4,1.1-0.6l1.9-0.7
			c0.5-0.2,0.8-0.4,1.1-0.8c0.2-0.3,0.4-0.7,0.4-1.1c0-0.5-0.2-0.9-0.5-1.2c-0.3-0.3-0.8-0.5-1.4-0.5c-0.6,0-1.1,0.1-1.5,0.4
			c-0.4,0.3-0.6,0.6-0.6,1.1h-1.3c0-0.5,0.2-1,0.5-1.4c0.3-0.4,0.7-0.7,1.2-0.9c0.5-0.2,1.1-0.3,1.7-0.3c0.6,0,1.1,0.1,1.6,0.4
			c0.5,0.2,0.9,0.6,1.1,1s0.4,0.9,0.4,1.4c0,0.5-0.1,0.9-0.3,1.3c-0.2,0.4-0.4,0.7-0.8,0.9c-0.3,0.3-0.7,0.5-1.2,0.7l-1.9,0.8
			c-0.5,0.2-0.8,0.4-1.1,0.7c-0.2,0.3-0.4,0.6-0.4,1v0.4h5.5v1.1H412.9z"/>
		<path class="st4" d="M423.5,168.5c-0.3,0-0.6-0.1-0.9-0.2s-0.5-0.4-0.7-0.7c-0.2-0.3-0.3-0.7-0.3-1.2s0.1-0.9,0.3-1.2
			c0.2-0.3,0.4-0.6,0.7-0.7s0.6-0.2,0.9-0.2c0.3,0,0.7,0.1,1,0.2s0.5,0.4,0.7,0.7c0.2,0.3,0.3,0.7,0.3,1.2s-0.1,0.9-0.3,1.2
			c-0.2,0.3-0.4,0.6-0.7,0.7S423.8,168.5,423.5,168.5z M422.3,173.8l6.3-9.4h1.2l-6.3,9.4H422.3z M423.5,167.7
			c0.3,0,0.5-0.1,0.7-0.3c0.2-0.2,0.3-0.6,0.3-1s-0.1-0.8-0.3-1c-0.2-0.2-0.4-0.3-0.7-0.3c-0.3,0-0.5,0.1-0.7,0.3
			c-0.2,0.2-0.3,0.6-0.3,1s0.1,0.8,0.3,1C422.9,167.6,423.2,167.7,423.5,167.7z M428.7,173.9c-0.3,0-0.6-0.1-0.9-0.2
			s-0.5-0.4-0.7-0.7c-0.2-0.3-0.3-0.7-0.3-1.2c0-0.5,0.1-0.9,0.3-1.2c0.2-0.3,0.4-0.6,0.7-0.7s0.6-0.2,0.9-0.2c0.3,0,0.7,0.1,1,0.2
			c0.3,0.2,0.5,0.4,0.7,0.7c0.2,0.3,0.3,0.7,0.3,1.2c0,0.5-0.1,0.9-0.3,1.2s-0.4,0.6-0.7,0.7C429.4,173.9,429.1,173.9,428.7,173.9z
			 M428.7,173.1c0.3,0,0.5-0.1,0.7-0.3s0.3-0.6,0.3-1c0-0.5-0.1-0.8-0.3-1c-0.2-0.2-0.4-0.3-0.7-0.3c-0.3,0-0.5,0.1-0.7,0.3
			c-0.2,0.2-0.3,0.6-0.3,1c0,0.5,0.1,0.8,0.3,1C428.2,173,428.4,173.1,428.7,173.1z"/>
	</g>
</g>
<circle class="st4" cx="417.4" cy="145.9" r="4"/>
<g>
	<rect x="570" y="186.1" class="st3" width="30" height="220"/>
	<polygon class="st3" points="585,171 570,186 600,186 	"/>
</g>
<g>
	<g>
		<path class="st4" d="M574.9,160.6c-0.6,0-1.1-0.1-1.6-0.3s-0.9-0.5-1.2-0.9s-0.4-0.9-0.4-1.5h1.2c0,0.6,0.2,1,0.6,1.3
			s0.9,0.4,1.5,0.4c0.7,0,1.2-0.2,1.6-0.6c0.4-0.4,0.6-0.9,0.6-1.5c0-1.2-0.8-1.8-2.3-1.8h-2.5l0.4-4.6h5.2v1.1h-4.3l0.2-0.4
			l-0.3,3.3l-0.2-0.1c0.2-0.1,0.5-0.1,0.8-0.1c0.3,0,0.6,0,0.8,0c1,0,1.8,0.2,2.4,0.7c0.6,0.5,0.9,1.1,0.9,2c0,0.6-0.1,1.2-0.4,1.6
			c-0.3,0.5-0.7,0.9-1.2,1.2C576.2,160.5,575.6,160.6,574.9,160.6z"/>
		<path class="st4" d="M583.4,160.6c-0.6,0-1.1-0.1-1.6-0.3c-0.5-0.2-0.9-0.5-1.2-0.9s-0.4-0.9-0.5-1.5h1.2c0,0.6,0.2,1,0.6,1.3
			c0.4,0.3,0.9,0.4,1.5,0.4c0.7,0,1.2-0.2,1.6-0.6c0.4-0.4,0.6-0.9,0.6-1.5c0-1.2-0.8-1.8-2.3-1.8h-2.5l0.4-4.6h5.2v1.1H582l0.2-0.4
			l-0.3,3.3l-0.1-0.1c0.2-0.1,0.5-0.1,0.8-0.1s0.6,0,0.8,0c1,0,1.8,0.2,2.4,0.7c0.6,0.5,0.9,1.1,0.9,2c0,0.6-0.1,1.2-0.4,1.6
			c-0.3,0.5-0.7,0.9-1.2,1.2C584.7,160.5,584.1,160.6,583.4,160.6z"/>
		<path class="st4" d="M590.4,155.1c-0.3,0-0.6-0.1-0.9-0.2s-0.5-0.4-0.7-0.7c-0.2-0.3-0.3-0.7-0.3-1.2s0.1-0.9,0.3-1.2
			c0.2-0.3,0.4-0.6,0.7-0.7s0.6-0.2,0.9-0.2c0.3,0,0.7,0.1,1,0.2s0.5,0.4,0.7,0.7c0.2,0.3,0.3,0.7,0.3,1.2s-0.1,0.9-0.3,1.2
			c-0.2,0.3-0.4,0.6-0.7,0.7S590.8,155.1,590.4,155.1z M589.3,160.4l6.3-9.4h1.2l-6.3,9.4H589.3z M590.4,154.3
			c0.3,0,0.5-0.1,0.7-0.3c0.2-0.2,0.3-0.6,0.3-1s-0.1-0.8-0.3-1c-0.2-0.2-0.4-0.3-0.7-0.3c-0.3,0-0.5,0.1-0.7,0.3
			c-0.2,0.2-0.3,0.6-0.3,1s0.1,0.8,0.3,1C589.9,154.2,590.1,154.3,590.4,154.3z M595.7,160.6c-0.3,0-0.6-0.1-0.9-0.2
			s-0.5-0.4-0.7-0.7c-0.2-0.3-0.3-0.7-0.3-1.2c0-0.5,0.1-0.9,0.3-1.2c0.2-0.3,0.4-0.6,0.7-0.7s0.6-0.2,0.9-0.2c0.3,0,0.7,0.1,1,0.2
			c0.3,0.2,0.5,0.4,0.7,0.7c0.2,0.3,0.3,0.7,0.3,1.2c0,0.5-0.1,0.9-0.3,1.2s-0.4,0.6-0.7,0.7C596.3,160.5,596,160.6,595.7,160.6z
			 M595.7,159.8c0.3,0,0.5-0.1,0.7-0.3s0.3-0.6,0.3-1c0-0.5-0.1-0.8-0.3-1c-0.2-0.2-0.4-0.3-0.7-0.3c-0.3,0-0.5,0.1-0.7,0.3
			c-0.2,0.2-0.3,0.6-0.3,1c0,0.5,0.1,0.8,0.3,1C595.2,159.6,595.4,159.8,595.7,159.8z"/>
	</g>
</g>
<circle class="st4" cx="584.6" cy="132.5" r="4"/>
<g class="st9">
	<rect x="487" y="194.1" class="st3" width="30" height="212"/>
	<polygon class="st3" points="502,179.1 487,194.1 517,194.1 	"/>
</g>
<g>
	<g>
		<path class="st4" d="M489.7,169c-0.6,0-1.1-0.1-1.6-0.3c-0.5-0.2-0.9-0.5-1.2-0.9s-0.4-0.9-0.5-1.5h1.2c0,0.6,0.2,1,0.6,1.3
			c0.4,0.3,0.9,0.4,1.5,0.4c0.7,0,1.2-0.2,1.6-0.6c0.4-0.4,0.6-0.9,0.6-1.5c0-1.2-0.8-1.8-2.3-1.8H487l0.4-4.6h5.2v1.1h-4.3l0.2-0.4
			l-0.3,3.3l-0.1-0.1c0.2-0.1,0.5-0.1,0.8-0.1s0.6,0,0.8,0c1,0,1.8,0.2,2.4,0.7c0.6,0.5,0.9,1.1,0.9,2c0,0.6-0.1,1.2-0.4,1.6
			c-0.3,0.5-0.7,0.9-1.2,1.2C491,168.8,490.4,169,489.7,169z"/>
		<path class="st4" d="M498.4,169c-0.5,0-0.9-0.1-1.4-0.2c-0.4-0.1-0.8-0.3-1.2-0.6c-0.3-0.3-0.6-0.6-0.8-1
			c-0.2-0.4-0.3-0.8-0.3-1.3h1.2c0,0.4,0.1,0.8,0.3,1.1c0.2,0.3,0.5,0.5,0.9,0.7c0.4,0.1,0.8,0.2,1.2,0.2c0.7,0,1.2-0.2,1.6-0.5
			c0.4-0.3,0.6-0.8,0.6-1.3c0-0.3-0.1-0.6-0.2-0.9s-0.4-0.4-0.8-0.6s-0.8-0.2-1.4-0.2h-1.1v-0.9h0.7c0.7,0,1.3-0.1,1.7-0.4
			s0.6-0.7,0.6-1.2c0-0.5-0.2-0.8-0.5-1.1c-0.3-0.3-0.8-0.5-1.5-0.5c-0.5,0-0.9,0.1-1.3,0.3c-0.4,0.2-0.6,0.6-0.8,1.1H495
			c0.1-0.6,0.3-1.1,0.6-1.4c0.3-0.4,0.7-0.6,1.1-0.8s1-0.2,1.5-0.2c0.6,0,1.2,0.1,1.7,0.3c0.5,0.2,0.9,0.5,1.2,0.9
			c0.3,0.4,0.4,0.8,0.4,1.3c0,0.5-0.1,0.9-0.4,1.3c-0.3,0.4-0.7,0.6-1.2,0.8c0.6,0.2,1.1,0.5,1.5,0.8c0.4,0.4,0.6,0.9,0.6,1.5
			c0,0.5-0.1,1-0.4,1.4c-0.3,0.4-0.7,0.7-1.2,1C499.7,168.9,499.1,169,498.4,169z"/>
		<path class="st4" d="M505.6,163.5c-0.3,0-0.6-0.1-0.9-0.2s-0.5-0.4-0.7-0.7c-0.2-0.3-0.3-0.7-0.3-1.2s0.1-0.9,0.3-1.2
			c0.2-0.3,0.4-0.6,0.7-0.7s0.6-0.2,0.9-0.2c0.3,0,0.7,0.1,1,0.2s0.5,0.4,0.7,0.7c0.2,0.3,0.3,0.7,0.3,1.2s-0.1,0.9-0.3,1.2
			c-0.2,0.3-0.4,0.6-0.7,0.7S506,163.5,505.6,163.5z M504.5,168.8l6.3-9.4h1.2l-6.3,9.4H504.5z M505.6,162.7c0.3,0,0.5-0.1,0.7-0.3
			c0.2-0.2,0.3-0.6,0.3-1s-0.1-0.8-0.3-1c-0.2-0.2-0.4-0.3-0.7-0.3c-0.3,0-0.5,0.1-0.7,0.3c-0.2,0.2-0.3,0.6-0.3,1s0.1,0.8,0.3,1
			C505.1,162.6,505.3,162.7,505.6,162.7z M510.9,168.9c-0.3,0-0.6-0.1-0.9-0.2s-0.5-0.4-0.7-0.7c-0.2-0.3-0.3-0.7-0.3-1.2
			c0-0.5,0.1-0.9,0.3-1.2c0.2-0.3,0.4-0.6,0.7-0.7s0.6-0.2,0.9-0.2c0.3,0,0.7,0.1,1,0.2c0.3,0.2,0.5,0.4,0.7,0.7
			c0.2,0.3,0.3,0.7,0.3,1.2c0,0.5-0.1,0.9-0.3,1.2s-0.4,0.6-0.7,0.7C511.5,168.9,511.2,168.9,510.9,168.9z M510.9,168.1
			c0.3,0,0.5-0.1,0.7-0.3s0.3-0.6,0.3-1c0-0.5-0.1-0.8-0.3-1c-0.2-0.2-0.4-0.3-0.7-0.3c-0.3,0-0.5,0.1-0.7,0.3
			c-0.2,0.2-0.3,0.6-0.3,1c0,0.5,0.1,0.8,0.3,1C510.3,168,510.6,168.1,510.9,168.1z"/>
	</g>
</g>
<circle class="st4" cx="499.4" cy="140.9" r="4"/>
<g>
	<g>
		<path class="st4" d="M324.5,426.3v-1.2c0-0.5,0.1-0.9,0.2-1.2c0.2-0.3,0.4-0.6,0.6-0.8c0.3-0.2,0.6-0.4,1-0.5l1.6-0.6
			c0.4-0.2,0.7-0.4,0.9-0.6s0.3-0.6,0.3-1c0-0.4-0.1-0.8-0.4-1c-0.3-0.3-0.7-0.4-1.2-0.4c-0.5,0-0.9,0.1-1.3,0.3
			c-0.3,0.2-0.5,0.5-0.6,1h-1.1c0-0.5,0.2-0.9,0.4-1.2c0.2-0.3,0.6-0.6,1-0.8c0.4-0.2,0.9-0.3,1.5-0.3c0.5,0,1,0.1,1.4,0.3
			c0.4,0.2,0.7,0.5,1,0.8c0.2,0.4,0.4,0.8,0.4,1.2c0,0.4-0.1,0.8-0.2,1.1c-0.2,0.3-0.4,0.6-0.7,0.8s-0.6,0.4-1,0.6l-1.7,0.7
			c-0.4,0.2-0.7,0.4-0.9,0.6c-0.2,0.2-0.3,0.5-0.3,0.9v0.4h4.7v0.9H324.5z"/>
		<path class="st4" d="M335,426.4c-0.6,0-1.2-0.2-1.7-0.5c-0.5-0.3-0.9-0.8-1.1-1.4c-0.3-0.6-0.4-1.4-0.4-2.4s0.1-1.7,0.4-2.4
			c0.3-0.6,0.6-1.1,1.1-1.4c0.5-0.3,1-0.5,1.7-0.5c0.6,0,1.2,0.2,1.7,0.5c0.5,0.3,0.9,0.8,1.1,1.4s0.4,1.4,0.4,2.4s-0.1,1.7-0.4,2.4
			c-0.3,0.6-0.6,1.1-1.1,1.4C336.2,426.3,335.7,426.4,335,426.4z M335,425.5c0.7,0,1.2-0.3,1.6-0.9c0.4-0.6,0.5-1.4,0.5-2.4
			s-0.2-1.9-0.5-2.4c-0.4-0.6-0.9-0.9-1.6-0.9c-0.7,0-1.2,0.3-1.6,0.9c-0.4,0.6-0.6,1.4-0.6,2.4s0.2,1.9,0.6,2.4
			C333.8,425.2,334.3,425.5,335,425.5z"/>
		<path class="st4" d="M341.1,418.1h0.8v8.2h-1v-7c-0.2,0.1-0.4,0.3-0.7,0.3c-0.2,0.1-0.5,0.1-0.7,0.1v-1c0.3,0,0.5-0.1,0.8-0.2
			C340.6,418.4,340.8,418.3,341.1,418.1z"/>
		<path class="st4" d="M344,426.3l3.9-7.2h-4.4v-1h5.6v0.9l-3.8,7.2H344z"/>
	</g>
</g>
<g>
	<g>
		<path class="st4" d="M236.9,426.3v-1.2c0-0.5,0.1-0.9,0.2-1.2c0.2-0.3,0.4-0.6,0.6-0.8c0.3-0.2,0.6-0.4,1-0.5l1.6-0.6
			c0.4-0.2,0.7-0.4,0.9-0.6s0.3-0.6,0.3-1c0-0.4-0.1-0.8-0.4-1c-0.3-0.3-0.7-0.4-1.2-0.4c-0.5,0-0.9,0.1-1.3,0.3
			c-0.3,0.2-0.5,0.5-0.6,1h-1.1c0-0.5,0.2-0.9,0.4-1.2c0.2-0.3,0.6-0.6,1-0.8c0.4-0.2,0.9-0.3,1.5-0.3c0.5,0,1,0.1,1.4,0.3
			c0.4,0.2,0.7,0.5,1,0.8c0.2,0.4,0.4,0.8,0.4,1.2c0,0.4-0.1,0.8-0.2,1.1c-0.2,0.3-0.4,0.6-0.7,0.8s-0.6,0.4-1,0.6l-1.7,0.7
			c-0.4,0.2-0.7,0.4-0.9,0.6c-0.2,0.2-0.3,0.5-0.3,0.9v0.4h4.7v0.9H236.9z"/>
		<path class="st4" d="M247.5,426.4c-0.6,0-1.2-0.2-1.7-0.5c-0.5-0.3-0.9-0.8-1.1-1.4c-0.3-0.6-0.4-1.4-0.4-2.4s0.1-1.7,0.4-2.4
			c0.3-0.6,0.6-1.1,1.1-1.4c0.5-0.3,1-0.5,1.7-0.5c0.6,0,1.2,0.2,1.7,0.5c0.5,0.3,0.9,0.8,1.1,1.4s0.4,1.4,0.4,2.4s-0.1,1.7-0.4,2.4
			c-0.3,0.6-0.6,1.1-1.1,1.4C248.7,426.3,248.1,426.4,247.5,426.4z M247.5,425.5c0.7,0,1.2-0.3,1.6-0.9c0.4-0.6,0.5-1.4,0.5-2.4
			s-0.2-1.9-0.5-2.4c-0.4-0.6-0.9-0.9-1.6-0.9c-0.7,0-1.2,0.3-1.6,0.9c-0.4,0.6-0.6,1.4-0.6,2.4s0.2,1.9,0.6,2.4
			C246.3,425.2,246.8,425.5,247.5,425.5z"/>
		<path class="st4" d="M253.5,418.1h0.8v8.2h-1v-7c-0.2,0.1-0.4,0.3-0.7,0.3c-0.2,0.1-0.5,0.1-0.7,0.1v-1c0.3,0,0.5-0.1,0.8-0.2
			C253,418.4,253.3,418.3,253.5,418.1z"/>
		<path class="st4" d="M259.6,426.4c-0.7,0-1.2-0.2-1.7-0.5c-0.5-0.4-0.9-0.8-1.1-1.5c-0.3-0.6-0.4-1.3-0.4-2.1
			c0-0.9,0.1-1.7,0.4-2.3c0.3-0.7,0.7-1.2,1.2-1.5c0.5-0.3,1.1-0.5,1.8-0.5c0.5,0,0.9,0.1,1.3,0.3c0.4,0.2,0.7,0.4,0.9,0.8
			c0.2,0.3,0.4,0.7,0.4,1.2h-1.1c-0.1-0.4-0.2-0.7-0.4-0.9c-0.2-0.2-0.6-0.3-1-0.3c-0.7,0-1.3,0.3-1.8,1c-0.4,0.6-0.6,1.5-0.6,2.6
			c0,0.2,0,0.3,0,0.6c0,0.2,0,0.4,0.1,0.6c0-0.6,0.2-1,0.4-1.4c0.2-0.3,0.5-0.6,0.9-0.7s0.7-0.2,1.1-0.2c0.5,0,0.9,0.1,1.3,0.3
			s0.7,0.5,0.9,0.9c0.2,0.4,0.3,0.8,0.3,1.3c0,0.5-0.1,0.9-0.4,1.3c-0.2,0.4-0.6,0.7-1,0.9S260.1,426.4,259.6,426.4z M259.6,425.5
			c0.5,0,0.9-0.1,1.2-0.4c0.3-0.3,0.5-0.7,0.5-1.2c0-0.5-0.2-0.9-0.5-1.2c-0.3-0.3-0.7-0.4-1.2-0.4c-0.3,0-0.6,0.1-0.9,0.2
			s-0.5,0.3-0.6,0.6c-0.1,0.2-0.2,0.5-0.2,0.8c0,0.5,0.2,0.9,0.5,1.2C258.7,425.3,259.1,425.5,259.6,425.5z"/>
	</g>
</g>
<g>
	<g>
		<path class="st4" d="M157.9,426.3v-1.2c0-0.5,0.1-0.9,0.2-1.2c0.2-0.3,0.4-0.6,0.6-0.8c0.3-0.2,0.6-0.4,1-0.5l1.6-0.6
			c0.4-0.2,0.7-0.4,0.9-0.6s0.3-0.6,0.3-1c0-0.4-0.1-0.8-0.4-1c-0.3-0.3-0.7-0.4-1.2-0.4c-0.5,0-0.9,0.1-1.3,0.3
			c-0.3,0.2-0.5,0.5-0.6,1h-1.1c0-0.5,0.2-0.9,0.4-1.2c0.2-0.3,0.6-0.6,1-0.8c0.4-0.2,0.9-0.3,1.5-0.3c0.5,0,1,0.1,1.4,0.3
			c0.4,0.2,0.7,0.5,1,0.8c0.2,0.4,0.4,0.8,0.4,1.2c0,0.4-0.1,0.8-0.2,1.1c-0.2,0.3-0.4,0.6-0.7,0.8s-0.6,0.4-1,0.6l-1.7,0.7
			c-0.4,0.2-0.7,0.4-0.9,0.6c-0.2,0.2-0.3,0.5-0.3,0.9v0.4h4.7v0.9H157.9z"/>
		<path class="st4" d="M168.5,426.4c-0.6,0-1.2-0.2-1.7-0.5c-0.5-0.3-0.9-0.8-1.1-1.4c-0.3-0.6-0.4-1.4-0.4-2.4s0.1-1.7,0.4-2.4
			c0.3-0.6,0.6-1.1,1.1-1.4c0.5-0.3,1-0.5,1.7-0.5c0.6,0,1.2,0.2,1.7,0.5c0.5,0.3,0.9,0.8,1.1,1.4s0.4,1.4,0.4,2.4s-0.1,1.7-0.4,2.4
			c-0.3,0.6-0.6,1.1-1.1,1.4C169.7,426.3,169.1,426.4,168.5,426.4z M168.5,425.5c0.7,0,1.2-0.3,1.6-0.9c0.4-0.6,0.5-1.4,0.5-2.4
			s-0.2-1.9-0.5-2.4c-0.4-0.6-0.9-0.9-1.6-0.9c-0.7,0-1.2,0.3-1.6,0.9c-0.4,0.6-0.6,1.4-0.6,2.4s0.2,1.9,0.6,2.4
			C167.3,425.2,167.8,425.5,168.5,425.5z"/>
		<path class="st4" d="M174.5,418.1h0.8v8.2h-1v-7c-0.2,0.1-0.4,0.3-0.7,0.3c-0.2,0.1-0.5,0.1-0.7,0.1v-1c0.3,0,0.5-0.1,0.8-0.2
			C174,418.4,174.3,418.3,174.5,418.1z"/>
		<path class="st4" d="M180.3,426.4c-0.5,0-1-0.1-1.4-0.3c-0.4-0.2-0.8-0.5-1-0.8c-0.3-0.4-0.4-0.8-0.4-1.3h1c0,0.5,0.2,0.9,0.5,1.1
			c0.3,0.3,0.8,0.4,1.3,0.4c0.6,0,1-0.2,1.4-0.5c0.3-0.4,0.5-0.8,0.5-1.3c0-1-0.7-1.6-2-1.6H178l0.4-4h4.5v0.9h-3.7l0.2-0.4
			l-0.3,2.8l-0.1-0.1c0.2,0,0.4-0.1,0.7-0.1s0.5,0,0.7,0c0.9,0,1.6,0.2,2.1,0.6s0.8,1,0.8,1.8c0,0.5-0.1,1-0.4,1.4
			c-0.2,0.4-0.6,0.8-1,1C181.4,426.3,180.9,426.4,180.3,426.4z"/>
	</g>
</g>
<g>
	<g>
		<path class="st4" d="M74.9,426.3v-1.2c0-0.5,0.1-0.9,0.2-1.2c0.2-0.3,0.4-0.6,0.6-0.8c0.3-0.2,0.6-0.4,1-0.5l1.6-0.6
			c0.4-0.2,0.7-0.4,0.9-0.6s0.3-0.6,0.3-1c0-0.4-0.1-0.8-0.4-1c-0.3-0.3-0.7-0.4-1.2-0.4c-0.5,0-0.9,0.1-1.3,0.3
			c-0.3,0.2-0.5,0.5-0.6,1h-1.1c0-0.5,0.2-0.9,0.4-1.2c0.2-0.3,0.6-0.6,1-0.8c0.4-0.2,0.9-0.3,1.5-0.3c0.5,0,1,0.1,1.4,0.3
			c0.4,0.2,0.7,0.5,1,0.8c0.2,0.4,0.4,0.8,0.4,1.2c0,0.4-0.1,0.8-0.2,1.1c-0.2,0.3-0.4,0.6-0.7,0.8s-0.6,0.4-1,0.6l-1.7,0.7
			c-0.4,0.2-0.7,0.4-0.9,0.6c-0.2,0.2-0.3,0.5-0.3,0.9v0.4h4.7v0.9H74.9z"/>
		<path class="st4" d="M85.5,426.4c-0.6,0-1.2-0.2-1.7-0.5c-0.5-0.3-0.9-0.8-1.1-1.4c-0.3-0.6-0.4-1.4-0.4-2.4s0.1-1.7,0.4-2.4
			c0.3-0.6,0.6-1.1,1.1-1.4c0.5-0.3,1-0.5,1.7-0.5c0.6,0,1.2,0.2,1.7,0.5c0.5,0.3,0.9,0.8,1.1,1.4s0.4,1.4,0.4,2.4s-0.1,1.7-0.4,2.4
			c-0.3,0.6-0.6,1.1-1.1,1.4C86.7,426.3,86.1,426.4,85.5,426.4z M85.5,425.5c0.7,0,1.2-0.3,1.6-0.9c0.4-0.6,0.5-1.4,0.5-2.4
			s-0.2-1.9-0.5-2.4c-0.4-0.6-0.9-0.9-1.6-0.9c-0.7,0-1.2,0.3-1.6,0.9c-0.4,0.6-0.6,1.4-0.6,2.4s0.2,1.9,0.6,2.4
			C84.3,425.2,84.8,425.5,85.5,425.5z"/>
		<path class="st4" d="M91.5,418.1h0.8v8.2h-1v-7c-0.2,0.1-0.4,0.3-0.7,0.3c-0.2,0.1-0.5,0.1-0.7,0.1v-1c0.3,0,0.5-0.1,0.8-0.2
			C91,418.4,91.3,418.3,91.5,418.1z"/>
		<path class="st4" d="M98.3,418h0.9v5.4h1.4v0.9h-1.4v2h-1v-2H94v-0.8L98.3,418z M98.2,419.6l-3.1,3.9h3.1V419.6z"/>
	</g>
</g>
<g>
	<g>
		<path class="st4" d="M487.9,426.3v-1.2c0-0.5,0.1-0.9,0.2-1.2c0.2-0.3,0.4-0.6,0.6-0.8c0.3-0.2,0.6-0.4,1-0.5l1.6-0.6
			c0.4-0.2,0.7-0.4,0.9-0.6s0.3-0.6,0.3-1c0-0.4-0.1-0.8-0.4-1c-0.3-0.3-0.7-0.4-1.2-0.4c-0.5,0-0.9,0.1-1.3,0.3
			c-0.3,0.2-0.5,0.5-0.6,1h-1.1c0-0.5,0.2-0.9,0.4-1.2c0.3-0.3,0.6-0.6,1-0.8c0.4-0.2,0.9-0.3,1.5-0.3c0.5,0,1,0.1,1.4,0.3
			c0.4,0.2,0.7,0.5,1,0.8c0.2,0.4,0.4,0.8,0.4,1.2c0,0.4-0.1,0.8-0.2,1.1c-0.2,0.3-0.4,0.6-0.7,0.8s-0.6,0.4-1,0.6l-1.7,0.7
			c-0.4,0.2-0.7,0.4-0.9,0.6c-0.2,0.2-0.3,0.5-0.3,0.9v0.4h4.7v0.9H487.9z"/>
		<path class="st4" d="M498.5,426.4c-0.6,0-1.2-0.2-1.7-0.5c-0.5-0.3-0.9-0.8-1.1-1.4c-0.3-0.6-0.4-1.4-0.4-2.4s0.1-1.7,0.4-2.4
			c0.3-0.6,0.6-1.1,1.1-1.4c0.5-0.3,1-0.5,1.7-0.5c0.6,0,1.2,0.2,1.7,0.5c0.5,0.3,0.9,0.8,1.1,1.4c0.3,0.6,0.4,1.4,0.4,2.4
			s-0.1,1.7-0.4,2.4c-0.3,0.6-0.6,1.1-1.1,1.4C499.7,426.3,499.1,426.4,498.5,426.4z M498.5,425.5c0.7,0,1.2-0.3,1.6-0.9
			c0.4-0.6,0.5-1.4,0.5-2.4s-0.2-1.9-0.5-2.4c-0.4-0.6-0.9-0.9-1.6-0.9c-0.7,0-1.2,0.3-1.6,0.9c-0.4,0.6-0.6,1.4-0.6,2.4
			s0.2,1.9,0.6,2.4C497.3,425.2,497.8,425.5,498.5,425.5z"/>
		<path class="st4" d="M504.5,418.1h0.8v8.2h-1v-7c-0.2,0.1-0.4,0.3-0.7,0.3c-0.2,0.1-0.5,0.1-0.7,0.1v-1c0.3,0,0.5-0.1,0.8-0.2
			C504,418.4,504.3,418.3,504.5,418.1z"/>
		<path class="st4" d="M510.3,426.4c-0.5,0-1-0.1-1.4-0.3c-0.4-0.2-0.7-0.5-1-0.9c-0.2-0.4-0.4-0.8-0.4-1.3h1.1
			c0,0.5,0.2,0.9,0.5,1.2s0.7,0.4,1.2,0.4c0.5,0,0.9-0.1,1.2-0.4c0.3-0.3,0.6-0.7,0.7-1.3c0.1-0.5,0.2-1.2,0.2-1.9
			c0-0.2,0-0.3,0-0.5c0-0.1,0-0.3-0.1-0.5c-0.1,0.5-0.2,0.9-0.4,1.2c-0.2,0.3-0.5,0.5-0.8,0.7c-0.3,0.2-0.7,0.2-1.1,0.2
			c-0.5,0-0.9-0.1-1.3-0.3c-0.4-0.2-0.7-0.5-0.9-0.9c-0.2-0.4-0.3-0.8-0.3-1.3c0-0.5,0.1-0.9,0.3-1.3c0.2-0.4,0.6-0.7,1-0.9
			c0.4-0.2,0.9-0.3,1.4-0.3c0.5,0,0.9,0.1,1.3,0.3c0.4,0.2,0.7,0.5,1,0.8c0.3,0.4,0.5,0.8,0.7,1.3s0.2,1.1,0.2,1.7
			c0,0.9-0.1,1.7-0.3,2.3c-0.2,0.7-0.6,1.2-1,1.5C511.7,426.2,511.1,426.4,510.3,426.4z M510.3,422.1c0.3,0,0.6-0.1,0.9-0.2
			c0.3-0.1,0.5-0.3,0.6-0.6c0.2-0.2,0.2-0.5,0.2-0.8c0-0.5-0.2-0.9-0.5-1.2c-0.3-0.3-0.7-0.4-1.2-0.4c-0.5,0-0.9,0.1-1.2,0.4
			c-0.3,0.3-0.5,0.7-0.5,1.2c0,0.5,0.2,0.9,0.5,1.2C509.4,422,509.8,422.1,510.3,422.1z"/>
	</g>
</g>
<g>
	<g>
		<path class="st4" d="M405.9,426.3v-1.2c0-0.5,0.1-0.9,0.2-1.2c0.2-0.3,0.4-0.6,0.6-0.8c0.3-0.2,0.6-0.4,1-0.5l1.6-0.6
			c0.4-0.2,0.7-0.4,0.9-0.6s0.3-0.6,0.3-1c0-0.4-0.1-0.8-0.4-1c-0.3-0.3-0.7-0.4-1.2-0.4c-0.5,0-0.9,0.1-1.3,0.3
			c-0.3,0.2-0.5,0.5-0.6,1h-1.1c0-0.5,0.2-0.9,0.4-1.2c0.3-0.3,0.6-0.6,1-0.8c0.4-0.2,0.9-0.3,1.5-0.3c0.5,0,1,0.1,1.4,0.3
			c0.4,0.2,0.7,0.5,1,0.8c0.2,0.4,0.4,0.8,0.4,1.2c0,0.4-0.1,0.8-0.2,1.1c-0.2,0.3-0.4,0.6-0.7,0.8s-0.6,0.4-1,0.6l-1.7,0.7
			c-0.4,0.2-0.7,0.4-0.9,0.6c-0.2,0.2-0.3,0.5-0.3,0.9v0.4h4.7v0.9H405.9z"/>
		<path class="st4" d="M416.5,426.4c-0.6,0-1.2-0.2-1.7-0.5c-0.5-0.3-0.9-0.8-1.1-1.4c-0.3-0.6-0.4-1.4-0.4-2.4s0.1-1.7,0.4-2.4
			c0.3-0.6,0.6-1.1,1.1-1.4c0.5-0.3,1-0.5,1.7-0.5c0.6,0,1.2,0.2,1.7,0.5c0.5,0.3,0.9,0.8,1.1,1.4c0.3,0.6,0.4,1.4,0.4,2.4
			s-0.1,1.7-0.4,2.4c-0.3,0.6-0.6,1.1-1.1,1.4C417.7,426.3,417.1,426.4,416.5,426.4z M416.5,425.5c0.7,0,1.2-0.3,1.6-0.9
			c0.4-0.6,0.5-1.4,0.5-2.4s-0.2-1.9-0.5-2.4c-0.4-0.6-0.9-0.9-1.6-0.9c-0.7,0-1.2,0.3-1.6,0.9c-0.4,0.6-0.6,1.4-0.6,2.4
			s0.2,1.9,0.6,2.4C415.3,425.2,415.8,425.5,416.5,425.5z"/>
		<path class="st4" d="M422.5,418.1h0.8v8.2h-1v-7c-0.2,0.1-0.4,0.3-0.7,0.3c-0.2,0.1-0.5,0.1-0.7,0.1v-1c0.3,0,0.5-0.1,0.8-0.2
			C422,418.4,422.3,418.3,422.5,418.1z"/>
		<path class="st4" d="M428.6,426.4c-0.6,0-1.2-0.1-1.7-0.3c-0.5-0.2-0.9-0.5-1.2-0.8s-0.4-0.8-0.4-1.2c0-0.4,0.1-0.8,0.3-1.1
			c0.2-0.3,0.5-0.5,0.9-0.7s0.8-0.2,1.3-0.2c0.1,0,0.2,0,0.4,0s0.2,0,0.4,0.1v0.3c-0.4,0-0.8,0.1-1.1,0.2c-0.3,0.1-0.6,0.3-0.8,0.6
			c-0.2,0.2-0.3,0.5-0.3,0.7c0,0.3,0.1,0.6,0.3,0.8c0.2,0.2,0.5,0.4,0.8,0.5c0.3,0.1,0.7,0.2,1.1,0.2c0.7,0,1.2-0.1,1.6-0.3
			c0.4-0.2,0.6-0.5,0.6-0.9c0-0.3-0.1-0.5-0.3-0.7c-0.2-0.2-0.5-0.4-0.8-0.5l-2.2-0.9c-0.3-0.1-0.5-0.2-0.8-0.4s-0.5-0.4-0.7-0.7
			c-0.2-0.3-0.3-0.6-0.3-1c0-0.4,0.1-0.8,0.4-1.1c0.2-0.3,0.6-0.6,1-0.8c0.4-0.2,1-0.3,1.6-0.3c0.6,0,1.1,0.1,1.5,0.3
			c0.4,0.2,0.8,0.5,1.1,0.8s0.4,0.7,0.4,1.2c0,0.3-0.1,0.7-0.3,0.9c-0.2,0.3-0.4,0.5-0.8,0.7c-0.3,0.2-0.7,0.3-1.2,0.3
			c-0.1,0-0.2,0-0.3,0c-0.1,0-0.2,0-0.4-0.1v-0.3c0.4,0,0.7-0.1,0.9-0.2c0.3-0.1,0.5-0.3,0.7-0.5c0.2-0.2,0.3-0.5,0.3-0.7
			c0-0.3-0.1-0.5-0.2-0.7s-0.4-0.4-0.7-0.5c-0.3-0.1-0.6-0.2-1-0.2c-0.4,0-0.7,0.1-1,0.2c-0.3,0.1-0.5,0.3-0.7,0.5
			c-0.2,0.2-0.3,0.4-0.3,0.6c0,0.3,0.1,0.5,0.3,0.7s0.5,0.3,0.8,0.5l2.2,0.9c0.6,0.2,1.1,0.5,1.4,0.8c0.3,0.3,0.5,0.7,0.5,1.3
			c0,0.4-0.1,0.8-0.4,1.1c-0.3,0.3-0.6,0.6-1.1,0.8C429.9,426.3,429.3,426.4,428.6,426.4z"/>
	</g>
</g>
<g>
	<g>
		<path class="st4" d="M573.1,426.3v-1.2c0-0.5,0.1-0.9,0.2-1.2c0.2-0.3,0.4-0.6,0.6-0.8c0.3-0.2,0.6-0.4,1-0.5l1.6-0.6
			c0.4-0.2,0.7-0.4,0.9-0.6s0.3-0.6,0.3-1c0-0.4-0.1-0.8-0.4-1c-0.3-0.3-0.7-0.4-1.2-0.4c-0.5,0-0.9,0.1-1.3,0.3
			c-0.3,0.2-0.5,0.5-0.6,1h-1.1c0-0.5,0.2-0.9,0.4-1.2c0.3-0.3,0.6-0.6,1-0.8c0.4-0.2,0.9-0.3,1.5-0.3c0.5,0,1,0.1,1.4,0.3
			c0.4,0.2,0.7,0.5,1,0.8c0.2,0.4,0.4,0.8,0.4,1.2c0,0.4-0.1,0.8-0.2,1.1c-0.2,0.3-0.4,0.6-0.7,0.8s-0.6,0.4-1,0.6l-1.7,0.7
			c-0.4,0.2-0.7,0.4-0.9,0.6c-0.2,0.2-0.3,0.5-0.3,0.9v0.4h4.7v0.9H573.1z"/>
		<path class="st4" d="M583.7,426.4c-0.6,0-1.2-0.2-1.7-0.5c-0.5-0.3-0.9-0.8-1.1-1.4c-0.3-0.6-0.4-1.4-0.4-2.4s0.1-1.7,0.4-2.4
			c0.3-0.6,0.6-1.1,1.1-1.4c0.5-0.3,1-0.5,1.7-0.5c0.6,0,1.2,0.2,1.7,0.5c0.5,0.3,0.9,0.8,1.1,1.4c0.3,0.6,0.4,1.4,0.4,2.4
			s-0.1,1.7-0.4,2.4c-0.3,0.6-0.6,1.1-1.1,1.4C584.9,426.3,584.3,426.4,583.7,426.4z M583.7,425.5c0.7,0,1.2-0.3,1.6-0.9
			c0.4-0.6,0.5-1.4,0.5-2.4s-0.2-1.9-0.5-2.4c-0.4-0.6-0.9-0.9-1.6-0.9c-0.7,0-1.2,0.3-1.6,0.9c-0.4,0.6-0.6,1.4-0.6,2.4
			s0.2,1.9,0.6,2.4C582.5,425.2,583,425.5,583.7,425.5z"/>
		<path class="st4" d="M588.4,426.3v-1.2c0-0.5,0.1-0.9,0.2-1.2s0.4-0.6,0.7-0.8s0.6-0.4,1-0.5l1.6-0.6c0.4-0.2,0.7-0.4,0.9-0.6
			s0.3-0.6,0.3-1c0-0.4-0.1-0.8-0.4-1c-0.3-0.3-0.7-0.4-1.2-0.4c-0.5,0-0.9,0.1-1.3,0.3c-0.3,0.2-0.5,0.5-0.6,1h-1.1
			c0-0.5,0.2-0.9,0.4-1.2c0.2-0.3,0.6-0.6,1-0.8c0.4-0.2,0.9-0.3,1.5-0.3c0.5,0,1,0.1,1.4,0.3c0.4,0.2,0.7,0.5,1,0.8
			s0.4,0.8,0.4,1.2c0,0.4-0.1,0.8-0.2,1.1c-0.2,0.3-0.4,0.6-0.7,0.8s-0.6,0.4-1,0.6l-1.7,0.7c-0.4,0.2-0.7,0.4-0.9,0.6
			c-0.2,0.2-0.3,0.5-0.3,0.9v0.4h4.7v0.9H588.4z"/>
		<path class="st4" d="M598.9,426.4c-0.6,0-1.2-0.2-1.7-0.5c-0.5-0.3-0.9-0.8-1.1-1.4c-0.3-0.6-0.4-1.4-0.4-2.4s0.1-1.7,0.4-2.4
			c0.3-0.6,0.6-1.1,1.1-1.4c0.5-0.3,1-0.5,1.7-0.5c0.6,0,1.2,0.2,1.7,0.5c0.5,0.3,0.9,0.8,1.1,1.4s0.4,1.4,0.4,2.4s-0.1,1.7-0.4,2.4
			c-0.3,0.6-0.6,1.1-1.1,1.4C600.1,426.3,599.6,426.4,598.9,426.4z M598.9,425.5c0.7,0,1.2-0.3,1.6-0.9s0.5-1.4,0.5-2.4
			s-0.2-1.9-0.5-2.4s-0.9-0.9-1.6-0.9c-0.7,0-1.2,0.3-1.6,0.9s-0.6,1.4-0.6,2.4s0.2,1.9,0.6,2.4S598.2,425.5,598.9,425.5z"/>
	</g>
</g>
<line class="st10" x1="40.5" y1="407.8" x2="639.5" y2="407.8"/>
</svg>
