<svg id="Capa_1" data-name="Capa 1" xmlns="http://www.w3.org/2000/svg" viewBox="0 0 48 60"><defs><style>.cls-1{fill:none;}.cls-2{fill:#fff;fill-rule:evenodd;}</style></defs><rect class="cls-1" width="48" height="48"/><path class="cls-2" d="M48,44a10.71,10.71,0,0,0-1.53-4.6,32.72,32.72,0,0,0-2.69-4,1,1,0,0,0-1.56,0,32.72,32.72,0,0,0-2.69,4A10.71,10.71,0,0,0,38,44a5,5,0,0,0,10,0Zm-5-6.33a30.29,30.29,0,0,0-1.72,2.7A8.51,8.51,0,0,0,40,44a3,3,0,0,0,6,0,8.51,8.51,0,0,0-1.28-3.63A30.29,30.29,0,0,0,43,37.67ZM32.66,27a10,10,0,0,1-17.32,0H8v1a3,3,0,0,1-3,3H1a1,1,0,0,1-1-1V14a1,1,0,0,1,1-1H5a3,3,0,0,1,3,3v1h7.34A10,10,0,0,1,19,13.34V9a2,2,0,0,1,2-2h2V3H18a1,1,0,0,1,0-2H30a1,1,0,0,1,0,2H25V7h2a2,2,0,0,1,2,2v4.34A10,10,0,0,1,32.66,17H35A12,12,0,0,1,47,29v3a1,1,0,0,1-1,1H38a1,1,0,0,1-1-1V29a2,2,0,0,0-2-2Zm.88-8a10,10,0,0,1,0,6H35a4,4,0,0,1,4,4v2h6V29A10,10,0,0,0,35,19Zm-6.05-4.2a8,8,0,0,0-7,0,.38.38,0,0,1-.13.06,8.07,8.07,0,0,0-3.51,3.52.83.83,0,0,1-.07.13,8,8,0,0,0,0,7,.83.83,0,0,1,.07.13,8,8,0,0,0,14.26,0,.83.83,0,0,1,.07-.13,8,8,0,0,0,0-7,.83.83,0,0,1-.07-.13,8.07,8.07,0,0,0-3.51-3.52A.38.38,0,0,1,27.49,14.8ZM5,15H2V29H5a1,1,0,0,0,1-1V16A1,1,0,0,0,5,15Zm9.46,4H8v6h6.46a10,10,0,0,1,0-6ZM21,12.46a10,10,0,0,1,6,0V9H21Z"/></svg>