<svg id="Capa_1" data-name="Capa 1" xmlns="http://www.w3.org/2000/svg" viewBox="0 0 64 80"><defs><style>.cls-1{fill:#fff;}</style></defs><path class="cls-1" d="M32,63c6.06,0,11-5.38,11-12S38.06,39,32,39,21,44.38,21,51,25.93,63,32,63Zm0-22c5,0,9,4.49,9,10s-4,10-9,10-9-4.49-9-10S27,41,32,41Z"/><path class="cls-1" d="M36,51a3,3,0,0,0,3-3H37a1,1,0,0,1-2,0H33A3,3,0,0,0,36,51Z"/><path class="cls-1" d="M31,48H29a1,1,0,0,1-2,0H25a3,3,0,0,0,6,0Z"/><path class="cls-1" d="M29,56a3,3,0,0,0,6,0H33a1,1,0,0,1-2,0Z"/><circle class="cls-1" cx="29" cy="32" r="2"/><circle class="cls-1" cx="24" cy="30" r="2"/><circle class="cls-1" cx="24" cy="24" r="2"/><circle class="cls-1" cx="34" cy="25" r="2"/><circle class="cls-1" cx="29" cy="21" r="2"/><path class="cls-1" d="M38.83,30a1,1,0,0,0,1-.8A11.66,11.66,0,0,0,40,27a11,11,0,1,0-6.48,10,1,1,0,0,0,.57-1.09A5.13,5.13,0,0,1,34,35,5,5,0,0,1,38.83,30ZM32,35c0,.16,0,.31,0,.47A9,9,0,1,1,38,27a10,10,0,0,1-.06,1.09A7,7,0,0,0,32,35Z"/><path class="cls-1" d="M49.81,16.73a1,1,0,0,0-.7-.69,1,1,0,0,0-1,.24L45.28,19a3.38,3.38,0,0,0-.6,4.12,2.9,2.9,0,0,0,.25.36L42,30.55a.93.93,0,0,0-.07.33l-.46,9.21a1,1,0,0,0,.73,1,.82.82,0,0,0,.26,0,1,1,0,0,0,.89-.53l4.32-8.15a.92.92,0,0,0,.1-.32l1.1-7.57a2.09,2.09,0,0,0,.41-.17,3.38,3.38,0,0,0,1.59-3.84Zm-6.11,19,.23-4.54,2.68-6.47.11.05.12,0-1,6.93Zm4.6-13a1.38,1.38,0,0,1-1,.13,1.38,1.38,0,0,1-.59-2.34l1.67-1.59L49,21.1A1.39,1.39,0,0,1,48.3,22.67Z"/><path class="cls-1" d="M15.15,9.07l-2.24-.34-1-2.15A1,1,0,0,0,11,6a1,1,0,0,0-.9.57l-1,2.16-2.24.34a1,1,0,0,0-.57,1.68l1.65,1.69-.39,2.4a1,1,0,0,0,.41,1,1,1,0,0,0,1.06,0l2-1.09,2,1.1a1,1,0,0,0,.48.12,1,1,0,0,0,1-1.16l-.39-2.4,1.65-1.69a1,1,0,0,0-.57-1.68Zm-2.87,2.34a1,1,0,0,0-.27.86l.14.86-.67-.37a1,1,0,0,0-1,0l-.67.37.14-.86a1,1,0,0,0-.27-.86l-.65-.66.84-.13a1,1,0,0,0,.76-.56L11,9.35l.33.71a1,1,0,0,0,.76.56l.84.13Z"/><path class="cls-1" d="M59.15,45.07l-2.23-.34-1-2.15A1,1,0,0,0,55,42a1,1,0,0,0-.9.58l-1,2.15-2.24.34a1,1,0,0,0-.57,1.68l1.65,1.69-.39,2.4a1,1,0,0,0,1.47,1l2-1.1,2,1.1a1,1,0,0,0,.48.12,1,1,0,0,0,1-1.16l-.39-2.4,1.65-1.69a1,1,0,0,0-.57-1.68Zm-2.87,2.34a1,1,0,0,0-.27.86l.14.86-.67-.37a1,1,0,0,0-1,0l-.67.37.14-.86a1,1,0,0,0-.27-.86l-.64-.66.84-.13a1,1,0,0,0,.75-.56l.33-.71.33.71a1,1,0,0,0,.76.56l.84.13Z"/><path class="cls-1" d="M43.74,47.19l1.18,1.62a22,22,0,0,0,8.17-24.09l-1.92.56a20,20,0,0,1-7.43,21.91Z"/><path class="cls-1" d="M10,31a22,22,0,0,0,9.43,18.06l1.14-1.64A20,20,0,1,1,45.33,16.09l1.34-1.49A22,22,0,0,0,10,31Z"/><path class="cls-1" d="M32,1A28.8,28.8,0,0,0,15.43,6.2l1.14,1.64A27,27,0,0,1,56.84,40.61l1.84.78A29,29,0,0,0,32,1Z"/><path class="cls-1" d="M19.57,56.21l.86-1.81A27.14,27.14,0,0,1,5,30,26.69,26.69,0,0,1,7.89,17.83l-1.78-.9A28.69,28.69,0,0,0,3,30,29.14,29.14,0,0,0,19.57,56.21Z"/><path class="cls-1" d="M44.43,56.21a28.62,28.62,0,0,0,6.21-4l-1.28-1.53a27,27,0,0,1-5.79,3.72Z"/></svg>