<svg id="Capa_1" data-name="Capa 1" xmlns="http://www.w3.org/2000/svg" viewBox="0 0 300 850"><defs><style>.cls-1,.cls-4{fill:#b3e6e0;}.cls-1,.cls-2{fill-rule:evenodd;}.cls-2,.cls-3{fill:#49ada9;}</style></defs><path class="cls-1" d="M140.31,158.91c-9.29,6-16.56,12.75-18.72,24.26-1.41,7.51-.47,14.76.71,22,1.07,6.61-.53,11.59-3.94,17.4-10.38,17.68-24.78,33.64-22.6,56.84.83,8.59-10.66,13.09-12.22,22.33-.49,2.78-2.09,5.79-.56,8.08,6.28,9.35,5.92,21.37,11.49,30.41,6.41,10.44,3.21,19.08.27,28.89-3,10-9,19.42-7.53,30.57a3.36,3.36,0,0,1,.94,2.85c-2.12,8-8.44,14.29-9.69,22.66-.09.54-.13,1.07-.17,1.63a33,33,0,0,0-1.09,4.65,22.47,22.47,0,0,0-.32,4.41,16.56,16.56,0,0,0,.25,2.8,17.17,17.17,0,0,0,.78,3.1,32.07,32.07,0,0,1,.87,6.07c.06,1.09.15,2.16.31,3.21a28,28,0,0,0,.91,4.23v0a15.21,15.21,0,0,1,.38,6.08,12.17,12.17,0,0,1-2.54,5.38c-1.47,1.83-3.23,3.39-4.56,5.32-1.16,1.92-2.1,4-3.88,5.46-2.56,15.85-9.15,31.39-2.49,47.91,1.29,3.25,3.67,8.72-2.87,11.15-4,1.49-2.05,4.78-1.6,7.59,2,12.07,7.61,23.44,6.87,36-.26,4.63,5.21,3.19,6.73,6.12-.94,4.7-6.64.58-8,5.5,0-.51-.27.54,0,.76,5.35,3.94,7.13,7.88,1.34,13.2-4.88,4.5-2.43,10.35-1.22,15.45,2.16,9.13,2.07,17.3-4.92,24.67-3.7,3.87-4.95,7.94-3.65,14.6,1.53,8-4.75,16.16-8.78,23.82-3.56,6.77-7.41,13.31-4.52,21.77,1.27,3.76,2.28,5.77,6.46,5.19,6.88-.94,7.7,3.12,7.81,8.79.36,18.75,1.41,19.59,20.15,20.15a22.45,22.45,0,0,1,4.43.18c5.45,1.44,13.69,1.36,14.83,6.65,1.18,5.52-7.08,6.48-11.51,8.17-7.93,3-10.67,9-13,16.28-1,3.07-1.09,8.88-7.43,7.39-3.83-.92-7.51-.85-3.36-6.73,9.66-13.69,9.3-13.91-5.61-19.59-3.46-1.29-6.26-1.8-4-7.5,3-7.52,1.31-9.48-6.26-15.45-2.56,2.1.63,3.74.54,5.7-.13,2.74-.2,5.54-2.94,6.66-4.67,1.91-5.3-5.12-9.86-4.92-1.36,0-1.72-4.81.51-5.25,4.61-.89,1.83-3.39,1.18-4.5-2.67-4.52-6.92-8.53,0-13.38,1.89-1.36-.56-3.94-1.7-5.83-1.49-2.5-3.62-5.08-2.78-8.15,3.23-11.73-4.63-23.31-.2-35.09,2.58-6.9-2.51-14.47-2.09-19.19,1-11.33-5.88-13.44-12.76-17.14-.58.83-1.76,2.54-3,4.21s-3.18,3.85-5.38,2c-1.05-.87-1.54-3.85-.87-5.15,3.49-6.83,7.39-13.55,14.6-17.23,4.23-2.16,4.19,1.49,5.64,4,1.73,3,4.22,7.41,8.1,6.43,4.72-1.17,2-6.21,2.8-9.57,3.23-14.31.54-29.45,7.17-43.54,1.78-3.76.34-10.31.8-15.63.8-9.24,2.92-18.66,2.25-28-.09-1.52-1.71-3.14-3-4.26-3.62-3.09-2.56,1.63-3.76,2.54-4.36,3.32-7.66,3.79-10.24-2.16C28,508.77,29.44,495.86,37,483.84c2.07-3.34,2.87-6,1.18-8.86-6.19-10.44-6-22.46-8.8-33.73-1.4-5.67-3.16-11.44,5.75-13.4,3.69-.82,4.12-6,5.16-9.3C48.59,391.79,57,365,63.68,337.76c1.69-6.9.34-13-1-19.48-4.87-24.71-3-49.24,6.59-72.22,6.68-15.91,5.53-32.52,9-48.62,3-14.18,3.14-28.58,2.3-43-.63-10.78.42-20.93,5.56-30.95,3.79-7.37,3-15.76,2.18-24.53-1.82-18.28-3.51-36.69-4.07-55-.27-9.24,8.9-15.85,14.56-23,3.16-4,6.54-1.54,8.21,2.65,4.86,12.22,8.88,24.73,16.9,35.53,4.14,5.58.2,12.28-2.92,16-4.14,5-2,8.12.27,11.57,6.57,10,11.2,20.28,10.95,32.88-.09,5.46.16,12.83,10.44,13.58C150.12,133.73,148.79,153.41,140.31,158.91Z"/><path class="cls-2" d="M105.06,782.31c0,6.29.24,12.59-.06,18.86s-4.18,7.59-8.87,4.39c-3.29-2.26-5.8-5.25-10.25-5.81-2.44-.31-3.4-4-.86-4.65,8.51-2.05,4.42-6.05,2.6-10.42a6.76,6.76,0,0,1,2-8c2.76-2.37,2.49-4.37-1.35-5.16-5.06-1-4.24-5-2.85-7.65,2.83-5.52,8.94-5.8,14.2-7,4.16-.9,4.82,3.28,5,5.5.57,6.61.2,13.29.2,19.94Z"/><path class="cls-2" d="M25.3,549.77c.53-4,1.07-9.16,1.9-14.23.57-3.42.58-8.79,5-8.16,3.91.57,9.35,4.85,7.9,9.12-1.95,5.78-.47,11.7-2.52,17.08-1.31,3.42-2,9-7.4,7.84S24.18,555.59,25.3,549.77Z"/><path class="cls-2" d="M100.57,814.23c.61-1.26.81-2.51,1.5-2.91a3.85,3.85,0,0,1,5,1c3.77,4.67,6.71,10.08,13.52,11.29a3.26,3.26,0,0,1,2,4.5c-2.17,4.09-7.88,2-8.66,1.32C109,824.9,105,819.47,100.57,814.23Z"/><path class="cls-2" d="M58.18,778.33c0,4-1.94,5.94-3.1,5.41a40,40,0,0,1-12.42-8.62c-4.27-4.42,4.47-4,2.62-8.27-1.23-2.84,2.39-2.35,4.46-1.89C47.14,773,57.73,773.78,58.18,778.33Z"/><path class="cls-2" d="M118,816c-5.46,1.21-7.46-2.77-8.41-7.76-.6-3.15,1.83-4,4-3.34,4.27,1.31,10.61-.55,11.64,6.4C126,816.47,122.05,815.85,118,816Z"/><path class="cls-2" d="M8.83,658.63c5.45.18,7.28-4.17,10.85-6,2.28-1.15,3.55-6,7-2.75a8.91,8.91,0,0,1,2.75,8c-.18,1-.5,2-.75,3C22.92,654.54,15.54,667,8.83,658.63Z"/><path class="cls-2" d="M24.72,742.45c-2.49-7.32-6.34-14.48-1.09-21.75,1.09-1.52,2.36-3.27,4.36-2.5.94.35,2.17,2.79,1.81,3.31C25.51,727.88,28.42,735.85,24.72,742.45Z"/><path class="cls-2" d="M98.68,816.11c.73,3,0,4.42-2.38,4.28-5.3-.3-6-4.63-6.75-8.46-.38-1.91-.36-5.34,2.76-4.41C96.49,808.76,97.51,813.18,98.68,816.11Z"/><path class="cls-2" d="M82.76,787.83c-.54.37-1.48,1.12-1.56,1-3.33-3.36-9.52,4-11.69-3.09a3,3,0,0,1,1.07-2.63C75.47,781.57,78.85,785.48,82.76,787.83Z"/><path class="cls-2" d="M28.45,596.78c3.29-.38,6-5.06,9.28-2.15,1.42,1.24,1.23,4.27-.77,5.74C32.82,603.43,31.06,599.35,28.45,596.78Z"/><path class="cls-2" d="M68.36,759.21c-2.93,3.64-5.64,6.09-10,4.64-.85-.28-2.52-1.77-1.13-3.4C60.3,756.88,63.86,757.48,68.36,759.21Z"/><path class="cls-2" d="M35.45,766.81C30.76,765.3,28,762.59,27.37,756,31.61,759.63,38.22,759.14,35.45,766.81Z"/><path class="cls-2" d="M53.81,757.87c-.63,2.66-2.24,3.62-4.07,3.76-2.08.17-3.59-1-3.29-3.28.33-2.43,2.13-4.37,4.33-4.28C51.92,754.12,53,756.73,53.81,757.87Z"/><path class="cls-2" d="M27.18,681.42c-.22,1.42-.47,3.24-2.24,2.93-3.39-.58-3.36-4-4.22-6.4-.63-1.81,1.42-2.73,2.57-2.3C25.76,676.55,26.86,678.83,27.18,681.42Z"/><path class="cls-2" d="M29.28,698c-5.8-4.4-4.92-7.59-3.1-11.34C31.62,689.3,28.78,693.23,29.28,698Z"/><path class="cls-2" d="M79.8,794.82c-5.77,1.75-9.18,1.44-14.12-.33C71.18,790.16,74.34,793.19,79.8,794.82Z"/><path class="cls-2" d="M49.22,750.33c-1.18,1-2.36,2.77-3.86,3.12-2.47.57-2.81-1.5-2.64-3.48.2-2.17,1.25-3.28,3.56-2.94C48,747.29,48.72,748.42,49.22,750.33Z"/><path class="cls-2" d="M19,691.06c.05,2.28-.3,4.41-3,4.73-1.57.19-2.52-.77-2.52-2.54,0-2.22.23-4.51,2.55-5.3C18.76,687,18.32,689.75,19,691.06Z"/><path class="cls-2" d="M18.22,667.43c2.37-.63,3.61-5.09,7-2.08,1.57,1.38,1.29,2.3.07,4.23-2.56,4-4.66-3.25-6.72.14a1.45,1.45,0,0,1-.77-1.44C17.92,667.71,18.05,667.43,18.22,667.43Z"/><path class="cls-2" d="M18.22,667.43c.13.76.25,1.53.38,2.29-3.72,4.61-5.71.87-8.79-1.26A7.66,7.66,0,0,1,18.22,667.43Z"/><path class="cls-2" d="M21,710.47c-1,.92-2.06,2.58-3.1,2.59a2.58,2.58,0,0,1-2.59-3.61A4.73,4.73,0,0,1,18.44,707C20.61,706.65,20.22,708.77,21,710.47Z"/><path class="cls-2" d="M29.13,582.44c2.19.66,2.58,2.31,2.5,4.17a2.12,2.12,0,0,1-2.88,2.11c-1.63-.4-1.78-2-1.6-3.43C27.3,584,27.08,582.36,29.13,582.44Z"/><path class="cls-2" d="M38.27,746.45c0,2.62-1.56,2.87-2.89,2.6-1.72-.36-3.49-1.5-3.24-3.42.12-.93,2.27-2.52,2.88-2.28C36.48,743.94,38.41,744.74,38.27,746.45Z"/><path class="cls-2" d="M36.78,576.59c-.38,1.9-.45,3.76-2.49,2.9a4.69,4.69,0,0,1-2.5-3A2.11,2.11,0,0,1,34.4,574C35.45,574.36,36.14,575.85,36.78,576.59Z"/><path class="cls-2" d="M65,782.54c-.08-.14.84.8.69,1.52-.37,1.82-1.45,3.47-3.68,2.81a2.93,2.93,0,0,1-1.35-2.36C60.75,782.78,62.07,782.21,65,782.54Z"/><path class="cls-2" d="M36.84,757.8c-2.36.3-3.2-.72-3.65-2.19-.73-2.46,1.5-2,2.49-2.09,1.48-.21,2.85.56,2.44,2.41C37.94,756.75,37.11,757.42,36.84,757.8Z"/><path class="cls-2" d="M82.71,805.83c-.64.35-1.43,1.16-2.19,1.14-2-.07-3.16-1.5-3.8-3.23a4.22,4.22,0,0,1,2.22-1.23C80.86,802.41,82.41,803.13,82.71,805.83Z"/><path class="cls-2" d="M46.54,742.45c2.74-1.12,2.81-3.92,2.94-6.66.09-2-3.1-3.61-.54-5.7,7.57,6,9.27,7.92,6.26,15.45-2.27,5.7.53,6.21,4,7.5,14.91,5.68,15.27,5.9,5.61,19.59-4.15,5.88-.47,5.81,3.36,6.73,6.34,1.49,6.47-4.32,7.43-7.39,2.29-7.31,5-13.25,13-16.28C93,754,101.24,753,100.06,747.52c-1.14-5.3-9.38-5.21-14.83-6.65a21.71,21.71,0,0,0-4.43-.18c-18.74-.56-19.79-1.4-20.15-20.15-.11-5.68-.93-9.73-7.81-8.79-4.18.58-5.19-1.43-6.46-5.19-2.89-8.46,1-15,4.52-21.77,4-7.66,10.31-15.78,8.78-23.82-1.3-6.66,0-10.73,3.65-14.61,7-7.36,7.08-15.53,4.92-24.66-1.21-5.1-3.66-11,1.22-15.45,5.79-5.32,4-9.26-1.34-13.2-.31-.22,0-1.27,0-.76,1.31-4.92,7-.8,8-5.5-1.52-2.94-7-1.49-6.73-6.12.74-12.6-4.89-24-6.87-36C62,541.82,60,538.53,64,537c6.54-2.43,4.16-7.9,2.87-11.15-6.66-16.52-.07-32.06,2.49-47.91,1.78-1.47,2.72-3.54,3.88-5.46,1.33-1.93,3.09-3.49,4.56-5.32a12.16,12.16,0,0,0,2.54-5.39,15.17,15.17,0,0,0-.38-6.07v0a28.23,28.23,0,0,1-.91-4.23c-.16-1.05-.25-2.12-.31-3.21a32.29,32.29,0,0,0-.87-6.08,17.07,17.07,0,0,1-.78-3.09,16.56,16.56,0,0,1-.25-2.8,22.47,22.47,0,0,1,.32-4.41,33.45,33.45,0,0,1,1.09-4.66c0-.55.08-1.09.17-1.62C79.71,417.25,86,411,88.15,403a3.36,3.36,0,0,0-.94-2.85c0-.38-.07-.74-.1-1.11H46.47q-3.09,10-6.21,20c-1,3.33-1.47,8.48-5.16,9.3-8.91,2-7.15,7.73-5.75,13.4C32.14,453,32,465,38.15,475.42c1.69,2.85.89,5.52-1.18,8.86-7.53,12-9,24.93-3.12,38.35,2.58,6,5.88,5.48,10.24,2.16,1.2-.91.14-5.63,3.76-2.54,1.32,1.12,2.94,2.74,3,4.26.67,9.39-1.45,18.81-2.25,28-.46,5.32,1,11.86-.8,15.62-6.63,14.1-3.94,29.23-7.17,43.55-.75,3.36,1.92,8.39-2.8,9.57-3.88,1-6.37-3.42-8.1-6.43-1.45-2.52-1.41-6.17-5.64-4-7.21,3.67-11.11,10.4-14.6,17.23-.67,1.29-.18,4.28.87,5.14,2.2,1.83,4-.22,5.38-2s2.45-3.39,3-4.21c6.88,3.7,13.76,5.81,12.76,17.14-.42,4.72,4.67,12.29,2.09,19.19-4.43,11.78,3.43,23.35.2,35.09-.84,3.07,1.29,5.65,2.78,8.14,1.14,1.89,3.59,4.48,1.7,5.84-6.88,4.85-2.63,8.86,0,13.38.65,1.11,3.43,3.6-1.18,4.5-2.23.44-1.87,5.29-.51,5.25C41.24,737.33,41.87,744.36,46.54,742.45Z"/><path class="cls-3" d="M256.59,509.48a41.81,41.81,0,1,0-46,41.6v23h-15a4.19,4.19,0,0,0,0,8.37h15v14.4a4.18,4.18,0,0,0,8.36,0v-14.4h15.68a4.19,4.19,0,0,0,0-8.37H219v-23A41.87,41.87,0,0,0,256.59,509.48Zm-41.81,33.45a33.45,33.45,0,1,1,33.45-33.45A33.49,33.49,0,0,1,214.78,542.93Z"/><path class="cls-4" d="M253.19,253.59l29.65-29.66v21.61a5.26,5.26,0,0,0,10.51,0V211.25a5.21,5.21,0,0,0-.41-2,.43.43,0,0,0,0-.07,5.08,5.08,0,0,0-1.09-1.62,5.29,5.29,0,0,0-1.62-1.1l-.07,0a5.48,5.48,0,0,0-2-.4H253.81a5.26,5.26,0,1,0,0,10.51h21.6l-29.65,29.66a45,45,0,1,0,7.43,7.43ZM193.54,305.8a34.46,34.46,0,1,1,48.74,0A34.5,34.5,0,0,1,193.54,305.8Z"/></svg>