<svg id="Capa_1" data-name="Capa 1" xmlns="http://www.w3.org/2000/svg" viewBox="0 0 62.31 455.76"><defs><style>.cls-1,.cls-3{fill:#49ada9;}.cls-1,.cls-2{fill-rule:evenodd;}.cls-2,.cls-4{fill:#b3e6e0;}</style></defs><path class="cls-1" d="M59.06,64.9c-4.17,2.69-7.44,5.73-8.41,10.9A28.15,28.15,0,0,0,51,85.67c.48,3-.24,5.21-1.77,7.82C44.54,101.43,38.07,108.6,39.05,119c.37,3.86-4.79,5.88-5.49,10-.22,1.25-.94,2.6-.25,3.63,2.82,4.2,2.66,9.6,5.16,13.66,2.88,4.69,1.44,8.57.12,13s-4,8.72-3.38,13.73a1.51,1.51,0,0,1,.42,1.28c-1,3.59-3.79,6.42-4.35,10.18,0,.24-.06.48-.08.73a15.43,15.43,0,0,0-.49,2.09,10.1,10.1,0,0,0-.14,2,7.66,7.66,0,0,0,.11,1.26A8.09,8.09,0,0,0,31,192a14,14,0,0,1,.39,2.73c0,.49.07,1,.14,1.44A12.37,12.37,0,0,0,32,198h0a6.8,6.8,0,0,1,.17,2.73A5.47,5.47,0,0,1,31,203.19c-.66.82-1.45,1.52-2.05,2.39A8.81,8.81,0,0,1,27.21,208c-1.15,7.12-4.11,14.1-1.12,21.52.58,1.46,1.65,3.92-1.29,5-1.8.67-.92,2.15-.72,3.41.89,5.42,3.42,10.53,3.09,16.19-.12,2.08,2.34,1.43,3,2.75-.42,2.11-3,.26-3.57,2.47,0-.23-.12.24,0,.34,2.4,1.77,3.2,3.54.6,5.93-2.19,2-1.09,4.65-.55,6.94,1,4.1.93,7.77-2.21,11.08-1.66,1.74-2.22,3.57-1.64,6.56.69,3.61-2.13,7.26-3.94,10.7-1.6,3-3.33,6-2,9.78.57,1.69,1,2.59,2.9,2.33,3.09-.42,3.46,1.4,3.51,3.95.16,8.42.63,8.8,9,9.05a10.11,10.11,0,0,1,2,.08c2.45.65,6.15.61,6.66,3s-3.18,2.91-5.17,3.67c-3.56,1.36-4.79,4-5.82,7.31-.43,1.38-.49,4-3.34,3.32-1.72-.41-3.37-.38-1.51-3,4.34-6.15,4.18-6.25-2.52-8.8-1.55-.58-2.81-.81-1.79-3.37,1.35-3.38.59-4.26-2.81-6.94-1.15.94.28,1.68.24,2.56-.06,1.23-.09,2.49-1.32,3-2.1.86-2.38-2.3-4.43-2.21-.61,0-.77-2.16.23-2.36,2.07-.4.82-1.52.53-2-1.2-2-3.11-3.83,0-6,.85-.61-.25-1.77-.76-2.62-.67-1.12-1.63-2.28-1.25-3.66,1.45-5.27-2.08-10.47-.09-15.76,1.16-3.1-1.13-6.5-.94-8.62.45-5.09-2.64-6-5.73-7.7-.26.37-.79,1.14-1.36,1.89s-1.43,1.73-2.42.91a2.46,2.46,0,0,1-.39-2.31c1.57-3.07,3.32-6.09,6.56-7.74,1.9-1,1.88.67,2.53,1.8.78,1.35,1.9,3.33,3.64,2.89,2.12-.53.92-2.79,1.26-4.3,1.45-6.43.24-13.23,3.22-19.56.8-1.69.15-4.63.36-7,.36-4.15,1.31-8.38,1-12.6,0-.68-.77-1.41-1.36-1.91-1.63-1.39-1.15.73-1.69,1.14-2,1.49-3.44,1.7-4.6-1a17.62,17.62,0,0,1,1.4-17.23c.93-1.5,1.29-2.7.53-4-2.78-4.69-2.7-10.09-3.95-15.15-.63-2.55-1.42-5.14,2.58-6,1.66-.37,1.85-2.68,2.32-4.18,3.74-12,7.52-24,10.52-36.29.76-3.1.15-5.84-.43-8.75a55.12,55.12,0,0,1,3-32.44c3-7.15,2.48-14.61,4-21.84a71.44,71.44,0,0,0,1-19.31c-.28-4.84.19-9.4,2.5-13.9,1.7-3.31,1.37-7.08,1-11-.82-8.21-1.58-16.48-1.83-24.72-.12-4.15,4-7.12,6.54-10.35,1.42-1.8,2.94-.69,3.69,1.19,2.18,5.49,4,11.11,7.59,16,1.86,2.51.09,5.52-1.31,7.21-1.86,2.25-.89,3.65.12,5.2,3,4.51,5,9.11,4.92,14.77,0,2.45.07,5.76,4.69,6.1C63.47,53.59,62.87,62.43,59.06,64.9Z"/><path class="cls-1" d="M43.23,344.93c0,2.83.11,5.66,0,8.48s-1.88,3.41-4,2c-1.48-1-2.61-2.36-4.61-2.61-1.1-.14-1.53-1.81-.38-2.09,3.82-.92,2-2.72,1.16-4.68a3,3,0,0,1,.9-3.62c1.24-1.06,1.12-2-.6-2.31-2.28-.47-1.91-2.23-1.29-3.44,1.28-2.48,4-2.61,6.38-3.12C42.65,333.1,43,335,43,336c.26,3,.09,6,.09,9Z"/><path class="cls-1" d="M7.4,240.48c.23-1.82.48-4.12.85-6.39.26-1.54.26-4,2.24-3.67,1.75.26,4.2,2.18,3.55,4.1-.88,2.6-.21,5.25-1.13,7.67-.59,1.54-.9,4-3.33,3.52S6.9,243.09,7.4,240.48Z"/><path class="cls-1" d="M41.21,359.27c.27-.56.36-1.12.67-1.31a1.74,1.74,0,0,1,2.24.45c1.69,2.09,3,4.52,6.07,5.07a1.46,1.46,0,0,1,.9,2c-1,1.83-3.54.91-3.89.59A71.93,71.93,0,0,1,41.21,359.27Z"/><path class="cls-1" d="M22.17,343.15c0,1.78-.87,2.67-1.4,2.43a17.88,17.88,0,0,1-5.57-3.88c-1.92-2,2-1.8,1.17-3.71-.55-1.28,1.08-1.06,2-.85C17.21,340.77,22,341.11,22.17,343.15Z"/><path class="cls-1" d="M49.05,360.05c-2.46.54-3.35-1.25-3.78-3.49-.27-1.42.82-1.8,1.79-1.5,1.91.59,4.76-.25,5.23,2.88C52.63,360.28,50.86,360,49.05,360.05Z"/><path class="cls-1" d="M0,289.38c2.45.08,3.27-1.87,4.87-2.68,1-.51,1.6-2.68,3.15-1.23a4.05,4.05,0,0,1,1.24,3.61c-.09.46-.23.91-.34,1.37C6.33,287.54,3,293.15,0,289.38Z"/><path class="cls-1" d="M7.14,327c-1.12-3.29-2.85-6.5-.49-9.77.49-.69,1.06-1.47,2-1.12.42.16,1,1.25.81,1.48C7.49,320.49,8.8,324.07,7.14,327Z"/><path class="cls-1" d="M40.36,360.12c.33,1.34,0,2-1.07,1.92-2.38-.13-2.68-2.08-3-3.8-.17-.86-.16-2.4,1.24-2C39.38,356.82,39.84,358.8,40.36,360.12Z"/><path class="cls-1" d="M33.21,347.42c-.24.16-.66.5-.7.46-1.5-1.51-4.28,1.8-5.25-1.39a1.33,1.33,0,0,1,.48-1.18C29.93,344.6,31.45,346.36,33.21,347.42Z"/><path class="cls-1" d="M8.81,261.59c1.48-.17,2.69-2.27,4.17-1a1.77,1.77,0,0,1-.35,2.58C10.77,264.58,10,262.75,8.81,261.59Z"/><path class="cls-1" d="M26.74,334.56c-1.31,1.63-2.53,2.73-4.48,2.08-.38-.12-1.14-.79-.51-1.52C23.12,333.51,24.72,333.78,26.74,334.56Z"/><path class="cls-1" d="M12,338c-2.11-.67-3.34-1.89-3.63-4.85C10.23,334.74,13.2,334.53,12,338Z"/><path class="cls-1" d="M20.21,334a2,2,0,0,1-1.84,1.7c-.93.07-1.61-.45-1.47-1.48a2,2,0,0,1,1.94-1.92C19.36,332.27,19.82,333.44,20.21,334Z"/><path class="cls-1" d="M8.24,299.61c-.09.64-.21,1.46-1,1.32-1.53-.26-1.51-1.79-1.9-2.88-.28-.81.64-1.22,1.16-1A2.88,2.88,0,0,1,8.24,299.61Z"/><path class="cls-1" d="M9.18,307.07c-2.6-2-2.2-3.41-1.39-5.09C10.24,303.15,9,304.92,9.18,307.07Z"/><path class="cls-1" d="M31.88,350.55a8.73,8.73,0,0,1-6.34-.14C28,348.46,29.43,349.82,31.88,350.55Z"/><path class="cls-1" d="M18.14,330.57c-.53.45-1.06,1.24-1.73,1.4-1.11.26-1.26-.67-1.18-1.56s.56-1.48,1.59-1.32C17.59,329.2,17.92,329.71,18.14,330.57Z"/><path class="cls-1" d="M4.59,303.94c0,1-.14,2-1.35,2.13-.71.09-1.13-.35-1.13-1.14,0-1,.1-2,1.14-2.38C4.46,302.14,4.26,303.36,4.59,303.94Z"/><path class="cls-1" d="M4.22,293.33c1.06-.28,1.62-2.29,3.16-.94.7.62.57,1,0,1.91-1.15,1.82-2.1-1.46-3,.06a.66.66,0,0,1-.35-.65C4.08,293.46,4.14,293.33,4.22,293.33Z"/><path class="cls-1" d="M4.22,293.33c0,.34.11.69.17,1-1.67,2.07-2.56.39-3.95-.57A3.43,3.43,0,0,1,4.22,293.33Z"/><path class="cls-1" d="M5.45,312.66c-.47.42-.93,1.16-1.39,1.17a1.17,1.17,0,0,1-1.17-1.62,2.16,2.16,0,0,1,1.43-1.09C5.29,311,5.12,311.9,5.45,312.66Z"/><path class="cls-1" d="M9.12,255.15A1.6,1.6,0,0,1,10.24,257,.94.94,0,0,1,9,258c-.73-.18-.8-.88-.72-1.54S8.2,255.12,9.12,255.15Z"/><path class="cls-1" d="M13.22,328.83c0,1.17-.7,1.29-1.29,1.16-.78-.16-1.57-.67-1.46-1.53,0-.42,1-1.13,1.29-1C12.42,327.7,13.29,328.06,13.22,328.83Z"/><path class="cls-1" d="M12.55,252.52c-.16.86-.2,1.69-1.11,1.31a2.14,2.14,0,0,1-1.13-1.34,1,1,0,0,1,1.18-1.11C12,251.52,12.27,252.19,12.55,252.52Z"/><path class="cls-1" d="M25.24,345c0-.06.38.36.31.68-.17.82-.65,1.56-1.65,1.26a1.31,1.31,0,0,1-.61-1.06C23.32,345.15,23.92,344.89,25.24,345Z"/><path class="cls-1" d="M12.58,333.92a1.28,1.28,0,0,1-1.64-1c-.33-1.1.68-.88,1.12-.94.67-.09,1.28.26,1.1,1.09C13.08,333.45,12.7,333.76,12.58,333.92Z"/><path class="cls-1" d="M33.19,355.5c-.29.16-.65.52-1,.51a1.92,1.92,0,0,1-1.7-1.45,1.87,1.87,0,0,1,1-.55A1.46,1.46,0,0,1,33.19,355.5Z"/><path class="cls-2" d="M60.11,53.34c-4.62-.34-4.73-3.65-4.69-6.1.11-5.66-2-10.26-4.92-14.77-1-1.55-2-2.95-.12-5.2,1.4-1.69,3.17-4.7,1.31-7.21-3.6-4.85-5.41-10.47-7.59-16-.75-1.88-2.27-3-3.69-1.19-2.54,3.23-6.66,6.2-6.54,10.35.25,8.24,1,16.51,1.83,24.72.39,3.94.72,7.71-1,11-2.31,4.5-2.78,9.06-2.5,13.9a71.44,71.44,0,0,1-1,19.31c-1.54,7.23-1,14.69-4,21.84a55.12,55.12,0,0,0-3,32.44c.58,2.91,1.19,5.65.43,8.75-2.79,11.39-6.25,22.58-9.73,33.76h18.6a21.1,21.1,0,0,0,2.12-4.67,1.51,1.51,0,0,0-.42-1.28c-.66-5,2-9.23,3.38-13.73s2.76-8.29-.12-13c-2.5-4.06-2.34-9.46-5.16-13.66-.69-1,0-2.38.25-3.63.7-4.15,5.86-6.17,5.49-10-1-10.42,5.49-17.59,10.15-25.53,1.53-2.61,2.25-4.85,1.77-7.82a28.15,28.15,0,0,1-.32-9.87c1-5.17,4.24-8.21,8.41-10.9C62.87,62.43,63.47,53.59,60.11,53.34Z"/><path class="cls-3" d="M50.58,187.13a6,6,0,1,0-6.58,6v3.29H41.85a.6.6,0,0,0,0,1.2H44v2.06a.6.6,0,1,0,1.19,0v-2.06h2.25a.6.6,0,1,0,0-1.2H45.19v-3.29A6,6,0,0,0,50.58,187.13Zm-6,4.79a4.79,4.79,0,1,1,4.78-4.79A4.79,4.79,0,0,1,44.6,191.92Z"/><path class="cls-4" d="M49.61,165.82l4.06-4.06v3a.72.72,0,0,0,1.44,0V160a.92.92,0,0,0,0-.28h0a.62.62,0,0,0-.15-.22.86.86,0,0,0-.22-.15h0a.67.67,0,0,0-.28-.06h-4.7a.72.72,0,1,0,0,1.44h3l-4.06,4.07a6.13,6.13,0,1,0,1,1ZM41.43,173a4.72,4.72,0,1,1,6.68,0A4.73,4.73,0,0,1,41.43,173Z"/></svg>