<?xml version="1.0" encoding="utf-8"?>
<!-- Generator: Adobe Illustrator 24.0.2, SVG Export Plug-In . SVG Version: 6.00 Build 0)  -->
<svg version="1.1" id="Capa_1" xmlns="http://www.w3.org/2000/svg" xmlns:xlink="http://www.w3.org/1999/xlink" x="0px" y="0px"
	 viewBox="0 0 680 480" style="enable-background:new 0 0 680 480;" xml:space="preserve">
<style type="text/css">
	.st0{fill:#252525;}
	.st1{fill:none;stroke:#FF5757;stroke-miterlimit:10;}
	.st2{opacity:0.7;}
	.st3{fill:#FF5757;}
	.st4{fill:#FFFFFF;}
	.st5{opacity:0.6;}
	.st6{opacity:0.5;}
	.st7{opacity:0.4;}
	.st8{opacity:0.8;}
	.st9{opacity:0.9;}
	.st10{fill:none;stroke:#FFFFFF;stroke-width:3;stroke-miterlimit:10;}
</style>
<rect x="-1" y="1" class="st0" width="680" height="480"/>
<g>
	<line class="st1" x1="85.3" y1="134.9" x2="86.8" y2="134.9"/>
	<line class="st1" x1="164" y1="134.9" x2="165.5" y2="134.9"/>
	<line class="st1" x1="159.4" y1="134.9" x2="160.9" y2="134.9"/>
	<line class="st1" x1="154.7" y1="134.9" x2="156.3" y2="134.9"/>
	<line class="st1" x1="150.1" y1="134.9" x2="151.6" y2="134.9"/>
	<line class="st1" x1="145.5" y1="134.9" x2="147" y2="134.9"/>
	<line class="st1" x1="140.9" y1="134.9" x2="142.4" y2="134.9"/>
	<line class="st1" x1="136.2" y1="134.9" x2="137.7" y2="134.9"/>
	<line class="st1" x1="131.6" y1="134.9" x2="133.1" y2="134.9"/>
	<line class="st1" x1="127" y1="134.9" x2="128.5" y2="134.9"/>
	<line class="st1" x1="122.3" y1="134.9" x2="123.8" y2="134.9"/>
	<line class="st1" x1="117.7" y1="134.9" x2="119.2" y2="134.9"/>
	<line class="st1" x1="113.1" y1="134.9" x2="114.6" y2="134.9"/>
	<line class="st1" x1="108.4" y1="134.9" x2="109.9" y2="134.9"/>
	<line class="st1" x1="103.8" y1="134.9" x2="105.3" y2="134.9"/>
	<line class="st1" x1="99.2" y1="134.9" x2="100.7" y2="134.9"/>
	<line class="st1" x1="94.5" y1="134.9" x2="96" y2="134.9"/>
	<line class="st1" x1="89.9" y1="134.9" x2="91.4" y2="134.9"/>
	<line class="st1" x1="168.6" y1="134.9" x2="170.2" y2="134.9"/>
</g>
<g>
	<line class="st1" x1="499.3" y1="132.1" x2="500.8" y2="132"/>
	<line class="st1" x1="578" y1="128" x2="579.5" y2="127.9"/>
	<line class="st1" x1="573.3" y1="128.2" x2="574.8" y2="128.2"/>
	<line class="st1" x1="568.7" y1="128.5" x2="570.2" y2="128.4"/>
	<line class="st1" x1="564.1" y1="128.7" x2="565.6" y2="128.6"/>
	<line class="st1" x1="559.5" y1="129" x2="561" y2="128.9"/>
	<line class="st1" x1="554.8" y1="129.2" x2="556.3" y2="129.1"/>
	<line class="st1" x1="550.2" y1="129.4" x2="551.7" y2="129.4"/>
	<line class="st1" x1="545.6" y1="129.7" x2="547.1" y2="129.6"/>
	<line class="st1" x1="541" y1="129.9" x2="542.5" y2="129.9"/>
	<line class="st1" x1="536.3" y1="130.2" x2="537.8" y2="130.1"/>
	<line class="st1" x1="531.7" y1="130.4" x2="533.2" y2="130.3"/>
	<line class="st1" x1="527.1" y1="130.7" x2="528.6" y2="130.6"/>
	<line class="st1" x1="522.5" y1="130.9" x2="524" y2="130.8"/>
	<line class="st1" x1="517.8" y1="131.1" x2="519.3" y2="131.1"/>
	<line class="st1" x1="513.2" y1="131.4" x2="514.7" y2="131.3"/>
	<line class="st1" x1="508.6" y1="131.6" x2="510.1" y2="131.6"/>
	<line class="st1" x1="504" y1="131.9" x2="505.5" y2="131.8"/>
	<line class="st1" x1="582.6" y1="127.8" x2="584.1" y2="127.7"/>
</g>
<g>
	<line class="st1" x1="415.3" y1="131.9" x2="416.8" y2="131.9"/>
	<line class="st1" x1="494" y1="131.9" x2="495.5" y2="131.9"/>
	<line class="st1" x1="489.4" y1="131.9" x2="490.9" y2="131.9"/>
	<line class="st1" x1="484.7" y1="131.9" x2="486.3" y2="131.9"/>
	<line class="st1" x1="480.1" y1="131.9" x2="481.6" y2="131.9"/>
	<line class="st1" x1="475.5" y1="131.9" x2="477" y2="131.9"/>
	<line class="st1" x1="470.9" y1="131.9" x2="472.4" y2="131.9"/>
	<line class="st1" x1="466.2" y1="131.9" x2="467.7" y2="131.9"/>
	<line class="st1" x1="461.6" y1="131.9" x2="463.1" y2="131.9"/>
	<line class="st1" x1="457" y1="131.9" x2="458.5" y2="131.9"/>
	<line class="st1" x1="452.3" y1="131.9" x2="453.8" y2="131.9"/>
	<line class="st1" x1="447.7" y1="131.9" x2="449.2" y2="131.9"/>
	<line class="st1" x1="443.1" y1="131.9" x2="444.6" y2="131.9"/>
	<line class="st1" x1="438.4" y1="131.9" x2="439.9" y2="131.9"/>
	<line class="st1" x1="433.8" y1="131.9" x2="435.3" y2="131.9"/>
	<line class="st1" x1="429.2" y1="131.9" x2="430.7" y2="131.9"/>
	<line class="st1" x1="424.5" y1="131.9" x2="426" y2="131.9"/>
	<line class="st1" x1="419.9" y1="131.9" x2="421.4" y2="131.9"/>
	<line class="st1" x1="498.6" y1="131.9" x2="500.2" y2="131.9"/>
</g>
<g>
	<line class="st1" x1="333.3" y1="131.9" x2="334.8" y2="131.9"/>
	<line class="st1" x1="412" y1="131.9" x2="413.5" y2="131.9"/>
	<line class="st1" x1="407.4" y1="131.9" x2="408.9" y2="131.9"/>
	<line class="st1" x1="402.7" y1="131.9" x2="404.3" y2="131.9"/>
	<line class="st1" x1="398.1" y1="131.9" x2="399.6" y2="131.9"/>
	<line class="st1" x1="393.5" y1="131.9" x2="395" y2="131.9"/>
	<line class="st1" x1="388.9" y1="131.9" x2="390.4" y2="131.9"/>
	<line class="st1" x1="384.2" y1="131.9" x2="385.7" y2="131.9"/>
	<line class="st1" x1="379.6" y1="131.9" x2="381.1" y2="131.9"/>
	<line class="st1" x1="375" y1="131.9" x2="376.5" y2="131.9"/>
	<line class="st1" x1="370.3" y1="131.9" x2="371.8" y2="131.9"/>
	<line class="st1" x1="365.7" y1="131.9" x2="367.2" y2="131.9"/>
	<line class="st1" x1="361.1" y1="131.9" x2="362.6" y2="131.9"/>
	<line class="st1" x1="356.4" y1="131.9" x2="357.9" y2="131.9"/>
	<line class="st1" x1="351.8" y1="131.9" x2="353.3" y2="131.9"/>
	<line class="st1" x1="347.2" y1="131.9" x2="348.7" y2="131.9"/>
	<line class="st1" x1="342.5" y1="131.9" x2="344" y2="131.9"/>
	<line class="st1" x1="337.9" y1="131.9" x2="339.4" y2="131.9"/>
	<line class="st1" x1="416.6" y1="131.9" x2="418.2" y2="131.9"/>
</g>
<g>
	<line class="st1" x1="246.3" y1="136.1" x2="247.8" y2="136"/>
	<line class="st1" x1="325" y1="132" x2="326.5" y2="131.9"/>
	<line class="st1" x1="320.3" y1="132.2" x2="321.8" y2="132.2"/>
	<line class="st1" x1="315.7" y1="132.5" x2="317.2" y2="132.4"/>
	<line class="st1" x1="311.1" y1="132.7" x2="312.6" y2="132.6"/>
	<line class="st1" x1="306.5" y1="133" x2="308" y2="132.9"/>
	<line class="st1" x1="301.8" y1="133.2" x2="303.3" y2="133.1"/>
	<line class="st1" x1="297.2" y1="133.4" x2="298.7" y2="133.4"/>
	<line class="st1" x1="292.6" y1="133.7" x2="294.1" y2="133.6"/>
	<line class="st1" x1="288" y1="133.9" x2="289.5" y2="133.9"/>
	<line class="st1" x1="283.3" y1="134.2" x2="284.8" y2="134.1"/>
	<line class="st1" x1="278.7" y1="134.4" x2="280.2" y2="134.3"/>
	<line class="st1" x1="274.1" y1="134.7" x2="275.6" y2="134.6"/>
	<line class="st1" x1="269.5" y1="134.9" x2="271" y2="134.8"/>
	<line class="st1" x1="264.8" y1="135.1" x2="266.3" y2="135.1"/>
	<line class="st1" x1="260.2" y1="135.4" x2="261.7" y2="135.3"/>
	<line class="st1" x1="255.6" y1="135.6" x2="257.1" y2="135.6"/>
	<line class="st1" x1="251" y1="135.9" x2="252.5" y2="135.8"/>
	<line class="st1" x1="329.6" y1="131.8" x2="331.1" y2="131.7"/>
</g>
<g>
	<line class="st1" x1="166.3" y1="134.9" x2="167.8" y2="134.9"/>
	<line class="st1" x1="245" y1="134.9" x2="246.5" y2="134.9"/>
	<line class="st1" x1="240.4" y1="134.9" x2="241.9" y2="134.9"/>
	<line class="st1" x1="235.7" y1="134.9" x2="237.3" y2="134.9"/>
	<line class="st1" x1="231.1" y1="134.9" x2="232.6" y2="134.9"/>
	<line class="st1" x1="226.5" y1="134.9" x2="228" y2="134.9"/>
	<line class="st1" x1="221.9" y1="134.9" x2="223.4" y2="134.9"/>
	<line class="st1" x1="217.2" y1="134.9" x2="218.7" y2="134.9"/>
	<line class="st1" x1="212.6" y1="134.9" x2="214.1" y2="134.9"/>
	<line class="st1" x1="208" y1="134.9" x2="209.5" y2="134.9"/>
	<line class="st1" x1="203.3" y1="134.9" x2="204.8" y2="134.9"/>
	<line class="st1" x1="198.7" y1="134.9" x2="200.2" y2="134.9"/>
	<line class="st1" x1="194.1" y1="134.9" x2="195.6" y2="134.9"/>
	<line class="st1" x1="189.4" y1="134.9" x2="190.9" y2="134.9"/>
	<line class="st1" x1="184.8" y1="134.9" x2="186.3" y2="134.9"/>
	<line class="st1" x1="180.2" y1="134.9" x2="181.7" y2="134.9"/>
	<line class="st1" x1="175.5" y1="134.9" x2="177" y2="134.9"/>
	<line class="st1" x1="170.9" y1="134.9" x2="172.4" y2="134.9"/>
	<line class="st1" x1="249.6" y1="134.9" x2="251.2" y2="134.9"/>
</g>
<g class="st2">
	<rect x="320" y="183.7" class="st3" width="30" height="224"/>
	<polygon class="st3" points="335,169.1 320,184.1 350,184.1 	"/>
</g>
<g>
	<g>
		<path class="st4" d="M326.3,160.1c-0.6,0-1.1-0.1-1.6-0.3c-0.5-0.2-0.9-0.5-1.2-0.9s-0.4-0.9-0.4-1.5h1.2c0,0.6,0.2,1,0.6,1.3
			c0.4,0.3,0.9,0.4,1.5,0.4c0.7,0,1.2-0.2,1.6-0.6c0.4-0.4,0.6-0.9,0.6-1.5c0-1.2-0.8-1.8-2.3-1.8h-2.5l0.4-4.6h5.2v1.1h-4.3
			l0.2-0.4l-0.3,3.3l-0.1-0.1c0.2-0.1,0.5-0.1,0.8-0.1c0.3,0,0.6,0,0.8,0c1,0,1.8,0.2,2.4,0.7c0.6,0.5,0.9,1.1,0.9,2
			c0,0.6-0.1,1.2-0.4,1.6c-0.3,0.5-0.7,0.9-1.2,1.2C327.6,160,327,160.1,326.3,160.1z"/>
		<path class="st4" d="M335,160.1c-0.8,0-1.4-0.2-2-0.6s-1-1-1.3-1.7s-0.5-1.5-0.5-2.4c0-1.1,0.2-2,0.5-2.7c0.3-0.8,0.8-1.3,1.4-1.7
			s1.3-0.6,2.1-0.6c0.6,0,1.1,0.1,1.5,0.3c0.4,0.2,0.8,0.5,1,0.9c0.3,0.4,0.4,0.8,0.5,1.3h-1.3c-0.1-0.5-0.2-0.8-0.5-1.1
			c-0.3-0.3-0.7-0.4-1.2-0.4c-0.9,0-1.5,0.4-2,1.1c-0.5,0.7-0.7,1.8-0.7,3c0,0.2,0,0.4,0,0.6c0,0.2,0,0.5,0.1,0.7
			c0-0.7,0.2-1.2,0.5-1.6c0.3-0.4,0.6-0.7,1-0.8c0.4-0.2,0.8-0.2,1.3-0.2c0.6,0,1.1,0.1,1.5,0.4s0.8,0.6,1.1,1
			c0.3,0.4,0.4,1,0.4,1.5c0,0.6-0.1,1.1-0.4,1.5s-0.6,0.8-1.1,1C336.2,160,335.6,160.1,335,160.1z M335,159c0.6,0,1-0.2,1.4-0.5
			s0.6-0.8,0.6-1.4c0-0.6-0.2-1-0.6-1.4s-0.8-0.5-1.4-0.5c-0.4,0-0.7,0.1-1,0.2c-0.3,0.2-0.5,0.4-0.7,0.7c-0.2,0.3-0.3,0.6-0.3,1
			c0,0.6,0.2,1,0.6,1.4S334.4,159,335,159z"/>
		<path class="st4" d="M341.9,154.6c-0.3,0-0.6-0.1-0.9-0.2c-0.3-0.2-0.5-0.4-0.7-0.7s-0.3-0.7-0.3-1.2s0.1-0.9,0.3-1.2
			s0.4-0.6,0.7-0.7c0.3-0.2,0.6-0.2,0.9-0.2c0.3,0,0.7,0.1,1,0.2s0.5,0.4,0.7,0.7c0.2,0.3,0.3,0.7,0.3,1.2s-0.1,0.9-0.3,1.2
			c-0.2,0.3-0.4,0.6-0.7,0.7S342.2,154.6,341.9,154.6z M340.7,159.9l6.3-9.4h1.2l-6.3,9.4H340.7z M341.9,153.8
			c0.3,0,0.5-0.1,0.7-0.3c0.2-0.2,0.3-0.6,0.3-1s-0.1-0.8-0.3-1c-0.2-0.2-0.4-0.3-0.7-0.3c-0.3,0-0.5,0.1-0.7,0.3s-0.3,0.6-0.3,1
			s0.1,0.8,0.3,1C341.4,153.7,341.6,153.8,341.9,153.8z M347.2,160.1c-0.3,0-0.6-0.1-0.9-0.2c-0.3-0.2-0.5-0.4-0.7-0.7
			c-0.2-0.3-0.3-0.7-0.3-1.2c0-0.5,0.1-0.9,0.3-1.2c0.2-0.3,0.4-0.6,0.7-0.7c0.3-0.2,0.6-0.2,0.9-0.2c0.3,0,0.7,0.1,1,0.2
			c0.3,0.2,0.5,0.4,0.7,0.7c0.2,0.3,0.3,0.7,0.3,1.2c0,0.5-0.1,0.9-0.3,1.2s-0.4,0.6-0.7,0.7C347.8,160,347.5,160.1,347.2,160.1z
			 M347.2,159.3c0.3,0,0.5-0.1,0.7-0.3s0.3-0.6,0.3-1c0-0.5-0.1-0.8-0.3-1c-0.2-0.2-0.4-0.3-0.7-0.3c-0.3,0-0.5,0.1-0.7,0.3
			c-0.2,0.2-0.3,0.6-0.3,1c0,0.5,0.1,0.8,0.3,1S346.9,159.3,347.2,159.3z"/>
	</g>
</g>
<circle class="st4" cx="336" cy="132.1" r="4"/>
<g class="st5">
	<rect x="233" y="187.7" class="st3" width="30" height="220"/>
	<polygon class="st3" points="248,173.1 233,188.1 263,188.1 	"/>
</g>
<g>
	<g>
		<path class="st4" d="M238.7,163.8c-0.6,0-1.1-0.1-1.6-0.3c-0.5-0.2-0.9-0.5-1.2-0.9s-0.4-0.9-0.4-1.5h1.2c0,0.6,0.2,1,0.6,1.3
			c0.4,0.3,0.9,0.4,1.5,0.4c0.7,0,1.2-0.2,1.6-0.6c0.4-0.4,0.6-0.9,0.6-1.5c0-1.2-0.8-1.8-2.3-1.8H236l0.4-4.6h5.2v1.1h-4.3l0.2-0.4
			l-0.3,3.3l-0.1-0.1c0.2-0.1,0.5-0.1,0.8-0.1c0.3,0,0.6,0,0.8,0c1,0,1.8,0.2,2.4,0.7c0.6,0.5,0.9,1.1,0.9,2c0,0.6-0.1,1.2-0.4,1.6
			c-0.3,0.5-0.7,0.9-1.2,1.2C240,163.6,239.4,163.8,238.7,163.8z"/>
		<path class="st4" d="M247.2,163.8c-0.6,0-1.1-0.1-1.6-0.3c-0.5-0.2-0.9-0.5-1.2-0.9s-0.4-0.9-0.4-1.5h1.2c0,0.6,0.2,1,0.6,1.3
			c0.4,0.3,0.9,0.4,1.5,0.4c0.7,0,1.2-0.2,1.6-0.6c0.4-0.4,0.6-0.9,0.6-1.5c0-1.2-0.8-1.8-2.3-1.8h-2.5l0.4-4.6h5.2v1.1h-4.3
			l0.2-0.4l-0.3,3.3l-0.1-0.1c0.2-0.1,0.5-0.1,0.8-0.1c0.3,0,0.6,0,0.8,0c1,0,1.8,0.2,2.4,0.7c0.6,0.5,0.9,1.1,0.9,2
			c0,0.6-0.1,1.2-0.4,1.6c-0.3,0.5-0.7,0.9-1.2,1.2C248.5,163.6,247.9,163.8,247.2,163.8z"/>
		<path class="st4" d="M254.2,158.3c-0.3,0-0.6-0.1-0.9-0.2c-0.3-0.2-0.5-0.4-0.7-0.7s-0.3-0.7-0.3-1.2s0.1-0.9,0.3-1.2
			s0.4-0.6,0.7-0.7c0.3-0.2,0.6-0.2,0.9-0.2c0.3,0,0.7,0.1,1,0.2s0.5,0.4,0.7,0.7c0.2,0.3,0.3,0.7,0.3,1.2s-0.1,0.9-0.3,1.2
			c-0.2,0.3-0.4,0.6-0.7,0.7S254.6,158.3,254.2,158.3z M253.1,163.6l6.3-9.4h1.2l-6.3,9.4H253.1z M254.2,157.5
			c0.3,0,0.5-0.1,0.7-0.3c0.2-0.2,0.3-0.6,0.3-1s-0.1-0.8-0.3-1c-0.2-0.2-0.4-0.3-0.7-0.3c-0.3,0-0.5,0.1-0.7,0.3
			c-0.2,0.2-0.3,0.6-0.3,1s0.1,0.8,0.3,1C253.7,157.4,253.9,157.5,254.2,157.5z M259.5,163.7c-0.3,0-0.6-0.1-0.9-0.2
			c-0.3-0.2-0.5-0.4-0.7-0.7s-0.3-0.7-0.3-1.2c0-0.5,0.1-0.9,0.3-1.2c0.2-0.3,0.4-0.6,0.7-0.7c0.3-0.2,0.6-0.2,0.9-0.2
			c0.3,0,0.7,0.1,1,0.2c0.3,0.2,0.5,0.4,0.7,0.7c0.2,0.3,0.3,0.7,0.3,1.2c0,0.5-0.1,0.9-0.3,1.2c-0.2,0.3-0.4,0.6-0.7,0.7
			C260.1,163.7,259.8,163.7,259.5,163.7z M259.5,162.9c0.3,0,0.5-0.1,0.7-0.3s0.3-0.6,0.3-1c0-0.5-0.1-0.8-0.3-1
			c-0.2-0.2-0.4-0.3-0.7-0.3c-0.3,0-0.5,0.1-0.7,0.3c-0.2,0.2-0.3,0.6-0.3,1c0,0.5,0.1,0.8,0.3,1C259,162.8,259.2,162.9,259.5,162.9
			z"/>
	</g>
</g>
<circle class="st4" cx="248.4" cy="135.1" r="4"/>
<g class="st6">
	<rect x="155" y="187.7" class="st3" width="30" height="220"/>
	<polygon class="st3" points="170,173.1 155,188.1 185,188.1 	"/>
</g>
<g>
	<g>
		<path class="st4" d="M159.7,163.8c-0.6,0-1.1-0.1-1.6-0.3c-0.5-0.2-0.9-0.5-1.2-0.9s-0.4-0.9-0.4-1.5h1.2c0,0.6,0.2,1,0.6,1.3
			c0.4,0.3,0.9,0.4,1.5,0.4c0.7,0,1.2-0.2,1.6-0.6c0.4-0.4,0.6-0.9,0.6-1.5c0-1.2-0.8-1.8-2.3-1.8H157l0.4-4.6h5.2v1.1h-4.3l0.2-0.4
			l-0.3,3.3l-0.1-0.1c0.2-0.1,0.5-0.1,0.8-0.1c0.3,0,0.6,0,0.8,0c1,0,1.8,0.2,2.4,0.7c0.6,0.5,0.9,1.1,0.9,2c0,0.6-0.1,1.2-0.4,1.6
			c-0.3,0.5-0.7,0.9-1.2,1.2C161,163.6,160.4,163.8,159.7,163.8z"/>
		<path class="st4" d="M168.2,163.8c-0.6,0-1.1-0.1-1.6-0.3c-0.5-0.2-0.9-0.5-1.2-0.9s-0.4-0.9-0.4-1.5h1.2c0,0.6,0.2,1,0.6,1.3
			c0.4,0.3,0.9,0.4,1.5,0.4c0.7,0,1.2-0.2,1.6-0.6c0.4-0.4,0.6-0.9,0.6-1.5c0-1.2-0.8-1.8-2.3-1.8h-2.5l0.4-4.6h5.2v1.1h-4.3
			l0.2-0.4l-0.3,3.3l-0.1-0.1c0.2-0.1,0.5-0.1,0.8-0.1c0.3,0,0.6,0,0.8,0c1,0,1.8,0.2,2.4,0.7c0.6,0.5,0.9,1.1,0.9,2
			c0,0.6-0.1,1.2-0.4,1.6c-0.3,0.5-0.7,0.9-1.2,1.2C169.5,163.6,168.9,163.8,168.2,163.8z"/>
		<path class="st4" d="M175.2,158.3c-0.3,0-0.6-0.1-0.9-0.2c-0.3-0.2-0.5-0.4-0.7-0.7s-0.3-0.7-0.3-1.2s0.1-0.9,0.3-1.2
			s0.4-0.6,0.7-0.7c0.3-0.2,0.6-0.2,0.9-0.2c0.3,0,0.7,0.1,1,0.2s0.5,0.4,0.7,0.7c0.2,0.3,0.3,0.7,0.3,1.2s-0.1,0.9-0.3,1.2
			c-0.2,0.3-0.4,0.6-0.7,0.7S175.6,158.3,175.2,158.3z M174.1,163.6l6.3-9.4h1.2l-6.3,9.4H174.1z M175.2,157.5
			c0.3,0,0.5-0.1,0.7-0.3c0.2-0.2,0.3-0.6,0.3-1s-0.1-0.8-0.3-1c-0.2-0.2-0.4-0.3-0.7-0.3c-0.3,0-0.5,0.1-0.7,0.3
			c-0.2,0.2-0.3,0.6-0.3,1s0.1,0.8,0.3,1C174.7,157.4,174.9,157.5,175.2,157.5z M180.5,163.7c-0.3,0-0.6-0.1-0.9-0.2
			c-0.3-0.2-0.5-0.4-0.7-0.7s-0.3-0.7-0.3-1.2c0-0.5,0.1-0.9,0.3-1.2c0.2-0.3,0.4-0.6,0.7-0.7c0.3-0.2,0.6-0.2,0.9-0.2
			c0.3,0,0.7,0.1,1,0.2c0.3,0.2,0.5,0.4,0.7,0.7c0.2,0.3,0.3,0.7,0.3,1.2c0,0.5-0.1,0.9-0.3,1.2c-0.2,0.3-0.4,0.6-0.7,0.7
			C181.1,163.7,180.8,163.7,180.5,163.7z M180.5,162.9c0.3,0,0.5-0.1,0.7-0.3s0.3-0.6,0.3-1c0-0.5-0.1-0.8-0.3-1
			c-0.2-0.2-0.4-0.3-0.7-0.3c-0.3,0-0.5,0.1-0.7,0.3c-0.2,0.2-0.3,0.6-0.3,1c0,0.5,0.1,0.8,0.3,1C180,162.8,180.2,162.9,180.5,162.9
			z"/>
	</g>
</g>
<circle class="st4" cx="169.4" cy="135.1" r="4"/>
<g class="st7">
	<rect x="71" y="187.7" class="st3" width="30" height="220"/>
	<polygon class="st3" points="86,173.1 71,188.1 101,188.1 	"/>
</g>
<g>
	<g>
		<path class="st4" d="M76.7,163.8c-0.6,0-1.1-0.1-1.6-0.3c-0.5-0.2-0.9-0.5-1.2-0.9s-0.4-0.9-0.4-1.5h1.2c0,0.6,0.2,1,0.6,1.3
			c0.4,0.3,0.9,0.4,1.5,0.4c0.7,0,1.2-0.2,1.6-0.6c0.4-0.4,0.6-0.9,0.6-1.5c0-1.2-0.8-1.8-2.3-1.8H74l0.4-4.6h5.2v1.1h-4.3l0.2-0.4
			l-0.3,3.3l-0.1-0.1c0.2-0.1,0.5-0.1,0.8-0.1c0.3,0,0.6,0,0.8,0c1,0,1.8,0.2,2.4,0.7c0.6,0.5,0.9,1.1,0.9,2c0,0.6-0.1,1.2-0.4,1.6
			c-0.3,0.5-0.7,0.9-1.2,1.2C78,163.6,77.4,163.8,76.7,163.8z"/>
		<path class="st4" d="M85.2,163.8c-0.6,0-1.1-0.1-1.6-0.3c-0.5-0.2-0.9-0.5-1.2-0.9s-0.4-0.9-0.4-1.5h1.2c0,0.6,0.2,1,0.6,1.3
			c0.4,0.3,0.9,0.4,1.5,0.4c0.7,0,1.2-0.2,1.6-0.6c0.4-0.4,0.6-0.9,0.6-1.5c0-1.2-0.8-1.8-2.3-1.8h-2.5l0.4-4.6h5.2v1.1h-4.3
			l0.2-0.4l-0.3,3.3l-0.1-0.1c0.2-0.1,0.5-0.1,0.8-0.1c0.3,0,0.6,0,0.8,0c1,0,1.8,0.2,2.4,0.7c0.6,0.5,0.9,1.1,0.9,2
			c0,0.6-0.1,1.2-0.4,1.6c-0.3,0.5-0.7,0.9-1.2,1.2C86.5,163.6,85.9,163.8,85.2,163.8z"/>
		<path class="st4" d="M92.2,158.3c-0.3,0-0.6-0.1-0.9-0.2c-0.3-0.2-0.5-0.4-0.7-0.7s-0.3-0.7-0.3-1.2s0.1-0.9,0.3-1.2
			s0.4-0.6,0.7-0.7c0.3-0.2,0.6-0.2,0.9-0.2c0.3,0,0.7,0.1,1,0.2s0.5,0.4,0.7,0.7c0.2,0.3,0.3,0.7,0.3,1.2s-0.1,0.9-0.3,1.2
			c-0.2,0.3-0.4,0.6-0.7,0.7S92.6,158.3,92.2,158.3z M91.1,163.6l6.3-9.4h1.2l-6.3,9.4H91.1z M92.2,157.5c0.3,0,0.5-0.1,0.7-0.3
			c0.2-0.2,0.3-0.6,0.3-1s-0.1-0.8-0.3-1c-0.2-0.2-0.4-0.3-0.7-0.3c-0.3,0-0.5,0.1-0.7,0.3c-0.2,0.2-0.3,0.6-0.3,1s0.1,0.8,0.3,1
			C91.7,157.4,91.9,157.5,92.2,157.5z M97.5,163.7c-0.3,0-0.6-0.1-0.9-0.2c-0.3-0.2-0.5-0.4-0.7-0.7s-0.3-0.7-0.3-1.2
			c0-0.5,0.1-0.9,0.3-1.2c0.2-0.3,0.4-0.6,0.7-0.7c0.3-0.2,0.6-0.2,0.9-0.2c0.3,0,0.7,0.1,1,0.2c0.3,0.2,0.5,0.4,0.7,0.7
			c0.2,0.3,0.3,0.7,0.3,1.2c0,0.5-0.1,0.9-0.3,1.2c-0.2,0.3-0.4,0.6-0.7,0.7C98.1,163.7,97.8,163.7,97.5,163.7z M97.5,162.9
			c0.3,0,0.5-0.1,0.7-0.3s0.3-0.6,0.3-1c0-0.5-0.1-0.8-0.3-1c-0.2-0.2-0.4-0.3-0.7-0.3c-0.3,0-0.5,0.1-0.7,0.3
			c-0.2,0.2-0.3,0.6-0.3,1c0,0.5,0.1,0.8,0.3,1C97,162.8,97.2,162.9,97.5,162.9z"/>
	</g>
</g>
<circle class="st4" cx="86.4" cy="135.1" r="4"/>
<g class="st8">
	<rect x="402" y="183.7" class="st3" width="30" height="224"/>
	<polygon class="st3" points="417,168.9 402,183.9 432,183.9 	"/>
</g>
<g>
	<g>
		<path class="st4" d="M407.7,160c-0.6,0-1.1-0.1-1.6-0.3s-0.9-0.5-1.2-0.9s-0.4-0.9-0.4-1.5h1.2c0,0.6,0.2,1,0.6,1.3
			s0.9,0.4,1.5,0.4c0.7,0,1.2-0.2,1.6-0.6c0.4-0.4,0.6-0.9,0.6-1.5c0-1.2-0.8-1.8-2.3-1.8H405l0.4-4.6h5.2v1.1h-4.3l0.2-0.4
			l-0.3,3.3l-0.1-0.1c0.2-0.1,0.5-0.1,0.8-0.1s0.6,0,0.8,0c1,0,1.8,0.2,2.4,0.7c0.6,0.5,0.9,1.1,0.9,2c0,0.6-0.1,1.2-0.4,1.6
			c-0.3,0.5-0.7,0.9-1.2,1.2C409,159.8,408.4,160,407.7,160z"/>
		<path class="st4" d="M416.5,160c-0.8,0-1.4-0.2-2-0.6s-1-1-1.3-1.7s-0.5-1.5-0.5-2.4c0-1.1,0.2-2,0.5-2.7c0.3-0.8,0.8-1.3,1.4-1.7
			s1.3-0.6,2.1-0.6c0.6,0,1.1,0.1,1.5,0.3c0.4,0.2,0.8,0.5,1,0.9c0.3,0.4,0.4,0.8,0.5,1.3h-1.3c-0.1-0.5-0.2-0.8-0.5-1.1
			c-0.3-0.3-0.7-0.4-1.2-0.4c-0.9,0-1.5,0.4-2,1.1c-0.5,0.7-0.7,1.8-0.7,3c0,0.2,0,0.4,0,0.6s0,0.5,0.1,0.7c0-0.7,0.2-1.2,0.5-1.6
			c0.3-0.4,0.6-0.7,1-0.8c0.4-0.2,0.8-0.2,1.3-0.2c0.6,0,1.1,0.1,1.5,0.4c0.5,0.3,0.8,0.6,1.1,1c0.3,0.4,0.4,1,0.4,1.5
			c0,0.6-0.1,1.1-0.4,1.5s-0.6,0.8-1.1,1C417.7,159.8,417.1,160,416.5,160z M416.5,158.9c0.6,0,1-0.2,1.4-0.5s0.6-0.8,0.6-1.4
			c0-0.6-0.2-1-0.6-1.4s-0.8-0.5-1.4-0.5c-0.4,0-0.7,0.1-1,0.2s-0.5,0.4-0.7,0.7c-0.2,0.3-0.3,0.6-0.3,1c0,0.6,0.2,1,0.6,1.4
			S415.9,158.9,416.5,158.9z"/>
		<path class="st4" d="M423.4,154.5c-0.3,0-0.6-0.1-0.9-0.2c-0.3-0.2-0.5-0.4-0.7-0.7c-0.2-0.3-0.3-0.7-0.3-1.2s0.1-0.9,0.3-1.2
			c0.2-0.3,0.4-0.6,0.7-0.7c0.3-0.2,0.6-0.2,0.9-0.2c0.3,0,0.7,0.1,1,0.2s0.5,0.4,0.7,0.7s0.3,0.7,0.3,1.2s-0.1,0.9-0.3,1.2
			s-0.4,0.6-0.7,0.7S423.7,154.5,423.4,154.5z M422.2,159.8l6.3-9.4h1.2l-6.3,9.4H422.2z M423.4,153.7c0.3,0,0.5-0.1,0.7-0.3
			c0.2-0.2,0.3-0.6,0.3-1s-0.1-0.8-0.3-1s-0.4-0.3-0.7-0.3c-0.3,0-0.5,0.1-0.7,0.3c-0.2,0.2-0.3,0.6-0.3,1s0.1,0.8,0.3,1
			C422.8,153.6,423.1,153.7,423.4,153.7z M428.6,159.9c-0.3,0-0.6-0.1-0.9-0.2c-0.3-0.2-0.5-0.4-0.7-0.7c-0.2-0.3-0.3-0.7-0.3-1.2
			c0-0.5,0.1-0.9,0.3-1.2c0.2-0.3,0.4-0.6,0.7-0.7c0.3-0.2,0.6-0.2,0.9-0.2c0.3,0,0.7,0.1,1,0.2s0.5,0.4,0.7,0.7
			c0.2,0.3,0.3,0.7,0.3,1.2c0,0.5-0.1,0.9-0.3,1.2c-0.2,0.3-0.4,0.6-0.7,0.7S428.9,159.9,428.6,159.9z M428.6,159.1
			c0.3,0,0.5-0.1,0.7-0.3s0.3-0.6,0.3-1c0-0.5-0.1-0.8-0.3-1c-0.2-0.2-0.4-0.3-0.7-0.3c-0.3,0-0.5,0.1-0.7,0.3
			c-0.2,0.2-0.3,0.6-0.3,1c0,0.5,0.1,0.8,0.3,1C428.1,159,428.3,159.1,428.6,159.1z"/>
	</g>
</g>
<circle class="st4" cx="417.4" cy="131.9" r="4"/>
<g>
	<rect x="570" y="179.7" class="st3" width="30" height="228"/>
	<polygon class="st3" points="585,165.2 570,180.2 600,180.2 	"/>
</g>
<g>
	<g>
		<path class="st4" d="M574.9,156.2c-0.6,0-1.1-0.1-1.6-0.3s-0.9-0.5-1.2-0.9c-0.3-0.4-0.4-0.9-0.4-1.5h1.2c0,0.6,0.2,1,0.6,1.3
			s0.9,0.4,1.5,0.4c0.7,0,1.2-0.2,1.6-0.6c0.4-0.4,0.6-0.9,0.6-1.5c0-1.2-0.8-1.8-2.3-1.8h-2.5l0.4-4.6h5.2v1.1h-4.3l0.2-0.4
			l-0.3,3.3l-0.1-0.1c0.2-0.1,0.5-0.1,0.8-0.1s0.6,0,0.8,0c1,0,1.8,0.2,2.4,0.7c0.6,0.5,0.9,1.1,0.9,2c0,0.6-0.1,1.2-0.4,1.6
			c-0.3,0.5-0.7,0.9-1.2,1.2C576.2,156.1,575.6,156.2,574.9,156.2z"/>
		<path class="st4" d="M580,156.1l4.5-8.3h-5v-1.1h6.4v1.1l-4.3,8.3H580z"/>
		<path class="st4" d="M589,150.8c-0.3,0-0.6-0.1-0.9-0.2c-0.3-0.2-0.5-0.4-0.7-0.7c-0.2-0.3-0.3-0.7-0.3-1.2c0-0.5,0.1-0.9,0.3-1.2
			c0.2-0.3,0.4-0.6,0.7-0.7c0.3-0.2,0.6-0.2,0.9-0.2c0.3,0,0.7,0.1,1,0.2c0.3,0.2,0.5,0.4,0.7,0.7s0.3,0.7,0.3,1.2
			c0,0.5-0.1,0.9-0.3,1.2s-0.4,0.6-0.7,0.7C589.7,150.7,589.3,150.8,589,150.8z M587.8,156.1l6.3-9.4h1.2l-6.3,9.4H587.8z M589,150
			c0.3,0,0.5-0.1,0.7-0.3c0.2-0.2,0.3-0.6,0.3-1s-0.1-0.8-0.3-1s-0.4-0.3-0.7-0.3c-0.3,0-0.5,0.1-0.7,0.3c-0.2,0.2-0.3,0.6-0.3,1
			s0.1,0.8,0.3,1C588.5,149.9,588.7,150,589,150z M594.3,156.2c-0.3,0-0.6-0.1-0.9-0.2c-0.3-0.2-0.5-0.4-0.7-0.7
			c-0.2-0.3-0.3-0.7-0.3-1.2c0-0.5,0.1-0.9,0.3-1.2c0.2-0.3,0.4-0.6,0.7-0.7c0.3-0.2,0.6-0.2,0.9-0.2c0.3,0,0.7,0.1,1,0.2
			c0.3,0.2,0.5,0.4,0.7,0.7c0.2,0.3,0.3,0.7,0.3,1.2c0,0.5-0.1,0.9-0.3,1.2c-0.2,0.3-0.4,0.6-0.7,0.7
			C594.9,156.1,594.6,156.2,594.3,156.2z M594.3,155.4c0.3,0,0.5-0.1,0.7-0.3s0.3-0.6,0.3-1c0-0.5-0.1-0.8-0.3-1s-0.4-0.3-0.7-0.3
			c-0.3,0-0.5,0.1-0.7,0.3c-0.2,0.2-0.3,0.6-0.3,1c0,0.5,0.1,0.8,0.3,1C593.7,155.3,594,155.4,594.3,155.4z"/>
	</g>
</g>
<circle class="st4" cx="584.6" cy="128.2" r="4"/>
<g class="st9">
	<rect x="487" y="183.7" class="st3" width="30" height="224"/>
	<polygon class="st3" points="502,168.7 487,183.7 517,183.7 	"/>
</g>
<g>
	<g>
		<path class="st4" d="M489.7,159.8c-0.6,0-1.1-0.1-1.6-0.3s-0.9-0.5-1.2-0.9c-0.3-0.4-0.4-0.9-0.4-1.5h1.2c0,0.6,0.2,1,0.6,1.3
			s0.9,0.4,1.5,0.4c0.7,0,1.2-0.2,1.6-0.6c0.4-0.4,0.6-0.9,0.6-1.5c0-1.2-0.8-1.8-2.3-1.8H487l0.4-4.6h5.2v1.1h-4.3l0.2-0.4
			l-0.3,3.3l-0.1-0.1c0.2-0.1,0.5-0.1,0.8-0.1s0.6,0,0.8,0c1,0,1.8,0.2,2.4,0.7c0.6,0.5,0.9,1.1,0.9,2c0,0.6-0.1,1.2-0.4,1.6
			c-0.3,0.5-0.7,0.9-1.2,1.2C491,159.6,490.4,159.8,489.7,159.8z"/>
		<path class="st4" d="M498.5,159.8c-0.8,0-1.4-0.2-2-0.6s-1-1-1.3-1.7c-0.3-0.7-0.5-1.5-0.5-2.4c0-1.1,0.2-2,0.5-2.7
			c0.3-0.8,0.8-1.3,1.4-1.7c0.6-0.4,1.3-0.6,2.1-0.6c0.6,0,1.1,0.1,1.5,0.3c0.4,0.2,0.8,0.5,1,0.9c0.3,0.4,0.4,0.8,0.5,1.3h-1.3
			c-0.1-0.5-0.2-0.8-0.5-1.1c-0.3-0.3-0.7-0.4-1.2-0.4c-0.9,0-1.5,0.4-2,1.1c-0.5,0.7-0.7,1.8-0.7,3c0,0.2,0,0.4,0,0.6
			c0,0.2,0,0.5,0.1,0.7c0-0.7,0.2-1.2,0.5-1.6c0.3-0.4,0.6-0.7,1-0.8c0.4-0.2,0.8-0.2,1.3-0.2c0.6,0,1.1,0.1,1.5,0.4
			c0.5,0.3,0.8,0.6,1.1,1c0.3,0.4,0.4,1,0.4,1.5c0,0.6-0.1,1.1-0.4,1.5s-0.6,0.8-1.1,1C499.7,159.6,499.1,159.8,498.5,159.8z
			 M498.5,158.7c0.6,0,1-0.2,1.4-0.5s0.6-0.8,0.6-1.4c0-0.6-0.2-1-0.6-1.4c-0.4-0.3-0.8-0.5-1.4-0.5c-0.4,0-0.7,0.1-1,0.2
			c-0.3,0.2-0.5,0.4-0.7,0.7c-0.2,0.3-0.3,0.6-0.3,1c0,0.6,0.2,1,0.6,1.4S497.9,158.7,498.5,158.7z"/>
		<path class="st4" d="M505.4,154.3c-0.3,0-0.6-0.1-0.9-0.2c-0.3-0.2-0.5-0.4-0.7-0.7c-0.2-0.3-0.3-0.7-0.3-1.2
			c0-0.5,0.1-0.9,0.3-1.2c0.2-0.3,0.4-0.6,0.7-0.7c0.3-0.2,0.6-0.2,0.9-0.2c0.3,0,0.7,0.1,1,0.2c0.3,0.2,0.5,0.4,0.7,0.7
			s0.3,0.7,0.3,1.2c0,0.5-0.1,0.9-0.3,1.2s-0.4,0.6-0.7,0.7C506,154.2,505.7,154.3,505.4,154.3z M504.2,159.6l6.3-9.4h1.2l-6.3,9.4
			H504.2z M505.4,153.5c0.3,0,0.5-0.1,0.7-0.3c0.2-0.2,0.3-0.6,0.3-1s-0.1-0.8-0.3-1s-0.4-0.3-0.7-0.3c-0.3,0-0.5,0.1-0.7,0.3
			c-0.2,0.2-0.3,0.6-0.3,1s0.1,0.8,0.3,1C504.8,153.4,505.1,153.5,505.4,153.5z M510.6,159.7c-0.3,0-0.6-0.1-0.9-0.2
			c-0.3-0.2-0.5-0.4-0.7-0.7c-0.2-0.3-0.3-0.7-0.3-1.2c0-0.5,0.1-0.9,0.3-1.2c0.2-0.3,0.4-0.6,0.7-0.7c0.3-0.2,0.6-0.2,0.9-0.2
			c0.3,0,0.7,0.1,1,0.2c0.3,0.2,0.5,0.4,0.7,0.7c0.2,0.3,0.3,0.7,0.3,1.2c0,0.5-0.1,0.9-0.3,1.2c-0.2,0.3-0.4,0.6-0.7,0.7
			C511.3,159.7,510.9,159.7,510.6,159.7z M510.6,158.9c0.3,0,0.5-0.1,0.7-0.3s0.3-0.6,0.3-1c0-0.5-0.1-0.8-0.3-1s-0.4-0.3-0.7-0.3
			c-0.3,0-0.5,0.1-0.7,0.3c-0.2,0.2-0.3,0.6-0.3,1c0,0.5,0.1,0.8,0.3,1C510.1,158.8,510.3,158.9,510.6,158.9z"/>
	</g>
</g>
<circle class="st4" cx="499.4" cy="131.7" r="4"/>
<g>
	<g>
		<path class="st4" d="M324.5,426.3v-1.2c0-0.5,0.1-0.9,0.2-1.2c0.2-0.3,0.4-0.6,0.6-0.8c0.3-0.2,0.6-0.4,1-0.5l1.6-0.6
			c0.4-0.2,0.7-0.4,0.9-0.6s0.3-0.6,0.3-1c0-0.4-0.1-0.8-0.4-1c-0.3-0.3-0.7-0.4-1.2-0.4c-0.5,0-0.9,0.1-1.3,0.3
			c-0.3,0.2-0.5,0.5-0.6,1h-1.1c0-0.5,0.2-0.9,0.4-1.2c0.2-0.3,0.6-0.6,1-0.8c0.4-0.2,0.9-0.3,1.5-0.3c0.5,0,1,0.1,1.4,0.3
			c0.4,0.2,0.7,0.5,1,0.8c0.2,0.4,0.4,0.8,0.4,1.2c0,0.4-0.1,0.8-0.2,1.1c-0.2,0.3-0.4,0.6-0.7,0.8s-0.6,0.4-1,0.6l-1.7,0.7
			c-0.4,0.2-0.7,0.4-0.9,0.6c-0.2,0.2-0.3,0.5-0.3,0.9v0.4h4.7v0.9H324.5z"/>
		<path class="st4" d="M335,426.4c-0.6,0-1.2-0.2-1.7-0.5c-0.5-0.3-0.9-0.8-1.1-1.4c-0.3-0.6-0.4-1.4-0.4-2.4s0.1-1.7,0.4-2.4
			c0.3-0.6,0.6-1.1,1.1-1.4c0.5-0.3,1-0.5,1.7-0.5c0.6,0,1.2,0.2,1.7,0.5c0.5,0.3,0.9,0.8,1.1,1.4s0.4,1.4,0.4,2.4s-0.1,1.7-0.4,2.4
			c-0.3,0.6-0.6,1.1-1.1,1.4C336.2,426.3,335.7,426.4,335,426.4z M335,425.5c0.7,0,1.2-0.3,1.6-0.9c0.4-0.6,0.5-1.4,0.5-2.4
			s-0.2-1.9-0.5-2.4c-0.4-0.6-0.9-0.9-1.6-0.9c-0.7,0-1.2,0.3-1.6,0.9c-0.4,0.6-0.6,1.4-0.6,2.4s0.2,1.9,0.6,2.4
			C333.8,425.2,334.3,425.5,335,425.5z"/>
		<path class="st4" d="M341.1,418.1h0.8v8.2h-1v-7c-0.2,0.1-0.4,0.3-0.7,0.3c-0.2,0.1-0.5,0.1-0.7,0.1v-1c0.3,0,0.5-0.1,0.8-0.2
			C340.6,418.4,340.8,418.3,341.1,418.1z"/>
		<path class="st4" d="M344,426.3l3.9-7.2h-4.4v-1h5.6v0.9l-3.8,7.2H344z"/>
	</g>
</g>
<g>
	<g>
		<path class="st4" d="M236.9,426.3v-1.2c0-0.5,0.1-0.9,0.2-1.2c0.2-0.3,0.4-0.6,0.6-0.8c0.3-0.2,0.6-0.4,1-0.5l1.6-0.6
			c0.4-0.2,0.7-0.4,0.9-0.6s0.3-0.6,0.3-1c0-0.4-0.1-0.8-0.4-1c-0.3-0.3-0.7-0.4-1.2-0.4c-0.5,0-0.9,0.1-1.3,0.3
			c-0.3,0.2-0.5,0.5-0.6,1h-1.1c0-0.5,0.2-0.9,0.4-1.2c0.2-0.3,0.6-0.6,1-0.8c0.4-0.2,0.9-0.3,1.5-0.3c0.5,0,1,0.1,1.4,0.3
			c0.4,0.2,0.7,0.5,1,0.8c0.2,0.4,0.4,0.8,0.4,1.2c0,0.4-0.1,0.8-0.2,1.1c-0.2,0.3-0.4,0.6-0.7,0.8s-0.6,0.4-1,0.6l-1.7,0.7
			c-0.4,0.2-0.7,0.4-0.9,0.6c-0.2,0.2-0.3,0.5-0.3,0.9v0.4h4.7v0.9H236.9z"/>
		<path class="st4" d="M247.5,426.4c-0.6,0-1.2-0.2-1.7-0.5c-0.5-0.3-0.9-0.8-1.1-1.4c-0.3-0.6-0.4-1.4-0.4-2.4s0.1-1.7,0.4-2.4
			c0.3-0.6,0.6-1.1,1.1-1.4c0.5-0.3,1-0.5,1.7-0.5c0.6,0,1.2,0.2,1.7,0.5c0.5,0.3,0.9,0.8,1.1,1.4s0.4,1.4,0.4,2.4s-0.1,1.7-0.4,2.4
			c-0.3,0.6-0.6,1.1-1.1,1.4C248.7,426.3,248.1,426.4,247.5,426.4z M247.5,425.5c0.7,0,1.2-0.3,1.6-0.9c0.4-0.6,0.5-1.4,0.5-2.4
			s-0.2-1.9-0.5-2.4c-0.4-0.6-0.9-0.9-1.6-0.9c-0.7,0-1.2,0.3-1.6,0.9c-0.4,0.6-0.6,1.4-0.6,2.4s0.2,1.9,0.6,2.4
			C246.3,425.2,246.8,425.5,247.5,425.5z"/>
		<path class="st4" d="M253.5,418.1h0.8v8.2h-1v-7c-0.2,0.1-0.4,0.3-0.7,0.3c-0.2,0.1-0.5,0.1-0.7,0.1v-1c0.3,0,0.5-0.1,0.8-0.2
			C253,418.4,253.3,418.3,253.5,418.1z"/>
		<path class="st4" d="M259.6,426.4c-0.7,0-1.2-0.2-1.7-0.5c-0.5-0.4-0.9-0.8-1.1-1.5c-0.3-0.6-0.4-1.3-0.4-2.1
			c0-0.9,0.1-1.7,0.4-2.3c0.3-0.7,0.7-1.2,1.2-1.5c0.5-0.3,1.1-0.5,1.8-0.5c0.5,0,0.9,0.1,1.3,0.3c0.4,0.2,0.7,0.4,0.9,0.8
			c0.2,0.3,0.4,0.7,0.4,1.2h-1.1c-0.1-0.4-0.2-0.7-0.4-0.9c-0.2-0.2-0.6-0.3-1-0.3c-0.7,0-1.3,0.3-1.8,1c-0.4,0.6-0.6,1.5-0.6,2.6
			c0,0.2,0,0.3,0,0.6c0,0.2,0,0.4,0.1,0.6c0-0.6,0.2-1,0.4-1.4c0.2-0.3,0.5-0.6,0.9-0.7s0.7-0.2,1.1-0.2c0.5,0,0.9,0.1,1.3,0.3
			s0.7,0.5,0.9,0.9c0.2,0.4,0.3,0.8,0.3,1.3c0,0.5-0.1,0.9-0.4,1.3c-0.2,0.4-0.6,0.7-1,0.9S260.1,426.4,259.6,426.4z M259.6,425.5
			c0.5,0,0.9-0.1,1.2-0.4c0.3-0.3,0.5-0.7,0.5-1.2c0-0.5-0.2-0.9-0.5-1.2c-0.3-0.3-0.7-0.4-1.2-0.4c-0.3,0-0.6,0.1-0.9,0.2
			s-0.5,0.3-0.6,0.6c-0.1,0.2-0.2,0.5-0.2,0.8c0,0.5,0.2,0.9,0.5,1.2C258.7,425.3,259.1,425.5,259.6,425.5z"/>
	</g>
</g>
<g>
	<g>
		<path class="st4" d="M157.9,426.3v-1.2c0-0.5,0.1-0.9,0.2-1.2c0.2-0.3,0.4-0.6,0.6-0.8c0.3-0.2,0.6-0.4,1-0.5l1.6-0.6
			c0.4-0.2,0.7-0.4,0.9-0.6s0.3-0.6,0.3-1c0-0.4-0.1-0.8-0.4-1c-0.3-0.3-0.7-0.4-1.2-0.4c-0.5,0-0.9,0.1-1.3,0.3
			c-0.3,0.2-0.5,0.5-0.6,1h-1.1c0-0.5,0.2-0.9,0.4-1.2c0.2-0.3,0.6-0.6,1-0.8c0.4-0.2,0.9-0.3,1.5-0.3c0.5,0,1,0.1,1.4,0.3
			c0.4,0.2,0.7,0.5,1,0.8c0.2,0.4,0.4,0.8,0.4,1.2c0,0.4-0.1,0.8-0.2,1.1c-0.2,0.3-0.4,0.6-0.7,0.8s-0.6,0.4-1,0.6l-1.7,0.7
			c-0.4,0.2-0.7,0.4-0.9,0.6c-0.2,0.2-0.3,0.5-0.3,0.9v0.4h4.7v0.9H157.9z"/>
		<path class="st4" d="M168.5,426.4c-0.6,0-1.2-0.2-1.7-0.5c-0.5-0.3-0.9-0.8-1.1-1.4c-0.3-0.6-0.4-1.4-0.4-2.4s0.1-1.7,0.4-2.4
			c0.3-0.6,0.6-1.1,1.1-1.4c0.5-0.3,1-0.5,1.7-0.5c0.6,0,1.2,0.2,1.7,0.5c0.5,0.3,0.9,0.8,1.1,1.4s0.4,1.4,0.4,2.4s-0.1,1.7-0.4,2.4
			c-0.3,0.6-0.6,1.1-1.1,1.4C169.7,426.3,169.1,426.4,168.5,426.4z M168.5,425.5c0.7,0,1.2-0.3,1.6-0.9c0.4-0.6,0.5-1.4,0.5-2.4
			s-0.2-1.9-0.5-2.4c-0.4-0.6-0.9-0.9-1.6-0.9c-0.7,0-1.2,0.3-1.6,0.9c-0.4,0.6-0.6,1.4-0.6,2.4s0.2,1.9,0.6,2.4
			C167.3,425.2,167.8,425.5,168.5,425.5z"/>
		<path class="st4" d="M174.5,418.1h0.8v8.2h-1v-7c-0.2,0.1-0.4,0.3-0.7,0.3c-0.2,0.1-0.5,0.1-0.7,0.1v-1c0.3,0,0.5-0.1,0.8-0.2
			C174,418.4,174.3,418.3,174.5,418.1z"/>
		<path class="st4" d="M180.3,426.4c-0.5,0-1-0.1-1.4-0.3c-0.4-0.2-0.8-0.5-1-0.8c-0.3-0.4-0.4-0.8-0.4-1.3h1c0,0.5,0.2,0.9,0.5,1.1
			c0.3,0.3,0.8,0.4,1.3,0.4c0.6,0,1-0.2,1.4-0.5c0.3-0.4,0.5-0.8,0.5-1.3c0-1-0.7-1.6-2-1.6H178l0.4-4h4.5v0.9h-3.7l0.2-0.4
			l-0.3,2.8l-0.1-0.1c0.2,0,0.4-0.1,0.7-0.1s0.5,0,0.7,0c0.9,0,1.6,0.2,2.1,0.6s0.8,1,0.8,1.8c0,0.5-0.1,1-0.4,1.4
			c-0.2,0.4-0.6,0.8-1,1C181.4,426.3,180.9,426.4,180.3,426.4z"/>
	</g>
</g>
<g>
	<g>
		<path class="st4" d="M74.9,426.3v-1.2c0-0.5,0.1-0.9,0.2-1.2c0.2-0.3,0.4-0.6,0.6-0.8c0.3-0.2,0.6-0.4,1-0.5l1.6-0.6
			c0.4-0.2,0.7-0.4,0.9-0.6s0.3-0.6,0.3-1c0-0.4-0.1-0.8-0.4-1c-0.3-0.3-0.7-0.4-1.2-0.4c-0.5,0-0.9,0.1-1.3,0.3
			c-0.3,0.2-0.5,0.5-0.6,1h-1.1c0-0.5,0.2-0.9,0.4-1.2c0.2-0.3,0.6-0.6,1-0.8c0.4-0.2,0.9-0.3,1.5-0.3c0.5,0,1,0.1,1.4,0.3
			c0.4,0.2,0.7,0.5,1,0.8c0.2,0.4,0.4,0.8,0.4,1.2c0,0.4-0.1,0.8-0.2,1.1c-0.2,0.3-0.4,0.6-0.7,0.8s-0.6,0.4-1,0.6l-1.7,0.7
			c-0.4,0.2-0.7,0.4-0.9,0.6c-0.2,0.2-0.3,0.5-0.3,0.9v0.4h4.7v0.9H74.9z"/>
		<path class="st4" d="M85.5,426.4c-0.6,0-1.2-0.2-1.7-0.5c-0.5-0.3-0.9-0.8-1.1-1.4c-0.3-0.6-0.4-1.4-0.4-2.4s0.1-1.7,0.4-2.4
			c0.3-0.6,0.6-1.1,1.1-1.4c0.5-0.3,1-0.5,1.7-0.5c0.6,0,1.2,0.2,1.7,0.5c0.5,0.3,0.9,0.8,1.1,1.4s0.4,1.4,0.4,2.4s-0.1,1.7-0.4,2.4
			c-0.3,0.6-0.6,1.1-1.1,1.4C86.7,426.3,86.1,426.4,85.5,426.4z M85.5,425.5c0.7,0,1.2-0.3,1.6-0.9c0.4-0.6,0.5-1.4,0.5-2.4
			s-0.2-1.9-0.5-2.4c-0.4-0.6-0.9-0.9-1.6-0.9c-0.7,0-1.2,0.3-1.6,0.9c-0.4,0.6-0.6,1.4-0.6,2.4s0.2,1.9,0.6,2.4
			C84.3,425.2,84.8,425.5,85.5,425.5z"/>
		<path class="st4" d="M91.5,418.1h0.8v8.2h-1v-7c-0.2,0.1-0.4,0.3-0.7,0.3c-0.2,0.1-0.5,0.1-0.7,0.1v-1c0.3,0,0.5-0.1,0.8-0.2
			C91,418.4,91.3,418.3,91.5,418.1z"/>
		<path class="st4" d="M98.3,418h0.9v5.4h1.4v0.9h-1.4v2h-1v-2H94v-0.8L98.3,418z M98.2,419.6l-3.1,3.9h3.1V419.6z"/>
	</g>
</g>
<g>
	<g>
		<path class="st4" d="M487.9,426.3v-1.2c0-0.5,0.1-0.9,0.2-1.2c0.2-0.3,0.4-0.6,0.6-0.8c0.3-0.2,0.6-0.4,1-0.5l1.6-0.6
			c0.4-0.2,0.7-0.4,0.9-0.6s0.3-0.6,0.3-1c0-0.4-0.1-0.8-0.4-1c-0.3-0.3-0.7-0.4-1.2-0.4c-0.5,0-0.9,0.1-1.3,0.3
			c-0.3,0.2-0.5,0.5-0.6,1h-1.1c0-0.5,0.2-0.9,0.4-1.2c0.3-0.3,0.6-0.6,1-0.8c0.4-0.2,0.9-0.3,1.5-0.3c0.5,0,1,0.1,1.4,0.3
			c0.4,0.2,0.7,0.5,1,0.8c0.2,0.4,0.4,0.8,0.4,1.2c0,0.4-0.1,0.8-0.2,1.1c-0.2,0.3-0.4,0.6-0.7,0.8s-0.6,0.4-1,0.6l-1.7,0.7
			c-0.4,0.2-0.7,0.4-0.9,0.6c-0.2,0.2-0.3,0.5-0.3,0.9v0.4h4.7v0.9H487.9z"/>
		<path class="st4" d="M498.5,426.4c-0.6,0-1.2-0.2-1.7-0.5c-0.5-0.3-0.9-0.8-1.1-1.4c-0.3-0.6-0.4-1.4-0.4-2.4s0.1-1.7,0.4-2.4
			c0.3-0.6,0.6-1.1,1.1-1.4c0.5-0.3,1-0.5,1.7-0.5c0.6,0,1.2,0.2,1.7,0.5c0.5,0.3,0.9,0.8,1.1,1.4c0.3,0.6,0.4,1.4,0.4,2.4
			s-0.1,1.7-0.4,2.4c-0.3,0.6-0.6,1.1-1.1,1.4C499.7,426.3,499.1,426.4,498.5,426.4z M498.5,425.5c0.7,0,1.2-0.3,1.6-0.9
			c0.4-0.6,0.5-1.4,0.5-2.4s-0.2-1.9-0.5-2.4c-0.4-0.6-0.9-0.9-1.6-0.9c-0.7,0-1.2,0.3-1.6,0.9c-0.4,0.6-0.6,1.4-0.6,2.4
			s0.2,1.9,0.6,2.4C497.3,425.2,497.8,425.5,498.5,425.5z"/>
		<path class="st4" d="M504.5,418.1h0.8v8.2h-1v-7c-0.2,0.1-0.4,0.3-0.7,0.3c-0.2,0.1-0.5,0.1-0.7,0.1v-1c0.3,0,0.5-0.1,0.8-0.2
			C504,418.4,504.3,418.3,504.5,418.1z"/>
		<path class="st4" d="M510.3,426.4c-0.5,0-1-0.1-1.4-0.3c-0.4-0.2-0.7-0.5-1-0.9c-0.2-0.4-0.4-0.8-0.4-1.3h1.1
			c0,0.5,0.2,0.9,0.5,1.2s0.7,0.4,1.2,0.4c0.5,0,0.9-0.1,1.2-0.4c0.3-0.3,0.6-0.7,0.7-1.3c0.1-0.5,0.2-1.2,0.2-1.9
			c0-0.2,0-0.3,0-0.5c0-0.1,0-0.3-0.1-0.5c-0.1,0.5-0.2,0.9-0.4,1.2c-0.2,0.3-0.5,0.5-0.8,0.7c-0.3,0.2-0.7,0.2-1.1,0.2
			c-0.5,0-0.9-0.1-1.3-0.3c-0.4-0.2-0.7-0.5-0.9-0.9c-0.2-0.4-0.3-0.8-0.3-1.3c0-0.5,0.1-0.9,0.3-1.3c0.2-0.4,0.6-0.7,1-0.9
			c0.4-0.2,0.9-0.3,1.4-0.3c0.5,0,0.9,0.1,1.3,0.3c0.4,0.2,0.7,0.5,1,0.8c0.3,0.4,0.5,0.8,0.7,1.3s0.2,1.1,0.2,1.7
			c0,0.9-0.1,1.7-0.3,2.3c-0.2,0.7-0.6,1.2-1,1.5C511.7,426.2,511.1,426.4,510.3,426.4z M510.3,422.1c0.3,0,0.6-0.1,0.9-0.2
			c0.3-0.1,0.5-0.3,0.6-0.6c0.2-0.2,0.2-0.5,0.2-0.8c0-0.5-0.2-0.9-0.5-1.2c-0.3-0.3-0.7-0.4-1.2-0.4c-0.5,0-0.9,0.1-1.2,0.4
			c-0.3,0.3-0.5,0.7-0.5,1.2c0,0.5,0.2,0.9,0.5,1.2C509.4,422,509.8,422.1,510.3,422.1z"/>
	</g>
</g>
<g>
	<g>
		<path class="st4" d="M405.9,426.3v-1.2c0-0.5,0.1-0.9,0.2-1.2c0.2-0.3,0.4-0.6,0.6-0.8c0.3-0.2,0.6-0.4,1-0.5l1.6-0.6
			c0.4-0.2,0.7-0.4,0.9-0.6s0.3-0.6,0.3-1c0-0.4-0.1-0.8-0.4-1c-0.3-0.3-0.7-0.4-1.2-0.4c-0.5,0-0.9,0.1-1.3,0.3
			c-0.3,0.2-0.5,0.5-0.6,1h-1.1c0-0.5,0.2-0.9,0.4-1.2c0.3-0.3,0.6-0.6,1-0.8c0.4-0.2,0.9-0.3,1.5-0.3c0.5,0,1,0.1,1.4,0.3
			c0.4,0.2,0.7,0.5,1,0.8c0.2,0.4,0.4,0.8,0.4,1.2c0,0.4-0.1,0.8-0.2,1.1c-0.2,0.3-0.4,0.6-0.7,0.8s-0.6,0.4-1,0.6l-1.7,0.7
			c-0.4,0.2-0.7,0.4-0.9,0.6c-0.2,0.2-0.3,0.5-0.3,0.9v0.4h4.7v0.9H405.9z"/>
		<path class="st4" d="M416.5,426.4c-0.6,0-1.2-0.2-1.7-0.5c-0.5-0.3-0.9-0.8-1.1-1.4c-0.3-0.6-0.4-1.4-0.4-2.4s0.1-1.7,0.4-2.4
			c0.3-0.6,0.6-1.1,1.1-1.4c0.5-0.3,1-0.5,1.7-0.5c0.6,0,1.2,0.2,1.7,0.5c0.5,0.3,0.9,0.8,1.1,1.4c0.3,0.6,0.4,1.4,0.4,2.4
			s-0.1,1.7-0.4,2.4c-0.3,0.6-0.6,1.1-1.1,1.4C417.7,426.3,417.1,426.4,416.5,426.4z M416.5,425.5c0.7,0,1.2-0.3,1.6-0.9
			c0.4-0.6,0.5-1.4,0.5-2.4s-0.2-1.9-0.5-2.4c-0.4-0.6-0.9-0.9-1.6-0.9c-0.7,0-1.2,0.3-1.6,0.9c-0.4,0.6-0.6,1.4-0.6,2.4
			s0.2,1.9,0.6,2.4C415.3,425.2,415.8,425.5,416.5,425.5z"/>
		<path class="st4" d="M422.5,418.1h0.8v8.2h-1v-7c-0.2,0.1-0.4,0.3-0.7,0.3c-0.2,0.1-0.5,0.1-0.7,0.1v-1c0.3,0,0.5-0.1,0.8-0.2
			C422,418.4,422.3,418.3,422.5,418.1z"/>
		<path class="st4" d="M428.6,426.4c-0.6,0-1.2-0.1-1.7-0.3c-0.5-0.2-0.9-0.5-1.2-0.8s-0.4-0.8-0.4-1.2c0-0.4,0.1-0.8,0.3-1.1
			c0.2-0.3,0.5-0.5,0.9-0.7s0.8-0.2,1.3-0.2c0.1,0,0.2,0,0.4,0s0.2,0,0.4,0.1v0.3c-0.4,0-0.8,0.1-1.1,0.2c-0.3,0.1-0.6,0.3-0.8,0.6
			c-0.2,0.2-0.3,0.5-0.3,0.7c0,0.3,0.1,0.6,0.3,0.8c0.2,0.2,0.5,0.4,0.8,0.5c0.3,0.1,0.7,0.2,1.1,0.2c0.7,0,1.2-0.1,1.6-0.3
			c0.4-0.2,0.6-0.5,0.6-0.9c0-0.3-0.1-0.5-0.3-0.7c-0.2-0.2-0.5-0.4-0.8-0.5l-2.2-0.9c-0.3-0.1-0.5-0.2-0.8-0.4s-0.5-0.4-0.7-0.7
			c-0.2-0.3-0.3-0.6-0.3-1c0-0.4,0.1-0.8,0.4-1.1c0.2-0.3,0.6-0.6,1-0.8c0.4-0.2,1-0.3,1.6-0.3c0.6,0,1.1,0.1,1.5,0.3
			c0.4,0.2,0.8,0.5,1.1,0.8s0.4,0.7,0.4,1.2c0,0.3-0.1,0.7-0.3,0.9c-0.2,0.3-0.4,0.5-0.8,0.7c-0.3,0.2-0.7,0.3-1.2,0.3
			c-0.1,0-0.2,0-0.3,0c-0.1,0-0.2,0-0.4-0.1v-0.3c0.4,0,0.7-0.1,0.9-0.2c0.3-0.1,0.5-0.3,0.7-0.5c0.2-0.2,0.3-0.5,0.3-0.7
			c0-0.3-0.1-0.5-0.2-0.7s-0.4-0.4-0.7-0.5c-0.3-0.1-0.6-0.2-1-0.2c-0.4,0-0.7,0.1-1,0.2c-0.3,0.1-0.5,0.3-0.7,0.5
			c-0.2,0.2-0.3,0.4-0.3,0.6c0,0.3,0.1,0.5,0.3,0.7s0.5,0.3,0.8,0.5l2.2,0.9c0.6,0.2,1.1,0.5,1.4,0.8c0.3,0.3,0.5,0.7,0.5,1.3
			c0,0.4-0.1,0.8-0.4,1.1c-0.3,0.3-0.6,0.6-1.1,0.8C429.9,426.3,429.3,426.4,428.6,426.4z"/>
	</g>
</g>
<g>
	<g>
		<path class="st4" d="M573.1,426.3v-1.2c0-0.5,0.1-0.9,0.2-1.2c0.2-0.3,0.4-0.6,0.6-0.8c0.3-0.2,0.6-0.4,1-0.5l1.6-0.6
			c0.4-0.2,0.7-0.4,0.9-0.6s0.3-0.6,0.3-1c0-0.4-0.1-0.8-0.4-1c-0.3-0.3-0.7-0.4-1.2-0.4c-0.5,0-0.9,0.1-1.3,0.3
			c-0.3,0.2-0.5,0.5-0.6,1h-1.1c0-0.5,0.2-0.9,0.4-1.2c0.3-0.3,0.6-0.6,1-0.8c0.4-0.2,0.9-0.3,1.5-0.3c0.5,0,1,0.1,1.4,0.3
			c0.4,0.2,0.7,0.5,1,0.8c0.2,0.4,0.4,0.8,0.4,1.2c0,0.4-0.1,0.8-0.2,1.1c-0.2,0.3-0.4,0.6-0.7,0.8s-0.6,0.4-1,0.6l-1.7,0.7
			c-0.4,0.2-0.7,0.4-0.9,0.6c-0.2,0.2-0.3,0.5-0.3,0.9v0.4h4.7v0.9H573.1z"/>
		<path class="st4" d="M583.7,426.4c-0.6,0-1.2-0.2-1.7-0.5c-0.5-0.3-0.9-0.8-1.1-1.4c-0.3-0.6-0.4-1.4-0.4-2.4s0.1-1.7,0.4-2.4
			c0.3-0.6,0.6-1.1,1.1-1.4c0.5-0.3,1-0.5,1.7-0.5c0.6,0,1.2,0.2,1.7,0.5c0.5,0.3,0.9,0.8,1.1,1.4c0.3,0.6,0.4,1.4,0.4,2.4
			s-0.1,1.7-0.4,2.4c-0.3,0.6-0.6,1.1-1.1,1.4C584.9,426.3,584.3,426.4,583.7,426.4z M583.7,425.5c0.7,0,1.2-0.3,1.6-0.9
			c0.4-0.6,0.5-1.4,0.5-2.4s-0.2-1.9-0.5-2.4c-0.4-0.6-0.9-0.9-1.6-0.9c-0.7,0-1.2,0.3-1.6,0.9c-0.4,0.6-0.6,1.4-0.6,2.4
			s0.2,1.9,0.6,2.4C582.5,425.2,583,425.5,583.7,425.5z"/>
		<path class="st4" d="M588.4,426.3v-1.2c0-0.5,0.1-0.9,0.2-1.2s0.4-0.6,0.7-0.8s0.6-0.4,1-0.5l1.6-0.6c0.4-0.2,0.7-0.4,0.9-0.6
			s0.3-0.6,0.3-1c0-0.4-0.1-0.8-0.4-1c-0.3-0.3-0.7-0.4-1.2-0.4c-0.5,0-0.9,0.1-1.3,0.3c-0.3,0.2-0.5,0.5-0.6,1h-1.1
			c0-0.5,0.2-0.9,0.4-1.2c0.2-0.3,0.6-0.6,1-0.8c0.4-0.2,0.9-0.3,1.5-0.3c0.5,0,1,0.1,1.4,0.3c0.4,0.2,0.7,0.5,1,0.8
			s0.4,0.8,0.4,1.2c0,0.4-0.1,0.8-0.2,1.1c-0.2,0.3-0.4,0.6-0.7,0.8s-0.6,0.4-1,0.6l-1.7,0.7c-0.4,0.2-0.7,0.4-0.9,0.6
			c-0.2,0.2-0.3,0.5-0.3,0.9v0.4h4.7v0.9H588.4z"/>
		<path class="st4" d="M598.9,426.4c-0.6,0-1.2-0.2-1.7-0.5c-0.5-0.3-0.9-0.8-1.1-1.4c-0.3-0.6-0.4-1.4-0.4-2.4s0.1-1.7,0.4-2.4
			c0.3-0.6,0.6-1.1,1.1-1.4c0.5-0.3,1-0.5,1.7-0.5c0.6,0,1.2,0.2,1.7,0.5c0.5,0.3,0.9,0.8,1.1,1.4s0.4,1.4,0.4,2.4s-0.1,1.7-0.4,2.4
			c-0.3,0.6-0.6,1.1-1.1,1.4C600.1,426.3,599.6,426.4,598.9,426.4z M598.9,425.5c0.7,0,1.2-0.3,1.6-0.9s0.5-1.4,0.5-2.4
			s-0.2-1.9-0.5-2.4s-0.9-0.9-1.6-0.9c-0.7,0-1.2,0.3-1.6,0.9s-0.6,1.4-0.6,2.4s0.2,1.9,0.6,2.4S598.2,425.5,598.9,425.5z"/>
	</g>
</g>
<line class="st10" x1="40.5" y1="407.8" x2="639.5" y2="407.8"/>
</svg>
