<svg id="Capa_1" data-name="Capa 1" xmlns="http://www.w3.org/2000/svg" viewBox="0 0 80 100"><defs><style>.cls-1{fill:#fff;}</style></defs><path class="cls-1" d="M63,14.07H22a5,5,0,0,0-5,5V60.93a5,5,0,0,0,5,5H63Zm-44,5a3,3,0,0,1,3-3H61v36H23.87a6.83,6.83,0,0,0-4.87,2ZM61,63v.93H22a3,3,0,0,1-3-3v-2a4.87,4.87,0,0,1,4.87-4.86H61V61H34v2Z"/><path class="cls-1" d="M29,42a3,3,0,0,0-2-2.82V29.52l3,1.28v6.85l10,4.44,10-4.44V30.8L56.54,28,40,20.91,23.46,28l1.54.66V39.18A3,3,0,0,0,23,42v5h6Zm19-5.65-8,3.56-8-3.56V31.66l8,3.43,8-3.43ZM40,23.09,51.46,28,40,32.91,28.54,28ZM27,45H25V42a1,1,0,0,1,2,0Z"/><rect class="cls-1" x="36" y="55" width="23" height="2"/><rect class="cls-1" x="30" y="58" width="26" height="2"/><rect class="cls-1" x="31" y="61" width="2" height="2"/><rect class="cls-1" x="28" y="61" width="2" height="2"/><rect class="cls-1" x="32" y="55" width="2" height="2"/></svg>