<?xml version="1.0" encoding="utf-8"?>
<!-- Generator: Adobe Illustrator 24.0.2, SVG Export Plug-In . SVG Version: 6.00 Build 0)  -->
<svg version="1.1" id="Capa_1" xmlns="http://www.w3.org/2000/svg" xmlns:xlink="http://www.w3.org/1999/xlink" x="0px" y="0px"
	 viewBox="0 0 680 480" style="enable-background:new 0 0 680 480;" xml:space="preserve">
<style type="text/css">
	.st0{fill:#252525;}
	.st1{fill:none;stroke:#FF5757;stroke-miterlimit:10;}
	.st2{opacity:0.7;}
	.st3{fill:#FF5757;}
	.st4{fill:#FFFFFF;}
	.st5{opacity:0.6;}
	.st6{opacity:0.5;}
	.st7{opacity:0.4;}
	.st8{opacity:0.8;}
	.st9{opacity:0.9;}
	.st10{fill:none;stroke:#FFFFFF;stroke-width:3;stroke-miterlimit:10;}
</style>
<rect x="-1" class="st0" width="680" height="481"/>
<g>
	<line class="st1" x1="86.7" y1="266.8" x2="88.2" y2="266.8"/>
	<line class="st1" x1="165.4" y1="266.8" x2="166.9" y2="266.8"/>
	<line class="st1" x1="160.8" y1="266.8" x2="162.3" y2="266.8"/>
	<line class="st1" x1="156.1" y1="266.8" x2="157.7" y2="266.8"/>
	<line class="st1" x1="151.5" y1="266.8" x2="153" y2="266.8"/>
	<line class="st1" x1="146.9" y1="266.8" x2="148.4" y2="266.8"/>
	<line class="st1" x1="142.3" y1="266.8" x2="143.8" y2="266.8"/>
	<line class="st1" x1="137.6" y1="266.8" x2="139.1" y2="266.8"/>
	<line class="st1" x1="133" y1="266.8" x2="134.5" y2="266.8"/>
	<line class="st1" x1="128.4" y1="266.8" x2="129.9" y2="266.8"/>
	<line class="st1" x1="123.7" y1="266.8" x2="125.2" y2="266.8"/>
	<line class="st1" x1="119.1" y1="266.8" x2="120.6" y2="266.8"/>
	<line class="st1" x1="114.5" y1="266.8" x2="116" y2="266.8"/>
	<line class="st1" x1="109.8" y1="266.8" x2="111.3" y2="266.8"/>
	<line class="st1" x1="105.2" y1="266.8" x2="106.7" y2="266.8"/>
	<line class="st1" x1="100.6" y1="266.8" x2="102.1" y2="266.8"/>
	<line class="st1" x1="95.9" y1="266.8" x2="97.4" y2="266.8"/>
	<line class="st1" x1="91.3" y1="266.8" x2="92.8" y2="266.8"/>
	<line class="st1" x1="170" y1="266.8" x2="171.6" y2="266.8"/>
</g>
<g>
	<line class="st1" x1="500.1" y1="266.8" x2="501.6" y2="266.8"/>
	<line class="st1" x1="578.8" y1="266.8" x2="580.3" y2="266.8"/>
	<line class="st1" x1="574.2" y1="266.8" x2="575.7" y2="266.8"/>
	<line class="st1" x1="569.6" y1="266.8" x2="571.1" y2="266.8"/>
	<line class="st1" x1="564.9" y1="266.8" x2="566.5" y2="266.8"/>
	<line class="st1" x1="560.3" y1="266.8" x2="561.8" y2="266.8"/>
	<line class="st1" x1="555.7" y1="266.8" x2="557.2" y2="266.8"/>
	<line class="st1" x1="551" y1="266.8" x2="552.6" y2="266.8"/>
	<line class="st1" x1="546.4" y1="266.8" x2="547.9" y2="266.8"/>
	<line class="st1" x1="541.8" y1="266.8" x2="543.3" y2="266.8"/>
	<line class="st1" x1="537.2" y1="266.8" x2="538.7" y2="266.8"/>
	<line class="st1" x1="532.5" y1="266.8" x2="534" y2="266.8"/>
	<line class="st1" x1="527.9" y1="266.8" x2="529.4" y2="266.8"/>
	<line class="st1" x1="523.3" y1="266.8" x2="524.8" y2="266.8"/>
	<line class="st1" x1="518.6" y1="266.8" x2="520.1" y2="266.8"/>
	<line class="st1" x1="514" y1="266.8" x2="515.5" y2="266.8"/>
	<line class="st1" x1="509.4" y1="266.8" x2="510.9" y2="266.8"/>
	<line class="st1" x1="504.7" y1="266.8" x2="506.2" y2="266.8"/>
	<line class="st1" x1="583.5" y1="266.8" x2="585" y2="266.8"/>
</g>
<g>
	<line class="st1" x1="420.1" y1="266.8" x2="421.6" y2="266.8"/>
	<line class="st1" x1="498.8" y1="266.8" x2="500.3" y2="266.8"/>
	<line class="st1" x1="494.2" y1="266.8" x2="495.7" y2="266.8"/>
	<line class="st1" x1="489.6" y1="266.8" x2="491.1" y2="266.8"/>
	<line class="st1" x1="484.9" y1="266.8" x2="486.5" y2="266.8"/>
	<line class="st1" x1="480.3" y1="266.8" x2="481.8" y2="266.8"/>
	<line class="st1" x1="475.7" y1="266.8" x2="477.2" y2="266.8"/>
	<line class="st1" x1="471" y1="266.8" x2="472.6" y2="266.8"/>
	<line class="st1" x1="466.4" y1="266.8" x2="467.9" y2="266.8"/>
	<line class="st1" x1="461.8" y1="266.8" x2="463.3" y2="266.8"/>
	<line class="st1" x1="457.2" y1="266.8" x2="458.7" y2="266.8"/>
	<line class="st1" x1="452.5" y1="266.8" x2="454" y2="266.8"/>
	<line class="st1" x1="447.9" y1="266.8" x2="449.4" y2="266.8"/>
	<line class="st1" x1="443.3" y1="266.8" x2="444.8" y2="266.8"/>
	<line class="st1" x1="438.6" y1="266.8" x2="440.1" y2="266.8"/>
	<line class="st1" x1="434" y1="266.8" x2="435.5" y2="266.8"/>
	<line class="st1" x1="429.4" y1="266.8" x2="430.9" y2="266.8"/>
	<line class="st1" x1="424.7" y1="266.8" x2="426.2" y2="266.8"/>
	<line class="st1" x1="503.5" y1="266.8" x2="505" y2="266.8"/>
</g>
<g>
	<line class="st1" x1="336.1" y1="266.8" x2="337.6" y2="266.8"/>
	<line class="st1" x1="414.8" y1="266.8" x2="416.3" y2="266.8"/>
	<line class="st1" x1="410.2" y1="266.8" x2="411.7" y2="266.8"/>
	<line class="st1" x1="405.6" y1="266.8" x2="407.1" y2="266.8"/>
	<line class="st1" x1="400.9" y1="266.8" x2="402.5" y2="266.8"/>
	<line class="st1" x1="396.3" y1="266.8" x2="397.8" y2="266.8"/>
	<line class="st1" x1="391.7" y1="266.8" x2="393.2" y2="266.8"/>
	<line class="st1" x1="387" y1="266.8" x2="388.6" y2="266.8"/>
	<line class="st1" x1="382.4" y1="266.8" x2="383.9" y2="266.8"/>
	<line class="st1" x1="377.8" y1="266.8" x2="379.3" y2="266.8"/>
	<line class="st1" x1="373.2" y1="266.8" x2="374.7" y2="266.8"/>
	<line class="st1" x1="368.5" y1="266.8" x2="370" y2="266.8"/>
	<line class="st1" x1="363.9" y1="266.8" x2="365.4" y2="266.8"/>
	<line class="st1" x1="359.3" y1="266.8" x2="360.8" y2="266.8"/>
	<line class="st1" x1="354.6" y1="266.8" x2="356.1" y2="266.8"/>
	<line class="st1" x1="350" y1="266.8" x2="351.5" y2="266.8"/>
	<line class="st1" x1="345.4" y1="266.8" x2="346.9" y2="266.8"/>
	<line class="st1" x1="340.7" y1="266.8" x2="342.2" y2="266.8"/>
	<line class="st1" x1="419.5" y1="266.8" x2="421" y2="266.8"/>
</g>
<g>
	<line class="st1" x1="249.1" y1="266.8" x2="250.6" y2="266.8"/>
	<line class="st1" x1="327.8" y1="266.8" x2="329.3" y2="266.8"/>
	<line class="st1" x1="323.2" y1="266.8" x2="324.7" y2="266.8"/>
	<line class="st1" x1="318.6" y1="266.8" x2="320.1" y2="266.8"/>
	<line class="st1" x1="313.9" y1="266.8" x2="315.5" y2="266.8"/>
	<line class="st1" x1="309.3" y1="266.8" x2="310.8" y2="266.8"/>
	<line class="st1" x1="304.7" y1="266.8" x2="306.2" y2="266.8"/>
	<line class="st1" x1="300" y1="266.8" x2="301.6" y2="266.8"/>
	<line class="st1" x1="295.4" y1="266.8" x2="296.9" y2="266.8"/>
	<line class="st1" x1="290.8" y1="266.8" x2="292.3" y2="266.8"/>
	<line class="st1" x1="286.2" y1="266.8" x2="287.7" y2="266.8"/>
	<line class="st1" x1="281.5" y1="266.8" x2="283" y2="266.8"/>
	<line class="st1" x1="276.9" y1="266.8" x2="278.4" y2="266.8"/>
	<line class="st1" x1="272.3" y1="266.8" x2="273.8" y2="266.8"/>
	<line class="st1" x1="267.6" y1="266.8" x2="269.1" y2="266.8"/>
	<line class="st1" x1="263" y1="266.8" x2="264.5" y2="266.8"/>
	<line class="st1" x1="258.4" y1="266.8" x2="259.9" y2="266.8"/>
	<line class="st1" x1="253.7" y1="266.8" x2="255.2" y2="266.8"/>
	<line class="st1" x1="332.5" y1="266.8" x2="334" y2="266.8"/>
</g>
<g>
	<line class="st1" x1="170.1" y1="266.8" x2="171.6" y2="266.8"/>
	<line class="st1" x1="248.8" y1="266.8" x2="250.3" y2="266.8"/>
	<line class="st1" x1="244.2" y1="266.8" x2="245.7" y2="266.8"/>
	<line class="st1" x1="239.6" y1="266.8" x2="241.1" y2="266.8"/>
	<line class="st1" x1="234.9" y1="266.8" x2="236.5" y2="266.8"/>
	<line class="st1" x1="230.3" y1="266.8" x2="231.8" y2="266.8"/>
	<line class="st1" x1="225.7" y1="266.8" x2="227.2" y2="266.8"/>
	<line class="st1" x1="221" y1="266.8" x2="222.6" y2="266.8"/>
	<line class="st1" x1="216.4" y1="266.8" x2="217.9" y2="266.8"/>
	<line class="st1" x1="211.8" y1="266.8" x2="213.3" y2="266.8"/>
	<line class="st1" x1="207.2" y1="266.8" x2="208.7" y2="266.8"/>
	<line class="st1" x1="202.5" y1="266.8" x2="204" y2="266.8"/>
	<line class="st1" x1="197.9" y1="266.8" x2="199.4" y2="266.8"/>
	<line class="st1" x1="193.3" y1="266.8" x2="194.8" y2="266.8"/>
	<line class="st1" x1="188.6" y1="266.8" x2="190.1" y2="266.8"/>
	<line class="st1" x1="184" y1="266.8" x2="185.5" y2="266.8"/>
	<line class="st1" x1="179.4" y1="266.8" x2="180.9" y2="266.8"/>
	<line class="st1" x1="174.7" y1="266.8" x2="176.2" y2="266.8"/>
	<line class="st1" x1="253.5" y1="266.8" x2="255" y2="266.8"/>
</g>
<g class="st2">
	<rect x="320" y="318.7" class="st3" width="30" height="88"/>
	<polygon class="st3" points="335,303.8 320,318.8 350,318.8 	"/>
</g>
<g>
	<g>
		<path class="st4" d="M325,294.7v-1.4c0-0.5,0.1-1,0.3-1.4c0.2-0.4,0.4-0.7,0.8-0.9c0.3-0.2,0.7-0.4,1.1-0.6l1.9-0.7
			c0.5-0.2,0.8-0.4,1.1-0.8c0.2-0.3,0.4-0.7,0.4-1.1c0-0.5-0.2-0.9-0.5-1.2c-0.3-0.3-0.8-0.5-1.4-0.5c-0.6,0-1.1,0.1-1.5,0.4
			s-0.6,0.6-0.6,1.1h-1.3c0-0.5,0.2-1,0.5-1.4c0.3-0.4,0.7-0.7,1.2-0.9c0.5-0.2,1.1-0.3,1.7-0.3c0.6,0,1.1,0.1,1.6,0.4
			s0.9,0.6,1.1,1s0.4,0.9,0.4,1.4c0,0.5-0.1,0.9-0.3,1.3c-0.2,0.4-0.4,0.7-0.8,0.9c-0.3,0.3-0.7,0.5-1.2,0.7l-1.9,0.8
			c-0.5,0.2-0.8,0.4-1.1,0.7c-0.2,0.3-0.4,0.6-0.4,1v0.4h5.5v1.1H325z"/>
		<path class="st4" d="M333.7,294.7v-1.4c0-0.5,0.1-1,0.3-1.4c0.2-0.4,0.4-0.7,0.8-0.9c0.3-0.2,0.7-0.4,1.1-0.6l1.9-0.7
			c0.5-0.2,0.8-0.4,1.1-0.8c0.2-0.3,0.4-0.7,0.4-1.1c0-0.5-0.2-0.9-0.5-1.2c-0.3-0.3-0.8-0.5-1.4-0.5c-0.6,0-1.1,0.1-1.5,0.4
			s-0.6,0.6-0.6,1.1h-1.3c0-0.5,0.2-1,0.5-1.4c0.3-0.4,0.7-0.7,1.2-0.9c0.5-0.2,1.1-0.3,1.7-0.3c0.6,0,1.1,0.1,1.6,0.4
			s0.9,0.6,1.1,1s0.4,0.9,0.4,1.4c0,0.5-0.1,0.9-0.3,1.3c-0.2,0.4-0.4,0.7-0.8,0.9c-0.3,0.3-0.7,0.5-1.2,0.7l-1.9,0.8
			c-0.5,0.2-0.8,0.4-1.1,0.7c-0.2,0.3-0.4,0.6-0.4,1v0.4h5.5v1.1H333.7z"/>
		<path class="st4" d="M344.2,289.4c-0.3,0-0.6-0.1-0.9-0.2c-0.3-0.2-0.5-0.4-0.7-0.7c-0.2-0.3-0.3-0.7-0.3-1.2s0.1-0.9,0.3-1.2
			c0.2-0.3,0.4-0.6,0.7-0.7c0.3-0.2,0.6-0.2,0.9-0.2c0.3,0,0.7,0.1,1,0.2s0.5,0.4,0.7,0.7c0.2,0.3,0.3,0.7,0.3,1.2s-0.1,0.9-0.3,1.2
			c-0.2,0.3-0.4,0.6-0.7,0.7S344.6,289.4,344.2,289.4z M343.1,294.7l6.3-9.4h1.2l-6.3,9.4H343.1z M344.2,288.6
			c0.3,0,0.5-0.1,0.7-0.3c0.2-0.2,0.3-0.6,0.3-1s-0.1-0.8-0.3-1c-0.2-0.2-0.4-0.3-0.7-0.3c-0.3,0-0.5,0.1-0.7,0.3s-0.3,0.6-0.3,1
			s0.1,0.8,0.3,1C343.7,288.5,343.9,288.6,344.2,288.6z M349.5,294.8c-0.3,0-0.6-0.1-0.9-0.2c-0.3-0.2-0.5-0.4-0.7-0.7
			c-0.2-0.3-0.3-0.7-0.3-1.2c0-0.5,0.1-0.9,0.3-1.2c0.2-0.3,0.4-0.6,0.7-0.7c0.3-0.2,0.6-0.2,0.9-0.2c0.3,0,0.7,0.1,1,0.2
			c0.3,0.2,0.5,0.4,0.7,0.7c0.2,0.3,0.3,0.7,0.3,1.2c0,0.5-0.1,0.9-0.3,1.2s-0.4,0.6-0.7,0.7C350.1,294.7,349.8,294.8,349.5,294.8z
			 M349.5,294c0.3,0,0.5-0.1,0.7-0.3s0.3-0.6,0.3-1c0-0.5-0.1-0.8-0.3-1c-0.2-0.2-0.4-0.3-0.7-0.3c-0.3,0-0.5,0.1-0.7,0.3
			c-0.2,0.2-0.3,0.6-0.3,1c0,0.5,0.1,0.8,0.3,1S349.2,294,349.5,294z"/>
	</g>
</g>
<circle class="st4" cx="338" cy="266.8" r="4"/>
<g class="st5">
	<rect x="233" y="318.7" class="st3" width="30" height="88"/>
	<polygon class="st3" points="248,303.8 233,318.8 263,318.8 	"/>
</g>
<g>
	<g>
		<path class="st4" d="M237.4,294.7v-1.4c0-0.5,0.1-1,0.3-1.4c0.2-0.4,0.4-0.7,0.8-0.9c0.3-0.2,0.7-0.4,1.1-0.6l1.9-0.7
			c0.5-0.2,0.8-0.4,1.1-0.8c0.2-0.3,0.4-0.7,0.4-1.1c0-0.5-0.2-0.9-0.5-1.2c-0.3-0.3-0.8-0.5-1.4-0.5c-0.6,0-1.1,0.1-1.5,0.4
			s-0.6,0.6-0.6,1.1h-1.3c0-0.5,0.2-1,0.5-1.4c0.3-0.4,0.7-0.7,1.2-0.9c0.5-0.2,1.1-0.3,1.7-0.3c0.6,0,1.1,0.1,1.6,0.4
			s0.9,0.6,1.1,1s0.4,0.9,0.4,1.4c0,0.5-0.1,0.9-0.3,1.3c-0.2,0.4-0.4,0.7-0.8,0.9c-0.3,0.3-0.7,0.5-1.2,0.7l-1.9,0.8
			c-0.5,0.2-0.8,0.4-1.1,0.7c-0.2,0.3-0.4,0.6-0.4,1v0.4h5.5v1.1H237.4z"/>
		<path class="st4" d="M246.1,294.7v-1.4c0-0.5,0.1-1,0.3-1.4c0.2-0.4,0.4-0.7,0.8-0.9c0.3-0.2,0.7-0.4,1.1-0.6l1.9-0.7
			c0.5-0.2,0.8-0.4,1.1-0.8c0.2-0.3,0.4-0.7,0.4-1.1c0-0.5-0.2-0.9-0.5-1.2c-0.3-0.3-0.8-0.5-1.4-0.5c-0.6,0-1.1,0.1-1.5,0.4
			s-0.6,0.6-0.6,1.1h-1.3c0-0.5,0.2-1,0.5-1.4c0.3-0.4,0.7-0.7,1.2-0.9c0.5-0.2,1.1-0.3,1.7-0.3c0.6,0,1.1,0.1,1.6,0.4
			s0.9,0.6,1.1,1s0.4,0.9,0.4,1.4c0,0.5-0.1,0.9-0.3,1.3c-0.2,0.4-0.4,0.7-0.8,0.9c-0.3,0.3-0.7,0.5-1.2,0.7l-1.9,0.8
			c-0.5,0.2-0.8,0.4-1.1,0.7c-0.2,0.3-0.4,0.6-0.4,1v0.4h5.5v1.1H246.1z"/>
		<path class="st4" d="M256.7,289.4c-0.3,0-0.6-0.1-0.9-0.2c-0.3-0.2-0.5-0.4-0.7-0.7s-0.3-0.7-0.3-1.2s0.1-0.9,0.3-1.2
			s0.4-0.6,0.7-0.7c0.3-0.2,0.6-0.2,0.9-0.2c0.3,0,0.7,0.1,1,0.2s0.5,0.4,0.7,0.7c0.2,0.3,0.3,0.7,0.3,1.2s-0.1,0.9-0.3,1.2
			c-0.2,0.3-0.4,0.6-0.7,0.7S257,289.4,256.7,289.4z M255.5,294.7l6.3-9.4h1.2l-6.3,9.4H255.5z M256.7,288.6c0.3,0,0.5-0.1,0.7-0.3
			c0.2-0.2,0.3-0.6,0.3-1s-0.1-0.8-0.3-1c-0.2-0.2-0.4-0.3-0.7-0.3c-0.3,0-0.5,0.1-0.7,0.3c-0.2,0.2-0.3,0.6-0.3,1s0.1,0.8,0.3,1
			C256.2,288.5,256.4,288.6,256.7,288.6z M261.9,294.8c-0.3,0-0.6-0.1-0.9-0.2c-0.3-0.2-0.5-0.4-0.7-0.7s-0.3-0.7-0.3-1.2
			c0-0.5,0.1-0.9,0.3-1.2c0.2-0.3,0.4-0.6,0.7-0.7c0.3-0.2,0.6-0.2,0.9-0.2c0.3,0,0.7,0.1,1,0.2c0.3,0.2,0.5,0.4,0.7,0.7
			c0.2,0.3,0.3,0.7,0.3,1.2c0,0.5-0.1,0.9-0.3,1.2c-0.2,0.3-0.4,0.6-0.7,0.7C262.6,294.7,262.3,294.8,261.9,294.8z M261.9,294
			c0.3,0,0.5-0.1,0.7-0.3s0.3-0.6,0.3-1c0-0.5-0.1-0.8-0.3-1c-0.2-0.2-0.4-0.3-0.7-0.3c-0.3,0-0.5,0.1-0.7,0.3
			c-0.2,0.2-0.3,0.6-0.3,1c0,0.5,0.1,0.8,0.3,1C261.4,293.9,261.6,294,261.9,294z"/>
	</g>
</g>
<circle class="st4" cx="250.4" cy="266.8" r="4"/>
<g class="st6">
	<rect x="155" y="318.7" class="st3" width="30" height="88"/>
	<polygon class="st3" points="170,303.8 155,318.8 185,318.8 	"/>
</g>
<g>
	<g>
		<path class="st4" d="M158.4,294.7v-1.4c0-0.5,0.1-1,0.3-1.4c0.2-0.4,0.4-0.7,0.8-0.9c0.3-0.2,0.7-0.4,1.1-0.6l1.9-0.7
			c0.5-0.2,0.8-0.4,1.1-0.8c0.2-0.3,0.4-0.7,0.4-1.1c0-0.5-0.2-0.9-0.5-1.2c-0.3-0.3-0.8-0.5-1.4-0.5c-0.6,0-1.1,0.1-1.5,0.4
			s-0.6,0.6-0.6,1.1h-1.3c0-0.5,0.2-1,0.5-1.4c0.3-0.4,0.7-0.7,1.2-0.9c0.5-0.2,1.1-0.3,1.7-0.3c0.6,0,1.1,0.1,1.6,0.4
			s0.9,0.6,1.1,1s0.4,0.9,0.4,1.4c0,0.5-0.1,0.9-0.3,1.3c-0.2,0.4-0.4,0.7-0.8,0.9c-0.3,0.3-0.7,0.5-1.2,0.7l-1.9,0.8
			c-0.5,0.2-0.8,0.4-1.1,0.7c-0.2,0.3-0.4,0.6-0.4,1v0.4h5.5v1.1H158.4z"/>
		<path class="st4" d="M167.1,294.7v-1.4c0-0.5,0.1-1,0.3-1.4c0.2-0.4,0.4-0.7,0.8-0.9c0.3-0.2,0.7-0.4,1.1-0.6l1.9-0.7
			c0.5-0.2,0.8-0.4,1.1-0.8c0.2-0.3,0.4-0.7,0.4-1.1c0-0.5-0.2-0.9-0.5-1.2c-0.3-0.3-0.8-0.5-1.4-0.5c-0.6,0-1.1,0.1-1.5,0.4
			s-0.6,0.6-0.6,1.1h-1.3c0-0.5,0.2-1,0.5-1.4c0.3-0.4,0.7-0.7,1.2-0.9c0.5-0.2,1.1-0.3,1.7-0.3c0.6,0,1.1,0.1,1.6,0.4
			s0.9,0.6,1.1,1s0.4,0.9,0.4,1.4c0,0.5-0.1,0.9-0.3,1.3c-0.2,0.4-0.4,0.7-0.8,0.9c-0.3,0.3-0.7,0.5-1.2,0.7l-1.9,0.8
			c-0.5,0.2-0.8,0.4-1.1,0.7c-0.2,0.3-0.4,0.6-0.4,1v0.4h5.5v1.1H167.1z"/>
		<path class="st4" d="M177.7,289.4c-0.3,0-0.6-0.1-0.9-0.2c-0.3-0.2-0.5-0.4-0.7-0.7s-0.3-0.7-0.3-1.2s0.1-0.9,0.3-1.2
			s0.4-0.6,0.7-0.7c0.3-0.2,0.6-0.2,0.9-0.2c0.3,0,0.7,0.1,1,0.2s0.5,0.4,0.7,0.7c0.2,0.3,0.3,0.7,0.3,1.2s-0.1,0.9-0.3,1.2
			c-0.2,0.3-0.4,0.6-0.7,0.7S178,289.4,177.7,289.4z M176.5,294.7l6.3-9.4h1.2l-6.3,9.4H176.5z M177.7,288.6c0.3,0,0.5-0.1,0.7-0.3
			c0.2-0.2,0.3-0.6,0.3-1s-0.1-0.8-0.3-1c-0.2-0.2-0.4-0.3-0.7-0.3c-0.3,0-0.5,0.1-0.7,0.3c-0.2,0.2-0.3,0.6-0.3,1s0.1,0.8,0.3,1
			C177.2,288.5,177.4,288.6,177.7,288.6z M182.9,294.8c-0.3,0-0.6-0.1-0.9-0.2c-0.3-0.2-0.5-0.4-0.7-0.7s-0.3-0.7-0.3-1.2
			c0-0.5,0.1-0.9,0.3-1.2c0.2-0.3,0.4-0.6,0.7-0.7c0.3-0.2,0.6-0.2,0.9-0.2c0.3,0,0.7,0.1,1,0.2c0.3,0.2,0.5,0.4,0.7,0.7
			c0.2,0.3,0.3,0.7,0.3,1.2c0,0.5-0.1,0.9-0.3,1.2c-0.2,0.3-0.4,0.6-0.7,0.7C183.6,294.7,183.3,294.8,182.9,294.8z M182.9,294
			c0.3,0,0.5-0.1,0.7-0.3s0.3-0.6,0.3-1c0-0.5-0.1-0.8-0.3-1c-0.2-0.2-0.4-0.3-0.7-0.3c-0.3,0-0.5,0.1-0.7,0.3
			c-0.2,0.2-0.3,0.6-0.3,1c0,0.5,0.1,0.8,0.3,1C182.4,293.9,182.6,294,182.9,294z"/>
	</g>
</g>
<circle class="st4" cx="171.4" cy="266.8" r="4"/>
<g class="st7">
	<rect x="71" y="318.7" class="st3" width="30" height="88"/>
	<polygon class="st3" points="86,303.8 71,318.8 101,318.8 	"/>
</g>
<g>
	<g>
		<path class="st4" d="M75.4,294.7v-1.4c0-0.5,0.1-1,0.3-1.4c0.2-0.4,0.4-0.7,0.8-0.9c0.3-0.2,0.7-0.4,1.1-0.6l1.9-0.7
			c0.5-0.2,0.8-0.4,1.1-0.8c0.2-0.3,0.4-0.7,0.4-1.1c0-0.5-0.2-0.9-0.5-1.2c-0.3-0.3-0.8-0.5-1.4-0.5c-0.6,0-1.1,0.1-1.5,0.4
			s-0.6,0.6-0.6,1.1h-1.3c0-0.5,0.2-1,0.5-1.4c0.3-0.4,0.7-0.7,1.2-0.9c0.5-0.2,1.1-0.3,1.7-0.3c0.6,0,1.1,0.1,1.6,0.4
			s0.9,0.6,1.1,1s0.4,0.9,0.4,1.4c0,0.5-0.1,0.9-0.3,1.3c-0.2,0.4-0.4,0.7-0.8,0.9c-0.3,0.3-0.7,0.5-1.2,0.7l-1.9,0.8
			c-0.5,0.2-0.8,0.4-1.1,0.7c-0.2,0.3-0.4,0.6-0.4,1v0.4h5.5v1.1H75.4z"/>
		<path class="st4" d="M84.1,294.7v-1.4c0-0.5,0.1-1,0.3-1.4c0.2-0.4,0.4-0.7,0.8-0.9c0.3-0.2,0.7-0.4,1.1-0.6l1.9-0.7
			c0.5-0.2,0.8-0.4,1.1-0.8c0.2-0.3,0.4-0.7,0.4-1.1c0-0.5-0.2-0.9-0.5-1.2c-0.3-0.3-0.8-0.5-1.4-0.5c-0.6,0-1.1,0.1-1.5,0.4
			s-0.6,0.6-0.6,1.1h-1.3c0-0.5,0.2-1,0.5-1.4c0.3-0.4,0.7-0.7,1.2-0.9c0.5-0.2,1.1-0.3,1.7-0.3c0.6,0,1.1,0.1,1.6,0.4
			s0.9,0.6,1.1,1s0.4,0.9,0.4,1.4c0,0.5-0.1,0.9-0.3,1.3c-0.2,0.4-0.4,0.7-0.8,0.9c-0.3,0.3-0.7,0.5-1.2,0.7l-1.9,0.8
			c-0.5,0.2-0.8,0.4-1.1,0.7c-0.2,0.3-0.4,0.6-0.4,1v0.4h5.5v1.1H84.1z"/>
		<path class="st4" d="M94.7,289.4c-0.3,0-0.6-0.1-0.9-0.2c-0.3-0.2-0.5-0.4-0.7-0.7s-0.3-0.7-0.3-1.2s0.1-0.9,0.3-1.2
			s0.4-0.6,0.7-0.7c0.3-0.2,0.6-0.2,0.9-0.2c0.3,0,0.7,0.1,1,0.2s0.5,0.4,0.7,0.7c0.2,0.3,0.3,0.7,0.3,1.2s-0.1,0.9-0.3,1.2
			c-0.2,0.3-0.4,0.6-0.7,0.7S95,289.4,94.7,289.4z M93.5,294.7l6.3-9.4h1.2l-6.3,9.4H93.5z M94.7,288.6c0.3,0,0.5-0.1,0.7-0.3
			c0.2-0.2,0.3-0.6,0.3-1s-0.1-0.8-0.3-1c-0.2-0.2-0.4-0.3-0.7-0.3c-0.3,0-0.5,0.1-0.7,0.3c-0.2,0.2-0.3,0.6-0.3,1s0.1,0.8,0.3,1
			C94.2,288.5,94.4,288.6,94.7,288.6z M99.9,294.8c-0.3,0-0.6-0.1-0.9-0.2c-0.3-0.2-0.5-0.4-0.7-0.7s-0.3-0.7-0.3-1.2
			c0-0.5,0.1-0.9,0.3-1.2c0.2-0.3,0.4-0.6,0.7-0.7c0.3-0.2,0.6-0.2,0.9-0.2c0.3,0,0.7,0.1,1,0.2c0.3,0.2,0.5,0.4,0.7,0.7
			c0.2,0.3,0.3,0.7,0.3,1.2c0,0.5-0.1,0.9-0.3,1.2c-0.2,0.3-0.4,0.6-0.7,0.7C100.6,294.7,100.3,294.8,99.9,294.8z M99.9,294
			c0.3,0,0.5-0.1,0.7-0.3s0.3-0.6,0.3-1c0-0.5-0.1-0.8-0.3-1c-0.2-0.2-0.4-0.3-0.7-0.3c-0.3,0-0.5,0.1-0.7,0.3
			c-0.2,0.2-0.3,0.6-0.3,1c0,0.5,0.1,0.8,0.3,1C99.4,293.9,99.6,294,99.9,294z"/>
	</g>
</g>
<circle class="st4" cx="88.4" cy="266.8" r="4"/>
<g class="st8">
	<rect x="402" y="318.7" class="st3" width="30" height="88"/>
	<polygon class="st3" points="417,303.8 402,318.8 432,318.8 	"/>
</g>
<g>
	<g>
		<path class="st4" d="M406.4,294.7v-1.4c0-0.5,0.1-1,0.3-1.4c0.2-0.4,0.4-0.7,0.8-0.9c0.3-0.2,0.7-0.4,1.1-0.6l1.9-0.7
			c0.5-0.2,0.8-0.4,1.1-0.8s0.4-0.7,0.4-1.1c0-0.5-0.2-0.9-0.5-1.2c-0.3-0.3-0.8-0.5-1.4-0.5c-0.6,0-1.1,0.1-1.5,0.4
			c-0.4,0.3-0.6,0.6-0.6,1.1h-1.3c0-0.5,0.2-1,0.5-1.4s0.7-0.7,1.2-0.9c0.5-0.2,1.1-0.3,1.7-0.3c0.6,0,1.1,0.1,1.6,0.4
			s0.9,0.6,1.1,1s0.4,0.9,0.4,1.4c0,0.5-0.1,0.9-0.3,1.3c-0.2,0.4-0.4,0.7-0.8,0.9c-0.3,0.3-0.7,0.5-1.2,0.7l-1.9,0.8
			c-0.5,0.2-0.8,0.4-1.1,0.7c-0.2,0.3-0.4,0.6-0.4,1v0.4h5.5v1.1H406.4z"/>
		<path class="st4" d="M415.1,294.7v-1.4c0-0.5,0.1-1,0.3-1.4c0.2-0.4,0.4-0.7,0.8-0.9c0.3-0.2,0.7-0.4,1.1-0.6l1.9-0.7
			c0.5-0.2,0.8-0.4,1.1-0.8c0.2-0.3,0.4-0.7,0.4-1.1c0-0.5-0.2-0.9-0.5-1.2c-0.3-0.3-0.8-0.5-1.4-0.5c-0.6,0-1.1,0.1-1.5,0.4
			c-0.4,0.3-0.6,0.6-0.6,1.1h-1.3c0-0.5,0.2-1,0.5-1.4c0.3-0.4,0.7-0.7,1.2-0.9c0.5-0.2,1.1-0.3,1.7-0.3c0.6,0,1.1,0.1,1.6,0.4
			s0.9,0.6,1.1,1s0.4,0.9,0.4,1.4c0,0.5-0.1,0.9-0.3,1.3c-0.2,0.4-0.4,0.7-0.8,0.9c-0.3,0.3-0.7,0.5-1.2,0.7l-1.9,0.8
			c-0.5,0.2-0.8,0.4-1.1,0.7c-0.2,0.3-0.4,0.6-0.4,1v0.4h5.5v1.1H415.1z"/>
		<path class="st4" d="M425.7,289.4c-0.3,0-0.6-0.1-0.9-0.2c-0.3-0.2-0.5-0.4-0.7-0.7c-0.2-0.3-0.3-0.7-0.3-1.2s0.1-0.9,0.3-1.2
			c0.2-0.3,0.4-0.6,0.7-0.7c0.3-0.2,0.6-0.2,0.9-0.2c0.3,0,0.7,0.1,1,0.2s0.5,0.4,0.7,0.7s0.3,0.7,0.3,1.2s-0.1,0.9-0.3,1.2
			s-0.4,0.6-0.7,0.7S426,289.4,425.7,289.4z M424.5,294.7l6.3-9.4h1.2l-6.3,9.4H424.5z M425.7,288.6c0.3,0,0.5-0.1,0.7-0.3
			c0.2-0.2,0.3-0.6,0.3-1s-0.1-0.8-0.3-1s-0.4-0.3-0.7-0.3c-0.3,0-0.5,0.1-0.7,0.3c-0.2,0.2-0.3,0.6-0.3,1s0.1,0.8,0.3,1
			C425.2,288.5,425.4,288.6,425.7,288.6z M430.9,294.8c-0.3,0-0.6-0.1-0.9-0.2c-0.3-0.2-0.5-0.4-0.7-0.7c-0.2-0.3-0.3-0.7-0.3-1.2
			c0-0.5,0.1-0.9,0.3-1.2c0.2-0.3,0.4-0.6,0.7-0.7c0.3-0.2,0.6-0.2,0.9-0.2c0.3,0,0.7,0.1,1,0.2s0.5,0.4,0.7,0.7
			c0.2,0.3,0.3,0.7,0.3,1.2c0,0.5-0.1,0.9-0.3,1.2c-0.2,0.3-0.4,0.6-0.7,0.7S431.3,294.8,430.9,294.8z M430.9,294
			c0.3,0,0.5-0.1,0.7-0.3s0.3-0.6,0.3-1c0-0.5-0.1-0.8-0.3-1c-0.2-0.2-0.4-0.3-0.7-0.3c-0.3,0-0.5,0.1-0.7,0.3
			c-0.2,0.2-0.3,0.6-0.3,1c0,0.5,0.1,0.8,0.3,1C430.4,293.9,430.6,294,430.9,294z"/>
	</g>
</g>
<circle class="st4" cx="419.4" cy="266.8" r="4"/>
<g>
	<rect x="570" y="318.7" class="st3" width="30" height="88"/>
	<polygon class="st3" points="585,303.8 570,318.8 600,318.8 	"/>
</g>
<g>
	<g>
		<path class="st4" d="M573.6,294.7v-1.4c0-0.5,0.1-1,0.3-1.4c0.2-0.4,0.4-0.7,0.8-0.9c0.3-0.2,0.7-0.4,1.1-0.6l1.9-0.7
			c0.5-0.2,0.8-0.4,1.1-0.8s0.4-0.7,0.4-1.1c0-0.5-0.2-0.9-0.5-1.2c-0.3-0.3-0.8-0.5-1.4-0.5c-0.6,0-1.1,0.1-1.5,0.4
			c-0.4,0.3-0.6,0.6-0.6,1.1h-1.3c0-0.5,0.2-1,0.5-1.4s0.7-0.7,1.2-0.9c0.5-0.2,1.1-0.3,1.7-0.3c0.6,0,1.1,0.1,1.6,0.4
			s0.9,0.6,1.1,1s0.4,0.9,0.4,1.4c0,0.5-0.1,0.9-0.3,1.3c-0.2,0.4-0.4,0.7-0.8,0.9c-0.3,0.3-0.7,0.5-1.2,0.7l-1.9,0.8
			c-0.5,0.2-0.8,0.4-1.1,0.7c-0.2,0.3-0.4,0.6-0.4,1v0.4h5.5v1.1H573.6z"/>
		<path class="st4" d="M582.3,294.7v-1.4c0-0.5,0.1-1,0.3-1.4c0.2-0.4,0.4-0.7,0.8-0.9c0.3-0.2,0.7-0.4,1.1-0.6l1.9-0.7
			c0.5-0.2,0.8-0.4,1.1-0.8c0.2-0.3,0.4-0.7,0.4-1.1c0-0.5-0.2-0.9-0.5-1.2c-0.3-0.3-0.8-0.5-1.4-0.5c-0.6,0-1.1,0.1-1.5,0.4
			c-0.4,0.3-0.6,0.6-0.6,1.1h-1.3c0-0.5,0.2-1,0.5-1.4c0.3-0.4,0.7-0.7,1.2-0.9c0.5-0.2,1.1-0.3,1.7-0.3c0.6,0,1.1,0.1,1.6,0.4
			s0.9,0.6,1.1,1s0.4,0.9,0.4,1.4c0,0.5-0.1,0.9-0.3,1.3c-0.2,0.4-0.4,0.7-0.8,0.9c-0.3,0.3-0.7,0.5-1.2,0.7l-1.9,0.8
			c-0.5,0.2-0.8,0.4-1.1,0.7c-0.2,0.3-0.4,0.6-0.4,1v0.4h5.5v1.1H582.3z"/>
		<path class="st4" d="M592.9,289.4c-0.3,0-0.6-0.1-0.9-0.2c-0.3-0.2-0.5-0.4-0.7-0.7c-0.2-0.3-0.3-0.7-0.3-1.2s0.1-0.9,0.3-1.2
			c0.2-0.3,0.4-0.6,0.7-0.7c0.3-0.2,0.6-0.2,0.9-0.2c0.3,0,0.7,0.1,1,0.2s0.5,0.4,0.7,0.7s0.3,0.7,0.3,1.2s-0.1,0.9-0.3,1.2
			s-0.4,0.6-0.7,0.7S593.2,289.4,592.9,289.4z M591.7,294.7l6.3-9.4h1.2l-6.3,9.4H591.7z M592.9,288.6c0.3,0,0.5-0.1,0.7-0.3
			c0.2-0.2,0.3-0.6,0.3-1s-0.1-0.8-0.3-1s-0.4-0.3-0.7-0.3c-0.3,0-0.5,0.1-0.7,0.3c-0.2,0.2-0.3,0.6-0.3,1s0.1,0.8,0.3,1
			C592.4,288.5,592.6,288.6,592.9,288.6z M598.1,294.8c-0.3,0-0.6-0.1-0.9-0.2c-0.3-0.2-0.5-0.4-0.7-0.7c-0.2-0.3-0.3-0.7-0.3-1.2
			c0-0.5,0.1-0.9,0.3-1.2c0.2-0.3,0.4-0.6,0.7-0.7c0.3-0.2,0.6-0.2,0.9-0.2c0.3,0,0.7,0.1,1,0.2s0.5,0.4,0.7,0.7
			c0.2,0.3,0.3,0.7,0.3,1.2c0,0.5-0.1,0.9-0.3,1.2c-0.2,0.3-0.4,0.6-0.7,0.7S598.5,294.8,598.1,294.8z M598.1,294
			c0.3,0,0.5-0.1,0.7-0.3s0.3-0.6,0.3-1c0-0.5-0.1-0.8-0.3-1c-0.2-0.2-0.4-0.3-0.7-0.3c-0.3,0-0.5,0.1-0.7,0.3
			c-0.2,0.2-0.3,0.6-0.3,1c0,0.5,0.1,0.8,0.3,1C597.6,293.9,597.8,294,598.1,294z"/>
	</g>
</g>
<circle class="st4" cx="586.6" cy="266.8" r="4"/>
<g class="st9">
	<rect x="487" y="318.7" class="st3" width="30" height="88"/>
	<polygon class="st3" points="502,303.8 487,318.8 517,318.8 	"/>
</g>
<g>
	<g>
		<path class="st4" d="M488.4,294.7v-1.4c0-0.5,0.1-1,0.3-1.4c0.2-0.4,0.4-0.7,0.8-0.9c0.3-0.2,0.7-0.4,1.1-0.6l1.9-0.7
			c0.5-0.2,0.8-0.4,1.1-0.8s0.4-0.7,0.4-1.1c0-0.5-0.2-0.9-0.5-1.2c-0.3-0.3-0.8-0.5-1.4-0.5c-0.6,0-1.1,0.1-1.5,0.4
			c-0.4,0.3-0.6,0.6-0.6,1.1h-1.3c0-0.5,0.2-1,0.5-1.4s0.7-0.7,1.2-0.9c0.5-0.2,1.1-0.3,1.7-0.3c0.6,0,1.1,0.1,1.6,0.4
			s0.9,0.6,1.1,1s0.4,0.9,0.4,1.4c0,0.5-0.1,0.9-0.3,1.3c-0.2,0.4-0.4,0.7-0.8,0.9c-0.3,0.3-0.7,0.5-1.2,0.7l-1.9,0.8
			c-0.5,0.2-0.8,0.4-1.1,0.7c-0.2,0.3-0.4,0.6-0.4,1v0.4h5.5v1.1H488.4z"/>
		<path class="st4" d="M497.1,294.7v-1.4c0-0.5,0.1-1,0.3-1.4c0.2-0.4,0.4-0.7,0.8-0.9c0.3-0.2,0.7-0.4,1.1-0.6l1.9-0.7
			c0.5-0.2,0.8-0.4,1.1-0.8c0.2-0.3,0.4-0.7,0.4-1.1c0-0.5-0.2-0.9-0.5-1.2c-0.3-0.3-0.8-0.5-1.4-0.5c-0.6,0-1.1,0.1-1.5,0.4
			c-0.4,0.3-0.6,0.6-0.6,1.1h-1.3c0-0.5,0.2-1,0.5-1.4c0.3-0.4,0.7-0.7,1.2-0.9c0.5-0.2,1.1-0.3,1.7-0.3c0.6,0,1.1,0.1,1.6,0.4
			s0.9,0.6,1.1,1s0.4,0.9,0.4,1.4c0,0.5-0.1,0.9-0.3,1.3c-0.2,0.4-0.4,0.7-0.8,0.9c-0.3,0.3-0.7,0.5-1.2,0.7l-1.9,0.8
			c-0.5,0.2-0.8,0.4-1.1,0.7c-0.2,0.3-0.4,0.6-0.4,1v0.4h5.5v1.1H497.1z"/>
		<path class="st4" d="M507.7,289.4c-0.3,0-0.6-0.1-0.9-0.2c-0.3-0.2-0.5-0.4-0.7-0.7c-0.2-0.3-0.3-0.7-0.3-1.2s0.1-0.9,0.3-1.2
			c0.2-0.3,0.4-0.6,0.7-0.7c0.3-0.2,0.6-0.2,0.9-0.2c0.3,0,0.7,0.1,1,0.2s0.5,0.4,0.7,0.7s0.3,0.7,0.3,1.2s-0.1,0.9-0.3,1.2
			s-0.4,0.6-0.7,0.7S508,289.4,507.7,289.4z M506.5,294.7l6.3-9.4h1.2l-6.3,9.4H506.5z M507.7,288.6c0.3,0,0.5-0.1,0.7-0.3
			c0.2-0.2,0.3-0.6,0.3-1s-0.1-0.8-0.3-1s-0.4-0.3-0.7-0.3c-0.3,0-0.5,0.1-0.7,0.3c-0.2,0.2-0.3,0.6-0.3,1s0.1,0.8,0.3,1
			C507.2,288.5,507.4,288.6,507.7,288.6z M512.9,294.8c-0.3,0-0.6-0.1-0.9-0.2c-0.3-0.2-0.5-0.4-0.7-0.7c-0.2-0.3-0.3-0.7-0.3-1.2
			c0-0.5,0.1-0.9,0.3-1.2c0.2-0.3,0.4-0.6,0.7-0.7c0.3-0.2,0.6-0.2,0.9-0.2c0.3,0,0.7,0.1,1,0.2s0.5,0.4,0.7,0.7
			c0.2,0.3,0.3,0.7,0.3,1.2c0,0.5-0.1,0.9-0.3,1.2c-0.2,0.3-0.4,0.6-0.7,0.7S513.3,294.8,512.9,294.8z M512.9,294
			c0.3,0,0.5-0.1,0.7-0.3s0.3-0.6,0.3-1c0-0.5-0.1-0.8-0.3-1c-0.2-0.2-0.4-0.3-0.7-0.3c-0.3,0-0.5,0.1-0.7,0.3
			c-0.2,0.2-0.3,0.6-0.3,1c0,0.5,0.1,0.8,0.3,1C512.4,293.9,512.6,294,512.9,294z"/>
	</g>
</g>
<circle class="st4" cx="501.4" cy="266.8" r="4"/>
<g>
	<g>
		<path class="st4" d="M324.5,426.3v-1.2c0-0.5,0.1-0.9,0.2-1.2c0.2-0.3,0.4-0.6,0.6-0.8c0.3-0.2,0.6-0.4,1-0.5l1.6-0.6
			c0.4-0.2,0.7-0.4,0.9-0.6s0.3-0.6,0.3-1c0-0.4-0.1-0.8-0.4-1c-0.3-0.3-0.7-0.4-1.2-0.4c-0.5,0-0.9,0.1-1.3,0.3
			c-0.3,0.2-0.5,0.5-0.6,1h-1.1c0-0.5,0.2-0.9,0.4-1.2c0.2-0.3,0.6-0.6,1-0.8c0.4-0.2,0.9-0.3,1.5-0.3c0.5,0,1,0.1,1.4,0.3
			c0.4,0.2,0.7,0.5,1,0.8c0.2,0.4,0.4,0.8,0.4,1.2c0,0.4-0.1,0.8-0.2,1.1c-0.2,0.3-0.4,0.6-0.7,0.8s-0.6,0.4-1,0.6l-1.7,0.7
			c-0.4,0.2-0.7,0.4-0.9,0.6c-0.2,0.2-0.3,0.5-0.3,0.9v0.4h4.7v0.9H324.5z"/>
		<path class="st4" d="M335,426.4c-0.6,0-1.2-0.2-1.7-0.5c-0.5-0.3-0.9-0.8-1.1-1.4c-0.3-0.6-0.4-1.4-0.4-2.4s0.1-1.7,0.4-2.4
			c0.3-0.6,0.6-1.1,1.1-1.4c0.5-0.3,1-0.5,1.7-0.5c0.6,0,1.2,0.2,1.7,0.5c0.5,0.3,0.9,0.8,1.1,1.4s0.4,1.4,0.4,2.4s-0.1,1.7-0.4,2.4
			c-0.3,0.6-0.6,1.1-1.1,1.4C336.2,426.3,335.7,426.4,335,426.4z M335,425.5c0.7,0,1.2-0.3,1.6-0.9c0.4-0.6,0.5-1.4,0.5-2.4
			s-0.2-1.9-0.5-2.4c-0.4-0.6-0.9-0.9-1.6-0.9c-0.7,0-1.2,0.3-1.6,0.9c-0.4,0.6-0.6,1.4-0.6,2.4s0.2,1.9,0.6,2.4
			C333.8,425.2,334.3,425.5,335,425.5z"/>
		<path class="st4" d="M341.1,418.1h0.8v8.2h-1v-7c-0.2,0.1-0.4,0.3-0.7,0.3c-0.2,0.1-0.5,0.1-0.7,0.1v-1c0.3,0,0.5-0.1,0.8-0.2
			C340.6,418.4,340.8,418.3,341.1,418.1z"/>
		<path class="st4" d="M344,426.3l3.9-7.2h-4.4v-1h5.6v0.9l-3.8,7.2H344z"/>
	</g>
</g>
<g>
	<g>
		<path class="st4" d="M236.9,426.3v-1.2c0-0.5,0.1-0.9,0.2-1.2c0.2-0.3,0.4-0.6,0.6-0.8c0.3-0.2,0.6-0.4,1-0.5l1.6-0.6
			c0.4-0.2,0.7-0.4,0.9-0.6s0.3-0.6,0.3-1c0-0.4-0.1-0.8-0.4-1c-0.3-0.3-0.7-0.4-1.2-0.4c-0.5,0-0.9,0.1-1.3,0.3
			c-0.3,0.2-0.5,0.5-0.6,1h-1.1c0-0.5,0.2-0.9,0.4-1.2c0.2-0.3,0.6-0.6,1-0.8c0.4-0.2,0.9-0.3,1.5-0.3c0.5,0,1,0.1,1.4,0.3
			c0.4,0.2,0.7,0.5,1,0.8c0.2,0.4,0.4,0.8,0.4,1.2c0,0.4-0.1,0.8-0.2,1.1c-0.2,0.3-0.4,0.6-0.7,0.8s-0.6,0.4-1,0.6l-1.7,0.7
			c-0.4,0.2-0.7,0.4-0.9,0.6c-0.2,0.2-0.3,0.5-0.3,0.9v0.4h4.7v0.9H236.9z"/>
		<path class="st4" d="M247.5,426.4c-0.6,0-1.2-0.2-1.7-0.5c-0.5-0.3-0.9-0.8-1.1-1.4c-0.3-0.6-0.4-1.4-0.4-2.4s0.1-1.7,0.4-2.4
			c0.3-0.6,0.6-1.1,1.1-1.4c0.5-0.3,1-0.5,1.7-0.5c0.6,0,1.2,0.2,1.7,0.5c0.5,0.3,0.9,0.8,1.1,1.4s0.4,1.4,0.4,2.4s-0.1,1.7-0.4,2.4
			c-0.3,0.6-0.6,1.1-1.1,1.4C248.7,426.3,248.1,426.4,247.5,426.4z M247.5,425.5c0.7,0,1.2-0.3,1.6-0.9c0.4-0.6,0.5-1.4,0.5-2.4
			s-0.2-1.9-0.5-2.4c-0.4-0.6-0.9-0.9-1.6-0.9c-0.7,0-1.2,0.3-1.6,0.9c-0.4,0.6-0.6,1.4-0.6,2.4s0.2,1.9,0.6,2.4
			C246.3,425.2,246.8,425.5,247.5,425.5z"/>
		<path class="st4" d="M253.5,418.1h0.8v8.2h-1v-7c-0.2,0.1-0.4,0.3-0.7,0.3c-0.2,0.1-0.5,0.1-0.7,0.1v-1c0.3,0,0.5-0.1,0.8-0.2
			C253,418.4,253.3,418.3,253.5,418.1z"/>
		<path class="st4" d="M259.6,426.4c-0.7,0-1.2-0.2-1.7-0.5c-0.5-0.4-0.9-0.8-1.1-1.5c-0.3-0.6-0.4-1.3-0.4-2.1
			c0-0.9,0.1-1.7,0.4-2.3c0.3-0.7,0.7-1.2,1.2-1.5c0.5-0.3,1.1-0.5,1.8-0.5c0.5,0,0.9,0.1,1.3,0.3c0.4,0.2,0.7,0.4,0.9,0.8
			c0.2,0.3,0.4,0.7,0.4,1.2h-1.1c-0.1-0.4-0.2-0.7-0.4-0.9c-0.2-0.2-0.6-0.3-1-0.3c-0.7,0-1.3,0.3-1.8,1c-0.4,0.6-0.6,1.5-0.6,2.6
			c0,0.2,0,0.3,0,0.6c0,0.2,0,0.4,0.1,0.6c0-0.6,0.2-1,0.4-1.4c0.2-0.3,0.5-0.6,0.9-0.7s0.7-0.2,1.1-0.2c0.5,0,0.9,0.1,1.3,0.3
			s0.7,0.5,0.9,0.9c0.2,0.4,0.3,0.8,0.3,1.3c0,0.5-0.1,0.9-0.4,1.3c-0.2,0.4-0.6,0.7-1,0.9S260.1,426.4,259.6,426.4z M259.6,425.5
			c0.5,0,0.9-0.1,1.2-0.4c0.3-0.3,0.5-0.7,0.5-1.2c0-0.5-0.2-0.9-0.5-1.2c-0.3-0.3-0.7-0.4-1.2-0.4c-0.3,0-0.6,0.1-0.9,0.2
			s-0.5,0.3-0.6,0.6c-0.1,0.2-0.2,0.5-0.2,0.8c0,0.5,0.2,0.9,0.5,1.2C258.7,425.3,259.1,425.5,259.6,425.5z"/>
	</g>
</g>
<g>
	<g>
		<path class="st4" d="M157.9,426.3v-1.2c0-0.5,0.1-0.9,0.2-1.2c0.2-0.3,0.4-0.6,0.6-0.8c0.3-0.2,0.6-0.4,1-0.5l1.6-0.6
			c0.4-0.2,0.7-0.4,0.9-0.6s0.3-0.6,0.3-1c0-0.4-0.1-0.8-0.4-1c-0.3-0.3-0.7-0.4-1.2-0.4c-0.5,0-0.9,0.1-1.3,0.3
			c-0.3,0.2-0.5,0.5-0.6,1h-1.1c0-0.5,0.2-0.9,0.4-1.2c0.2-0.3,0.6-0.6,1-0.8c0.4-0.2,0.9-0.3,1.5-0.3c0.5,0,1,0.1,1.4,0.3
			c0.4,0.2,0.7,0.5,1,0.8c0.2,0.4,0.4,0.8,0.4,1.2c0,0.4-0.1,0.8-0.2,1.1c-0.2,0.3-0.4,0.6-0.7,0.8s-0.6,0.4-1,0.6l-1.7,0.7
			c-0.4,0.2-0.7,0.4-0.9,0.6c-0.2,0.2-0.3,0.5-0.3,0.9v0.4h4.7v0.9H157.9z"/>
		<path class="st4" d="M168.5,426.4c-0.6,0-1.2-0.2-1.7-0.5c-0.5-0.3-0.9-0.8-1.1-1.4c-0.3-0.6-0.4-1.4-0.4-2.4s0.1-1.7,0.4-2.4
			c0.3-0.6,0.6-1.1,1.1-1.4c0.5-0.3,1-0.5,1.7-0.5c0.6,0,1.2,0.2,1.7,0.5c0.5,0.3,0.9,0.8,1.1,1.4s0.4,1.4,0.4,2.4s-0.1,1.7-0.4,2.4
			c-0.3,0.6-0.6,1.1-1.1,1.4C169.7,426.3,169.1,426.4,168.5,426.4z M168.5,425.5c0.7,0,1.2-0.3,1.6-0.9c0.4-0.6,0.5-1.4,0.5-2.4
			s-0.2-1.9-0.5-2.4c-0.4-0.6-0.9-0.9-1.6-0.9c-0.7,0-1.2,0.3-1.6,0.9c-0.4,0.6-0.6,1.4-0.6,2.4s0.2,1.9,0.6,2.4
			C167.3,425.2,167.8,425.5,168.5,425.5z"/>
		<path class="st4" d="M174.5,418.1h0.8v8.2h-1v-7c-0.2,0.1-0.4,0.3-0.7,0.3c-0.2,0.1-0.5,0.1-0.7,0.1v-1c0.3,0,0.5-0.1,0.8-0.2
			C174,418.4,174.3,418.3,174.5,418.1z"/>
		<path class="st4" d="M180.3,426.4c-0.5,0-1-0.1-1.4-0.3c-0.4-0.2-0.8-0.5-1-0.8c-0.3-0.4-0.4-0.8-0.4-1.3h1c0,0.5,0.2,0.9,0.5,1.1
			c0.3,0.3,0.8,0.4,1.3,0.4c0.6,0,1-0.2,1.4-0.5c0.3-0.4,0.5-0.8,0.5-1.3c0-1-0.7-1.6-2-1.6H178l0.4-4h4.5v0.9h-3.7l0.2-0.4
			l-0.3,2.8l-0.1-0.1c0.2,0,0.4-0.1,0.7-0.1s0.5,0,0.7,0c0.9,0,1.6,0.2,2.1,0.6s0.8,1,0.8,1.8c0,0.5-0.1,1-0.4,1.4
			c-0.2,0.4-0.6,0.8-1,1C181.4,426.3,180.9,426.4,180.3,426.4z"/>
	</g>
</g>
<g>
	<g>
		<path class="st4" d="M74.9,426.3v-1.2c0-0.5,0.1-0.9,0.2-1.2c0.2-0.3,0.4-0.6,0.6-0.8c0.3-0.2,0.6-0.4,1-0.5l1.6-0.6
			c0.4-0.2,0.7-0.4,0.9-0.6s0.3-0.6,0.3-1c0-0.4-0.1-0.8-0.4-1c-0.3-0.3-0.7-0.4-1.2-0.4c-0.5,0-0.9,0.1-1.3,0.3
			c-0.3,0.2-0.5,0.5-0.6,1h-1.1c0-0.5,0.2-0.9,0.4-1.2c0.2-0.3,0.6-0.6,1-0.8c0.4-0.2,0.9-0.3,1.5-0.3c0.5,0,1,0.1,1.4,0.3
			c0.4,0.2,0.7,0.5,1,0.8c0.2,0.4,0.4,0.8,0.4,1.2c0,0.4-0.1,0.8-0.2,1.1c-0.2,0.3-0.4,0.6-0.7,0.8s-0.6,0.4-1,0.6l-1.7,0.7
			c-0.4,0.2-0.7,0.4-0.9,0.6c-0.2,0.2-0.3,0.5-0.3,0.9v0.4h4.7v0.9H74.9z"/>
		<path class="st4" d="M85.5,426.4c-0.6,0-1.2-0.2-1.7-0.5c-0.5-0.3-0.9-0.8-1.1-1.4c-0.3-0.6-0.4-1.4-0.4-2.4s0.1-1.7,0.4-2.4
			c0.3-0.6,0.6-1.1,1.1-1.4c0.5-0.3,1-0.5,1.7-0.5c0.6,0,1.2,0.2,1.7,0.5c0.5,0.3,0.9,0.8,1.1,1.4s0.4,1.4,0.4,2.4s-0.1,1.7-0.4,2.4
			c-0.3,0.6-0.6,1.1-1.1,1.4C86.7,426.3,86.1,426.4,85.5,426.4z M85.5,425.5c0.7,0,1.2-0.3,1.6-0.9c0.4-0.6,0.5-1.4,0.5-2.4
			s-0.2-1.9-0.5-2.4c-0.4-0.6-0.9-0.9-1.6-0.9c-0.7,0-1.2,0.3-1.6,0.9c-0.4,0.6-0.6,1.4-0.6,2.4s0.2,1.9,0.6,2.4
			C84.3,425.2,84.8,425.5,85.5,425.5z"/>
		<path class="st4" d="M91.5,418.1h0.8v8.2h-1v-7c-0.2,0.1-0.4,0.3-0.7,0.3c-0.2,0.1-0.5,0.1-0.7,0.1v-1c0.3,0,0.5-0.1,0.8-0.2
			C91,418.4,91.3,418.3,91.5,418.1z"/>
		<path class="st4" d="M98.3,418h0.9v5.4h1.4v0.9h-1.4v2h-1v-2H94v-0.8L98.3,418z M98.2,419.6l-3.1,3.9h3.1V419.6z"/>
	</g>
</g>
<g>
	<g>
		<path class="st4" d="M487.9,426.3v-1.2c0-0.5,0.1-0.9,0.2-1.2c0.2-0.3,0.4-0.6,0.6-0.8c0.3-0.2,0.6-0.4,1-0.5l1.6-0.6
			c0.4-0.2,0.7-0.4,0.9-0.6s0.3-0.6,0.3-1c0-0.4-0.1-0.8-0.4-1c-0.3-0.3-0.7-0.4-1.2-0.4c-0.5,0-0.9,0.1-1.3,0.3
			c-0.3,0.2-0.5,0.5-0.6,1h-1.1c0-0.5,0.2-0.9,0.4-1.2c0.3-0.3,0.6-0.6,1-0.8c0.4-0.2,0.9-0.3,1.5-0.3c0.5,0,1,0.1,1.4,0.3
			c0.4,0.2,0.7,0.5,1,0.8c0.2,0.4,0.4,0.8,0.4,1.2c0,0.4-0.1,0.8-0.2,1.1c-0.2,0.3-0.4,0.6-0.7,0.8s-0.6,0.4-1,0.6l-1.7,0.7
			c-0.4,0.2-0.7,0.4-0.9,0.6c-0.2,0.2-0.3,0.5-0.3,0.9v0.4h4.7v0.9H487.9z"/>
		<path class="st4" d="M498.5,426.4c-0.6,0-1.2-0.2-1.7-0.5c-0.5-0.3-0.9-0.8-1.1-1.4c-0.3-0.6-0.4-1.4-0.4-2.4s0.1-1.7,0.4-2.4
			c0.3-0.6,0.6-1.1,1.1-1.4c0.5-0.3,1-0.5,1.7-0.5c0.6,0,1.2,0.2,1.7,0.5c0.5,0.3,0.9,0.8,1.1,1.4c0.3,0.6,0.4,1.4,0.4,2.4
			s-0.1,1.7-0.4,2.4c-0.3,0.6-0.6,1.1-1.1,1.4C499.7,426.3,499.1,426.4,498.5,426.4z M498.5,425.5c0.7,0,1.2-0.3,1.6-0.9
			c0.4-0.6,0.5-1.4,0.5-2.4s-0.2-1.9-0.5-2.4c-0.4-0.6-0.9-0.9-1.6-0.9c-0.7,0-1.2,0.3-1.6,0.9c-0.4,0.6-0.6,1.4-0.6,2.4
			s0.2,1.9,0.6,2.4C497.3,425.2,497.8,425.5,498.5,425.5z"/>
		<path class="st4" d="M504.5,418.1h0.8v8.2h-1v-7c-0.2,0.1-0.4,0.3-0.7,0.3c-0.2,0.1-0.5,0.1-0.7,0.1v-1c0.3,0,0.5-0.1,0.8-0.2
			C504,418.4,504.3,418.3,504.5,418.1z"/>
		<path class="st4" d="M510.3,426.4c-0.5,0-1-0.1-1.4-0.3c-0.4-0.2-0.7-0.5-1-0.9c-0.2-0.4-0.4-0.8-0.4-1.3h1.1
			c0,0.5,0.2,0.9,0.5,1.2s0.7,0.4,1.2,0.4c0.5,0,0.9-0.1,1.2-0.4c0.3-0.3,0.6-0.7,0.7-1.3c0.1-0.5,0.2-1.2,0.2-1.9
			c0-0.2,0-0.3,0-0.5c0-0.1,0-0.3-0.1-0.5c-0.1,0.5-0.2,0.9-0.4,1.2c-0.2,0.3-0.5,0.5-0.8,0.7c-0.3,0.2-0.7,0.2-1.1,0.2
			c-0.5,0-0.9-0.1-1.3-0.3c-0.4-0.2-0.7-0.5-0.9-0.9c-0.2-0.4-0.3-0.8-0.3-1.3c0-0.5,0.1-0.9,0.3-1.3c0.2-0.4,0.6-0.7,1-0.9
			c0.4-0.2,0.9-0.3,1.4-0.3c0.5,0,0.9,0.1,1.3,0.3c0.4,0.2,0.7,0.5,1,0.8c0.3,0.4,0.5,0.8,0.7,1.3s0.2,1.1,0.2,1.7
			c0,0.9-0.1,1.7-0.3,2.3c-0.2,0.7-0.6,1.2-1,1.5C511.7,426.2,511.1,426.4,510.3,426.4z M510.3,422.1c0.3,0,0.6-0.1,0.9-0.2
			c0.3-0.1,0.5-0.3,0.6-0.6c0.2-0.2,0.2-0.5,0.2-0.8c0-0.5-0.2-0.9-0.5-1.2c-0.3-0.3-0.7-0.4-1.2-0.4c-0.5,0-0.9,0.1-1.2,0.4
			c-0.3,0.3-0.5,0.7-0.5,1.2c0,0.5,0.2,0.9,0.5,1.2C509.4,422,509.8,422.1,510.3,422.1z"/>
	</g>
</g>
<g>
	<g>
		<path class="st4" d="M405.9,426.3v-1.2c0-0.5,0.1-0.9,0.2-1.2c0.2-0.3,0.4-0.6,0.6-0.8c0.3-0.2,0.6-0.4,1-0.5l1.6-0.6
			c0.4-0.2,0.7-0.4,0.9-0.6s0.3-0.6,0.3-1c0-0.4-0.1-0.8-0.4-1c-0.3-0.3-0.7-0.4-1.2-0.4c-0.5,0-0.9,0.1-1.3,0.3
			c-0.3,0.2-0.5,0.5-0.6,1h-1.1c0-0.5,0.2-0.9,0.4-1.2c0.3-0.3,0.6-0.6,1-0.8c0.4-0.2,0.9-0.3,1.5-0.3c0.5,0,1,0.1,1.4,0.3
			c0.4,0.2,0.7,0.5,1,0.8c0.2,0.4,0.4,0.8,0.4,1.2c0,0.4-0.1,0.8-0.2,1.1c-0.2,0.3-0.4,0.6-0.7,0.8s-0.6,0.4-1,0.6l-1.7,0.7
			c-0.4,0.2-0.7,0.4-0.9,0.6c-0.2,0.2-0.3,0.5-0.3,0.9v0.4h4.7v0.9H405.9z"/>
		<path class="st4" d="M416.5,426.4c-0.6,0-1.2-0.2-1.7-0.5c-0.5-0.3-0.9-0.8-1.1-1.4c-0.3-0.6-0.4-1.4-0.4-2.4s0.1-1.7,0.4-2.4
			c0.3-0.6,0.6-1.1,1.1-1.4c0.5-0.3,1-0.5,1.7-0.5c0.6,0,1.2,0.2,1.7,0.5c0.5,0.3,0.9,0.8,1.1,1.4c0.3,0.6,0.4,1.4,0.4,2.4
			s-0.1,1.7-0.4,2.4c-0.3,0.6-0.6,1.1-1.1,1.4C417.7,426.3,417.1,426.4,416.5,426.4z M416.5,425.5c0.7,0,1.2-0.3,1.6-0.9
			c0.4-0.6,0.5-1.4,0.5-2.4s-0.2-1.9-0.5-2.4c-0.4-0.6-0.9-0.9-1.6-0.9c-0.7,0-1.2,0.3-1.6,0.9c-0.4,0.6-0.6,1.4-0.6,2.4
			s0.2,1.9,0.6,2.4C415.3,425.2,415.8,425.5,416.5,425.5z"/>
		<path class="st4" d="M422.5,418.1h0.8v8.2h-1v-7c-0.2,0.1-0.4,0.3-0.7,0.3c-0.2,0.1-0.5,0.1-0.7,0.1v-1c0.3,0,0.5-0.1,0.8-0.2
			C422,418.4,422.3,418.3,422.5,418.1z"/>
		<path class="st4" d="M428.6,426.4c-0.6,0-1.2-0.1-1.7-0.3c-0.5-0.2-0.9-0.5-1.2-0.8s-0.4-0.8-0.4-1.2c0-0.4,0.1-0.8,0.3-1.1
			c0.2-0.3,0.5-0.5,0.9-0.7s0.8-0.2,1.3-0.2c0.1,0,0.2,0,0.4,0s0.2,0,0.4,0.1v0.3c-0.4,0-0.8,0.1-1.1,0.2c-0.3,0.1-0.6,0.3-0.8,0.6
			c-0.2,0.2-0.3,0.5-0.3,0.7c0,0.3,0.1,0.6,0.3,0.8c0.2,0.2,0.5,0.4,0.8,0.5c0.3,0.1,0.7,0.2,1.1,0.2c0.7,0,1.2-0.1,1.6-0.3
			c0.4-0.2,0.6-0.5,0.6-0.9c0-0.3-0.1-0.5-0.3-0.7c-0.2-0.2-0.5-0.4-0.8-0.5l-2.2-0.9c-0.3-0.1-0.5-0.2-0.8-0.4s-0.5-0.4-0.7-0.7
			c-0.2-0.3-0.3-0.6-0.3-1c0-0.4,0.1-0.8,0.4-1.1c0.2-0.3,0.6-0.6,1-0.8c0.4-0.2,1-0.3,1.6-0.3c0.6,0,1.1,0.1,1.5,0.3
			c0.4,0.2,0.8,0.5,1.1,0.8s0.4,0.7,0.4,1.2c0,0.3-0.1,0.7-0.3,0.9c-0.2,0.3-0.4,0.5-0.8,0.7c-0.3,0.2-0.7,0.3-1.2,0.3
			c-0.1,0-0.2,0-0.3,0c-0.1,0-0.2,0-0.4-0.1v-0.3c0.4,0,0.7-0.1,0.9-0.2c0.3-0.1,0.5-0.3,0.7-0.5c0.2-0.2,0.3-0.5,0.3-0.7
			c0-0.3-0.1-0.5-0.2-0.7s-0.4-0.4-0.7-0.5c-0.3-0.1-0.6-0.2-1-0.2c-0.4,0-0.7,0.1-1,0.2c-0.3,0.1-0.5,0.3-0.7,0.5
			c-0.2,0.2-0.3,0.4-0.3,0.6c0,0.3,0.1,0.5,0.3,0.7s0.5,0.3,0.8,0.5l2.2,0.9c0.6,0.2,1.1,0.5,1.4,0.8c0.3,0.3,0.5,0.7,0.5,1.3
			c0,0.4-0.1,0.8-0.4,1.1c-0.3,0.3-0.6,0.6-1.1,0.8C429.9,426.3,429.3,426.4,428.6,426.4z"/>
	</g>
</g>
<g>
	<g>
		<path class="st4" d="M573.1,426.3v-1.2c0-0.5,0.1-0.9,0.2-1.2c0.2-0.3,0.4-0.6,0.6-0.8c0.3-0.2,0.6-0.4,1-0.5l1.6-0.6
			c0.4-0.2,0.7-0.4,0.9-0.6s0.3-0.6,0.3-1c0-0.4-0.1-0.8-0.4-1c-0.3-0.3-0.7-0.4-1.2-0.4c-0.5,0-0.9,0.1-1.3,0.3
			c-0.3,0.2-0.5,0.5-0.6,1h-1.1c0-0.5,0.2-0.9,0.4-1.2c0.3-0.3,0.6-0.6,1-0.8c0.4-0.2,0.9-0.3,1.5-0.3c0.5,0,1,0.1,1.4,0.3
			c0.4,0.2,0.7,0.5,1,0.8c0.2,0.4,0.4,0.8,0.4,1.2c0,0.4-0.1,0.8-0.2,1.1c-0.2,0.3-0.4,0.6-0.7,0.8s-0.6,0.4-1,0.6l-1.7,0.7
			c-0.4,0.2-0.7,0.4-0.9,0.6c-0.2,0.2-0.3,0.5-0.3,0.9v0.4h4.7v0.9H573.1z"/>
		<path class="st4" d="M583.7,426.4c-0.6,0-1.2-0.2-1.7-0.5c-0.5-0.3-0.9-0.8-1.1-1.4c-0.3-0.6-0.4-1.4-0.4-2.4s0.1-1.7,0.4-2.4
			c0.3-0.6,0.6-1.1,1.1-1.4c0.5-0.3,1-0.5,1.7-0.5c0.6,0,1.2,0.2,1.7,0.5c0.5,0.3,0.9,0.8,1.1,1.4c0.3,0.6,0.4,1.4,0.4,2.4
			s-0.1,1.7-0.4,2.4c-0.3,0.6-0.6,1.1-1.1,1.4C584.9,426.3,584.3,426.4,583.7,426.4z M583.7,425.5c0.7,0,1.2-0.3,1.6-0.9
			c0.4-0.6,0.5-1.4,0.5-2.4s-0.2-1.9-0.5-2.4c-0.4-0.6-0.9-0.9-1.6-0.9c-0.7,0-1.2,0.3-1.6,0.9c-0.4,0.6-0.6,1.4-0.6,2.4
			s0.2,1.9,0.6,2.4C582.5,425.2,583,425.5,583.7,425.5z"/>
		<path class="st4" d="M588.4,426.3v-1.2c0-0.5,0.1-0.9,0.2-1.2s0.4-0.6,0.7-0.8s0.6-0.4,1-0.5l1.6-0.6c0.4-0.2,0.7-0.4,0.9-0.6
			s0.3-0.6,0.3-1c0-0.4-0.1-0.8-0.4-1c-0.3-0.3-0.7-0.4-1.2-0.4c-0.5,0-0.9,0.1-1.3,0.3c-0.3,0.2-0.5,0.5-0.6,1h-1.1
			c0-0.5,0.2-0.9,0.4-1.2c0.2-0.3,0.6-0.6,1-0.8c0.4-0.2,0.9-0.3,1.5-0.3c0.5,0,1,0.1,1.4,0.3c0.4,0.2,0.7,0.5,1,0.8
			s0.4,0.8,0.4,1.2c0,0.4-0.1,0.8-0.2,1.1c-0.2,0.3-0.4,0.6-0.7,0.8s-0.6,0.4-1,0.6l-1.7,0.7c-0.4,0.2-0.7,0.4-0.9,0.6
			c-0.2,0.2-0.3,0.5-0.3,0.9v0.4h4.7v0.9H588.4z"/>
		<path class="st4" d="M598.9,426.4c-0.6,0-1.2-0.2-1.7-0.5c-0.5-0.3-0.9-0.8-1.1-1.4c-0.3-0.6-0.4-1.4-0.4-2.4s0.1-1.7,0.4-2.4
			c0.3-0.6,0.6-1.1,1.1-1.4c0.5-0.3,1-0.5,1.7-0.5c0.6,0,1.2,0.2,1.7,0.5c0.5,0.3,0.9,0.8,1.1,1.4s0.4,1.4,0.4,2.4s-0.1,1.7-0.4,2.4
			c-0.3,0.6-0.6,1.1-1.1,1.4C600.1,426.3,599.6,426.4,598.9,426.4z M598.9,425.5c0.7,0,1.2-0.3,1.6-0.9s0.5-1.4,0.5-2.4
			s-0.2-1.9-0.5-2.4s-0.9-0.9-1.6-0.9c-0.7,0-1.2,0.3-1.6,0.9s-0.6,1.4-0.6,2.4s0.2,1.9,0.6,2.4S598.2,425.5,598.9,425.5z"/>
	</g>
</g>
<line class="st10" x1="40.5" y1="407.8" x2="639.5" y2="407.8"/>
</svg>
