<svg id="Capa_1" data-name="Capa 1" xmlns="http://www.w3.org/2000/svg" viewBox="0 0 96 120"><defs><style>.cls-1{fill:#fff;}</style></defs><path class="cls-1" d="M26.51,39.06a2.74,2.74,0,0,0-1.1.11c-.62-2.58-1.66-4.42-3.14-5.44a4.7,4.7,0,0,0-2.15-.83A2.93,2.93,0,0,0,19,31.74a5.21,5.21,0,0,0-3.77-.31c-.11-.45-.21-.86-.3-1.18a2.92,2.92,0,0,0-1.91-2.07c-1.58-.5-3.44.44-4.58,1.19a9.94,9.94,0,0,0-1.8-.73A1.5,1.5,0,0,0,4.78,30c-.11,1.78-1.05,17.51-.7,20.59s11.72,13,17.17,17.59v1.07H18.68v9H45.05v-9H42.77c.52-4.34,1.07-11.54-.64-13.6-.57-.68-1.89-2-3.56-3.72-3.1-3.15-8.89-9-9.51-10.68A3.13,3.13,0,0,0,26.51,39.06Zm-12.62,5.5c-.28,3.17,5.05,7.29,6.7,8.48l1.75-2.43c-2.88-2.09-5.54-4.89-5.46-5.78.18-1.92-.4-6.71-1-10.45a3,3,0,0,1,1.64-.09.67.67,0,0,1,0,.23c.24,3,1.32,13.09,5.53,15.56l1.52-2.59c-1.82-1.07-3.25-6.22-3.86-11.19.74.6,1.88,2.22,2.25,6.53h0a6.61,6.61,0,0,0,.94,3.31A34.8,34.8,0,0,1,26,50.82c.5,1.28,1,2.49,1.51,3.52l-5.85-.26c-4.61-2.61-8.85-5.94-9-7,.24-2.93.36-10.75.36-11.14a2.4,2.4,0,0,0,0-.28A51.13,51.13,0,0,1,13.89,44.56ZM12.06,31a.14.14,0,0,0,0,.06c.2.69.42,1.72.64,2.91a6.65,6.65,0,0,0-1.59-2.67A2.68,2.68,0,0,1,12.06,31Zm30,44.18H21.68v-3H42.05ZM39.82,57.57c.65.92.61,6.11-.07,11.68H24.25V67.48a1.5,1.5,0,0,0-.54-1.15C16.08,60,7.54,52,7.06,50.25c-.24-2.09.26-12.22.58-17.92A4.41,4.41,0,0,1,10,35.91C10,36,9.91,44,9.68,46.8c-.27,3.37,6.66,7.76,10.82,10.07a1.4,1.4,0,0,0,.66.19l9.7.44a1.5,1.5,0,0,0,.62-2.9c-.93-.36-1.87-2.76-2.7-4.87a38.37,38.37,0,0,0-2.28-5.08A2.82,2.82,0,0,1,26,42.38a1.16,1.16,0,0,1,.14-.26.74.74,0,0,1,.09.18C27,44.39,31.14,48.67,36.43,54,38,55.62,39.34,57,39.82,57.57Z"/><path class="cls-1" d="M91.92,50.59c.35-3.08-.59-18.81-.7-20.59a1.47,1.47,0,0,0-.62-1.13,1.51,1.51,0,0,0-1.27-.23,10.26,10.26,0,0,0-1.8.73c-1.14-.74-3-1.69-4.58-1.19A2.94,2.94,0,0,0,81,30.25c-.09.32-.19.73-.3,1.18a5.21,5.21,0,0,0-3.77.31,2.93,2.93,0,0,0-1.09,1.16,4.7,4.7,0,0,0-2.15.83c-1.48,1-2.52,2.86-3.14,5.44a2.74,2.74,0,0,0-1.1-.11,3.13,3.13,0,0,0-2.55,2.19c-.63,1.66-6.41,7.53-9.52,10.69-1.67,1.69-3,3-3.55,3.71-1.72,2.06-1.17,9.26-.65,13.61H51v9H77.32v-9H74.75V68.18C80.2,63.62,91.55,53.76,91.92,50.59Zm-8-19.5s0,0,0-.06a2.72,2.72,0,0,1,.94.3,7.09,7.09,0,0,0-1.64,2.84C83.47,32.91,83.71,31.81,83.92,31.09ZM72.1,46.14A6.71,6.71,0,0,0,73,42.83h0c.37-4.35,1.53-6,2.24-6.53-.6,5-2,10.11-3.85,11.18L73,50.08c4.21-2.47,5.29-12.53,5.53-15.55a.64.64,0,0,1,0-.22,2.88,2.88,0,0,1,1.64.07,57.06,57.06,0,0,0-1,10.45c.08.89-2.58,3.69-5.46,5.78L75.42,53c1.64-1.19,7-5.3,6.69-8.48a51.93,51.93,0,0,1,.9-9c0,.13,0,.26,0,.4,0,.33.12,8.15.35,11-.12,1.14-4.36,4.47-9,7.08l-5.85.26A36.1,36.1,0,0,0,70,50.82,36.11,36.11,0,0,1,72.1,46.14Zm2.22,29.07H54v-3H74.32Zm-2-8.88a1.5,1.5,0,0,0-.54,1.15v1.77H56.25c-.68-5.57-.73-10.76-.08-11.68.49-.58,1.84-2,3.39-3.53,5.29-5.37,9.4-9.65,10.19-11.74l.08-.19a.92.92,0,0,1,.15.27,2.8,2.8,0,0,1-.49,2.27,38.9,38.9,0,0,0-2.27,5.07c-.83,2.12-1.77,4.52-2.7,4.88a1.51,1.51,0,0,0-.92,1.71,1.52,1.52,0,0,0,1.54,1.19l9.7-.44a1.53,1.53,0,0,0,.66-.19c4.15-2.31,11.08-6.7,10.81-10.08C86.09,44,86,36,86,36a4.45,4.45,0,0,1,2.39-3.64c.32,5.7.82,15.83.59,17.87C88.46,52,79.92,60,72.29,66.33Z"/><path class="cls-1" d="M51.9,32.44H49.5V27.67h4.81v-3H49.5V22.85h-3v1.82H44.77a5.19,5.19,0,0,0-2.17.42,3.86,3.86,0,0,0-1.49,1.15,4.18,4.18,0,0,0-.72,1.5,7.39,7.39,0,0,0-.2,1.78v1.07a7.51,7.51,0,0,0,.2,1.78,4,4,0,0,0,.73,1.5A3.71,3.71,0,0,0,42.6,35a5.19,5.19,0,0,0,2.17.42H46.5v4.94H42.08v3H46.5V45.2h3V43.38h2.4c2.24,0,3.75-1.73,3.75-4.31V36.74C55.65,34.17,54.14,32.44,51.9,32.44Zm-5.4,0H44.77a2.35,2.35,0,0,1-.93-.15.82.82,0,0,1-.35-.26.87.87,0,0,1-.19-.41,3.87,3.87,0,0,1-.11-1V29.52a4,4,0,0,1,.11-1,1,1,0,0,1,.19-.41.94.94,0,0,1,.34-.25,2.33,2.33,0,0,1,.94-.15H46.5Zm6.15,6.63c0,1.31-.54,1.31-.75,1.31H49.5V35.44h2.4c.21,0,.75,0,.75,1.3Z"/><path class="cls-1" d="M48,17.79A16.24,16.24,0,1,0,64.24,34,16.26,16.26,0,0,0,48,17.79Zm0,29.47A13.24,13.24,0,1,1,61.24,34,13.26,13.26,0,0,1,48,47.26Z"/></svg>