<svg id="Capa_1" data-name="Capa 1" xmlns="http://www.w3.org/2000/svg" viewBox="0 0 100 125"><defs><style>.cls-1{fill:#fff;}</style></defs><path class="cls-1" d="M82.1,80.7a1.1,1.1,0,1,0,0-2.2H57.5a1.1,1.1,0,1,0,0,2.2Z"/><path class="cls-1" d="M83.9,50.8a1.23,1.23,0,0,0,.8-.4,1.05,1.05,0,0,0,.5-.9V40.4h0L94,31.6a1.13,1.13,0,0,0,.3-1.1c0-.1.1-.2.1-.3a.6.6,0,0,0-.1-.4h0a1.11,1.11,0,0,0-.6-1.4L34.1,6h-.8c-.1,0-.1,0-.2.1H33l-.1.1a.1.1,0,0,0-.1.1h0L11.9,28.7a.52.52,0,0,0-.2.4H7.1C7,29,6.9,29,6.7,29a1.11,1.11,0,0,0-1.1,1.1V41.2a1.11,1.11,0,0,0,1.1,1.1H20.6a1.11,1.11,0,0,0,1.1-1.1V31.4H28V90.7H16.2a1.1,1.1,0,0,0,0,2.2H92.1a1.1,1.1,0,1,0,0-2.2h-4V63A1.11,1.11,0,0,0,87,61.9H75.3A1.11,1.11,0,0,0,74.2,63v6.6H52a1.11,1.11,0,0,0-1.1,1.1v20h-11v-50h8.7a.85.85,0,0,0,.8,0H83v8.1c-1.1.3-2.7,1.2-2.8,4.1a4.27,4.27,0,0,0,1.1,3.5,3.63,3.63,0,0,0,2.6,1.1h0a3.78,3.78,0,0,0,3-1.1A4.76,4.76,0,0,0,88,52.9a1.1,1.1,0,1,0-2.2,0,3,3,0,0,1-.5,1.9c-.3.3-.7.4-1.5.4a1.86,1.86,0,0,1-1.1-.4,2.55,2.55,0,0,1-.5-1.9C82.5,50.9,83.4,50.9,83.9,50.8Zm.7-12.9L78,31.3H91.2ZM74.1,31.3l-6.5,6.5-6.5-6.5Zm1.6-2.2a1.08,1.08,0,0,0-1.1,0H58.8a.85.85,0,0,0-.7,0H39.7L35.2,8.7,89.3,29.1ZM30.1,50.9l6.6,6.6-6.6,6.6Zm7.6,8.8v14l-7-7ZM30.9,48.6l6.8-6.8V55.4Zm.8-17.3h6v6Zm5.7-2.2H30.3l3.4-16.8Zm-.6,10.5-6.7,6.7V32.9ZM30.1,69.2,37,76.1,30.1,83ZM55.8,31.3,49,38.1l-6.8-6.8Zm2.7.4,6.8,6.8H51.7Zm17.5.8,6,6H70ZM31.8,10.6,28.1,29.2H20.9c-.1,0-.2-.1-.3-.1h-6ZM19.5,40H7.8V31.2h4.6c.1,0,.2.1.3.1h6.8Zm46,48.4H74v2.2H65.5ZM53.1,71.8H75.3a1.11,1.11,0,0,0,1.1-1.1V64.1H86V90.6H76.3V87.3h0a1.11,1.11,0,0,0-1.1-1.1H64.4a1.11,1.11,0,0,0-1.1,1.1h0v3.3H53.1Zm-23,18.8V86l7.6-7.6V90.5H30.1Zm9.8-52.1V32.1l6.3,6.3H40.1C40,38.5,40,38.5,39.9,38.5Z"/></svg>