<svg id="Capa_1" data-name="Capa 1" xmlns="http://www.w3.org/2000/svg" viewBox="0 0 100 125"><defs><style>.cls-1{fill:#fff;}</style></defs><path class="cls-1" d="M50,28.64A21.36,21.36,0,1,0,71.36,50,21.36,21.36,0,0,0,50,28.64Zm0,39.72A18.36,18.36,0,1,1,68.36,50,18.36,18.36,0,0,1,50,68.36Zm5.13-15.57a4.69,4.69,0,0,1-4,4.29v.32a1.5,1.5,0,0,1-3,0h0v-.63c-1.09-.28-2.1-.63-2.27-.69a1.5,1.5,0,1,1,1-2.83h0a18.4,18.4,0,0,0,3.43.89,1.69,1.69,0,0,0,1.24-.4,1.74,1.74,0,0,0,.6-1.17,1.71,1.71,0,0,0-1.58-1.84l-2.18-.38a3.91,3.91,0,0,1-3.51-4.18,3.5,3.5,0,0,1,1.47-2.63,4.05,4.05,0,0,1,1.8-.69V42.6a1.5,1.5,0,0,1,3,0v.61l1.16.31a1.5,1.5,0,1,1-.83,2.88,21,21,0,0,0-2.61-.6,1.1,1.1,0,0,0-.77.17.52.52,0,0,0-.23.42.89.89,0,0,0,.83,1h0l2.18.38A4.73,4.73,0,0,1,55.13,52.79ZM50,35.25A14.75,14.75,0,1,0,64.75,50,14.75,14.75,0,0,0,50,35.25Zm0,26.5A11.75,11.75,0,1,1,61.75,50,11.75,11.75,0,0,1,50,61.75Z"/></svg>