<?xml version="1.0" encoding="utf-8"?>
<!-- Generator: Adobe Illustrator 24.0.2, SVG Export Plug-In . SVG Version: 6.00 Build 0)  -->
<svg version="1.1" id="Capa_1" xmlns="http://www.w3.org/2000/svg" xmlns:xlink="http://www.w3.org/1999/xlink" x="0px" y="0px"
	 viewBox="0 0 680 480" style="enable-background:new 0 0 680 480;" xml:space="preserve">
<style type="text/css">
	.st0{fill:#252525;}
	.st1{fill:none;stroke:#FF5757;stroke-miterlimit:10;}
	.st2{opacity:0.7;}
	.st3{fill:#FF5757;}
	.st4{fill:#FFFFFF;}
	.st5{opacity:0.6;}
	.st6{opacity:0.5;}
	.st7{opacity:0.4;}
	.st8{opacity:0.8;}
	.st9{opacity:0.9;}
	.st10{fill:none;stroke:#FFFFFF;stroke-width:3;stroke-miterlimit:10;}
</style>
<rect x="-1.4" y="1" class="st0" width="680" height="480"/>
<g>
	<line class="st1" x1="247.5" y1="47" x2="249" y2="46.9"/>
	<line class="st1" x1="325.8" y1="38.8" x2="327.3" y2="38.7"/>
	<line class="st1" x1="321.2" y1="39.3" x2="322.7" y2="39.1"/>
	<line class="st1" x1="316.6" y1="39.8" x2="318.1" y2="39.6"/>
	<line class="st1" x1="312" y1="40.3" x2="313.5" y2="40.1"/>
	<line class="st1" x1="307.4" y1="40.7" x2="308.9" y2="40.6"/>
	<line class="st1" x1="302.8" y1="41.2" x2="304.3" y2="41.1"/>
	<line class="st1" x1="298.2" y1="41.7" x2="299.7" y2="41.6"/>
	<line class="st1" x1="293.6" y1="42.2" x2="295.1" y2="42"/>
	<line class="st1" x1="289" y1="42.7" x2="290.5" y2="42.5"/>
	<line class="st1" x1="284.4" y1="43.2" x2="285.9" y2="43"/>
	<line class="st1" x1="279.8" y1="43.7" x2="281.3" y2="43.5"/>
	<line class="st1" x1="275.1" y1="44.1" x2="276.6" y2="44"/>
	<line class="st1" x1="270.5" y1="44.6" x2="272" y2="44.5"/>
	<line class="st1" x1="265.9" y1="45.1" x2="267.4" y2="44.9"/>
	<line class="st1" x1="261.3" y1="45.6" x2="262.8" y2="45.4"/>
	<line class="st1" x1="256.7" y1="46.1" x2="258.2" y2="45.9"/>
	<line class="st1" x1="252.1" y1="46.6" x2="253.6" y2="46.4"/>
	<line class="st1" x1="330.4" y1="38.3" x2="331.9" y2="38.2"/>
</g>
<g>
	<line class="st1" x1="166.3" y1="50.8" x2="167.8" y2="50.7"/>
	<line class="st1" x1="245" y1="46.7" x2="246.5" y2="46.6"/>
	<line class="st1" x1="240.3" y1="46.9" x2="241.8" y2="46.9"/>
	<line class="st1" x1="235.7" y1="47.2" x2="237.2" y2="47.1"/>
	<line class="st1" x1="231.1" y1="47.4" x2="232.6" y2="47.4"/>
	<line class="st1" x1="226.5" y1="47.7" x2="228" y2="47.6"/>
	<line class="st1" x1="221.8" y1="47.9" x2="223.3" y2="47.8"/>
	<line class="st1" x1="217.2" y1="48.2" x2="218.7" y2="48.1"/>
	<line class="st1" x1="212.6" y1="48.4" x2="214.1" y2="48.3"/>
	<line class="st1" x1="208" y1="48.6" x2="209.5" y2="48.6"/>
	<line class="st1" x1="203.3" y1="48.9" x2="204.8" y2="48.8"/>
	<line class="st1" x1="198.7" y1="49.1" x2="200.2" y2="49.1"/>
	<line class="st1" x1="194.1" y1="49.4" x2="195.6" y2="49.3"/>
	<line class="st1" x1="189.5" y1="49.6" x2="191" y2="49.5"/>
	<line class="st1" x1="184.8" y1="49.9" x2="186.3" y2="49.8"/>
	<line class="st1" x1="180.2" y1="50.1" x2="181.7" y2="50"/>
	<line class="st1" x1="175.6" y1="50.3" x2="177.1" y2="50.3"/>
	<line class="st1" x1="171" y1="50.6" x2="172.5" y2="50.5"/>
	<line class="st1" x1="249.6" y1="46.5" x2="251.1" y2="46.4"/>
</g>
<g>
	<line class="st1" x1="86.3" y1="54.8" x2="87.8" y2="54.7"/>
	<line class="st1" x1="165" y1="50.7" x2="166.5" y2="50.6"/>
	<line class="st1" x1="160.3" y1="50.9" x2="161.8" y2="50.9"/>
	<line class="st1" x1="155.7" y1="51.2" x2="157.2" y2="51.1"/>
	<line class="st1" x1="151.1" y1="51.4" x2="152.6" y2="51.4"/>
	<line class="st1" x1="146.5" y1="51.7" x2="148" y2="51.6"/>
	<line class="st1" x1="141.8" y1="51.9" x2="143.3" y2="51.8"/>
	<line class="st1" x1="137.2" y1="52.2" x2="138.7" y2="52.1"/>
	<line class="st1" x1="132.6" y1="52.4" x2="134.1" y2="52.3"/>
	<line class="st1" x1="128" y1="52.6" x2="129.5" y2="52.6"/>
	<line class="st1" x1="123.3" y1="52.9" x2="124.8" y2="52.8"/>
	<line class="st1" x1="118.7" y1="53.1" x2="120.2" y2="53.1"/>
	<line class="st1" x1="114.1" y1="53.4" x2="115.6" y2="53.3"/>
	<line class="st1" x1="109.5" y1="53.6" x2="111" y2="53.5"/>
	<line class="st1" x1="104.8" y1="53.9" x2="106.3" y2="53.8"/>
	<line class="st1" x1="100.2" y1="54.1" x2="101.7" y2="54"/>
	<line class="st1" x1="95.6" y1="54.3" x2="97.1" y2="54.3"/>
	<line class="st1" x1="91" y1="54.6" x2="92.5" y2="54.5"/>
	<line class="st1" x1="169.6" y1="50.5" x2="171.1" y2="50.4"/>
</g>
<g>
	<line class="st1" x1="336.3" y1="38.8" x2="337.8" y2="38.7"/>
	<line class="st1" x1="415" y1="34.7" x2="416.5" y2="34.6"/>
	<line class="st1" x1="410.3" y1="34.9" x2="411.8" y2="34.9"/>
	<line class="st1" x1="405.7" y1="35.2" x2="407.2" y2="35.1"/>
	<line class="st1" x1="401.1" y1="35.4" x2="402.6" y2="35.4"/>
	<line class="st1" x1="396.5" y1="35.7" x2="398" y2="35.6"/>
	<line class="st1" x1="391.8" y1="35.9" x2="393.3" y2="35.8"/>
	<line class="st1" x1="387.2" y1="36.2" x2="388.7" y2="36.1"/>
	<line class="st1" x1="382.6" y1="36.4" x2="384.1" y2="36.3"/>
	<line class="st1" x1="378" y1="36.6" x2="379.5" y2="36.6"/>
	<line class="st1" x1="373.3" y1="36.9" x2="374.8" y2="36.8"/>
	<line class="st1" x1="368.7" y1="37.1" x2="370.2" y2="37.1"/>
	<line class="st1" x1="364.1" y1="37.4" x2="365.6" y2="37.3"/>
	<line class="st1" x1="359.5" y1="37.6" x2="361" y2="37.5"/>
	<line class="st1" x1="354.8" y1="37.9" x2="356.3" y2="37.8"/>
	<line class="st1" x1="350.2" y1="38.1" x2="351.7" y2="38"/>
	<line class="st1" x1="345.6" y1="38.3" x2="347.1" y2="38.3"/>
	<line class="st1" x1="341" y1="38.6" x2="342.5" y2="38.5"/>
	<line class="st1" x1="419.6" y1="34.5" x2="421.1" y2="34.4"/>
</g>
<g>
	<line class="st1" x1="415.3" y1="32.6" x2="416.8" y2="32.6"/>
	<line class="st1" x1="494" y1="32.6" x2="495.5" y2="32.6"/>
	<line class="st1" x1="489.4" y1="32.6" x2="490.9" y2="32.6"/>
	<line class="st1" x1="484.7" y1="32.6" x2="486.3" y2="32.6"/>
	<line class="st1" x1="480.1" y1="32.6" x2="481.6" y2="32.6"/>
	<line class="st1" x1="475.5" y1="32.6" x2="477" y2="32.6"/>
	<line class="st1" x1="470.9" y1="32.6" x2="472.4" y2="32.6"/>
	<line class="st1" x1="466.2" y1="32.6" x2="467.7" y2="32.6"/>
	<line class="st1" x1="461.6" y1="32.6" x2="463.1" y2="32.6"/>
	<line class="st1" x1="457" y1="32.6" x2="458.5" y2="32.6"/>
	<line class="st1" x1="452.3" y1="32.6" x2="453.8" y2="32.6"/>
	<line class="st1" x1="447.7" y1="32.6" x2="449.2" y2="32.6"/>
	<line class="st1" x1="443.1" y1="32.6" x2="444.6" y2="32.6"/>
	<line class="st1" x1="438.4" y1="32.6" x2="439.9" y2="32.6"/>
	<line class="st1" x1="433.8" y1="32.6" x2="435.3" y2="32.6"/>
	<line class="st1" x1="429.2" y1="32.6" x2="430.7" y2="32.6"/>
	<line class="st1" x1="424.5" y1="32.6" x2="426" y2="32.6"/>
	<line class="st1" x1="419.9" y1="32.6" x2="421.4" y2="32.6"/>
	<line class="st1" x1="498.6" y1="32.6" x2="500.2" y2="32.6"/>
</g>
<g>
	<line class="st1" x1="500.3" y1="32.6" x2="501.8" y2="32.6"/>
	<line class="st1" x1="579" y1="32.6" x2="580.5" y2="32.6"/>
	<line class="st1" x1="574.4" y1="32.6" x2="575.9" y2="32.6"/>
	<line class="st1" x1="569.7" y1="32.6" x2="571.3" y2="32.6"/>
	<line class="st1" x1="565.1" y1="32.6" x2="566.6" y2="32.6"/>
	<line class="st1" x1="560.5" y1="32.6" x2="562" y2="32.6"/>
	<line class="st1" x1="555.9" y1="32.6" x2="557.4" y2="32.6"/>
	<line class="st1" x1="551.2" y1="32.6" x2="552.7" y2="32.6"/>
	<line class="st1" x1="546.6" y1="32.6" x2="548.1" y2="32.6"/>
	<line class="st1" x1="542" y1="32.6" x2="543.5" y2="32.6"/>
	<line class="st1" x1="537.3" y1="32.6" x2="538.8" y2="32.6"/>
	<line class="st1" x1="532.7" y1="32.6" x2="534.2" y2="32.6"/>
	<line class="st1" x1="528.1" y1="32.6" x2="529.6" y2="32.6"/>
	<line class="st1" x1="523.4" y1="32.6" x2="524.9" y2="32.6"/>
	<line class="st1" x1="518.8" y1="32.6" x2="520.3" y2="32.6"/>
	<line class="st1" x1="514.2" y1="32.6" x2="515.7" y2="32.6"/>
	<line class="st1" x1="509.5" y1="32.6" x2="511" y2="32.6"/>
	<line class="st1" x1="504.9" y1="32.6" x2="506.4" y2="32.6"/>
	<line class="st1" x1="583.6" y1="32.6" x2="585.2" y2="32.6"/>
</g>
<g class="st2">
	<rect x="320" y="94.3" class="st3" width="30" height="312"/>
	<polygon class="st3" points="335,79.3 320,94.3 350,94.3 	"/>
</g>
<g>
	<g>
		<path class="st4" d="M322.9,70.2l4.5-8.3h-5v-1.1h6.4v1.1l-4.3,8.3H322.9z"/>
		<path class="st4" d="M333.3,70.4c-0.6,0-1.2-0.1-1.7-0.4c-0.5-0.3-0.9-0.6-1.1-1.1s-0.4-1-0.4-1.5h1.2c0,0.6,0.2,1,0.5,1.4
			c0.3,0.3,0.8,0.5,1.4,0.5c0.6,0,1.1-0.2,1.4-0.5c0.4-0.3,0.6-0.8,0.8-1.4c0.2-0.6,0.3-1.4,0.3-2.2c0-0.2,0-0.4,0-0.5
			c0-0.2,0-0.4-0.1-0.6c-0.1,0.5-0.2,1-0.5,1.3c-0.2,0.4-0.6,0.6-0.9,0.8c-0.4,0.2-0.8,0.3-1.3,0.3c-0.6,0-1.1-0.1-1.5-0.4
			c-0.4-0.3-0.8-0.6-1.1-1s-0.4-0.9-0.4-1.5c0-0.6,0.1-1.1,0.4-1.5s0.6-0.8,1.1-1s1-0.4,1.7-0.4c0.5,0,1,0.1,1.5,0.3
			s0.9,0.5,1.2,0.9c0.3,0.4,0.6,0.9,0.8,1.5c0.2,0.6,0.3,1.2,0.3,1.9c0,1-0.1,1.9-0.4,2.7c-0.3,0.8-0.7,1.3-1.2,1.8
			C334.9,70.2,334.2,70.4,333.3,70.4z M333.3,65.4c0.4,0,0.7-0.1,1-0.2c0.3-0.2,0.5-0.4,0.7-0.7c0.2-0.3,0.3-0.6,0.3-0.9
			c0-0.6-0.2-1-0.6-1.4s-0.9-0.5-1.4-0.5c-0.6,0-1,0.2-1.4,0.5s-0.6,0.8-0.6,1.4c0,0.6,0.2,1,0.6,1.4
			C332.2,65.3,332.7,65.4,333.3,65.4z"/>
		<path class="st4" d="M340.6,64.9c-0.3,0-0.6-0.1-0.9-0.2c-0.3-0.2-0.5-0.4-0.7-0.7s-0.3-0.7-0.3-1.2c0-0.5,0.1-0.9,0.3-1.2
			s0.4-0.6,0.7-0.7c0.3-0.2,0.6-0.2,0.9-0.2c0.3,0,0.7,0.1,1,0.2c0.3,0.2,0.5,0.4,0.7,0.7c0.2,0.3,0.3,0.7,0.3,1.2
			c0,0.5-0.1,0.9-0.3,1.2c-0.2,0.3-0.4,0.6-0.7,0.7C341.2,64.8,340.9,64.9,340.6,64.9z M339.4,70.2l6.3-9.4h1.2l-6.3,9.4H339.4z
			 M340.6,64.1c0.3,0,0.5-0.1,0.7-0.3c0.2-0.2,0.3-0.6,0.3-1s-0.1-0.8-0.3-1c-0.2-0.2-0.4-0.3-0.7-0.3c-0.3,0-0.5,0.1-0.7,0.3
			c-0.2,0.2-0.3,0.6-0.3,1s0.1,0.8,0.3,1C340.1,64,340.3,64.1,340.6,64.1z M345.8,70.4c-0.3,0-0.6-0.1-0.9-0.2
			c-0.3-0.2-0.5-0.4-0.7-0.7c-0.2-0.3-0.3-0.7-0.3-1.2c0-0.5,0.1-0.9,0.3-1.2c0.2-0.3,0.4-0.6,0.7-0.7c0.3-0.2,0.6-0.2,0.9-0.2
			c0.3,0,0.7,0.1,1,0.2c0.3,0.2,0.5,0.4,0.7,0.7c0.2,0.3,0.3,0.7,0.3,1.2c0,0.5-0.1,0.9-0.3,1.2c-0.2,0.3-0.4,0.6-0.7,0.7
			C346.5,70.3,346.2,70.4,345.8,70.4z M345.8,69.6c0.3,0,0.5-0.1,0.7-0.3s0.3-0.6,0.3-1c0-0.5-0.1-0.8-0.3-1
			c-0.2-0.2-0.4-0.3-0.7-0.3c-0.3,0-0.5,0.1-0.7,0.3c-0.2,0.2-0.3,0.6-0.3,1c0,0.5,0.1,0.8,0.3,1S345.5,69.6,345.8,69.6z"/>
	</g>
</g>
<circle class="st4" cx="336" cy="39.3" r="4"/>
<g class="st5">
	<rect x="233" y="98.3" class="st3" width="30" height="308"/>
	<polygon class="st3" points="248,83.6 233,98.6 263,98.6 	"/>
</g>
<g>
	<g>
		<path class="st4" d="M235.4,74.5l4.5-8.3h-5v-1.1h6.4v1.1l-4.3,8.3H235.4z"/>
		<path class="st4" d="M242.4,74.5l4.5-8.3h-5v-1.1h6.4v1.1l-4.3,8.3H242.4z"/>
		<path class="st4" d="M251.4,69.2c-0.3,0-0.6-0.1-0.9-0.2c-0.3-0.2-0.5-0.4-0.7-0.7s-0.3-0.7-0.3-1.2s0.1-0.9,0.3-1.2
			s0.4-0.6,0.7-0.7c0.3-0.2,0.6-0.2,0.9-0.2c0.3,0,0.7,0.1,1,0.2s0.5,0.4,0.7,0.7c0.2,0.3,0.3,0.7,0.3,1.2s-0.1,0.9-0.3,1.2
			c-0.2,0.3-0.4,0.6-0.7,0.7S251.7,69.2,251.4,69.2z M250.2,74.5l6.3-9.4h1.2l-6.3,9.4H250.2z M251.4,68.4c0.3,0,0.5-0.1,0.7-0.3
			c0.2-0.2,0.3-0.6,0.3-1s-0.1-0.8-0.3-1c-0.2-0.2-0.4-0.3-0.7-0.3c-0.3,0-0.5,0.1-0.7,0.3c-0.2,0.2-0.3,0.6-0.3,1s0.1,0.8,0.3,1
			C250.9,68.3,251.1,68.4,251.4,68.4z M256.6,74.6c-0.3,0-0.6-0.1-0.9-0.2c-0.3-0.2-0.5-0.4-0.7-0.7s-0.3-0.7-0.3-1.2
			c0-0.5,0.1-0.9,0.3-1.2c0.2-0.3,0.4-0.6,0.7-0.7c0.3-0.2,0.6-0.2,0.9-0.2c0.3,0,0.7,0.1,1,0.2c0.3,0.2,0.5,0.4,0.7,0.7
			c0.2,0.3,0.3,0.7,0.3,1.2c0,0.5-0.1,0.9-0.3,1.2c-0.2,0.3-0.4,0.6-0.7,0.7C257.3,74.6,257,74.6,256.6,74.6z M256.6,73.8
			c0.3,0,0.5-0.1,0.7-0.3s0.3-0.6,0.3-1c0-0.5-0.1-0.8-0.3-1c-0.2-0.2-0.4-0.3-0.7-0.3c-0.3,0-0.5,0.1-0.7,0.3
			c-0.2,0.2-0.3,0.6-0.3,1c0,0.5,0.1,0.8,0.3,1C256.1,73.7,256.3,73.8,256.6,73.8z"/>
	</g>
</g>
<circle class="st4" cx="248.4" cy="46.6" r="4"/>
<g class="st6">
	<rect x="155" y="102.3" class="st3" width="30" height="304"/>
	<polygon class="st3" points="170,87.1 155,102.1 185,102.1 	"/>
</g>
<g>
	<g>
		<path class="st4" d="M156.4,78l4.5-8.3h-5v-1.1h6.4v1.1l-4.3,8.3H156.4z"/>
		<path class="st4" d="M167,78.2c-0.8,0-1.4-0.2-2-0.6s-1-1-1.3-1.7s-0.5-1.5-0.5-2.4c0-1.1,0.2-2,0.5-2.7c0.3-0.8,0.8-1.3,1.4-1.7
			s1.3-0.6,2.1-0.6c0.6,0,1.1,0.1,1.5,0.3c0.4,0.2,0.8,0.5,1,0.9c0.3,0.4,0.4,0.8,0.5,1.3h-1.3c-0.1-0.5-0.2-0.8-0.5-1.1
			c-0.3-0.3-0.7-0.4-1.2-0.4c-0.9,0-1.5,0.4-2,1.1c-0.5,0.7-0.7,1.8-0.7,3c0,0.2,0,0.4,0,0.6c0,0.2,0,0.5,0.1,0.7
			c0-0.7,0.2-1.2,0.5-1.6c0.3-0.4,0.6-0.7,1-0.8c0.4-0.2,0.8-0.2,1.3-0.2c0.6,0,1.1,0.1,1.5,0.4s0.8,0.6,1.1,1
			c0.3,0.4,0.4,1,0.4,1.5c0,0.6-0.1,1.1-0.4,1.5s-0.6,0.8-1.1,1C168.2,78.1,167.7,78.2,167,78.2z M167,77.1c0.6,0,1-0.2,1.4-0.5
			s0.6-0.8,0.6-1.4c0-0.6-0.2-1-0.6-1.4s-0.8-0.5-1.4-0.5c-0.4,0-0.7,0.1-1,0.2c-0.3,0.2-0.5,0.4-0.7,0.7c-0.2,0.3-0.3,0.6-0.3,1
			c0,0.6,0.2,1,0.6,1.4S166.5,77.1,167,77.1z"/>
		<path class="st4" d="M173.9,72.7c-0.3,0-0.6-0.1-0.9-0.2c-0.3-0.2-0.5-0.4-0.7-0.7S172,71,172,70.6s0.1-0.9,0.3-1.2
			s0.4-0.6,0.7-0.7c0.3-0.2,0.6-0.2,0.9-0.2c0.3,0,0.7,0.1,1,0.2s0.5,0.4,0.7,0.7c0.2,0.3,0.3,0.7,0.3,1.2s-0.1,0.9-0.3,1.2
			c-0.2,0.3-0.4,0.6-0.7,0.7S174.3,72.7,173.9,72.7z M172.8,78l6.3-9.4h1.2L174,78H172.8z M173.9,71.9c0.3,0,0.5-0.1,0.7-0.3
			c0.2-0.2,0.3-0.6,0.3-1s-0.1-0.8-0.3-1c-0.2-0.2-0.4-0.3-0.7-0.3c-0.3,0-0.5,0.1-0.7,0.3c-0.2,0.2-0.3,0.6-0.3,1s0.1,0.8,0.3,1
			C173.4,71.8,173.6,71.9,173.9,71.9z M179.2,78.1c-0.3,0-0.6-0.1-0.9-0.2c-0.3-0.2-0.5-0.4-0.7-0.7s-0.3-0.7-0.3-1.2
			c0-0.5,0.1-0.9,0.3-1.2c0.2-0.3,0.4-0.6,0.7-0.7c0.3-0.2,0.6-0.2,0.9-0.2c0.3,0,0.7,0.1,1,0.2c0.3,0.2,0.5,0.4,0.7,0.7
			c0.2,0.3,0.3,0.7,0.3,1.2c0,0.5-0.1,0.9-0.3,1.2c-0.2,0.3-0.4,0.6-0.7,0.7C179.8,78.1,179.5,78.1,179.2,78.1z M179.2,77.3
			c0.3,0,0.5-0.1,0.7-0.3s0.3-0.6,0.3-1c0-0.5-0.1-0.8-0.3-1c-0.2-0.2-0.4-0.3-0.7-0.3c-0.3,0-0.5,0.1-0.7,0.3
			c-0.2,0.2-0.3,0.6-0.3,1c0,0.5,0.1,0.8,0.3,1C178.7,77.2,178.9,77.3,179.2,77.3z"/>
	</g>
</g>
<circle class="st4" cx="169.4" cy="50.1" r="4"/>
<g class="st7">
	<rect x="71" y="106.3" class="st3" width="30" height="300"/>
	<polygon class="st3" points="86,91.3 71,106.3 101,106.3 	"/>
</g>
<g>
	<g>
		<path class="st4" d="M73.4,82.2l4.5-8.3h-5v-1.1h6.4v1.1l-4.3,8.3H73.4z"/>
		<path class="st4" d="M83.8,82.4c-0.6,0-1.1-0.1-1.6-0.3c-0.5-0.2-0.9-0.5-1.2-0.9s-0.4-0.9-0.4-1.5h1.2c0,0.6,0.2,1,0.6,1.3
			c0.4,0.3,0.9,0.4,1.5,0.4c0.7,0,1.2-0.2,1.6-0.6c0.4-0.4,0.6-0.9,0.6-1.5c0-1.2-0.8-1.8-2.3-1.8h-2.5l0.4-4.6h5.2v1.1h-4.3
			l0.2-0.4l-0.3,3.3l-0.1-0.1c0.2-0.1,0.5-0.1,0.8-0.1c0.3,0,0.6,0,0.8,0c1,0,1.8,0.2,2.4,0.7c0.6,0.5,0.9,1.1,0.9,2
			c0,0.6-0.1,1.2-0.4,1.6c-0.3,0.5-0.7,0.9-1.2,1.2C85,82.3,84.4,82.4,83.8,82.4z"/>
		<path class="st4" d="M90.8,76.9c-0.3,0-0.6-0.1-0.9-0.2c-0.3-0.2-0.5-0.4-0.7-0.7s-0.3-0.7-0.3-1.2s0.1-0.9,0.3-1.2
			s0.4-0.6,0.7-0.7c0.3-0.2,0.6-0.2,0.9-0.2c0.3,0,0.7,0.1,1,0.2s0.5,0.4,0.7,0.7c0.2,0.3,0.3,0.7,0.3,1.2s-0.1,0.9-0.3,1.2
			c-0.2,0.3-0.4,0.6-0.7,0.7S91.1,76.9,90.8,76.9z M89.7,82.2l6.3-9.4h1.2l-6.3,9.4H89.7z M90.8,76.1c0.3,0,0.5-0.1,0.7-0.3
			c0.2-0.2,0.3-0.6,0.3-1s-0.1-0.8-0.3-1c-0.2-0.2-0.4-0.3-0.7-0.3c-0.3,0-0.5,0.1-0.7,0.3c-0.2,0.2-0.3,0.6-0.3,1s0.1,0.8,0.3,1
			C90.3,76,90.5,76.1,90.8,76.1z M96.1,82.4c-0.3,0-0.6-0.1-0.9-0.2c-0.3-0.2-0.5-0.4-0.7-0.7s-0.3-0.7-0.3-1.2
			c0-0.5,0.1-0.9,0.3-1.2c0.2-0.3,0.4-0.6,0.7-0.7c0.3-0.2,0.6-0.2,0.9-0.2c0.3,0,0.7,0.1,1,0.2c0.3,0.2,0.5,0.4,0.7,0.7
			c0.2,0.3,0.3,0.7,0.3,1.2c0,0.5-0.1,0.9-0.3,1.2c-0.2,0.3-0.4,0.6-0.7,0.7C96.7,82.3,96.4,82.4,96.1,82.4z M96.1,81.6
			c0.3,0,0.5-0.1,0.7-0.3s0.3-0.6,0.3-1c0-0.5-0.1-0.8-0.3-1c-0.2-0.2-0.4-0.3-0.7-0.3c-0.3,0-0.5,0.1-0.7,0.3
			c-0.2,0.2-0.3,0.6-0.3,1c0,0.5,0.1,0.8,0.3,1C95.5,81.5,95.8,81.6,96.1,81.6z"/>
	</g>
</g>
<circle class="st4" cx="86.4" cy="54.3" r="4"/>
<g class="st8">
	<rect x="402" y="86.3" class="st3" width="30" height="320"/>
	<polygon class="st3" points="417,71.1 402,86.1 432,86.1 	"/>
</g>
<g>
	<g>
		<path class="st4" d="M408.1,62.2c-0.7,0-1.4-0.1-2-0.4s-1-0.6-1.3-1c-0.3-0.4-0.5-0.9-0.5-1.4c0-0.5,0.1-0.9,0.4-1.2
			c0.2-0.3,0.6-0.6,1-0.8c0.4-0.2,0.9-0.3,1.5-0.3c0.1,0,0.3,0,0.4,0s0.3,0,0.4,0.1v0.3c-0.5,0-0.9,0.1-1.3,0.2s-0.7,0.4-0.9,0.6
			c-0.2,0.3-0.3,0.6-0.3,0.9c0,0.4,0.1,0.7,0.3,0.9c0.2,0.3,0.5,0.5,0.9,0.6c0.4,0.1,0.8,0.2,1.3,0.2c0.8,0,1.4-0.1,1.9-0.4
			c0.4-0.3,0.7-0.6,0.7-1c0-0.3-0.1-0.6-0.4-0.8c-0.2-0.2-0.6-0.4-1-0.6l-2.6-1c-0.3-0.1-0.6-0.3-1-0.5s-0.6-0.5-0.8-0.8
			c-0.2-0.3-0.3-0.7-0.3-1.1c0-0.5,0.1-0.9,0.4-1.3c0.3-0.4,0.7-0.7,1.2-0.9s1.1-0.3,1.9-0.3c0.7,0,1.3,0.1,1.8,0.3s0.9,0.5,1.2,0.9
			c0.3,0.4,0.4,0.8,0.4,1.3c0,0.4-0.1,0.8-0.3,1.1c-0.2,0.3-0.5,0.6-0.9,0.8c-0.4,0.2-0.9,0.3-1.4,0.3c-0.1,0-0.3,0-0.4,0
			c-0.1,0-0.3,0-0.4-0.1v-0.4c0.4,0,0.8-0.1,1.1-0.2c0.3-0.1,0.6-0.3,0.8-0.6c0.2-0.2,0.3-0.5,0.3-0.9c0-0.3-0.1-0.6-0.3-0.8
			s-0.4-0.4-0.8-0.6c-0.3-0.1-0.7-0.2-1.2-0.2c-0.4,0-0.8,0.1-1.1,0.2c-0.3,0.1-0.6,0.3-0.8,0.5c-0.2,0.2-0.3,0.5-0.3,0.7
			c0,0.3,0.1,0.6,0.3,0.8c0.2,0.2,0.5,0.4,0.9,0.5l2.6,1c0.7,0.3,1.2,0.6,1.6,0.9c0.4,0.4,0.6,0.8,0.6,1.4c0,0.5-0.1,0.9-0.4,1.3
			c-0.3,0.4-0.7,0.7-1.3,0.9S408.9,62.2,408.1,62.2z"/>
		<path class="st4" d="M417.2,62.2c-0.7,0-1.4-0.2-1.9-0.5c-0.6-0.4-1-0.9-1.3-1.6c-0.3-0.7-0.5-1.6-0.5-2.7s0.2-2,0.5-2.7
			s0.7-1.3,1.3-1.6s1.2-0.5,1.9-0.5c0.7,0,1.4,0.2,1.9,0.5c0.6,0.4,1,0.9,1.3,1.6c0.3,0.7,0.5,1.6,0.5,2.7s-0.2,2-0.5,2.7
			c-0.3,0.7-0.7,1.3-1.3,1.6C418.5,62,417.9,62.2,417.2,62.2z M417.2,61.1c0.8,0,1.4-0.3,1.8-1c0.4-0.7,0.6-1.6,0.6-2.8
			s-0.2-2.2-0.6-2.8c-0.4-0.7-1-1-1.8-1c-0.8,0-1.4,0.3-1.8,1c-0.4,0.7-0.6,1.6-0.6,2.8s0.2,2.2,0.6,2.8
			C415.7,60.8,416.3,61.1,417.2,61.1z"/>
		<path class="st4" d="M424.4,56.7c-0.3,0-0.6-0.1-0.9-0.2s-0.5-0.4-0.7-0.7s-0.3-0.7-0.3-1.2s0.1-0.9,0.3-1.2s0.4-0.6,0.7-0.7
			s0.6-0.2,0.9-0.2c0.3,0,0.7,0.1,1,0.2s0.5,0.4,0.7,0.7s0.3,0.7,0.3,1.2s-0.1,0.9-0.3,1.2s-0.4,0.6-0.7,0.7S424.8,56.7,424.4,56.7z
			 M423.3,62l6.3-9.4h1.2l-6.3,9.4H423.3z M424.4,55.9c0.3,0,0.5-0.1,0.7-0.3c0.2-0.2,0.3-0.6,0.3-1s-0.1-0.8-0.3-1
			c-0.2-0.2-0.4-0.3-0.7-0.3c-0.3,0-0.5,0.1-0.7,0.3c-0.2,0.2-0.3,0.6-0.3,1s0.1,0.8,0.3,1C423.9,55.8,424.1,55.9,424.4,55.9z
			 M429.7,62.1c-0.3,0-0.6-0.1-0.9-0.2s-0.5-0.4-0.7-0.7s-0.3-0.7-0.3-1.2c0-0.5,0.1-0.9,0.3-1.2c0.2-0.3,0.4-0.6,0.7-0.7
			s0.6-0.2,0.9-0.2c0.3,0,0.7,0.1,1,0.2s0.5,0.4,0.7,0.7c0.2,0.3,0.3,0.7,0.3,1.2c0,0.5-0.1,0.9-0.3,1.2s-0.4,0.6-0.7,0.7
			S430,62.1,429.7,62.1z M429.7,61.3c0.3,0,0.5-0.1,0.7-0.3c0.2-0.2,0.3-0.6,0.3-1c0-0.5-0.1-0.8-0.3-1c-0.2-0.2-0.4-0.3-0.7-0.3
			c-0.3,0-0.5,0.1-0.7,0.3c-0.2,0.2-0.3,0.6-0.3,1c0,0.5,0.1,0.8,0.3,1C429.1,61.2,429.4,61.3,429.7,61.3z"/>
	</g>
</g>
<circle class="st4" cx="417.4" cy="33.1" r="4"/>
<g>
	<rect x="570" y="86.3" class="st3" width="30" height="320"/>
	<polygon class="st3" points="585,71.3 570,86.3 600,86.3 	"/>
</g>
<g>
	<g>
		<path class="st4" d="M575.3,62.4c-0.7,0-1.4-0.1-2-0.4s-1-0.6-1.3-1c-0.3-0.4-0.5-0.9-0.5-1.4c0-0.5,0.1-0.9,0.4-1.2
			c0.2-0.3,0.6-0.6,1-0.8c0.4-0.2,0.9-0.3,1.5-0.3c0.1,0,0.3,0,0.4,0s0.3,0,0.4,0.1v0.3c-0.5,0-0.9,0.1-1.3,0.2s-0.7,0.4-0.9,0.6
			c-0.2,0.3-0.3,0.6-0.3,0.9c0,0.4,0.1,0.7,0.3,0.9c0.2,0.3,0.5,0.5,0.9,0.6c0.4,0.1,0.8,0.2,1.3,0.2c0.8,0,1.4-0.1,1.9-0.4
			c0.4-0.3,0.7-0.6,0.7-1c0-0.3-0.1-0.6-0.4-0.8c-0.2-0.2-0.6-0.4-1-0.6l-2.6-1c-0.3-0.1-0.6-0.3-1-0.5s-0.6-0.5-0.8-0.8
			c-0.2-0.3-0.3-0.7-0.3-1.1c0-0.5,0.1-0.9,0.4-1.3c0.3-0.4,0.7-0.7,1.2-0.9s1.1-0.3,1.9-0.3c0.7,0,1.3,0.1,1.8,0.3s0.9,0.5,1.2,0.9
			c0.3,0.4,0.4,0.8,0.4,1.3c0,0.4-0.1,0.8-0.3,1.1c-0.2,0.3-0.5,0.6-0.9,0.8c-0.4,0.2-0.9,0.3-1.4,0.3c-0.1,0-0.3,0-0.4,0
			c-0.1,0-0.3,0-0.4-0.1v-0.4c0.4,0,0.8-0.1,1.1-0.2c0.3-0.1,0.6-0.3,0.8-0.6c0.2-0.2,0.3-0.5,0.3-0.9c0-0.3-0.1-0.6-0.3-0.8
			s-0.4-0.4-0.8-0.6c-0.3-0.1-0.7-0.2-1.2-0.2c-0.4,0-0.8,0.1-1.1,0.2c-0.3,0.1-0.6,0.3-0.8,0.5c-0.2,0.2-0.3,0.5-0.3,0.7
			c0,0.3,0.1,0.6,0.3,0.8c0.2,0.2,0.5,0.4,0.9,0.5l2.6,1c0.7,0.3,1.2,0.6,1.6,0.9c0.4,0.4,0.6,0.8,0.6,1.4c0,0.5-0.1,0.9-0.4,1.3
			c-0.3,0.4-0.7,0.7-1.3,0.9S576.1,62.4,575.3,62.4z"/>
		<path class="st4" d="M584.3,62.4c-0.7,0-1.4-0.2-1.9-0.5c-0.6-0.4-1-0.9-1.3-1.6c-0.3-0.7-0.5-1.6-0.5-2.7s0.2-2,0.5-2.7
			s0.7-1.3,1.3-1.6s1.2-0.5,1.9-0.5c0.7,0,1.4,0.2,1.9,0.5c0.6,0.4,1,0.9,1.3,1.6c0.3,0.7,0.5,1.6,0.5,2.7s-0.2,2-0.5,2.7
			c-0.3,0.7-0.7,1.3-1.3,1.6C585.7,62.2,585.1,62.4,584.3,62.4z M584.3,61.3c0.8,0,1.4-0.3,1.8-1c0.4-0.7,0.6-1.6,0.6-2.8
			s-0.2-2.2-0.6-2.8c-0.4-0.7-1-1-1.8-1c-0.8,0-1.4,0.3-1.8,1c-0.4,0.7-0.6,1.6-0.6,2.8s0.2,2.2,0.6,2.8
			C582.9,61,583.5,61.3,584.3,61.3z"/>
		<path class="st4" d="M591.6,56.9c-0.3,0-0.6-0.1-0.9-0.2s-0.5-0.4-0.7-0.7s-0.3-0.7-0.3-1.2s0.1-0.9,0.3-1.2s0.4-0.6,0.7-0.7
			s0.6-0.2,0.9-0.2c0.3,0,0.7,0.1,1,0.2s0.5,0.4,0.7,0.7s0.3,0.7,0.3,1.2s-0.1,0.9-0.3,1.2s-0.4,0.6-0.7,0.7S592,56.9,591.6,56.9z
			 M590.5,62.2l6.3-9.4h1.2l-6.3,9.4H590.5z M591.6,56.1c0.3,0,0.5-0.1,0.7-0.3c0.2-0.2,0.3-0.6,0.3-1s-0.1-0.8-0.3-1
			c-0.2-0.2-0.4-0.3-0.7-0.3c-0.3,0-0.5,0.1-0.7,0.3c-0.2,0.2-0.3,0.6-0.3,1s0.1,0.8,0.3,1C591.1,56,591.3,56.1,591.6,56.1z
			 M596.9,62.4c-0.3,0-0.6-0.1-0.9-0.2s-0.5-0.4-0.7-0.7s-0.3-0.7-0.3-1.2c0-0.5,0.1-0.9,0.3-1.2c0.2-0.3,0.4-0.6,0.7-0.7
			s0.6-0.2,0.9-0.2c0.3,0,0.7,0.1,1,0.2s0.5,0.4,0.7,0.7c0.2,0.3,0.3,0.7,0.3,1.2c0,0.5-0.1,0.9-0.3,1.2s-0.4,0.6-0.7,0.7
			S597.2,62.4,596.9,62.4z M596.9,61.6c0.3,0,0.5-0.1,0.7-0.3c0.2-0.2,0.3-0.6,0.3-1c0-0.5-0.1-0.8-0.3-1c-0.2-0.2-0.4-0.3-0.7-0.3
			c-0.3,0-0.5,0.1-0.7,0.3c-0.2,0.2-0.3,0.6-0.3,1c0,0.5,0.1,0.8,0.3,1C596.3,61.5,596.6,61.6,596.9,61.6z"/>
	</g>
</g>
<circle class="st4" cx="584.6" cy="33.3" r="4"/>
<g class="st9">
	<rect x="487" y="86.3" class="st3" width="30" height="320"/>
	<polygon class="st3" points="502,71.3 487,86.3 517,86.3 	"/>
</g>
<g>
	<g>
		<path class="st4" d="M490.1,62.4c-0.7,0-1.4-0.1-2-0.4s-1-0.6-1.3-1c-0.3-0.4-0.5-0.9-0.5-1.4c0-0.5,0.1-0.9,0.4-1.2
			c0.2-0.3,0.6-0.6,1-0.8c0.4-0.2,0.9-0.3,1.5-0.3c0.1,0,0.3,0,0.4,0s0.3,0,0.4,0.1v0.3c-0.5,0-0.9,0.1-1.3,0.2s-0.7,0.4-0.9,0.6
			c-0.2,0.3-0.3,0.6-0.3,0.9c0,0.4,0.1,0.7,0.3,0.9c0.2,0.3,0.5,0.5,0.9,0.6c0.4,0.1,0.8,0.2,1.3,0.2c0.8,0,1.4-0.1,1.9-0.4
			c0.4-0.3,0.7-0.6,0.7-1c0-0.3-0.1-0.6-0.4-0.8c-0.2-0.2-0.6-0.4-1-0.6l-2.6-1c-0.3-0.1-0.6-0.3-1-0.5s-0.6-0.5-0.8-0.8
			c-0.2-0.3-0.3-0.7-0.3-1.1c0-0.5,0.1-0.9,0.4-1.3c0.3-0.4,0.7-0.7,1.2-0.9s1.1-0.3,1.9-0.3c0.7,0,1.3,0.1,1.8,0.3s0.9,0.5,1.2,0.9
			c0.3,0.4,0.4,0.8,0.4,1.3c0,0.4-0.1,0.8-0.3,1.1c-0.2,0.3-0.5,0.6-0.9,0.8c-0.4,0.2-0.9,0.3-1.4,0.3c-0.1,0-0.3,0-0.4,0
			c-0.1,0-0.3,0-0.4-0.1v-0.4c0.4,0,0.8-0.1,1.1-0.2c0.3-0.1,0.6-0.3,0.8-0.6c0.2-0.2,0.3-0.5,0.3-0.9c0-0.3-0.1-0.6-0.3-0.8
			s-0.4-0.4-0.8-0.6c-0.3-0.1-0.7-0.2-1.2-0.2c-0.4,0-0.8,0.1-1.1,0.2c-0.3,0.1-0.6,0.3-0.8,0.5c-0.2,0.2-0.3,0.5-0.3,0.7
			c0,0.3,0.1,0.6,0.3,0.8c0.2,0.2,0.5,0.4,0.9,0.5l2.6,1c0.7,0.3,1.2,0.6,1.6,0.9c0.4,0.4,0.6,0.8,0.6,1.4c0,0.5-0.1,0.9-0.4,1.3
			c-0.3,0.4-0.7,0.7-1.3,0.9S490.9,62.4,490.1,62.4z"/>
		<path class="st4" d="M499.2,62.4c-0.7,0-1.4-0.2-1.9-0.5c-0.6-0.4-1-0.9-1.3-1.6c-0.3-0.7-0.5-1.6-0.5-2.7s0.2-2,0.5-2.7
			s0.7-1.3,1.3-1.6s1.2-0.5,1.9-0.5c0.7,0,1.4,0.2,1.9,0.5c0.6,0.4,1,0.9,1.3,1.6c0.3,0.7,0.5,1.6,0.5,2.7s-0.2,2-0.5,2.7
			c-0.3,0.7-0.7,1.3-1.3,1.6C500.5,62.2,499.9,62.4,499.2,62.4z M499.2,61.3c0.8,0,1.4-0.3,1.8-1c0.4-0.7,0.6-1.6,0.6-2.8
			s-0.2-2.2-0.6-2.8c-0.4-0.7-1-1-1.8-1c-0.8,0-1.4,0.3-1.8,1c-0.4,0.7-0.6,1.6-0.6,2.8s0.2,2.2,0.6,2.8
			C497.7,61,498.3,61.3,499.2,61.3z"/>
		<path class="st4" d="M506.4,56.9c-0.3,0-0.6-0.1-0.9-0.2s-0.5-0.4-0.7-0.7s-0.3-0.7-0.3-1.2s0.1-0.9,0.3-1.2s0.4-0.6,0.7-0.7
			s0.6-0.2,0.9-0.2c0.3,0,0.7,0.1,1,0.2s0.5,0.4,0.7,0.7s0.3,0.7,0.3,1.2s-0.1,0.9-0.3,1.2s-0.4,0.6-0.7,0.7S506.8,56.9,506.4,56.9z
			 M505.3,62.2l6.3-9.4h1.2l-6.3,9.4H505.3z M506.4,56.1c0.3,0,0.5-0.1,0.7-0.3c0.2-0.2,0.3-0.6,0.3-1s-0.1-0.8-0.3-1
			c-0.2-0.2-0.4-0.3-0.7-0.3c-0.3,0-0.5,0.1-0.7,0.3c-0.2,0.2-0.3,0.6-0.3,1s0.1,0.8,0.3,1C505.9,56,506.1,56.1,506.4,56.1z
			 M511.7,62.4c-0.3,0-0.6-0.1-0.9-0.2s-0.5-0.4-0.7-0.7s-0.3-0.7-0.3-1.2c0-0.5,0.1-0.9,0.3-1.2c0.2-0.3,0.4-0.6,0.7-0.7
			s0.6-0.2,0.9-0.2c0.3,0,0.7,0.1,1,0.2s0.5,0.4,0.7,0.7c0.2,0.3,0.3,0.7,0.3,1.2c0,0.5-0.1,0.9-0.3,1.2s-0.4,0.6-0.7,0.7
			S512,62.4,511.7,62.4z M511.7,61.6c0.3,0,0.5-0.1,0.7-0.3c0.2-0.2,0.3-0.6,0.3-1c0-0.5-0.1-0.8-0.3-1c-0.2-0.2-0.4-0.3-0.7-0.3
			c-0.3,0-0.5,0.1-0.7,0.3c-0.2,0.2-0.3,0.6-0.3,1c0,0.5,0.1,0.8,0.3,1C511.1,61.5,511.4,61.6,511.7,61.6z"/>
	</g>
</g>
<circle class="st4" cx="499.4" cy="33.3" r="4"/>
<g>
	<g>
		<path class="st4" d="M324.5,426.3v-1.2c0-0.5,0.1-0.9,0.2-1.2c0.2-0.3,0.4-0.6,0.6-0.8c0.3-0.2,0.6-0.4,1-0.5l1.6-0.6
			c0.4-0.2,0.7-0.4,0.9-0.6s0.3-0.6,0.3-1c0-0.4-0.1-0.8-0.4-1c-0.3-0.3-0.7-0.4-1.2-0.4c-0.5,0-0.9,0.1-1.3,0.3
			c-0.3,0.2-0.5,0.5-0.6,1h-1.1c0-0.5,0.2-0.9,0.4-1.2c0.2-0.3,0.6-0.6,1-0.8c0.4-0.2,0.9-0.3,1.5-0.3c0.5,0,1,0.1,1.4,0.3
			c0.4,0.2,0.7,0.5,1,0.8c0.2,0.4,0.4,0.8,0.4,1.2c0,0.4-0.1,0.8-0.2,1.1c-0.2,0.3-0.4,0.6-0.7,0.8s-0.6,0.4-1,0.6l-1.7,0.7
			c-0.4,0.2-0.7,0.4-0.9,0.6c-0.2,0.2-0.3,0.5-0.3,0.9v0.4h4.7v0.9H324.5z"/>
		<path class="st4" d="M335,426.4c-0.6,0-1.2-0.2-1.7-0.5c-0.5-0.3-0.9-0.8-1.1-1.4c-0.3-0.6-0.4-1.4-0.4-2.4s0.1-1.7,0.4-2.4
			c0.3-0.6,0.6-1.1,1.1-1.4c0.5-0.3,1-0.5,1.7-0.5c0.6,0,1.2,0.2,1.7,0.5c0.5,0.3,0.9,0.8,1.1,1.4s0.4,1.4,0.4,2.4s-0.1,1.7-0.4,2.4
			c-0.3,0.6-0.6,1.1-1.1,1.4C336.2,426.3,335.7,426.4,335,426.4z M335,425.5c0.7,0,1.2-0.3,1.6-0.9c0.4-0.6,0.5-1.4,0.5-2.4
			s-0.2-1.9-0.5-2.4c-0.4-0.6-0.9-0.9-1.6-0.9c-0.7,0-1.2,0.3-1.6,0.9c-0.4,0.6-0.6,1.4-0.6,2.4s0.2,1.9,0.6,2.4
			C333.8,425.2,334.3,425.5,335,425.5z"/>
		<path class="st4" d="M341.1,418.1h0.8v8.2h-1v-7c-0.2,0.1-0.4,0.3-0.7,0.3c-0.2,0.1-0.5,0.1-0.7,0.1v-1c0.3,0,0.5-0.1,0.8-0.2
			C340.6,418.4,340.8,418.3,341.1,418.1z"/>
		<path class="st4" d="M344,426.3l3.9-7.2h-4.4v-1h5.6v0.9l-3.8,7.2H344z"/>
	</g>
</g>
<g>
	<g>
		<path class="st4" d="M236.9,426.3v-1.2c0-0.5,0.1-0.9,0.2-1.2c0.2-0.3,0.4-0.6,0.6-0.8c0.3-0.2,0.6-0.4,1-0.5l1.6-0.6
			c0.4-0.2,0.7-0.4,0.9-0.6s0.3-0.6,0.3-1c0-0.4-0.1-0.8-0.4-1c-0.3-0.3-0.7-0.4-1.2-0.4c-0.5,0-0.9,0.1-1.3,0.3
			c-0.3,0.2-0.5,0.5-0.6,1h-1.1c0-0.5,0.2-0.9,0.4-1.2c0.2-0.3,0.6-0.6,1-0.8c0.4-0.2,0.9-0.3,1.5-0.3c0.5,0,1,0.1,1.4,0.3
			c0.4,0.2,0.7,0.5,1,0.8c0.2,0.4,0.4,0.8,0.4,1.2c0,0.4-0.1,0.8-0.2,1.1c-0.2,0.3-0.4,0.6-0.7,0.8s-0.6,0.4-1,0.6l-1.7,0.7
			c-0.4,0.2-0.7,0.4-0.9,0.6c-0.2,0.2-0.3,0.5-0.3,0.9v0.4h4.7v0.9H236.9z"/>
		<path class="st4" d="M247.5,426.4c-0.6,0-1.2-0.2-1.7-0.5c-0.5-0.3-0.9-0.8-1.1-1.4c-0.3-0.6-0.4-1.4-0.4-2.4s0.1-1.7,0.4-2.4
			c0.3-0.6,0.6-1.1,1.1-1.4c0.5-0.3,1-0.5,1.7-0.5c0.6,0,1.2,0.2,1.7,0.5c0.5,0.3,0.9,0.8,1.1,1.4s0.4,1.4,0.4,2.4s-0.1,1.7-0.4,2.4
			c-0.3,0.6-0.6,1.1-1.1,1.4C248.7,426.3,248.1,426.4,247.5,426.4z M247.5,425.5c0.7,0,1.2-0.3,1.6-0.9c0.4-0.6,0.5-1.4,0.5-2.4
			s-0.2-1.9-0.5-2.4c-0.4-0.6-0.9-0.9-1.6-0.9c-0.7,0-1.2,0.3-1.6,0.9c-0.4,0.6-0.6,1.4-0.6,2.4s0.2,1.9,0.6,2.4
			C246.3,425.2,246.8,425.5,247.5,425.5z"/>
		<path class="st4" d="M253.5,418.1h0.8v8.2h-1v-7c-0.2,0.1-0.4,0.3-0.7,0.3c-0.2,0.1-0.5,0.1-0.7,0.1v-1c0.3,0,0.5-0.1,0.8-0.2
			C253,418.4,253.3,418.3,253.5,418.1z"/>
		<path class="st4" d="M259.6,426.4c-0.7,0-1.2-0.2-1.7-0.5c-0.5-0.4-0.9-0.8-1.1-1.5c-0.3-0.6-0.4-1.3-0.4-2.1
			c0-0.9,0.1-1.7,0.4-2.3c0.3-0.7,0.7-1.2,1.2-1.5c0.5-0.3,1.1-0.5,1.8-0.5c0.5,0,0.9,0.1,1.3,0.3c0.4,0.2,0.7,0.4,0.9,0.8
			c0.2,0.3,0.4,0.7,0.4,1.2h-1.1c-0.1-0.4-0.2-0.7-0.4-0.9c-0.2-0.2-0.6-0.3-1-0.3c-0.7,0-1.3,0.3-1.8,1c-0.4,0.6-0.6,1.5-0.6,2.6
			c0,0.2,0,0.3,0,0.6c0,0.2,0,0.4,0.1,0.6c0-0.6,0.2-1,0.4-1.4c0.2-0.3,0.5-0.6,0.9-0.7s0.7-0.2,1.1-0.2c0.5,0,0.9,0.1,1.3,0.3
			s0.7,0.5,0.9,0.9c0.2,0.4,0.3,0.8,0.3,1.3c0,0.5-0.1,0.9-0.4,1.3c-0.2,0.4-0.6,0.7-1,0.9S260.1,426.4,259.6,426.4z M259.6,425.5
			c0.5,0,0.9-0.1,1.2-0.4c0.3-0.3,0.5-0.7,0.5-1.2c0-0.5-0.2-0.9-0.5-1.2c-0.3-0.3-0.7-0.4-1.2-0.4c-0.3,0-0.6,0.1-0.9,0.2
			s-0.5,0.3-0.6,0.6c-0.1,0.2-0.2,0.5-0.2,0.8c0,0.5,0.2,0.9,0.5,1.2C258.7,425.3,259.1,425.5,259.6,425.5z"/>
	</g>
</g>
<g>
	<g>
		<path class="st4" d="M157.9,426.3v-1.2c0-0.5,0.1-0.9,0.2-1.2c0.2-0.3,0.4-0.6,0.6-0.8c0.3-0.2,0.6-0.4,1-0.5l1.6-0.6
			c0.4-0.2,0.7-0.4,0.9-0.6s0.3-0.6,0.3-1c0-0.4-0.1-0.8-0.4-1c-0.3-0.3-0.7-0.4-1.2-0.4c-0.5,0-0.9,0.1-1.3,0.3
			c-0.3,0.2-0.5,0.5-0.6,1h-1.1c0-0.5,0.2-0.9,0.4-1.2c0.2-0.3,0.6-0.6,1-0.8c0.4-0.2,0.9-0.3,1.5-0.3c0.5,0,1,0.1,1.4,0.3
			c0.4,0.2,0.7,0.5,1,0.8c0.2,0.4,0.4,0.8,0.4,1.2c0,0.4-0.1,0.8-0.2,1.1c-0.2,0.3-0.4,0.6-0.7,0.8s-0.6,0.4-1,0.6l-1.7,0.7
			c-0.4,0.2-0.7,0.4-0.9,0.6c-0.2,0.2-0.3,0.5-0.3,0.9v0.4h4.7v0.9H157.9z"/>
		<path class="st4" d="M168.5,426.4c-0.6,0-1.2-0.2-1.7-0.5c-0.5-0.3-0.9-0.8-1.1-1.4c-0.3-0.6-0.4-1.4-0.4-2.4s0.1-1.7,0.4-2.4
			c0.3-0.6,0.6-1.1,1.1-1.4c0.5-0.3,1-0.5,1.7-0.5c0.6,0,1.2,0.2,1.7,0.5c0.5,0.3,0.9,0.8,1.1,1.4s0.4,1.4,0.4,2.4s-0.1,1.7-0.4,2.4
			c-0.3,0.6-0.6,1.1-1.1,1.4C169.7,426.3,169.1,426.4,168.5,426.4z M168.5,425.5c0.7,0,1.2-0.3,1.6-0.9c0.4-0.6,0.5-1.4,0.5-2.4
			s-0.2-1.9-0.5-2.4c-0.4-0.6-0.9-0.9-1.6-0.9c-0.7,0-1.2,0.3-1.6,0.9c-0.4,0.6-0.6,1.4-0.6,2.4s0.2,1.9,0.6,2.4
			C167.3,425.2,167.8,425.5,168.5,425.5z"/>
		<path class="st4" d="M174.5,418.1h0.8v8.2h-1v-7c-0.2,0.1-0.4,0.3-0.7,0.3c-0.2,0.1-0.5,0.1-0.7,0.1v-1c0.3,0,0.5-0.1,0.8-0.2
			C174,418.4,174.3,418.3,174.5,418.1z"/>
		<path class="st4" d="M180.3,426.4c-0.5,0-1-0.1-1.4-0.3c-0.4-0.2-0.8-0.5-1-0.8c-0.3-0.4-0.4-0.8-0.4-1.3h1c0,0.5,0.2,0.9,0.5,1.1
			c0.3,0.3,0.8,0.4,1.3,0.4c0.6,0,1-0.2,1.4-0.5c0.3-0.4,0.5-0.8,0.5-1.3c0-1-0.7-1.6-2-1.6H178l0.4-4h4.5v0.9h-3.7l0.2-0.4
			l-0.3,2.8l-0.1-0.1c0.2,0,0.4-0.1,0.7-0.1s0.5,0,0.7,0c0.9,0,1.6,0.2,2.1,0.6s0.8,1,0.8,1.8c0,0.5-0.1,1-0.4,1.4
			c-0.2,0.4-0.6,0.8-1,1C181.4,426.3,180.9,426.4,180.3,426.4z"/>
	</g>
</g>
<g>
	<g>
		<path class="st4" d="M74.9,426.3v-1.2c0-0.5,0.1-0.9,0.2-1.2c0.2-0.3,0.4-0.6,0.6-0.8c0.3-0.2,0.6-0.4,1-0.5l1.6-0.6
			c0.4-0.2,0.7-0.4,0.9-0.6s0.3-0.6,0.3-1c0-0.4-0.1-0.8-0.4-1c-0.3-0.3-0.7-0.4-1.2-0.4c-0.5,0-0.9,0.1-1.3,0.3
			c-0.3,0.2-0.5,0.5-0.6,1h-1.1c0-0.5,0.2-0.9,0.4-1.2c0.2-0.3,0.6-0.6,1-0.8c0.4-0.2,0.9-0.3,1.5-0.3c0.5,0,1,0.1,1.4,0.3
			c0.4,0.2,0.7,0.5,1,0.8c0.2,0.4,0.4,0.8,0.4,1.2c0,0.4-0.1,0.8-0.2,1.1c-0.2,0.3-0.4,0.6-0.7,0.8s-0.6,0.4-1,0.6l-1.7,0.7
			c-0.4,0.2-0.7,0.4-0.9,0.6c-0.2,0.2-0.3,0.5-0.3,0.9v0.4h4.7v0.9H74.9z"/>
		<path class="st4" d="M85.5,426.4c-0.6,0-1.2-0.2-1.7-0.5c-0.5-0.3-0.9-0.8-1.1-1.4c-0.3-0.6-0.4-1.4-0.4-2.4s0.1-1.7,0.4-2.4
			c0.3-0.6,0.6-1.1,1.1-1.4c0.5-0.3,1-0.5,1.7-0.5c0.6,0,1.2,0.2,1.7,0.5c0.5,0.3,0.9,0.8,1.1,1.4s0.4,1.4,0.4,2.4s-0.1,1.7-0.4,2.4
			c-0.3,0.6-0.6,1.1-1.1,1.4C86.7,426.3,86.1,426.4,85.5,426.4z M85.5,425.5c0.7,0,1.2-0.3,1.6-0.9c0.4-0.6,0.5-1.4,0.5-2.4
			s-0.2-1.9-0.5-2.4c-0.4-0.6-0.9-0.9-1.6-0.9c-0.7,0-1.2,0.3-1.6,0.9c-0.4,0.6-0.6,1.4-0.6,2.4s0.2,1.9,0.6,2.4
			C84.3,425.2,84.8,425.5,85.5,425.5z"/>
		<path class="st4" d="M91.5,418.1h0.8v8.2h-1v-7c-0.2,0.1-0.4,0.3-0.7,0.3c-0.2,0.1-0.5,0.1-0.7,0.1v-1c0.3,0,0.5-0.1,0.8-0.2
			C91,418.4,91.3,418.3,91.5,418.1z"/>
		<path class="st4" d="M98.3,418h0.9v5.4h1.4v0.9h-1.4v2h-1v-2H94v-0.8L98.3,418z M98.2,419.6l-3.1,3.9h3.1V419.6z"/>
	</g>
</g>
<g>
	<g>
		<path class="st4" d="M487.9,426.3v-1.2c0-0.5,0.1-0.9,0.2-1.2c0.2-0.3,0.4-0.6,0.6-0.8c0.3-0.2,0.6-0.4,1-0.5l1.6-0.6
			c0.4-0.2,0.7-0.4,0.9-0.6s0.3-0.6,0.3-1c0-0.4-0.1-0.8-0.4-1c-0.3-0.3-0.7-0.4-1.2-0.4c-0.5,0-0.9,0.1-1.3,0.3
			c-0.3,0.2-0.5,0.5-0.6,1h-1.1c0-0.5,0.2-0.9,0.4-1.2c0.3-0.3,0.6-0.6,1-0.8c0.4-0.2,0.9-0.3,1.5-0.3c0.5,0,1,0.1,1.4,0.3
			c0.4,0.2,0.7,0.5,1,0.8c0.2,0.4,0.4,0.8,0.4,1.2c0,0.4-0.1,0.8-0.2,1.1c-0.2,0.3-0.4,0.6-0.7,0.8s-0.6,0.4-1,0.6l-1.7,0.7
			c-0.4,0.2-0.7,0.4-0.9,0.6c-0.2,0.2-0.3,0.5-0.3,0.9v0.4h4.7v0.9H487.9z"/>
		<path class="st4" d="M498.5,426.4c-0.6,0-1.2-0.2-1.7-0.5c-0.5-0.3-0.9-0.8-1.1-1.4c-0.3-0.6-0.4-1.4-0.4-2.4s0.1-1.7,0.4-2.4
			c0.3-0.6,0.6-1.1,1.1-1.4c0.5-0.3,1-0.5,1.7-0.5c0.6,0,1.2,0.2,1.7,0.5c0.5,0.3,0.9,0.8,1.1,1.4c0.3,0.6,0.4,1.4,0.4,2.4
			s-0.1,1.7-0.4,2.4c-0.3,0.6-0.6,1.1-1.1,1.4C499.7,426.3,499.1,426.4,498.5,426.4z M498.5,425.5c0.7,0,1.2-0.3,1.6-0.9
			c0.4-0.6,0.5-1.4,0.5-2.4s-0.2-1.9-0.5-2.4c-0.4-0.6-0.9-0.9-1.6-0.9c-0.7,0-1.2,0.3-1.6,0.9c-0.4,0.6-0.6,1.4-0.6,2.4
			s0.2,1.9,0.6,2.4C497.3,425.2,497.8,425.5,498.5,425.5z"/>
		<path class="st4" d="M504.5,418.1h0.8v8.2h-1v-7c-0.2,0.1-0.4,0.3-0.7,0.3c-0.2,0.1-0.5,0.1-0.7,0.1v-1c0.3,0,0.5-0.1,0.8-0.2
			C504,418.4,504.3,418.3,504.5,418.1z"/>
		<path class="st4" d="M510.3,426.4c-0.5,0-1-0.1-1.4-0.3c-0.4-0.2-0.7-0.5-1-0.9c-0.2-0.4-0.4-0.8-0.4-1.3h1.1
			c0,0.5,0.2,0.9,0.5,1.2s0.7,0.4,1.2,0.4c0.5,0,0.9-0.1,1.2-0.4c0.3-0.3,0.6-0.7,0.7-1.3c0.1-0.5,0.2-1.2,0.2-1.9
			c0-0.2,0-0.3,0-0.5c0-0.1,0-0.3-0.1-0.5c-0.1,0.5-0.2,0.9-0.4,1.2c-0.2,0.3-0.5,0.5-0.8,0.7c-0.3,0.2-0.7,0.2-1.1,0.2
			c-0.5,0-0.9-0.1-1.3-0.3c-0.4-0.2-0.7-0.5-0.9-0.9c-0.2-0.4-0.3-0.8-0.3-1.3c0-0.5,0.1-0.9,0.3-1.3c0.2-0.4,0.6-0.7,1-0.9
			c0.4-0.2,0.9-0.3,1.4-0.3c0.5,0,0.9,0.1,1.3,0.3c0.4,0.2,0.7,0.5,1,0.8c0.3,0.4,0.5,0.8,0.7,1.3s0.2,1.1,0.2,1.7
			c0,0.9-0.1,1.7-0.3,2.3c-0.2,0.7-0.6,1.2-1,1.5C511.7,426.2,511.1,426.4,510.3,426.4z M510.3,422.1c0.3,0,0.6-0.1,0.9-0.2
			c0.3-0.1,0.5-0.3,0.6-0.6c0.2-0.2,0.2-0.5,0.2-0.8c0-0.5-0.2-0.9-0.5-1.2c-0.3-0.3-0.7-0.4-1.2-0.4c-0.5,0-0.9,0.1-1.2,0.4
			c-0.3,0.3-0.5,0.7-0.5,1.2c0,0.5,0.2,0.9,0.5,1.2C509.4,422,509.8,422.1,510.3,422.1z"/>
	</g>
</g>
<g>
	<g>
		<path class="st4" d="M405.9,426.3v-1.2c0-0.5,0.1-0.9,0.2-1.2c0.2-0.3,0.4-0.6,0.6-0.8c0.3-0.2,0.6-0.4,1-0.5l1.6-0.6
			c0.4-0.2,0.7-0.4,0.9-0.6s0.3-0.6,0.3-1c0-0.4-0.1-0.8-0.4-1c-0.3-0.3-0.7-0.4-1.2-0.4c-0.5,0-0.9,0.1-1.3,0.3
			c-0.3,0.2-0.5,0.5-0.6,1h-1.1c0-0.5,0.2-0.9,0.4-1.2c0.3-0.3,0.6-0.6,1-0.8c0.4-0.2,0.9-0.3,1.5-0.3c0.5,0,1,0.1,1.4,0.3
			c0.4,0.2,0.7,0.5,1,0.8c0.2,0.4,0.4,0.8,0.4,1.2c0,0.4-0.1,0.8-0.2,1.1c-0.2,0.3-0.4,0.6-0.7,0.8s-0.6,0.4-1,0.6l-1.7,0.7
			c-0.4,0.2-0.7,0.4-0.9,0.6c-0.2,0.2-0.3,0.5-0.3,0.9v0.4h4.7v0.9H405.9z"/>
		<path class="st4" d="M416.5,426.4c-0.6,0-1.2-0.2-1.7-0.5c-0.5-0.3-0.9-0.8-1.1-1.4c-0.3-0.6-0.4-1.4-0.4-2.4s0.1-1.7,0.4-2.4
			c0.3-0.6,0.6-1.1,1.1-1.4c0.5-0.3,1-0.5,1.7-0.5c0.6,0,1.2,0.2,1.7,0.5c0.5,0.3,0.9,0.8,1.1,1.4c0.3,0.6,0.4,1.4,0.4,2.4
			s-0.1,1.7-0.4,2.4c-0.3,0.6-0.6,1.1-1.1,1.4C417.7,426.3,417.1,426.4,416.5,426.4z M416.5,425.5c0.7,0,1.2-0.3,1.6-0.9
			c0.4-0.6,0.5-1.4,0.5-2.4s-0.2-1.9-0.5-2.4c-0.4-0.6-0.9-0.9-1.6-0.9c-0.7,0-1.2,0.3-1.6,0.9c-0.4,0.6-0.6,1.4-0.6,2.4
			s0.2,1.9,0.6,2.4C415.3,425.2,415.8,425.5,416.5,425.5z"/>
		<path class="st4" d="M422.5,418.1h0.8v8.2h-1v-7c-0.2,0.1-0.4,0.3-0.7,0.3c-0.2,0.1-0.5,0.1-0.7,0.1v-1c0.3,0,0.5-0.1,0.8-0.2
			C422,418.4,422.3,418.3,422.5,418.1z"/>
		<path class="st4" d="M428.6,426.4c-0.6,0-1.2-0.1-1.7-0.3c-0.5-0.2-0.9-0.5-1.2-0.8s-0.4-0.8-0.4-1.2c0-0.4,0.1-0.8,0.3-1.1
			c0.2-0.3,0.5-0.5,0.9-0.7s0.8-0.2,1.3-0.2c0.1,0,0.2,0,0.4,0s0.2,0,0.4,0.1v0.3c-0.4,0-0.8,0.1-1.1,0.2c-0.3,0.1-0.6,0.3-0.8,0.6
			c-0.2,0.2-0.3,0.5-0.3,0.7c0,0.3,0.1,0.6,0.3,0.8c0.2,0.2,0.5,0.4,0.8,0.5c0.3,0.1,0.7,0.2,1.1,0.2c0.7,0,1.2-0.1,1.6-0.3
			c0.4-0.2,0.6-0.5,0.6-0.9c0-0.3-0.1-0.5-0.3-0.7c-0.2-0.2-0.5-0.4-0.8-0.5l-2.2-0.9c-0.3-0.1-0.5-0.2-0.8-0.4s-0.5-0.4-0.7-0.7
			c-0.2-0.3-0.3-0.6-0.3-1c0-0.4,0.1-0.8,0.4-1.1c0.2-0.3,0.6-0.6,1-0.8c0.4-0.2,1-0.3,1.6-0.3c0.6,0,1.1,0.1,1.5,0.3
			c0.4,0.2,0.8,0.5,1.1,0.8s0.4,0.7,0.4,1.2c0,0.3-0.1,0.7-0.3,0.9c-0.2,0.3-0.4,0.5-0.8,0.7c-0.3,0.2-0.7,0.3-1.2,0.3
			c-0.1,0-0.2,0-0.3,0c-0.1,0-0.2,0-0.4-0.1v-0.3c0.4,0,0.7-0.1,0.9-0.2c0.3-0.1,0.5-0.3,0.7-0.5c0.2-0.2,0.3-0.5,0.3-0.7
			c0-0.3-0.1-0.5-0.2-0.7s-0.4-0.4-0.7-0.5c-0.3-0.1-0.6-0.2-1-0.2c-0.4,0-0.7,0.1-1,0.2c-0.3,0.1-0.5,0.3-0.7,0.5
			c-0.2,0.2-0.3,0.4-0.3,0.6c0,0.3,0.1,0.5,0.3,0.7s0.5,0.3,0.8,0.5l2.2,0.9c0.6,0.2,1.1,0.5,1.4,0.8c0.3,0.3,0.5,0.7,0.5,1.3
			c0,0.4-0.1,0.8-0.4,1.1c-0.3,0.3-0.6,0.6-1.1,0.8C429.9,426.3,429.3,426.4,428.6,426.4z"/>
	</g>
</g>
<g>
	<g>
		<path class="st4" d="M573.1,426.3v-1.2c0-0.5,0.1-0.9,0.2-1.2c0.2-0.3,0.4-0.6,0.6-0.8c0.3-0.2,0.6-0.4,1-0.5l1.6-0.6
			c0.4-0.2,0.7-0.4,0.9-0.6s0.3-0.6,0.3-1c0-0.4-0.1-0.8-0.4-1c-0.3-0.3-0.7-0.4-1.2-0.4c-0.5,0-0.9,0.1-1.3,0.3
			c-0.3,0.2-0.5,0.5-0.6,1h-1.1c0-0.5,0.2-0.9,0.4-1.2c0.3-0.3,0.6-0.6,1-0.8c0.4-0.2,0.9-0.3,1.5-0.3c0.5,0,1,0.1,1.4,0.3
			c0.4,0.2,0.7,0.5,1,0.8c0.2,0.4,0.4,0.8,0.4,1.2c0,0.4-0.1,0.8-0.2,1.1c-0.2,0.3-0.4,0.6-0.7,0.8s-0.6,0.4-1,0.6l-1.7,0.7
			c-0.4,0.2-0.7,0.4-0.9,0.6c-0.2,0.2-0.3,0.5-0.3,0.9v0.4h4.7v0.9H573.1z"/>
		<path class="st4" d="M583.7,426.4c-0.6,0-1.2-0.2-1.7-0.5c-0.5-0.3-0.9-0.8-1.1-1.4c-0.3-0.6-0.4-1.4-0.4-2.4s0.1-1.7,0.4-2.4
			c0.3-0.6,0.6-1.1,1.1-1.4c0.5-0.3,1-0.5,1.7-0.5c0.6,0,1.2,0.2,1.7,0.5c0.5,0.3,0.9,0.8,1.1,1.4c0.3,0.6,0.4,1.4,0.4,2.4
			s-0.1,1.7-0.4,2.4c-0.3,0.6-0.6,1.1-1.1,1.4C584.9,426.3,584.3,426.4,583.7,426.4z M583.7,425.5c0.7,0,1.2-0.3,1.6-0.9
			c0.4-0.6,0.5-1.4,0.5-2.4s-0.2-1.9-0.5-2.4c-0.4-0.6-0.9-0.9-1.6-0.9c-0.7,0-1.2,0.3-1.6,0.9c-0.4,0.6-0.6,1.4-0.6,2.4
			s0.2,1.9,0.6,2.4C582.5,425.2,583,425.5,583.7,425.5z"/>
		<path class="st4" d="M588.4,426.3v-1.2c0-0.5,0.1-0.9,0.2-1.2s0.4-0.6,0.7-0.8s0.6-0.4,1-0.5l1.6-0.6c0.4-0.2,0.7-0.4,0.9-0.6
			s0.3-0.6,0.3-1c0-0.4-0.1-0.8-0.4-1c-0.3-0.3-0.7-0.4-1.2-0.4c-0.5,0-0.9,0.1-1.3,0.3c-0.3,0.2-0.5,0.5-0.6,1h-1.1
			c0-0.5,0.2-0.9,0.4-1.2c0.2-0.3,0.6-0.6,1-0.8c0.4-0.2,0.9-0.3,1.5-0.3c0.5,0,1,0.1,1.4,0.3c0.4,0.2,0.7,0.5,1,0.8
			s0.4,0.8,0.4,1.2c0,0.4-0.1,0.8-0.2,1.1c-0.2,0.3-0.4,0.6-0.7,0.8s-0.6,0.4-1,0.6l-1.7,0.7c-0.4,0.2-0.7,0.4-0.9,0.6
			c-0.2,0.2-0.3,0.5-0.3,0.9v0.4h4.7v0.9H588.4z"/>
		<path class="st4" d="M598.9,426.4c-0.6,0-1.2-0.2-1.7-0.5c-0.5-0.3-0.9-0.8-1.1-1.4c-0.3-0.6-0.4-1.4-0.4-2.4s0.1-1.7,0.4-2.4
			c0.3-0.6,0.6-1.1,1.1-1.4c0.5-0.3,1-0.5,1.7-0.5c0.6,0,1.2,0.2,1.7,0.5c0.5,0.3,0.9,0.8,1.1,1.4s0.4,1.4,0.4,2.4s-0.1,1.7-0.4,2.4
			c-0.3,0.6-0.6,1.1-1.1,1.4C600.1,426.3,599.6,426.4,598.9,426.4z M598.9,425.5c0.7,0,1.2-0.3,1.6-0.9s0.5-1.4,0.5-2.4
			s-0.2-1.9-0.5-2.4s-0.9-0.9-1.6-0.9c-0.7,0-1.2,0.3-1.6,0.9s-0.6,1.4-0.6,2.4s0.2,1.9,0.6,2.4S598.2,425.5,598.9,425.5z"/>
	</g>
</g>
<line class="st10" x1="40.5" y1="407.8" x2="639.5" y2="407.8"/>
</svg>
