<svg id="Capa_1" data-name="Capa 1" xmlns="http://www.w3.org/2000/svg" viewBox="0 0 64 80"><defs><style>.cls-1{fill:#fff;}</style></defs><path class="cls-1" d="M61,27H59V4h2a1,1,0,0,0,0-2H25a1,1,0,0,0,0,2h2V18.43a1,1,0,0,0,2,0V4H57V27H34a1,1,0,0,0,0,2h8v2.18A3,3,0,1,0,45.83,33,3,3,0,0,0,44,31.18V29H61a1,1,0,0,0,0-2ZM43,35a1,1,0,1,1,1-1A1,1,0,0,1,43,35Z"/><path class="cls-1" d="M36,18a3,3,0,0,0,2,2.82V21a4,4,0,0,0,8,0v-.18A3,3,0,0,0,47.83,17a2.86,2.86,0,0,0-1-1.42A5.93,5.93,0,0,0,48,12a6,6,0,0,0-12,0,5.93,5.93,0,0,0,1.22,3.6A3,3,0,0,0,36,18Zm6,5a2,2,0,0,1-2-2h4A2,2,0,0,1,42,23Zm3-4H39a1,1,0,0,1,0-2h6a1,1,0,0,1,0,2ZM42,8a4,4,0,0,1,4,4,3.94,3.94,0,0,1-1.41,3H43V13.41l.71-.7a1,1,0,0,0-1.42-1.42l-.29.3-.29-.3a1,1,0,0,0-1.42,1.42l.71.7V15H39.41A3.94,3.94,0,0,1,38,12,4,4,0,0,1,42,8Z"/><path class="cls-1" d="M52,9h2a1,1,0,0,0,0-2H52a1,1,0,0,0,0,2Z"/><path class="cls-1" d="M52,13h2a1,1,0,0,0,0-2H52a1,1,0,0,0,0,2Z"/><path class="cls-1" d="M52,17h2a1,1,0,0,0,0-2H52a1,1,0,0,0,0,2Z"/><path class="cls-1" d="M33,9V8h1a1,1,0,0,0,0-2H32a1,1,0,0,0-1,1V9a1,1,0,0,0,2,0Z"/><path class="cls-1" d="M49,20v4a1,1,0,0,0,1,1h4a1,1,0,0,0,1-1V20a1,1,0,0,0-1-1H50A1,1,0,0,0,49,20Zm2,1h2v2H51Z"/><circle class="cls-1" cx="32" cy="13" r="1"/><circle class="cls-1" cx="32" cy="17" r="1"/><path class="cls-1" d="M28,28.13l5.12-2.56a2.73,2.73,0,0,0-2-5.07L26.05,22l-2.53-1-.47-.16A8,8,0,0,0,24,17V15A10,10,0,0,0,8.7,6.53a1,1,0,1,0,1.06,1.7A8,8,0,0,1,22,15v2a6,6,0,0,1-1,3.22,12.89,12.89,0,0,0-1.95-.2L19,20h-.54A6,6,0,0,0,20,16V13a1,1,0,0,0-1-1A4.6,4.6,0,0,1,15.17,10l-.34-.5a1,1,0,0,0-1.66,0l-.34.5A4.6,4.6,0,0,1,9,12a1,1,0,0,0-1,1v3a6,6,0,0,0,1.54,4H9a7.1,7.1,0,0,0-2,.29A6,6,0,0,1,6,17V15a7.93,7.93,0,0,1,1.24-4.26A1,1,0,0,0,5.55,9.67h0A10,10,0,0,0,4,15v2a8,8,0,0,0,1.17,4.15A7,7,0,0,0,2,27V37a1,1,0,0,0,2,0V27a5,5,0,0,1,4.17-4.92L9,27.16a1,1,0,0,0,1.16.83,1,1,0,0,0,.28-.1L13,26.62V37a1,1,0,0,0,2,0V26.62l2.55,1.28a1,1,0,0,0,1.34-.45.94.94,0,0,0,.1-.28l.85-5.1a11,11,0,0,1,2.93.72l2.86,1.14a.94.94,0,0,0,.64,0l2.43-.7.65,1.94-2.26,1.13a4,4,0,0,1-2.58.35L21.2,26A1,1,0,0,0,20,26.8a1.36,1.36,0,0,0,0,.2V37a1,1,0,0,0,2,0V28.22l2.12.42A6,6,0,0,0,28,28.13Zm-14-4.8L12.92,21.9a5.61,5.61,0,0,0,2.16,0Zm-4-9.41a6.58,6.58,0,0,0,4-2.21,6.58,6.58,0,0,0,4,2.21V16a4,4,0,0,1-8,0Zm.76,11.58L10.18,22h.32l2,2.64Zm6.48,0-1.72-.86,2-2.64h.32Zm13.39-2.78,1.05-.3a.74.74,0,0,1,.91.5.73.73,0,0,1-.38.86l-1.05.53Z"/><path class="cls-1" d="M8,37V29a1,1,0,0,0-2,0v8a1,1,0,0,0,2,0Z"/><path class="cls-1" d="M19,40H7a3,3,0,0,0-3,3v2a1,1,0,0,0,2,0V43a1,1,0,0,1,1-1H19a1,1,0,0,1,1,1v8a1,1,0,0,1-1,1H18a1,1,0,0,0-1,1v2.13l-4.44-3A1,1,0,0,0,12,52H7a1,1,0,0,1-1-1V49a1,1,0,0,0-2,0v2a3,3,0,0,0,3,3h4.7l5.75,3.83a1,1,0,0,0,1.38-.28A1,1,0,0,0,19,57V54a3,3,0,0,0,3-3V43A3,3,0,0,0,19,40Z"/><path class="cls-1" d="M17,46a1,1,0,0,0,0-2H11a1,1,0,0,0,0,2Z"/><path class="cls-1" d="M8,49a1,1,0,0,0,1,1h8a1,1,0,0,0,0-2H9A1,1,0,0,0,8,49Z"/><path class="cls-1" d="M47,55a1,1,0,0,0-1,1v5a1,1,0,0,0,2,0V56A1,1,0,0,0,47,55Z"/><path class="cls-1" d="M57,55a1,1,0,0,0-1,1v5a1,1,0,0,0,2,0V56A1,1,0,0,0,57,55Z"/><path class="cls-1" d="M59,46.8c0-.18,0-.36,0-.54V44a1,1,0,0,0-2,0v2.25a6,6,0,0,1-2.67,5L52,52.8l-2.33-1.55a6,6,0,0,1-2.67-5V40a5,5,0,0,1,10,0,1,1,0,0,0,2,0,7,7,0,0,0-14,0v6.25c0,.19,0,.37,0,.55a6,6,0,0,0-2,1.89A6,6,0,0,0,38,46h0a4.87,4.87,0,0,0,1-3v0a5,5,0,0,0-3-9H28a1,1,0,0,0,0,2h8a3,3,0,0,1,0,6H32a3,3,0,0,1-3-3,1,1,0,0,0-2,0,5,5,0,0,0,2,4v0a4.87,4.87,0,0,0,1,3h0a6,6,0,0,0-6,6v9a1,1,0,0,0,2,0V52a4,4,0,0,1,4-4h8a4,4,0,0,1,4,4v9a1,1,0,0,0,2,0V52a4,4,0,0,1,1.46-3.09,8,8,0,0,0,3.1,4l2.89,1.92a1,1,0,0,0,1.11,0l2.88-1.92a8,8,0,0,0,3.1-4A4,4,0,0,1,60,52v9a1,1,0,0,0,2,0V52A6,6,0,0,0,59,46.8ZM31.16,43.92A4.78,4.78,0,0,0,32,44h4a4.78,4.78,0,0,0,.84-.08,3,3,0,0,1-5.68,0Z"/><path class="cls-1" d="M29,55a1,1,0,0,0-1,1v5a1,1,0,0,0,2,0V56A1,1,0,0,0,29,55Z"/><path class="cls-1" d="M39,55a1,1,0,0,0-1,1v5a1,1,0,0,0,2,0V56A1,1,0,0,0,39,55Z"/></svg>