<svg id="Capa_1" data-name="Capa 1" xmlns="http://www.w3.org/2000/svg" viewBox="0 0 512 640"><defs><style>.cls-1{fill:#fff;}</style></defs><path class="cls-1" d="M215.84,202.65,61,264.57A8,8,0,0,0,64,280H80v40a8,8,0,0,0,16,0V280h48v40a8,8,0,0,0,16,0V280h51.54L208,343.51v0l-8,144a8,8,0,0,0,12.43,7.1L256,465.61l43.56,29.05a8,8,0,0,0,12.43-7.1l-8-144v0L300.46,280H352v40a8,8,0,0,0,16,0V280h48v40a8,8,0,0,0,16,0V280h16a8,8,0,0,0,3-15.43L296.16,202.65,292,128h76v40a8,8,0,0,0,16,0V128h16a8,8,0,0,0,3.77-15.06L285.33,49.78,262.4,19.2a8,8,0,0,0-11.2-1.6,7.58,7.58,0,0,0-1.6,1.6L226.67,49.78,108.24,112.94A8,8,0,0,0,112,128h16v40a8,8,0,0,0,16,0V128h76Zm76.85,226-26.52-33.75,23-29.29Zm-69.88-63,23,29.29-26.52,33.75Zm23.71-207.9L233.2,178.64l2.14-38.5Zm0-29.72h18.86L256,142.81ZM256,172.62,273.43,200H238.57ZM244.69,304l-19.54,19.54,2.06-37Zm-1.38-24h25.38L256,292.69Zm-16.63,64.64L256,315.31l29.32,29.33L256,382ZM267.31,304l17.48-17.48,2.06,37Zm-38.85-40,2.66-48h49.76l2.66,48Zm37-106.29,11.18-17.56,2.14,38.5Zm23.3-88,29.05,15.5-27,21.23ZM272.43,64l2.67,48H236.9l2.67-48Zm-51.3,43.37L194,85.34l29.24-15.6ZM212.7,259.12,181.05,233.8l33.81-13.53ZM164,240.63,193.19,264H105.54Zm96.46,208.71a8,8,0,0,0-8.87,0l-34.69,23.13.89-15.94L256,407.86l38.24,48.67.88,15.94ZM318.81,264,348,240.63,406.46,264ZM331,233.8,299.3,259.12l-2.16-38.85ZM309.68,112l23.58-18.53L368,112ZM256,37.33,264,48H248ZM178.66,93.51,201.44,112H144Z"/></svg>