<svg id="Capa_1" data-name="Capa 1" xmlns="http://www.w3.org/2000/svg" viewBox="0 0 1080 1080"><defs><style>.cls-1{fill:#b3e6e0;}</style></defs><path class="cls-1" d="M736.73,455.85l142-142V417.32a25.15,25.15,0,1,0,50.3,0V253.13a25.26,25.26,0,0,0-1.94-9.67c-.05-.13-.15-.24-.2-.35a24.53,24.53,0,0,0-13-13l-.35-.2a25.46,25.46,0,0,0-9.69-1.93H739.7a25.15,25.15,0,1,0,0,50.3l103.45,0-142,142C616.71,353.53,493.49,359,415.59,436.9c-83.95,84-84,220.55,0,304.52s220.56,83.94,304.49,0C798,663.49,803.48,540.3,736.73,455.85Zm-285.57,250c-64.36-64.35-64.36-169,0-233.38s169-64.34,233.36,0,64.33,169,0,233.37S515.51,770.18,451.16,705.88Z"/></svg>