<svg id="Capa_1" data-name="Capa 1" xmlns="http://www.w3.org/2000/svg" viewBox="0 0 100 125"><defs><style>.cls-1{fill:#fff;}</style></defs><path class="cls-1" d="M7.69,21A3,3,0,0,0,5,24V76a3,3,0,0,0,3,3H18a3,3,0,0,0,3-3V67H79v9a3,3,0,0,0,3,3H92a3,3,0,0,0,3-3V54a3,3,0,0,0-3-3H21V24a3,3,0,0,0-3-3H8A1.61,1.61,0,0,0,7.69,21ZM92,26.94a1.55,1.55,0,0,0-.31,0A3,3,0,0,0,89,30V41H52a4,4,0,0,1,0-8H82a3,3,0,1,0,.08-6H52a10,10,0,0,0-8.5,4.78,10,10,0,1,0,0,10.44A10,10,0,0,0,52,47H92a3,3,0,0,0,3-3V30a3,3,0,0,0-2.94-3.06ZM11,27h4V54a3,3,0,0,0,3,3H89V73H85V64a3,3,0,0,0-3-3H18a3,3,0,0,0-3,3v9H11Zm24,6a4,4,0,1,1-4,4A4,4,0,0,1,35,33Z"/></svg>