<?xml version="1.0" encoding="utf-8"?>
<!-- Generator: Adobe Illustrator 24.0.2, SVG Export Plug-In . SVG Version: 6.00 Build 0)  -->
<svg version="1.1" id="Capa_1" xmlns="http://www.w3.org/2000/svg" xmlns:xlink="http://www.w3.org/1999/xlink" x="0px" y="0px"
	 viewBox="0 0 680 480" style="enable-background:new 0 0 680 480;" xml:space="preserve">
<style type="text/css">
	.st0{fill:#252525;}
	.st1{fill:none;stroke:#FF5757;stroke-miterlimit:10;}
	.st2{opacity:0.7;}
	.st3{fill:#FF5757;}
	.st4{fill:#FFFFFF;}
	.st5{opacity:0.6;}
	.st6{opacity:0.5;}
	.st7{opacity:0.4;}
	.st8{opacity:0.8;}
	.st9{opacity:0.9;}
	.st10{fill:none;stroke:#FFFFFF;stroke-width:3;stroke-miterlimit:10;}
</style>
<rect x="-1" y="1" class="st0" width="680" height="478"/>
<g>
	<line class="st1" x1="335.3" y1="143" x2="336.8" y2="142.9"/>
	<line class="st1" x1="414" y1="138.9" x2="415.5" y2="138.8"/>
	<line class="st1" x1="409.3" y1="139.1" x2="410.8" y2="139"/>
	<line class="st1" x1="404.7" y1="139.3" x2="406.2" y2="139.3"/>
	<line class="st1" x1="400.1" y1="139.6" x2="401.6" y2="139.5"/>
	<line class="st1" x1="395.5" y1="139.8" x2="397" y2="139.7"/>
	<line class="st1" x1="390.8" y1="140.1" x2="392.3" y2="140"/>
	<line class="st1" x1="386.2" y1="140.3" x2="387.7" y2="140.2"/>
	<line class="st1" x1="381.6" y1="140.5" x2="383.1" y2="140.5"/>
	<line class="st1" x1="377" y1="140.8" x2="378.5" y2="140.7"/>
	<line class="st1" x1="372.3" y1="141" x2="373.8" y2="141"/>
	<line class="st1" x1="367.7" y1="141.3" x2="369.2" y2="141.2"/>
	<line class="st1" x1="363.1" y1="141.5" x2="364.6" y2="141.4"/>
	<line class="st1" x1="358.5" y1="141.8" x2="360" y2="141.7"/>
	<line class="st1" x1="353.8" y1="142" x2="355.3" y2="141.9"/>
	<line class="st1" x1="349.2" y1="142.2" x2="350.7" y2="142.2"/>
	<line class="st1" x1="344.6" y1="142.5" x2="346.1" y2="142.4"/>
	<line class="st1" x1="340" y1="142.7" x2="341.5" y2="142.6"/>
	<line class="st1" x1="418.6" y1="138.6" x2="420.1" y2="138.5"/>
</g>
<g>
	<line class="st1" x1="498.3" y1="138.8" x2="499.8" y2="138.8"/>
	<line class="st1" x1="577" y1="138.8" x2="578.5" y2="138.8"/>
	<line class="st1" x1="572.4" y1="138.8" x2="573.9" y2="138.8"/>
	<line class="st1" x1="567.7" y1="138.8" x2="569.3" y2="138.8"/>
	<line class="st1" x1="563.1" y1="138.8" x2="564.6" y2="138.8"/>
	<line class="st1" x1="558.5" y1="138.8" x2="560" y2="138.8"/>
	<line class="st1" x1="553.9" y1="138.8" x2="555.4" y2="138.8"/>
	<line class="st1" x1="549.2" y1="138.8" x2="550.7" y2="138.8"/>
	<line class="st1" x1="544.6" y1="138.8" x2="546.1" y2="138.8"/>
	<line class="st1" x1="540" y1="138.8" x2="541.5" y2="138.8"/>
	<line class="st1" x1="535.3" y1="138.8" x2="536.8" y2="138.8"/>
	<line class="st1" x1="530.7" y1="138.8" x2="532.2" y2="138.8"/>
	<line class="st1" x1="526.1" y1="138.8" x2="527.6" y2="138.8"/>
	<line class="st1" x1="521.4" y1="138.8" x2="522.9" y2="138.8"/>
	<line class="st1" x1="516.8" y1="138.8" x2="518.3" y2="138.8"/>
	<line class="st1" x1="512.2" y1="138.8" x2="513.7" y2="138.8"/>
	<line class="st1" x1="507.5" y1="138.8" x2="509" y2="138.8"/>
	<line class="st1" x1="502.9" y1="138.8" x2="504.4" y2="138.8"/>
	<line class="st1" x1="581.6" y1="138.8" x2="583.2" y2="138.8"/>
</g>
<g>
	<line class="st1" x1="416.3" y1="138.8" x2="417.8" y2="138.8"/>
	<line class="st1" x1="495" y1="138.8" x2="496.5" y2="138.8"/>
	<line class="st1" x1="490.4" y1="138.8" x2="491.9" y2="138.8"/>
	<line class="st1" x1="485.7" y1="138.8" x2="487.3" y2="138.8"/>
	<line class="st1" x1="481.1" y1="138.8" x2="482.6" y2="138.8"/>
	<line class="st1" x1="476.5" y1="138.8" x2="478" y2="138.8"/>
	<line class="st1" x1="471.9" y1="138.8" x2="473.4" y2="138.8"/>
	<line class="st1" x1="467.2" y1="138.8" x2="468.7" y2="138.8"/>
	<line class="st1" x1="462.6" y1="138.8" x2="464.1" y2="138.8"/>
	<line class="st1" x1="458" y1="138.8" x2="459.5" y2="138.8"/>
	<line class="st1" x1="453.3" y1="138.8" x2="454.8" y2="138.8"/>
	<line class="st1" x1="448.7" y1="138.8" x2="450.2" y2="138.8"/>
	<line class="st1" x1="444.1" y1="138.8" x2="445.6" y2="138.8"/>
	<line class="st1" x1="439.4" y1="138.8" x2="440.9" y2="138.8"/>
	<line class="st1" x1="434.8" y1="138.8" x2="436.3" y2="138.8"/>
	<line class="st1" x1="430.2" y1="138.8" x2="431.7" y2="138.8"/>
	<line class="st1" x1="425.5" y1="138.8" x2="427" y2="138.8"/>
	<line class="st1" x1="420.9" y1="138.8" x2="422.4" y2="138.8"/>
	<line class="st1" x1="499.6" y1="138.8" x2="501.2" y2="138.8"/>
</g>
<g>
	<line class="st1" x1="248.3" y1="142.8" x2="249.8" y2="142.8"/>
	<line class="st1" x1="327" y1="142.8" x2="328.5" y2="142.8"/>
	<line class="st1" x1="322.4" y1="142.8" x2="323.9" y2="142.8"/>
	<line class="st1" x1="317.7" y1="142.8" x2="319.3" y2="142.8"/>
	<line class="st1" x1="313.1" y1="142.8" x2="314.6" y2="142.8"/>
	<line class="st1" x1="308.5" y1="142.8" x2="310" y2="142.8"/>
	<line class="st1" x1="303.9" y1="142.8" x2="305.4" y2="142.8"/>
	<line class="st1" x1="299.2" y1="142.8" x2="300.7" y2="142.8"/>
	<line class="st1" x1="294.6" y1="142.8" x2="296.1" y2="142.8"/>
	<line class="st1" x1="290" y1="142.8" x2="291.5" y2="142.8"/>
	<line class="st1" x1="285.3" y1="142.8" x2="286.8" y2="142.8"/>
	<line class="st1" x1="280.7" y1="142.8" x2="282.2" y2="142.8"/>
	<line class="st1" x1="276.1" y1="142.8" x2="277.6" y2="142.8"/>
	<line class="st1" x1="271.4" y1="142.8" x2="272.9" y2="142.8"/>
	<line class="st1" x1="266.8" y1="142.8" x2="268.3" y2="142.8"/>
	<line class="st1" x1="262.2" y1="142.8" x2="263.7" y2="142.8"/>
	<line class="st1" x1="257.5" y1="142.8" x2="259" y2="142.8"/>
	<line class="st1" x1="252.9" y1="142.8" x2="254.4" y2="142.8"/>
	<line class="st1" x1="331.6" y1="142.8" x2="333.2" y2="142.8"/>
</g>
<g>
	<line class="st1" x1="166.3" y1="142.8" x2="167.8" y2="142.8"/>
	<line class="st1" x1="245" y1="142.8" x2="246.5" y2="142.8"/>
	<line class="st1" x1="240.4" y1="142.8" x2="241.9" y2="142.8"/>
	<line class="st1" x1="235.7" y1="142.8" x2="237.3" y2="142.8"/>
	<line class="st1" x1="231.1" y1="142.8" x2="232.6" y2="142.8"/>
	<line class="st1" x1="226.5" y1="142.8" x2="228" y2="142.8"/>
	<line class="st1" x1="221.9" y1="142.8" x2="223.4" y2="142.8"/>
	<line class="st1" x1="217.2" y1="142.8" x2="218.7" y2="142.8"/>
	<line class="st1" x1="212.6" y1="142.8" x2="214.1" y2="142.8"/>
	<line class="st1" x1="208" y1="142.8" x2="209.5" y2="142.8"/>
	<line class="st1" x1="203.3" y1="142.8" x2="204.8" y2="142.8"/>
	<line class="st1" x1="198.7" y1="142.8" x2="200.2" y2="142.8"/>
	<line class="st1" x1="194.1" y1="142.8" x2="195.6" y2="142.8"/>
	<line class="st1" x1="189.4" y1="142.8" x2="190.9" y2="142.8"/>
	<line class="st1" x1="184.8" y1="142.8" x2="186.3" y2="142.8"/>
	<line class="st1" x1="180.2" y1="142.8" x2="181.7" y2="142.8"/>
	<line class="st1" x1="175.5" y1="142.8" x2="177" y2="142.8"/>
	<line class="st1" x1="170.9" y1="142.8" x2="172.4" y2="142.8"/>
	<line class="st1" x1="249.6" y1="142.8" x2="251.2" y2="142.8"/>
</g>
<g>
	<line class="st1" x1="85.3" y1="142.8" x2="86.8" y2="142.8"/>
	<line class="st1" x1="164" y1="142.8" x2="165.5" y2="142.8"/>
	<line class="st1" x1="159.4" y1="142.8" x2="160.9" y2="142.8"/>
	<line class="st1" x1="154.7" y1="142.8" x2="156.3" y2="142.8"/>
	<line class="st1" x1="150.1" y1="142.8" x2="151.6" y2="142.8"/>
	<line class="st1" x1="145.5" y1="142.8" x2="147" y2="142.8"/>
	<line class="st1" x1="140.9" y1="142.8" x2="142.4" y2="142.8"/>
	<line class="st1" x1="136.2" y1="142.8" x2="137.7" y2="142.8"/>
	<line class="st1" x1="131.6" y1="142.8" x2="133.1" y2="142.8"/>
	<line class="st1" x1="127" y1="142.8" x2="128.5" y2="142.8"/>
	<line class="st1" x1="122.3" y1="142.8" x2="123.8" y2="142.8"/>
	<line class="st1" x1="117.7" y1="142.8" x2="119.2" y2="142.8"/>
	<line class="st1" x1="113.1" y1="142.8" x2="114.6" y2="142.8"/>
	<line class="st1" x1="108.4" y1="142.8" x2="109.9" y2="142.8"/>
	<line class="st1" x1="103.8" y1="142.8" x2="105.3" y2="142.8"/>
	<line class="st1" x1="99.2" y1="142.8" x2="100.7" y2="142.8"/>
	<line class="st1" x1="94.5" y1="142.8" x2="96" y2="142.8"/>
	<line class="st1" x1="89.9" y1="142.8" x2="91.4" y2="142.8"/>
	<line class="st1" x1="168.6" y1="142.8" x2="170.2" y2="142.8"/>
</g>
<g class="st2">
	<rect x="320" y="194.9" class="st3" width="30" height="212"/>
	<polygon class="st3" points="335,180 320,195 350,195 	"/>
</g>
<g>
	<g>
		<path class="st4" d="M326.3,171c-0.6,0-1.1-0.1-1.6-0.3c-0.5-0.2-0.9-0.5-1.2-0.9c-0.3-0.4-0.4-0.9-0.4-1.5h1.2
			c0,0.6,0.2,1,0.6,1.3c0.4,0.3,0.9,0.4,1.5,0.4c0.7,0,1.2-0.2,1.6-0.6c0.4-0.4,0.6-0.9,0.6-1.5c0-1.2-0.8-1.8-2.3-1.8h-2.5l0.4-4.6
			h5.2v1.1h-4.3l0.2-0.4l-0.3,3.3l-0.1-0.1c0.2-0.1,0.5-0.1,0.8-0.1c0.3,0,0.6,0,0.8,0c1,0,1.8,0.2,2.4,0.7c0.6,0.5,0.9,1.1,0.9,2
			c0,0.6-0.1,1.2-0.4,1.6s-0.7,0.9-1.2,1.2C327.6,170.9,327,171,326.3,171z"/>
		<path class="st4" d="M334.9,171c-0.5,0-0.9-0.1-1.4-0.2s-0.8-0.3-1.2-0.6c-0.3-0.3-0.6-0.6-0.8-1c-0.2-0.4-0.3-0.8-0.3-1.3h1.2
			c0,0.4,0.1,0.8,0.3,1.1c0.2,0.3,0.5,0.5,0.9,0.7c0.4,0.2,0.8,0.2,1.2,0.2c0.7,0,1.2-0.2,1.6-0.5c0.4-0.3,0.6-0.8,0.6-1.3
			c0-0.3-0.1-0.6-0.2-0.9s-0.4-0.4-0.8-0.6s-0.8-0.2-1.4-0.2h-1.1v-0.9h0.7c0.7,0,1.3-0.1,1.7-0.4s0.6-0.7,0.6-1.2
			c0-0.5-0.2-0.8-0.5-1.1c-0.3-0.3-0.8-0.5-1.5-0.5c-0.5,0-0.9,0.1-1.3,0.3c-0.4,0.2-0.6,0.6-0.8,1.1h-1.2c0.1-0.6,0.3-1.1,0.6-1.4
			c0.3-0.4,0.7-0.6,1.1-0.8c0.5-0.2,1-0.2,1.5-0.2c0.6,0,1.2,0.1,1.7,0.3c0.5,0.2,0.9,0.5,1.2,0.9c0.3,0.4,0.4,0.8,0.4,1.3
			c0,0.5-0.1,0.9-0.4,1.3c-0.3,0.4-0.7,0.6-1.2,0.8c0.6,0.2,1.1,0.5,1.5,0.8s0.6,0.9,0.6,1.5c0,0.5-0.1,1-0.4,1.4
			c-0.3,0.4-0.7,0.7-1.2,1S335.7,171,334.9,171z"/>
		<path class="st4" d="M342.2,165.6c-0.3,0-0.6-0.1-0.9-0.2c-0.3-0.2-0.5-0.4-0.7-0.7s-0.3-0.7-0.3-1.2c0-0.5,0.1-0.9,0.3-1.2
			s0.4-0.6,0.7-0.7c0.3-0.2,0.6-0.2,0.9-0.2c0.3,0,0.7,0.1,1,0.2c0.3,0.2,0.5,0.4,0.7,0.7s0.3,0.7,0.3,1.2c0,0.5-0.1,0.9-0.3,1.2
			s-0.4,0.6-0.7,0.7C342.8,165.5,342.5,165.6,342.2,165.6z M341,170.9l6.3-9.4h1.2l-6.3,9.4H341z M342.2,164.8
			c0.3,0,0.5-0.1,0.7-0.3c0.2-0.2,0.3-0.6,0.3-1s-0.1-0.8-0.3-1c-0.2-0.2-0.4-0.3-0.7-0.3c-0.3,0-0.5,0.1-0.7,0.3
			c-0.2,0.2-0.3,0.6-0.3,1s0.1,0.8,0.3,1C341.6,164.7,341.9,164.8,342.2,164.8z M347.4,171c-0.3,0-0.6-0.1-0.9-0.2
			c-0.3-0.2-0.5-0.4-0.7-0.7c-0.2-0.3-0.3-0.7-0.3-1.2c0-0.5,0.1-0.9,0.3-1.2c0.2-0.3,0.4-0.6,0.7-0.7c0.3-0.2,0.6-0.2,0.9-0.2
			c0.3,0,0.7,0.1,1,0.2c0.3,0.2,0.5,0.4,0.7,0.7c0.2,0.3,0.3,0.7,0.3,1.2c0,0.5-0.1,0.9-0.3,1.2c-0.2,0.3-0.4,0.6-0.7,0.7
			C348.1,170.9,347.8,171,347.4,171z M347.4,170.2c0.3,0,0.5-0.1,0.7-0.3c0.2-0.2,0.3-0.6,0.3-1c0-0.5-0.1-0.8-0.3-1
			c-0.2-0.2-0.4-0.3-0.7-0.3c-0.3,0-0.5,0.1-0.7,0.3c-0.2,0.2-0.3,0.6-0.3,1c0,0.5,0.1,0.8,0.3,1
			C346.9,170.1,347.1,170.2,347.4,170.2z"/>
	</g>
</g>
<circle class="st4" cx="336" cy="143" r="4"/>
<g class="st5">
	<rect x="233" y="194.9" class="st3" width="30" height="212"/>
	<polygon class="st3" points="248,180 233,195 263,195 	"/>
</g>
<g>
	<g>
		<path class="st4" d="M238.7,171c-0.6,0-1.1-0.1-1.6-0.3c-0.5-0.2-0.9-0.5-1.2-0.9c-0.3-0.4-0.4-0.9-0.4-1.5h1.2
			c0,0.6,0.2,1,0.6,1.3c0.4,0.3,0.9,0.4,1.5,0.4c0.7,0,1.2-0.2,1.6-0.6c0.4-0.4,0.6-0.9,0.6-1.5c0-1.2-0.8-1.8-2.3-1.8H236l0.4-4.6
			h5.2v1.1h-4.3l0.2-0.4l-0.3,3.3l-0.1-0.1c0.2-0.1,0.5-0.1,0.8-0.1c0.3,0,0.6,0,0.8,0c1,0,1.8,0.2,2.4,0.7c0.6,0.5,0.9,1.1,0.9,2
			c0,0.6-0.1,1.2-0.4,1.6s-0.7,0.9-1.2,1.2C240,170.9,239.4,171,238.7,171z"/>
		<path class="st4" d="M247.4,171c-0.5,0-0.9-0.1-1.4-0.2s-0.8-0.3-1.2-0.6c-0.3-0.3-0.6-0.6-0.8-1c-0.2-0.4-0.3-0.8-0.3-1.3h1.2
			c0,0.4,0.1,0.8,0.3,1.1c0.2,0.3,0.5,0.5,0.9,0.7c0.4,0.2,0.8,0.2,1.2,0.2c0.7,0,1.2-0.2,1.6-0.5c0.4-0.3,0.6-0.8,0.6-1.3
			c0-0.3-0.1-0.6-0.2-0.9s-0.4-0.4-0.8-0.6s-0.8-0.2-1.4-0.2h-1.1v-0.9h0.7c0.7,0,1.3-0.1,1.7-0.4s0.6-0.7,0.6-1.2
			c0-0.5-0.2-0.8-0.5-1.1c-0.3-0.3-0.8-0.5-1.5-0.5c-0.5,0-0.9,0.1-1.3,0.3c-0.4,0.2-0.6,0.6-0.8,1.1H244c0.1-0.6,0.3-1.1,0.6-1.4
			c0.3-0.4,0.7-0.6,1.1-0.8c0.5-0.2,1-0.2,1.5-0.2c0.6,0,1.2,0.1,1.7,0.3c0.5,0.2,0.9,0.5,1.2,0.9c0.3,0.4,0.4,0.8,0.4,1.3
			c0,0.5-0.1,0.9-0.4,1.3c-0.3,0.4-0.7,0.6-1.2,0.8c0.6,0.2,1.1,0.5,1.5,0.8s0.6,0.9,0.6,1.5c0,0.5-0.1,1-0.4,1.4
			c-0.3,0.4-0.7,0.7-1.2,1S248.1,171,247.4,171z"/>
		<path class="st4" d="M254.6,165.6c-0.3,0-0.6-0.1-0.9-0.2c-0.3-0.2-0.5-0.4-0.7-0.7s-0.3-0.7-0.3-1.2c0-0.5,0.1-0.9,0.3-1.2
			s0.4-0.6,0.7-0.7c0.3-0.2,0.6-0.2,0.9-0.2c0.3,0,0.7,0.1,1,0.2c0.3,0.2,0.5,0.4,0.7,0.7c0.2,0.3,0.3,0.7,0.3,1.2
			c0,0.5-0.1,0.9-0.3,1.2c-0.2,0.3-0.4,0.6-0.7,0.7C255.3,165.5,255,165.6,254.6,165.6z M253.5,170.9l6.3-9.4h1.2l-6.3,9.4H253.5z
			 M254.6,164.8c0.3,0,0.5-0.1,0.7-0.3c0.2-0.2,0.3-0.6,0.3-1s-0.1-0.8-0.3-1c-0.2-0.2-0.4-0.3-0.7-0.3c-0.3,0-0.5,0.1-0.7,0.3
			c-0.2,0.2-0.3,0.6-0.3,1s0.1,0.8,0.3,1C254.1,164.7,254.3,164.8,254.6,164.8z M259.9,171c-0.3,0-0.6-0.1-0.9-0.2
			c-0.3-0.2-0.5-0.4-0.7-0.7c-0.2-0.3-0.3-0.7-0.3-1.2c0-0.5,0.1-0.9,0.3-1.2c0.2-0.3,0.4-0.6,0.7-0.7c0.3-0.2,0.6-0.2,0.9-0.2
			c0.3,0,0.7,0.1,1,0.2c0.3,0.2,0.5,0.4,0.7,0.7c0.2,0.3,0.3,0.7,0.3,1.2c0,0.5-0.1,0.9-0.3,1.2c-0.2,0.3-0.4,0.6-0.7,0.7
			C260.5,170.9,260.2,171,259.9,171z M259.9,170.2c0.3,0,0.5-0.1,0.7-0.3s0.3-0.6,0.3-1c0-0.5-0.1-0.8-0.3-1
			c-0.2-0.2-0.4-0.3-0.7-0.3c-0.3,0-0.5,0.1-0.7,0.3c-0.2,0.2-0.3,0.6-0.3,1c0,0.5,0.1,0.8,0.3,1
			C259.3,170.1,259.6,170.2,259.9,170.2z"/>
	</g>
</g>
<circle class="st4" cx="248.4" cy="143" r="4"/>
<g class="st6">
	<rect x="155" y="194.9" class="st3" width="30" height="212"/>
	<polygon class="st3" points="170,180 155,195 185,195 	"/>
</g>
<g>
	<g>
		<path class="st4" d="M159.7,171c-0.6,0-1.1-0.1-1.6-0.3c-0.5-0.2-0.9-0.5-1.2-0.9c-0.3-0.4-0.4-0.9-0.4-1.5h1.2
			c0,0.6,0.2,1,0.6,1.3c0.4,0.3,0.9,0.4,1.5,0.4c0.7,0,1.2-0.2,1.6-0.6c0.4-0.4,0.6-0.9,0.6-1.5c0-1.2-0.8-1.8-2.3-1.8H157l0.4-4.6
			h5.2v1.1h-4.3l0.2-0.4l-0.3,3.3l-0.1-0.1c0.2-0.1,0.5-0.1,0.8-0.1c0.3,0,0.6,0,0.8,0c1,0,1.8,0.2,2.4,0.7c0.6,0.5,0.9,1.1,0.9,2
			c0,0.6-0.1,1.2-0.4,1.6s-0.7,0.9-1.2,1.2C161,170.9,160.4,171,159.7,171z"/>
		<path class="st4" d="M168.4,171c-0.5,0-0.9-0.1-1.4-0.2s-0.8-0.3-1.2-0.6c-0.3-0.3-0.6-0.6-0.8-1c-0.2-0.4-0.3-0.8-0.3-1.3h1.2
			c0,0.4,0.1,0.8,0.3,1.1c0.2,0.3,0.5,0.5,0.9,0.7c0.4,0.2,0.8,0.2,1.2,0.2c0.7,0,1.2-0.2,1.6-0.5c0.4-0.3,0.6-0.8,0.6-1.3
			c0-0.3-0.1-0.6-0.2-0.9s-0.4-0.4-0.8-0.6s-0.8-0.2-1.4-0.2h-1.1v-0.9h0.7c0.7,0,1.3-0.1,1.7-0.4s0.6-0.7,0.6-1.2
			c0-0.5-0.2-0.8-0.5-1.1c-0.3-0.3-0.8-0.5-1.5-0.5c-0.5,0-0.9,0.1-1.3,0.3c-0.4,0.2-0.6,0.6-0.8,1.1H165c0.1-0.6,0.3-1.1,0.6-1.4
			c0.3-0.4,0.7-0.6,1.1-0.8c0.5-0.2,1-0.2,1.5-0.2c0.6,0,1.2,0.1,1.7,0.3c0.5,0.2,0.9,0.5,1.2,0.9c0.3,0.4,0.4,0.8,0.4,1.3
			c0,0.5-0.1,0.9-0.4,1.3c-0.3,0.4-0.7,0.6-1.2,0.8c0.6,0.2,1.1,0.5,1.5,0.8s0.6,0.9,0.6,1.5c0,0.5-0.1,1-0.4,1.4
			c-0.3,0.4-0.7,0.7-1.2,1S169.1,171,168.4,171z"/>
		<path class="st4" d="M175.6,165.6c-0.3,0-0.6-0.1-0.9-0.2c-0.3-0.2-0.5-0.4-0.7-0.7s-0.3-0.7-0.3-1.2c0-0.5,0.1-0.9,0.3-1.2
			s0.4-0.6,0.7-0.7c0.3-0.2,0.6-0.2,0.9-0.2c0.3,0,0.7,0.1,1,0.2c0.3,0.2,0.5,0.4,0.7,0.7c0.2,0.3,0.3,0.7,0.3,1.2
			c0,0.5-0.1,0.9-0.3,1.2c-0.2,0.3-0.4,0.6-0.7,0.7C176.3,165.5,176,165.6,175.6,165.6z M174.5,170.9l6.3-9.4h1.2l-6.3,9.4H174.5z
			 M175.6,164.8c0.3,0,0.5-0.1,0.7-0.3c0.2-0.2,0.3-0.6,0.3-1s-0.1-0.8-0.3-1c-0.2-0.2-0.4-0.3-0.7-0.3c-0.3,0-0.5,0.1-0.7,0.3
			c-0.2,0.2-0.3,0.6-0.3,1s0.1,0.8,0.3,1C175.1,164.7,175.3,164.8,175.6,164.8z M180.9,171c-0.3,0-0.6-0.1-0.9-0.2
			c-0.3-0.2-0.5-0.4-0.7-0.7c-0.2-0.3-0.3-0.7-0.3-1.2c0-0.5,0.1-0.9,0.3-1.2c0.2-0.3,0.4-0.6,0.7-0.7c0.3-0.2,0.6-0.2,0.9-0.2
			c0.3,0,0.7,0.1,1,0.2c0.3,0.2,0.5,0.4,0.7,0.7c0.2,0.3,0.3,0.7,0.3,1.2c0,0.5-0.1,0.9-0.3,1.2c-0.2,0.3-0.4,0.6-0.7,0.7
			C181.5,170.9,181.2,171,180.9,171z M180.9,170.2c0.3,0,0.5-0.1,0.7-0.3s0.3-0.6,0.3-1c0-0.5-0.1-0.8-0.3-1
			c-0.2-0.2-0.4-0.3-0.7-0.3c-0.3,0-0.5,0.1-0.7,0.3c-0.2,0.2-0.3,0.6-0.3,1c0,0.5,0.1,0.8,0.3,1
			C180.3,170.1,180.6,170.2,180.9,170.2z"/>
	</g>
</g>
<circle class="st4" cx="169.4" cy="143" r="4"/>
<g class="st7">
	<rect x="71" y="194.9" class="st3" width="30" height="212"/>
	<polygon class="st3" points="86,180.2 71,195.2 101,195.2 	"/>
</g>
<g>
	<g>
		<path class="st4" d="M76.7,171.3c-0.6,0-1.1-0.1-1.6-0.3c-0.5-0.2-0.9-0.5-1.2-0.9c-0.3-0.4-0.4-0.9-0.4-1.5h1.2
			c0,0.6,0.2,1,0.6,1.3c0.4,0.3,0.9,0.4,1.5,0.4c0.7,0,1.2-0.2,1.6-0.6c0.4-0.4,0.6-0.9,0.6-1.5c0-1.2-0.8-1.8-2.3-1.8H74l0.4-4.6
			h5.2v1.1h-4.3l0.2-0.4l-0.3,3.3l-0.1-0.1c0.2-0.1,0.5-0.1,0.8-0.1c0.3,0,0.6,0,0.8,0c1,0,1.8,0.2,2.4,0.7c0.6,0.5,0.9,1.1,0.9,2
			c0,0.6-0.1,1.2-0.4,1.6c-0.3,0.5-0.7,0.9-1.2,1.2S77.4,171.3,76.7,171.3z"/>
		<path class="st4" d="M85.4,171.3c-0.5,0-0.9-0.1-1.4-0.2c-0.4-0.1-0.8-0.3-1.2-0.6c-0.3-0.3-0.6-0.6-0.8-1
			c-0.2-0.4-0.3-0.8-0.3-1.3h1.2c0,0.4,0.1,0.8,0.3,1.1c0.2,0.3,0.5,0.5,0.9,0.7c0.4,0.1,0.8,0.2,1.2,0.2c0.7,0,1.2-0.2,1.6-0.5
			c0.4-0.3,0.6-0.8,0.6-1.3c0-0.3-0.1-0.6-0.2-0.9s-0.4-0.4-0.8-0.6s-0.8-0.2-1.4-0.2h-1.1v-0.9h0.7c0.7,0,1.3-0.1,1.7-0.4
			s0.6-0.7,0.6-1.2c0-0.5-0.2-0.8-0.5-1.1c-0.3-0.3-0.8-0.5-1.5-0.5c-0.5,0-0.9,0.1-1.3,0.3c-0.4,0.2-0.6,0.6-0.8,1.1H82
			c0.1-0.6,0.3-1.1,0.6-1.4c0.3-0.4,0.7-0.6,1.1-0.8c0.5-0.2,1-0.2,1.5-0.2c0.6,0,1.2,0.1,1.7,0.3c0.5,0.2,0.9,0.5,1.2,0.9
			c0.3,0.4,0.4,0.8,0.4,1.3c0,0.5-0.1,0.9-0.4,1.3c-0.3,0.4-0.7,0.6-1.2,0.8c0.6,0.2,1.1,0.5,1.5,0.8c0.4,0.4,0.6,0.9,0.6,1.5
			c0,0.5-0.1,1-0.4,1.4c-0.3,0.4-0.7,0.7-1.2,1S86.1,171.3,85.4,171.3z"/>
		<path class="st4" d="M92.6,165.8c-0.3,0-0.6-0.1-0.9-0.2c-0.3-0.2-0.5-0.4-0.7-0.7s-0.3-0.7-0.3-1.2c0-0.5,0.1-0.9,0.3-1.2
			s0.4-0.6,0.7-0.7c0.3-0.2,0.6-0.2,0.9-0.2c0.3,0,0.7,0.1,1,0.2c0.3,0.2,0.5,0.4,0.7,0.7c0.2,0.3,0.3,0.7,0.3,1.2
			c0,0.5-0.1,0.9-0.3,1.2c-0.2,0.3-0.4,0.6-0.7,0.7C93.3,165.8,93,165.8,92.6,165.8z M91.5,171.1l6.3-9.4H99l-6.3,9.4H91.5z
			 M92.6,165c0.3,0,0.5-0.1,0.7-0.3c0.2-0.2,0.3-0.6,0.3-1s-0.1-0.8-0.3-1c-0.2-0.2-0.4-0.3-0.7-0.3c-0.3,0-0.5,0.1-0.7,0.3
			c-0.2,0.2-0.3,0.6-0.3,1s0.1,0.8,0.3,1C92.1,164.9,92.3,165,92.6,165z M97.9,171.3c-0.3,0-0.6-0.1-0.9-0.2
			c-0.3-0.2-0.5-0.4-0.7-0.7c-0.2-0.3-0.3-0.7-0.3-1.2c0-0.5,0.1-0.9,0.3-1.2s0.4-0.6,0.7-0.7c0.3-0.2,0.6-0.2,0.9-0.2
			c0.3,0,0.7,0.1,1,0.2c0.3,0.2,0.5,0.4,0.7,0.7c0.2,0.3,0.3,0.7,0.3,1.2c0,0.5-0.1,0.9-0.3,1.2c-0.2,0.3-0.4,0.6-0.7,0.7
			C98.5,171.2,98.2,171.3,97.9,171.3z M97.9,170.5c0.3,0,0.5-0.1,0.7-0.3s0.3-0.6,0.3-1c0-0.5-0.1-0.8-0.3-1s-0.4-0.3-0.7-0.3
			c-0.3,0-0.5,0.1-0.7,0.3c-0.2,0.2-0.3,0.6-0.3,1c0,0.5,0.1,0.8,0.3,1C97.3,170.4,97.6,170.5,97.9,170.5z"/>
	</g>
</g>
<circle class="st4" cx="86.4" cy="143.2" r="4"/>
<g class="st8">
	<rect x="402" y="190.9" class="st3" width="30" height="216"/>
	<polygon class="st3" points="417,176 402,191 432,191 	"/>
</g>
<g>
	<g>
		<path class="st4" d="M407.7,167c-0.6,0-1.1-0.1-1.6-0.3s-0.9-0.5-1.2-0.9c-0.3-0.4-0.4-0.9-0.4-1.5h1.2c0,0.6,0.2,1,0.6,1.3
			s0.9,0.4,1.5,0.4c0.7,0,1.2-0.2,1.6-0.6c0.4-0.4,0.6-0.9,0.6-1.5c0-1.2-0.8-1.8-2.3-1.8H405l0.4-4.6h5.2v1.1h-4.3l0.2-0.4
			l-0.3,3.3l-0.1-0.1c0.2-0.1,0.5-0.1,0.8-0.1s0.6,0,0.8,0c1,0,1.8,0.2,2.4,0.7c0.6,0.5,0.9,1.1,0.9,2c0,0.6-0.1,1.2-0.4,1.6
			c-0.3,0.5-0.7,0.9-1.2,1.2C409,166.9,408.4,167,407.7,167z"/>
		<path class="st4" d="M417.3,157.3h1.1v6.3h1.6v1h-1.6v2.3h-1.2v-2.3h-4.9v-0.9L417.3,157.3z M417.3,159.1l-3.5,4.5h3.5V159.1z"/>
		<path class="st4" d="M423.1,161.6c-0.3,0-0.6-0.1-0.9-0.2c-0.3-0.2-0.5-0.4-0.7-0.7c-0.2-0.3-0.3-0.7-0.3-1.2
			c0-0.5,0.1-0.9,0.3-1.2c0.2-0.3,0.4-0.6,0.7-0.7c0.3-0.2,0.6-0.2,0.9-0.2c0.3,0,0.7,0.1,1,0.2c0.3,0.2,0.5,0.4,0.7,0.7
			c0.2,0.3,0.3,0.7,0.3,1.2c0,0.5-0.1,0.9-0.3,1.2c-0.2,0.3-0.4,0.6-0.7,0.7C423.8,161.5,423.5,161.6,423.1,161.6z M422,166.9
			l6.3-9.4h1.2l-6.3,9.4H422z M423.1,160.8c0.3,0,0.5-0.1,0.7-0.3c0.2-0.2,0.3-0.6,0.3-1s-0.1-0.8-0.3-1c-0.2-0.2-0.4-0.3-0.7-0.3
			c-0.3,0-0.5,0.1-0.7,0.3s-0.3,0.6-0.3,1s0.1,0.8,0.3,1S422.9,160.8,423.1,160.8z M428.4,167c-0.3,0-0.6-0.1-0.9-0.2
			c-0.3-0.2-0.5-0.4-0.7-0.7c-0.2-0.3-0.3-0.7-0.3-1.2c0-0.5,0.1-0.9,0.3-1.2c0.2-0.3,0.4-0.6,0.7-0.7c0.3-0.2,0.6-0.2,0.9-0.2
			c0.3,0,0.7,0.1,1,0.2c0.3,0.2,0.5,0.4,0.7,0.7c0.2,0.3,0.3,0.7,0.3,1.2c0,0.5-0.1,0.9-0.3,1.2c-0.2,0.3-0.4,0.6-0.7,0.7
			C429.1,166.9,428.7,167,428.4,167z M428.4,166.2c0.3,0,0.5-0.1,0.7-0.3s0.3-0.6,0.3-1c0-0.5-0.1-0.8-0.3-1
			c-0.2-0.2-0.4-0.3-0.7-0.3c-0.3,0-0.5,0.1-0.7,0.3c-0.2,0.2-0.3,0.6-0.3,1c0,0.5,0.1,0.8,0.3,1S428.1,166.2,428.4,166.2z"/>
	</g>
</g>
<circle class="st4" cx="417.4" cy="139" r="4"/>
<g>
	<rect x="570" y="190.9" class="st3" width="30" height="216"/>
	<polygon class="st3" points="585,176 570,191 600,191 	"/>
</g>
<g>
	<g>
		<path class="st4" d="M574.9,167c-0.6,0-1.1-0.1-1.6-0.3s-0.9-0.5-1.2-0.9c-0.3-0.4-0.4-0.9-0.4-1.5h1.2c0,0.6,0.2,1,0.6,1.3
			s0.9,0.4,1.5,0.4c0.7,0,1.2-0.2,1.6-0.6c0.4-0.4,0.6-0.9,0.6-1.5c0-1.2-0.8-1.8-2.3-1.8h-2.5l0.4-4.6h5.2v1.1h-4.3l0.2-0.4
			l-0.3,3.3l-0.1-0.1c0.2-0.1,0.5-0.1,0.8-0.1c0.3,0,0.6,0,0.8,0c1,0,1.8,0.2,2.4,0.7c0.6,0.5,0.9,1.1,0.9,2c0,0.6-0.1,1.2-0.4,1.6
			c-0.3,0.5-0.7,0.9-1.2,1.2S575.6,167,574.9,167z"/>
		<path class="st4" d="M584.5,157.3h1.1v6.3h1.6v1h-1.6v2.3h-1.2v-2.3h-4.9v-0.9L584.5,157.3z M584.4,159.1l-3.5,4.5h3.5V159.1z"/>
		<path class="st4" d="M590.3,161.6c-0.3,0-0.6-0.1-0.9-0.2c-0.3-0.2-0.5-0.4-0.7-0.7s-0.3-0.7-0.3-1.2c0-0.5,0.1-0.9,0.3-1.2
			s0.4-0.6,0.7-0.7c0.3-0.2,0.6-0.2,0.9-0.2c0.3,0,0.7,0.1,1,0.2c0.3,0.2,0.5,0.4,0.7,0.7c0.2,0.3,0.3,0.7,0.3,1.2
			c0,0.5-0.1,0.9-0.3,1.2c-0.2,0.3-0.4,0.6-0.7,0.7C591,161.5,590.7,161.6,590.3,161.6z M589.2,166.9l6.3-9.4h1.2l-6.3,9.4H589.2z
			 M590.3,160.8c0.3,0,0.5-0.1,0.7-0.3c0.2-0.2,0.3-0.6,0.3-1s-0.1-0.8-0.3-1c-0.2-0.2-0.4-0.3-0.7-0.3c-0.3,0-0.5,0.1-0.7,0.3
			s-0.3,0.6-0.3,1s0.1,0.8,0.3,1C589.8,160.7,590,160.8,590.3,160.8z M595.6,167c-0.3,0-0.6-0.1-0.9-0.2c-0.3-0.2-0.5-0.4-0.7-0.7
			c-0.2-0.3-0.3-0.7-0.3-1.2c0-0.5,0.1-0.9,0.3-1.2s0.4-0.6,0.7-0.7c0.3-0.2,0.6-0.2,0.9-0.2c0.3,0,0.7,0.1,1,0.2
			c0.3,0.2,0.5,0.4,0.7,0.7c0.2,0.3,0.3,0.7,0.3,1.2c0,0.5-0.1,0.9-0.3,1.2c-0.2,0.3-0.4,0.6-0.7,0.7
			C596.3,166.9,595.9,167,595.6,167z M595.6,166.2c0.3,0,0.5-0.1,0.7-0.3c0.2-0.2,0.3-0.6,0.3-1c0-0.5-0.1-0.8-0.3-1
			c-0.2-0.2-0.4-0.3-0.7-0.3c-0.3,0-0.5,0.1-0.7,0.3s-0.3,0.6-0.3,1c0,0.5,0.1,0.8,0.3,1S595.3,166.2,595.6,166.2z"/>
	</g>
</g>
<circle class="st4" cx="584.6" cy="139" r="4"/>
<g class="st9">
	<rect x="487" y="190.9" class="st3" width="30" height="216"/>
	<polygon class="st3" points="502,176 487,191 517,191 	"/>
</g>
<g>
	<g>
		<path class="st4" d="M489.7,167c-0.6,0-1.1-0.1-1.6-0.3s-0.9-0.5-1.2-0.9c-0.3-0.4-0.4-0.9-0.4-1.5h1.2c0,0.6,0.2,1,0.6,1.3
			s0.9,0.4,1.5,0.4c0.7,0,1.2-0.2,1.6-0.6c0.4-0.4,0.6-0.9,0.6-1.5c0-1.2-0.8-1.8-2.3-1.8H487l0.4-4.6h5.2v1.1h-4.3l0.2-0.4
			l-0.3,3.3l-0.1-0.1c0.2-0.1,0.5-0.1,0.8-0.1s0.6,0,0.8,0c1,0,1.8,0.2,2.4,0.7c0.6,0.5,0.9,1.1,0.9,2c0,0.6-0.1,1.2-0.4,1.6
			c-0.3,0.5-0.7,0.9-1.2,1.2C491,166.9,490.4,167,489.7,167z"/>
		<path class="st4" d="M499.3,157.3h1.1v6.3h1.6v1h-1.6v2.3h-1.2v-2.3h-4.9v-0.9L499.3,157.3z M499.3,159.1l-3.5,4.5h3.5V159.1z"/>
		<path class="st4" d="M505.1,161.6c-0.3,0-0.6-0.1-0.9-0.2c-0.3-0.2-0.5-0.4-0.7-0.7c-0.2-0.3-0.3-0.7-0.3-1.2
			c0-0.5,0.1-0.9,0.3-1.2c0.2-0.3,0.4-0.6,0.7-0.7c0.3-0.2,0.6-0.2,0.9-0.2c0.3,0,0.7,0.1,1,0.2c0.3,0.2,0.5,0.4,0.7,0.7
			c0.2,0.3,0.3,0.7,0.3,1.2c0,0.5-0.1,0.9-0.3,1.2c-0.2,0.3-0.4,0.6-0.7,0.7C505.8,161.5,505.5,161.6,505.1,161.6z M504,166.9
			l6.3-9.4h1.2l-6.3,9.4H504z M505.1,160.8c0.3,0,0.5-0.1,0.7-0.3c0.2-0.2,0.3-0.6,0.3-1s-0.1-0.8-0.3-1c-0.2-0.2-0.4-0.3-0.7-0.3
			c-0.3,0-0.5,0.1-0.7,0.3s-0.3,0.6-0.3,1s0.1,0.8,0.3,1S504.9,160.8,505.1,160.8z M510.4,167c-0.3,0-0.6-0.1-0.9-0.2
			c-0.3-0.2-0.5-0.4-0.7-0.7c-0.2-0.3-0.3-0.7-0.3-1.2c0-0.5,0.1-0.9,0.3-1.2c0.2-0.3,0.4-0.6,0.7-0.7c0.3-0.2,0.6-0.2,0.9-0.2
			c0.3,0,0.7,0.1,1,0.2c0.3,0.2,0.5,0.4,0.7,0.7c0.2,0.3,0.3,0.7,0.3,1.2c0,0.5-0.1,0.9-0.3,1.2c-0.2,0.3-0.4,0.6-0.7,0.7
			C511.1,166.9,510.7,167,510.4,167z M510.4,166.2c0.3,0,0.5-0.1,0.7-0.3s0.3-0.6,0.3-1c0-0.5-0.1-0.8-0.3-1
			c-0.2-0.2-0.4-0.3-0.7-0.3c-0.3,0-0.5,0.1-0.7,0.3c-0.2,0.2-0.3,0.6-0.3,1c0,0.5,0.1,0.8,0.3,1S510.1,166.2,510.4,166.2z"/>
	</g>
</g>
<circle class="st4" cx="499.4" cy="139" r="4"/>
<g>
	<g>
		<path class="st4" d="M324.5,426.3v-1.2c0-0.5,0.1-0.9,0.2-1.2c0.2-0.3,0.4-0.6,0.6-0.8c0.3-0.2,0.6-0.4,1-0.5l1.6-0.6
			c0.4-0.2,0.7-0.4,0.9-0.6s0.3-0.6,0.3-1c0-0.4-0.1-0.8-0.4-1c-0.3-0.3-0.7-0.4-1.2-0.4c-0.5,0-0.9,0.1-1.3,0.3
			c-0.3,0.2-0.5,0.5-0.6,1h-1.1c0-0.5,0.2-0.9,0.4-1.2c0.2-0.3,0.6-0.6,1-0.8c0.4-0.2,0.9-0.3,1.5-0.3c0.5,0,1,0.1,1.4,0.3
			c0.4,0.2,0.7,0.5,1,0.8c0.2,0.4,0.4,0.8,0.4,1.2c0,0.4-0.1,0.8-0.2,1.1c-0.2,0.3-0.4,0.6-0.7,0.8s-0.6,0.4-1,0.6l-1.7,0.7
			c-0.4,0.2-0.7,0.4-0.9,0.6c-0.2,0.2-0.3,0.5-0.3,0.9v0.4h4.7v0.9H324.5z"/>
		<path class="st4" d="M335,426.4c-0.6,0-1.2-0.2-1.7-0.5c-0.5-0.3-0.9-0.8-1.1-1.4c-0.3-0.6-0.4-1.4-0.4-2.4s0.1-1.7,0.4-2.4
			c0.3-0.6,0.6-1.1,1.1-1.4c0.5-0.3,1-0.5,1.7-0.5c0.6,0,1.2,0.2,1.7,0.5c0.5,0.3,0.9,0.8,1.1,1.4s0.4,1.4,0.4,2.4s-0.1,1.7-0.4,2.4
			c-0.3,0.6-0.6,1.1-1.1,1.4C336.2,426.3,335.7,426.4,335,426.4z M335,425.5c0.7,0,1.2-0.3,1.6-0.9c0.4-0.6,0.5-1.4,0.5-2.4
			s-0.2-1.9-0.5-2.4c-0.4-0.6-0.9-0.9-1.6-0.9c-0.7,0-1.2,0.3-1.6,0.9c-0.4,0.6-0.6,1.4-0.6,2.4s0.2,1.9,0.6,2.4
			C333.8,425.2,334.3,425.5,335,425.5z"/>
		<path class="st4" d="M341.1,418.1h0.8v8.2h-1v-7c-0.2,0.1-0.4,0.3-0.7,0.3c-0.2,0.1-0.5,0.1-0.7,0.1v-1c0.3,0,0.5-0.1,0.8-0.2
			C340.6,418.4,340.8,418.3,341.1,418.1z"/>
		<path class="st4" d="M344,426.3l3.9-7.2h-4.4v-1h5.6v0.9l-3.8,7.2H344z"/>
	</g>
</g>
<g>
	<g>
		<path class="st4" d="M236.9,426.3v-1.2c0-0.5,0.1-0.9,0.2-1.2c0.2-0.3,0.4-0.6,0.6-0.8c0.3-0.2,0.6-0.4,1-0.5l1.6-0.6
			c0.4-0.2,0.7-0.4,0.9-0.6s0.3-0.6,0.3-1c0-0.4-0.1-0.8-0.4-1c-0.3-0.3-0.7-0.4-1.2-0.4c-0.5,0-0.9,0.1-1.3,0.3
			c-0.3,0.2-0.5,0.5-0.6,1h-1.1c0-0.5,0.2-0.9,0.4-1.2c0.2-0.3,0.6-0.6,1-0.8c0.4-0.2,0.9-0.3,1.5-0.3c0.5,0,1,0.1,1.4,0.3
			c0.4,0.2,0.7,0.5,1,0.8c0.2,0.4,0.4,0.8,0.4,1.2c0,0.4-0.1,0.8-0.2,1.1c-0.2,0.3-0.4,0.6-0.7,0.8s-0.6,0.4-1,0.6l-1.7,0.7
			c-0.4,0.2-0.7,0.4-0.9,0.6c-0.2,0.2-0.3,0.5-0.3,0.9v0.4h4.7v0.9H236.9z"/>
		<path class="st4" d="M247.5,426.4c-0.6,0-1.2-0.2-1.7-0.5c-0.5-0.3-0.9-0.8-1.1-1.4c-0.3-0.6-0.4-1.4-0.4-2.4s0.1-1.7,0.4-2.4
			c0.3-0.6,0.6-1.1,1.1-1.4c0.5-0.3,1-0.5,1.7-0.5c0.6,0,1.2,0.2,1.7,0.5c0.5,0.3,0.9,0.8,1.1,1.4s0.4,1.4,0.4,2.4s-0.1,1.7-0.4,2.4
			c-0.3,0.6-0.6,1.1-1.1,1.4C248.7,426.3,248.1,426.4,247.5,426.4z M247.5,425.5c0.7,0,1.2-0.3,1.6-0.9c0.4-0.6,0.5-1.4,0.5-2.4
			s-0.2-1.9-0.5-2.4c-0.4-0.6-0.9-0.9-1.6-0.9c-0.7,0-1.2,0.3-1.6,0.9c-0.4,0.6-0.6,1.4-0.6,2.4s0.2,1.9,0.6,2.4
			C246.3,425.2,246.8,425.5,247.5,425.5z"/>
		<path class="st4" d="M253.5,418.1h0.8v8.2h-1v-7c-0.2,0.1-0.4,0.3-0.7,0.3c-0.2,0.1-0.5,0.1-0.7,0.1v-1c0.3,0,0.5-0.1,0.8-0.2
			C253,418.4,253.3,418.3,253.5,418.1z"/>
		<path class="st4" d="M259.6,426.4c-0.7,0-1.2-0.2-1.7-0.5c-0.5-0.4-0.9-0.8-1.1-1.5c-0.3-0.6-0.4-1.3-0.4-2.1
			c0-0.9,0.1-1.7,0.4-2.3c0.3-0.7,0.7-1.2,1.2-1.5c0.5-0.3,1.1-0.5,1.8-0.5c0.5,0,0.9,0.1,1.3,0.3c0.4,0.2,0.7,0.4,0.9,0.8
			c0.2,0.3,0.4,0.7,0.4,1.2h-1.1c-0.1-0.4-0.2-0.7-0.4-0.9c-0.2-0.2-0.6-0.3-1-0.3c-0.7,0-1.3,0.3-1.8,1c-0.4,0.6-0.6,1.5-0.6,2.6
			c0,0.2,0,0.3,0,0.6c0,0.2,0,0.4,0.1,0.6c0-0.6,0.2-1,0.4-1.4c0.2-0.3,0.5-0.6,0.9-0.7s0.7-0.2,1.1-0.2c0.5,0,0.9,0.1,1.3,0.3
			s0.7,0.5,0.9,0.9c0.2,0.4,0.3,0.8,0.3,1.3c0,0.5-0.1,0.9-0.4,1.3c-0.2,0.4-0.6,0.7-1,0.9S260.1,426.4,259.6,426.4z M259.6,425.5
			c0.5,0,0.9-0.1,1.2-0.4c0.3-0.3,0.5-0.7,0.5-1.2c0-0.5-0.2-0.9-0.5-1.2c-0.3-0.3-0.7-0.4-1.2-0.4c-0.3,0-0.6,0.1-0.9,0.2
			s-0.5,0.3-0.6,0.6c-0.1,0.2-0.2,0.5-0.2,0.8c0,0.5,0.2,0.9,0.5,1.2C258.7,425.3,259.1,425.5,259.6,425.5z"/>
	</g>
</g>
<g>
	<g>
		<path class="st4" d="M157.9,426.3v-1.2c0-0.5,0.1-0.9,0.2-1.2c0.2-0.3,0.4-0.6,0.6-0.8c0.3-0.2,0.6-0.4,1-0.5l1.6-0.6
			c0.4-0.2,0.7-0.4,0.9-0.6s0.3-0.6,0.3-1c0-0.4-0.1-0.8-0.4-1c-0.3-0.3-0.7-0.4-1.2-0.4c-0.5,0-0.9,0.1-1.3,0.3
			c-0.3,0.2-0.5,0.5-0.6,1h-1.1c0-0.5,0.2-0.9,0.4-1.2c0.2-0.3,0.6-0.6,1-0.8c0.4-0.2,0.9-0.3,1.5-0.3c0.5,0,1,0.1,1.4,0.3
			c0.4,0.2,0.7,0.5,1,0.8c0.2,0.4,0.4,0.8,0.4,1.2c0,0.4-0.1,0.8-0.2,1.1c-0.2,0.3-0.4,0.6-0.7,0.8s-0.6,0.4-1,0.6l-1.7,0.7
			c-0.4,0.2-0.7,0.4-0.9,0.6c-0.2,0.2-0.3,0.5-0.3,0.9v0.4h4.7v0.9H157.9z"/>
		<path class="st4" d="M168.5,426.4c-0.6,0-1.2-0.2-1.7-0.5c-0.5-0.3-0.9-0.8-1.1-1.4c-0.3-0.6-0.4-1.4-0.4-2.4s0.1-1.7,0.4-2.4
			c0.3-0.6,0.6-1.1,1.1-1.4c0.5-0.3,1-0.5,1.7-0.5c0.6,0,1.2,0.2,1.7,0.5c0.5,0.3,0.9,0.8,1.1,1.4s0.4,1.4,0.4,2.4s-0.1,1.7-0.4,2.4
			c-0.3,0.6-0.6,1.1-1.1,1.4C169.7,426.3,169.1,426.4,168.5,426.4z M168.5,425.5c0.7,0,1.2-0.3,1.6-0.9c0.4-0.6,0.5-1.4,0.5-2.4
			s-0.2-1.9-0.5-2.4c-0.4-0.6-0.9-0.9-1.6-0.9c-0.7,0-1.2,0.3-1.6,0.9c-0.4,0.6-0.6,1.4-0.6,2.4s0.2,1.9,0.6,2.4
			C167.3,425.2,167.8,425.5,168.5,425.5z"/>
		<path class="st4" d="M174.5,418.1h0.8v8.2h-1v-7c-0.2,0.1-0.4,0.3-0.7,0.3c-0.2,0.1-0.5,0.1-0.7,0.1v-1c0.3,0,0.5-0.1,0.8-0.2
			C174,418.4,174.3,418.3,174.5,418.1z"/>
		<path class="st4" d="M180.3,426.4c-0.5,0-1-0.1-1.4-0.3c-0.4-0.2-0.8-0.5-1-0.8c-0.3-0.4-0.4-0.8-0.4-1.3h1c0,0.5,0.2,0.9,0.5,1.1
			c0.3,0.3,0.8,0.4,1.3,0.4c0.6,0,1-0.2,1.4-0.5c0.3-0.4,0.5-0.8,0.5-1.3c0-1-0.7-1.6-2-1.6H178l0.4-4h4.5v0.9h-3.7l0.2-0.4
			l-0.3,2.8l-0.1-0.1c0.2,0,0.4-0.1,0.7-0.1s0.5,0,0.7,0c0.9,0,1.6,0.2,2.1,0.6s0.8,1,0.8,1.8c0,0.5-0.1,1-0.4,1.4
			c-0.2,0.4-0.6,0.8-1,1C181.4,426.3,180.9,426.4,180.3,426.4z"/>
	</g>
</g>
<g>
	<g>
		<path class="st4" d="M74.9,426.3v-1.2c0-0.5,0.1-0.9,0.2-1.2c0.2-0.3,0.4-0.6,0.6-0.8c0.3-0.2,0.6-0.4,1-0.5l1.6-0.6
			c0.4-0.2,0.7-0.4,0.9-0.6s0.3-0.6,0.3-1c0-0.4-0.1-0.8-0.4-1c-0.3-0.3-0.7-0.4-1.2-0.4c-0.5,0-0.9,0.1-1.3,0.3
			c-0.3,0.2-0.5,0.5-0.6,1h-1.1c0-0.5,0.2-0.9,0.4-1.2c0.2-0.3,0.6-0.6,1-0.8c0.4-0.2,0.9-0.3,1.5-0.3c0.5,0,1,0.1,1.4,0.3
			c0.4,0.2,0.7,0.5,1,0.8c0.2,0.4,0.4,0.8,0.4,1.2c0,0.4-0.1,0.8-0.2,1.1c-0.2,0.3-0.4,0.6-0.7,0.8s-0.6,0.4-1,0.6l-1.7,0.7
			c-0.4,0.2-0.7,0.4-0.9,0.6c-0.2,0.2-0.3,0.5-0.3,0.9v0.4h4.7v0.9H74.9z"/>
		<path class="st4" d="M85.5,426.4c-0.6,0-1.2-0.2-1.7-0.5c-0.5-0.3-0.9-0.8-1.1-1.4c-0.3-0.6-0.4-1.4-0.4-2.4s0.1-1.7,0.4-2.4
			c0.3-0.6,0.6-1.1,1.1-1.4c0.5-0.3,1-0.5,1.7-0.5c0.6,0,1.2,0.2,1.7,0.5c0.5,0.3,0.9,0.8,1.1,1.4s0.4,1.4,0.4,2.4s-0.1,1.7-0.4,2.4
			c-0.3,0.6-0.6,1.1-1.1,1.4C86.7,426.3,86.1,426.4,85.5,426.4z M85.5,425.5c0.7,0,1.2-0.3,1.6-0.9c0.4-0.6,0.5-1.4,0.5-2.4
			s-0.2-1.9-0.5-2.4c-0.4-0.6-0.9-0.9-1.6-0.9c-0.7,0-1.2,0.3-1.6,0.9c-0.4,0.6-0.6,1.4-0.6,2.4s0.2,1.9,0.6,2.4
			C84.3,425.2,84.8,425.5,85.5,425.5z"/>
		<path class="st4" d="M91.5,418.1h0.8v8.2h-1v-7c-0.2,0.1-0.4,0.3-0.7,0.3c-0.2,0.1-0.5,0.1-0.7,0.1v-1c0.3,0,0.5-0.1,0.8-0.2
			C91,418.4,91.3,418.3,91.5,418.1z"/>
		<path class="st4" d="M98.3,418h0.9v5.4h1.4v0.9h-1.4v2h-1v-2H94v-0.8L98.3,418z M98.2,419.6l-3.1,3.9h3.1V419.6z"/>
	</g>
</g>
<g>
	<g>
		<path class="st4" d="M487.9,426.3v-1.2c0-0.5,0.1-0.9,0.2-1.2c0.2-0.3,0.4-0.6,0.6-0.8c0.3-0.2,0.6-0.4,1-0.5l1.6-0.6
			c0.4-0.2,0.7-0.4,0.9-0.6s0.3-0.6,0.3-1c0-0.4-0.1-0.8-0.4-1c-0.3-0.3-0.7-0.4-1.2-0.4c-0.5,0-0.9,0.1-1.3,0.3
			c-0.3,0.2-0.5,0.5-0.6,1h-1.1c0-0.5,0.2-0.9,0.4-1.2c0.3-0.3,0.6-0.6,1-0.8c0.4-0.2,0.9-0.3,1.5-0.3c0.5,0,1,0.1,1.4,0.3
			c0.4,0.2,0.7,0.5,1,0.8c0.2,0.4,0.4,0.8,0.4,1.2c0,0.4-0.1,0.8-0.2,1.1c-0.2,0.3-0.4,0.6-0.7,0.8s-0.6,0.4-1,0.6l-1.7,0.7
			c-0.4,0.2-0.7,0.4-0.9,0.6c-0.2,0.2-0.3,0.5-0.3,0.9v0.4h4.7v0.9H487.9z"/>
		<path class="st4" d="M498.5,426.4c-0.6,0-1.2-0.2-1.7-0.5c-0.5-0.3-0.9-0.8-1.1-1.4c-0.3-0.6-0.4-1.4-0.4-2.4s0.1-1.7,0.4-2.4
			c0.3-0.6,0.6-1.1,1.1-1.4c0.5-0.3,1-0.5,1.7-0.5c0.6,0,1.2,0.2,1.7,0.5c0.5,0.3,0.9,0.8,1.1,1.4c0.3,0.6,0.4,1.4,0.4,2.4
			s-0.1,1.7-0.4,2.4c-0.3,0.6-0.6,1.1-1.1,1.4C499.7,426.3,499.1,426.4,498.5,426.4z M498.5,425.5c0.7,0,1.2-0.3,1.6-0.9
			c0.4-0.6,0.5-1.4,0.5-2.4s-0.2-1.9-0.5-2.4c-0.4-0.6-0.9-0.9-1.6-0.9c-0.7,0-1.2,0.3-1.6,0.9c-0.4,0.6-0.6,1.4-0.6,2.4
			s0.2,1.9,0.6,2.4C497.3,425.2,497.8,425.5,498.5,425.5z"/>
		<path class="st4" d="M504.5,418.1h0.8v8.2h-1v-7c-0.2,0.1-0.4,0.3-0.7,0.3c-0.2,0.1-0.5,0.1-0.7,0.1v-1c0.3,0,0.5-0.1,0.8-0.2
			C504,418.4,504.3,418.3,504.5,418.1z"/>
		<path class="st4" d="M510.3,426.4c-0.5,0-1-0.1-1.4-0.3c-0.4-0.2-0.7-0.5-1-0.9c-0.2-0.4-0.4-0.8-0.4-1.3h1.1
			c0,0.5,0.2,0.9,0.5,1.2s0.7,0.4,1.2,0.4c0.5,0,0.9-0.1,1.2-0.4c0.3-0.3,0.6-0.7,0.7-1.3c0.1-0.5,0.2-1.2,0.2-1.9
			c0-0.2,0-0.3,0-0.5c0-0.1,0-0.3-0.1-0.5c-0.1,0.5-0.2,0.9-0.4,1.2c-0.2,0.3-0.5,0.5-0.8,0.7c-0.3,0.2-0.7,0.2-1.1,0.2
			c-0.5,0-0.9-0.1-1.3-0.3c-0.4-0.2-0.7-0.5-0.9-0.9c-0.2-0.4-0.3-0.8-0.3-1.3c0-0.5,0.1-0.9,0.3-1.3c0.2-0.4,0.6-0.7,1-0.9
			c0.4-0.2,0.9-0.3,1.4-0.3c0.5,0,0.9,0.1,1.3,0.3c0.4,0.2,0.7,0.5,1,0.8c0.3,0.4,0.5,0.8,0.7,1.3s0.2,1.1,0.2,1.7
			c0,0.9-0.1,1.7-0.3,2.3c-0.2,0.7-0.6,1.2-1,1.5C511.7,426.2,511.1,426.4,510.3,426.4z M510.3,422.1c0.3,0,0.6-0.1,0.9-0.2
			c0.3-0.1,0.5-0.3,0.6-0.6c0.2-0.2,0.2-0.5,0.2-0.8c0-0.5-0.2-0.9-0.5-1.2c-0.3-0.3-0.7-0.4-1.2-0.4c-0.5,0-0.9,0.1-1.2,0.4
			c-0.3,0.3-0.5,0.7-0.5,1.2c0,0.5,0.2,0.9,0.5,1.2C509.4,422,509.8,422.1,510.3,422.1z"/>
	</g>
</g>
<g>
	<g>
		<path class="st4" d="M405.9,426.3v-1.2c0-0.5,0.1-0.9,0.2-1.2c0.2-0.3,0.4-0.6,0.6-0.8c0.3-0.2,0.6-0.4,1-0.5l1.6-0.6
			c0.4-0.2,0.7-0.4,0.9-0.6s0.3-0.6,0.3-1c0-0.4-0.1-0.8-0.4-1c-0.3-0.3-0.7-0.4-1.2-0.4c-0.5,0-0.9,0.1-1.3,0.3
			c-0.3,0.2-0.5,0.5-0.6,1h-1.1c0-0.5,0.2-0.9,0.4-1.2c0.3-0.3,0.6-0.6,1-0.8c0.4-0.2,0.9-0.3,1.5-0.3c0.5,0,1,0.1,1.4,0.3
			c0.4,0.2,0.7,0.5,1,0.8c0.2,0.4,0.4,0.8,0.4,1.2c0,0.4-0.1,0.8-0.2,1.1c-0.2,0.3-0.4,0.6-0.7,0.8s-0.6,0.4-1,0.6l-1.7,0.7
			c-0.4,0.2-0.7,0.4-0.9,0.6c-0.2,0.2-0.3,0.5-0.3,0.9v0.4h4.7v0.9H405.9z"/>
		<path class="st4" d="M416.5,426.4c-0.6,0-1.2-0.2-1.7-0.5c-0.5-0.3-0.9-0.8-1.1-1.4c-0.3-0.6-0.4-1.4-0.4-2.4s0.1-1.7,0.4-2.4
			c0.3-0.6,0.6-1.1,1.1-1.4c0.5-0.3,1-0.5,1.7-0.5c0.6,0,1.2,0.2,1.7,0.5c0.5,0.3,0.9,0.8,1.1,1.4c0.3,0.6,0.4,1.4,0.4,2.4
			s-0.1,1.7-0.4,2.4c-0.3,0.6-0.6,1.1-1.1,1.4C417.7,426.3,417.1,426.4,416.5,426.4z M416.5,425.5c0.7,0,1.2-0.3,1.6-0.9
			c0.4-0.6,0.5-1.4,0.5-2.4s-0.2-1.9-0.5-2.4c-0.4-0.6-0.9-0.9-1.6-0.9c-0.7,0-1.2,0.3-1.6,0.9c-0.4,0.6-0.6,1.4-0.6,2.4
			s0.2,1.9,0.6,2.4C415.3,425.2,415.8,425.5,416.5,425.5z"/>
		<path class="st4" d="M422.5,418.1h0.8v8.2h-1v-7c-0.2,0.1-0.4,0.3-0.7,0.3c-0.2,0.1-0.5,0.1-0.7,0.1v-1c0.3,0,0.5-0.1,0.8-0.2
			C422,418.4,422.3,418.3,422.5,418.1z"/>
		<path class="st4" d="M428.6,426.4c-0.6,0-1.2-0.1-1.7-0.3c-0.5-0.2-0.9-0.5-1.2-0.8s-0.4-0.8-0.4-1.2c0-0.4,0.1-0.8,0.3-1.1
			c0.2-0.3,0.5-0.5,0.9-0.7s0.8-0.2,1.3-0.2c0.1,0,0.2,0,0.4,0s0.2,0,0.4,0.1v0.3c-0.4,0-0.8,0.1-1.1,0.2c-0.3,0.1-0.6,0.3-0.8,0.6
			c-0.2,0.2-0.3,0.5-0.3,0.7c0,0.3,0.1,0.6,0.3,0.8c0.2,0.2,0.5,0.4,0.8,0.5c0.3,0.1,0.7,0.2,1.1,0.2c0.7,0,1.2-0.1,1.6-0.3
			c0.4-0.2,0.6-0.5,0.6-0.9c0-0.3-0.1-0.5-0.3-0.7c-0.2-0.2-0.5-0.4-0.8-0.5l-2.2-0.9c-0.3-0.1-0.5-0.2-0.8-0.4s-0.5-0.4-0.7-0.7
			c-0.2-0.3-0.3-0.6-0.3-1c0-0.4,0.1-0.8,0.4-1.1c0.2-0.3,0.6-0.6,1-0.8c0.4-0.2,1-0.3,1.6-0.3c0.6,0,1.1,0.1,1.5,0.3
			c0.4,0.2,0.8,0.5,1.1,0.8s0.4,0.7,0.4,1.2c0,0.3-0.1,0.7-0.3,0.9c-0.2,0.3-0.4,0.5-0.8,0.7c-0.3,0.2-0.7,0.3-1.2,0.3
			c-0.1,0-0.2,0-0.3,0c-0.1,0-0.2,0-0.4-0.1v-0.3c0.4,0,0.7-0.1,0.9-0.2c0.3-0.1,0.5-0.3,0.7-0.5c0.2-0.2,0.3-0.5,0.3-0.7
			c0-0.3-0.1-0.5-0.2-0.7s-0.4-0.4-0.7-0.5c-0.3-0.1-0.6-0.2-1-0.2c-0.4,0-0.7,0.1-1,0.2c-0.3,0.1-0.5,0.3-0.7,0.5
			c-0.2,0.2-0.3,0.4-0.3,0.6c0,0.3,0.1,0.5,0.3,0.7s0.5,0.3,0.8,0.5l2.2,0.9c0.6,0.2,1.1,0.5,1.4,0.8c0.3,0.3,0.5,0.7,0.5,1.3
			c0,0.4-0.1,0.8-0.4,1.1c-0.3,0.3-0.6,0.6-1.1,0.8C429.9,426.3,429.3,426.4,428.6,426.4z"/>
	</g>
</g>
<g>
	<g>
		<path class="st4" d="M573.1,426.3v-1.2c0-0.5,0.1-0.9,0.2-1.2c0.2-0.3,0.4-0.6,0.6-0.8c0.3-0.2,0.6-0.4,1-0.5l1.6-0.6
			c0.4-0.2,0.7-0.4,0.9-0.6s0.3-0.6,0.3-1c0-0.4-0.1-0.8-0.4-1c-0.3-0.3-0.7-0.4-1.2-0.4c-0.5,0-0.9,0.1-1.3,0.3
			c-0.3,0.2-0.5,0.5-0.6,1h-1.1c0-0.5,0.2-0.9,0.4-1.2c0.3-0.3,0.6-0.6,1-0.8c0.4-0.2,0.9-0.3,1.5-0.3c0.5,0,1,0.1,1.4,0.3
			c0.4,0.2,0.7,0.5,1,0.8c0.2,0.4,0.4,0.8,0.4,1.2c0,0.4-0.1,0.8-0.2,1.1c-0.2,0.3-0.4,0.6-0.7,0.8s-0.6,0.4-1,0.6l-1.7,0.7
			c-0.4,0.2-0.7,0.4-0.9,0.6c-0.2,0.2-0.3,0.5-0.3,0.9v0.4h4.7v0.9H573.1z"/>
		<path class="st4" d="M583.7,426.4c-0.6,0-1.2-0.2-1.7-0.5c-0.5-0.3-0.9-0.8-1.1-1.4c-0.3-0.6-0.4-1.4-0.4-2.4s0.1-1.7,0.4-2.4
			c0.3-0.6,0.6-1.1,1.1-1.4c0.5-0.3,1-0.5,1.7-0.5c0.6,0,1.2,0.2,1.7,0.5c0.5,0.3,0.9,0.8,1.1,1.4c0.3,0.6,0.4,1.4,0.4,2.4
			s-0.1,1.7-0.4,2.4c-0.3,0.6-0.6,1.1-1.1,1.4C584.9,426.3,584.3,426.4,583.7,426.4z M583.7,425.5c0.7,0,1.2-0.3,1.6-0.9
			c0.4-0.6,0.5-1.4,0.5-2.4s-0.2-1.9-0.5-2.4c-0.4-0.6-0.9-0.9-1.6-0.9c-0.7,0-1.2,0.3-1.6,0.9c-0.4,0.6-0.6,1.4-0.6,2.4
			s0.2,1.9,0.6,2.4C582.5,425.2,583,425.5,583.7,425.5z"/>
		<path class="st4" d="M588.4,426.3v-1.2c0-0.5,0.1-0.9,0.2-1.2s0.4-0.6,0.7-0.8s0.6-0.4,1-0.5l1.6-0.6c0.4-0.2,0.7-0.4,0.9-0.6
			s0.3-0.6,0.3-1c0-0.4-0.1-0.8-0.4-1c-0.3-0.3-0.7-0.4-1.2-0.4c-0.5,0-0.9,0.1-1.3,0.3c-0.3,0.2-0.5,0.5-0.6,1h-1.1
			c0-0.5,0.2-0.9,0.4-1.2c0.2-0.3,0.6-0.6,1-0.8c0.4-0.2,0.9-0.3,1.5-0.3c0.5,0,1,0.1,1.4,0.3c0.4,0.2,0.7,0.5,1,0.8
			s0.4,0.8,0.4,1.2c0,0.4-0.1,0.8-0.2,1.1c-0.2,0.3-0.4,0.6-0.7,0.8s-0.6,0.4-1,0.6l-1.7,0.7c-0.4,0.2-0.7,0.4-0.9,0.6
			c-0.2,0.2-0.3,0.5-0.3,0.9v0.4h4.7v0.9H588.4z"/>
		<path class="st4" d="M598.9,426.4c-0.6,0-1.2-0.2-1.7-0.5c-0.5-0.3-0.9-0.8-1.1-1.4c-0.3-0.6-0.4-1.4-0.4-2.4s0.1-1.7,0.4-2.4
			c0.3-0.6,0.6-1.1,1.1-1.4c0.5-0.3,1-0.5,1.7-0.5c0.6,0,1.2,0.2,1.7,0.5c0.5,0.3,0.9,0.8,1.1,1.4s0.4,1.4,0.4,2.4s-0.1,1.7-0.4,2.4
			c-0.3,0.6-0.6,1.1-1.1,1.4C600.1,426.3,599.6,426.4,598.9,426.4z M598.9,425.5c0.7,0,1.2-0.3,1.6-0.9s0.5-1.4,0.5-2.4
			s-0.2-1.9-0.5-2.4s-0.9-0.9-1.6-0.9c-0.7,0-1.2,0.3-1.6,0.9s-0.6,1.4-0.6,2.4s0.2,1.9,0.6,2.4S598.2,425.5,598.9,425.5z"/>
	</g>
</g>
<line class="st10" x1="40.5" y1="407.8" x2="639.5" y2="407.8"/>
</svg>
