<svg xmlns="http://www.w3.org/2000/svg" viewBox="0 0 1080 1080"><defs><style>.cls-1{fill:#403f49;}.cls-2,.cls-3{fill:#fff;}.cls-3{fill-rule:evenodd;}</style></defs>
<g id="im_20"  data-name="im 20"><circle class="cls-1" cx="541.08" cy="541.93" r="350"/></g>
<g id="im_20-2" class="circ" data-name="j"><circle class="cls-1" cx="540.78" cy="68.11" r="65"/>
<path class="cls-2" d="M513.75,28.3a1.13,1.13,0,0,1-1.12-1.13V23.62a2.72,2.72,0,0,1,2.72-2.73h24.71a1.14,1.14,0,0,1,0,2.26H515.35a.48.48,0,0,0-.47.47v3.53a1.13,1.13,0,0,1-1.11,1.15h0Z"/>
<path class="cls-2" d="M569.06,29a1.13,1.13,0,0,1-1.13-1.13h0V23.62a.47.47,0,0,0-.45-.5H545.91a1.13,1.13,0,0,1,0-2.26h21.55a2.73,2.73,0,0,1,2.73,2.72v4.26a1.13,1.13,0,0,1-1.1,1.16h0Z"/>
<path class="cls-2" d="M574.37,35.21a1.13,1.13,0,0,1-1.12-1.13h0v-4.7a.4.4,0,0,0-.39-.38H510a.4.4,0,0,0-.39.38V34a1.13,1.13,0,0,1-2.25,0V29.38A2.64,2.64,0,0,1,510,26.74h62.91a2.64,2.64,0,0,1,2.64,2.64h0V34a1.13,1.13,0,0,1-1.08,1.17h0Z"/>
<path class="cls-2" d="M504.27,73.52a1.13,1.13,0,0,1-1.13-1.14V35.63a2.74,2.74,0,0,1,2.73-2.72h71.07a2.74,2.74,0,0,1,2.73,2.72v9.56a1.14,1.14,0,0,1-2.26,0V35.63a.47.47,0,0,0-.47-.46H505.87a.47.47,0,0,0-.46.46V72.38A1.17,1.17,0,0,1,504.27,73.52Z"/><path class="cls-2" d="M578.54,73.52a1.15,1.15,0,0,1-1.13-1.14V58a1.14,1.14,0,0,1,2.26,0V72.38A1.13,1.13,0,0,1,578.54,73.52Z"/>
<path class="cls-2" d="M584,110H498.83a2.74,2.74,0,0,1-2.74-2.74h0V93a1.14,1.14,0,1,1,2.26-.25v0a.74.74,0,0,1,0,.21v14.23a.47.47,0,0,0,.47.47H584a.47.47,0,0,0,.47-.47h0V74a.47.47,0,0,0-.47-.48H555.5a.86.86,0,0,0-.85.86v4.32A2.64,2.64,0,0,1,552,81.3H530.88a2.65,2.65,0,0,1-2.62-2.62v-4.3a.86.86,0,0,0-.85-.86H498.83a.47.47,0,0,0-.47.48h0v9.62a1.14,1.14,0,0,1-2.27.21.74.74,0,0,1,0-.21V74a2.74,2.74,0,0,1,2.74-2.74h28.48a3.12,3.12,0,0,1,3.12,3.12V78.7a.35.35,0,0,0,.35.35h21.15a.35.35,0,0,0,.35-.35V74.38a3.12,3.12,0,0,1,3.12-3.12H584A2.74,2.74,0,0,1,586.72,74h0v33.23A2.76,2.76,0,0,1,584,110Z"/>
<path class="cls-2" d="M552,97.93H530.82a2.66,2.66,0,0,1-2.64-2.64v-4a2.66,2.66,0,0,1,2.64-2.64H552a2.66,2.66,0,0,1,2.64,2.64v4A2.66,2.66,0,0,1,552,97.93Zm-21.15-7.05a.38.38,0,0,0-.37.38h0v4a.37.37,0,0,0,.35.38H552a.37.37,0,0,0,.37-.36h0v-4a.38.38,0,0,0-.37-.38H530.8Z"/>
<path class="cls-2" d="M569.06,52.61H534.82a1.14,1.14,0,0,1,0-2.27h34.24a1.14,1.14,0,0,1,0,2.27Z"/>
<path class="cls-2" d="M563.35,65.77H534.78a1.14,1.14,0,0,1,0-2.27h28.57a1.14,1.14,0,0,1,0,2.27Z"/>
<path class="cls-2" d="M545.91,59.18H534.83a1.13,1.13,0,1,1,0-2.25h11.08a1.13,1.13,0,0,1,0,2.25Z"/>
<path class="cls-2" d="M545.91,72.53H534.83a1.14,1.14,0,0,1,0-2.27h11.08a1.14,1.14,0,0,1,.21,2.27Z"/>
<path class="cls-2" d="M563.35,59.18H553.22a1.13,1.13,0,1,1,0-2.25h10.13a1.13,1.13,0,1,1,0,2.25Z"/>
<path class="cls-2" d="M552.33,43.8H534.78a1.14,1.14,0,0,1,0-2.27h17.55a1.14,1.14,0,0,1,1,1.24A1.15,1.15,0,0,1,552.33,43.8Z"/>
<path class="cls-2" d="M524.29,60.58h-9.07a2.64,2.64,0,0,1-2.63-2.64V44.17a2.64,2.64,0,0,1,2.63-2.64h9.07a2.66,2.66,0,0,1,2.62,2.64V57.94A2.64,2.64,0,0,1,524.29,60.58ZM515.22,43.8a.38.38,0,0,0-.38.37V57.94a.38.38,0,0,0,.34.42h9.11a.39.39,0,0,0,.37-.39V44.17a.39.39,0,0,0-.37-.37Z"/>
<path class="cls-2" d="M497.22,89.82a1.14,1.14,0,0,1-1.13-1.14V87.46a1.14,1.14,0,0,1,2.27,0v1.22A1.17,1.17,0,0,1,497.22,89.82Z"/>
<path class="cls-2" d="M578.54,54.61a1.13,1.13,0,0,1-1.13-1.13V49.71a1.13,1.13,0,0,1,2.26,0v3.77a1.12,1.12,0,0,1-1.13,1.13Z"/></g>
<g id="im_19" class="circ" data-name="i"><circle class="cls-1" cx="687.24" cy="91.85" r="65"/>
<path class="cls-2" d="M689.38,102.26a1.52,1.52,0,0,0-1.52-1.52h-4.57v-3h-3v3h-3v-3h-3v3h-4.57a1.52,1.52,0,0,0-1.52,1.52h0v4.57a1.52,1.52,0,0,0,1.52,1.52h2l.17,1.52H655.37a8.62,8.62,0,0,0-6.9,3.49c-3.33,1-5.92,3.7-7.7,8.13l2.83,1.12a12.87,12.87,0,0,1,3.15-4.9q0,.39,0,.78v17.26a1.53,1.53,0,0,0,1.53,1.52h10.65a1.53,1.53,0,0,0,1.53-1.52h0V125.09h9.13v10.66a1.52,1.52,0,0,0,1.52,1.52h12.18a1.52,1.52,0,0,0,1.52-1.52h0V114.93a6.72,6.72,0,0,0,.49-1.82l.53-4.76h2a1.52,1.52,0,0,0,1.52-1.52h0Zm-32,32h-1.52v-9.14h1.52Zm21.31,0V123.57h-3v10.66h-3V123.57a1.52,1.52,0,0,0-1.52-1.52H654.37a1.53,1.53,0,0,0-1.53,1.52h0v10.66h-3V118.49a5.57,5.57,0,0,1,5.57-5.57h16.75v.19a6.57,6.57,0,0,0,9.65,5.13v16Zm7.61-28.93h-1.85a1.52,1.52,0,0,0-1.52,1.36l-.67,6.09a3.58,3.58,0,0,1-7.13,0l-.67-6.09A1.52,1.52,0,0,0,673,105.3h-1.86v-1.52h15.22Z"/>
<path class="cls-2" d="M732,123.57v-3h-6.08v-6.09h-3v6.09h-6.09v-6.09h-3v6.09h-6.09v-6.09h-3v6.09h-6.09v-6.09h-3v6.09h-6.09v3h6.09v4.57h-6.09v3h6.09v6.09h3v-6.09h6.09v6.09h3v-6.09h6.09v6.09h3v-6.09h6.09v6.09h3v-6.09H732v-3h-6.08v-4.57Zm-33.49,4.57v-4.57h6.09v4.57Zm9.14,0v-4.57h6.09v4.57Zm15.22,0h-6.09v-4.57h6.09Z"/>
<path class="cls-2" d="M688,92.08a7,7,0,0,0,4.92,4.7l2.57.59v6.09a26.74,26.74,0,0,0-3.76,2.13l1.7,2.53a25.25,25.25,0,0,1,14.24-4.34A24.59,24.59,0,0,1,729.16,116l2.65-1.52a26.37,26.37,0,0,0-8.94-9.33V97.37l2.57-.59a7,7,0,0,0,4.92-4.7l1.52-4.57a1.52,1.52,0,0,0-1-1.93h0a1.31,1.31,0,0,0-.83,0l-3.75.86a7,7,0,0,0-4.92,4.71l-.12.35-.12-.35a7,7,0,0,0-4.92-4.71l-3.7-.93a1.52,1.52,0,0,0-1.82,1.13,1.34,1.34,0,0,0,0,.84l1.52,4.57a7,7,0,0,0,4.92,4.7l2.57.59v6.09a28.76,28.76,0,0,0-21.24-1.17V97.37l2.58-.59a7,7,0,0,0,4.91-4.7l1.53-4.57a1.52,1.52,0,0,0-1-1.93h0a1.34,1.34,0,0,0-.84,0l-3.75.86a7,7,0,0,0-4.91,4.71l-.12.35-.13-.35a7,7,0,0,0-4.91-4.71l-3.7-.93a1.53,1.53,0,0,0-1.83,1.13,1.5,1.5,0,0,0,0,.84Zm36.37,0a4,4,0,0,1,2.72-2.73l1.08-.26-.71,2a4,4,0,0,1-2.73,2.72l-1.08.26Zm-6.41,1.69a4,4,0,0,1-2.68-2.68l-.67-2,1.08.26a4,4,0,0,1,2.63,2.72l.67,1.95ZM700,92.12a4,4,0,0,1,2.72-2.72l1.08-.26-.76,2a4,4,0,0,1-2.72,2.72l-1.09.26Zm-8.73-2.72A4,4,0,0,1,694,92.12l.67,1.95-1.08-.26a4,4,0,0,1-2.64-2.72l-.67-2Z"/>
<path class="cls-2" d="M652.2,66.47a1.52,1.52,0,0,0-2.15,0h0l-8.92,8.94a1.51,1.51,0,0,0,0,2.14L645.58,82a1.53,1.53,0,0,0,2.15,0h0L651,78.74l-2.74,18.74a1.51,1.51,0,0,0,1.28,1.73h18.51a1.53,1.53,0,0,0,1.52-1.53.74.74,0,0,0,0-.21l-2.74-18.76L670.14,82a1.51,1.51,0,0,0,2.14,0h0l4.48-4.46a1.52,1.52,0,0,0,0-2.15h0l-8.94-8.92a1.51,1.51,0,0,0-2.14,0l-1.16,1.16L663,66.1a4.55,4.55,0,0,0-.08-3.72l1.62-1.6,1.14,1.15a1.52,1.52,0,0,0,2.15,0h0l8.9-8.93a1.53,1.53,0,0,0,0-2.15l-4.46-4.47a1.51,1.51,0,0,0-2.14,0h0l-8.94,8.93a1.53,1.53,0,0,0,0,2.15l1.16,1.16-1.52,1.52a4.59,4.59,0,0,0-3.93-.19l-1.37-1.38,1.14-1.14a1.53,1.53,0,0,0,0-2.16h0l-8.95-8.88a1.53,1.53,0,0,0-2.15,0h0l-4.47,4.46a1.52,1.52,0,0,0,0,2.15h0L650,61.93a1.53,1.53,0,0,0,2.15,0l1.16-1.15L654.61,62a4.46,4.46,0,0,0-.08,4.43l-1.18,1.17Zm19-16.87,2.32,2.32-6.78,6.79-2.31-2.32Zm-26.87,2.33,2.32-2.31,6.77,6.77-2.31,2.32Zm2.33,26.87-2.31-2.31,6.77-6.79L653.44,72Zm10.75,17.37v-3h3.05v3Zm16.12-19.7-2.31,2.32L664.44,72l2.32-2.31ZM660.3,64.29a1.64,1.64,0,1,1-1.67-1.61h0a1.65,1.65,0,0,1,1.64,1.63Zm-3.57,4.25a4.57,4.57,0,0,0,4.21-.18l1.42,1.41-1.14,1.15a1.51,1.51,0,0,0,0,2.14l2,2,3,21.06H663.5V91.6A1.52,1.52,0,0,0,662,90.08h-6.09a1.52,1.52,0,0,0-1.52,1.52h0v4.57h-2.81l3.05-21,2-2a1.51,1.51,0,0,0,0-2.14l-1.16-1.16Z"/>
<path class="cls-2" d="M709.17,65.72a6.09,6.09,0,1,0-6.09-6.08A6.09,6.09,0,0,0,709.17,65.72Zm0-9.13a3,3,0,1,1-3,3A3,3,0,0,1,709.17,56.59Z"/><rect class="cls-2" x="707.65" y="45.93" width="3.04" height="4.57"/><rect class="cls-2" x="707.65" y="68.77" width="3.04" height="4.57"/><rect class="cls-2" x="718.3" y="58.11" width="4.57" height="3.04"/><rect class="cls-2" x="695.47" y="58.11" width="4.57" height="3.04"/><rect class="cls-2" x="714.96" y="50.04" width="4.57" height="3.04" transform="translate(173.61 522.27) rotate(-45)"/><rect class="cls-2" x="698.81" y="66.18" width="4.57" height="3.04" transform="translate(157.47 515.57) rotate(-45)"/><rect class="cls-2" x="715.72" y="65.42" width="3.04" height="4.57" transform="translate(162.12 526.9) rotate(-44.99)"/><rect class="cls-2" x="699.58" y="49.27" width="3.04" height="4.57" transform="translate(168.82 510.76) rotate(-44.99)"/></g>
<g id="im_18" class="circ" data-name="h"><circle class="cls-1" cx="819.17" cy="159.07" r="65"/><path class="cls-3" d="M864.08,194.56a19.94,19.94,0,0,0-2.87-8.63,61.8,61.8,0,0,0-5-7.5,1.89,1.89,0,0,0-2.64-.29,2.54,2.54,0,0,0-.28.29,61.88,61.88,0,0,0-5,7.5,20.21,20.21,0,0,0-2.87,8.63,9.38,9.38,0,0,0,18.75,0Zm-9.37-11.87a57,57,0,0,0-3.23,5.06,16,16,0,0,0-2.4,6.81,5.63,5.63,0,0,0,11.25,0,16,16,0,0,0-2.4-6.81A56.89,56.89,0,0,0,854.71,182.69Zm-19.39-20a18.75,18.75,0,0,1-32.47,0H789.08v1.88a5.62,5.62,0,0,1-5.62,5.62H776a1.88,1.88,0,0,1-1.88-1.87v-30a1.88,1.88,0,0,1,1.88-1.88h7.5a5.63,5.63,0,0,1,5.62,5.63v1.87h13.77a18.73,18.73,0,0,1,6.86-6.86v-8.14a3.75,3.75,0,0,1,3.75-3.75h3.75v-7.5h-9.38a1.88,1.88,0,0,1,0-3.75h22.5a1.88,1.88,0,1,1,0,3.75H821v7.5h3.75a3.75,3.75,0,0,1,3.75,3.75v8.14a18.73,18.73,0,0,1,6.86,6.86h4.39a22.51,22.51,0,0,1,22.5,22.5v5.63a1.88,1.88,0,0,1-1.88,1.87h-15a1.87,1.87,0,0,1-1.87-1.87v-5.63a3.75,3.75,0,0,0-3.75-3.75Zm1.65-15a18.77,18.77,0,0,1,0,11.25h2.74a7.5,7.5,0,0,1,7.5,7.5v3.75h11.25v-3.75a18.76,18.76,0,0,0-18.75-18.75Zm-11.34-7.87a15,15,0,0,0-13.13,0,.66.66,0,0,1-.24.11,15,15,0,0,0-6.58,6.6,1.36,1.36,0,0,1-.13.24,15,15,0,0,0,0,13.13c.05.08.09.16.13.24a15,15,0,0,0,26.73,0,1.49,1.49,0,0,1,.14-.24,15,15,0,0,0,0-13.13,1,1,0,0,1-.14-.24,15,15,0,0,0-6.58-6.6A.78.78,0,0,1,825.63,139.81Zm-42.17.37h-5.63v26.25h5.63a1.87,1.87,0,0,0,1.87-1.87v-22.5A1.88,1.88,0,0,0,783.46,140.18Zm17.74,7.5H789.08v11.25H801.2A18.62,18.62,0,0,1,801.2,147.68Zm12.26-12.26a18.77,18.77,0,0,1,11.25,0v-6.49H813.46Z"/></g>
<g id="im_17" class="circ"  data-name="g"><circle class="cls-1" cx="923.87" cy="263.76" r="65"/><path class="cls-2" d="M923.54,311.07c9.09,0,16.51-8.07,16.51-18s-7.42-18-16.51-18-16.51,8.07-16.51,18S914.43,311.07,923.54,311.07Zm0-33c7.5,0,13.5,6.74,13.5,15s-6,15-13.5,15-13.51-6.74-13.51-15S916,278.06,923.54,278.06Z"/>
<path class="cls-2" d="M929.54,293.06a4.49,4.49,0,0,0,4.5-4.5h-3a1.5,1.5,0,0,1-3,0h-3A4.49,4.49,0,0,0,929.54,293.06Z"/>
<path class="cls-2" d="M922,288.56h-3a1.5,1.5,0,0,1-3,0h-3a4.51,4.51,0,0,0,9,0Z"/>
<path class="cls-2" d="M919,300.57a4.5,4.5,0,0,0,9,0h-3a1.5,1.5,0,0,1-3,0Z"/>
<circle class="cls-2" cx="919.04" cy="264.55" r="3"/><circle class="cls-2" cx="911.53" cy="261.55" r="3"/><circle class="cls-2" cx="911.53" cy="252.55" r="3"/><circle class="cls-2" cx="926.54" cy="254.05" r="3"/><circle class="cls-2" cx="919.04" cy="248.05" r="3"/>
<path class="cls-2" d="M933.79,261.55a1.5,1.5,0,0,0,1.5-1.2,17.41,17.41,0,0,0,.25-3.3,16.51,16.51,0,1,0-9.72,15,1.49,1.49,0,0,0,.86-1.63,7,7,0,0,1-.14-1.37A7.51,7.51,0,0,1,933.79,261.55Zm-10.25,7.5v.71a13.52,13.52,0,1,1,9-12.71,14.7,14.7,0,0,1-.09,1.63A10.51,10.51,0,0,0,923.54,269.05Z"/>
<path class="cls-2" d="M950.26,241.64a1.49,1.49,0,0,0-1-1,1.51,1.51,0,0,0-1.5.36L943.47,245a5.07,5.07,0,0,0-.9,6.19,4,4,0,0,0,.37.54l-4.4,10.61a1.34,1.34,0,0,0-.1.49l-.69,13.82a1.49,1.49,0,0,0,1.1,1.5,1.27,1.27,0,0,0,.39,0,1.49,1.49,0,0,0,1.33-.79l6.48-12.23a1.41,1.41,0,0,0,.15-.48l1.65-11.36a3.38,3.38,0,0,0,.62-.26,5.08,5.08,0,0,0,2.39-5.76Zm-9.16,28.51.34-6.81,4-9.71.17.07h.18l-1.5,10.4Zm6.9-19.51a2.11,2.11,0,0,1-1.5.2A2.07,2.07,0,0,1,945,248.3a2.14,2.14,0,0,1,.58-1l2.51-2.38.93,3.26a2.09,2.09,0,0,1-1,2.35Z"/><path class="cls-2" d="M898.25,230.14l-3.36-.51-1.5-3.22a1.47,1.47,0,0,0-1.36-.87,1.48,1.48,0,0,0-1.35.85l-1.51,3.24-3.36.51a1.5,1.5,0,0,0-1.25,1.71,1.45,1.45,0,0,0,.4.81l2.47,2.54-.58,3.6a1.44,1.44,0,0,0,2.2,1.5l3-1.63,3,1.65a1.52,1.52,0,0,0,2.24-1.3,2.11,2.11,0,0,0,0-.26l-.59-3.61,2.48-2.53a1.5,1.5,0,0,0,0-2.12,1.39,1.39,0,0,0-.81-.4Zm-4.3,3.51a1.48,1.48,0,0,0-.41,1.29l.21,1.3-1-.56a1.49,1.49,0,0,0-1.5,0l-1,.56.21-1.3a1.5,1.5,0,0,0-.4-1.29l-1-1,1.26-.19a1.5,1.5,0,0,0,1.14-.84l.56-1.07.49,1.07a1.5,1.5,0,0,0,1.14.84l1.26.19Z"/><path class="cls-2" d="M964.28,284.16l-3.35-.51-1.5-3.22a1.51,1.51,0,0,0-2.73,0l-1.5,3.22-3.36.51a1.52,1.52,0,0,0-.86,2.53l2.48,2.53-.58,3.6a1.5,1.5,0,0,0,2.2,1.5l3-1.65,3,1.65a1.43,1.43,0,0,0,.72.18,1.5,1.5,0,0,0,1.52-1.48,1.15,1.15,0,0,0,0-.26l-.59-3.6,2.48-2.53a1.51,1.51,0,0,0-.05-2.13,1.55,1.55,0,0,0-.81-.4ZM960,287.68a1.49,1.49,0,0,0-.4,1.29l.21,1.29-1-.56a1.49,1.49,0,0,0-1.5,0l-1,.56.21-1.29a1.53,1.53,0,0,0-.41-1.29l-1-1,1.26-.2a1.53,1.53,0,0,0,1.13-.84l.49-1.07.5,1.07a1.49,1.49,0,0,0,1.14.84l1.26.2Z"/><path class="cls-2" d="M941.16,287.35l1.77,2.43a33,33,0,0,0,12.26-36.15l-2.88.84A30,30,0,0,1,941.16,287.35Z"/><path class="cls-2" d="M890.53,263.05a33,33,0,0,0,14.15,27.1l1.71-2.46a30,30,0,1,1,34.42-49.17,31.57,31.57,0,0,1,2.73,2.16l2-2.24a33,33,0,0,0-55,24.61Z"/><path class="cls-2" d="M923.54,218a43.21,43.21,0,0,0-24.87,7.81l1.71,2.46a40.51,40.51,0,0,1,60.43,49.17l2.77,1.17a43.52,43.52,0,0,0-40-60.61Z"/><path class="cls-2" d="M904.89,300.88l1.29-2.71A40.74,40.74,0,0,1,883,261.55a40.11,40.11,0,0,1,4.34-18.26l-2.67-1.35A43,43,0,0,0,880,261.55,43.72,43.72,0,0,0,904.89,300.88Z"/><path class="cls-2" d="M942.19,300.88a43.1,43.1,0,0,0,9.32-6l-1.92-2.3a40.76,40.76,0,0,1-8.69,5.59Z"/></g>
<g id="im_16" class="circ" data-name="f"><circle class="cls-1" cx="991.09" cy="395.69" r="65"/><path class="cls-2" d="M965.07,384.93a3.28,3.28,0,0,0-1.32.14c-.74-3.1-2-5.3-3.76-6.53a5.63,5.63,0,0,0-2.58-1,3.54,3.54,0,0,0-1.35-1.39,6.21,6.21,0,0,0-4.52-.37c-.13-.54-.25-1-.36-1.42a3.49,3.49,0,0,0-2.29-2.48c-1.89-.6-4.12.53-5.49,1.43a12.14,12.14,0,0,0-2.15-.88,1.8,1.8,0,0,0-2.18,1.31,1.19,1.19,0,0,0-.05.32c-.14,2.14-1.26,21-.84,24.69s14.05,15.58,20.58,21.09v1.28h-3.08v10.79H987.3V421.13h-2.74c.63-5.2,1.29-13.84-.76-16.31-.69-.81-2.27-2.39-4.27-4.46-3.72-3.77-10.66-10.79-11.4-12.8A3.79,3.79,0,0,0,965.07,384.93Zm-15.13,6.6c-.34,3.8,6,8.74,8,10.17l2.1-2.92c-3.45-2.5-6.64-5.86-6.55-6.93.22-2.3-.48-8-1.2-12.53a3.67,3.67,0,0,1,2-.1.62.62,0,0,1,0,.27c.29,3.6,1.58,15.7,6.63,18.66l1.82-3.11c-2.18-1.28-3.89-7.46-4.63-13.41.89.71,2.26,2.66,2.7,7.82h0a7.94,7.94,0,0,0,1.13,4,41.45,41.45,0,0,1,2.52,5.61c.6,1.54,1.2,3,1.81,4.22l-7-.31c-5.52-3.13-10.61-7.12-10.79-8.39.29-3.51.43-12.89.43-13.36a1.82,1.82,0,0,0,0-.33A61.63,61.63,0,0,1,949.94,391.53Zm-2.2-16.26v.07c.24.83.51,2.07.77,3.49a7.94,7.94,0,0,0-1.91-3.2A3.37,3.37,0,0,1,947.74,375.27Zm36,53H959.28v-3.6H983.7ZM981,407.13c.78,1.1.73,7.32-.09,14H962.36V419a1.8,1.8,0,0,0-.65-1.38c-9.15-7.59-19.39-17.18-20-19.28-.29-2.51.31-14.65.69-21.48a5.24,5.24,0,0,1,2.83,4.29c0,.11-.1,9.7-.38,13-.32,4,8,9.31,13,12.08a1.72,1.72,0,0,0,.79.23l11.63.52a1.79,1.79,0,0,0,.75-3.47c-1.12-.44-2.24-3.31-3.24-5.84a46.18,46.18,0,0,0-2.73-6.09,3.35,3.35,0,0,1-.6-2.72,1.23,1.23,0,0,1,.17-.32.88.88,0,0,1,.1.22c.93,2.5,5.89,7.64,12.23,14C978.84,404.79,980.45,406.44,981,407.13Z"/><path class="cls-2" d="M1043.49,398.76c.42-3.69-.71-22.55-.84-24.69a1.74,1.74,0,0,0-.74-1.35,1.79,1.79,0,0,0-1.52-.28,11.94,11.94,0,0,0-2.16.88c-1.37-.89-3.6-2-5.49-1.43a3.52,3.52,0,0,0-2.34,2.48c-.11.39-.23.88-.36,1.42a6.21,6.21,0,0,0-4.52.37,3.44,3.44,0,0,0-1.31,1.39,5.63,5.63,0,0,0-2.58,1c-1.77,1.2-3,3.43-3.76,6.53a3.28,3.28,0,0,0-1.32-.14,3.79,3.79,0,0,0-3.06,2.63c-.75,2-7.68,9-11.41,12.82-2,2-3.6,3.59-4.26,4.44-2.06,2.47-1.4,11.11-.78,16.32h-2.61v10.79H1026V421.14h-3.08v-1.29C1029.44,414.38,1043.05,402.56,1043.49,398.76Zm-9.59-23.38v-.07a3.25,3.25,0,0,1,1.13.36,8.38,8.38,0,0,0-2,3.4C1033.36,377.56,1033.65,376.24,1033.9,375.38Zm-14.17,18a8,8,0,0,0,1.08-4h0c.44-5.21,1.83-7.19,2.68-7.82-.72,6-2.4,12.12-4.61,13.4l1.93,3.12c5-3,6.34-15,6.63-18.65a.57.57,0,0,1,0-.26,3.53,3.53,0,0,1,2,.08,69.34,69.34,0,0,0-1.2,12.53c.1,1.07-3.09,4.43-6.54,6.93l2.05,2.87c2-1.43,8.39-6.36,8-10.17a62.06,62.06,0,0,1,1.08-10.79v.48c0,.4.14,9.77.42,13.19-.15,1.37-5.23,5.36-10.79,8.49l-7,.31a40.85,40.85,0,0,0,1.79-4.13A44.72,44.72,0,0,1,1019.73,393.42Zm2.66,34.86H998v-3.6h24.36Zm-2.4-10.65a1.83,1.83,0,0,0-.65,1.38v2.12h-18.61c-.82-6.68-.88-12.9-.1-14,.59-.7,2.21-2.4,4.06-4.24,6.35-6.43,11.27-11.57,12.22-14.07l.1-.23a1.32,1.32,0,0,1,.18.33,3.39,3.39,0,0,1-.59,2.72,46.59,46.59,0,0,0-2.72,6.08c-1,2.54-2.12,5.41-3.24,5.85a1.8,1.8,0,0,0,.74,3.47l11.63-.52a2,2,0,0,0,.79-.23c5-2.77,13.29-8,13-12.09-.27-3.34-.38-12.93-.38-12.93a5.35,5.35,0,0,1,2.87-4.37c.38,6.84,1,19,.71,21.43-.63,2.12-10.87,11.71-20,19.3Z"/><path class="cls-2" d="M995.51,377h-2.88v-5.72h5.77v-3.6h-5.77V365.5H989v2.18H987a6.13,6.13,0,0,0-2.6.51,4.62,4.62,0,0,0-1.79,1.37,5.07,5.07,0,0,0-.86,1.8,8.57,8.57,0,0,0-.24,2.14v1.28a9,9,0,0,0,.24,2.13,4.66,4.66,0,0,0,.88,1.8,4.4,4.4,0,0,0,1.77,1.36,6.28,6.28,0,0,0,2.6.5H989v5.92h-5.3v3.6H989v2.21h3.59v-2.19h2.88c2.69,0,4.5-2.07,4.5-5.16v-2.8C1000,379.07,998.2,377,995.51,377ZM989,377H987a3,3,0,0,1-1.11-.18,1.08,1.08,0,0,1-.65-.81,4.35,4.35,0,0,1-.13-1.19V373.5a4.38,4.38,0,0,1,.13-1.2,1.11,1.11,0,0,1,.23-.49,1.06,1.06,0,0,1,.4-.3,2.74,2.74,0,0,1,1.13-.18H989Zm7.37,7.95c0,1.57-.65,1.57-.9,1.57h-2.88v-5.93h2.88c.25,0,.9,0,.9,1.56Z"/><path class="cls-2" d="M990.83,359.43a19.47,19.47,0,1,0,19.47,19.47v0A19.49,19.49,0,0,0,990.83,359.43Zm0,35.34a15.88,15.88,0,1,1,15.88-15.9A15.88,15.88,0,0,1,990.83,394.77Z"/></g>
<g id="im_15" class="circ" data-name="e"><circle class="cls-1" cx="1014.25" cy="541.93" r="65"/><path class="cls-2" d="M1045.65,572.08a1.14,1.14,0,0,0,1.13-1.14,1.12,1.12,0,0,0-1.13-1.14h-25.41a1.14,1.14,0,0,0,0,2.28h25.41Z"/><path class="cls-2" d="M1047.51,541.2a1.26,1.26,0,0,0,.82-.42,1.08,1.08,0,0,0,.52-.92v-9.4h0l9.09-9.09a1.2,1.2,0,0,0,.31-1.14c0-.1.1-.2.1-.31a.66.66,0,0,0-.1-.41h0a1.15,1.15,0,0,0-.62-1.44l-61.55-23.14h-.83c-.1,0-.1,0-.21.11h-.1l-.1.1a.11.11,0,0,0-.11.1h0l-21.58,23.14a.54.54,0,0,0-.21.41h-4.75c-.1-.11-.2-.11-.41-.11a1.15,1.15,0,0,0-1.13,1.14v11.46a1.14,1.14,0,0,0,1.13,1.14h14.36a1.14,1.14,0,0,0,1.13-1.14V521.16h6.51V582.4H977.59a1.14,1.14,0,0,0,0,2.27H1056a1.12,1.12,0,0,0,1.14-1.13,1.14,1.14,0,0,0-1.13-1.14h-4.14V553.8a1.14,1.14,0,0,0-1.13-1.14h-12.09a1.14,1.14,0,0,0-1.13,1.14v6.81h-22.93a1.14,1.14,0,0,0-1.13,1.14V582.4h-11.36V530.77h9a.87.87,0,0,0,.83,0h34.7v8.36c-1.14.31-2.79,1.24-2.9,4.24a4.43,4.43,0,0,0,1.14,3.61,3.74,3.74,0,0,0,2.69,1.14h0a3.9,3.9,0,0,0,3.09-1.14,4.9,4.9,0,0,0,1.14-3.61,1.14,1.14,0,1,0-2.27,0h0a3.11,3.11,0,0,1-.52,2c-.31.31-.72.41-1.55.41a1.93,1.93,0,0,1-1.13-.41,2.61,2.61,0,0,1-.52-2C1046.06,541.3,1047,541.3,1047.51,541.2Zm.72-13.32-6.82-6.82H1055Zm-10.84-6.82-6.72,6.71-6.71-6.71Zm1.65-2.27a1.11,1.11,0,0,0-1.14,0h-16.32a.83.83,0,0,0-.72,0h-19l-4.65-21.07,55.87,21.07ZM992,541.3l6.81,6.82L992,554.93Zm7.84,9.09v14.46l-7.22-7.23Zm-7-11.46,7-7V546Zm.83-17.87h6.19v6.2Zm5.89-2.27h-7.34l3.51-17.35Zm-.62,10.84L992,536.55V522.71ZM992,560.2l7.12,7.12L992,574.45Zm26.54-39.14-7,7-7-7Zm2.79.41,7,7h-14Zm18.07.83,6.19,6.2h-12.39ZM993.7,499.68l-3.82,19.21h-7.43c-.11,0-.21-.1-.31-.1h-6.2ZM981,530H968.92V521h4.75c.1,0,.2.1.31.1h7Zm47.5,50h8.78v2.27h-8.78Zm-12.8-17.15h22.92a1.14,1.14,0,0,0,1.14-1.13v-6.82h9.91V582.3h-10v-3.41h0a1.14,1.14,0,0,0-1.14-1.13h-11.15a1.14,1.14,0,0,0-1.14,1.13h0v3.41H1015.7ZM992,582.3v-4.75l7.84-7.85v12.5H992Zm10.12-53.8v-6.61l6.5,6.5h-6.3C1002.17,528.5,1002.17,528.5,1002.07,528.5Z"/></g>
<g id="im_14" class="circ" data-name="d"><circle class="cls-1" cx="991.09" cy="688.18" r="65"/><path class="cls-2" d="M991.08,640.93a46.22,46.22,0,1,0,46,46.22h0A46.11,46.11,0,0,0,991.08,640.93Zm0,85.94a39.73,39.73,0,1,1,39.54-39.72h0A39.63,39.63,0,0,1,991.08,726.87Zm11-33.69a10.11,10.11,0,0,1-8.61,9.28v.7a3.23,3.23,0,1,1-6.46,0h0v-1.37c-2.35-.6-4.53-1.36-4.89-1.49a3.24,3.24,0,0,1,2.15-6.12h0a39.37,39.37,0,0,0,7.39,1.92,3.65,3.65,0,0,0,2.67-.86,3.76,3.76,0,0,0,1.29-2.53,3.69,3.69,0,0,0-3.38-4h0l-4.7-.83a8.45,8.45,0,0,1-7.56-9,7.58,7.58,0,0,1,3.17-5.69,8.62,8.62,0,0,1,3.88-1.49v-.54a3.23,3.23,0,1,1,6.46,0v1.32l2.49.67a3.24,3.24,0,0,1-1.52,6.3l-.26-.07a43.57,43.57,0,0,0-5.62-1.3,2.33,2.33,0,0,0-1.66.37,1.13,1.13,0,0,0-.5.91,1.93,1.93,0,0,0,1.66,2.15h.13l4.7.82A10.22,10.22,0,0,1,1002.13,693.18Zm-11-37.95a31.92,31.92,0,1,0,31.77,31.92A31.84,31.84,0,0,0,991.08,655.23Zm0,57.34a25.43,25.43,0,1,1,25.31-25.42h0A25.36,25.36,0,0,1,991.08,712.57Z"/></g>
<g id="im_13" class="circ" data-name="c"><circle class="cls-1" cx="923.87" cy="820.1" r="65"/><path class="cls-2" d="M916.1,809.26l-31.58,12.63a1.63,1.63,0,0,0,.61,3.14h3.26v8.16a1.64,1.64,0,0,0,3.27,0V825h9.78v8.16a1.64,1.64,0,0,0,3.27,0V825h10.51l-.72,13h0l-1.63,29.37a1.62,1.62,0,0,0,1.53,1.72,1.6,1.6,0,0,0,1-.28l8.89-5.91,8.88,5.92a1.63,1.63,0,0,0,2.26-.45,1.59,1.59,0,0,0,.28-1L934.07,838h0l-.72-13h10.52v8.16a1.63,1.63,0,0,0,3.26,0V825h9.79v8.16a1.63,1.63,0,0,0,3.26,0V825h3.26a1.63,1.63,0,0,0,.62-3.14l-31.58-12.63L931.63,794h15.5v8.15a1.63,1.63,0,0,0,3.26,0V794h3.27a1.64,1.64,0,0,0,.76-3.08l-24.15-12.88-4.68-6.23a1.62,1.62,0,0,0-2.28-.33,1.29,1.29,0,0,0-.33.33l-4.67,6.23L894.15,791a1.64,1.64,0,0,0,.77,3.08h3.26v8.15a1.63,1.63,0,1,0,3.26,0V794h15.5Zm15.67,46.09-5.41-6.88,4.69-6ZM917.52,842.5l4.69,6-5.41,6.88Zm4.83-42.4-2.71,4.26.43-7.85Zm0-6.06h3.85l-1.91,3Zm1.94,9.1,3.55,5.58h-7.11ZM922,829.93l-4,4,.42-7.54Zm-.28-4.9h5.18l-2.59,2.59Zm-3.39,13.19,6-6,6,6-6,7.62Zm8.28-8.29,3.57-3.57.42,7.55Zm-7.92-8.16.54-9.79h10.15l.54,9.79Zm7.55-21.68,2.28-3.58.43,7.85ZM931,782.15l5.92,3.16-5.5,4.33ZM927.64,781l.54,9.79h-7.79l.55-9.79Zm-10.46,8.85-5.54-4.5,6-3.18Zm-1.72,30.95L909,815.61l6.9-2.76ZM905.52,817l6,4.76H893.6Zm19.68,42.56a1.65,1.65,0,0,0-1.81,0l-7.08,4.72.18-3.25,7.8-9.93,7.8,9.93.18,3.25Zm11.9-37.8,5.95-4.76L955,821.77Zm2.48-6.16-6.46,5.17-.44-7.93Zm-4.35-24.84L940,787l7.09,3.78Zm-10.94-15.23,1.63,2.18h-3.26ZM908.51,787l4.65,3.77H901.44Z"/></g>
<g id="im_12" class="circ" data-name="b"><circle class="cls-1" cx="687.24" cy="992.02" r="65"/><path class="cls-2" d="M652.71,950.23a2.06,2.06,0,0,0-1.81,2v80a2.07,2.07,0,0,0,2,2h58a2.07,2.07,0,0,0,2-2v-16c.22-.16.45-.3.66-.47l11.94,11.88a2,2,0,1,0,2.81-2.85l-11.91-11.9a20,20,0,0,0-2.91-28.14c-.19-.16-.39-.31-.59-.46V970.23a2,2,0,0,0-.59-1.44l-18-18a2,2,0,0,0-1.41-.56Zm2.19,4h35v17a2.07,2.07,0,0,0,2,2h17v8.69a19.85,19.85,0,0,0-23.15,5.31h-22a2,2,0,1,0,.15,4h19.16a19.51,19.51,0,0,0-2.06,7H663.71a2,2,0,1,0,.19,4H681a19.57,19.57,0,0,0,2.06,7H663.71a2,2,0,1,0,.19,4h21.81a20,20,0,0,0,14.19,7H663.71a2,2,0,1,0,.19,4h36a2,2,0,1,0,0-4h1a19.88,19.88,0,0,0,8-1.66v11.66h-54Zm39,1.81,13.19,13.19H693.9Zm7,28.19a16,16,0,1,1-16,16A16,16,0,0,1,700.9,984.23Zm-.22,5a2.06,2.06,0,0,0-1.78,2v2a2,2,0,0,0,4,0v-2a2.09,2.09,0,0,0-2.16-2Zm0,9a2.06,2.06,0,0,0-1.78,2v9a2,2,0,0,0,4,0v-9a2.09,2.09,0,0,0-2.16-2Z"/></g>
<g id="im_11" class="circ" data-name="a"><circle class="cls-1" cx="541" cy="1015.89" r="65"/><path class="cls-2" d="M559.75,1053.38h-3.54v-37.7a6.37,6.37,0,0,0,4.15-3.11,22.88,22.88,0,0,1,11.15,7.67,5.83,5.83,0,0,0,3.33,2.06,5.59,5.59,0,0,0,.91.08,5.15,5.15,0,0,0,4.38-2.43,1.42,1.42,0,0,0-2.36-1.58l0,.08a2.33,2.33,0,0,1-2.39,1.06,3,3,0,0,1-1.62-1,25.69,25.69,0,0,0-12.55-8.62v-.38a6.37,6.37,0,0,0-5-6.21V1001a1.42,1.42,0,0,0-2.83,0v2.29a6.36,6.36,0,0,0-4.79,4.8,23.3,23.3,0,0,0-12.56,3.72,3,3,0,0,1-1.87.42,2.32,2.32,0,0,1-1.89-1.82,1.43,1.43,0,1,0-2.83.44v.14a5.15,5.15,0,0,0,4.16,4,4.43,4.43,0,0,0,.81.07,6,6,0,0,0,3-.86,20.53,20.53,0,0,1,11.16-3.31,6.35,6.35,0,0,0,4.79,4.79v37.7h-3.54a7.09,7.09,0,0,0-7.08,7.09,1.41,1.41,0,0,0,1.41,1.41h21.25a1.42,1.42,0,0,0,1.42-1.41A7.09,7.09,0,0,0,559.75,1053.38Zm-8.49-43.91a3.54,3.54,0,1,1,3.54,3.54A3.54,3.54,0,0,1,551.26,1009.47Zm-5.43,49.58a4.25,4.25,0,0,1,4-2.83h9.91a4.24,4.24,0,0,1,4,2.83Z"/><path class="cls-2" d="M522.38,1039.88c2,3.9,6.58,6.42,11.52,6.42s9.47-2.52,11.53-6.42a1.45,1.45,0,0,0,.05-1.17l0-.12-9.92-19.83a1.41,1.41,0,0,0-1.9-.64,1.44,1.44,0,0,0-.63.64l-10.63,19.83v.07A1.45,1.45,0,0,0,522.38,1039.88Zm11.52,3.59a10.78,10.78,0,0,1-7.43-2.83h14.87A10.82,10.82,0,0,1,533.9,1043.47Zm.31-21,7.67,15.33H526Z"/><path class="cls-2" d="M587.94,1045.71v-.07l-10.62-19.84a1.41,1.41,0,0,0-1.27-.75h0a1.43,1.43,0,0,0-1.25.79l-9.92,19.83v.08a1.42,1.42,0,0,0,0,1.21c2.06,3.9,6.58,6.42,11.53,6.42s9.47-2.52,11.52-6.42A1.41,1.41,0,0,0,587.94,1045.71Zm-11.85-16.16,8.21,15.34H568.42Zm.31,21a10.78,10.78,0,0,1-7.44-2.83h14.88A10.78,10.78,0,0,1,576.4,1050.55Z"/><path class="cls-2" d="M550.07,1046.46a1.42,1.42,0,0,0-1.36-2.49,1.94,1.94,0,0,0-.29.21c-2.38,1.75-4.81,3.32-7.16,4.83-4.33,2.84-8,5.21-10,7.75-1.93-2.54-5.67-5-10-7.75-5.86-3.78-12.49-8.08-16.56-13.82-5.89-8.26-4.47-42.67-4.11-49.8,3.73-.1,14.29-.59,20.72-3.07a26.2,26.2,0,0,0,9.88-7.36,26.2,26.2,0,0,0,9.88,7.36c6.43,2.48,17,3,20.72,3.07.14,2.89.47,10.22.41,18.42a1.41,1.41,0,0,0,1.41,1.41h0a1.41,1.41,0,0,0,1.42-1.41c.08-10.67-.48-19.84-.49-19.95a1.42,1.42,0,0,0-1.42-1.33c-.14,0-13.79-.1-21.05-2.91-5.77-2.21-9.68-7.74-9.72-7.79a1.44,1.44,0,0,0-1.16-.61h0a1.44,1.44,0,0,0-1.15.61s-4,5.58-9.74,7.79c-7.27,2.82-20.92,2.94-21.06,2.94a1.41,1.41,0,0,0-1.41,1.33c-.1,1.73-2.56,42.95,4.52,52.94,4.4,6.18,11.27,10.62,17.34,14.56,5.19,3.35,10.08,6.53,10.08,9.08a1.42,1.42,0,0,0,2.83,0c0-2.55,4.91-5.73,10.1-9.08C545.16,1049.84,547.61,1048.25,550.07,1046.46Z"/></g>
<g id="im_10" class="circ" data-name="almeda"><circle class="cls-1" cx="394.76" cy="992.02" r="65"/><path class="cls-2" d="M437.16,1025.34H435.1v-28a.89.89,0,0,0-.88-.91H430V970h2.9a.93.93,0,0,0,.92-.91h0v-5.34a.92.92,0,0,0-.92-.92h-32a.93.93,0,0,0-.93.92h0v5.32a.93.93,0,0,0,.93.93h2.89v18l-14.62,7.86v-7.31a.93.93,0,0,0-.93-.92.92.92,0,0,0-.43.11l-1.92,1-.6-16.39v-.19l-.17-5a.94.94,0,0,0-.93-.9h-7.81a.94.94,0,0,0-.92.9l-.18,5v.23l-.81,22.49-1.79,1v-7.31a.92.92,0,0,0-.91-.92,1,1,0,0,0-.45.11l-2.07,1.12-.56-16.46a.28.28,0,0,0,0-.22l-.19-5a.93.93,0,0,0-.91-.9h-7.87a.92.92,0,0,0-.92.9l-.24,5v.1h0L357.75,995l-3,1.59a.93.93,0,0,0-.48.81v28h-2a.93.93,0,0,0-.93.92h0V1031a.93.93,0,0,0,.93.92h84.93a.92.92,0,0,0,.92-.92h0v-4.75A.92.92,0,0,0,437.16,1025.34Zm-3.89-27v27H430v-27Zm-31.48-30.15v-3.48H432v3.48ZM428.13,970v55.34H405.64V970Zm-50.89-1.88h6l.13,3.25h-6.26Zm-.19,5.09h6.39l.59,16.52-7.72,4.15Zm-16.48-5.09h6l.12,3.25h-6.26Zm-.19,5.09h6.41l.6,16.61L359.63,994Zm-4.26,24.73,14.66-7.85v7.23a.94.94,0,0,0,1,.92.9.9,0,0,0,.4-.09l13.22-7.09h0l1.9-1v7.23a.92.92,0,0,0,.92.92.86.86,0,0,0,.44-.1L403.76,990v35.35H356Zm80.11,32.14H353.15v-2.89h83.08Zm-51.92-26.51h-8.68a.92.92,0,0,0-.91.93h0v5.35a.92.92,0,0,0,.91.92h8.68a.92.92,0,0,0,.92-.92h0v-5.4a.92.92,0,0,0-.92-.92Zm-.93,5.35h-6.85v-3.5h6.85Zm15.49-5.35h-8.68a.92.92,0,0,0-.92.93h0v5.35a.92.92,0,0,0,.92.92h8.68a.92.92,0,0,0,.91-.92h0v-5.4a.92.92,0,0,0-.91-.92Zm-.92,5.35h-6.86v-3.5H398Zm14.59-25.76h8.68a.9.9,0,0,0,.92-.89v0h0V977a.92.92,0,0,0-.92-.92h-8.68a.93.93,0,0,0-.93.92h0v5.35a.91.91,0,0,0,.92.91h0Zm1-5.34h6.87v3.49H413.5Zm-43.74,25.75h-8.68a.93.93,0,0,0-1,.88h0v5.35a1,1,0,0,0,.93.93h8.68a.93.93,0,0,0,.92-.93h0v-5.35a.92.92,0,0,0-.92-.92Zm-.93,5.35H362v-3.5h6.85Zm-5.23-46.7a3.73,3.73,0,1,0-3.72-3.75v0h0A3.72,3.72,0,0,0,363.6,962.22Zm0-5.6a1.88,1.88,0,1,1-1.88,1.88,1.88,1.88,0,0,1,1.88-1.88Zm6.66-1.88a4.8,4.8,0,1,0-4.8-4.8h0A4.81,4.81,0,0,0,370.26,954.74Zm0-7.74a2.9,2.9,0,1,1-2.89,2.9A2.9,2.9,0,0,1,370.26,947Zm10,15.22a3.73,3.73,0,1,0-3.72-3.75v0h0A3.73,3.73,0,0,0,380.23,962.22Zm0-5.6a1.88,1.88,0,1,1-1.87,1.9v0A1.89,1.89,0,0,1,380.23,956.62Zm6.67-1.88a4.8,4.8,0,1,0-4.79-4.82v0a4.8,4.8,0,0,0,4.8,4.79Zm0-7.74a2.9,2.9,0,1,1-2.9,2.9h0a2.9,2.9,0,0,1,2.9-2.9h0Zm24.71,39.69a.92.92,0,0,1,.92-.91h8.67a.9.9,0,0,1,.93.87v0a.92.92,0,0,1-.9.93h-8.7a.92.92,0,0,1-.93-.9v0Z"/></g>
<g id="im_9" class="circ" data-name="ferran"><circle class="cls-1" cx="262.83" cy="924.8" r="65"/><path class="cls-2" d="M302.9,905H287.84a1.51,1.51,0,0,0-1.28.73l-11.62,18.86h-8.19a1.5,1.5,0,0,0-1.42,1l-5.66,15.58h-9.49a1.5,1.5,0,0,0-1.42,1l-7.53,21.09a1.5,1.5,0,0,0,1.41,2H302.9a1.52,1.52,0,0,0,1.51-1.51V906.53A1.52,1.52,0,0,0,302.9,905Zm-24.1,57.25h-34l6.47-18.08h26a1.51,1.51,0,0,0,1.21-.6l4.06-5.43h10.22l8,24.11Zm22.59-7.78-6-18.31a1.52,1.52,0,0,0-1.51-1H281.81a1.49,1.49,0,0,0-1.2.6l-4.07,5.43H262.88l4.92-13.56h8a1.53,1.53,0,0,0,1.28-.72L288.68,908h12.71Zm-34-36.92a1.51,1.51,0,0,0,2.13-.05,1.49,1.49,0,0,0,.36-1.45,56.8,56.8,0,0,0-10-18.64L261,896.3a1.49,1.49,0,0,0,0-2.12L256.7,890a1.51,1.51,0,0,0-2.12,0l-1.12,1.11A57,57,0,0,0,234.81,881a1.51,1.51,0,0,0-1.5,2.5l13.85,13.84L220.49,924a1.5,1.5,0,0,0,0,2.13h0l4.26,4.26a1.5,1.5,0,0,0,2.13,0h0l26.62-26.63Zm-3-7.27-8.67-8.7,2-2.06a50.6,50.6,0,0,1,6.61,10.76Zm-23.78-23.77a50.1,50.1,0,0,1,10.74,6.62l-2.07,2.05ZM225.82,927.2,223.68,925l23.48-23.43,2.13,2.13Zm25.61-25.61-2.14-2.14,1.07-1.05,4.26-4.27,1.07-1.07,2,2.14-1.06,1.07-4.2,4.23Z"/></g>
<g id="im_8" class="circ" data-name="millan"><circle class="cls-1" cx="158.13" cy="820.1" r="65"/><g id="Capa_1" data-name="Capa 1"><path class="cls-2" d="M178.9,801a9,9,0,1,0-9-9h0a8.9,8.9,0,0,0,8.76,9Zm0-14.13a5,5,0,1,1-5,5A5,5,0,0,1,178.9,786.87Zm27.1,37H195c-2-15.75-9.85-19.11-16.1-19.11s-14.13,3.36-16.1,19.11h-5.91c-4.17-7.53-10.08-9.62-15.29-9.62s-11.12,2-15.29,9.62H112.18a2,2,0,0,0,0,3.94h12.28a54.49,54.49,0,0,0-3.13,15.52,1.65,1.65,0,0,0,.12.69,2.18,2.18,0,0,0,1.16,2.43,50.54,50.54,0,0,0,38,0,2.05,2.05,0,0,0,1.16-2.43,1.5,1.5,0,0,0,.11-.69,59.6,59.6,0,0,0-3.13-15.52h47.37a2,2,0,0,0,2-2v0A2,2,0,0,0,206,823.82Zm-80.61,19.46c.69-7.3,2.08-13.09,4.4-17.26,2.78-5.21,6.72-7.65,11.81-7.65s9,2.55,11.82,7.65c2.31,4.17,3.7,10,4.4,17.26a46.93,46.93,0,0,1-32.43,0Zm53.51-34.52c6.6,0,10.65,5.1,12,15.06H166.85C168.13,813.86,172.18,808.76,178.9,808.76Zm-17.14,46.56A2.06,2.06,0,0,1,160.6,858h0a50.45,50.45,0,0,1-38,0,2,2,0,0,1-1.16-2.66,2.06,2.06,0,0,1,2.66-1.16,45.69,45.69,0,0,0,35,0A2.33,2.33,0,0,1,161.76,855.32ZM141.6,810a11,11,0,1,0-11-11h0A11,11,0,0,0,141.6,810Zm0-18.06a7,7,0,1,1-6.95,6.95A6.95,6.95,0,0,1,141.6,792Z"/></g></g>
<g id="im_7" class="circ" data-name="mari"><circle class="cls-1" cx="90.91" cy="688.18" r="65"/><path class="cls-2" d="M102,684.46H99.37v-2.58A5.85,5.85,0,0,0,93.52,676H89.39a5.84,5.84,0,0,0-5.84,5.85h0v2.58H81a5.85,5.85,0,0,0-5.84,5.83v4.15A5.85,5.85,0,0,0,81,700.28h2.59v2.59a5.84,5.84,0,0,0,5.84,5.83h4.13a5.85,5.85,0,0,0,5.85-5.83v-2.59H102a5.84,5.84,0,0,0,5.85-5.84h0v-4.15A5.85,5.85,0,0,0,102,684.46Zm2.79,10a2.79,2.79,0,0,1-2.79,2.8H96.33v5.63a2.81,2.81,0,0,1-2.81,2.79H89.39a2.8,2.8,0,0,1-2.8-2.79v-5.63H81a2.8,2.8,0,0,1-2.79-2.8v-4.15A2.81,2.81,0,0,1,81,687.5h5.63v-5.62a2.8,2.8,0,0,1,2.8-2.81h4.13a2.81,2.81,0,0,1,2.81,2.81h0v5.62H102a2.8,2.8,0,0,1,2.79,2.79Z"/><path class="cls-2" d="M91.46,666.18a26.13,26.13,0,1,0,26.13,26.13h0A26.17,26.17,0,0,0,91.46,666.18Zm0,49.21a23.09,23.09,0,1,1,23.08-23.1h0a23.11,23.11,0,0,1-23.08,23.08Z"/><path class="cls-2" d="M131.77,655.64H114.66l-.39-1.36a23.8,23.8,0,0,0-45.8,0l-.39,1.36H51.14A5.31,5.31,0,0,0,45.83,661v62.68a5.31,5.31,0,0,0,5.31,5.3h80.63a5.32,5.32,0,0,0,5.32-5.31V661A5.32,5.32,0,0,0,131.77,655.64ZM91.37,640a20.87,20.87,0,0,1,19.31,13.2h-5.82a15.49,15.49,0,0,0-27,0H72.05A20.84,20.84,0,0,1,91.37,640ZM80.16,655.36a12.43,12.43,0,0,1,22.41,0l.14.28H80Zm53.89,68.27a2.27,2.27,0,0,1-2.28,2.27H51.14a2.27,2.27,0,0,1-2.27-2.27V661a2.27,2.27,0,0,1,2.27-2.27h80.63a2.28,2.28,0,0,1,2.28,2.27Z"/></g>
<g id="im_6" class="circ" data-name="vargas"><circle class="cls-1" cx="67.75" cy="541.93" r="65"/><path class="cls-2" d="M21.4,532.7l2.78-2.21v45.59a1.16,1.16,0,0,0,1.16,1.16h83.91a1.16,1.16,0,0,0,1.17-1.16V530.49l2.77,2.21a1.27,1.27,0,0,0,.72.26,1.11,1.11,0,0,0,.91-.45,1.14,1.14,0,0,0-.15-1.6l0,0L68,493.59a1.16,1.16,0,0,0-1.47,0L19.93,530.88a1.16,1.16,0,0,0-.18,1.63A1.18,1.18,0,0,0,21.4,532.7Zm54.05,42.21H59.14V558.6H75.45ZM26.51,528.62,67.3,496l40.79,32.63v46.29H77.79V557.43a1.17,1.17,0,0,0-1.17-1.16H58a1.16,1.16,0,0,0-1.16,1.16v17.48H26.51Z"/><path class="cls-2" d="M58.11,540.09a9.26,9.26,0,0,0,1,.42v1.77a1.17,1.17,0,0,0,1.16,1.17H65a1.17,1.17,0,0,0,1.16-1.17v-1.77a10.11,10.11,0,0,0,1-.42l1.26,1.26a1.16,1.16,0,0,0,1.64,0h0l3.29-3.29a1.22,1.22,0,0,0,.35-.81,1.14,1.14,0,0,0-.35-.82l-1.26-1.14a9.26,9.26,0,0,0,.42-1h1.77a1.16,1.16,0,0,0,1.16-1.16v-4.8a1.16,1.16,0,0,0-1.16-1.17H72.52a10.11,10.11,0,0,0-.42-1l1.26-1.25a1.17,1.17,0,0,0,0-1.65h0l-3.29-3.29a1.17,1.17,0,0,0-1.65,0h0l-1.26,1.26a9.26,9.26,0,0,0-1-.42V519A1.16,1.16,0,0,0,65,517.81H60.3A1.16,1.16,0,0,0,59.14,519v1.77a10.11,10.11,0,0,0-1,.42l-1.26-1.26a1.16,1.16,0,0,0-1.64,0h0l-3.29,3.29a1.17,1.17,0,0,0,0,1.65h0l1.26,1.25a10.11,10.11,0,0,0-.42,1H51a1.16,1.16,0,0,0-1.16,1.17V533A1.16,1.16,0,0,0,51,534.12h1.77a9.26,9.26,0,0,0,.42,1l-1.26,1.26a1.22,1.22,0,0,0-.35.81,1.14,1.14,0,0,0,.35.82l3.29,3.29a1.17,1.17,0,0,0,1.65,0h0Zm-3.73-2.87,1-1.05a1.18,1.18,0,0,0,.19-1.42,7.56,7.56,0,0,1-.86-2.1,1.19,1.19,0,0,0-1.12-.88H52.15v-2.33h1.46a1.12,1.12,0,0,0,1.12-.89,8.18,8.18,0,0,1,.87-2.1,1.17,1.17,0,0,0-.19-1.42l-1-1L56,522.33l1,1a1.19,1.19,0,0,0,1.43.18,7.62,7.62,0,0,1,2.09-.86,1.17,1.17,0,0,0,.89-1.12v-1.44H63.8v1.47a1.13,1.13,0,0,0,.89,1.12,8.3,8.3,0,0,1,2.09.86,1.18,1.18,0,0,0,1.43-.19l1-1L70.91,524l-1,1a1.19,1.19,0,0,0-.19,1.42,7.29,7.29,0,0,1,.87,2.1,1.18,1.18,0,0,0,1.12.88h1.46v2.33H71.66a1.12,1.12,0,0,0-1.12.89,8.18,8.18,0,0,1-.87,2.1,1.17,1.17,0,0,0,.19,1.42l1,1-1.66,1.65-1-1a1.19,1.19,0,0,0-1.43-.18,8.3,8.3,0,0,1-2.09.86,1.19,1.19,0,0,0-.89,1.12v1.47H61.47v-1.47a1.12,1.12,0,0,0-.89-1.12,8.3,8.3,0,0,1-2.09-.86,1.15,1.15,0,0,0-1.43.18l-1,1Z"/><path class="cls-2" d="M62.64,536.45a5.83,5.83,0,1,0-5.83-5.82A5.82,5.82,0,0,0,62.64,536.45Zm0-9.32a3.5,3.5,0,1,1-3.5,3.5A3.5,3.5,0,0,1,62.64,527.13Z"/><path class="cls-2" d="M74.06,537.62l1.25,1.26a7.49,7.49,0,0,0-.41,1H73.12A1.17,1.17,0,0,0,72,541.07v4.66a1.17,1.17,0,0,0,1.16,1.17H74.9c.12.35.26.69.41,1l-1.25,1.35a1.16,1.16,0,0,0-.35.82,1.08,1.08,0,0,0,.35.82l3.28,3.28a1.17,1.17,0,0,0,1.65,0h0l1.26-1.26a6.44,6.44,0,0,0,1,.42v1.77a1.17,1.17,0,0,0,1.17,1.17h4.66a1.16,1.16,0,0,0,1.16-1.17v-1.77a9.26,9.26,0,0,0,1-.42l1.26,1.26a1.17,1.17,0,0,0,1.65,0h0l3.29-3.28a1.2,1.2,0,0,0,.35-.82,1.1,1.1,0,0,0-.35-.82L94.24,548a7,7,0,0,0,.42-1h1.77a1.17,1.17,0,0,0,1.17-1.17v-4.66A1.16,1.16,0,0,0,96.43,540H94.66a9.26,9.26,0,0,0-.42-1l1.26-1.35a1.17,1.17,0,0,0,0-1.65h0l-3.29-3.24a1.16,1.16,0,0,0-1.64,0h0L89.3,534a8.54,8.54,0,0,0-1-.42v-1.77a1.16,1.16,0,0,0-1.16-1.16H82.45a1.16,1.16,0,0,0-1.17,1.16v1.77a9.1,9.1,0,0,0-1,.42L79,532.72a1.17,1.17,0,0,0-1.65,0h0L74.06,536A1.19,1.19,0,0,0,74.06,537.62Zm2.82,3.73a8.37,8.37,0,0,1,.86-2.1,1.17,1.17,0,0,0-.19-1.42l-.93-1,1.66-1.66,1,1.05a1.21,1.21,0,0,0,1.43.19,7.52,7.52,0,0,1,2.09-.87,1.18,1.18,0,0,0,.89-1.11V533h2.33v1.47a1.11,1.11,0,0,0,.89,1.11,8.71,8.71,0,0,1,2.09.87,1.18,1.18,0,0,0,1.43-.19l1-1.05,1.66,1.66-1,1a1.19,1.19,0,0,0-.19,1.42,7.29,7.29,0,0,1,.87,2.1,1.18,1.18,0,0,0,1.12.88h1.35v2.33H93.8a1.12,1.12,0,0,0-1.12.89,8.52,8.52,0,0,1-.86,2.1A1.17,1.17,0,0,0,92,549l1,1.05-1.65,1.65-1.05-1.05a1.18,1.18,0,0,0-1.42-.18,7.56,7.56,0,0,1-2.1.86,1.12,1.12,0,0,0-.89,1.12v1.47H83.61v-1.47a1.12,1.12,0,0,0-.88-1.12,8.37,8.37,0,0,1-2.1-.86,1.15,1.15,0,0,0-1.42.18l-1,1.05-1.54-1.65,1-1.05a1.2,1.2,0,0,0,.19-1.42,7.41,7.41,0,0,1-.87-2.1,1.12,1.12,0,0,0-1.12-.89H74.29v-2.33h1.47a1.13,1.13,0,0,0,1.12-.88Z"/><path class="cls-2" d="M84.78,549.27A5.83,5.83,0,1,0,79,543.45,5.83,5.83,0,0,0,84.78,549.27Zm0-9.32a3.5,3.5,0,1,1-3.5,3.5h0A3.5,3.5,0,0,1,84.78,540Z"/><path class="cls-2" d="M51,542.28H30a1.16,1.16,0,0,0-1.16,1.17v14A1.16,1.16,0,0,0,30,558.6H51a1.17,1.17,0,0,0,1.17-1.17v-14A1.17,1.17,0,0,0,51,542.28Zm-1.16,14H31.17V544.61H49.82Z"/></g>
<g id="im_5" class="circ" data-name="tomas"><circle class="cls-1" cx="90.91" cy="395.69" r="65"/><path class="cls-2" d="M117.41,383.77a2.58,2.58,0,0,0-1.76-.76h-9.21a2.19,2.19,0,0,0-2.19,2.19v12.72a2.19,2.19,0,0,0,2.19,2.19h20a2.39,2.39,0,0,0,2.09-1.31,2.21,2.21,0,0,0-.33-2.31Zm-8.77,12v-8.34h6l7,8.34Z"/><path class="cls-2" d="M141.86,399.45a6.83,6.83,0,0,0-1.64-4.27L122,374.67a2.3,2.3,0,0,0-1.64-.77H101.62A6.58,6.58,0,0,0,95,380.48v15.25H45.58A6.58,6.58,0,0,0,39,402.31V417a6.59,6.59,0,0,0,6.58,6.58H48.1a11.4,11.4,0,0,0,22.59,0h40.69a11.51,11.51,0,0,0,22.7,0h1.42a6.58,6.58,0,0,0,6.58-6.58ZM59.4,429a7.13,7.13,0,1,1,7.13-7.12A7.13,7.13,0,0,1,59.4,429Zm63.38,0a7.13,7.13,0,1,1,7-7.23v.11A7.12,7.12,0,0,1,122.78,429ZM137,418.54a2.18,2.18,0,0,1-1.54.65H134a11.63,11.63,0,0,0-11.19-8.88,11.4,11.4,0,0,0-11.18,8.88h-41a11.51,11.51,0,0,0-22.37,0H45.58A2.19,2.19,0,0,1,43.39,417V402.31a2.19,2.19,0,0,1,2.19-2.2H97.23a2.07,2.07,0,0,0,2.19-2V380.48a2.2,2.2,0,0,1,2.2-2.19h17.76l17.55,19.85a2.27,2.27,0,0,1,.55,1.42L137.7,417A1.88,1.88,0,0,1,137,418.54Z"/><path class="cls-2" d="M85.17,391.45a2.19,2.19,0,0,0,2.19-2.19V359.87a2.2,2.2,0,0,0-2.19-2.2H51.06a2.2,2.2,0,0,0-2.19,2.2v29.39a2.19,2.19,0,0,0,2.19,2.19ZM64.88,362.06h6.47v5H64.88Zm-11.62,0h7.23v7.24a2.2,2.2,0,0,0,2.2,2.19H73.54a2.19,2.19,0,0,0,2.2-2.19v-7.24H83v25H53.26Z"/></g>
<g id="im_4" class="circ" data-name="rios"><circle class="cls-1" cx="262.83" cy="159.07" r="65"/><path class="cls-2" d="M299.08,116.93H234.84a7.84,7.84,0,0,0-7.84,7.84v65.59a7.84,7.84,0,0,0,7.84,7.84h64.24Zm-68.95,7.84a4.7,4.7,0,0,1,4.71-4.7H296v56.41H237.77a10.73,10.73,0,0,0-7.64,3.13ZM296,193.61v1.46H234.84a4.71,4.71,0,0,1-4.71-4.71v-3.13a7.64,7.64,0,0,1,7.64-7.62H296v10.86H253.64v3.14Z"/><path class="cls-2" d="M245.8,160.7a4.69,4.69,0,0,0-3.13-4.42V141.14l4.7,2v10.73l15.67,7,15.67-7V143.15L289,138.76,263,127.65l-25.92,11.11,2.42,1v16.48a4.7,4.7,0,0,0-3.14,4.42v7.84h9.4Zm29.78-8.85L263,157.43l-12.53-5.58V144.5L263,149.87l12.54-5.37ZM263,131.07l18,7.69-18,7.7-18-7.7ZM242.67,165.4h-3.13v-4.7a1.57,1.57,0,1,1,3.13,0Z"/><rect class="cls-2" x="256.77" y="181.07" width="36.04" height="3.13"/><rect class="cls-2" x="247.37" y="185.77" width="40.74" height="3.13"/><rect class="cls-2" x="248.94" y="190.47" width="3.13" height="3.13"/><rect class="cls-2" x="244.24" y="190.47" width="3.13" height="3.13"/><rect class="cls-2" x="250.51" y="181.07" width="3.13" height="3.13"/></g>
<g id="im_3" class="circ" data-name="maca"><circle class="cls-1" cx="394.76" cy="91.85" r="65"/><path class="cls-2" d="M435.89,85.05h-2.81V52.74h2.81a1.41,1.41,0,0,0,0-2.81H385.31a1.41,1.41,0,0,0,0,2.81h2.81V73a1.41,1.41,0,1,0,2.81,0V52.74h39.34V85.05H398a1.41,1.41,0,0,0,0,2.81h11.24v3.07a4.21,4.21,0,1,0,5.39,2.56h0A4.19,4.19,0,0,0,412,90.93V87.86h23.89a1.41,1.41,0,0,0,0-2.81ZM410.6,96.29a1.41,1.41,0,1,1,1.4-1.4A1.41,1.41,0,0,1,410.6,96.29Z"/><path class="cls-2" d="M400.76,72.41a4.22,4.22,0,0,0,2.81,4v.26a5.62,5.62,0,0,0,11.24,0v-.26A4.2,4.2,0,0,0,417.38,71a4,4,0,0,0-1.4-2,8.28,8.28,0,0,0,1.64-5A8.43,8.43,0,1,0,402.48,69,4.23,4.23,0,0,0,400.76,72.41Zm8.43,7a2.81,2.81,0,0,1-2.81-2.81H412A2.81,2.81,0,0,1,409.19,79.44Zm4.22-5.62H405A1.41,1.41,0,1,1,405,71h8.43a1.41,1.41,0,0,1,0,2.81Zm-4.22-15.46A5.62,5.62,0,0,1,414.81,64a5.55,5.55,0,0,1-2,4.22H410.6V66l1-1a1.41,1.41,0,0,0-2-2h0l-.41.43-.4-.43a1.41,1.41,0,0,0-2,2l1,1V68.2h-2.23a5.56,5.56,0,0,1-2-4.22A5.62,5.62,0,0,1,409.19,58.36Z"/><path class="cls-2" d="M389.53,86.64l7.19-3.59a3.84,3.84,0,0,0-2.81-7.13L386.79,78l-3.56-1.4-.66-.23A11.27,11.27,0,0,0,383.91,71V68.2a14,14,0,0,0-21.5-11.9,1.41,1.41,0,0,0,1.49,2.39h0a11.24,11.24,0,0,1,17.2,9.51V71a8.46,8.46,0,0,1-1.41,4.52,17.92,17.92,0,0,0-2.74-.28l-.07,0h-.76a8.44,8.44,0,0,0,2.17-5.62V65.39A1.41,1.41,0,0,0,376.88,64a6.47,6.47,0,0,1-5.38-2.81l-.48-.7a1.4,1.4,0,0,0-1.95-.38,1.37,1.37,0,0,0-.38.38l-.48.7A6.45,6.45,0,0,1,362.83,64a1.41,1.41,0,0,0-1.4,1.41V69.6a8.38,8.38,0,0,0,2.16,5.62h-.76a10,10,0,0,0-2.81.41,8.44,8.44,0,0,1-1.4-4.62V68.2a11.15,11.15,0,0,1,1.74-6,1.4,1.4,0,1,0-2.37-1.5h0a14,14,0,0,0-2.18,7.49V71a11.24,11.24,0,0,0,1.64,5.83A9.82,9.82,0,0,0,353,85.05v14a1.41,1.41,0,1,0,2.81,0v-14a7,7,0,0,1,5.86-6.91l1.16,7.14a1.4,1.4,0,0,0,1.61,1.17h0a1.49,1.49,0,0,0,.4-.15l3.59-1.78V99.1a1.41,1.41,0,1,0,2.81,0V84.52l3.58,1.8a1.42,1.42,0,0,0,1.89-.63,1.9,1.9,0,0,0,.14-.4l1.19-7.16a15.82,15.82,0,0,1,4.12,1l4,1.6a1.27,1.27,0,0,0,.9,0l3.41-1,.91,2.72-3.17,1.59a5.62,5.62,0,0,1-3.63.49L380,83.65a1.4,1.4,0,0,0-1.67,1.07.11.11,0,0,0,0,0,1.31,1.31,0,0,0,0,.28v14a1.41,1.41,0,1,0,2.81,0V86.77l3,.59A8.45,8.45,0,0,0,389.53,86.64ZM369.86,79.9l-1.52-2a7.73,7.73,0,0,0,3,0Zm-5.62-13.22a9.22,9.22,0,0,0,5.62-3.11,9.19,9.19,0,0,0,5.62,3.11V69.6a5.62,5.62,0,1,1-11.24,0ZM365.31,83,364.49,78h.45l2.81,3.71Zm9.1,0L372,81.74,374.8,78h.45ZM393.22,79l1.48-.42a1,1,0,0,1,1.27.7,1,1,0,0,1-.53,1.21l-1.47.75Z"/><path class="cls-2" d="M376.88,103.32H360a4.21,4.21,0,0,0-4.21,4.21v2.81a1.41,1.41,0,1,0,2.81,0v-2.81a1.4,1.4,0,0,1,1.4-1.4h16.86a1.41,1.41,0,0,1,1.41,1.4v11.24a1.41,1.41,0,0,1-1.41,1.41h-1.4a1.41,1.41,0,0,0-1.41,1.4v3l-6.24-4.21a1.33,1.33,0,0,0-.78-.18h-7a1.41,1.41,0,0,1-1.4-1.41V116a1.41,1.41,0,0,0-2.81,0v2.81A4.22,4.22,0,0,0,360,123h6.61l8.07,5.38a1.41,1.41,0,0,0,1.94-.4,1.32,1.32,0,0,0,.24-.77V123a4.22,4.22,0,0,0,4.22-4.22V107.53A4.21,4.21,0,0,0,376.88,103.32Z"/><path class="cls-2" d="M416.22,124.39a1.41,1.41,0,0,0-1.41,1.41v7a1.41,1.41,0,0,0,2.81,0v-7A1.41,1.41,0,0,0,416.22,124.39Z"/><path class="cls-2" d="M433.08,112.87v-3.93a1.41,1.41,0,1,0-2.81,0v3.16a8.44,8.44,0,0,1-3.75,7l-3.28,2.18L420,119.12a8.39,8.39,0,0,1-3.75-7v-8.78a7,7,0,1,1,14,0,1.41,1.41,0,0,0,2.81,0,9.84,9.84,0,1,0-19.67,0v9.55a8.51,8.51,0,0,0-2.81,2.66,8.43,8.43,0,0,0-7-3.78h0a6.85,6.85,0,0,0,1.41-4.22h0a7,7,0,0,0-4.22-12.64H389.53a1.41,1.41,0,1,0,0,2.81h11.23a4.22,4.22,0,1,1,0,8.43h-5.61a4.22,4.22,0,0,1-4.22-4.22,1.41,1.41,0,0,0-2.81,0,7,7,0,0,0,2.81,5.62h0a6.85,6.85,0,0,0,1.41,4.22h0a8.42,8.42,0,0,0-8.43,8.43v12.64a1.41,1.41,0,0,0,2.81,0V120.18a5.61,5.61,0,0,1,5.62-5.62h11.23a5.61,5.61,0,0,1,5.62,5.62v12.64a1.41,1.41,0,0,0,2.81,0V120.18a5.63,5.63,0,0,1,2.05-4.34,11.27,11.27,0,0,0,4.36,5.61l4.06,2.7a1.39,1.39,0,0,0,1.56,0l4.05-2.7a11.25,11.25,0,0,0,4.35-5.61,5.6,5.6,0,0,1,2.05,4.34v12.64a1.41,1.41,0,0,0,2.81,0V120.18A8.43,8.43,0,0,0,433.08,112.87ZM394,108.82a6.56,6.56,0,0,0,1.18.12h5.61a6.56,6.56,0,0,0,1.18-.12,4.2,4.2,0,0,1-8,0Z"/><path class="cls-2" d="M390.93,124.39a1.4,1.4,0,0,0-1.4,1.41v7a1.41,1.41,0,0,0,2.81,0v-7A1.41,1.41,0,0,0,390.93,124.39Z"/><path class="cls-2" d="M405,124.39a1.41,1.41,0,0,0-1.41,1.41v7a1.41,1.41,0,0,0,2.81,0v-7A1.4,1.4,0,0,0,405,124.39Z"/><path class="cls-2" d="M430.27,124.39a1.41,1.41,0,0,0-1.41,1.41v7a1.41,1.41,0,0,0,2.81,0v-7A1.41,1.41,0,0,0,430.27,124.39Z"/><path class="cls-2" d="M361.43,99.1V87.86a1.41,1.41,0,0,0-2.81,0V99.1a1.41,1.41,0,1,0,2.81,0Z"/></g>
<g id="im_2" class="circ" data-name="palacios"><circle class="cls-1" cx="819.17" cy="924.8" r="65"/><path class="cls-2" d="M853.05,928.91H805.43v-2.53a4.11,4.11,0,0,0-4.1-4.1H788.17a4.1,4.1,0,0,0-1.45.26v-8.8a2.56,2.56,0,0,0-2.56-2.56H780a2.56,2.56,0,0,0-2.56,2.56v43.42a1.33,1.33,0,1,0,2.65,0V913.83h4v52.54h-4v-3a1.33,1.33,0,1,0-2.65,0v3.1A2.56,2.56,0,0,0,780,969h4.18a2.56,2.56,0,0,0,2.56-2.56V958h16.06v1.86a3.64,3.64,0,0,0,3.64,3.64h41v3A2.56,2.56,0,0,0,850,969h4.18a2.56,2.56,0,0,0,2.56-2.56V932.55A3.65,3.65,0,0,0,853.05,928.91Zm-50.27,19.8H786.72V935.9h16.06Zm-14.61-23.78h13.16a1.45,1.45,0,0,1,1.45,1.45v6.87H786.72v-6.87A1.45,1.45,0,0,1,788.17,924.93Zm-1.45,30.39V951.5h16.06v3.82Zm18.71,4.51V931.56h47.62a1,1,0,0,1,1,1v27.28a1,1,0,0,1-1,1H806.42A1,1,0,0,1,805.43,959.83Zm48.6,6.54h-4v-2.9h3l.33,0h.08l.3,0h0l.24-.06v3Z"/><path class="cls-2" d="M854.65,910.78c-11,0-10.27,0-10.56,0a10.46,10.46,0,0,0-2.06,0l-3-1.66h14.33a3.71,3.71,0,1,0,0-7.42h-1.45a25.3,25.3,0,0,0-3.86-8.06,1.32,1.32,0,1,0-2.15,1.54,22.85,22.85,0,0,1,3.24,6.52H805.26a23,23,0,0,1,36.67-10.8,1.33,1.33,0,0,0,1.71-2,25.68,25.68,0,0,0-13-5.72v-1.29a3.44,3.44,0,0,0-6.87,0v1.29a25.64,25.64,0,0,0-21.28,18.55H801.3a3.71,3.71,0,1,0,0,7.42h7.81a4,4,0,0,0-.45.85,1.73,1.73,0,0,0,.66,2l12,7.78a1.2,1.2,0,0,0,.61.2c17.66,1.37,13.22,1,20.48,1.73v1.65a2,2,0,0,0,2,2h3.09a2,2,0,0,0,2,1.69h5.07a2,2,0,0,0,2-2V912.82a2,2,0,0,0-2-2Zm-28.22-27.85v-1.07a.78.78,0,0,1,.78-.78.77.77,0,0,1,.77.78v1.07h-.06c-.51,0-1,0-1.49,0Zm26.94,21.42a1.06,1.06,0,1,1,0,2.11h-19.1c-3.25-1.81-1.79-1.24-5.51-2.11Zm-53.12,1.06a1.06,1.06,0,0,1,1-1.06h20.54a3.58,3.58,0,0,0-.31,2.1H801.3a1,1,0,0,1-1-1.05Zm22.94,3.71a3.66,3.66,0,0,0,.68.36l3.07,1.36-4.89.29-4.91-2Zm-.68,8.25-10.93-7,.22-.13a1.18,1.18,0,0,1,.94,0l8.58,3.52a1.34,1.34,0,0,0,.59.1c5.81-.35,5.53-.31,6.87-.48a2.26,2.26,0,0,0,2-2.07c.12-1.64-1.25-2.21-2.07-2.55l-.39-.16-3.38-1.49,0,0a1.18,1.18,0,0,1-.72-.88.59.59,0,0,1,0-.14h0l6.6,1.53L841,913.27c.37.21.61.17,1.41.17v5.61c-7.61-.78-2-.29-19.94-1.68Zm22.6-3.93h2.44v9.31h-2.44Zm8.92,11H850.2v-11H854Z"/></g>
<g id="im_1" class="circ" data-name="laura"><circle class="cls-1" cx="158.13" cy="263.76" r="65"/><g id="Outline"><path class="cls-2" d="M131.54,224.48h4.13v6a4.16,4.16,0,1,0,8.28,0v-3h-2.76v3a1.39,1.39,0,1,1-2.76,0v-9a2.77,2.77,0,1,1,5.52,0h-2.76v3h33.09v9.05a1.45,1.45,0,0,0,1.38,1.51h8.27v18.1h2.76V233.53a1.6,1.6,0,0,0-.41-1.07l-9.65-10.55a1.31,1.31,0,0,0-1-.45h-29a5.54,5.54,0,1,0-11,0h-5.51a1.45,1.45,0,0,0-1.38,1.51v36.2h2.76ZM177,226.61,182,232H177Z"/><path class="cls-2" d="M183.93,298.39h-9.65v3h11a1.45,1.45,0,0,0,1.38-1.51V280.29h-2.76Z"/><path class="cls-2" d="M145.32,284.82a1.44,1.44,0,0,0-1.37,1.5v7.55a1.44,1.44,0,0,0,1.37,1.5h8.28a1.44,1.44,0,0,0,1.38-1.5v-7.55a1.44,1.44,0,0,0-1.38-1.5Zm6.9,7.54H146.7v-4.53h5.52Z"/><path class="cls-2" d="M134.29,275.77h2.76v3h-2.76Z"/><path class="cls-2" d="M168.76,293.87c0-3.75-1.89-7.55-5.51-7.55s-5.52,3.8-5.52,7.55a2.53,2.53,0,0,1-1,1.95,5.65,5.65,0,0,0-1.78,4.12,6,6,0,0,0,.76,3H141.19V283.31a1.45,1.45,0,0,0-1.38-1.51h-8.27a1.45,1.45,0,0,0-1.38,1.51v19.61H126V276.28l16.55-7.92,16.54,7.92v8.54h2.76V277.6l2.2,1.06a1.35,1.35,0,0,0,1.82-.78,1.58,1.58,0,0,0,.12-.61v-7.54a1.52,1.52,0,0,0-.83-1.38l-22.06-10.56a1.27,1.27,0,0,0-1.11,0L120,268.35a1.51,1.51,0,0,0-.82,1.38v7.54a1.45,1.45,0,0,0,1.38,1.51,1.3,1.3,0,0,0,.55-.12l2.2-1.06v25.32h-4.13v3H166a5.63,5.63,0,0,0,3.43-1.41,5.94,5.94,0,0,0,2.08-4.58,5.61,5.61,0,0,0-1.79-4.12,2.56,2.56,0,0,1-1-1.95ZM121.89,275v-4.25l20.68-9.9,20.68,9.9V275l-1.38-.66v-.05h-.11l-18.64-8.93a1.27,1.27,0,0,0-1.11,0l-18.64,8.93h-.11v.05Zm11,9.85h5.51v18.1h-5.51ZM166,302.92h-5.52a3.1,3.1,0,0,1-2.76-3,2.6,2.6,0,0,1,1-2,5.56,5.56,0,0,0,1.77-4.07c0-3.58,1.8-4.53,2.76-4.53,2.18,0,2.76,3,2.76,4.53a5.56,5.56,0,0,0,1.77,4.07,2.62,2.62,0,0,1,1,2A3.1,3.1,0,0,1,166,302.92Z"/><path class="cls-2" d="M197.1,255.87l3.26-5.27a4.79,4.79,0,0,0-1.08-6.29,3.92,3.92,0,0,0-5.75,1.19l0,0-22.4,36.23a1.67,1.67,0,0,0-.22.65l-.81,6.69a1.48,1.48,0,0,0,1.19,1.69,1.3,1.3,0,0,0,.86-.18l5.37-3.31a1.3,1.3,0,0,0,.46-.47l17.55-28.38,1.9,2.31-5.58,9,2.29,1.69,6.18-10a1.64,1.64,0,0,0-.12-1.86Zm-1.31-8.65a1.31,1.31,0,0,1,1.92-.41,1.6,1.6,0,0,1,.38,2.09h0l-2.87,4.65-1.9-2.32Zm-19.93,37.63-2.68,1.65.4-3.34,3.68-6,2.28,1.69Zm5.23-8.45-2.29-1.69,12.92-20.89,1.89,2.31Z"/><path class="cls-2" d="M139.81,239.56h2.76v3h-2.76Z"/><path class="cls-2" d="M145.32,239.56h33.09v3H145.32Z"/><path class="cls-2" d="M137.05,245.6h41.36v3H137.05Z"/><path class="cls-2" d="M137.05,251.63h41.36v3H137.05Z"/><path class="cls-2" d="M157.73,257.67h20.68v3H157.73Z"/><path class="cls-2" d="M168.76,263.7h4.14v3h-4.14Z"/></g></g></svg>
                
