<svg id="Capa_1" data-name="Capa 1" xmlns="http://www.w3.org/2000/svg" viewBox="0 0 100 125"><defs><style>.cls-1{fill:#fff;}</style></defs><path class="cls-1" d="M12.81,8A2.07,2.07,0,0,0,11,10V90a2.07,2.07,0,0,0,2,2H71a2.07,2.07,0,0,0,2-2V74c.22-.16.45-.3.66-.47L85.6,85.41a2,2,0,1,0,2.81-2.85L76.5,70.66A20,20,0,0,0,73,42.06V28a2,2,0,0,0-.59-1.44l-18-18A2,2,0,0,0,53,8ZM15,12H50V29a2.07,2.07,0,0,0,2,2H69v8.69A19.86,19.86,0,0,0,45.85,45h-22A2,2,0,0,0,24,49H43.16a19.79,19.79,0,0,0-2.06,7H23.81A2,2,0,1,0,24,60H41.1a19.58,19.58,0,0,0,2.06,7H23.81A2,2,0,0,0,24,71H45.81A20,20,0,0,0,60,78H23.81A2,2,0,0,0,24,82H60a2,2,0,1,0,0-4c.33,0,.67,0,1,0a19.78,19.78,0,0,0,8-1.66V88H15Zm39,1.81L67.19,27H54ZM61,42A16,16,0,1,1,45,58,16,16,0,0,1,61,42Zm-.22,5A2.07,2.07,0,0,0,59,49v2a2,2,0,1,0,4,0V49A2.08,2.08,0,0,0,60.78,47Zm0,9A2.07,2.07,0,0,0,59,58v9a2,2,0,1,0,4,0V58A2.08,2.08,0,0,0,60.78,56Z"/></svg>