<?xml version="1.0" encoding="utf-8"?>
<!-- Generator: Adobe Illustrator 24.0.2, SVG Export Plug-In . SVG Version: 6.00 Build 0)  -->
<svg version="1.1" id="Capa_1" xmlns="http://www.w3.org/2000/svg" xmlns:xlink="http://www.w3.org/1999/xlink" x="0px" y="0px"
	 viewBox="0 0 680 480" style="enable-background:new 0 0 680 480;" xml:space="preserve">
<style type="text/css">
	.st0{fill:#252525;}
	.st1{fill:none;stroke:#FF5757;stroke-miterlimit:10;}
	.st2{opacity:0.7;}
	.st3{fill:#FF5757;}
	.st4{fill:#FFFFFF;}
	.st5{opacity:0.6;}
	.st6{opacity:0.5;}
	.st7{opacity:0.4;}
	.st8{opacity:0.8;}
	.st9{opacity:0.9;}
	.st10{fill:none;stroke:#FFFFFF;stroke-width:3;stroke-miterlimit:10;}
</style>
<rect x="-1" y="1" class="st0" width="680" height="479"/>
<g>
	<g>
		<path class="st4" d="M324.5,426.3v-1.2c0-0.5,0.1-0.9,0.2-1.2c0.2-0.3,0.4-0.6,0.6-0.8c0.3-0.2,0.6-0.4,1-0.5l1.6-0.6
			c0.4-0.2,0.7-0.4,0.9-0.6s0.3-0.6,0.3-1c0-0.4-0.1-0.8-0.4-1c-0.3-0.3-0.7-0.4-1.2-0.4c-0.5,0-0.9,0.1-1.3,0.3
			c-0.3,0.2-0.5,0.5-0.6,1h-1.1c0-0.5,0.2-0.9,0.4-1.2c0.2-0.3,0.6-0.6,1-0.8c0.4-0.2,0.9-0.3,1.5-0.3c0.5,0,1,0.1,1.4,0.3
			c0.4,0.2,0.7,0.5,1,0.8c0.2,0.4,0.4,0.8,0.4,1.2c0,0.4-0.1,0.8-0.2,1.1c-0.2,0.3-0.4,0.6-0.7,0.8s-0.6,0.4-1,0.6l-1.7,0.7
			c-0.4,0.2-0.7,0.4-0.9,0.6c-0.2,0.2-0.3,0.5-0.3,0.9v0.4h4.7v0.9H324.5z"/>
		<path class="st4" d="M335,426.4c-0.6,0-1.2-0.2-1.7-0.5c-0.5-0.3-0.9-0.8-1.1-1.4c-0.3-0.6-0.4-1.4-0.4-2.4s0.1-1.7,0.4-2.4
			c0.3-0.6,0.6-1.1,1.1-1.4c0.5-0.3,1-0.5,1.7-0.5c0.6,0,1.2,0.2,1.7,0.5c0.5,0.3,0.9,0.8,1.1,1.4s0.4,1.4,0.4,2.4s-0.1,1.7-0.4,2.4
			c-0.3,0.6-0.6,1.1-1.1,1.4C336.2,426.3,335.7,426.4,335,426.4z M335,425.5c0.7,0,1.2-0.3,1.6-0.9c0.4-0.6,0.5-1.4,0.5-2.4
			s-0.2-1.9-0.5-2.4c-0.4-0.6-0.9-0.9-1.6-0.9c-0.7,0-1.2,0.3-1.6,0.9c-0.4,0.6-0.6,1.4-0.6,2.4s0.2,1.9,0.6,2.4
			C333.8,425.2,334.3,425.5,335,425.5z"/>
		<path class="st4" d="M341.1,418.1h0.8v8.2h-1v-7c-0.2,0.1-0.4,0.3-0.7,0.3c-0.2,0.1-0.5,0.1-0.7,0.1v-1c0.3,0,0.5-0.1,0.8-0.2
			C340.6,418.4,340.8,418.3,341.1,418.1z"/>
		<path class="st4" d="M344,426.3l3.9-7.2h-4.4v-1h5.6v0.9l-3.8,7.2H344z"/>
	</g>
</g>
<g>
	<g>
		<path class="st4" d="M236.9,426.3v-1.2c0-0.5,0.1-0.9,0.2-1.2c0.2-0.3,0.4-0.6,0.6-0.8c0.3-0.2,0.6-0.4,1-0.5l1.6-0.6
			c0.4-0.2,0.7-0.4,0.9-0.6s0.3-0.6,0.3-1c0-0.4-0.1-0.8-0.4-1c-0.3-0.3-0.7-0.4-1.2-0.4c-0.5,0-0.9,0.1-1.3,0.3
			c-0.3,0.2-0.5,0.5-0.6,1h-1.1c0-0.5,0.2-0.9,0.4-1.2c0.2-0.3,0.6-0.6,1-0.8c0.4-0.2,0.9-0.3,1.5-0.3c0.5,0,1,0.1,1.4,0.3
			c0.4,0.2,0.7,0.5,1,0.8c0.2,0.4,0.4,0.8,0.4,1.2c0,0.4-0.1,0.8-0.2,1.1c-0.2,0.3-0.4,0.6-0.7,0.8s-0.6,0.4-1,0.6l-1.7,0.7
			c-0.4,0.2-0.7,0.4-0.9,0.6c-0.2,0.2-0.3,0.5-0.3,0.9v0.4h4.7v0.9H236.9z"/>
		<path class="st4" d="M247.5,426.4c-0.6,0-1.2-0.2-1.7-0.5c-0.5-0.3-0.9-0.8-1.1-1.4c-0.3-0.6-0.4-1.4-0.4-2.4s0.1-1.7,0.4-2.4
			c0.3-0.6,0.6-1.1,1.1-1.4c0.5-0.3,1-0.5,1.7-0.5c0.6,0,1.2,0.2,1.7,0.5c0.5,0.3,0.9,0.8,1.1,1.4s0.4,1.4,0.4,2.4s-0.1,1.7-0.4,2.4
			c-0.3,0.6-0.6,1.1-1.1,1.4C248.7,426.3,248.1,426.4,247.5,426.4z M247.5,425.5c0.7,0,1.2-0.3,1.6-0.9c0.4-0.6,0.5-1.4,0.5-2.4
			s-0.2-1.9-0.5-2.4c-0.4-0.6-0.9-0.9-1.6-0.9c-0.7,0-1.2,0.3-1.6,0.9c-0.4,0.6-0.6,1.4-0.6,2.4s0.2,1.9,0.6,2.4
			C246.3,425.2,246.8,425.5,247.5,425.5z"/>
		<path class="st4" d="M253.5,418.1h0.8v8.2h-1v-7c-0.2,0.1-0.4,0.3-0.7,0.3c-0.2,0.1-0.5,0.1-0.7,0.1v-1c0.3,0,0.5-0.1,0.8-0.2
			C253,418.4,253.3,418.3,253.5,418.1z"/>
		<path class="st4" d="M259.6,426.4c-0.7,0-1.2-0.2-1.7-0.5c-0.5-0.4-0.9-0.8-1.1-1.5c-0.3-0.6-0.4-1.3-0.4-2.1
			c0-0.9,0.1-1.7,0.4-2.3c0.3-0.7,0.7-1.2,1.2-1.5c0.5-0.3,1.1-0.5,1.8-0.5c0.5,0,0.9,0.1,1.3,0.3c0.4,0.2,0.7,0.4,0.9,0.8
			c0.2,0.3,0.4,0.7,0.4,1.2h-1.1c-0.1-0.4-0.2-0.7-0.4-0.9c-0.2-0.2-0.6-0.3-1-0.3c-0.7,0-1.3,0.3-1.8,1c-0.4,0.6-0.6,1.5-0.6,2.6
			c0,0.2,0,0.3,0,0.6c0,0.2,0,0.4,0.1,0.6c0-0.6,0.2-1,0.4-1.4c0.2-0.3,0.5-0.6,0.9-0.7s0.7-0.2,1.1-0.2c0.5,0,0.9,0.1,1.3,0.3
			s0.7,0.5,0.9,0.9c0.2,0.4,0.3,0.8,0.3,1.3c0,0.5-0.1,0.9-0.4,1.3c-0.2,0.4-0.6,0.7-1,0.9S260.1,426.4,259.6,426.4z M259.6,425.5
			c0.5,0,0.9-0.1,1.2-0.4c0.3-0.3,0.5-0.7,0.5-1.2c0-0.5-0.2-0.9-0.5-1.2c-0.3-0.3-0.7-0.4-1.2-0.4c-0.3,0-0.6,0.1-0.9,0.2
			s-0.5,0.3-0.6,0.6c-0.1,0.2-0.2,0.5-0.2,0.8c0,0.5,0.2,0.9,0.5,1.2C258.7,425.3,259.1,425.5,259.6,425.5z"/>
	</g>
</g>
<g>
	<g>
		<path class="st4" d="M157.9,426.3v-1.2c0-0.5,0.1-0.9,0.2-1.2c0.2-0.3,0.4-0.6,0.6-0.8c0.3-0.2,0.6-0.4,1-0.5l1.6-0.6
			c0.4-0.2,0.7-0.4,0.9-0.6s0.3-0.6,0.3-1c0-0.4-0.1-0.8-0.4-1c-0.3-0.3-0.7-0.4-1.2-0.4c-0.5,0-0.9,0.1-1.3,0.3
			c-0.3,0.2-0.5,0.5-0.6,1h-1.1c0-0.5,0.2-0.9,0.4-1.2c0.2-0.3,0.6-0.6,1-0.8c0.4-0.2,0.9-0.3,1.5-0.3c0.5,0,1,0.1,1.4,0.3
			c0.4,0.2,0.7,0.5,1,0.8c0.2,0.4,0.4,0.8,0.4,1.2c0,0.4-0.1,0.8-0.2,1.1c-0.2,0.3-0.4,0.6-0.7,0.8s-0.6,0.4-1,0.6l-1.7,0.7
			c-0.4,0.2-0.7,0.4-0.9,0.6c-0.2,0.2-0.3,0.5-0.3,0.9v0.4h4.7v0.9H157.9z"/>
		<path class="st4" d="M168.5,426.4c-0.6,0-1.2-0.2-1.7-0.5c-0.5-0.3-0.9-0.8-1.1-1.4c-0.3-0.6-0.4-1.4-0.4-2.4s0.1-1.7,0.4-2.4
			c0.3-0.6,0.6-1.1,1.1-1.4c0.5-0.3,1-0.5,1.7-0.5c0.6,0,1.2,0.2,1.7,0.5c0.5,0.3,0.9,0.8,1.1,1.4s0.4,1.4,0.4,2.4s-0.1,1.7-0.4,2.4
			c-0.3,0.6-0.6,1.1-1.1,1.4C169.7,426.3,169.1,426.4,168.5,426.4z M168.5,425.5c0.7,0,1.2-0.3,1.6-0.9c0.4-0.6,0.5-1.4,0.5-2.4
			s-0.2-1.9-0.5-2.4c-0.4-0.6-0.9-0.9-1.6-0.9c-0.7,0-1.2,0.3-1.6,0.9c-0.4,0.6-0.6,1.4-0.6,2.4s0.2,1.9,0.6,2.4
			C167.3,425.2,167.8,425.5,168.5,425.5z"/>
		<path class="st4" d="M174.5,418.1h0.8v8.2h-1v-7c-0.2,0.1-0.4,0.3-0.7,0.3c-0.2,0.1-0.5,0.1-0.7,0.1v-1c0.3,0,0.5-0.1,0.8-0.2
			C174,418.4,174.3,418.3,174.5,418.1z"/>
		<path class="st4" d="M180.3,426.4c-0.5,0-1-0.1-1.4-0.3c-0.4-0.2-0.8-0.5-1-0.8c-0.3-0.4-0.4-0.8-0.4-1.3h1c0,0.5,0.2,0.9,0.5,1.1
			c0.3,0.3,0.8,0.4,1.3,0.4c0.6,0,1-0.2,1.4-0.5c0.3-0.4,0.5-0.8,0.5-1.3c0-1-0.7-1.6-2-1.6H178l0.4-4h4.5v0.9h-3.7l0.2-0.4
			l-0.3,2.8l-0.1-0.1c0.2,0,0.4-0.1,0.7-0.1s0.5,0,0.7,0c0.9,0,1.6,0.2,2.1,0.6s0.8,1,0.8,1.8c0,0.5-0.1,1-0.4,1.4
			c-0.2,0.4-0.6,0.8-1,1C181.4,426.3,180.9,426.4,180.3,426.4z"/>
	</g>
</g>
<g>
	<g>
		<path class="st4" d="M74.9,426.3v-1.2c0-0.5,0.1-0.9,0.2-1.2c0.2-0.3,0.4-0.6,0.6-0.8c0.3-0.2,0.6-0.4,1-0.5l1.6-0.6
			c0.4-0.2,0.7-0.4,0.9-0.6s0.3-0.6,0.3-1c0-0.4-0.1-0.8-0.4-1c-0.3-0.3-0.7-0.4-1.2-0.4c-0.5,0-0.9,0.1-1.3,0.3
			c-0.3,0.2-0.5,0.5-0.6,1h-1.1c0-0.5,0.2-0.9,0.4-1.2c0.2-0.3,0.6-0.6,1-0.8c0.4-0.2,0.9-0.3,1.5-0.3c0.5,0,1,0.1,1.4,0.3
			c0.4,0.2,0.7,0.5,1,0.8c0.2,0.4,0.4,0.8,0.4,1.2c0,0.4-0.1,0.8-0.2,1.1c-0.2,0.3-0.4,0.6-0.7,0.8s-0.6,0.4-1,0.6l-1.7,0.7
			c-0.4,0.2-0.7,0.4-0.9,0.6c-0.2,0.2-0.3,0.5-0.3,0.9v0.4h4.7v0.9H74.9z"/>
		<path class="st4" d="M85.5,426.4c-0.6,0-1.2-0.2-1.7-0.5c-0.5-0.3-0.9-0.8-1.1-1.4c-0.3-0.6-0.4-1.4-0.4-2.4s0.1-1.7,0.4-2.4
			c0.3-0.6,0.6-1.1,1.1-1.4c0.5-0.3,1-0.5,1.7-0.5c0.6,0,1.2,0.2,1.7,0.5c0.5,0.3,0.9,0.8,1.1,1.4s0.4,1.4,0.4,2.4s-0.1,1.7-0.4,2.4
			c-0.3,0.6-0.6,1.1-1.1,1.4C86.7,426.3,86.1,426.4,85.5,426.4z M85.5,425.5c0.7,0,1.2-0.3,1.6-0.9c0.4-0.6,0.5-1.4,0.5-2.4
			s-0.2-1.9-0.5-2.4c-0.4-0.6-0.9-0.9-1.6-0.9c-0.7,0-1.2,0.3-1.6,0.9c-0.4,0.6-0.6,1.4-0.6,2.4s0.2,1.9,0.6,2.4
			C84.3,425.2,84.8,425.5,85.5,425.5z"/>
		<path class="st4" d="M91.5,418.1h0.8v8.2h-1v-7c-0.2,0.1-0.4,0.3-0.7,0.3c-0.2,0.1-0.5,0.1-0.7,0.1v-1c0.3,0,0.5-0.1,0.8-0.2
			C91,418.4,91.3,418.3,91.5,418.1z"/>
		<path class="st4" d="M98.3,418h0.9v5.4h1.4v0.9h-1.4v2h-1v-2H94v-0.8L98.3,418z M98.2,419.6l-3.1,3.9h3.1V419.6z"/>
	</g>
</g>
<g>
	<g>
		<path class="st4" d="M487.9,426.3v-1.2c0-0.5,0.1-0.9,0.2-1.2c0.2-0.3,0.4-0.6,0.6-0.8c0.3-0.2,0.6-0.4,1-0.5l1.6-0.6
			c0.4-0.2,0.7-0.4,0.9-0.6s0.3-0.6,0.3-1c0-0.4-0.1-0.8-0.4-1c-0.3-0.3-0.7-0.4-1.2-0.4c-0.5,0-0.9,0.1-1.3,0.3
			c-0.3,0.2-0.5,0.5-0.6,1h-1.1c0-0.5,0.2-0.9,0.4-1.2c0.3-0.3,0.6-0.6,1-0.8c0.4-0.2,0.9-0.3,1.5-0.3c0.5,0,1,0.1,1.4,0.3
			c0.4,0.2,0.7,0.5,1,0.8c0.2,0.4,0.4,0.8,0.4,1.2c0,0.4-0.1,0.8-0.2,1.1c-0.2,0.3-0.4,0.6-0.7,0.8s-0.6,0.4-1,0.6l-1.7,0.7
			c-0.4,0.2-0.7,0.4-0.9,0.6c-0.2,0.2-0.3,0.5-0.3,0.9v0.4h4.7v0.9H487.9z"/>
		<path class="st4" d="M498.5,426.4c-0.6,0-1.2-0.2-1.7-0.5c-0.5-0.3-0.9-0.8-1.1-1.4c-0.3-0.6-0.4-1.4-0.4-2.4s0.1-1.7,0.4-2.4
			c0.3-0.6,0.6-1.1,1.1-1.4c0.5-0.3,1-0.5,1.7-0.5c0.6,0,1.2,0.2,1.7,0.5c0.5,0.3,0.9,0.8,1.1,1.4c0.3,0.6,0.4,1.4,0.4,2.4
			s-0.1,1.7-0.4,2.4c-0.3,0.6-0.6,1.1-1.1,1.4C499.7,426.3,499.1,426.4,498.5,426.4z M498.5,425.5c0.7,0,1.2-0.3,1.6-0.9
			c0.4-0.6,0.5-1.4,0.5-2.4s-0.2-1.9-0.5-2.4c-0.4-0.6-0.9-0.9-1.6-0.9c-0.7,0-1.2,0.3-1.6,0.9c-0.4,0.6-0.6,1.4-0.6,2.4
			s0.2,1.9,0.6,2.4C497.3,425.2,497.8,425.5,498.5,425.5z"/>
		<path class="st4" d="M504.5,418.1h0.8v8.2h-1v-7c-0.2,0.1-0.4,0.3-0.7,0.3c-0.2,0.1-0.5,0.1-0.7,0.1v-1c0.3,0,0.5-0.1,0.8-0.2
			C504,418.4,504.3,418.3,504.5,418.1z"/>
		<path class="st4" d="M510.3,426.4c-0.5,0-1-0.1-1.4-0.3c-0.4-0.2-0.7-0.5-1-0.9c-0.2-0.4-0.4-0.8-0.4-1.3h1.1
			c0,0.5,0.2,0.9,0.5,1.2s0.7,0.4,1.2,0.4c0.5,0,0.9-0.1,1.2-0.4c0.3-0.3,0.6-0.7,0.7-1.3c0.1-0.5,0.2-1.2,0.2-1.9
			c0-0.2,0-0.3,0-0.5c0-0.1,0-0.3-0.1-0.5c-0.1,0.5-0.2,0.9-0.4,1.2c-0.2,0.3-0.5,0.5-0.8,0.7c-0.3,0.2-0.7,0.2-1.1,0.2
			c-0.5,0-0.9-0.1-1.3-0.3c-0.4-0.2-0.7-0.5-0.9-0.9c-0.2-0.4-0.3-0.8-0.3-1.3c0-0.5,0.1-0.9,0.3-1.3c0.2-0.4,0.6-0.7,1-0.9
			c0.4-0.2,0.9-0.3,1.4-0.3c0.5,0,0.9,0.1,1.3,0.3c0.4,0.2,0.7,0.5,1,0.8c0.3,0.4,0.5,0.8,0.7,1.3s0.2,1.1,0.2,1.7
			c0,0.9-0.1,1.7-0.3,2.3c-0.2,0.7-0.6,1.2-1,1.5C511.7,426.2,511.1,426.4,510.3,426.4z M510.3,422.1c0.3,0,0.6-0.1,0.9-0.2
			c0.3-0.1,0.5-0.3,0.6-0.6c0.2-0.2,0.2-0.5,0.2-0.8c0-0.5-0.2-0.9-0.5-1.2c-0.3-0.3-0.7-0.4-1.2-0.4c-0.5,0-0.9,0.1-1.2,0.4
			c-0.3,0.3-0.5,0.7-0.5,1.2c0,0.5,0.2,0.9,0.5,1.2C509.4,422,509.8,422.1,510.3,422.1z"/>
	</g>
</g>
<g>
	<g>
		<path class="st4" d="M405.9,426.3v-1.2c0-0.5,0.1-0.9,0.2-1.2c0.2-0.3,0.4-0.6,0.6-0.8c0.3-0.2,0.6-0.4,1-0.5l1.6-0.6
			c0.4-0.2,0.7-0.4,0.9-0.6s0.3-0.6,0.3-1c0-0.4-0.1-0.8-0.4-1c-0.3-0.3-0.7-0.4-1.2-0.4c-0.5,0-0.9,0.1-1.3,0.3
			c-0.3,0.2-0.5,0.5-0.6,1h-1.1c0-0.5,0.2-0.9,0.4-1.2c0.3-0.3,0.6-0.6,1-0.8c0.4-0.2,0.9-0.3,1.5-0.3c0.5,0,1,0.1,1.4,0.3
			c0.4,0.2,0.7,0.5,1,0.8c0.2,0.4,0.4,0.8,0.4,1.2c0,0.4-0.1,0.8-0.2,1.1c-0.2,0.3-0.4,0.6-0.7,0.8s-0.6,0.4-1,0.6l-1.7,0.7
			c-0.4,0.2-0.7,0.4-0.9,0.6c-0.2,0.2-0.3,0.5-0.3,0.9v0.4h4.7v0.9H405.9z"/>
		<path class="st4" d="M416.5,426.4c-0.6,0-1.2-0.2-1.7-0.5c-0.5-0.3-0.9-0.8-1.1-1.4c-0.3-0.6-0.4-1.4-0.4-2.4s0.1-1.7,0.4-2.4
			c0.3-0.6,0.6-1.1,1.1-1.4c0.5-0.3,1-0.5,1.7-0.5c0.6,0,1.2,0.2,1.7,0.5c0.5,0.3,0.9,0.8,1.1,1.4c0.3,0.6,0.4,1.4,0.4,2.4
			s-0.1,1.7-0.4,2.4c-0.3,0.6-0.6,1.1-1.1,1.4C417.7,426.3,417.1,426.4,416.5,426.4z M416.5,425.5c0.7,0,1.2-0.3,1.6-0.9
			c0.4-0.6,0.5-1.4,0.5-2.4s-0.2-1.9-0.5-2.4c-0.4-0.6-0.9-0.9-1.6-0.9c-0.7,0-1.2,0.3-1.6,0.9c-0.4,0.6-0.6,1.4-0.6,2.4
			s0.2,1.9,0.6,2.4C415.3,425.2,415.8,425.5,416.5,425.5z"/>
		<path class="st4" d="M422.5,418.1h0.8v8.2h-1v-7c-0.2,0.1-0.4,0.3-0.7,0.3c-0.2,0.1-0.5,0.1-0.7,0.1v-1c0.3,0,0.5-0.1,0.8-0.2
			C422,418.4,422.3,418.3,422.5,418.1z"/>
		<path class="st4" d="M428.6,426.4c-0.6,0-1.2-0.1-1.7-0.3c-0.5-0.2-0.9-0.5-1.2-0.8s-0.4-0.8-0.4-1.2c0-0.4,0.1-0.8,0.3-1.1
			c0.2-0.3,0.5-0.5,0.9-0.7s0.8-0.2,1.3-0.2c0.1,0,0.2,0,0.4,0s0.2,0,0.4,0.1v0.3c-0.4,0-0.8,0.1-1.1,0.2c-0.3,0.1-0.6,0.3-0.8,0.6
			c-0.2,0.2-0.3,0.5-0.3,0.7c0,0.3,0.1,0.6,0.3,0.8c0.2,0.2,0.5,0.4,0.8,0.5c0.3,0.1,0.7,0.2,1.1,0.2c0.7,0,1.2-0.1,1.6-0.3
			c0.4-0.2,0.6-0.5,0.6-0.9c0-0.3-0.1-0.5-0.3-0.7c-0.2-0.2-0.5-0.4-0.8-0.5l-2.2-0.9c-0.3-0.1-0.5-0.2-0.8-0.4s-0.5-0.4-0.7-0.7
			c-0.2-0.3-0.3-0.6-0.3-1c0-0.4,0.1-0.8,0.4-1.1c0.2-0.3,0.6-0.6,1-0.8c0.4-0.2,1-0.3,1.6-0.3c0.6,0,1.1,0.1,1.5,0.3
			c0.4,0.2,0.8,0.5,1.1,0.8s0.4,0.7,0.4,1.2c0,0.3-0.1,0.7-0.3,0.9c-0.2,0.3-0.4,0.5-0.8,0.7c-0.3,0.2-0.7,0.3-1.2,0.3
			c-0.1,0-0.2,0-0.3,0c-0.1,0-0.2,0-0.4-0.1v-0.3c0.4,0,0.7-0.1,0.9-0.2c0.3-0.1,0.5-0.3,0.7-0.5c0.2-0.2,0.3-0.5,0.3-0.7
			c0-0.3-0.1-0.5-0.2-0.7s-0.4-0.4-0.7-0.5c-0.3-0.1-0.6-0.2-1-0.2c-0.4,0-0.7,0.1-1,0.2c-0.3,0.1-0.5,0.3-0.7,0.5
			c-0.2,0.2-0.3,0.4-0.3,0.6c0,0.3,0.1,0.5,0.3,0.7s0.5,0.3,0.8,0.5l2.2,0.9c0.6,0.2,1.1,0.5,1.4,0.8c0.3,0.3,0.5,0.7,0.5,1.3
			c0,0.4-0.1,0.8-0.4,1.1c-0.3,0.3-0.6,0.6-1.1,0.8C429.9,426.3,429.3,426.4,428.6,426.4z"/>
	</g>
</g>
<g>
	<g>
		<path class="st4" d="M573.1,426.3v-1.2c0-0.5,0.1-0.9,0.2-1.2c0.2-0.3,0.4-0.6,0.6-0.8c0.3-0.2,0.6-0.4,1-0.5l1.6-0.6
			c0.4-0.2,0.7-0.4,0.9-0.6s0.3-0.6,0.3-1c0-0.4-0.1-0.8-0.4-1c-0.3-0.3-0.7-0.4-1.2-0.4c-0.5,0-0.9,0.1-1.3,0.3
			c-0.3,0.2-0.5,0.5-0.6,1h-1.1c0-0.5,0.2-0.9,0.4-1.2c0.3-0.3,0.6-0.6,1-0.8c0.4-0.2,0.9-0.3,1.5-0.3c0.5,0,1,0.1,1.4,0.3
			c0.4,0.2,0.7,0.5,1,0.8c0.2,0.4,0.4,0.8,0.4,1.2c0,0.4-0.1,0.8-0.2,1.1c-0.2,0.3-0.4,0.6-0.7,0.8s-0.6,0.4-1,0.6l-1.7,0.7
			c-0.4,0.2-0.7,0.4-0.9,0.6c-0.2,0.2-0.3,0.5-0.3,0.9v0.4h4.7v0.9H573.1z"/>
		<path class="st4" d="M583.7,426.4c-0.6,0-1.2-0.2-1.7-0.5c-0.5-0.3-0.9-0.8-1.1-1.4c-0.3-0.6-0.4-1.4-0.4-2.4s0.1-1.7,0.4-2.4
			c0.3-0.6,0.6-1.1,1.1-1.4c0.5-0.3,1-0.5,1.7-0.5c0.6,0,1.2,0.2,1.7,0.5c0.5,0.3,0.9,0.8,1.1,1.4c0.3,0.6,0.4,1.4,0.4,2.4
			s-0.1,1.7-0.4,2.4c-0.3,0.6-0.6,1.1-1.1,1.4C584.9,426.3,584.3,426.4,583.7,426.4z M583.7,425.5c0.7,0,1.2-0.3,1.6-0.9
			c0.4-0.6,0.5-1.4,0.5-2.4s-0.2-1.9-0.5-2.4c-0.4-0.6-0.9-0.9-1.6-0.9c-0.7,0-1.2,0.3-1.6,0.9c-0.4,0.6-0.6,1.4-0.6,2.4
			s0.2,1.9,0.6,2.4C582.5,425.2,583,425.5,583.7,425.5z"/>
		<path class="st4" d="M588.4,426.3v-1.2c0-0.5,0.1-0.9,0.2-1.2s0.4-0.6,0.7-0.8s0.6-0.4,1-0.5l1.6-0.6c0.4-0.2,0.7-0.4,0.9-0.6
			s0.3-0.6,0.3-1c0-0.4-0.1-0.8-0.4-1c-0.3-0.3-0.7-0.4-1.2-0.4c-0.5,0-0.9,0.1-1.3,0.3c-0.3,0.2-0.5,0.5-0.6,1h-1.1
			c0-0.5,0.2-0.9,0.4-1.2c0.2-0.3,0.6-0.6,1-0.8c0.4-0.2,0.9-0.3,1.5-0.3c0.5,0,1,0.1,1.4,0.3c0.4,0.2,0.7,0.5,1,0.8
			s0.4,0.8,0.4,1.2c0,0.4-0.1,0.8-0.2,1.1c-0.2,0.3-0.4,0.6-0.7,0.8s-0.6,0.4-1,0.6l-1.7,0.7c-0.4,0.2-0.7,0.4-0.9,0.6
			c-0.2,0.2-0.3,0.5-0.3,0.9v0.4h4.7v0.9H588.4z"/>
		<path class="st4" d="M598.9,426.4c-0.6,0-1.2-0.2-1.7-0.5c-0.5-0.3-0.9-0.8-1.1-1.4c-0.3-0.6-0.4-1.4-0.4-2.4s0.1-1.7,0.4-2.4
			c0.3-0.6,0.6-1.1,1.1-1.4c0.5-0.3,1-0.5,1.7-0.5c0.6,0,1.2,0.2,1.7,0.5c0.5,0.3,0.9,0.8,1.1,1.4s0.4,1.4,0.4,2.4s-0.1,1.7-0.4,2.4
			c-0.3,0.6-0.6,1.1-1.1,1.4C600.1,426.3,599.6,426.4,598.9,426.4z M598.9,425.5c0.7,0,1.2-0.3,1.6-0.9s0.5-1.4,0.5-2.4
			s-0.2-1.9-0.5-2.4s-0.9-0.9-1.6-0.9c-0.7,0-1.2,0.3-1.6,0.9s-0.6,1.4-0.6,2.4s0.2,1.9,0.6,2.4S598.2,425.5,598.9,425.5z"/>
	</g>
</g>
<line class="st1" x1="335.3" y1="279.1" x2="336.8" y2="279"/>
<line class="st1" x1="414" y1="275" x2="415.5" y2="274.9"/>
<line class="st1" x1="409.3" y1="275.2" x2="410.8" y2="275.2"/>
<line class="st1" x1="404.7" y1="275.5" x2="406.2" y2="275.4"/>
<line class="st1" x1="400.1" y1="275.7" x2="401.6" y2="275.6"/>
<line class="st1" x1="395.5" y1="276" x2="397" y2="275.9"/>
<line class="st1" x1="390.8" y1="276.2" x2="392.3" y2="276.1"/>
<line class="st1" x1="386.2" y1="276.4" x2="387.7" y2="276.4"/>
<line class="st1" x1="381.6" y1="276.7" x2="383.1" y2="276.6"/>
<line class="st1" x1="377" y1="276.9" x2="378.5" y2="276.9"/>
<line class="st1" x1="372.3" y1="277.2" x2="373.8" y2="277.1"/>
<line class="st1" x1="367.7" y1="277.4" x2="369.2" y2="277.3"/>
<line class="st1" x1="363.1" y1="277.7" x2="364.6" y2="277.6"/>
<line class="st1" x1="358.5" y1="277.9" x2="360" y2="277.8"/>
<line class="st1" x1="353.8" y1="278.1" x2="355.3" y2="278.1"/>
<line class="st1" x1="349.2" y1="278.4" x2="350.7" y2="278.3"/>
<line class="st1" x1="344.6" y1="278.6" x2="346.1" y2="278.6"/>
<line class="st1" x1="340" y1="278.9" x2="341.5" y2="278.8"/>
<line class="st1" x1="418.6" y1="274.8" x2="420.1" y2="274.7"/>
<line class="st1" x1="499.3" y1="274.9" x2="500.8" y2="274.9"/>
<line class="st1" x1="578" y1="274.9" x2="579.5" y2="274.9"/>
<line class="st1" x1="573.4" y1="274.9" x2="574.9" y2="274.9"/>
<line class="st1" x1="568.7" y1="274.9" x2="570.3" y2="274.9"/>
<line class="st1" x1="564.1" y1="274.9" x2="565.6" y2="274.9"/>
<line class="st1" x1="559.5" y1="274.9" x2="561" y2="274.9"/>
<line class="st1" x1="554.9" y1="274.9" x2="556.4" y2="274.9"/>
<line class="st1" x1="550.2" y1="274.9" x2="551.7" y2="274.9"/>
<line class="st1" x1="545.6" y1="274.9" x2="547.1" y2="274.9"/>
<line class="st1" x1="541" y1="274.9" x2="542.5" y2="274.9"/>
<line class="st1" x1="536.3" y1="274.9" x2="537.8" y2="274.9"/>
<line class="st1" x1="531.7" y1="274.9" x2="533.2" y2="274.9"/>
<line class="st1" x1="527.1" y1="274.9" x2="528.6" y2="274.9"/>
<line class="st1" x1="522.4" y1="274.9" x2="523.9" y2="274.9"/>
<line class="st1" x1="517.8" y1="274.9" x2="519.3" y2="274.9"/>
<line class="st1" x1="513.2" y1="274.9" x2="514.7" y2="274.9"/>
<line class="st1" x1="508.5" y1="274.9" x2="510" y2="274.9"/>
<line class="st1" x1="503.9" y1="274.9" x2="505.4" y2="274.9"/>
<line class="st1" x1="582.6" y1="274.9" x2="584.2" y2="274.9"/>
<line class="st1" x1="415.3" y1="274.9" x2="416.8" y2="274.9"/>
<line class="st1" x1="494" y1="274.9" x2="495.5" y2="274.9"/>
<line class="st1" x1="489.4" y1="274.9" x2="490.9" y2="274.9"/>
<line class="st1" x1="484.7" y1="274.9" x2="486.3" y2="274.9"/>
<line class="st1" x1="480.1" y1="274.9" x2="481.6" y2="274.9"/>
<line class="st1" x1="475.5" y1="274.9" x2="477" y2="274.9"/>
<line class="st1" x1="470.9" y1="274.9" x2="472.4" y2="274.9"/>
<line class="st1" x1="466.2" y1="274.9" x2="467.7" y2="274.9"/>
<line class="st1" x1="461.6" y1="274.9" x2="463.1" y2="274.9"/>
<line class="st1" x1="457" y1="274.9" x2="458.5" y2="274.9"/>
<line class="st1" x1="452.3" y1="274.9" x2="453.8" y2="274.9"/>
<line class="st1" x1="447.7" y1="274.9" x2="449.2" y2="274.9"/>
<line class="st1" x1="443.1" y1="274.9" x2="444.6" y2="274.9"/>
<line class="st1" x1="438.4" y1="274.9" x2="439.9" y2="274.9"/>
<line class="st1" x1="433.8" y1="274.9" x2="435.3" y2="274.9"/>
<line class="st1" x1="429.2" y1="274.9" x2="430.7" y2="274.9"/>
<line class="st1" x1="424.5" y1="274.9" x2="426" y2="274.9"/>
<line class="st1" x1="419.9" y1="274.9" x2="421.4" y2="274.9"/>
<line class="st1" x1="498.6" y1="274.9" x2="500.2" y2="274.9"/>
<line class="st1" x1="247.3" y1="278.9" x2="248.8" y2="278.9"/>
<line class="st1" x1="326" y1="278.9" x2="327.5" y2="278.9"/>
<line class="st1" x1="321.4" y1="278.9" x2="322.9" y2="278.9"/>
<line class="st1" x1="316.7" y1="278.9" x2="318.3" y2="278.9"/>
<line class="st1" x1="312.1" y1="278.9" x2="313.6" y2="278.9"/>
<line class="st1" x1="307.5" y1="278.9" x2="309" y2="278.9"/>
<line class="st1" x1="302.9" y1="278.9" x2="304.4" y2="278.9"/>
<line class="st1" x1="298.2" y1="278.9" x2="299.7" y2="278.9"/>
<line class="st1" x1="293.6" y1="278.9" x2="295.1" y2="278.9"/>
<line class="st1" x1="289" y1="278.9" x2="290.5" y2="278.9"/>
<line class="st1" x1="284.3" y1="278.9" x2="285.8" y2="278.9"/>
<line class="st1" x1="279.7" y1="278.9" x2="281.2" y2="278.9"/>
<line class="st1" x1="275.1" y1="278.9" x2="276.6" y2="278.9"/>
<line class="st1" x1="270.4" y1="278.9" x2="271.9" y2="278.9"/>
<line class="st1" x1="265.8" y1="278.9" x2="267.3" y2="278.9"/>
<line class="st1" x1="261.2" y1="278.9" x2="262.7" y2="278.9"/>
<line class="st1" x1="256.5" y1="278.9" x2="258" y2="278.9"/>
<line class="st1" x1="251.9" y1="278.9" x2="253.4" y2="278.9"/>
<line class="st1" x1="330.6" y1="278.9" x2="332.2" y2="278.9"/>
<line class="st1" x1="166.3" y1="278.9" x2="167.8" y2="278.9"/>
<line class="st1" x1="245" y1="278.9" x2="246.5" y2="278.9"/>
<line class="st1" x1="240.4" y1="278.9" x2="241.9" y2="278.9"/>
<line class="st1" x1="235.7" y1="278.9" x2="237.3" y2="278.9"/>
<line class="st1" x1="231.1" y1="278.9" x2="232.6" y2="278.9"/>
<line class="st1" x1="226.5" y1="278.9" x2="228" y2="278.9"/>
<line class="st1" x1="221.9" y1="278.9" x2="223.4" y2="278.9"/>
<line class="st1" x1="217.2" y1="278.9" x2="218.7" y2="278.9"/>
<line class="st1" x1="212.6" y1="278.9" x2="214.1" y2="278.9"/>
<line class="st1" x1="208" y1="278.9" x2="209.5" y2="278.9"/>
<line class="st1" x1="203.3" y1="278.9" x2="204.8" y2="278.9"/>
<line class="st1" x1="198.7" y1="278.9" x2="200.2" y2="278.9"/>
<line class="st1" x1="194.1" y1="278.9" x2="195.6" y2="278.9"/>
<line class="st1" x1="189.4" y1="278.9" x2="190.9" y2="278.9"/>
<line class="st1" x1="184.8" y1="278.9" x2="186.3" y2="278.9"/>
<line class="st1" x1="180.2" y1="278.9" x2="181.7" y2="278.9"/>
<line class="st1" x1="175.5" y1="278.9" x2="177" y2="278.9"/>
<line class="st1" x1="170.9" y1="278.9" x2="172.4" y2="278.9"/>
<line class="st1" x1="249.6" y1="278.9" x2="251.2" y2="278.9"/>
<line class="st1" x1="86.3" y1="278.9" x2="87.8" y2="278.9"/>
<line class="st1" x1="165" y1="278.9" x2="166.5" y2="278.9"/>
<line class="st1" x1="160.4" y1="278.9" x2="161.9" y2="278.9"/>
<line class="st1" x1="155.7" y1="278.9" x2="157.3" y2="278.9"/>
<line class="st1" x1="151.1" y1="278.9" x2="152.6" y2="278.9"/>
<line class="st1" x1="146.5" y1="278.9" x2="148" y2="278.9"/>
<line class="st1" x1="141.9" y1="278.9" x2="143.4" y2="278.9"/>
<line class="st1" x1="137.2" y1="278.9" x2="138.7" y2="278.9"/>
<line class="st1" x1="132.6" y1="278.9" x2="134.1" y2="278.9"/>
<line class="st1" x1="128" y1="278.9" x2="129.5" y2="278.9"/>
<line class="st1" x1="123.3" y1="278.9" x2="124.8" y2="278.9"/>
<line class="st1" x1="118.7" y1="278.9" x2="120.2" y2="278.9"/>
<line class="st1" x1="114.1" y1="278.9" x2="115.6" y2="278.9"/>
<line class="st1" x1="109.4" y1="278.9" x2="110.9" y2="278.9"/>
<line class="st1" x1="104.8" y1="278.9" x2="106.3" y2="278.9"/>
<line class="st1" x1="100.2" y1="278.9" x2="101.7" y2="278.9"/>
<line class="st1" x1="95.5" y1="278.9" x2="97" y2="278.9"/>
<line class="st1" x1="90.9" y1="278.9" x2="92.4" y2="278.9"/>
<line class="st1" x1="169.6" y1="278.9" x2="171.2" y2="278.9"/>
<g class="st2">
	<rect x="320" y="331.1" class="st3" width="30" height="76"/>
	<polygon class="st3" points="335,316.2 320,331.2 350,331.2 	"/>
</g>
<g>
	<g>
		<path class="st4" d="M324.5,297.7h0.9v9.5h-1.2V299c-0.2,0.2-0.5,0.3-0.8,0.4c-0.3,0.1-0.5,0.1-0.8,0.1v-1.1
			c0.3,0,0.6-0.1,0.9-0.2S324.2,297.9,324.5,297.7z"/>
		<path class="st4" d="M331.2,307.3c-0.6,0-1.2-0.1-1.7-0.4c-0.5-0.3-0.9-0.6-1.1-1.1c-0.3-0.4-0.4-1-0.4-1.5h1.2
			c0,0.6,0.2,1,0.5,1.4c0.3,0.3,0.8,0.5,1.4,0.5c0.6,0,1.1-0.2,1.4-0.5c0.4-0.3,0.6-0.8,0.8-1.4c0.2-0.6,0.3-1.4,0.3-2.2
			c0-0.2,0-0.4,0-0.5c0-0.2,0-0.4-0.1-0.6c-0.1,0.5-0.2,1-0.5,1.3c-0.2,0.4-0.6,0.6-0.9,0.8c-0.4,0.2-0.8,0.3-1.3,0.3
			c-0.6,0-1.1-0.1-1.5-0.4c-0.4-0.3-0.8-0.6-1.1-1c-0.3-0.4-0.4-0.9-0.4-1.5c0-0.6,0.1-1.1,0.4-1.5c0.3-0.4,0.6-0.8,1.1-1
			s1-0.4,1.7-0.4c0.5,0,1,0.1,1.5,0.3c0.5,0.2,0.9,0.5,1.2,0.9c0.3,0.4,0.6,0.9,0.8,1.5c0.2,0.6,0.3,1.2,0.3,1.9
			c0,1-0.1,1.9-0.4,2.7c-0.3,0.8-0.7,1.3-1.2,1.8C332.8,307.1,332.1,307.3,331.2,307.3z M331.2,302.3c0.4,0,0.7-0.1,1-0.2
			c0.3-0.2,0.5-0.4,0.7-0.7c0.2-0.3,0.3-0.6,0.3-0.9c0-0.6-0.2-1-0.6-1.4s-0.9-0.5-1.4-0.5c-0.6,0-1,0.2-1.4,0.5s-0.6,0.8-0.6,1.4
			c0,0.6,0.2,1,0.6,1.4C330.1,302.2,330.6,302.3,331.2,302.3z"/>
		<path class="st4" d="M338.5,301.8c-0.3,0-0.6-0.1-0.9-0.2c-0.3-0.2-0.5-0.4-0.7-0.7s-0.3-0.7-0.3-1.2c0-0.5,0.1-0.9,0.3-1.2
			s0.4-0.6,0.7-0.7c0.3-0.2,0.6-0.2,0.9-0.2c0.3,0,0.7,0.1,1,0.2c0.3,0.2,0.5,0.4,0.7,0.7c0.2,0.3,0.3,0.7,0.3,1.2
			c0,0.5-0.1,0.9-0.3,1.2c-0.2,0.3-0.4,0.6-0.7,0.7C339.2,301.7,338.8,301.8,338.5,301.8z M337.3,307.1l6.3-9.4h1.2l-6.3,9.4H337.3z
			 M338.5,301c0.3,0,0.5-0.1,0.7-0.3c0.2-0.2,0.3-0.6,0.3-1s-0.1-0.8-0.3-1c-0.2-0.2-0.4-0.3-0.7-0.3c-0.3,0-0.5,0.1-0.7,0.3
			c-0.2,0.2-0.3,0.6-0.3,1s0.1,0.8,0.3,1C338,300.9,338.2,301,338.5,301z M343.8,307.3c-0.3,0-0.6-0.1-0.9-0.2
			c-0.3-0.2-0.5-0.4-0.7-0.7c-0.2-0.3-0.3-0.7-0.3-1.2c0-0.5,0.1-0.9,0.3-1.2c0.2-0.3,0.4-0.6,0.7-0.7c0.3-0.2,0.6-0.2,0.9-0.2
			c0.3,0,0.7,0.1,1,0.2s0.5,0.4,0.7,0.7c0.2,0.3,0.3,0.7,0.3,1.2c0,0.5-0.1,0.9-0.3,1.2c-0.2,0.3-0.4,0.6-0.7,0.7
			S344.1,307.3,343.8,307.3z M343.8,306.4c0.3,0,0.5-0.1,0.7-0.3s0.3-0.6,0.3-1c0-0.5-0.1-0.8-0.3-1c-0.2-0.2-0.4-0.3-0.7-0.3
			c-0.3,0-0.5,0.1-0.7,0.3c-0.2,0.2-0.3,0.6-0.3,1c0,0.5,0.1,0.8,0.3,1C343.2,306.3,343.5,306.4,343.8,306.4z"/>
	</g>
</g>
<circle class="st4" cx="336" cy="279.2" r="4"/>
<g class="st5">
	<rect x="233" y="331.1" class="st3" width="30" height="76"/>
	<polygon class="st3" points="248,316.2 233,331.2 263,331.2 	"/>
</g>
<g>
	<g>
		<path class="st4" d="M237,297.7h0.9v9.5h-1.2V299c-0.2,0.2-0.5,0.3-0.8,0.4s-0.5,0.1-0.8,0.1v-1.1c0.3,0,0.6-0.1,0.9-0.2
			S236.7,297.9,237,297.7z"/>
		<path class="st4" d="M243.7,307.3c-0.6,0-1.2-0.1-1.7-0.4c-0.5-0.3-0.9-0.6-1.1-1.1c-0.3-0.4-0.4-1-0.4-1.5h1.2
			c0,0.6,0.2,1,0.5,1.4s0.8,0.5,1.4,0.5c0.6,0,1.1-0.2,1.4-0.5c0.4-0.3,0.6-0.8,0.8-1.4c0.2-0.6,0.3-1.4,0.3-2.2c0-0.2,0-0.4,0-0.5
			c0-0.2,0-0.4-0.1-0.6c-0.1,0.5-0.2,1-0.5,1.3c-0.2,0.4-0.6,0.6-0.9,0.8c-0.4,0.2-0.8,0.3-1.3,0.3c-0.6,0-1.1-0.1-1.5-0.4
			c-0.4-0.3-0.8-0.6-1.1-1c-0.3-0.4-0.4-0.9-0.4-1.5c0-0.6,0.1-1.1,0.4-1.5c0.3-0.4,0.6-0.8,1.1-1c0.5-0.2,1-0.4,1.7-0.4
			c0.5,0,1,0.1,1.5,0.3c0.5,0.2,0.9,0.5,1.2,0.9c0.3,0.4,0.6,0.9,0.8,1.5s0.3,1.2,0.3,1.9c0,1-0.1,1.9-0.4,2.7
			c-0.3,0.8-0.7,1.3-1.2,1.8C245.2,307.1,244.5,307.3,243.7,307.3z M243.6,302.3c0.4,0,0.7-0.1,1-0.2c0.3-0.2,0.5-0.4,0.7-0.7
			c0.2-0.3,0.3-0.6,0.3-0.9c0-0.6-0.2-1-0.6-1.4s-0.9-0.5-1.4-0.5c-0.6,0-1,0.2-1.4,0.5s-0.6,0.8-0.6,1.4c0,0.6,0.2,1,0.6,1.4
			C242.6,302.2,243.1,302.3,243.6,302.3z"/>
		<path class="st4" d="M251,301.8c-0.3,0-0.6-0.1-0.9-0.2c-0.3-0.2-0.5-0.4-0.7-0.7s-0.3-0.7-0.3-1.2c0-0.5,0.1-0.9,0.3-1.2
			s0.4-0.6,0.7-0.7c0.3-0.2,0.6-0.2,0.9-0.2c0.3,0,0.7,0.1,1,0.2c0.3,0.2,0.5,0.4,0.7,0.7c0.2,0.3,0.3,0.7,0.3,1.2
			c0,0.5-0.1,0.9-0.3,1.2c-0.2,0.3-0.4,0.6-0.7,0.7C251.6,301.7,251.3,301.8,251,301.8z M249.8,307.1l6.3-9.4h1.2l-6.3,9.4H249.8z
			 M251,301c0.3,0,0.5-0.1,0.7-0.3c0.2-0.2,0.3-0.6,0.3-1s-0.1-0.8-0.3-1c-0.2-0.2-0.4-0.3-0.7-0.3c-0.3,0-0.5,0.1-0.7,0.3
			c-0.2,0.2-0.3,0.6-0.3,1s0.1,0.8,0.3,1C250.4,300.9,250.7,301,251,301z M256.2,307.3c-0.3,0-0.6-0.1-0.9-0.2
			c-0.3-0.2-0.5-0.4-0.7-0.7c-0.2-0.3-0.3-0.7-0.3-1.2c0-0.5,0.1-0.9,0.3-1.2s0.4-0.6,0.7-0.7c0.3-0.2,0.6-0.2,0.9-0.2
			c0.3,0,0.7,0.1,1,0.2c0.3,0.2,0.5,0.4,0.7,0.7c0.2,0.3,0.3,0.7,0.3,1.2c0,0.5-0.1,0.9-0.3,1.2c-0.2,0.3-0.4,0.6-0.7,0.7
			C256.9,307.2,256.5,307.3,256.2,307.3z M256.2,306.4c0.3,0,0.5-0.1,0.7-0.3s0.3-0.6,0.3-1c0-0.5-0.1-0.8-0.3-1s-0.4-0.3-0.7-0.3
			c-0.3,0-0.5,0.1-0.7,0.3c-0.2,0.2-0.3,0.6-0.3,1c0,0.5,0.1,0.8,0.3,1C255.7,306.3,255.9,306.4,256.2,306.4z"/>
	</g>
</g>
<circle class="st4" cx="248.4" cy="279.2" r="4"/>
<g class="st6">
	<rect x="155" y="331.1" class="st3" width="30" height="76"/>
	<polygon class="st3" points="170,316.2 155,331.2 185,331.2 	"/>
</g>
<g>
	<g>
		<path class="st4" d="M158,297.7h0.9v9.5h-1.2V299c-0.2,0.2-0.5,0.3-0.8,0.4s-0.5,0.1-0.8,0.1v-1.1c0.3,0,0.6-0.1,0.9-0.2
			S157.7,297.9,158,297.7z"/>
		<path class="st4" d="M164.7,307.3c-0.6,0-1.2-0.1-1.7-0.4c-0.5-0.3-0.9-0.6-1.1-1.1c-0.3-0.4-0.4-1-0.4-1.5h1.2
			c0,0.6,0.2,1,0.5,1.4s0.8,0.5,1.4,0.5c0.6,0,1.1-0.2,1.4-0.5c0.4-0.3,0.6-0.8,0.8-1.4c0.2-0.6,0.3-1.4,0.3-2.2c0-0.2,0-0.4,0-0.5
			c0-0.2,0-0.4-0.1-0.6c-0.1,0.5-0.2,1-0.5,1.3c-0.2,0.4-0.6,0.6-0.9,0.8c-0.4,0.2-0.8,0.3-1.3,0.3c-0.6,0-1.1-0.1-1.5-0.4
			c-0.4-0.3-0.8-0.6-1.1-1c-0.3-0.4-0.4-0.9-0.4-1.5c0-0.6,0.1-1.1,0.4-1.5c0.3-0.4,0.6-0.8,1.1-1c0.5-0.2,1-0.4,1.7-0.4
			c0.5,0,1,0.1,1.5,0.3c0.5,0.2,0.9,0.5,1.2,0.9c0.3,0.4,0.6,0.9,0.8,1.5s0.3,1.2,0.3,1.9c0,1-0.1,1.9-0.4,2.7
			c-0.3,0.8-0.7,1.3-1.2,1.8C166.2,307.1,165.5,307.3,164.7,307.3z M164.6,302.3c0.4,0,0.7-0.1,1-0.2c0.3-0.2,0.5-0.4,0.7-0.7
			c0.2-0.3,0.3-0.6,0.3-0.9c0-0.6-0.2-1-0.6-1.4s-0.9-0.5-1.4-0.5c-0.6,0-1,0.2-1.4,0.5s-0.6,0.8-0.6,1.4c0,0.6,0.2,1,0.6,1.4
			C163.6,302.2,164.1,302.3,164.6,302.3z"/>
		<path class="st4" d="M172,301.8c-0.3,0-0.6-0.1-0.9-0.2c-0.3-0.2-0.5-0.4-0.7-0.7s-0.3-0.7-0.3-1.2c0-0.5,0.1-0.9,0.3-1.2
			s0.4-0.6,0.7-0.7c0.3-0.2,0.6-0.2,0.9-0.2c0.3,0,0.7,0.1,1,0.2c0.3,0.2,0.5,0.4,0.7,0.7c0.2,0.3,0.3,0.7,0.3,1.2
			c0,0.5-0.1,0.9-0.3,1.2c-0.2,0.3-0.4,0.6-0.7,0.7C172.6,301.7,172.3,301.8,172,301.8z M170.8,307.1l6.3-9.4h1.2l-6.3,9.4H170.8z
			 M172,301c0.3,0,0.5-0.1,0.7-0.3c0.2-0.2,0.3-0.6,0.3-1s-0.1-0.8-0.3-1c-0.2-0.2-0.4-0.3-0.7-0.3c-0.3,0-0.5,0.1-0.7,0.3
			c-0.2,0.2-0.3,0.6-0.3,1s0.1,0.8,0.3,1C171.4,300.9,171.7,301,172,301z M177.2,307.3c-0.3,0-0.6-0.1-0.9-0.2
			c-0.3-0.2-0.5-0.4-0.7-0.7c-0.2-0.3-0.3-0.7-0.3-1.2c0-0.5,0.1-0.9,0.3-1.2s0.4-0.6,0.7-0.7c0.3-0.2,0.6-0.2,0.9-0.2
			c0.3,0,0.7,0.1,1,0.2c0.3,0.2,0.5,0.4,0.7,0.7c0.2,0.3,0.3,0.7,0.3,1.2c0,0.5-0.1,0.9-0.3,1.2c-0.2,0.3-0.4,0.6-0.7,0.7
			C177.9,307.2,177.5,307.3,177.2,307.3z M177.2,306.4c0.3,0,0.5-0.1,0.7-0.3s0.3-0.6,0.3-1c0-0.5-0.1-0.8-0.3-1s-0.4-0.3-0.7-0.3
			c-0.3,0-0.5,0.1-0.7,0.3c-0.2,0.2-0.3,0.6-0.3,1c0,0.5,0.1,0.8,0.3,1C176.7,306.3,176.9,306.4,177.2,306.4z"/>
	</g>
</g>
<circle class="st4" cx="169.4" cy="279.2" r="4"/>
<g class="st7">
	<rect x="71" y="331.1" class="st3" width="30" height="76"/>
	<polygon class="st3" points="86,316.2 71,331.2 101,331.2 	"/>
</g>
<g>
	<g>
		<path class="st4" d="M75,297.7h0.9v9.5h-1.2V299c-0.2,0.2-0.5,0.3-0.8,0.4s-0.5,0.1-0.8,0.1v-1.1c0.3,0,0.6-0.1,0.9-0.2
			S74.7,297.9,75,297.7z"/>
		<path class="st4" d="M81.7,307.3c-0.6,0-1.2-0.1-1.7-0.4c-0.5-0.3-0.9-0.6-1.1-1.1c-0.3-0.4-0.4-1-0.4-1.5h1.2
			c0,0.6,0.2,1,0.5,1.4s0.8,0.5,1.4,0.5c0.6,0,1.1-0.2,1.4-0.5c0.4-0.3,0.6-0.8,0.8-1.4c0.2-0.6,0.3-1.4,0.3-2.2c0-0.2,0-0.4,0-0.5
			c0-0.2,0-0.4-0.1-0.6c-0.1,0.5-0.2,1-0.5,1.3c-0.2,0.4-0.6,0.6-0.9,0.8c-0.4,0.2-0.8,0.3-1.3,0.3c-0.6,0-1.1-0.1-1.5-0.4
			c-0.4-0.3-0.8-0.6-1.1-1c-0.3-0.4-0.4-0.9-0.4-1.5c0-0.6,0.1-1.1,0.4-1.5c0.3-0.4,0.6-0.8,1.1-1c0.5-0.2,1-0.4,1.7-0.4
			c0.5,0,1,0.1,1.5,0.3c0.5,0.2,0.9,0.5,1.2,0.9c0.3,0.4,0.6,0.9,0.8,1.5s0.3,1.2,0.3,1.9c0,1-0.1,1.9-0.4,2.7
			c-0.3,0.8-0.7,1.3-1.2,1.8C83.2,307.1,82.5,307.3,81.7,307.3z M81.6,302.3c0.4,0,0.7-0.1,1-0.2c0.3-0.2,0.5-0.4,0.7-0.7
			c0.2-0.3,0.3-0.6,0.3-0.9c0-0.6-0.2-1-0.6-1.4s-0.9-0.5-1.4-0.5c-0.6,0-1,0.2-1.4,0.5s-0.6,0.8-0.6,1.4c0,0.6,0.2,1,0.6,1.4
			C80.6,302.2,81.1,302.3,81.6,302.3z"/>
		<path class="st4" d="M89,301.8c-0.3,0-0.6-0.1-0.9-0.2c-0.3-0.2-0.5-0.4-0.7-0.7s-0.3-0.7-0.3-1.2c0-0.5,0.1-0.9,0.3-1.2
			s0.4-0.6,0.7-0.7c0.3-0.2,0.6-0.2,0.9-0.2c0.3,0,0.7,0.1,1,0.2c0.3,0.2,0.5,0.4,0.7,0.7c0.2,0.3,0.3,0.7,0.3,1.2
			c0,0.5-0.1,0.9-0.3,1.2c-0.2,0.3-0.4,0.6-0.7,0.7C89.6,301.7,89.3,301.8,89,301.8z M87.8,307.1l6.3-9.4h1.2l-6.3,9.4H87.8z
			 M89,301c0.3,0,0.5-0.1,0.7-0.3c0.2-0.2,0.3-0.6,0.3-1s-0.1-0.8-0.3-1c-0.2-0.2-0.4-0.3-0.7-0.3c-0.3,0-0.5,0.1-0.7,0.3
			c-0.2,0.2-0.3,0.6-0.3,1s0.1,0.8,0.3,1C88.4,300.9,88.7,301,89,301z M94.2,307.3c-0.3,0-0.6-0.1-0.9-0.2c-0.3-0.2-0.5-0.4-0.7-0.7
			c-0.2-0.3-0.3-0.7-0.3-1.2c0-0.5,0.1-0.9,0.3-1.2s0.4-0.6,0.7-0.7c0.3-0.2,0.6-0.2,0.9-0.2c0.3,0,0.7,0.1,1,0.2
			c0.3,0.2,0.5,0.4,0.7,0.7c0.2,0.3,0.3,0.7,0.3,1.2c0,0.5-0.1,0.9-0.3,1.2c-0.2,0.3-0.4,0.6-0.7,0.7
			C94.9,307.2,94.5,307.3,94.2,307.3z M94.2,306.4c0.3,0,0.5-0.1,0.7-0.3s0.3-0.6,0.3-1c0-0.5-0.1-0.8-0.3-1s-0.4-0.3-0.7-0.3
			c-0.3,0-0.5,0.1-0.7,0.3c-0.2,0.2-0.3,0.6-0.3,1c0,0.5,0.1,0.8,0.3,1C93.7,306.3,93.9,306.4,94.2,306.4z"/>
	</g>
</g>
<circle class="st4" cx="86.4" cy="279.2" r="4"/>
<g class="st8">
	<rect x="402" y="327.1" class="st3" width="30" height="80"/>
	<polygon class="st3" points="417,312 402,327 432,327 	"/>
</g>
<g>
	<g>
		<path class="st4" d="M404.4,302.9v-1.4c0-0.5,0.1-1,0.3-1.4c0.2-0.4,0.4-0.7,0.8-0.9c0.3-0.2,0.7-0.4,1.1-0.6l1.9-0.7
			c0.5-0.2,0.8-0.4,1.1-0.8c0.2-0.3,0.4-0.7,0.4-1.1c0-0.5-0.2-0.9-0.5-1.2c-0.3-0.3-0.8-0.5-1.4-0.5c-0.6,0-1.1,0.1-1.5,0.4
			c-0.4,0.3-0.6,0.6-0.6,1.1h-1.3c0-0.5,0.2-1,0.5-1.4s0.7-0.7,1.2-0.9c0.5-0.2,1.1-0.3,1.7-0.3c0.6,0,1.1,0.1,1.6,0.4
			c0.5,0.2,0.9,0.6,1.1,1c0.3,0.4,0.4,0.9,0.4,1.4c0,0.5-0.1,0.9-0.3,1.3s-0.4,0.7-0.8,0.9c-0.3,0.3-0.7,0.5-1.2,0.7l-1.9,0.8
			c-0.5,0.2-0.8,0.4-1.1,0.7c-0.2,0.3-0.4,0.6-0.4,1v0.4h5.5v1.1H404.4z"/>
		<path class="st4" d="M416.6,303.1c-0.7,0-1.4-0.2-1.9-0.5c-0.6-0.4-1-0.9-1.3-1.6c-0.3-0.7-0.5-1.6-0.5-2.7s0.2-2,0.5-2.7
			c0.3-0.7,0.7-1.3,1.3-1.6c0.6-0.4,1.2-0.5,1.9-0.5c0.7,0,1.4,0.2,1.9,0.5c0.6,0.4,1,0.9,1.3,1.6c0.3,0.7,0.5,1.6,0.5,2.7
			s-0.2,2-0.5,2.7c-0.3,0.7-0.7,1.3-1.3,1.6C418,302.9,417.4,303.1,416.6,303.1z M416.6,302c0.8,0,1.4-0.3,1.8-1
			c0.4-0.7,0.6-1.6,0.6-2.8s-0.2-2.2-0.6-2.8c-0.4-0.7-1-1-1.8-1c-0.8,0-1.4,0.3-1.8,1c-0.4,0.7-0.6,1.6-0.6,2.8s0.2,2.2,0.6,2.8
			C415.2,301.6,415.8,302,416.6,302z"/>
		<path class="st4" d="M423.9,297.6c-0.3,0-0.6-0.1-0.9-0.2c-0.3-0.2-0.5-0.4-0.7-0.7c-0.2-0.3-0.3-0.7-0.3-1.2
			c0-0.5,0.1-0.9,0.3-1.2c0.2-0.3,0.4-0.6,0.7-0.7c0.3-0.2,0.6-0.2,0.9-0.2c0.3,0,0.7,0.1,1,0.2c0.3,0.2,0.5,0.4,0.7,0.7
			c0.2,0.3,0.3,0.7,0.3,1.2c0,0.5-0.1,0.9-0.3,1.2c-0.2,0.3-0.4,0.6-0.7,0.7C424.5,297.5,424.2,297.6,423.9,297.6z M422.7,302.9
			l6.3-9.4h1.2l-6.3,9.4H422.7z M423.9,296.8c0.3,0,0.5-0.1,0.7-0.3c0.2-0.2,0.3-0.6,0.3-1s-0.1-0.8-0.3-1c-0.2-0.2-0.4-0.3-0.7-0.3
			c-0.3,0-0.5,0.1-0.7,0.3s-0.3,0.6-0.3,1s0.1,0.8,0.3,1S423.6,296.8,423.9,296.8z M429.1,303c-0.3,0-0.6-0.1-0.9-0.2
			c-0.3-0.2-0.5-0.4-0.7-0.7c-0.2-0.3-0.3-0.7-0.3-1.2c0-0.5,0.1-0.9,0.3-1.2c0.2-0.3,0.4-0.6,0.7-0.7c0.3-0.2,0.6-0.2,0.9-0.2
			c0.3,0,0.7,0.1,1,0.2c0.3,0.2,0.5,0.4,0.7,0.7c0.2,0.3,0.3,0.7,0.3,1.2c0,0.5-0.1,0.9-0.3,1.2c-0.2,0.3-0.4,0.6-0.7,0.7
			C429.8,302.9,429.5,303,429.1,303z M429.1,302.2c0.3,0,0.5-0.1,0.7-0.3s0.3-0.6,0.3-1c0-0.5-0.1-0.8-0.3-1
			c-0.2-0.2-0.4-0.3-0.7-0.3c-0.3,0-0.5,0.1-0.7,0.3c-0.2,0.2-0.3,0.6-0.3,1c0,0.5,0.1,0.8,0.3,1S428.9,302.2,429.1,302.2z"/>
	</g>
</g>
<circle class="st4" cx="417.4" cy="275" r="4"/>
<g>
	<rect x="570" y="327.1" class="st3" width="30" height="80"/>
	<polygon class="st3" points="585,312.2 570,327.2 600,327.2 	"/>
</g>
<g>
	<g>
		<path class="st4" d="M571.6,303.1v-1.4c0-0.5,0.1-1,0.3-1.4c0.2-0.4,0.4-0.7,0.8-0.9c0.3-0.2,0.7-0.4,1.1-0.6l1.9-0.7
			c0.5-0.2,0.8-0.4,1.1-0.8c0.2-0.3,0.4-0.7,0.4-1.1c0-0.5-0.2-0.9-0.5-1.2c-0.3-0.3-0.8-0.5-1.4-0.5c-0.6,0-1.1,0.1-1.5,0.4
			c-0.4,0.3-0.6,0.6-0.6,1.1h-1.3c0-0.5,0.2-1,0.5-1.4s0.7-0.7,1.2-0.9c0.5-0.2,1.1-0.3,1.7-0.3c0.6,0,1.1,0.1,1.6,0.4
			c0.5,0.2,0.9,0.6,1.1,1c0.3,0.4,0.4,0.9,0.4,1.4c0,0.5-0.1,0.9-0.3,1.3s-0.4,0.7-0.8,0.9c-0.3,0.3-0.7,0.5-1.2,0.7l-1.9,0.8
			c-0.5,0.2-0.8,0.4-1.1,0.7c-0.2,0.3-0.4,0.6-0.4,1v0.4h5.5v1.1H571.6z"/>
		<path class="st4" d="M583.8,303.3c-0.7,0-1.4-0.2-1.9-0.5c-0.6-0.4-1-0.9-1.3-1.6c-0.3-0.7-0.5-1.6-0.5-2.7s0.2-2,0.5-2.7
			c0.3-0.7,0.7-1.3,1.3-1.6c0.6-0.4,1.2-0.5,1.9-0.5c0.7,0,1.4,0.2,1.9,0.5c0.6,0.4,1,0.9,1.3,1.6c0.3,0.7,0.5,1.6,0.5,2.7
			s-0.2,2-0.5,2.7c-0.3,0.7-0.7,1.3-1.3,1.6C585.2,303.1,584.6,303.3,583.8,303.3z M583.8,302.2c0.8,0,1.4-0.3,1.8-1
			c0.4-0.7,0.6-1.6,0.6-2.8s-0.2-2.2-0.6-2.8c-0.4-0.7-1-1-1.8-1c-0.8,0-1.4,0.3-1.8,1c-0.4,0.7-0.6,1.6-0.6,2.8s0.2,2.2,0.6,2.8
			C582.4,301.9,583,302.2,583.8,302.2z"/>
		<path class="st4" d="M591.1,297.8c-0.3,0-0.6-0.1-0.9-0.2c-0.3-0.2-0.5-0.4-0.7-0.7c-0.2-0.3-0.3-0.7-0.3-1.2
			c0-0.5,0.1-0.9,0.3-1.2c0.2-0.3,0.4-0.6,0.7-0.7c0.3-0.2,0.6-0.2,0.9-0.2c0.3,0,0.7,0.1,1,0.2c0.3,0.2,0.5,0.4,0.7,0.7
			c0.2,0.3,0.3,0.7,0.3,1.2c0,0.5-0.1,0.9-0.3,1.2c-0.2,0.3-0.4,0.6-0.7,0.7C591.7,297.7,591.4,297.8,591.1,297.8z M589.9,303.1
			l6.3-9.4h1.2l-6.3,9.4H589.9z M591.1,297c0.3,0,0.5-0.1,0.7-0.3c0.2-0.2,0.3-0.6,0.3-1s-0.1-0.8-0.3-1c-0.2-0.2-0.4-0.3-0.7-0.3
			c-0.3,0-0.5,0.1-0.7,0.3s-0.3,0.6-0.3,1s0.1,0.8,0.3,1S590.8,297,591.1,297z M596.3,303.3c-0.3,0-0.6-0.1-0.9-0.2
			c-0.3-0.2-0.5-0.4-0.7-0.7c-0.2-0.3-0.3-0.7-0.3-1.2c0-0.5,0.1-0.9,0.3-1.2c0.2-0.3,0.4-0.6,0.7-0.7c0.3-0.2,0.6-0.2,0.9-0.2
			c0.3,0,0.7,0.1,1,0.2c0.3,0.2,0.5,0.4,0.7,0.7c0.2,0.3,0.3,0.7,0.3,1.2c0,0.5-0.1,0.9-0.3,1.2c-0.2,0.3-0.4,0.6-0.7,0.7
			C597,303.2,596.7,303.3,596.3,303.3z M596.3,302.4c0.3,0,0.5-0.1,0.7-0.3s0.3-0.6,0.3-1c0-0.5-0.1-0.8-0.3-1
			c-0.2-0.2-0.4-0.3-0.7-0.3c-0.3,0-0.5,0.1-0.7,0.3c-0.2,0.2-0.3,0.6-0.3,1c0,0.5,0.1,0.8,0.3,1S596,302.4,596.3,302.4z"/>
	</g>
</g>
<circle class="st4" cx="584.6" cy="275.2" r="4"/>
<g class="st9">
	<rect x="487" y="327.1" class="st3" width="30" height="80"/>
	<polygon class="st3" points="502,312 487,327 517,327 	"/>
</g>
<g>
	<g>
		<path class="st4" d="M486.4,302.9v-1.4c0-0.5,0.1-1,0.3-1.4c0.2-0.4,0.4-0.7,0.8-0.9c0.3-0.2,0.7-0.4,1.1-0.6l1.9-0.7
			c0.5-0.2,0.8-0.4,1.1-0.8c0.2-0.3,0.4-0.7,0.4-1.1c0-0.5-0.2-0.9-0.5-1.2c-0.3-0.3-0.8-0.5-1.4-0.5c-0.6,0-1.1,0.1-1.5,0.4
			c-0.4,0.3-0.6,0.6-0.6,1.1h-1.3c0-0.5,0.2-1,0.5-1.4s0.7-0.7,1.2-0.9c0.5-0.2,1.1-0.3,1.7-0.3c0.6,0,1.1,0.1,1.6,0.4
			c0.5,0.2,0.9,0.6,1.1,1c0.3,0.4,0.4,0.9,0.4,1.4c0,0.5-0.1,0.9-0.3,1.3s-0.4,0.7-0.8,0.9c-0.3,0.3-0.7,0.5-1.2,0.7l-1.9,0.8
			c-0.5,0.2-0.8,0.4-1.1,0.7c-0.2,0.3-0.4,0.6-0.4,1v0.4h5.5v1.1H486.4z"/>
		<path class="st4" d="M498.6,303.1c-0.7,0-1.4-0.2-1.9-0.5c-0.6-0.4-1-0.9-1.3-1.6c-0.3-0.7-0.5-1.6-0.5-2.7s0.2-2,0.5-2.7
			c0.3-0.7,0.7-1.3,1.3-1.6c0.6-0.4,1.2-0.5,1.9-0.5c0.7,0,1.4,0.2,1.9,0.5c0.6,0.4,1,0.9,1.3,1.6c0.3,0.7,0.5,1.6,0.5,2.7
			s-0.2,2-0.5,2.7c-0.3,0.7-0.7,1.3-1.3,1.6C500,302.9,499.4,303.1,498.6,303.1z M498.6,302c0.8,0,1.4-0.3,1.8-1
			c0.4-0.7,0.6-1.6,0.6-2.8s-0.2-2.2-0.6-2.8c-0.4-0.7-1-1-1.8-1c-0.8,0-1.4,0.3-1.8,1c-0.4,0.7-0.6,1.6-0.6,2.8s0.2,2.2,0.6,2.8
			C497.2,301.6,497.8,302,498.6,302z"/>
		<path class="st4" d="M505.9,297.6c-0.3,0-0.6-0.1-0.9-0.2c-0.3-0.2-0.5-0.4-0.7-0.7c-0.2-0.3-0.3-0.7-0.3-1.2
			c0-0.5,0.1-0.9,0.3-1.2c0.2-0.3,0.4-0.6,0.7-0.7c0.3-0.2,0.6-0.2,0.9-0.2c0.3,0,0.7,0.1,1,0.2c0.3,0.2,0.5,0.4,0.7,0.7
			c0.2,0.3,0.3,0.7,0.3,1.2c0,0.5-0.1,0.9-0.3,1.2c-0.2,0.3-0.4,0.6-0.7,0.7C506.5,297.5,506.2,297.6,505.9,297.6z M504.7,302.9
			l6.3-9.4h1.2l-6.3,9.4H504.7z M505.9,296.8c0.3,0,0.5-0.1,0.7-0.3c0.2-0.2,0.3-0.6,0.3-1s-0.1-0.8-0.3-1c-0.2-0.2-0.4-0.3-0.7-0.3
			c-0.3,0-0.5,0.1-0.7,0.3s-0.3,0.6-0.3,1s0.1,0.8,0.3,1S505.6,296.8,505.9,296.8z M511.1,303c-0.3,0-0.6-0.1-0.9-0.2
			c-0.3-0.2-0.5-0.4-0.7-0.7c-0.2-0.3-0.3-0.7-0.3-1.2c0-0.5,0.1-0.9,0.3-1.2c0.2-0.3,0.4-0.6,0.7-0.7c0.3-0.2,0.6-0.2,0.9-0.2
			c0.3,0,0.7,0.1,1,0.2c0.3,0.2,0.5,0.4,0.7,0.7c0.2,0.3,0.3,0.7,0.3,1.2c0,0.5-0.1,0.9-0.3,1.2c-0.2,0.3-0.4,0.6-0.7,0.7
			C511.8,302.9,511.5,303,511.1,303z M511.1,302.2c0.3,0,0.5-0.1,0.7-0.3s0.3-0.6,0.3-1c0-0.5-0.1-0.8-0.3-1
			c-0.2-0.2-0.4-0.3-0.7-0.3c-0.3,0-0.5,0.1-0.7,0.3c-0.2,0.2-0.3,0.6-0.3,1c0,0.5,0.1,0.8,0.3,1S510.9,302.2,511.1,302.2z"/>
	</g>
</g>
<circle class="st4" cx="499.4" cy="275" r="4"/>
<line class="st10" x1="40.5" y1="407.8" x2="639.5" y2="407.8"/>
</svg>
