<svg xmlns="http://www.w3.org/2000/svg" viewBox="0 0 700 700"><defs><style>.cls-1{fill:#252525;}.cls-2,.cls-4{fill:#e3f0ff;}.cls-2,.cls-3,.cls-4{stroke:#252525;stroke-miterlimit:10;}.cls-2,.cls-3{stroke-width:5px;}.cls-3{fill:#b8d5ff;}.cls-4{stroke-width:2px;}</style></defs><g id="Capa_2" data-name="Capa 2"><g id="Capa_2-2" data-name="Capa 2"><rect class="cls-1" width="700" height="700"/></g></g><g id="Capa_1" data-name="Capa 1"><path class="cls-2" d="M84.26,120.66H615.74c18.92,0,34.26,12.27,34.26,27.41V573.25c0,15.14-15.34,27.41-34.26,27.41H84.26C65.34,600.66,50,588.39,50,573.25V148.07C50,132.93,65.34,120.66,84.26,120.66Z"/><path class="cls-3" d="M650,231.66V154.92a34.26,34.26,0,0,0-34.26-34.26H84.26A34.26,34.26,0,0,0,50,154.92h0v76.74Z"/><path class="cls-1" d="M124.21,280.19h6.55l9.7,20.09H140l9.69-20.09h6.34v30.58h-4.61V285.21h.74l-10.46,21.93h-3l-10.41-21.81h.45v25.44h-4.56Z"/><path class="cls-1" d="M174.11,311.39a11.52,11.52,0,0,1-5.63-1.37,9.78,9.78,0,0,1-3.93-4.08,16.42,16.42,0,0,1,0-13.45,9.76,9.76,0,0,1,3.93-4.07,11.52,11.52,0,0,1,5.63-1.37,11.23,11.23,0,0,1,5.56,1.37,9.57,9.57,0,0,1,3.9,4.07,16.5,16.5,0,0,1,0,13.45,9.6,9.6,0,0,1-3.9,4.08A11.23,11.23,0,0,1,174.11,311.39Zm-.15-4a5.81,5.81,0,0,0,5.68-3.76,11.06,11.06,0,0,0,.78-4.4,10,10,0,0,0-1.6-6.1,5.33,5.33,0,0,0-4.59-2.16,6,6,0,0,0-3.47,1,6.17,6.17,0,0,0-2.23,2.81,11.6,11.6,0,0,0-.78,4.48,10,10,0,0,0,1.6,6,5.44,5.44,0,0,0,4.61,2.15Z"/><path class="cls-1" d="M189,290.77v-3.09h14.91v3.09Zm10.51,20.62a8.24,8.24,0,0,1-3.55-.75,5.79,5.79,0,0,1-2.51-2.24,7.14,7.14,0,0,1-.92-3.78V281.39H197v23.09q0,3.25,3,3.26a8.62,8.62,0,0,0,1.83-.2,19.26,19.26,0,0,0,2-.61l.65,3.23A19.62,19.62,0,0,1,202,311a9.36,9.36,0,0,1-2.53.35Z"/><path class="cls-1" d="M213.13,282.76A2.94,2.94,0,0,1,211,282a2.74,2.74,0,0,1-.78-2.05,2.61,2.61,0,0,1,.78-2,3.49,3.49,0,0,1,4.27,0,2.58,2.58,0,0,1,.78,2,2.7,2.7,0,0,1-.78,2.05A2.9,2.9,0,0,1,213.13,282.76Zm-2.28,28V287.6h4.56v23.17Z"/><path class="cls-1" d="M221.48,287.68h5.23l6.51,19.17h-.48l6.5-19.17h5.23l-9,23.09H230.4Z"/><path class="cls-1" d="M256.65,311.39a10.36,10.36,0,0,1-4.83-1,6.88,6.88,0,0,1-3.81-6.21,5.81,5.81,0,0,1,1.16-3.75,7,7,0,0,1,3.23-2.2,14.2,14.2,0,0,1,4.75-.72,18.85,18.85,0,0,1,3.6.34,27.44,27.44,0,0,1,3.46.89v2.76a19.47,19.47,0,0,0-6.24-1.11,7,7,0,0,0-3.65.87,3.13,3.13,0,0,0-1.47,2.92,3.52,3.52,0,0,0,1.16,2.61,5.2,5.2,0,0,0,3.64,1.09A6.22,6.22,0,0,0,263,305a4.66,4.66,0,0,0,.77-2.5h1.1a10,10,0,0,1-1,4.43,8,8,0,0,1-2.82,3.26A7.79,7.79,0,0,1,256.65,311.39Zm7.72-.62-.57-5.31v-9.62a6,6,0,0,0-1.18-4.12,4.81,4.81,0,0,0-3.72-1.28,7.15,7.15,0,0,0-2.55.42,3.8,3.8,0,0,0-1.75,1.26,3.38,3.38,0,0,0-.64,2.11h-5a6.43,6.43,0,0,1,1.25-4.13,7,7,0,0,1,3.49-2.31,16.94,16.94,0,0,1,5.24-.74,12.34,12.34,0,0,1,4.95.93,6.93,6.93,0,0,1,3.32,2.89A9.64,9.64,0,0,1,268.4,296v14.81Z"/><path class="cls-1" d="M277,310.77V287.6h4.56v23.17Zm3.31-10.32a25.24,25.24,0,0,1,.93-7.39,9.31,9.31,0,0,1,2.59-4.37,5.83,5.83,0,0,1,3.92-1.44,8.79,8.79,0,0,1,1.26.09,11,11,0,0,1,1.17.26l-.17,4.54c-.43-.11-.9-.21-1.4-.3a7.87,7.87,0,0,0-1.38-.13,4.85,4.85,0,0,0-3.22,1,6.27,6.27,0,0,0-1.85,3,16.22,16.22,0,0,0-.6,4.7Z"/><path class="cls-1" d="M313.42,311.39a10.29,10.29,0,0,1-4.82-1,6.9,6.9,0,0,1-3.82-6.21,5.88,5.88,0,0,1,1.17-3.75,6.87,6.87,0,0,1,3.23-2.2,14.2,14.2,0,0,1,4.75-.72,18.85,18.85,0,0,1,3.6.34,27.29,27.29,0,0,1,3.45.89v2.76a18.13,18.13,0,0,0-3.08-.81,18.58,18.58,0,0,0-3.16-.3,6.93,6.93,0,0,0-3.64.87,3.13,3.13,0,0,0-1.47,2.92,3.55,3.55,0,0,0,1.15,2.61,5.22,5.22,0,0,0,3.65,1.09,6.22,6.22,0,0,0,5.38-2.9,4.74,4.74,0,0,0,.77-2.5h1.07a10,10,0,0,1-1,4.43,8,8,0,0,1-2.82,3.26A7.8,7.8,0,0,1,313.42,311.39Zm7.73-.62-.57-5.31v-9.62a6,6,0,0,0-1.18-4.12,4.83,4.83,0,0,0-3.75-1.28,7.2,7.2,0,0,0-2.56.42,3.85,3.85,0,0,0-1.75,1.26,3.44,3.44,0,0,0-.64,2.11h-5A6.55,6.55,0,0,1,307,290.1a7,7,0,0,1,3.5-2.31,16.94,16.94,0,0,1,5.24-.74,12.1,12.1,0,0,1,4.94.93,7,7,0,0,1,3.33,2.89,9.64,9.64,0,0,1,1.19,5.09v14.81Z"/><path class="cls-1" d="M345.51,310.77V278h4.56v32.81Z"/><path class="cls-1" d="M366.2,311.39a10.36,10.36,0,0,1-4.83-1,6.94,6.94,0,0,1-3.81-6.21,5.93,5.93,0,0,1,1.16-3.75,7,7,0,0,1,3.23-2.2,14.23,14.23,0,0,1,4.75-.72,18.85,18.85,0,0,1,3.6.34,27.44,27.44,0,0,1,3.46.89v2.76a18.24,18.24,0,0,0-3.09-.81,18.46,18.46,0,0,0-3.15-.3,7,7,0,0,0-3.65.87,3.12,3.12,0,0,0-1.46,2.92,3.48,3.48,0,0,0,1.15,2.61,5.22,5.22,0,0,0,3.65,1.09,6.25,6.25,0,0,0,5.37-2.9,4.74,4.74,0,0,0,.77-2.5h1.1a10,10,0,0,1-1,4.43,8,8,0,0,1-2.82,3.26A7.79,7.79,0,0,1,366.2,311.39Zm7.73-.62-.58-5.31v-9.62a6,6,0,0,0-1.18-4.12,4.81,4.81,0,0,0-3.72-1.28,7.15,7.15,0,0,0-2.55.42,3.8,3.8,0,0,0-1.75,1.26,3.38,3.38,0,0,0-.64,2.11h-5a6.55,6.55,0,0,1,1.25-4.13,7,7,0,0,1,3.49-2.31,16.94,16.94,0,0,1,5.24-.74,12.17,12.17,0,0,1,4.95.93,6.93,6.93,0,0,1,3.32,2.89A9.64,9.64,0,0,1,378,296v14.81Z"/><path class="cls-1" d="M395,311.39a14.83,14.83,0,0,1-5.66-1,7.88,7.88,0,0,1-3.52-2.64,7,7,0,0,1-1.26-4h4.3a3.47,3.47,0,0,0,1.59,2.95,7.55,7.55,0,0,0,4.07,1,6.8,6.8,0,0,0,2.49-.43,4.45,4.45,0,0,0,1.77-1.18,2.41,2.41,0,0,0,.66-1.68,2.25,2.25,0,0,0-.86-1.86,8.08,8.08,0,0,0-2.79-1.21l-4.72-1.61a10.66,10.66,0,0,1-4.35-2.55,5.52,5.52,0,0,1,1-8.43,11.74,11.74,0,0,1,6.75-1.74,10.73,10.73,0,0,1,6.71,1.84,5.91,5.91,0,0,1,2.45,4.69h-4.4a2.69,2.69,0,0,0-1.35-2.1,6.54,6.54,0,0,0-3.42-.74,5.39,5.39,0,0,0-3.28.91,2.64,2.64,0,0,0-1.19,2.07q0,2.07,3.56,3.07l5,1.75a11.34,11.34,0,0,1,4.37,2.36,4.74,4.74,0,0,1,1.54,3.64,5.47,5.47,0,0,1-1.18,3.36,8.44,8.44,0,0,1-3.3,2.58A11.52,11.52,0,0,1,395,311.39Z"/><path class="cls-1" d="M423.56,310.77V287.68h4l.6,5v18.1Zm16.17,0V297.23a6.42,6.42,0,0,0-1.43-4.55,5,5,0,0,0-3.85-1.55,5.47,5.47,0,0,0-3.35,1.05,6.59,6.59,0,0,0-2.2,3.05,13.5,13.5,0,0,0-.78,4.88h-1.64a20.45,20.45,0,0,1,1.1-7.15,9.39,9.39,0,0,1,3.13-4.41,8,8,0,0,1,4.89-1.5,8.54,8.54,0,0,1,4.72,1.25,7.76,7.76,0,0,1,2.94,3.54,13.11,13.11,0,0,1,1,5.39v13.54Z"/><path class="cls-1" d="M455.57,282.76a2.94,2.94,0,0,1-2.15-.76,2.74,2.74,0,0,1-.78-2.05,2.61,2.61,0,0,1,.78-2,3.5,3.5,0,0,1,4.28,0,2.58,2.58,0,0,1,.78,2,2.7,2.7,0,0,1-.78,2.05A2.92,2.92,0,0,1,455.57,282.76Zm-2.28,28V287.6h4.56v23.17Z"/><path class="cls-1" d="M467.86,310.77V287.68h4l.6,5v18.1Zm4.49-27-1.85-1.18a9.24,9.24,0,0,1,1.79-4,3.64,3.64,0,0,1,2.84-1.41,4,4,0,0,1,1.38.24,18,18,0,0,1,2.13,1c.92.47,1.58.78,2,.95a2.82,2.82,0,0,0,1.14.25,2,2,0,0,0,1.36-.59,4.7,4.7,0,0,0,1.18-1.83l1.94,1.29a8.77,8.77,0,0,1-1,2.8,6.19,6.19,0,0,1-1.57,1.85,2.87,2.87,0,0,1-1.76.66,4.7,4.7,0,0,1-1.61-.31c-.55-.21-1.31-.57-2.31-1.08-.83-.44-1.42-.73-1.78-.87a2.84,2.84,0,0,0-1-.21,2.37,2.37,0,0,0-1.44.52,5.26,5.26,0,0,0-1.44,1.92Zm11.69,27V297.23a6.47,6.47,0,0,0-1.43-4.55,5,5,0,0,0-3.85-1.55,5.47,5.47,0,0,0-3.35,1.05,6.69,6.69,0,0,0-2.21,3.05,13.5,13.5,0,0,0-.78,4.88h-1.63a20.67,20.67,0,0,1,1.09-7.15,9.39,9.39,0,0,1,3.13-4.41,8,8,0,0,1,4.9-1.5,8.48,8.48,0,0,1,4.71,1.25,7.76,7.76,0,0,1,2.94,3.54,13.11,13.11,0,0,1,1,5.39v13.54Z"/><path class="cls-1" d="M504,311.39a10.29,10.29,0,0,1-4.82-1,6.91,6.91,0,0,1-3.82-6.21,5.93,5.93,0,0,1,1.16-3.75,7,7,0,0,1,3.23-2.2,14.23,14.23,0,0,1,4.75-.72,18.85,18.85,0,0,1,3.6.34,27.44,27.44,0,0,1,3.46.89v2.76a19.47,19.47,0,0,0-6.24-1.11,7,7,0,0,0-3.65.87,3.14,3.14,0,0,0-1.46,2.92,3.48,3.48,0,0,0,1.15,2.61,5.22,5.22,0,0,0,3.65,1.09,6.25,6.25,0,0,0,5.37-2.9,4.63,4.63,0,0,0,.77-2.5h1.11a10,10,0,0,1-1,4.43,7.67,7.67,0,0,1-7.26,4.48Zm7.73-.62-.58-5.31v-9.62a6,6,0,0,0-1.17-4.12,4.84,4.84,0,0,0-3.72-1.28,7.2,7.2,0,0,0-2.56.42,3.8,3.8,0,0,0-1.75,1.26,3.38,3.38,0,0,0-.64,2.11h-5a6.55,6.55,0,0,1,1.25-4.13,7,7,0,0,1,3.49-2.31,17,17,0,0,1,5.25-.74,12.1,12.1,0,0,1,4.94.93,6.93,6.93,0,0,1,3.32,2.89,9.62,9.62,0,0,1,1.19,5.09v14.81Z"/><path class="cls-1" d="M532.8,311.39a14.83,14.83,0,0,1-5.66-1,7.88,7.88,0,0,1-3.52-2.64,7,7,0,0,1-1.26-4h4.29a3.47,3.47,0,0,0,1.59,2.95,7.55,7.55,0,0,0,4.07,1,6.8,6.8,0,0,0,2.49-.43,4.45,4.45,0,0,0,1.77-1.18,2.41,2.41,0,0,0,.66-1.68,2.25,2.25,0,0,0-.86-1.86,8.08,8.08,0,0,0-2.79-1.21l-4.72-1.61a10.66,10.66,0,0,1-4.35-2.55,5.52,5.52,0,0,1,1-8.43,11.74,11.74,0,0,1,6.75-1.74,10.73,10.73,0,0,1,6.71,1.84,5.9,5.9,0,0,1,2.46,4.6H537a2.69,2.69,0,0,0-1.35-2.1,6.54,6.54,0,0,0-3.42-.74,5.39,5.39,0,0,0-3.28.91,2.64,2.64,0,0,0-1.19,2.07q0,2.07,3.56,3.07l5,1.75a11.37,11.37,0,0,1,4.36,2.36,4.74,4.74,0,0,1,1.54,3.64,5.47,5.47,0,0,1-1.18,3.36,8.35,8.35,0,0,1-3.3,2.58A11.49,11.49,0,0,1,532.8,311.39Z"/><path class="cls-1" d="M557.65,287.68h5.11l7,19.1h-.94l5.59-19.1h4.66l-8.76,27.53a13.65,13.65,0,0,1-3.08,5.6,6.44,6.44,0,0,1-4.72,1.86,11.3,11.3,0,0,1-3-.41,14.92,14.92,0,0,1-3-1.2V317a10.68,10.68,0,0,0,2.5,1.32,7.88,7.88,0,0,0,2.49.41,3.38,3.38,0,0,0,2.22-.78,6.22,6.22,0,0,0,1.56-2.07,16.74,16.74,0,0,0,1.09-2.8l.7-2.27Z"/><path class="cls-1" d="M103.91,368.36V345.28h4l.6,5v18.09Zm16.17,0V354.83a6.42,6.42,0,0,0-1.43-4.55,5,5,0,0,0-3.85-1.55,5.47,5.47,0,0,0-3.35,1,6.65,6.65,0,0,0-2.2,3,13.55,13.55,0,0,0-.78,4.89h-1.64a20.45,20.45,0,0,1,1.1-7.15,9.39,9.39,0,0,1,3.13-4.41,8,8,0,0,1,4.89-1.5,8.54,8.54,0,0,1,4.72,1.25,7.72,7.72,0,0,1,3,3.58,13.11,13.11,0,0,1,1,5.39v13.53Z"/><path class="cls-1" d="M135.92,340.36a3,3,0,0,1-2.15-.76,2.74,2.74,0,0,1-.78-2.05,2.61,2.61,0,0,1,.78-2,3.5,3.5,0,0,1,4.28,0,2.58,2.58,0,0,1,.78,2,2.7,2.7,0,0,1-.78,2.05A3,3,0,0,1,135.92,340.36Zm-2.28,28V345.2h4.56v23.16Z"/><path class="cls-1" d="M148.21,368.36V345.28h4l.6,5v18.09Zm4.49-27-1.85-1.16a9.24,9.24,0,0,1,1.79-4,3.64,3.64,0,0,1,2.84-1.41,4,4,0,0,1,1.38.24,14.78,14.78,0,0,1,2.13,1l2,1a2.82,2.82,0,0,0,1.14.25,2,2,0,0,0,1.36-.59,4.7,4.7,0,0,0,1.18-1.83l1.94,1.29a8.77,8.77,0,0,1-1,2.8A6.19,6.19,0,0,1,164,340.8a2.87,2.87,0,0,1-1.76.66,4.71,4.71,0,0,1-1.61-.32,22,22,0,0,1-2.31-1.08c-.83-.43-1.42-.72-1.78-.86a2.8,2.8,0,0,0-1-.22,2.38,2.38,0,0,0-1.44.53,5.19,5.19,0,0,0-1.44,1.81Zm11.69,27V354.83a6.47,6.47,0,0,0-1.43-4.55,5,5,0,0,0-3.85-1.55,5.47,5.47,0,0,0-3.35,1,6.67,6.67,0,0,0-2.21,3,13.55,13.55,0,0,0-.78,4.89h-1.63a20.67,20.67,0,0,1,1.09-7.15,9.39,9.39,0,0,1,3.13-4.41,8,8,0,0,1,4.9-1.5,8.48,8.48,0,0,1,4.71,1.25,7.76,7.76,0,0,1,2.94,3.54,13.11,13.11,0,0,1,1,5.39v13.53Z"/><path class="cls-1" d="M186.27,369a11.48,11.48,0,0,1-5.62-1.37,9.78,9.78,0,0,1-3.93-4.08,16.42,16.42,0,0,1,0-13.45,9.76,9.76,0,0,1,3.93-4.07,11.48,11.48,0,0,1,5.62-1.37,11.27,11.27,0,0,1,5.57,1.37,9.57,9.57,0,0,1,3.9,4.07,16.5,16.5,0,0,1,0,13.45,9.6,9.6,0,0,1-3.9,4.08A11.27,11.27,0,0,1,186.27,369Zm-.14-4a5.95,5.95,0,0,0,5.68-3.79,11.07,11.07,0,0,0,.78-4.41,10.09,10.09,0,0,0-1.6-6.09,5.35,5.35,0,0,0-4.6-2.16,6,6,0,0,0-3.46,1,6.13,6.13,0,0,0-2.24,2.81,11.55,11.55,0,0,0-.78,4.47,10,10,0,0,0,1.61,6,5.42,5.42,0,0,0,4.61,2.18Z"/><path class="cls-1" d="M212.65,369A15,15,0,0,1,207,368a7.88,7.88,0,0,1-3.52-2.64,7,7,0,0,1-1.26-4h4.3a3.48,3.48,0,0,0,1.6,3,7.5,7.5,0,0,0,4.06,1,6.8,6.8,0,0,0,2.49-.43,4.45,4.45,0,0,0,1.77-1.18,2.41,2.41,0,0,0,.66-1.68,2.24,2.24,0,0,0-.86-1.86,8,8,0,0,0-2.78-1.21l-4.73-1.61a10.66,10.66,0,0,1-4.35-2.55,5.42,5.42,0,0,1-1.51-3.83,5.32,5.32,0,0,1,2.55-4.6,11.69,11.69,0,0,1,6.74-1.74,10.67,10.67,0,0,1,6.71,1.84,5.89,5.89,0,0,1,2.46,4.59H217a2.75,2.75,0,0,0-1.36-2.1,6.53,6.53,0,0,0-3.42-.73,5.39,5.39,0,0,0-3.28.91,2.63,2.63,0,0,0-1.18,2.07c0,1.37,1.18,2.4,3.55,3.07l5,1.75a11.48,11.48,0,0,1,4.36,2.35,4.76,4.76,0,0,1,1.54,3.65,5.47,5.47,0,0,1-1.18,3.36,8.44,8.44,0,0,1-3.3,2.58A11.6,11.6,0,0,1,212.65,369Z"/><path class="cls-1" d="M248,369a10.29,10.29,0,0,1-4.82-1,7,7,0,0,1-2.87-2.68,7.1,7.1,0,0,1-1-3.53,5.88,5.88,0,0,1,1.17-3.75,6.84,6.84,0,0,1,3.22-2.2,14.29,14.29,0,0,1,4.76-.72,18.85,18.85,0,0,1,3.6.34,27.29,27.29,0,0,1,3.45.89v2.76a19.47,19.47,0,0,0-6.24-1.11,7.06,7.06,0,0,0-3.65.87,3.14,3.14,0,0,0-1.46,2.92,3.48,3.48,0,0,0,1.15,2.61,5.22,5.22,0,0,0,3.65,1.09,6.24,6.24,0,0,0,5.38-2.9,4.74,4.74,0,0,0,.77-2.5h1.1a10.14,10.14,0,0,1-1,4.43,8,8,0,0,1-2.82,3.26A7.81,7.81,0,0,1,248,369Zm7.73-.63-.57-5.3v-9.62a6,6,0,0,0-1.18-4.12,4.81,4.81,0,0,0-3.72-1.28,7.2,7.2,0,0,0-2.56.42,3.8,3.8,0,0,0-1.75,1.26,3.44,3.44,0,0,0-.64,2.11h-5a6.55,6.55,0,0,1,1.25-4.13,7.08,7.08,0,0,1,3.49-2.32,17.35,17.35,0,0,1,5.25-.73,12.1,12.1,0,0,1,4.94.93,7,7,0,0,1,3.33,2.89,9.73,9.73,0,0,1,1.13,5.07v14.8Z"/><path class="cls-1" d="M288.32,369a10,10,0,0,1-5.2-1.45,11,11,0,0,1-3.9-4.19,15.28,15.28,0,0,1,0-13.08,10.78,10.78,0,0,1,3.84-4.17,9.54,9.54,0,0,1,5.06-1.45,8,8,0,0,1,4.23,1.14,7.91,7.91,0,0,1,3,3.45,13,13,0,0,1,1.13,5.78h-1.83a6.71,6.71,0,0,0-.82-3.42,5.5,5.5,0,0,0-2.14-2.14,5.79,5.79,0,0,0-2.88-.73,5.85,5.85,0,0,0-3.26,1,6.72,6.72,0,0,0-2.33,2.76,10.16,10.16,0,0,0-.86,4.35,9.56,9.56,0,0,0,.95,4.46,6.69,6.69,0,0,0,2.44,2.7,6,6,0,0,0,5.92.23,5.45,5.45,0,0,0,2.15-2,5.88,5.88,0,0,0,.83-3.22h1.1a15.44,15.44,0,0,1-.8,5.22,7.47,7.47,0,0,1-2.46,3.52A6.74,6.74,0,0,1,288.32,369Zm12.84,11.28a9,9,0,0,1-5-2.92,9.23,9.23,0,0,1-1.47-5.55v-21l1.51-5.54h3v26.85a7.86,7.86,0,0,0,.3,2.41,2.63,2.63,0,0,0,1.05,1.38,8.3,8.3,0,0,0,2,.94Z"/><path class="cls-1" d="M308.05,345.2h4.6v14.34a5.58,5.58,0,0,0,1.28,4,4.74,4.74,0,0,0,3.61,1.34,6,6,0,0,0,3.47-1,6.74,6.74,0,0,0,2.35-2.93,10.66,10.66,0,0,0,.86-4.49h1.43a18.23,18.23,0,0,1-1.11,6.82,9.08,9.08,0,0,1-3.09,4.19,7.83,7.83,0,0,1-4.66,1.43,10.69,10.69,0,0,1-4.52-.94,7,7,0,0,1-3.1-2.89,10.17,10.17,0,0,1-1.11-5.05Zm16.13,0h4.58v23.16h-4.58Z"/><path class="cls-1" d="M346.4,369a9.79,9.79,0,0,1-5.38-1.54,10.79,10.79,0,0,1-3.8-4.27,13.8,13.8,0,0,1-1.41-6.34,14.23,14.23,0,0,1,1.4-6.54,10,10,0,0,1,9.19-5.65,9.23,9.23,0,0,1,4.61,1.09,8.68,8.68,0,0,1,3.09,2.93,11.44,11.44,0,0,1,1.62,4.17,15.46,15.46,0,0,1,.16,4.8H339.46V355h13.3l-1.11.72a11.91,11.91,0,0,0-.13-2.6,7.16,7.16,0,0,0-.78-2.38,4.5,4.5,0,0,0-1.62-1.76,4.82,4.82,0,0,0-2.65-.66,5.5,5.5,0,0,0-3.37,1,6.16,6.16,0,0,0-2.05,2.7,9.82,9.82,0,0,0-.7,3.71v1.85a10.92,10.92,0,0,0,.67,4,6.09,6.09,0,0,0,2,2.72,6.22,6.22,0,0,0,6.67.06,4.08,4.08,0,0,0,1.62-2.81H356a8.39,8.39,0,0,1-5,6.54A11,11,0,0,1,346.4,369Z"/><path class="cls-1" d="M374.81,379.69V345.28h3.77l.79,5.54v28.87ZM385.76,369a8.19,8.19,0,0,1-4.37-1.14,7.28,7.28,0,0,1-2.82-3.36,13.7,13.7,0,0,1-1-5.51h1.77a6.09,6.09,0,0,0,.82,3.2,5.45,5.45,0,0,0,2.15,2,6.25,6.25,0,0,0,2.84.68,5.89,5.89,0,0,0,3.09-.9,6.81,6.81,0,0,0,2.46-2.7,9.46,9.46,0,0,0,1-4.46,10,10,0,0,0-.86-4.35,6.4,6.4,0,0,0-2.31-2.76,5.92,5.92,0,0,0-3.29-1,6.07,6.07,0,0,0-2.88.73,5.55,5.55,0,0,0-2.16,2.14,6.81,6.81,0,0,0-.82,3.42h-1.73a13.48,13.48,0,0,1,1.11-5.78,7.75,7.75,0,0,1,7.22-4.59,9.58,9.58,0,0,1,5.08,1.45,10.65,10.65,0,0,1,3.85,4.17,15.14,15.14,0,0,1,0,13.08,10.69,10.69,0,0,1-3.9,4.19,9.91,9.91,0,0,1-5.25,1.49Z"/><path class="cls-1" d="M410.14,369a10.29,10.29,0,0,1-4.82-1,6.9,6.9,0,0,1-3.82-6.21,5.93,5.93,0,0,1,1.16-3.75,6.94,6.94,0,0,1,3.23-2.2,14.29,14.29,0,0,1,4.76-.72,18.74,18.74,0,0,1,3.59.34,27.44,27.44,0,0,1,3.46.89v2.76a18.13,18.13,0,0,0-3.08-.81,18.58,18.58,0,0,0-3.16-.3,7,7,0,0,0-3.65.87,3.14,3.14,0,0,0-1.46,2.92,3.48,3.48,0,0,0,1.15,2.61,5.22,5.22,0,0,0,3.65,1.09,6.2,6.2,0,0,0,3.21-.83,6.33,6.33,0,0,0,2.17-2.07,4.65,4.65,0,0,0,.76-2.5h1.11a10,10,0,0,1-1,4.43,8,8,0,0,1-2.81,3.26A7.83,7.83,0,0,1,410.14,369Zm7.73-.63-.58-5.3v-9.62a6,6,0,0,0-1.17-4.12A4.81,4.81,0,0,0,412.4,348a7.2,7.2,0,0,0-2.56.42,3.8,3.8,0,0,0-1.75,1.26,3.38,3.38,0,0,0-.64,2.11h-5a6.55,6.55,0,0,1,1.25-4.13,7.08,7.08,0,0,1,3.49-2.32,17.35,17.35,0,0,1,5.25-.73,12.1,12.1,0,0,1,4.94.93,6.93,6.93,0,0,1,3.32,2.89,9.63,9.63,0,0,1,1.15,5.07v14.8Z"/><path class="cls-1" d="M430.52,368.36V345.2h4.56v23.16ZM433.83,358a25.2,25.2,0,0,1,.92-7.38,9.43,9.43,0,0,1,2.59-4.38,5.86,5.86,0,0,1,3.93-1.44,7.48,7.48,0,0,1,1.26.1,9.25,9.25,0,0,1,1.16.26l-.17,4.54c-.43-.11-.9-.21-1.4-.3a7,7,0,0,0-1.38-.13,4.92,4.92,0,0,0-3.22,1,6.18,6.18,0,0,0-1.84,3,16.11,16.11,0,0,0-.6,4.69Z"/><path class="cls-1" d="M445.4,348.37v-3.09h14.9v3.09ZM455.91,369a8.24,8.24,0,0,1-3.55-.75,5.73,5.73,0,0,1-2.51-2.24,7.15,7.15,0,0,1-.93-3.78V339h4.54v23.09c0,2.17,1,3.25,3.05,3.26a8.46,8.46,0,0,0,1.82-.2,17.15,17.15,0,0,0,2-.62l.65,3.24a19.62,19.62,0,0,1-2.51.88,9.58,9.58,0,0,1-2.56.35Z"/><path class="cls-1" d="M469.56,340.36a3,3,0,0,1-2.15-.76,2.76,2.76,0,0,1-.76-2.06,2.62,2.62,0,0,1,.77-2,3.43,3.43,0,0,1,4.23,0,2.58,2.58,0,0,1,.78,2,2.7,2.7,0,0,1-.78,2A3,3,0,0,1,469.56,340.36Zm-2.28,28V345.2h4.56v23.16Z"/><path class="cls-1" d="M490.25,369a10,10,0,0,1-5.28-1.51,11.25,11.25,0,0,1-3.94-4.25,15.06,15.06,0,0,1,0-13,10.64,10.64,0,0,1,3.94-4.13,10.34,10.34,0,0,1,5.28-1.43,9.83,9.83,0,0,1,3.72.66,8.71,8.71,0,0,1,2.81,1.78,9.54,9.54,0,0,1,1.91,2.51,10.16,10.16,0,0,1,1,2.88l-4.64.24a5.72,5.72,0,0,0-1.76-2.9,4.62,4.62,0,0,0-3.11-1.09,5.33,5.33,0,0,0-2.94.88,6.21,6.21,0,0,0-2.23,2.66,10.65,10.65,0,0,0-.85,4.53,10.78,10.78,0,0,0,.79,4.34,6.51,6.51,0,0,0,2.16,2.76,5.24,5.24,0,0,0,3.07,1,5.07,5.07,0,0,0,3.66-1.19,4.35,4.35,0,0,0,1.21-3.27h4.64a8.55,8.55,0,0,1-1.13,4.36,8.06,8.06,0,0,1-3.25,3.09A10.57,10.57,0,0,1,490.25,369Z"/><path class="cls-1" d="M509.52,340.36a3,3,0,0,1-2.15-.76,2.78,2.78,0,0,1-.72-2.06,2.62,2.62,0,0,1,.77-2,3.43,3.43,0,0,1,4.23,0,2.58,2.58,0,0,1,.78,2,2.7,2.7,0,0,1-.78,2A3,3,0,0,1,509.52,340.36Zm-2.28,28V345.2h4.56v23.16Z"/><path class="cls-1" d="M521.81,379.69V345.28h3.77l.79,5.54v28.87ZM532.75,369a8.16,8.16,0,0,1-4.36-1.14,7.18,7.18,0,0,1-2.82-3.36,13.7,13.7,0,0,1-1-5.51h1.78a6,6,0,0,0,.82,3.2,5.49,5.49,0,0,0,2.14,2,6.29,6.29,0,0,0,2.85.68,5.88,5.88,0,0,0,3.08-.9,6.67,6.67,0,0,0,2.46-2.7,9.31,9.31,0,0,0,1-4.46,9.86,9.86,0,0,0-.85-4.35,6.49,6.49,0,0,0-2.32-2.76,5.81,5.81,0,0,0-3.28-1,6.07,6.07,0,0,0-2.88.73,5.55,5.55,0,0,0-2.16,2.14,6.78,6.78,0,0,0-.82,3.42h-1.78a13.34,13.34,0,0,1,1.12-5.78,7.67,7.67,0,0,1,7.2-4.59,9.64,9.64,0,0,1,5.09,1.45,10.73,10.73,0,0,1,3.85,4.17,13.35,13.35,0,0,1,1.48,6.53,13.57,13.57,0,0,1-1.49,6.55,10.69,10.69,0,0,1-3.9,4.19,10,10,0,0,1-5.21,1.49Z"/><path class="cls-1" d="M558.65,369a9.73,9.73,0,0,1-5.37-1.54,10.9,10.9,0,0,1-3.81-4.27,13.92,13.92,0,0,1-1.4-6.34,14.35,14.35,0,0,1,1.39-6.54,10,10,0,0,1,9.19-5.65,9.23,9.23,0,0,1,4.61,1.09,8.88,8.88,0,0,1,3.1,2.93,11.81,11.81,0,0,1,1.62,4.17,15.46,15.46,0,0,1,.15,4.8H551.74V355H565l-1.1.72a11.91,11.91,0,0,0-.13-2.6,7.65,7.65,0,0,0-.78-2.38A4.5,4.5,0,0,0,561.4,349a4.82,4.82,0,0,0-2.65-.66,5.53,5.53,0,0,0-3.38,1,6.37,6.37,0,0,0-2,2.7,9.81,9.81,0,0,0-.69,3.71v1.85a10.92,10.92,0,0,0,.67,4,6.09,6.09,0,0,0,2,2.72,6.23,6.23,0,0,0,6.67.06,4,4,0,0,0,1.62-2.81h4.66a8.42,8.42,0,0,1-1.66,3.94,8.55,8.55,0,0,1-3.32,2.6A10.92,10.92,0,0,1,558.65,369Z"/><path class="cls-1" d="M575.38,368.36V345.28h4l.6,5v18.09Zm16.17,0V354.83a6.46,6.46,0,0,0-1.42-4.55,5,5,0,0,0-3.86-1.55,5.42,5.42,0,0,0-3.34,1,6.55,6.55,0,0,0-2.21,3,13.55,13.55,0,0,0-.78,4.89h-1.63a20.67,20.67,0,0,1,1.09-7.15,9.39,9.39,0,0,1,3.13-4.41,8,8,0,0,1,4.9-1.5,8.48,8.48,0,0,1,4.71,1.25,7.76,7.76,0,0,1,2.94,3.54,13.11,13.11,0,0,1,1,5.39v13.53Z"/><path class="cls-1" d="M196.35,426.59a9.73,9.73,0,0,1-5.37-1.54,10.75,10.75,0,0,1-3.81-4.27,13.87,13.87,0,0,1-1.4-6.33,14.22,14.22,0,0,1,1.39-6.54,10,10,0,0,1,9.19-5.66,9,9,0,0,1,4.61,1.1,8.68,8.68,0,0,1,3.1,2.92,11.83,11.83,0,0,1,1.59,4.17,15.46,15.46,0,0,1,.15,4.8H189.42V412.6h13.29l-1.1.72a11.82,11.82,0,0,0-.13-2.59,7.8,7.8,0,0,0-.78-2.39,4.47,4.47,0,0,0-1.62-1.75,4.82,4.82,0,0,0-2.65-.66,5.53,5.53,0,0,0-3.38,1,6.43,6.43,0,0,0-2.05,2.7,9.81,9.81,0,0,0-.69,3.71v1.85a10.92,10.92,0,0,0,.67,4,6.09,6.09,0,0,0,2,2.72,6.23,6.23,0,0,0,6.67.06,4,4,0,0,0,1.62-2.8h4.66a8.5,8.5,0,0,1-5,6.54A11,11,0,0,1,196.35,426.59Z"/><path class="cls-1" d="M213.06,426V402.88h4l.6,5V426Zm16.17,0V412.43a6.46,6.46,0,0,0-1.42-4.55,5,5,0,0,0-3.86-1.55,5.48,5.48,0,0,0-3.34,1,6.54,6.54,0,0,0-2.21,3.05,13.5,13.5,0,0,0-.78,4.88H216a20.45,20.45,0,0,1,1.1-7.15,9.39,9.39,0,0,1,3.13-4.41,8,8,0,0,1,4.9-1.5,8.48,8.48,0,0,1,4.71,1.25,7.76,7.76,0,0,1,2.94,3.54,13.11,13.11,0,0,1,1,5.39v13.54Z"/><path class="cls-1" d="M251.05,406v-3.09H266V406Zm10.51,20.62a8.38,8.38,0,0,1-3.55-.74,5.87,5.87,0,0,1-2.51-2.25,7.14,7.14,0,0,1-.92-3.78V396.59h4.53v23.09c0,2.17,1,3.25,3.05,3.26a8.46,8.46,0,0,0,1.82-.2,19.26,19.26,0,0,0,2-.61l.65,3.24a21.88,21.88,0,0,1-2.51.87A9.58,9.58,0,0,1,261.56,426.59Z"/><path class="cls-1" d="M281.26,426.59a11.48,11.48,0,0,1-5.62-1.37,9.78,9.78,0,0,1-3.93-4.08,16.42,16.42,0,0,1,0-13.45,9.76,9.76,0,0,1,3.93-4.07,11.48,11.48,0,0,1,5.62-1.37,11.27,11.27,0,0,1,5.57,1.37,9.57,9.57,0,0,1,3.9,4.07,16.5,16.5,0,0,1,0,13.45,9.6,9.6,0,0,1-3.9,4.08A11.27,11.27,0,0,1,281.26,426.59Zm-.14-4a6.09,6.09,0,0,0,3.44-1,6.15,6.15,0,0,0,2.24-2.8,11.06,11.06,0,0,0,.78-4.4,10.12,10.12,0,0,0-1.6-6.1,5.35,5.35,0,0,0-4.6-2.16,6,6,0,0,0-3.46,1,6.26,6.26,0,0,0-2.24,2.81,11.6,11.6,0,0,0-.78,4.48,9.89,9.89,0,0,0,1.61,6,5.45,5.45,0,0,0,4.61,2.19Z"/><path class="cls-1" d="M307.59,426.59a9.56,9.56,0,0,1-5.21-1.52,10.85,10.85,0,0,1-3.78-4.28,15.62,15.62,0,0,1,0-12.87,10.59,10.59,0,0,1,3.66-4.19,9.2,9.2,0,0,1,5.06-1.48,7.65,7.65,0,0,1,7.38,4.83,13.89,13.89,0,0,1,1.05,5.73h-1.59a6.93,6.93,0,0,0-.84-3.54,5.6,5.6,0,0,0-2.18-2.19,5.81,5.81,0,0,0-2.88-.75,5.64,5.64,0,0,0-3.25,1,6.6,6.6,0,0,0-2.31,2.76,9.75,9.75,0,0,0-.85,4.26,10.4,10.4,0,0,0,.85,4.33A6.83,6.83,0,0,0,305,421.5a5.73,5.73,0,0,0,3.23,1,5.66,5.66,0,0,0,2.81-.78,6.17,6.17,0,0,0,2.24-2.24,6.72,6.72,0,0,0,.87-3.48h1.59a13.87,13.87,0,0,1-1.09,5.83,8.27,8.27,0,0,1-3,3.59A7.32,7.32,0,0,1,307.59,426.59Zm7.35-.62-.8-5.55V393.16h4.59V426Z"/><path class="cls-1" d="M336.77,426.59a11.48,11.48,0,0,1-5.62-1.37,9.78,9.78,0,0,1-3.93-4.08,16.42,16.42,0,0,1,0-13.45,9.76,9.76,0,0,1,3.93-4.07,11.48,11.48,0,0,1,5.62-1.37,11.27,11.27,0,0,1,5.57,1.37,9.57,9.57,0,0,1,3.9,4.07,16.5,16.5,0,0,1,0,13.45,9.6,9.6,0,0,1-3.9,4.08A11.27,11.27,0,0,1,336.77,426.59Zm-.14-4a6.09,6.09,0,0,0,3.44-1,6.15,6.15,0,0,0,2.24-2.8,11.06,11.06,0,0,0,.78-4.4,10.12,10.12,0,0,0-1.6-6.1,5.35,5.35,0,0,0-4.6-2.16,6,6,0,0,0-3.46,1,6.26,6.26,0,0,0-2.24,2.81,11.6,11.6,0,0,0-.78,4.48,9.89,9.89,0,0,0,1.61,6,5.43,5.43,0,0,0,4.63,2.19Z"/><path class="cls-1" d="M363.34,406v-3.09h14.9V406Zm10.51,20.62a8.38,8.38,0,0,1-3.55-.74,5.87,5.87,0,0,1-2.51-2.25,7.14,7.14,0,0,1-.92-3.78V396.59h4.53v23.09c0,2.17,1,3.25,3.05,3.26a8.62,8.62,0,0,0,1.83-.2,19.26,19.26,0,0,0,2-.61l.65,3.24a21.88,21.88,0,0,1-2.51.87A9.66,9.66,0,0,1,373.85,426.59Z"/><path class="cls-1" d="M387.51,398a2.94,2.94,0,0,1-2.15-.76,2.74,2.74,0,0,1-.78-2.05,2.61,2.61,0,0,1,.78-2,3.49,3.49,0,0,1,4.27,0,2.58,2.58,0,0,1,.78,2,2.7,2.7,0,0,1-.78,2.05A2.9,2.9,0,0,1,387.51,398Zm-2.28,28V402.81h4.56V426Z"/><path class="cls-1" d="M399.8,437.29V402.88h3.76l.8,5.54v28.87Zm10.94-10.7a8.19,8.19,0,0,1-4.37-1.14,7.28,7.28,0,0,1-2.82-3.36,13.7,13.7,0,0,1-1-5.51h1.78a6.12,6.12,0,0,0,.81,3.21,5.51,5.51,0,0,0,2.15,2,6.25,6.25,0,0,0,2.84.68,5.89,5.89,0,0,0,3.09-.9,6.67,6.67,0,0,0,2.46-2.7,9.31,9.31,0,0,0,1-4.46,10.15,10.15,0,0,0-.85-4.35,6.49,6.49,0,0,0-2.32-2.76,5.84,5.84,0,0,0-3.29-1,5.94,5.94,0,0,0-2.88.74,5.6,5.6,0,0,0-2.16,2.13,6.9,6.9,0,0,0-.81,3.42h-1.78a13.2,13.2,0,0,1,1.12-5.78,7.85,7.85,0,0,1,3-3.45,8,8,0,0,1,4.2-1.14,9.53,9.53,0,0,1,5.09,1.46,10.77,10.77,0,0,1,3.85,4.16,15.21,15.21,0,0,1,0,13.08,10.91,10.91,0,0,1-3.9,4.19A9.87,9.87,0,0,1,410.74,426.59Z"/><path class="cls-1" d="M437.07,426.59a11.52,11.52,0,0,1-5.63-1.37,9.7,9.7,0,0,1-3.92-4.08,16.42,16.42,0,0,1,0-13.45,9.74,9.74,0,0,1,3.92-4.07,11.52,11.52,0,0,1,5.63-1.37,11.27,11.27,0,0,1,5.57,1.37,9.75,9.75,0,0,1,3.9,4.07,16.58,16.58,0,0,1,0,13.45,9.77,9.77,0,0,1-3.9,4.08A11.38,11.38,0,0,1,437.07,426.59Zm-.15-4a5.81,5.81,0,0,0,5.68-3.76,11.06,11.06,0,0,0,.78-4.4,10,10,0,0,0-1.6-6.1,5.33,5.33,0,0,0-4.59-2.16,6,6,0,0,0-3.47,1,6.17,6.17,0,0,0-2.23,2.81,11.6,11.6,0,0,0-.78,4.48,9.81,9.81,0,0,0,1.61,6,5.41,5.41,0,0,0,4.6,2.15Z"/><path class="cls-1" d="M475.11,426.59a9.54,9.54,0,0,1-5.21-1.52,10.77,10.77,0,0,1-3.78-4.28,15.54,15.54,0,0,1,0-12.87,10.59,10.59,0,0,1,3.66-4.19,9.13,9.13,0,0,1,5.07-1.48,7.65,7.65,0,0,1,7.38,4.83,14,14,0,0,1,1,5.73h-1.58a6.93,6.93,0,0,0-.84-3.54,5.62,5.62,0,0,0-2.19-2.19,5.84,5.84,0,0,0-6.13.25,6.65,6.65,0,0,0-2.3,2.76,9.75,9.75,0,0,0-.85,4.26,10.4,10.4,0,0,0,.85,4.33,6.81,6.81,0,0,0,2.3,2.82,5.73,5.73,0,0,0,3.23,1,5.47,5.47,0,0,0,2.82-.78,6.07,6.07,0,0,0,2.23-2.24,6.54,6.54,0,0,0,.88-3.48h1.58a13.87,13.87,0,0,1-1.09,5.83,8.37,8.37,0,0,1-2.94,3.59A7.3,7.3,0,0,1,475.11,426.59Zm7.34-.62-.79-5.55V393.16h4.58V426Z"/><path class="cls-1" d="M503.88,426.59a9.73,9.73,0,0,1-5.37-1.54,10.75,10.75,0,0,1-3.81-4.27,13.87,13.87,0,0,1-1.4-6.33,14.22,14.22,0,0,1,1.39-6.54,10,10,0,0,1,9.19-5.66,9.13,9.13,0,0,1,4.61,1.1,8.68,8.68,0,0,1,3.1,2.92,11.81,11.81,0,0,1,1.62,4.17,16.09,16.09,0,0,1,.15,4.8H497V412.6h13.29l-1.1.72a11.82,11.82,0,0,0-.13-2.59,7.8,7.8,0,0,0-.78-2.39,4.47,4.47,0,0,0-1.62-1.75,4.86,4.86,0,0,0-2.66-.66,5.57,5.57,0,0,0-3.37,1,6.43,6.43,0,0,0-2.05,2.7,9.82,9.82,0,0,0-.7,3.71v1.85a11.15,11.15,0,0,0,.68,4,6,6,0,0,0,2,2.72,6.23,6.23,0,0,0,6.67.06,4.1,4.1,0,0,0,1.62-2.8h4.66a8.5,8.5,0,0,1-5,6.54A11,11,0,0,1,503.88,426.59Z"/><path class="cls-1" d="M231.07,484.19a10.36,10.36,0,0,1-4.83-1,6.92,6.92,0,0,1-3.81-6.2,6,6,0,0,1,1.16-3.76,7,7,0,0,1,3.23-2.2,14.23,14.23,0,0,1,4.75-.72,18.85,18.85,0,0,1,3.6.34,27.73,27.73,0,0,1,3.48.89v2.76a18.24,18.24,0,0,0-3.09-.81,18.46,18.46,0,0,0-3.15-.3,7,7,0,0,0-3.65.87A3.11,3.11,0,0,0,227.3,477a3.51,3.51,0,0,0,1.15,2.6,5.22,5.22,0,0,0,3.65,1.09,6.25,6.25,0,0,0,5.37-2.9,4.74,4.74,0,0,0,.77-2.5h1.1a10,10,0,0,1-1,4.43,8,8,0,0,1-2.82,3.26A7.75,7.75,0,0,1,231.07,484.19Zm7.73-.62-.58-5.31v-9.62a6,6,0,0,0-1.18-4.12,4.81,4.81,0,0,0-3.72-1.28,7.15,7.15,0,0,0-2.55.42,3.8,3.8,0,0,0-1.75,1.26,3.38,3.38,0,0,0-.64,2.11h-5a6.55,6.55,0,0,1,1.25-4.13,7.15,7.15,0,0,1,3.49-2.32,17.24,17.24,0,0,1,5.24-.73,12.21,12.21,0,0,1,5,.93,6.93,6.93,0,0,1,3.32,2.89,9.64,9.64,0,0,1,1.19,5.09v14.78Z"/><path class="cls-1" d="M259.84,484.19a10,10,0,0,1-5.28-1.51,11.23,11.23,0,0,1-3.93-4.25,13.31,13.31,0,0,1-1.49-6.43,13.56,13.56,0,0,1,1.49-6.59,10.62,10.62,0,0,1,3.93-4.13,10.34,10.34,0,0,1,5.28-1.43,9.83,9.83,0,0,1,3.72.66,8.71,8.71,0,0,1,2.81,1.78,9.54,9.54,0,0,1,1.91,2.51,10.05,10.05,0,0,1,1,2.88l-4.63.24a5.67,5.67,0,0,0-1.77-2.89,4.56,4.56,0,0,0-3.1-1.1,5.41,5.41,0,0,0-2.94.88,6.24,6.24,0,0,0-2.24,2.66,10.65,10.65,0,0,0-.85,4.53,11.13,11.13,0,0,0,.79,4.34,6.51,6.51,0,0,0,2.16,2.76,5.27,5.27,0,0,0,3.08,1,5.07,5.07,0,0,0,3.66-1.19,4.37,4.37,0,0,0,1.21-3.27h4.63a8.58,8.58,0,0,1-1.13,4.37,8,8,0,0,1-3.25,3.08A10.57,10.57,0,0,1,259.84,484.19Z"/><path class="cls-1" d="M273.38,463.54v-3.09h14.9v3.09Zm10.51,20.62a8.38,8.38,0,0,1-3.55-.74,5.87,5.87,0,0,1-2.51-2.25,7.14,7.14,0,0,1-.92-3.78v-23.2h4.53v23.09c0,2.17,1,3.25,3,3.26a8.62,8.62,0,0,0,1.83-.2,19.26,19.26,0,0,0,2-.61l.65,3.24a21.88,21.88,0,0,1-2.51.87,9.35,9.35,0,0,1-2.52.35Z"/><path class="cls-1" d="M297.55,455.54a2.94,2.94,0,0,1-2.15-.76,2.74,2.74,0,0,1-.78-2,2.61,2.61,0,0,1,.78-2,3.49,3.49,0,0,1,4.27,0,2.58,2.58,0,0,1,.78,2,2.7,2.7,0,0,1-.78,2A2.9,2.9,0,0,1,297.55,455.54Zm-2.28,28V460.41h4.56v23.13Z"/><path class="cls-1" d="M305.9,460.48h5.23l6.52,19.17h-.49l6.49-19.17h5.23l-9,23.09h-5Z"/><path class="cls-1" d="M336.93,455.54a2.94,2.94,0,0,1-2.15-.76,2.74,2.74,0,0,1-.78-2,2.61,2.61,0,0,1,.78-2,3.49,3.49,0,0,1,4.27,0,2.58,2.58,0,0,1,.78,2,2.7,2.7,0,0,1-.78,2A2.9,2.9,0,0,1,336.93,455.54Zm-2.28,28V460.41h4.56v23.13Z"/><path class="cls-1" d="M357.59,484.19a9.43,9.43,0,0,1-5.2-1.53,10.68,10.68,0,0,1-3.78-4.27,15.54,15.54,0,0,1,0-12.87,10.59,10.59,0,0,1,3.66-4.19,9.13,9.13,0,0,1,5.07-1.48,7.65,7.65,0,0,1,7.38,4.83,14,14,0,0,1,1,5.73h-1.57a6.93,6.93,0,0,0-.84-3.54,5.62,5.62,0,0,0-2.19-2.19,5.84,5.84,0,0,0-6.13.25,6.62,6.62,0,0,0-2.3,2.75,10,10,0,0,0-.86,4.27,10.22,10.22,0,0,0,.86,4.33,6.73,6.73,0,0,0,2.3,2.82,5.66,5.66,0,0,0,6.05.2,6.07,6.07,0,0,0,2.23-2.24,6.63,6.63,0,0,0,.88-3.48h1.58a13.87,13.87,0,0,1-1.09,5.83A8.37,8.37,0,0,1,361.7,483,7.3,7.3,0,0,1,357.59,484.19Zm7.35-.62-.79-5.55V450.76h4.58v32.78Z"/><path class="cls-1" d="M384.83,484.19a10.29,10.29,0,0,1-4.82-1,6.9,6.9,0,0,1-3.82-6.2,5.9,5.9,0,0,1,1.17-3.76,6.91,6.91,0,0,1,3.22-2.2,14.29,14.29,0,0,1,4.76-.72,18.85,18.85,0,0,1,3.6.34,27.29,27.29,0,0,1,3.45.89v2.76a19.47,19.47,0,0,0-6.24-1.11,6.93,6.93,0,0,0-3.64.87A3.13,3.13,0,0,0,381,477a3.53,3.53,0,0,0,1.15,2.6,5.22,5.22,0,0,0,3.65,1.09,6.05,6.05,0,0,0,3.22-.83,6.3,6.3,0,0,0,2.16-2.07,4.65,4.65,0,0,0,.76-2.5h1.11a10,10,0,0,1-1,4.43,8,8,0,0,1-2.82,3.26A7.82,7.82,0,0,1,384.83,484.19Zm7.73-.62-.58-5.31v-9.62a6,6,0,0,0-1.17-4.12,4.81,4.81,0,0,0-3.72-1.28,7.2,7.2,0,0,0-2.56.42,3.8,3.8,0,0,0-1.75,1.26,3.45,3.45,0,0,0-.63,2.11h-5a6.49,6.49,0,0,1,1.24-4.13,7.24,7.24,0,0,1,3.5-2.32,17.24,17.24,0,0,1,5.24-.73,12.1,12.1,0,0,1,4.94.93,7,7,0,0,1,3.33,2.89,9.64,9.64,0,0,1,1.19,5.09v14.78Z"/><path class="cls-1" d="M413.58,484.19a9.43,9.43,0,0,1-5.2-1.53,10.68,10.68,0,0,1-3.78-4.27,15.54,15.54,0,0,1,0-12.87,10.59,10.59,0,0,1,3.66-4.19,9.13,9.13,0,0,1,5.07-1.48,7.65,7.65,0,0,1,7.38,4.83,14,14,0,0,1,1,5.73h-1.58a6.93,6.93,0,0,0-.84-3.54,5.62,5.62,0,0,0-2.19-2.19,5.84,5.84,0,0,0-6.13.25,6.62,6.62,0,0,0-2.3,2.75,10,10,0,0,0-.86,4.27,10.22,10.22,0,0,0,.86,4.33,6.73,6.73,0,0,0,2.3,2.82,5.66,5.66,0,0,0,6,.2,6.07,6.07,0,0,0,2.23-2.24,6.63,6.63,0,0,0,.88-3.48h1.58a13.87,13.87,0,0,1-1.09,5.83,8.37,8.37,0,0,1-2.94,3.59A7.33,7.33,0,0,1,413.58,484.19Zm7.35-.62-.79-5.55V450.76h4.58v32.78Z"/><path class="cls-1" d="M442.36,484.19a9.79,9.79,0,0,1-5.38-1.54,10.73,10.73,0,0,1-3.8-4.27,13.76,13.76,0,0,1-1.41-6.33,14.23,14.23,0,0,1,1.4-6.54,10,10,0,0,1,9.19-5.66A9.13,9.13,0,0,1,447,461a8.57,8.57,0,0,1,3.09,2.92,11.39,11.39,0,0,1,1.59,4.17,15.46,15.46,0,0,1,.16,4.8H435.42V470.2h13.3l-1.11.72a11.79,11.79,0,0,0-.13-2.59,7.14,7.14,0,0,0-.78-2.39,4.4,4.4,0,0,0-1.62-1.75,4.82,4.82,0,0,0-2.65-.66,5.5,5.5,0,0,0-3.37,1,6.22,6.22,0,0,0-2.05,2.7,9.82,9.82,0,0,0-.7,3.71v1.85a10.92,10.92,0,0,0,.67,4,6.09,6.09,0,0,0,2,2.72,6.23,6.23,0,0,0,6.67,0,4.1,4.1,0,0,0,1.62-2.8h4.66a8.51,8.51,0,0,1-5,6.54A11.21,11.21,0,0,1,442.36,484.19Z"/><path class="cls-1" d="M467.51,484.19a15,15,0,0,1-5.66-.95,7.88,7.88,0,0,1-3.52-2.64,7,7,0,0,1-1.26-4h4.3a3.45,3.45,0,0,0,1.59,3,7.55,7.55,0,0,0,4.07,1,6.75,6.75,0,0,0,2.48-.43,4.45,4.45,0,0,0,1.78-1.18,2.41,2.41,0,0,0,.66-1.68,2.25,2.25,0,0,0-.86-1.86,8.08,8.08,0,0,0-2.79-1.21l-4.73-1.7a10.67,10.67,0,0,1-4.34-2.55,5.52,5.52,0,0,1,1-8.43,11.74,11.74,0,0,1,6.75-1.74,10.69,10.69,0,0,1,6.7,1.84,5.82,5.82,0,0,1,2.46,4.6h-4.39a2.69,2.69,0,0,0-1.35-2.1,6.54,6.54,0,0,0-3.42-.74,5.25,5.25,0,0,0-3.28.92,2.58,2.58,0,0,0-1.19,2.06c0,1.38,1.19,2.4,3.55,3.07l5,1.75a11.34,11.34,0,0,1,4.37,2.36,4.74,4.74,0,0,1,1.54,3.64,5.54,5.54,0,0,1-1.18,3.36,8.44,8.44,0,0,1-3.3,2.58A11.53,11.53,0,0,1,467.51,484.19Z"/><path class="cls-4" d="M410.82,103.66c-4.06-3.06-9.43-7.16-13.54-10.15-2-1.48-4.81-4.43-7.09-4.78a4.19,4.19,0,0,0-4.93,5.08c.52,2.54,2.78,2.87,4.78,4.77a106.62,106.62,0,0,1-8.93,10.93c-3.13,3.21-6.73,7.27-11.09,8.63-1.62.51-3.21.42-4.62,1.09-4.5,2.14-7.85,11.54-7.85,11.54l9.7,7.7s-15.53,25-23.4,37.37c-1.9,3-.65,3.94,1.79,1.25,9.91-10.94,19.7-22,29.92-32.62,3.1,2.55,6.38,4.92,9.7,7.24,3.26-1.83,6-3.88,7.7-6.92,1.48-2.7,1-5.3,1.23-9.09.35-5,3-9.59,5.24-13.39,2.48-4.14,5.12-7.62,7.55-11.1,2.06,1.05,3.13,3.37,5.85,3.39a4.27,4.27,0,0,0,4.16-5.23c-.39-2.2-4-4.09-6.17-5.71Z"/></g></svg>