<svg xmlns="http://www.w3.org/2000/svg" viewBox="0 0 700 700"><defs><style>.cls-1{fill:#252525;}.cls-2,.cls-4{fill:#e3f0ff;}.cls-2,.cls-3,.cls-4{stroke:#252525;stroke-miterlimit:10;}.cls-2,.cls-3{stroke-width:5px;}.cls-3{fill:#b8d5ff;}.cls-4{stroke-width:2px;}</style></defs><g id="Capa_2" data-name="Capa 2"><g id="Capa_2-2" data-name="Capa 2"><rect class="cls-1" width="700" height="700"/></g></g><g id="Capa_1" data-name="Capa 1"><path class="cls-2" d="M84.26,120.66H615.74c18.92,0,34.26,12.27,34.26,27.41V573.25c0,15.14-15.34,27.41-34.26,27.41H84.26C65.34,600.66,50,588.39,50,573.25V148.07C50,132.93,65.34,120.66,84.26,120.66Z"/><path class="cls-3" d="M650,231.66V154.92a34.26,34.26,0,0,0-34.26-34.26H84.26A34.26,34.26,0,0,0,50,154.92h0v76.74Z"/><path class="cls-1" d="M108.5,331.85V300h20v4.1H113.25v9.7H127.6v4.1H113.25v9.8H128.5v4.15Z"/><path class="cls-1" d="M145.9,332.5a9.89,9.89,0,0,1-5.43-1.59,11.26,11.26,0,0,1-3.93-4.45,16.18,16.18,0,0,1,0-13.41,11,11,0,0,1,3.81-4.36,9.52,9.52,0,0,1,5.28-1.54,8.18,8.18,0,0,1,4.62,1.29,8.37,8.37,0,0,1,3.07,3.74,14.65,14.65,0,0,1,1.08,6h-1.65a7.28,7.28,0,0,0-.87-3.69,5.81,5.81,0,0,0-2.28-2.28,6.19,6.19,0,0,0-6.38.22,7.08,7.08,0,0,0-2.4,2.88,10.21,10.21,0,0,0-.89,4.43,10.64,10.64,0,0,0,.89,4.52,7.1,7.1,0,0,0,2.4,2.94,5.9,5.9,0,0,0,6.3.21,6.35,6.35,0,0,0,2.32-2.34,6.91,6.91,0,0,0,.91-3.63h1.65a14.61,14.61,0,0,1-1.13,6.08,8.61,8.61,0,0,1-3.07,3.74A7.68,7.68,0,0,1,145.9,332.5Zm7.65-.65-.83-5.78V297.68h4.78v34.17Z"/><path class="cls-1" d="M166.67,307.72h4.75v14.9a5.75,5.75,0,0,0,1.34,4.13,5,5,0,0,0,3.76,1.4,6.25,6.25,0,0,0,3.61-1.08,7.1,7.1,0,0,0,2.45-3,11.2,11.2,0,0,0,.89-4.67H185a19.07,19.07,0,0,1-1.15,7.1,9.44,9.44,0,0,1-3.22,4.36,8.14,8.14,0,0,1-4.85,1.49,11,11,0,0,1-4.71-1,7.27,7.27,0,0,1-3.23-3,10.69,10.69,0,0,1-1.16-5.26Zm16.8,0h4.77v24.13h-4.77Z"/><path class="cls-1" d="M206.72,332.5a10.4,10.4,0,0,1-5.5-1.58,11.69,11.69,0,0,1-4.1-4.42,13.93,13.93,0,0,1-1.55-6.7,14.09,14.09,0,0,1,1.55-6.86,11.08,11.08,0,0,1,4.1-4.3,10.77,10.77,0,0,1,5.5-1.49,10.25,10.25,0,0,1,3.88.69,8.84,8.84,0,0,1,2.92,1.85,9.6,9.6,0,0,1,2,2.61,10.62,10.62,0,0,1,1.06,3l-4.82.25a6,6,0,0,0-1.84-3,4.72,4.72,0,0,0-3.25-1.15,5.56,5.56,0,0,0-3.06.91,6.57,6.57,0,0,0-2.33,2.78,11.15,11.15,0,0,0-.88,4.71,11.29,11.29,0,0,0,.82,4.52,6.77,6.77,0,0,0,2.25,2.88,5.49,5.49,0,0,0,3.2,1,5.22,5.22,0,0,0,3.81-1.24,4.47,4.47,0,0,0,1.27-3.41h4.82a8.88,8.88,0,0,1-1.17,4.55,8.45,8.45,0,0,1-3.39,3.21A11,11,0,0,1,206.72,332.5Z"/><path class="cls-1" d="M231.07,332.5a10.7,10.7,0,0,1-5-1.06,7.19,7.19,0,0,1-4-6.47,6.22,6.22,0,0,1,1.21-3.91,7.17,7.17,0,0,1,3.39-2.26,15,15,0,0,1,5-.75,19.6,19.6,0,0,1,3.75.35,31.69,31.69,0,0,1,3.6.93v2.88a20.83,20.83,0,0,0-6.5-1.16,7.33,7.33,0,0,0-3.8.9,3.26,3.26,0,0,0-1.53,3.05,3.67,3.67,0,0,0,1.2,2.72,5.43,5.43,0,0,0,3.8,1.13,6.46,6.46,0,0,0,5.6-3,4.85,4.85,0,0,0,.8-2.6h1.08a10.36,10.36,0,0,1-1,4.61,8.34,8.34,0,0,1-2.94,3.4A8.21,8.21,0,0,1,231.07,332.5Zm8-.65-.6-5.53v-10a6.23,6.23,0,0,0-1.22-4.29,5,5,0,0,0-3.88-1.33,7.57,7.57,0,0,0-2.66.43,3.91,3.91,0,0,0-1.82,1.31,3.54,3.54,0,0,0-.67,2.2H223a6.88,6.88,0,0,1,1.3-4.3,7.48,7.48,0,0,1,3.64-2.41,17.41,17.41,0,0,1,5.46-.76,12.65,12.65,0,0,1,5.15,1,7.23,7.23,0,0,1,3.46,3,10.09,10.09,0,0,1,1.24,5.3V331.9Z"/><path class="cls-1" d="M252.3,331.85V307.72h4.75v24.13Zm3.45-10.75a26.29,26.29,0,0,1,1-7.69,9.76,9.76,0,0,1,2.7-4.56,6,6,0,0,1,4.09-1.5,7.16,7.16,0,0,1,1.31.1c.41.07.81.16,1.21.27l-.17,4.73c-.45-.12-.94-.22-1.47-.31A7.62,7.62,0,0,0,263,312a5,5,0,0,0-3.35,1.09,6.45,6.45,0,0,0-1.93,3.12,17.18,17.18,0,0,0-.62,4.89Z"/><path class="cls-1" d="M279.4,307.8h5.32L292,327.7h-1l5.82-19.9h4.88l-9.12,28.67a14.24,14.24,0,0,1-3.22,5.84,6.7,6.7,0,0,1-4.91,1.94,11.64,11.64,0,0,1-3.16-.43,16.53,16.53,0,0,1-3.09-1.25V338.3a11.18,11.18,0,0,0,2.6,1.38,8.23,8.23,0,0,0,2.6.42,3.45,3.45,0,0,0,2.31-.81,6.59,6.59,0,0,0,1.63-2.15,19.2,19.2,0,0,0,1.14-2.92l.72-2.37Z"/><path class="cls-1" d="M328.12,332.5a10.19,10.19,0,0,1-5.6-1.6,11.29,11.29,0,0,1-4-4.45,14.25,14.25,0,0,1-1.47-6.6A15,15,0,0,1,318.5,313a10.41,10.41,0,0,1,9.58-5.89,9.43,9.43,0,0,1,4.8,1.14,9,9,0,0,1,3.22,3,12,12,0,0,1,1.69,4.34,16.13,16.13,0,0,1,.16,5h-17.1v-2.76H334.7l-1.15.76a12.26,12.26,0,0,0-.13-2.71,7.71,7.71,0,0,0-.82-2.48,4.7,4.7,0,0,0-1.68-1.83,5.08,5.08,0,0,0-2.77-.69,5.67,5.67,0,0,0-3.51,1,6.49,6.49,0,0,0-2.14,2.82,10.18,10.18,0,0,0-.72,3.86v1.92a11.39,11.39,0,0,0,.7,4.13,6.35,6.35,0,0,0,2.09,2.84,6.54,6.54,0,0,0,6.95,0,4.26,4.26,0,0,0,1.68-2.93h4.85a8.74,8.74,0,0,1-1.72,4.1,9,9,0,0,1-3.46,2.72A11.59,11.59,0,0,1,328.12,332.5Z"/><path class="cls-1" d="M354.24,332.5a9.86,9.86,0,0,1-5.42-1.59,11.28,11.28,0,0,1-3.94-4.45,14.82,14.82,0,0,1-1.46-6.74,14.64,14.64,0,0,1,1.44-6.67,11,11,0,0,1,3.81-4.36,9.41,9.41,0,0,1,5.27-1.54,8,8,0,0,1,7.69,5,14.33,14.33,0,0,1,1.09,6h-1.65a7.19,7.19,0,0,0-.88-3.69,5.79,5.79,0,0,0-2.27-2.28,6.17,6.17,0,0,0-6.39.23,7.08,7.08,0,0,0-2.4,2.88,10.36,10.36,0,0,0-.89,4.43,10.83,10.83,0,0,0,.89,4.52,7.1,7.1,0,0,0,2.4,2.94,6,6,0,0,0,3.36,1,5.93,5.93,0,0,0,2.94-.81,6.45,6.45,0,0,0,2.33-2.34,7,7,0,0,0,.91-3.63h1.65a14.43,14.43,0,0,1-1.14,6.08,8.59,8.59,0,0,1-3.06,3.74A7.63,7.63,0,0,1,354.24,332.5Zm7.65-.65-.82-5.78V297.68h4.77v34.17Z"/><path class="cls-1" d="M375,307.72h4.75v14.9a5.75,5.75,0,0,0,1.34,4.13,5,5,0,0,0,3.76,1.4,6.28,6.28,0,0,0,3.62-1.08,7.16,7.16,0,0,0,2.45-3,11.35,11.35,0,0,0,.88-4.67h1.53a19.1,19.1,0,0,1-1.15,7.1,9.53,9.53,0,0,1-3.23,4.36,8.14,8.14,0,0,1-4.85,1.49,11,11,0,0,1-4.71-1,7.19,7.19,0,0,1-3.22-3,10.56,10.56,0,0,1-1.17-5.26Zm16.8,0h4.78v24.13h-4.78Z"/><path class="cls-1" d="M415.07,332.5a10.4,10.4,0,0,1-5.5-1.58,11.61,11.61,0,0,1-4.1-4.42,13.81,13.81,0,0,1-1.55-6.7,14.07,14.07,0,0,1,1.55-6.86,10.94,10.94,0,0,1,4.1-4.3,10.77,10.77,0,0,1,5.5-1.49,10,10,0,0,1,3.87.69,9,9,0,0,1,2.93,1.85,9.6,9.6,0,0,1,2,2.61,10.94,10.94,0,0,1,1.06,3l-4.83.25a6,6,0,0,0-1.84-3,4.71,4.71,0,0,0-3.23-1.14,5.56,5.56,0,0,0-3.06.91,6.51,6.51,0,0,0-2.33,2.78,11,11,0,0,0-.89,4.71,11.27,11.27,0,0,0,.83,4.52,6.77,6.77,0,0,0,2.25,2.88,5.49,5.49,0,0,0,3.2,1,5.22,5.22,0,0,0,3.81-1.24,4.5,4.5,0,0,0,1.26-3.41h4.83a8.76,8.76,0,0,1-1.18,4.55,8.36,8.36,0,0,1-3.38,3.21A11.18,11.18,0,0,1,415.07,332.5Z"/><path class="cls-1" d="M439.42,332.5a10.7,10.7,0,0,1-5-1.06,7.21,7.21,0,0,1-3-2.79,7.34,7.34,0,0,1-1-3.68,6.14,6.14,0,0,1,1.21-3.91,7.22,7.22,0,0,1,3.36-2.29,14.88,14.88,0,0,1,4.95-.75,19.6,19.6,0,0,1,3.75.35,31.69,31.69,0,0,1,3.6.93v2.88a17.63,17.63,0,0,0-3.21-.84,18.07,18.07,0,0,0-3.29-.32,7.33,7.33,0,0,0-3.8.9,3.28,3.28,0,0,0-1.52,3.05,3.67,3.67,0,0,0,1.2,2.72,5.38,5.38,0,0,0,3.8,1.13,6.47,6.47,0,0,0,5.6-3,4.94,4.94,0,0,0,.8-2.6H448a10.36,10.36,0,0,1-1,4.61,8.31,8.31,0,0,1-2.93,3.4A8.21,8.21,0,0,1,439.42,332.5Zm8.05-.65-.6-5.53v-10a6.17,6.17,0,0,0-1.23-4.29,5,5,0,0,0-3.87-1.33,7.57,7.57,0,0,0-2.66.43,4,4,0,0,0-1.83,1.31,3.59,3.59,0,0,0-.66,2.2h-5.25a6.76,6.76,0,0,1,1.3-4.3,7.43,7.43,0,0,1,3.64-2.41,17.41,17.41,0,0,1,5.46-.76,13,13,0,0,1,5.15,1,7.28,7.28,0,0,1,3.46,3,10.09,10.09,0,0,1,1.24,5.3V331.9Z"/><path class="cls-1" d="M460.67,331.85V307.72h4.75v24.13Zm3.45-10.75a26.29,26.29,0,0,1,1-7.69,9.84,9.84,0,0,1,2.7-4.56,6.08,6.08,0,0,1,4.09-1.5,7.16,7.16,0,0,1,1.31.1c.41.07.82.16,1.22.27l-.18,4.73c-.45-.12-.94-.22-1.46-.31a7.64,7.64,0,0,0-1.44-.14,5,5,0,0,0-3.35,1.09,6.36,6.36,0,0,0-1.92,3.12,16.84,16.84,0,0,0-.63,4.89Z"/><path class="cls-1" d="M488.17,332.5a15.66,15.66,0,0,1-5.9-1,8.28,8.28,0,0,1-3.67-2.75,7.21,7.21,0,0,1-1.31-4.14h4.48a3.64,3.64,0,0,0,1.66,3.08,7.76,7.76,0,0,0,4.24,1,7.08,7.08,0,0,0,2.58-.45A4.56,4.56,0,0,0,492.1,327a2.54,2.54,0,0,0,.69-1.75,2.31,2.31,0,0,0-.9-1.93,8.1,8.1,0,0,0-2.9-1.27l-4.92-1.67a11.08,11.08,0,0,1-4.53-2.66,5.76,5.76,0,0,1,.23-8.12,6,6,0,0,1,.85-.66,12.17,12.17,0,0,1,7-1.81c3,0,5.36.63,7,1.91a6.1,6.1,0,0,1,2.56,4.79h-4.51a2.84,2.84,0,0,0-1.42-2.19,6.75,6.75,0,0,0-3.56-.76,5.45,5.45,0,0,0-3.41.95A2.68,2.68,0,0,0,483,314c0,1.43,1.24,2.5,3.7,3.2l5.18,1.82a12,12,0,0,1,4.55,2.45,5,5,0,0,1,1.6,3.8,5.71,5.71,0,0,1-1.23,3.5,8.73,8.73,0,0,1-3.44,2.69A12.21,12.21,0,0,1,488.17,332.5Z"/><path class="cls-1" d="M514.32,332.5a10.19,10.19,0,0,1-5.6-1.6,11.36,11.36,0,0,1-4-4.45,14.5,14.5,0,0,1-1.46-6.6,14.81,14.81,0,0,1,1.45-6.81,10.41,10.41,0,0,1,9.58-5.89,9.53,9.53,0,0,1,4.8,1.14,9,9,0,0,1,3.22,3,12,12,0,0,1,1.69,4.34,16.13,16.13,0,0,1,.16,5h-17.1v-2.76h13.85l-1.15.76a12.9,12.9,0,0,0-.14-2.71,7.69,7.69,0,0,0-.81-2.48,4.72,4.72,0,0,0-1.69-1.83,5,5,0,0,0-2.76-.69,5.67,5.67,0,0,0-3.51,1,6.49,6.49,0,0,0-2.14,2.82,10.18,10.18,0,0,0-.72,3.86v1.92a11.39,11.39,0,0,0,.7,4.13,6.33,6.33,0,0,0,2.08,2.84,6.56,6.56,0,0,0,7,.06,4.33,4.33,0,0,0,1.69-2.93h4.85a8.74,8.74,0,0,1-1.72,4.1,9,9,0,0,1-3.47,2.72A11.48,11.48,0,0,1,514.32,332.5Z"/><path class="cls-1" d="M552.54,332.5a10.19,10.19,0,0,1-5.6-1.6,11.29,11.29,0,0,1-4-4.45,14.25,14.25,0,0,1-1.47-6.6,15,15,0,0,1,1.45-6.81,10.41,10.41,0,0,1,9.58-5.89,9.43,9.43,0,0,1,4.8,1.14,9,9,0,0,1,3.22,3,12,12,0,0,1,1.69,4.34,16.13,16.13,0,0,1,.16,5h-17.1v-2.76h13.85l-1.15.76a12.26,12.26,0,0,0-.13-2.71,7.71,7.71,0,0,0-.82-2.48,4.7,4.7,0,0,0-1.68-1.83,5.08,5.08,0,0,0-2.77-.69,5.67,5.67,0,0,0-3.51,1,6.49,6.49,0,0,0-2.14,2.82,10.18,10.18,0,0,0-.72,3.86v1.92a11.39,11.39,0,0,0,.7,4.13,6.35,6.35,0,0,0,2.09,2.84,6.54,6.54,0,0,0,7,0,4.26,4.26,0,0,0,1.68-2.93h4.85a8.74,8.74,0,0,1-1.72,4.1,9,9,0,0,1-3.46,2.72A11.59,11.59,0,0,1,552.54,332.5Z"/><path class="cls-1" d="M569.94,331.85V307.8h4.12l.63,5.2v18.85Zm16.85,0V317.8a6.77,6.77,0,0,0-1.49-4.74,5.19,5.19,0,0,0-4-1.61,5.7,5.7,0,0,0-3.49,1.09,7,7,0,0,0-2.3,3.17,14.21,14.21,0,0,0-.84,5.09H573a21.42,21.42,0,0,1,1.14-7.45,9.73,9.73,0,0,1,3.26-4.59,8.4,8.4,0,0,1,5.1-1.56,8.75,8.75,0,0,1,4.91,1.3,8.17,8.17,0,0,1,3.06,3.69,13.65,13.65,0,0,1,1,5.61v14.1Z"/><path class="cls-1" d="M124.24,391.85V357.68H129v28.39l-1.53,5.78Zm11.57.65a7.69,7.69,0,0,1-4.26-1.26,8.72,8.72,0,0,1-3-3.74,14.59,14.59,0,0,1-1.14-6.08H129a7,7,0,0,0,.91,3.63,6.4,6.4,0,0,0,2.34,2.34,6,6,0,0,0,3,.81,5.75,5.75,0,0,0,3.34-1,7.26,7.26,0,0,0,2.38-2.94,10.66,10.66,0,0,0,.88-4.52,10.37,10.37,0,0,0-.87-4.43,6.88,6.88,0,0,0-2.38-2.88,5.94,5.94,0,0,0-3.4-1,6.18,6.18,0,0,0-3,.78,5.9,5.9,0,0,0-2.29,2.28,7.28,7.28,0,0,0-.87,3.69h-1.63a14.67,14.67,0,0,1,1.1-6,8.5,8.5,0,0,1,3.07-3.74,8.19,8.19,0,0,1,4.61-1.29,9.43,9.43,0,0,1,5.26,1.54,10.9,10.9,0,0,1,3.83,4.36,16.18,16.18,0,0,1,0,13.41,11.35,11.35,0,0,1-3.94,4.45,9.8,9.8,0,0,1-5.57,1.59Z"/><path class="cls-1" d="M161.34,392.5a10.7,10.7,0,0,1-5-1.06,7.21,7.21,0,0,1-3-2.79,7.34,7.34,0,0,1-1-3.68,6.14,6.14,0,0,1,1.21-3.91,7.22,7.22,0,0,1,3.36-2.29,14.88,14.88,0,0,1,5-.75,19.6,19.6,0,0,1,3.75.35,31.69,31.69,0,0,1,3.6.93v2.88a17.63,17.63,0,0,0-3.21-.84,18.07,18.07,0,0,0-3.29-.32,7.33,7.33,0,0,0-3.8.9,3.28,3.28,0,0,0-1.52,3.05,3.67,3.67,0,0,0,1.2,2.72,5.38,5.38,0,0,0,3.8,1.13,6.47,6.47,0,0,0,5.6-3,4.94,4.94,0,0,0,.8-2.6h1.15a10.36,10.36,0,0,1-1,4.61,8.31,8.31,0,0,1-2.93,3.4A8.21,8.21,0,0,1,161.34,392.5Zm8-.65-.6-5.53v-10a6.17,6.17,0,0,0-1.23-4.29,5,5,0,0,0-3.87-1.33,7.59,7.59,0,0,0-2.67.43,4,4,0,0,0-1.82,1.31,3.59,3.59,0,0,0-.66,2.2h-5.25a6.76,6.76,0,0,1,1.3-4.3,7.43,7.43,0,0,1,3.64-2.41,17.41,17.41,0,0,1,5.46-.76,13,13,0,0,1,5.15,1,7.28,7.28,0,0,1,3.46,3,10.09,10.09,0,0,1,1.24,5.3V391.9Z"/><path class="cls-1" d="M191.36,392.5a15.66,15.66,0,0,1-5.9-1,8.23,8.23,0,0,1-3.66-2.75,7.21,7.21,0,0,1-1.31-4.14H185a3.67,3.67,0,0,0,1.71,3.09,7.85,7.85,0,0,0,4.24,1,7.1,7.1,0,0,0,2.59-.45,4.74,4.74,0,0,0,1.85-1.23,2.54,2.54,0,0,0,.69-1.75,2.31,2.31,0,0,0-.9-1.93,8.1,8.1,0,0,0-2.9-1.27l-4.93-1.67a11,11,0,0,1-4.52-2.66,5.72,5.72,0,0,1,.21-8.1,5.15,5.15,0,0,1,.86-.68,12.17,12.17,0,0,1,7-1.81c3,0,5.35.63,7,1.91a6.11,6.11,0,0,1,2.57,4.79h-4.58a2.83,2.83,0,0,0-1.41-2.19,6.75,6.75,0,0,0-3.56-.76,5.49,5.49,0,0,0-3.42,1,2.7,2.7,0,0,0-1.23,2.15c0,1.43,1.24,2.5,3.7,3.2L195.1,379a11.85,11.85,0,0,1,4.55,2.45,5,5,0,0,1,1.6,3.8,5.77,5.77,0,0,1-1.22,3.5,8.82,8.82,0,0,1-3.44,2.69A12.2,12.2,0,0,1,191.36,392.5Z"/><path class="cls-1" d="M217.51,392.5a10.19,10.19,0,0,1-5.6-1.6,11.29,11.29,0,0,1-4-4.45,14.25,14.25,0,0,1-1.46-6.6A14.81,14.81,0,0,1,207.9,373a10.44,10.44,0,0,1,9.57-5.89,9.43,9.43,0,0,1,4.8,1.14,9.08,9.08,0,0,1,3.23,3,11.93,11.93,0,0,1,1.68,4.34,16.13,16.13,0,0,1,.17,5h-17.1v-2.76H224.1l-1.15.76a12.9,12.9,0,0,0-.14-2.71,7.69,7.69,0,0,0-.81-2.48,4.72,4.72,0,0,0-1.69-1.83,5,5,0,0,0-2.76-.69,5.7,5.7,0,0,0-3.52,1,6.47,6.47,0,0,0-2.13,2.82,10,10,0,0,0-.73,3.86v1.92a11.39,11.39,0,0,0,.7,4.13,6.35,6.35,0,0,0,2.09,2.84,6.54,6.54,0,0,0,6.95,0,4.33,4.33,0,0,0,1.69-2.93h4.85a8.75,8.75,0,0,1-1.73,4.1,9,9,0,0,1-3.46,2.72A11.59,11.59,0,0,1,217.51,392.5Z"/><path class="cls-1" d="M254.13,392.5a10.7,10.7,0,0,1-5-1.06,7.19,7.19,0,0,1-4-6.47,6.15,6.15,0,0,1,1.22-3.91,7.19,7.19,0,0,1,3.32-2.26,15,15,0,0,1,5-.75,19.6,19.6,0,0,1,3.75.35,31.69,31.69,0,0,1,3.6.93v2.88a20.83,20.83,0,0,0-6.5-1.16,7.33,7.33,0,0,0-3.8.9A3.26,3.26,0,0,0,250.2,385a3.7,3.7,0,0,0,1.19,2.72,5.45,5.45,0,0,0,3.81,1.13,6.47,6.47,0,0,0,5.59-3,4.83,4.83,0,0,0,.81-2.6h1.14a10.36,10.36,0,0,1-1,4.61,7.91,7.91,0,0,1-7.61,4.64Zm8.06-.65-.6-5.53v-10a6.17,6.17,0,0,0-1.23-4.29,5,5,0,0,0-3.88-1.33,7.57,7.57,0,0,0-2.66.43,4,4,0,0,0-1.82,1.31,3.59,3.59,0,0,0-.66,2.2h-5.25a6.81,6.81,0,0,1,1.29-4.3,7.48,7.48,0,0,1,3.64-2.41,17.41,17.41,0,0,1,5.46-.76,12.65,12.65,0,0,1,5.15,1,7.35,7.35,0,0,1,3.47,3,10.09,10.09,0,0,1,1.24,5.3V391.9Z"/><path class="cls-1" d="M287.56,391.85V357.68h4.75v34.17Z"/><path class="cls-1" d="M309.11,392.5a10.7,10.7,0,0,1-5-1.06,7.21,7.21,0,0,1-3-2.79,7.34,7.34,0,0,1-1-3.68,6.14,6.14,0,0,1,1.21-3.91,7.2,7.2,0,0,1,3.35-2.26,14.88,14.88,0,0,1,4.95-.75,19.6,19.6,0,0,1,3.75.35,31.69,31.69,0,0,1,3.6.93v2.88a17.63,17.63,0,0,0-3.21-.84,18.07,18.07,0,0,0-3.29-.32,7.33,7.33,0,0,0-3.8.9,3.3,3.3,0,0,0-1.52,3.05,3.67,3.67,0,0,0,1.2,2.72,5.38,5.38,0,0,0,3.8,1.13,6.42,6.42,0,0,0,3.35-.86,6.3,6.3,0,0,0,2.25-2.16,4.94,4.94,0,0,0,.8-2.6h1.12a10.5,10.5,0,0,1-1,4.61,8.41,8.41,0,0,1-2.94,3.4A8.2,8.2,0,0,1,309.11,392.5Zm8.05-.65-.6-5.53v-10a6.17,6.17,0,0,0-1.23-4.29,5,5,0,0,0-3.87-1.33,7.57,7.57,0,0,0-2.66.43,4,4,0,0,0-1.83,1.31,3.59,3.59,0,0,0-.66,2.2h-5.25a6.76,6.76,0,0,1,1.3-4.3,7.48,7.48,0,0,1,3.64-2.41,17.41,17.41,0,0,1,5.46-.76,12.65,12.65,0,0,1,5.15,1,7.28,7.28,0,0,1,3.46,3,10.09,10.09,0,0,1,1.24,5.3V391.9Z"/><path class="cls-1" d="M345.28,362.68a3.1,3.1,0,0,1-2.23-.79,2.86,2.86,0,0,1-.82-2.14,2.64,2.64,0,0,1,.82-2.06,3.11,3.11,0,0,1,2.23-.77,3,3,0,0,1,2.21.77,2.64,2.64,0,0,1,.82,2.06,2.82,2.82,0,0,1-.82,2.14A3,3,0,0,1,345.28,362.68Zm-2.37,29.17V367.72h4.76v24.13Z"/><path class="cls-1" d="M366.93,404.25a19,19,0,0,1-6.71-1.07,10.51,10.51,0,0,1-4.34-2.88,6,6,0,0,1-1.52-3.93,4.79,4.79,0,0,1,2-4.13,8.33,8.33,0,0,1,5-1.44l3.07,1.45a6.59,6.59,0,0,0-4,1.05,3.39,3.39,0,0,0-1.41,2.85,3.57,3.57,0,0,0,2.05,3.09,11.59,11.59,0,0,0,5.87,1.21,13.49,13.49,0,0,0,4.88-.81,8.15,8.15,0,0,0,3.25-2.13,4.22,4.22,0,0,0,1.15-2.81,2.34,2.34,0,0,0-.74-1.74,3.13,3.13,0,0,0-2.24-.71h-8.8a11.36,11.36,0,0,1-4.31-.76,7.42,7.42,0,0,1-2.91-2,4.22,4.22,0,0,1-1.05-2.77,4.09,4.09,0,0,1,.85-2.59,5.35,5.35,0,0,1,2.25-1.65,8.27,8.27,0,0,1,3.07-.56l1.08,1.65a3.47,3.47,0,0,0-1.45.31,2.9,2.9,0,0,0-1.2.94,2.46,2.46,0,0,0-.48,1.55,2.22,2.22,0,0,0,.91,1.79,5.56,5.56,0,0,0,3.24.71h8.8a9.74,9.74,0,0,1,5.65,1.42,4.71,4.71,0,0,1,2.05,4.15,7.71,7.71,0,0,1-1.7,4.73,12.09,12.09,0,0,1-4.84,3.67A17.87,17.87,0,0,1,366.93,404.25Zm.53-19.63a11.94,11.94,0,0,1-5.09-1.08,9.05,9.05,0,0,1-3.64-3.05,8.51,8.51,0,0,1,0-9.2,9,9,0,0,1,3.64-3.05,11.52,11.52,0,0,1,5.09-1.09,11.22,11.22,0,0,1,5,1.09,9.11,9.11,0,0,1,3.63,3.05,8.43,8.43,0,0,1,0,9.2,9.19,9.19,0,0,1-3.63,3.05A11.49,11.49,0,0,1,367.46,384.62Zm0-3.35a5,5,0,0,0,3.93-1.53,6.12,6.12,0,0,0,0-7.72,5,5,0,0,0-3.93-1.47,5.17,5.17,0,0,0-3.94,1.47,5.42,5.42,0,0,0-1.41,3.88,5.54,5.54,0,0,0,1.41,3.84A5.14,5.14,0,0,0,367.46,381.27ZM375.67,371l-2.22-1.08a7.47,7.47,0,0,1,.9-3.74,6.33,6.33,0,0,1,2.5-2.5,7.14,7.14,0,0,1,3.67-.91l-.3,4.63a5.57,5.57,0,0,0-3.39.87A3.23,3.23,0,0,0,375.67,371Z"/><path class="cls-1" d="M386.08,367.72h4.75v14.9a5.78,5.78,0,0,0,1.34,4.18,5,5,0,0,0,3.76,1.4,6.25,6.25,0,0,0,3.61-1.08,7,7,0,0,0,2.45-3,11,11,0,0,0,.89-4.67h1.53a19.1,19.1,0,0,1-1.15,7.1,9.53,9.53,0,0,1-3.23,4.36,8.14,8.14,0,0,1-4.85,1.49,11,11,0,0,1-4.71-1,7.27,7.27,0,0,1-3.23-3,10.69,10.69,0,0,1-1.16-5.26Zm16.8,0h4.79v24.13h-4.78Z"/><path class="cls-1" d="M424.43,392.5a10.68,10.68,0,0,1-5-1.06,7.19,7.19,0,0,1-4-6.47,6.14,6.14,0,0,1,1.21-3.91,7.2,7.2,0,0,1,3.37-2.29,15,15,0,0,1,5-.75,19.6,19.6,0,0,1,3.75.35,31.69,31.69,0,0,1,3.6.93v2.88a20.83,20.83,0,0,0-6.5-1.16,7.33,7.33,0,0,0-3.8.9,3.26,3.26,0,0,0-1.53,3.05,3.67,3.67,0,0,0,1.2,2.72,5.43,5.43,0,0,0,3.8,1.13,6.46,6.46,0,0,0,5.6-3,4.94,4.94,0,0,0,.8-2.6h1.15a10.5,10.5,0,0,1-1,4.61,8.41,8.41,0,0,1-2.94,3.4A8.14,8.14,0,0,1,424.43,392.5Zm8.05-.65-.6-5.53v-10a6.23,6.23,0,0,0-1.22-4.29,5,5,0,0,0-3.88-1.33,7.57,7.57,0,0,0-2.66.43,4,4,0,0,0-1.83,1.31,3.59,3.59,0,0,0-.66,2.2h-5.25a6.76,6.76,0,0,1,1.3-4.3,7.48,7.48,0,0,1,3.64-2.41,17.41,17.41,0,0,1,5.46-.76,12.65,12.65,0,0,1,5.15,1,7.28,7.28,0,0,1,3.46,3,10.09,10.09,0,0,1,1.24,5.3V391.9Z"/><path class="cls-1" d="M445.67,391.85V357.68h4.75v34.17Z"/><path class="cls-1" d="M468.9,392.5a9.86,9.86,0,0,1-5.42-1.59,11.28,11.28,0,0,1-3.94-4.45,14.82,14.82,0,0,1-1.46-6.74,14.64,14.64,0,0,1,1.44-6.67,11,11,0,0,1,3.81-4.36,9.41,9.41,0,0,1,5.27-1.54,8,8,0,0,1,7.69,5,14.33,14.33,0,0,1,1.09,6h-1.65a7.09,7.09,0,0,0-.88-3.69,5.79,5.79,0,0,0-2.27-2.28,6.17,6.17,0,0,0-6.39.23,7.08,7.08,0,0,0-2.4,2.88,10.36,10.36,0,0,0-.89,4.43,10.83,10.83,0,0,0,.89,4.52,7.1,7.1,0,0,0,2.4,2.94,6,6,0,0,0,3.36,1,5.93,5.93,0,0,0,2.94-.81,6.45,6.45,0,0,0,2.33-2.34,6.91,6.91,0,0,0,.91-3.63h1.65a14.43,14.43,0,0,1-1.14,6.08,8.59,8.59,0,0,1-3.06,3.74A7.63,7.63,0,0,1,468.9,392.5Zm7.65-.65-.82-5.78V357.68h4.77v34.17Z"/><path class="cls-1" d="M497.28,392.5a10.7,10.7,0,0,1-5-1.06,7.21,7.21,0,0,1-3-2.79,7.34,7.34,0,0,1-1-3.68,6.14,6.14,0,0,1,1.21-3.91,7.22,7.22,0,0,1,3.36-2.29,14.88,14.88,0,0,1,4.95-.75,19.6,19.6,0,0,1,3.75.35,31.69,31.69,0,0,1,3.6.93v2.88a17.63,17.63,0,0,0-3.21-.84,18.07,18.07,0,0,0-3.29-.32,7.33,7.33,0,0,0-3.8.9,3.28,3.28,0,0,0-1.52,3.05,3.67,3.67,0,0,0,1.2,2.72,5.43,5.43,0,0,0,3.8,1.13,6.46,6.46,0,0,0,5.6-3,4.94,4.94,0,0,0,.8-2.6h1.15a10.5,10.5,0,0,1-1,4.61,8.41,8.41,0,0,1-2.94,3.4A8.16,8.16,0,0,1,497.28,392.5Zm8.05-.65-.6-5.53v-10A6.17,6.17,0,0,0,503.5,372a5,5,0,0,0-3.87-1.33,7.57,7.57,0,0,0-2.66.43,4,4,0,0,0-1.83,1.31,3.59,3.59,0,0,0-.66,2.2h-5.25a6.76,6.76,0,0,1,1.3-4.3,7.48,7.48,0,0,1,3.64-2.41,17.41,17.41,0,0,1,5.46-.76,12.65,12.65,0,0,1,5.15,1,7.28,7.28,0,0,1,3.46,3,10.09,10.09,0,0,1,1.24,5.3V391.9Z"/><path class="cls-1" d="M527.23,392.5a9.89,9.89,0,0,1-5.43-1.59,11.26,11.26,0,0,1-3.93-4.45,16.18,16.18,0,0,1,0-13.41,11,11,0,0,1,3.81-4.36,9.44,9.44,0,0,1,5.28-1.54,8.18,8.18,0,0,1,4.62,1.29,8.37,8.37,0,0,1,3.07,3.74,14.49,14.49,0,0,1,1.08,6h-1.65a7.28,7.28,0,0,0-.87-3.69,5.81,5.81,0,0,0-2.28-2.28,6.19,6.19,0,0,0-6.38.22,7.08,7.08,0,0,0-2.4,2.88,10.21,10.21,0,0,0-.89,4.43,10.64,10.64,0,0,0,.89,4.52,7.1,7.1,0,0,0,2.4,2.94,5.9,5.9,0,0,0,6.3.21,6.35,6.35,0,0,0,2.32-2.34,6.91,6.91,0,0,0,.91-3.63h1.59a14.61,14.61,0,0,1-1.13,6.08,8.61,8.61,0,0,1-3.07,3.74A7.67,7.67,0,0,1,527.23,392.5Zm7.65-.65-.83-5.78V357.68h4.78v34.17Z"/><path class="cls-1" d="M557,367.8h5.33l7.25,19.9h-1l5.83-19.9h4.85l-9.13,28.67a14.22,14.22,0,0,1-3.21,5.84,6.7,6.7,0,0,1-4.91,1.94,11.71,11.71,0,0,1-3.17-.43,16.17,16.17,0,0,1-3.08-1.25V398.3a10.82,10.82,0,0,0,2.6,1.38,8.23,8.23,0,0,0,2.6.42,3.45,3.45,0,0,0,2.31-.81,6.43,6.43,0,0,0,1.62-2.15,17.32,17.32,0,0,0,1.14-2.92l.73-2.37Z"/><path class="cls-1" d="M183.81,451.85V427.72h4.75v24.13Zm3.45-10.75a26.29,26.29,0,0,1,1-7.69,9.76,9.76,0,0,1,2.7-4.56,6,6,0,0,1,4.09-1.5,7.16,7.16,0,0,1,1.31.1c.41.07.82.16,1.22.27l-.18,4.73c-.45-.12-.94-.22-1.46-.31a7.64,7.64,0,0,0-1.44-.14,5,5,0,0,0-3.35,1.09,6.32,6.32,0,0,0-1.92,3.12,16.84,16.84,0,0,0-.63,4.89Z"/><path class="cls-1" d="M211.16,452.5a10.19,10.19,0,0,1-5.6-1.6,11.29,11.29,0,0,1-4-4.45,14.25,14.25,0,0,1-1.46-6.6,14.81,14.81,0,0,1,1.45-6.81,10.44,10.44,0,0,1,9.57-5.89,9.43,9.43,0,0,1,4.8,1.14,9.08,9.08,0,0,1,3.23,3,12.3,12.3,0,0,1,1.68,4.34,16.13,16.13,0,0,1,.17,5H203.9v-2.76h13.85l-1.15.76a12.9,12.9,0,0,0-.14-2.71,7.69,7.69,0,0,0-.81-2.48,4.72,4.72,0,0,0-1.69-1.83,5,5,0,0,0-2.76-.69,5.7,5.7,0,0,0-3.52,1,6.47,6.47,0,0,0-2.13,2.82,10,10,0,0,0-.73,3.86v1.93a11.37,11.37,0,0,0,.7,4.12,6.35,6.35,0,0,0,2.09,2.84,6.54,6.54,0,0,0,6.95,0,4.33,4.33,0,0,0,1.69-2.93h4.85a8.75,8.75,0,0,1-1.73,4.1,9,9,0,0,1-3.46,2.72A11.59,11.59,0,0,1,211.16,452.5Z"/><path class="cls-1" d="M237.36,452.5a15.66,15.66,0,0,1-5.9-1,8.23,8.23,0,0,1-3.66-2.75,7.27,7.27,0,0,1-1.32-4.13H231a3.64,3.64,0,0,0,1.71,3.08,7.76,7.76,0,0,0,4.24,1,7.1,7.1,0,0,0,2.59-.45,4.74,4.74,0,0,0,1.85-1.23,2.49,2.49,0,0,0,.68-1.75,2.31,2.31,0,0,0-.9-1.93,8.1,8.1,0,0,0-2.9-1.27l-4.92-1.67a11.08,11.08,0,0,1-4.53-2.66,5.76,5.76,0,0,1,.23-8.12,6,6,0,0,1,.85-.66,12.17,12.17,0,0,1,7-1.81c3,0,5.36.63,7,1.91a6.1,6.1,0,0,1,2.56,4.79h-4.57a2.87,2.87,0,0,0-1.41-2.19,6.8,6.8,0,0,0-3.57-.76,5.45,5.45,0,0,0-3.41,1,2.74,2.74,0,0,0-1.24,2.15c0,1.43,1.24,2.5,3.7,3.2L241.1,439a11.85,11.85,0,0,1,4.55,2.45,5,5,0,0,1,1.6,3.8,5.71,5.71,0,0,1-1.23,3.5,8.63,8.63,0,0,1-3.43,2.69A12.2,12.2,0,0,1,237.36,452.5Z"/><path class="cls-1" d="M254.88,463.65V427.8h3.93l.82,5.77v30.08Zm11.4-11.15a8.56,8.56,0,0,1-4.55-1.19,7.59,7.59,0,0,1-2.93-3.5,14.46,14.46,0,0,1-1-5.74h1.87a6.3,6.3,0,0,0,.85,3.34,5.82,5.82,0,0,0,2.24,2.08,6.53,6.53,0,0,0,3,.71,6.2,6.2,0,0,0,3.22-.94,6.93,6.93,0,0,0,2.56-2.81,9.62,9.62,0,0,0,1-4.65,10.51,10.51,0,0,0-.89-4.53,6.66,6.66,0,0,0-2.41-2.87,6.34,6.34,0,0,0-6.43-.24,5.81,5.81,0,0,0-2.25,2.23,7.12,7.12,0,0,0-.85,3.56h-1.85a13.89,13.89,0,0,1,1.17-6,8.24,8.24,0,0,1,3.13-3.58,8.36,8.36,0,0,1,4.38-1.19,9.92,9.92,0,0,1,5.3,1.51,11.14,11.14,0,0,1,4,4.34,15.8,15.8,0,0,1,0,13.63,11.27,11.27,0,0,1-4.06,4.36,10.27,10.27,0,0,1-5.49,1.48Z"/><path class="cls-1" d="M293.28,452.5a10.19,10.19,0,0,1-5.6-1.6,11.43,11.43,0,0,1-4-4.45,14.5,14.5,0,0,1-1.46-6.6,14.81,14.81,0,0,1,1.45-6.81,10.44,10.44,0,0,1,9.57-5.89,9.43,9.43,0,0,1,4.8,1.14,8.92,8.92,0,0,1,3.23,3,12,12,0,0,1,1.69,4.34,16.44,16.44,0,0,1,.16,5H286v-2.76h13.85l-1.15.76a12.9,12.9,0,0,0-.14-2.71,7.69,7.69,0,0,0-.81-2.48,4.72,4.72,0,0,0-1.69-1.83,5,5,0,0,0-2.76-.69,5.67,5.67,0,0,0-3.51,1,6.45,6.45,0,0,0-2.14,2.78,10.18,10.18,0,0,0-.73,3.86v1.93a11.67,11.67,0,0,0,.73,4.21,6.42,6.42,0,0,0,2.09,2.84,6.49,6.49,0,0,0,6.95.06,4.33,4.33,0,0,0,1.69-2.93h4.85a8.75,8.75,0,0,1-1.73,4.1,9,9,0,0,1-3.46,2.72A11.53,11.53,0,0,1,293.28,452.5Z"/><path class="cls-1" d="M307.46,431V427.8H323V431Zm11,21.48a8.6,8.6,0,0,1-3.7-.78,6,6,0,0,1-2.61-2.33,7.44,7.44,0,0,1-1-3.94v-24.2h4.73V445.3c0,2.26,1.06,3.4,3.17,3.4a8.64,8.64,0,0,0,1.9-.21,18.23,18.23,0,0,0,2.1-.64l.68,3.37a23.74,23.74,0,0,1-2.61.92,9.92,9.92,0,0,1-2.66.36Z"/><path class="cls-1" d="M338.93,452.5a12,12,0,0,1-5.86-1.43,10.1,10.1,0,0,1-4.09-4.25,17.08,17.08,0,0,1,0-14,10.19,10.19,0,0,1,4.09-4.24,12.68,12.68,0,0,1,11.66,0,10,10,0,0,1,4.06,4.24,14.85,14.85,0,0,1,1.49,7,14.64,14.64,0,0,1-1.49,7,10,10,0,0,1-4.06,4.25A11.71,11.71,0,0,1,338.93,452.5Zm-.15-4.15a6,6,0,0,0,5.91-3.91,11.63,11.63,0,0,0,.82-4.59,10.48,10.48,0,0,0-1.67-6.35,5.56,5.56,0,0,0-4.78-2.25,6.35,6.35,0,0,0-3.62,1,6.49,6.49,0,0,0-2.32,2.93,12,12,0,0,0-.81,4.66A10.36,10.36,0,0,0,334,446.1a5.67,5.67,0,0,0,4.8,2.25Z"/><path class="cls-1" d="M369.83,451.85V427.8H374l.52,4.52a9,9,0,0,1,3.16-3.85,8.48,8.48,0,0,1,4.74-1.32,8.75,8.75,0,0,1,4.91,1.3,8.19,8.19,0,0,1,3.07,3.69,13.65,13.65,0,0,1,1.05,5.61v14.1h-4.74V437.8a6.68,6.68,0,0,0-1.49-4.74,5.19,5.19,0,0,0-4-1.61,5.7,5.7,0,0,0-3.49,1.09,7,7,0,0,0-2.3,3.17,14.22,14.22,0,0,0-.81,5.09v11.1Zm33.33,0V437.8a6.77,6.77,0,0,0-1.49-4.74,5.17,5.17,0,0,0-4-1.61A5.32,5.32,0,0,0,393,433.8q-1.63,2.34-1.63,6.75h-2.08a23.76,23.76,0,0,1,.68-6,11.59,11.59,0,0,1,1.93-4.15,7.9,7.9,0,0,1,3-2.41,9.54,9.54,0,0,1,3.94-.79,8.75,8.75,0,0,1,4.91,1.3,8.17,8.17,0,0,1,3.06,3.69,13.65,13.65,0,0,1,1.05,5.61v14.1Z"/><path class="cls-1" d="M416.28,427.72H421v14.91a5.76,5.76,0,0,0,1.34,4.17,5,5,0,0,0,3.76,1.4,6.25,6.25,0,0,0,3.61-1.08,7.1,7.1,0,0,0,2.45-3,11.2,11.2,0,0,0,.89-4.67h1.53a19.1,19.1,0,0,1-1.15,7.1,9.53,9.53,0,0,1-3.23,4.36,8.14,8.14,0,0,1-4.85,1.49,11,11,0,0,1-4.71-1,7.27,7.27,0,0,1-3.23-3,10.69,10.69,0,0,1-1.16-5.26Zm16.8,0h4.78v24.13h-4.78Z"/><path class="cls-1" d="M444.38,431V427.8H459.9V431Zm11,21.48a8.6,8.6,0,0,1-3.7-.78,6,6,0,0,1-2.61-2.33,7.47,7.47,0,0,1-1-3.94v-24.2h4.72V445.3c0,2.26,1.06,3.4,3.18,3.4a8.64,8.64,0,0,0,1.9-.21,21.23,21.23,0,0,0,2.1-.64l.67,3.37a21.83,21.83,0,0,1-2.61.92,10.22,10.22,0,0,1-2.7.36Z"/><path class="cls-1" d="M466.2,427.72H471v14.91a5.83,5.83,0,0,0,1.34,4.12,5,5,0,0,0,3.76,1.4,6.28,6.28,0,0,0,3.62-1.08,7.16,7.16,0,0,0,2.45-3,11.35,11.35,0,0,0,.88-4.67h1.53a19.07,19.07,0,0,1-1.15,7.1,9.53,9.53,0,0,1-3.23,4.36,8.14,8.14,0,0,1-4.85,1.49,11,11,0,0,1-4.71-1,7.19,7.19,0,0,1-3.22-3,10.56,10.56,0,0,1-1.17-5.26Zm16.8,0h4.78v24.13H483Z"/><path class="cls-1" d="M506.58,452.5a12,12,0,0,1-5.86-1.43,10.05,10.05,0,0,1-4.05-4.27,17.08,17.08,0,0,1,0-14,10.19,10.19,0,0,1,4.09-4.24,12.68,12.68,0,0,1,11.66,0,10.12,10.12,0,0,1,4.06,4.24,17.19,17.19,0,0,1,0,14,10,10,0,0,1-4.06,4.25A11.79,11.79,0,0,1,506.58,452.5Zm-.15-4.15a6,6,0,0,0,5.91-3.91,11.62,11.62,0,0,0,.81-4.59,10.47,10.47,0,0,0-1.66-6.35,5.57,5.57,0,0,0-4.79-2.25,6.06,6.06,0,0,0-5.93,3.94,11.94,11.94,0,0,0-.82,4.66,10.28,10.28,0,0,0,1.68,6.26,5.64,5.64,0,0,0,4.8,2.24Z"/><path class="cls-4" d="M410.82,103.66c-4.06-3.06-9.43-7.16-13.54-10.15-2-1.48-4.81-4.43-7.09-4.78a4.19,4.19,0,0,0-4.93,5.08c.52,2.54,2.78,2.87,4.78,4.77a106.62,106.62,0,0,1-8.93,10.93c-3.13,3.21-6.73,7.27-11.09,8.63-1.62.51-3.21.42-4.62,1.09-4.5,2.14-7.85,11.54-7.85,11.54l9.7,7.7s-15.53,25-23.4,37.37c-1.9,3-.65,3.94,1.79,1.25,9.91-10.94,19.7-22,29.92-32.62,3.1,2.55,6.38,4.92,9.7,7.24,3.26-1.83,6-3.88,7.7-6.92,1.48-2.7,1-5.3,1.23-9.09.35-5,3-9.59,5.24-13.39,2.48-4.14,5.12-7.62,7.55-11.1,2.06,1.05,3.13,3.37,5.85,3.39a4.27,4.27,0,0,0,4.16-5.23c-.39-2.2-4-4.09-6.17-5.71Z"/></g></svg>