<svg xmlns="http://www.w3.org/2000/svg" viewBox="0 0 700 700"><defs><style>.cls-1{fill:#252525;}.cls-2,.cls-4{fill:#e3f0ff;}.cls-2,.cls-3,.cls-4{stroke:#252525;stroke-miterlimit:10;}.cls-2,.cls-3{stroke-width:5px;}.cls-3{fill:#b8d5ff;}.cls-4{stroke-width:2px;}</style></defs><g id="Capa_2" data-name="Capa 2"><g id="Capa_2-2" data-name="Capa 2"><rect class="cls-1" width="700" height="700"/></g></g><g id="Capa_1" data-name="Capa 1"><path class="cls-2" d="M84.26,120.66H615.74c18.92,0,34.26,12.27,34.26,27.41V573.25c0,15.14-15.34,27.41-34.26,27.41H84.26C65.34,600.66,50,588.39,50,573.25V148.07C50,132.93,65.34,120.66,84.26,120.66Z"/><path class="cls-3" d="M650,231.66V154.92a34.26,34.26,0,0,0-34.26-34.26H84.26A34.26,34.26,0,0,0,50,154.92h0v76.74Z"/><path class="cls-1" d="M126.87,336h4.75v20.12c0,2.84.71,4.89,2.13,6.13a9.18,9.18,0,0,0,11.12,0c1.41-1.24,2.11-3.29,2.12-6.13V336h4.75v20.12a14,14,0,0,1-1.5,6.77A9.79,9.79,0,0,1,146,367a16.06,16.06,0,0,1-13.26,0,10,10,0,0,1-4.31-4.18,13.82,13.82,0,0,1-1.51-6.77Z"/><path class="cls-1" d="M157.69,347v-3.22h15.53V347Zm10.95,21.48a8.43,8.43,0,0,1-3.7-.78,6,6,0,0,1-2.61-2.33,7.44,7.44,0,0,1-1-3.94V337.25h4.77v24q0,3.4,3.18,3.4a8.64,8.64,0,0,0,1.9-.21,19.52,19.52,0,0,0,2.1-.64l.67,3.37a21.83,21.83,0,0,1-2.61.92A9.87,9.87,0,0,1,168.64,368.45Z"/><path class="cls-1" d="M182.87,338.63a3.08,3.08,0,0,1-2.24-.79,2.84,2.84,0,0,1-.81-2.14,2.7,2.7,0,0,1,.81-2.06,3.6,3.6,0,0,1,4.45,0,2.7,2.7,0,0,1,.81,2.06,2.84,2.84,0,0,1-.81,2.14A3,3,0,0,1,182.87,338.63Zm-2.38,29.17V343.67h4.75V367.8Z"/><path class="cls-1" d="M195.66,367.8V333.63h4.75V367.8Z"/><path class="cls-1" d="M212.94,338.63a3.08,3.08,0,0,1-2.24-.79,2.84,2.84,0,0,1-.81-2.14,2.7,2.7,0,0,1,.81-2.06,3.6,3.6,0,0,1,4.45,0,2.7,2.7,0,0,1,.81,2.06,2.84,2.84,0,0,1-.81,2.14A3,3,0,0,1,212.94,338.63Zm-2.38,29.17V343.67h4.75V367.8Z"/><path class="cls-1" d="M223.59,367.8V364l13.51-16.38H223.59v-3.82h18.77v3.82L229.19,364h13.17v3.85Z"/><path class="cls-1" d="M256.91,368.45a10.53,10.53,0,0,1-5-1.06,7.17,7.17,0,0,1-4-6.47,6.19,6.19,0,0,1,1.22-3.91,7.12,7.12,0,0,1,3.36-2.29,15.14,15.14,0,0,1,4.95-.75,20.52,20.52,0,0,1,3.75.35,31.69,31.69,0,0,1,3.6.93v2.88a20.88,20.88,0,0,0-6.5-1.16,7.29,7.29,0,0,0-3.8.9,3.25,3.25,0,0,0-1.53,3.05,3.61,3.61,0,0,0,1.2,2.72,5.36,5.36,0,0,0,3.8,1.13,6.47,6.47,0,0,0,5.6-3,4.88,4.88,0,0,0,.8-2.6h1.15a10.5,10.5,0,0,1-1,4.61,8.35,8.35,0,0,1-2.94,3.4A8.08,8.08,0,0,1,256.91,368.45Zm8-.65-.6-5.53v-10a6.28,6.28,0,0,0-1.22-4.29,5,5,0,0,0-3.88-1.33,7.73,7.73,0,0,0-2.66.43,4.05,4.05,0,0,0-1.82,1.31,3.48,3.48,0,0,0-.67,2.2h-5.25a6.77,6.77,0,0,1,1.3-4.3,7.39,7.39,0,0,1,3.64-2.41,17.71,17.71,0,0,1,5.46-.76,13,13,0,0,1,5.15,1,7.45,7.45,0,0,1,3.47,3,10.23,10.23,0,0,1,1.23,5.3v15.43Z"/><path class="cls-1" d="M278.1,367.8V343.67h4.75V367.8Zm3.45-10.75a26.29,26.29,0,0,1,1-7.69,9.68,9.68,0,0,1,2.7-4.56,6.08,6.08,0,0,1,4.09-1.5,8.17,8.17,0,0,1,1.31.1c.41.07.81.16,1.21.27l-.17,4.73c-.45-.12-.94-.22-1.46-.31a10,10,0,0,0-1.44-.14,5,5,0,0,0-3.35,1.09,6.31,6.31,0,0,0-1.93,3.12,17.18,17.18,0,0,0-.62,4.89Z"/><path class="cls-1" d="M309.1,367.8V333.63h4.75V367.8Z"/><path class="cls-1" d="M332.21,368.45a10.11,10.11,0,0,1-5.6-1.6,11.22,11.22,0,0,1-4-4.45,14.22,14.22,0,0,1-1.46-6.6A14.71,14.71,0,0,1,322.6,349a10.43,10.43,0,0,1,9.57-5.89,9.56,9.56,0,0,1,4.8,1.14,9.17,9.17,0,0,1,3.23,3.05,12.18,12.18,0,0,1,1.68,4.34,16.45,16.45,0,0,1,.17,5H325v-2.76H338.8l-1.15.76a13,13,0,0,0-.14-2.71,7.85,7.85,0,0,0-.81-2.48,4.8,4.8,0,0,0-1.69-1.83,5.13,5.13,0,0,0-2.76-.69,5.81,5.81,0,0,0-3.52,1.05,6.45,6.45,0,0,0-2.13,2.82,9.85,9.85,0,0,0-.73,3.86v1.92a11.18,11.18,0,0,0,.7,4.13,6.29,6.29,0,0,0,2.09,2.84,5.69,5.69,0,0,0,3.51,1,5.77,5.77,0,0,0,3.44-1,4.28,4.28,0,0,0,1.69-2.93h4.85a8.81,8.81,0,0,1-1.73,4.1,8.93,8.93,0,0,1-3.46,2.72A11.27,11.27,0,0,1,332.21,368.45Z"/><path class="cls-1" d="M349.61,367.8V343.75h4.13l.62,5.2V367.8Zm16.85,0V353.7A6.77,6.77,0,0,0,365,349a5.24,5.24,0,0,0-4-1.61,5.81,5.81,0,0,0-3.49,1.09,7,7,0,0,0-2.3,3.17,14,14,0,0,0-.81,5.09h-1.7a21.21,21.21,0,0,1,1.13-7.45,9.71,9.71,0,0,1,3.26-4.59,8.36,8.36,0,0,1,5.1-1.56,8.92,8.92,0,0,1,4.91,1.3,8.25,8.25,0,0,1,3.07,3.69,13.81,13.81,0,0,1,1,5.61v14.1Z"/><path class="cls-1" d="M389.1,380.25a18.91,18.91,0,0,1-6.71-1.07,10.45,10.45,0,0,1-4.34-2.88,6,6,0,0,1-1.52-3.93,4.78,4.78,0,0,1,2-4.13,8.38,8.38,0,0,1,5-1.44l3.07,1.45a6.66,6.66,0,0,0-4,1.05,3.37,3.37,0,0,0-1.41,2.85,3.55,3.55,0,0,0,2,3.09,11.59,11.59,0,0,0,5.87,1.21,13.52,13.52,0,0,0,4.88-.81,7.94,7.94,0,0,0,3.25-2.13,4.2,4.2,0,0,0,1.15-2.81,2.34,2.34,0,0,0-.74-1.74,3.14,3.14,0,0,0-2.24-.71h-8.8a11.33,11.33,0,0,1-4.31-.76,7.24,7.24,0,0,1-2.91-2,4.15,4.15,0,0,1-1-2.77,4.11,4.11,0,0,1,.85-2.59,5.28,5.28,0,0,1,2.25-1.65,8.27,8.27,0,0,1,3.07-.56l1.08,1.65a3.63,3.63,0,0,0-1.45.31,2.92,2.92,0,0,0-1.2.94,2.48,2.48,0,0,0-.48,1.55,2.21,2.21,0,0,0,.91,1.79,5.47,5.47,0,0,0,3.24.71h8.8a9.86,9.86,0,0,1,5.65,1.42,4.76,4.76,0,0,1,2,4.15,7.81,7.81,0,0,1-1.7,4.73,12.07,12.07,0,0,1-4.84,3.67A17.76,17.76,0,0,1,389.1,380.25Zm.53-19.63a11.59,11.59,0,0,1-5.09-1.08,8.91,8.91,0,0,1-3.64-3.05,8.51,8.51,0,0,1,0-9.2,8.92,8.92,0,0,1,3.64-3.05,11.74,11.74,0,0,1,5.09-1.09,11.36,11.36,0,0,1,5,1.09,9.22,9.22,0,0,1,3.57,3,8.47,8.47,0,0,1,0,9.2,9.11,9.11,0,0,1-3.63,3.05,11.28,11.28,0,0,1-5,1.07Zm0-3.35a5,5,0,0,0,3.93-1.53,5.61,5.61,0,0,0,1.37-3.84,5.53,5.53,0,0,0-1.37-3.88,5.09,5.09,0,0,0-3.93-1.47,5.24,5.24,0,0,0-3.94,1.47,5.4,5.4,0,0,0-1.41,3.88,5.48,5.48,0,0,0,1.41,3.84,5.07,5.07,0,0,0,3.9,1.51ZM397.8,347l-2.22-1.08a7.52,7.52,0,0,1,.9-3.74,6.39,6.39,0,0,1,2.5-2.5,7.24,7.24,0,0,1,3.67-.91l-.3,4.63a5.64,5.64,0,0,0-3.39.87,3.21,3.21,0,0,0-1.2,2.68Z"/><path class="cls-1" d="M408.21,343.67H413v14.9a5.75,5.75,0,0,0,1.34,4.13,5,5,0,0,0,3.76,1.4,6.11,6.11,0,0,0,3.61-1.08,7,7,0,0,0,2.45-3,11.33,11.33,0,0,0,.89-4.67h1.53a19.49,19.49,0,0,1-1.15,7.1,9.54,9.54,0,0,1-3.23,4.36,8.11,8.11,0,0,1-4.85,1.49,10.76,10.76,0,0,1-4.71-1,7.06,7.06,0,0,1-3.23-3,10.64,10.64,0,0,1-1.16-5.26Zm16.8,0h4.78V367.8H425Z"/><path class="cls-1" d="M446.56,368.45a10.53,10.53,0,0,1-5-1.06,7.17,7.17,0,0,1-4-6.47,6.12,6.12,0,0,1,1.21-3.91,7.2,7.2,0,0,1,3.37-2.29,15,15,0,0,1,4.94-.75,20.52,20.52,0,0,1,3.75.35,31.69,31.69,0,0,1,3.6.93v2.88a18.72,18.72,0,0,0-3.21-.84,19.2,19.2,0,0,0-3.29-.32,7.37,7.37,0,0,0-3.79.9,3.25,3.25,0,0,0-1.53,3.05,3.61,3.61,0,0,0,1.2,2.72,5.36,5.36,0,0,0,3.8,1.13,6.47,6.47,0,0,0,5.6-3,5,5,0,0,0,.8-2.6h1.15a10.5,10.5,0,0,1-1,4.61,8.42,8.42,0,0,1-2.94,3.4A8.08,8.08,0,0,1,446.56,368.45Zm8.05-.65-.6-5.53v-10a6.28,6.28,0,0,0-1.22-4.29,5,5,0,0,0-3.88-1.33,7.5,7.5,0,0,0-2.66.43,4,4,0,0,0-1.83,1.31,3.55,3.55,0,0,0-.66,2.2h-5.25a6.76,6.76,0,0,1,1.3-4.3,7.39,7.39,0,0,1,3.64-2.41,17.71,17.71,0,0,1,5.46-.76,13,13,0,0,1,5.15,1,7.43,7.43,0,0,1,3.46,3,10.12,10.12,0,0,1,1.24,5.3v15.43Z"/><path class="cls-1" d="M465.66,380.25a13,13,0,0,1-3.46-.44,17.88,17.88,0,0,1-3.37-1.29l.15-4.1a18.15,18.15,0,0,0,2.8,1.2,8.66,8.66,0,0,0,2.85.48,3.82,3.82,0,0,0,3.05-1.21,5.82,5.82,0,0,0,1.08-3.92V343.65h4.72V371c0,3.3-.7,5.67-2.12,7.09A7.67,7.67,0,0,1,465.66,380.25Zm5.44-41.62a3,3,0,0,1-2.21-.79,2.84,2.84,0,0,1-.81-2.14,2.7,2.7,0,0,1,.81-2.06,3.14,3.14,0,0,1,2.21-.77,3.2,3.2,0,0,1,2.23.77,2.67,2.67,0,0,1,.82,2.06,2.83,2.83,0,0,1-.82,2.14A3.1,3.1,0,0,1,471.1,338.63Z"/><path class="cls-1" d="M492.53,368.45a10.11,10.11,0,0,1-5.6-1.6,11.29,11.29,0,0,1-4-4.45,14.22,14.22,0,0,1-1.46-6.6,14.71,14.71,0,0,1,1.45-6.81,10.43,10.43,0,0,1,9.57-5.89,9.56,9.56,0,0,1,4.8,1.14,9.17,9.17,0,0,1,3.23,3.05,12.2,12.2,0,0,1,1.69,4.34,16.78,16.78,0,0,1,.16,5h-17.1v-2.76h13.85l-1.15.76a13,13,0,0,0-.14-2.71,7.85,7.85,0,0,0-.81-2.48,4.72,4.72,0,0,0-1.69-1.83,5,5,0,0,0-2.76-.69,5.78,5.78,0,0,0-3.51,1.05,6.42,6.42,0,0,0-2.14,2.82,10.22,10.22,0,0,0-.73,3.86v1.92a11.39,11.39,0,0,0,.7,4.13,6.29,6.29,0,0,0,2.09,2.84,6.53,6.53,0,0,0,6.95.06,4.28,4.28,0,0,0,1.69-2.93h4.85a8.81,8.81,0,0,1-1.73,4.1,8.93,8.93,0,0,1-3.46,2.72A11.44,11.44,0,0,1,492.53,368.45Z"/><path class="cls-1" d="M522.1,367.8V343.75h4.13l.62,5.2V367.8Zm16.85,0V353.7a6.83,6.83,0,0,0-1.48-4.74,5.27,5.27,0,0,0-4-1.61,5.71,5.71,0,0,0-3.48,1.09,6.82,6.82,0,0,0-2.3,3.17,13.8,13.8,0,0,0-.82,5.09h-1.7a21.22,21.22,0,0,1,1.14-7.45,9.82,9.82,0,0,1,3.26-4.59,8.36,8.36,0,0,1,5.1-1.56,9,9,0,0,1,4.92,1.3,8.28,8.28,0,0,1,3.06,3.69,13.85,13.85,0,0,1,1.05,5.61v14.1Z"/><path class="cls-1" d="M561.78,368.45a12,12,0,0,1-5.86-1.43,10.1,10.1,0,0,1-4.09-4.25,14.62,14.62,0,0,1-1.5-7,14.88,14.88,0,0,1,1.5-7,10.25,10.25,0,0,1,4.09-4.24,12.09,12.09,0,0,1,5.86-1.42,11.86,11.86,0,0,1,5.8,1.42,10.2,10.2,0,0,1,4.07,4.24,17.29,17.29,0,0,1,0,14,10.05,10.05,0,0,1-4.07,4.25A11.76,11.76,0,0,1,561.78,368.45Zm-.15-4.15a6.26,6.26,0,0,0,3.59-1,6.4,6.4,0,0,0,2.33-2.91,11.8,11.8,0,0,0,.81-4.59,10.63,10.63,0,0,0-1.66-6.35,5.61,5.61,0,0,0-4.79-2.25,6.3,6.3,0,0,0-3.61,1,6.5,6.5,0,0,0-2.33,2.93,12,12,0,0,0-.81,4.66,10.28,10.28,0,0,0,1.67,6.26,5.63,5.63,0,0,0,4.8,2.25Z"/><path class="cls-1" d="M278.7,428.45a15.63,15.63,0,0,1-5.9-1,8.12,8.12,0,0,1-3.66-2.75,7.14,7.14,0,0,1-1.31-4.14h4.47a3.6,3.6,0,0,0,1.66,3.08,7.76,7.76,0,0,0,4.24,1,7.17,7.17,0,0,0,2.59-.45,4.63,4.63,0,0,0,1.85-1.23,2.57,2.57,0,0,0,.69-1.75,2.34,2.34,0,0,0-.9-1.93,8.55,8.55,0,0,0-2.9-1.27l-4.93-1.67a11,11,0,0,1-4.52-2.66,5.73,5.73,0,0,1,.2-8.1,6.36,6.36,0,0,1,.87-.68,12.33,12.33,0,0,1,7-1.81,11.29,11.29,0,0,1,7,1.91,6.11,6.11,0,0,1,2.57,4.79h-4.58a2.87,2.87,0,0,0-1.41-2.19,6.89,6.89,0,0,0-3.56-.76,5.6,5.6,0,0,0-3.42,1,2.73,2.73,0,0,0-1.23,2.15c0,1.44,1.23,2.5,3.7,3.2l5.17,1.82a12,12,0,0,1,4.55,2.45,5,5,0,0,1,1.6,3.8,5.77,5.77,0,0,1-1.22,3.5,9,9,0,0,1-3.44,2.69A12,12,0,0,1,278.7,428.45Z"/><path class="cls-1" d="M304.85,428.45a10.11,10.11,0,0,1-5.6-1.6,11.15,11.15,0,0,1-4-4.45,14.22,14.22,0,0,1-1.46-6.6,14.71,14.71,0,0,1,1.45-6.81,10.43,10.43,0,0,1,9.57-5.89,9.56,9.56,0,0,1,4.8,1.14,9.25,9.25,0,0,1,3.23,3.05,12.18,12.18,0,0,1,1.68,4.34,16.45,16.45,0,0,1,.17,5h-17.1v-2.76h13.85l-1.15.76a13,13,0,0,0-.14-2.71,7.85,7.85,0,0,0-.81-2.48,4.8,4.8,0,0,0-1.69-1.83,5.13,5.13,0,0,0-2.76-.69,5.81,5.81,0,0,0-3.52,1.05,6.45,6.45,0,0,0-2.13,2.82,9.85,9.85,0,0,0-.73,3.86v1.92a11.18,11.18,0,0,0,.7,4.13,6.29,6.29,0,0,0,2.09,2.84,5.69,5.69,0,0,0,3.51,1,5.77,5.77,0,0,0,3.44-1,4.28,4.28,0,0,0,1.69-2.93h4.85a8.81,8.81,0,0,1-1.73,4.1,8.93,8.93,0,0,1-3.46,2.72A11.43,11.43,0,0,1,304.85,428.45Z"/><path class="cls-1" d="M318.45,427.8l9.23-12-9.23-12.13h5.83l6.47,8.53,6.18-8.53h5.8L333.5,415.8l9.2,12h-5.8l-6.5-8.55-6.12,8.55Z"/><path class="cls-1" d="M351.48,398.63a3.08,3.08,0,0,1-2.24-.79,2.84,2.84,0,0,1-.81-2.14,2.7,2.7,0,0,1,.81-2.06,3.6,3.6,0,0,1,4.45,0,2.7,2.7,0,0,1,.81,2.06,2.84,2.84,0,0,1-.81,2.14A3,3,0,0,1,351.48,398.63ZM349.1,427.8V403.67h4.75V427.8Z"/><path class="cls-1" d="M373.1,428.45a15.63,15.63,0,0,1-5.9-1,8.12,8.12,0,0,1-3.66-2.75,7.14,7.14,0,0,1-1.31-4.14h4.47a3.61,3.61,0,0,0,1.67,3.08,7.7,7.7,0,0,0,4.23,1,7.17,7.17,0,0,0,2.59-.45A4.53,4.53,0,0,0,377,423a2.57,2.57,0,0,0,.69-1.75,2.34,2.34,0,0,0-.9-1.93,8.55,8.55,0,0,0-2.9-1.27L369,416.34a11,11,0,0,1-4.53-2.66,5.73,5.73,0,0,1,.2-8.1,6.36,6.36,0,0,1,.87-.68,12.33,12.33,0,0,1,7-1.81q4.53,0,7,1.91a6.13,6.13,0,0,1,2.56,4.79h-4.58a2.85,2.85,0,0,0-1.41-2.19,6.89,6.89,0,0,0-3.56-.76,5.51,5.51,0,0,0-3.41,1,2.7,2.7,0,0,0-1.24,2.15c0,1.44,1.23,2.5,3.7,3.2l5.17,1.82a12,12,0,0,1,4.55,2.45,5,5,0,0,1,1.6,3.8,5.77,5.77,0,0,1-1.22,3.5,8.8,8.8,0,0,1-3.44,2.69A12,12,0,0,1,373.1,428.45Z"/><path class="cls-1" d="M387.37,407v-3.22H402.9V407Zm11,21.48a8.57,8.57,0,0,1-3.7-.78,6,6,0,0,1-2.61-2.33,7.44,7.44,0,0,1-1-3.94V397.25h4.72v24q0,3.4,3.18,3.4a8.64,8.64,0,0,0,1.9-.21,17.49,17.49,0,0,0,2.1-.64l.67,3.37a21.83,21.83,0,0,1-2.61.92,9.5,9.5,0,0,1-2.7.36Z"/><path class="cls-1" d="M416.82,428.45a10.53,10.53,0,0,1-5-1.06,7.17,7.17,0,0,1-4-6.47A6.19,6.19,0,0,1,409,417a7.12,7.12,0,0,1,3.36-2.29,15.14,15.14,0,0,1,5-.75,20.52,20.52,0,0,1,3.75.35,31.69,31.69,0,0,1,3.6.93v2.88a20.88,20.88,0,0,0-6.5-1.16,7.29,7.29,0,0,0-3.8.9,3.25,3.25,0,0,0-1.53,3.05,3.61,3.61,0,0,0,1.2,2.72,5.36,5.36,0,0,0,3.8,1.13,6.47,6.47,0,0,0,5.6-3,4.88,4.88,0,0,0,.8-2.6h1.15a10.5,10.5,0,0,1-1,4.61,8.35,8.35,0,0,1-2.94,3.4A8.08,8.08,0,0,1,416.82,428.45Zm8-.65-.6-5.53v-10A6.23,6.23,0,0,0,423,408a5,5,0,0,0-3.88-1.33,7.73,7.73,0,0,0-2.66.43,4.05,4.05,0,0,0-1.82,1.31,3.48,3.48,0,0,0-.67,2.2h-5.25a6.8,6.8,0,0,1,1.38-4.32,7.39,7.39,0,0,1,3.64-2.41,17.71,17.71,0,0,1,5.46-.76,13,13,0,0,1,5.15,1,7.45,7.45,0,0,1,3.47,3,10.23,10.23,0,0,1,1.23,5.3v15.43Z"/><path class="cls-4" d="M410.82,103.66c-4.06-3.06-9.43-7.16-13.54-10.15-2-1.48-4.81-4.43-7.09-4.78a4.19,4.19,0,0,0-4.93,5.08c.52,2.54,2.78,2.87,4.78,4.77a106.62,106.62,0,0,1-8.93,10.93c-3.13,3.21-6.73,7.27-11.09,8.63-1.62.51-3.21.42-4.62,1.09-4.5,2.14-7.85,11.54-7.85,11.54l9.7,7.7s-15.53,25-23.4,37.37c-1.9,3-.65,3.94,1.79,1.25,9.91-10.94,19.7-22,29.92-32.62,3.1,2.55,6.38,4.92,9.7,7.24,3.26-1.83,6-3.88,7.7-6.92,1.48-2.7,1-5.3,1.23-9.09.35-5,3-9.59,5.24-13.39,2.48-4.14,5.12-7.62,7.55-11.1,2.06,1.05,3.13,3.37,5.85,3.39a4.27,4.27,0,0,0,4.16-5.23c-.39-2.2-4-4.09-6.17-5.71Z"/></g></svg>