<svg xmlns="http://www.w3.org/2000/svg" viewBox="0 0 700 700"><defs><style>.cls-1{fill:#252525;}.cls-2,.cls-4{fill:#e3f0ff;}.cls-2,.cls-3,.cls-4{stroke:#252525;stroke-miterlimit:10;}.cls-2,.cls-3{stroke-width:5px;}.cls-3{fill:#b8d5ff;}.cls-4{stroke-width:2px;}</style></defs><g id="Capa_2" data-name="Capa 2"><g id="Capa_2-2" data-name="Capa 2"><rect class="cls-1" width="700" height="700"/></g></g><g id="Capa_1" data-name="Capa 1"><path class="cls-2" d="M84.26,120.66H615.74c18.92,0,34.26,12.27,34.26,27.41V573.25c0,15.14-15.34,27.41-34.26,27.41H84.26C65.34,600.66,50,588.39,50,573.25V148.07C50,132.93,65.34,120.66,84.26,120.66Z"/><path class="cls-3" d="M650,231.66V154.92a34.26,34.26,0,0,0-34.26-34.26H84.26A34.26,34.26,0,0,0,50,154.92h0v76.74Z"/><path class="cls-1" d="M81,332.11h5.21l14.81,23.72h-.38V332.11h4.56v30.58h-4.85L84.87,337.92h.72v24.77H81Z"/><path class="cls-1" d="M123.29,363.31a11.56,11.56,0,0,1-5.62-1.36,9.66,9.66,0,0,1-3.93-4.08,16.45,16.45,0,0,1,0-13.46,9.56,9.56,0,0,1,3.93-4.06,11.24,11.24,0,0,1,5.62-1.37,11.08,11.08,0,0,1,5.57,1.37,9.61,9.61,0,0,1,3.9,4.06,16.6,16.6,0,0,1,0,13.46,9.83,9.83,0,0,1-3.9,4.08A11.39,11.39,0,0,1,123.29,363.31Zm-.14-4a5.85,5.85,0,0,0,5.68-3.76,11.42,11.42,0,0,0,.78-4.4,10.1,10.1,0,0,0-1.6-6.1,5.34,5.34,0,0,0-4.59-2.16,5.89,5.89,0,0,0-5.71,3.78,11.41,11.41,0,0,0-.78,4.48,9.83,9.83,0,0,0,1.61,6,5.44,5.44,0,0,0,4.61,2.18Z"/><path class="cls-1" d="M159.67,363.31a10.27,10.27,0,0,1-4.82-1,7,7,0,0,1-2.87-2.67,6.9,6.9,0,0,1-1-3.53,5.85,5.85,0,0,1,1.17-3.76,6.72,6.72,0,0,1,3.22-2.19,14.22,14.22,0,0,1,4.76-.72,18.2,18.2,0,0,1,3.6.33,28.19,28.19,0,0,1,3.45.89v2.76a18.6,18.6,0,0,0-3.08-.8,16.83,16.83,0,0,0-3.16-.3,7,7,0,0,0-3.65.86,3.11,3.11,0,0,0-1.46,2.93,3.37,3.37,0,0,0,1.15,2.6,5.2,5.2,0,0,0,3.65,1.1,6.29,6.29,0,0,0,3.22-.83A6.51,6.51,0,0,0,166,356.9a4.82,4.82,0,0,0,.76-2.49h1.11a10.24,10.24,0,0,1-1,4.42,8.18,8.18,0,0,1-2.82,3.27A8,8,0,0,1,159.67,363.31Zm7.73-.62-.58-5.3v-9.63a6,6,0,0,0-1.17-4.11,4.83,4.83,0,0,0-3.72-1.29,7,7,0,0,0-2.56.42,3.75,3.75,0,0,0-1.75,1.26,3.38,3.38,0,0,0-.64,2.11h-5a6.41,6.41,0,0,1,1.25-4.12,7,7,0,0,1,3.44-2.32,16.66,16.66,0,0,1,5.25-.73,12.32,12.32,0,0,1,4.94.92,7.09,7.09,0,0,1,3.33,2.89,9.87,9.87,0,0,1,1.18,5.09v14.81Z"/><path class="cls-1" d="M188.53,363.31a15.19,15.19,0,0,1-5.67-.94,8,8,0,0,1-3.51-2.64,6.83,6.83,0,0,1-1.26-4h4.29a3.47,3.47,0,0,0,1.6,3,7.51,7.51,0,0,0,4.07,1,6.83,6.83,0,0,0,2.48-.44,4.8,4.8,0,0,0,1.78-1.17,2.55,2.55,0,0,0,.66-1.68,2.23,2.23,0,0,0-.87-1.86,7.93,7.93,0,0,0-2.78-1.21l-4.73-1.61a10.46,10.46,0,0,1-4.34-2.56,5.48,5.48,0,0,1,.14-7.75,5.09,5.09,0,0,1,.86-.67A11.65,11.65,0,0,1,188,339a10.76,10.76,0,0,1,6.71,1.83,5.87,5.87,0,0,1,2.46,4.6h-4.39a2.78,2.78,0,0,0-1.36-2.1,6.48,6.48,0,0,0-3.42-.73,5.18,5.18,0,0,0-3.27.91,2.55,2.55,0,0,0-1.19,2.06c0,1.38,1.18,2.4,3.55,3.08l5,1.75a11.33,11.33,0,0,1,4.37,2.35,4.84,4.84,0,0,1,1.53,3.65,5.7,5.7,0,0,1-1.17,3.36,8.78,8.78,0,0,1-3.3,2.58A11.86,11.86,0,0,1,188.53,363.31Z"/><path class="cls-1" d="M214,363.31a11.6,11.6,0,0,1-5.63-1.36,9.76,9.76,0,0,1-3.92-4.08,16.45,16.45,0,0,1,0-13.46,9.54,9.54,0,0,1,3.92-4.06,12.13,12.13,0,0,1,11.2,0,9.64,9.64,0,0,1,3.89,4.06,16.6,16.6,0,0,1,0,13.46,9.81,9.81,0,0,1-3.89,4.08A11.39,11.39,0,0,1,214,363.31Zm-.15-4a5.84,5.84,0,0,0,5.68-3.76,11.42,11.42,0,0,0,.78-4.4,10.1,10.1,0,0,0-1.6-6.1,5.34,5.34,0,0,0-4.59-2.16,5.84,5.84,0,0,0-5.7,3.78,11.24,11.24,0,0,0-.78,4.48,9.76,9.76,0,0,0,1.61,6,5.4,5.4,0,0,0,4.6,2.18Z"/><path class="cls-1" d="M240.39,363.31a9.94,9.94,0,0,1-5.28-1.51,11.21,11.21,0,0,1-3.94-4.29,13.11,13.11,0,0,1-1.49-6.43,13.4,13.4,0,0,1,1.49-6.57,10.48,10.48,0,0,1,3.94-4.12,10.1,10.1,0,0,1,5.28-1.43,9.68,9.68,0,0,1,3.72.66,9.09,9.09,0,0,1,2.81,1.77,9.81,9.81,0,0,1,1.91,2.51,10.7,10.7,0,0,1,1,2.88l-4.63.24a5.79,5.79,0,0,0-1.76-2.89,4.56,4.56,0,0,0-3.11-1.09,5.36,5.36,0,0,0-2.94.87,6.17,6.17,0,0,0-2.23,2.67,10.31,10.31,0,0,0-.85,4.52,10.47,10.47,0,0,0,.79,4.35,6.42,6.42,0,0,0,2.16,2.76,5.19,5.19,0,0,0,3.07,1A5.1,5.1,0,0,0,244,358a4.43,4.43,0,0,0,1.21-3.28h4.63a8.68,8.68,0,0,1-1.12,4.37,8.19,8.19,0,0,1-3.26,3.08A10.7,10.7,0,0,1,240.39,363.31Z"/><path class="cls-1" d="M259.67,334.68a3,3,0,0,1-2.15-.75,2.74,2.74,0,0,1-.78-2.06,2.54,2.54,0,0,1,.78-2,3.48,3.48,0,0,1,4.28,0,2.65,2.65,0,0,1,.78,2,2.82,2.82,0,0,1-.78,2.06A3.08,3.08,0,0,1,259.67,334.68Zm-2.28,28V339.51H262v23.16Z"/><path class="cls-1" d="M278.67,363.31a10.27,10.27,0,0,1-4.82-1,7,7,0,0,1-2.87-2.67,6.88,6.88,0,0,1-1-3.53,5.79,5.79,0,0,1,1.17-3.76,6.72,6.72,0,0,1,3.22-2.19,14.22,14.22,0,0,1,4.76-.72,18.2,18.2,0,0,1,3.6.33,28.19,28.19,0,0,1,3.45.89v2.76a18.6,18.6,0,0,0-3.08-.8,16.83,16.83,0,0,0-3.16-.3,7,7,0,0,0-3.64.86,3.1,3.1,0,0,0-1.47,2.93,3.46,3.46,0,0,0,1.15,2.6,5.2,5.2,0,0,0,3.65,1.1,6.29,6.29,0,0,0,3.22-.83,6.51,6.51,0,0,0,2.16-2.08,4.82,4.82,0,0,0,.76-2.49h1.11a10.24,10.24,0,0,1-1,4.42,8.18,8.18,0,0,1-2.82,3.27A8,8,0,0,1,278.67,363.31Zm7.73-.62-.58-5.3v-9.63a6,6,0,0,0-1.17-4.11,4.83,4.83,0,0,0-3.72-1.29,7,7,0,0,0-2.56.42,3.75,3.75,0,0,0-1.75,1.26,3.38,3.38,0,0,0-.64,2.11h-5a6.41,6.41,0,0,1,1.25-4.12,7,7,0,0,1,3.5-2.32A16.56,16.56,0,0,1,281,339a12.32,12.32,0,0,1,4.94.92,7.09,7.09,0,0,1,3.33,2.89,9.78,9.78,0,0,1,1.19,5.09v14.81Z"/><path class="cls-1" d="M299.07,362.69V339.51h4.6v23.16Zm3.31-10.32a25.16,25.16,0,0,1,.92-7.38,9.23,9.23,0,0,1,2.6-4.38,5.76,5.76,0,0,1,3.92-1.44,6.69,6.69,0,0,1,1.26.1,8.06,8.06,0,0,1,1.16.26l-.16,4.54a11.81,11.81,0,0,0-1.41-.3,7.18,7.18,0,0,0-1.38-.14,4.76,4.76,0,0,0-3.21,1.05,5.9,5.9,0,0,0-1.85,3,15.77,15.77,0,0,0-.6,4.69Z"/><path class="cls-1" d="M335.5,363.31a10.31,10.31,0,0,1-4.83-1,6.87,6.87,0,0,1-3.81-6.2,5.84,5.84,0,0,1,1.16-3.76,6.8,6.8,0,0,1,3.23-2.19,14.16,14.16,0,0,1,4.75-.72,18.2,18.2,0,0,1,3.6.33,27.88,27.88,0,0,1,3.46.89v2.76a18.46,18.46,0,0,0-3.09-.8,16.72,16.72,0,0,0-3.15-.3,7,7,0,0,0-3.65.86,3.11,3.11,0,0,0-1.46,2.93,3.37,3.37,0,0,0,1.15,2.6,5.16,5.16,0,0,0,3.65,1.1,6.25,6.25,0,0,0,5.37-2.91,4.83,4.83,0,0,0,.77-2.49h1.1a10.24,10.24,0,0,1-1,4.42,8.12,8.12,0,0,1-2.82,3.27A8,8,0,0,1,335.5,363.31Zm7.73-.62-.58-5.3v-9.63a5.93,5.93,0,0,0-1.18-4.11,4.75,4.75,0,0,0-3.72-1.29,6.9,6.9,0,0,0-2.55.42,3.75,3.75,0,0,0-1.75,1.26,3.32,3.32,0,0,0-.64,2.11h-5a6.41,6.41,0,0,1,1.25-4.12,7,7,0,0,1,3.49-2.32,16.56,16.56,0,0,1,5.24-.73,12.37,12.37,0,0,1,4.95.92,7.07,7.07,0,0,1,3.32,2.89,9.78,9.78,0,0,1,1.19,5.09v14.81Z"/><path class="cls-1" d="M364.27,363.31A9.94,9.94,0,0,1,359,361.8a11.07,11.07,0,0,1-3.93-4.25,13.11,13.11,0,0,1-1.49-6.43,13.45,13.45,0,0,1,1.49-6.59,10.38,10.38,0,0,1,3.93-4.12,10.19,10.19,0,0,1,5.28-1.43,9.68,9.68,0,0,1,3.72.66,8.62,8.62,0,0,1,2.81,1.77,9.59,9.59,0,0,1,1.91,2.51,10.36,10.36,0,0,1,1,2.88l-4.63.24a6,6,0,0,0-1.76-2.89,4.56,4.56,0,0,0-3.11-1.09,5.36,5.36,0,0,0-2.94.87A6.19,6.19,0,0,0,359,346.6a10.61,10.61,0,0,0-.85,4.52,10.83,10.83,0,0,0,.79,4.35,6.5,6.5,0,0,0,2.16,2.76,5.36,5.36,0,0,0,3.08,1,5.1,5.1,0,0,0,3.66-1.19,4.47,4.47,0,0,0,1.21-3.28h4.63a8.58,8.58,0,0,1-1.13,4.37,8.1,8.1,0,0,1-3.25,3.08A10.8,10.8,0,0,1,364.27,363.31Z"/><path class="cls-1" d="M377.81,342.7v-3.1h14.86v3.1Zm10.51,20.61a8.32,8.32,0,0,1-3.55-.74,5.86,5.86,0,0,1-2.51-2.24,7.14,7.14,0,0,1-.92-3.78V333.31h4.54V356.4q0,3.27,3,3.27a8.09,8.09,0,0,0,1.83-.21,20.87,20.87,0,0,0,2-.61l.65,3.24a24.88,24.88,0,0,1-2.51.88,9.88,9.88,0,0,1-2.53.34Z"/><path class="cls-1" d="M402,334.68a3,3,0,0,1-2.15-.75,2.74,2.74,0,0,1-.78-2.06,2.54,2.54,0,0,1,.78-2,3.49,3.49,0,0,1,4.27,0,2.61,2.61,0,0,1,.78,2,2.78,2.78,0,0,1-.78,2.06A3,3,0,0,1,402,334.68Zm-2.28,28V339.51h4.56v23.16Z"/><path class="cls-1" d="M410.33,339.6h5.23l6.51,19.18h-.48l6.5-19.18h5.23l-9,23.09h-5.07Z"/><path class="cls-1" d="M441.36,334.68a3,3,0,0,1-2.15-.75,2.74,2.74,0,0,1-.78-2.06,2.54,2.54,0,0,1,.78-2,3.5,3.5,0,0,1,4.28,0,2.61,2.61,0,0,1,.78,2,2.78,2.78,0,0,1-.78,2.06A3,3,0,0,1,441.36,334.68Zm-2.28,28V339.51h4.59v23.16Z"/><path class="cls-1" d="M462,363.31a9.52,9.52,0,0,1-5.21-1.52,10.67,10.67,0,0,1-3.78-4.27,15.56,15.56,0,0,1,0-12.88,10.44,10.44,0,0,1,3.66-4.19,9.09,9.09,0,0,1,5.07-1.47,8,8,0,0,1,4.44,1.23,8.13,8.13,0,0,1,2.94,3.59,14.4,14.4,0,0,1,1,5.74h-1.58a7.12,7.12,0,0,0-.84-3.54,5.72,5.72,0,0,0-2.19-2.2,5.86,5.86,0,0,0-2.88-.74,5.62,5.62,0,0,0-3.25,1,6.5,6.5,0,0,0-2.3,2.76,9.59,9.59,0,0,0-.86,4.26,10,10,0,0,0,.86,4.33,6.58,6.58,0,0,0,2.3,2.82,5.64,5.64,0,0,0,6,.21,6.33,6.33,0,0,0,2.23-2.25,6.63,6.63,0,0,0,.88-3.48h1.58a13.94,13.94,0,0,1-1.08,5.8,8.31,8.31,0,0,1-2.94,3.59A7.39,7.39,0,0,1,462,363.31Zm7.34-.62-.79-5.54V329.88h4.58v32.81Z"/><path class="cls-1" d="M489.26,363.31a10.27,10.27,0,0,1-4.82-1,7,7,0,0,1-2.87-2.67,6.88,6.88,0,0,1-.95-3.53,5.79,5.79,0,0,1,1.17-3.76,6.8,6.8,0,0,1,3.23-2.19,14.16,14.16,0,0,1,4.75-.72,18.2,18.2,0,0,1,3.6.33,28.19,28.19,0,0,1,3.45.89v2.76a18.6,18.6,0,0,0-3.08-.8,16.83,16.83,0,0,0-3.16-.3,7,7,0,0,0-3.64.86,3.1,3.1,0,0,0-1.47,2.93,3.46,3.46,0,0,0,1.15,2.6,5.2,5.2,0,0,0,3.65,1.1,6.24,6.24,0,0,0,5.38-2.91,4.83,4.83,0,0,0,.77-2.49h1.1a10.24,10.24,0,0,1-1,4.42,8.18,8.18,0,0,1-2.82,3.27A8,8,0,0,1,489.26,363.31Zm7.73-.62-.57-5.3v-9.63a6,6,0,0,0-1.18-4.11,4.75,4.75,0,0,0-3.72-1.29,7,7,0,0,0-2.56.42,3.75,3.75,0,0,0-1.75,1.26,3.37,3.37,0,0,0-.63,2.11h-5a6.4,6.4,0,0,1,1.24-4.12,7,7,0,0,1,3.5-2.32,16.56,16.56,0,0,1,5.24-.73,12.32,12.32,0,0,1,4.94.92,7,7,0,0,1,3.33,2.89,9.78,9.78,0,0,1,1.19,5.09v14.81Z"/><path class="cls-1" d="M518,363.31a9.52,9.52,0,0,1-5.21-1.52,10.67,10.67,0,0,1-3.78-4.27,15.56,15.56,0,0,1,0-12.88,10.44,10.44,0,0,1,3.66-4.19,9.09,9.09,0,0,1,5.07-1.47,8,8,0,0,1,4.44,1.23,8.13,8.13,0,0,1,2.94,3.59,14.4,14.4,0,0,1,1,5.74h-1.57a7.12,7.12,0,0,0-.84-3.54,5.72,5.72,0,0,0-2.19-2.2,5.86,5.86,0,0,0-2.88-.74,5.62,5.62,0,0,0-3.25,1,6.5,6.5,0,0,0-2.3,2.76,9.59,9.59,0,0,0-.86,4.26,10,10,0,0,0,.86,4.33,6.58,6.58,0,0,0,2.3,2.82,5.63,5.63,0,0,0,6,.21,6.33,6.33,0,0,0,2.23-2.25,6.63,6.63,0,0,0,.88-3.48h1.58a13.9,13.9,0,0,1-1.09,5.83,8.31,8.31,0,0,1-2.94,3.59A7.39,7.39,0,0,1,518,363.31Zm7.34-.62-.79-5.54V329.88h4.58v32.81Z"/><path class="cls-1" d="M546.79,363.31a9.81,9.81,0,0,1-5.38-1.53,10.86,10.86,0,0,1-3.8-4.27,13.66,13.66,0,0,1-1.4-6.34,14.06,14.06,0,0,1,1.39-6.54,10,10,0,0,1,9.19-5.65,9.17,9.17,0,0,1,4.61,1.09,8.76,8.76,0,0,1,3.09,2.93,11.69,11.69,0,0,1,1.62,4.16,15.77,15.77,0,0,1,.16,4.8H539.85v-2.64h13.3l-1.1.72a13.16,13.16,0,0,0-.14-2.59,7.63,7.63,0,0,0-.78-2.39,4.55,4.55,0,0,0-1.62-1.75,4.87,4.87,0,0,0-2.65-.66,5.4,5.4,0,0,0-3.37,1,6.09,6.09,0,0,0-2,2.7,9.41,9.41,0,0,0-.7,3.71v1.84a10.92,10.92,0,0,0,.67,4,6,6,0,0,0,2,2.73,6.27,6.27,0,0,0,6.67.06,4.18,4.18,0,0,0,1.62-2.81h4.66a8.47,8.47,0,0,1-5,6.54A11.09,11.09,0,0,1,546.79,363.31Z"/><path class="cls-1" d="M571.94,363.31a15.14,15.14,0,0,1-5.66-.94,8,8,0,0,1-3.52-2.64,6.83,6.83,0,0,1-1.26-4h4.3a3.48,3.48,0,0,0,1.59,3,7.51,7.51,0,0,0,4.07,1,6.85,6.85,0,0,0,2.49-.44,4.69,4.69,0,0,0,1.77-1.17,2.55,2.55,0,0,0,.66-1.68,2.23,2.23,0,0,0-.86-1.86,8.06,8.06,0,0,0-2.79-1.21L568,351.76a10.56,10.56,0,0,1-4.35-2.56,5.5,5.5,0,0,1,.18-7.78,4.63,4.63,0,0,1,.82-.64,11.7,11.7,0,0,1,6.75-1.74,10.76,10.76,0,0,1,6.71,1.83,6,6,0,0,1,2.46,4.6h-4.4a2.74,2.74,0,0,0-1.35-2.1,6.48,6.48,0,0,0-3.42-.73,5.23,5.23,0,0,0-3.28.91,2.57,2.57,0,0,0-1.16,2c0,1.38,1.19,2.4,3.56,3.08l5,1.75a11.33,11.33,0,0,1,4.37,2.35,4.78,4.78,0,0,1,1.54,3.65,5.6,5.6,0,0,1-1.18,3.36,8.58,8.58,0,0,1-3.3,2.58A11.77,11.77,0,0,1,571.94,363.31Z"/><path class="cls-1" d="M607.22,363.31a10.27,10.27,0,0,1-4.82-1,7,7,0,0,1-2.87-2.67,6.9,6.9,0,0,1-1-3.53,5.79,5.79,0,0,1,1.17-3.76,6.72,6.72,0,0,1,3.22-2.19,14.16,14.16,0,0,1,4.75-.72,18.2,18.2,0,0,1,3.6.33,27.88,27.88,0,0,1,3.46.89v2.76a19.65,19.65,0,0,0-3.08-.8,16.83,16.83,0,0,0-3.16-.3,7,7,0,0,0-3.65.86,3.11,3.11,0,0,0-1.46,2.93,3.37,3.37,0,0,0,1.15,2.6,5.16,5.16,0,0,0,3.65,1.1,6.25,6.25,0,0,0,5.37-2.91,4.8,4.8,0,0,0,.77-2.49h1.11a10.24,10.24,0,0,1-1,4.42,7.72,7.72,0,0,1-7.28,4.5Zm7.73-.62-.58-5.3v-9.63a6,6,0,0,0-1.17-4.11,4.83,4.83,0,0,0-3.72-1.29,7,7,0,0,0-2.56.42,3.75,3.75,0,0,0-1.75,1.26,3.32,3.32,0,0,0-.64,2.11h-5a6.41,6.41,0,0,1,1.25-4.12,7,7,0,0,1,3.49-2.32,16.66,16.66,0,0,1,5.25-.73,12.32,12.32,0,0,1,4.94.92,7.2,7.2,0,0,1,3.33,2.89,9.87,9.87,0,0,1,1.18,5.09v14.81Z"/><path class="cls-1" d="M215.84,420.91a10.31,10.31,0,0,1-4.83-1,6.84,6.84,0,0,1-3.81-6.2,5.84,5.84,0,0,1,1.16-3.76,6.8,6.8,0,0,1,3.23-2.19,14.16,14.16,0,0,1,4.75-.72,18.2,18.2,0,0,1,3.6.33,27.88,27.88,0,0,1,3.46.89V411a18.46,18.46,0,0,0-3.09-.8,16.72,16.72,0,0,0-3.15-.3,7,7,0,0,0-3.65.86,3.1,3.1,0,0,0-1.47,2.93,3.42,3.42,0,0,0,1.16,2.6,5.13,5.13,0,0,0,3.64,1.1,6.24,6.24,0,0,0,5.38-2.91A4.83,4.83,0,0,0,223,412h1.1a10.24,10.24,0,0,1-1,4.42,8.18,8.18,0,0,1-2.82,3.27A8,8,0,0,1,215.84,420.91Zm7.72-.62L223,415v-9.63a5.93,5.93,0,0,0-1.18-4.11,4.75,4.75,0,0,0-3.72-1.29,6.9,6.9,0,0,0-2.55.42,3.78,3.78,0,0,0-1.76,1.26,3.37,3.37,0,0,0-.63,2.11h-5a6.33,6.33,0,0,1,1.25-4.12,7,7,0,0,1,3.49-2.32,16.56,16.56,0,0,1,5.24-.73,12.43,12.43,0,0,1,5,.92,7.07,7.07,0,0,1,3.32,2.89,9.78,9.78,0,0,1,1.19,5.09v14.81Z"/><path class="cls-1" d="M236.21,420.29V387.51h4.56v32.81Z"/><path class="cls-1" d="M258.67,432.19a18.05,18.05,0,0,1-6.44-1,10.14,10.14,0,0,1-4.17-2.76,5.72,5.72,0,0,1-1.46-3.77,4.6,4.6,0,0,1,1.9-4,7.92,7.92,0,0,1,4.82-1.38l2.95,1.39a6.3,6.3,0,0,0-3.85,1,3.2,3.2,0,0,0-1.36,2.74,3.38,3.38,0,0,0,2,3,11.29,11.29,0,0,0,5.61,1.1,13.11,13.11,0,0,0,4.68-.78,8,8,0,0,0,3.12-2,4.07,4.07,0,0,0,1.11-2.7,2.23,2.23,0,0,0-.71-1.67,3,3,0,0,0-2.15-.69h-8.45a10.8,10.8,0,0,1-4.14-.73,7,7,0,0,1-2.79-1.93,4,4,0,0,1-1-2.66,3.92,3.92,0,0,1,.81-2.49,5.15,5.15,0,0,1,2.16-1.58,7.67,7.67,0,0,1,3-.54l1,1.58a3.31,3.31,0,0,0-1.39.3,2.77,2.77,0,0,0-1.16.9,2.39,2.39,0,0,0-.45,1.49,2.1,2.1,0,0,0,.87,1.72,5.34,5.34,0,0,0,3.11.68h8.38a9.33,9.33,0,0,1,5.42,1.37,4.53,4.53,0,0,1,2,4,7.5,7.5,0,0,1-1.63,4.54,12,12,0,0,1-4.64,3.53A17.55,17.55,0,0,1,258.67,432.19Zm.51-18.84a11.25,11.25,0,0,1-4.89-1,8.64,8.64,0,0,1-3.49-2.93,8.12,8.12,0,0,1,0-8.83,8.49,8.49,0,0,1,3.49-2.93,11.11,11.11,0,0,1,4.89-1,10.84,10.84,0,0,1,4.78,1,8.81,8.81,0,0,1,3.48,2.93,8.12,8.12,0,0,1,0,8.83,9,9,0,0,1-3.48,2.93,10.92,10.92,0,0,1-4.8,1Zm0-3.21a4.8,4.8,0,0,0,3.78-1.48,5.4,5.4,0,0,0,1.3-3.68,5.3,5.3,0,0,0-1.3-3.72,4.86,4.86,0,0,0-3.78-1.42,5,5,0,0,0-3.78,1.42A5,5,0,0,0,254,405a5.18,5.18,0,0,0,1.36,3.68,4.89,4.89,0,0,0,3.76,1.48Zm7.84-9.87-2.13-1a7.25,7.25,0,0,1,.86-3.6,6.15,6.15,0,0,1,2.4-2.4,7,7,0,0,1,3.53-.86l-.29,4.44a5.25,5.25,0,0,0-3.25.84,3,3,0,0,0-1.14,2.58Z"/><path class="cls-1" d="M277,397.13h4.55v14.3a5.45,5.45,0,0,0,1.29,4,4.74,4.74,0,0,0,3.61,1.35,6,6,0,0,0,3.47-1,7.08,7.08,0,0,0,2.35-2.93,11.14,11.14,0,0,0,.85-4.49h1.51a18.67,18.67,0,0,1-1.11,6.82,9.25,9.25,0,0,1-3.09,4.18,7.85,7.85,0,0,1-4.66,1.43,10.62,10.62,0,0,1-4.52-.93,6.91,6.91,0,0,1-3.1-2.9,10,10,0,0,1-1.11-5Zm9.63-3.62-2.23-1.83,8.45-8.64,3.1,2.52Zm6.53,3.62h4.59v23.16H293.2Z"/><path class="cls-1" d="M307.11,420.29V397.2h4l.6,5v18.1Zm16.17,0V406.75a6.48,6.48,0,0,0-1.43-4.54,5,5,0,0,0-3.85-1.55,5.49,5.49,0,0,0-3.35,1,6.52,6.52,0,0,0-2.2,3,13.29,13.29,0,0,0-.78,4.88H310a20.18,20.18,0,0,1,1.1-7.15,9.18,9.18,0,0,1,3.13-4.4,7.93,7.93,0,0,1,4.89-1.5,8.37,8.37,0,0,1,4.72,1.25,7.83,7.83,0,0,1,2.94,3.54,13.36,13.36,0,0,1,1,5.38v13.54Z"/><path class="cls-1" d="M356.67,432.19a18.05,18.05,0,0,1-6.44-1,10.14,10.14,0,0,1-4.17-2.76,5.72,5.72,0,0,1-1.46-3.77,4.59,4.59,0,0,1,1.89-4,8,8,0,0,1,4.83-1.38l2.95,1.39a6.3,6.3,0,0,0-3.85,1,3.19,3.19,0,0,0-1.36,2.74,3.38,3.38,0,0,0,2,3,11.29,11.29,0,0,0,5.61,1.1,13.11,13.11,0,0,0,4.68-.78,8,8,0,0,0,3.12-2,4.06,4.06,0,0,0,1.1-2.7,2.24,2.24,0,0,0-.7-1.67,3,3,0,0,0-2.15-.69h-8.45a10.8,10.8,0,0,1-4.14-.73,7.19,7.19,0,0,1-2.8-1.93,4,4,0,0,1-1-2.66,3.92,3.92,0,0,1,.81-2.49,5,5,0,0,1,2.16-1.58,7.67,7.67,0,0,1,3-.54l1,1.58a3.36,3.36,0,0,0-1.4.3,2.74,2.74,0,0,0-1.15.9,2.39,2.39,0,0,0-.45,1.49,2.1,2.1,0,0,0,.87,1.72,5.34,5.34,0,0,0,3.11.68h8.45a9.33,9.33,0,0,1,5.42,1.37,4.54,4.54,0,0,1,2,4,7.5,7.5,0,0,1-1.63,4.54,12,12,0,0,1-4.65,3.53A17.46,17.46,0,0,1,356.67,432.19Zm.5-18.84a11.35,11.35,0,0,1-4.88-1,8.64,8.64,0,0,1-3.49-2.93,8.12,8.12,0,0,1,0-8.83,8.56,8.56,0,0,1,3.49-2.93,12.19,12.19,0,0,1,9.67,0,8.81,8.81,0,0,1,3.48,2.93,8.12,8.12,0,0,1,0,8.83,9,9,0,0,1-3.48,2.93,10.93,10.93,0,0,1-4.77,1Zm0-3.21a4.8,4.8,0,0,0,3.78-1.48,5.4,5.4,0,0,0,1.31-3.68,5.27,5.27,0,0,0-1.31-3.72,4.86,4.86,0,0,0-3.78-1.42,5,5,0,0,0-3.78,1.42A5.11,5.11,0,0,0,352,405a5.22,5.22,0,0,0,1.35,3.68,4.9,4.9,0,0,0,3.8,1.48Zm7.85-9.87-2.13-1a7,7,0,0,1,.86-3.6,6.15,6.15,0,0,1,2.4-2.4,7,7,0,0,1,3.53-.86l-.29,4.44a5.25,5.25,0,0,0-3.25.84,3,3,0,0,0-1.1,2.58Z"/><path class="cls-1" d="M383.93,420.91a9.81,9.81,0,0,1-5.38-1.53,10.86,10.86,0,0,1-3.8-4.27,13.55,13.55,0,0,1-1.41-6.34,14.2,14.2,0,0,1,1.4-6.54,10,10,0,0,1,9.19-5.65,9.17,9.17,0,0,1,4.61,1.09,8.76,8.76,0,0,1,3.09,2.93,11.69,11.69,0,0,1,1.62,4.16,15.77,15.77,0,0,1,.16,4.8H377v-2.64h13.3l-1.11.72a12.43,12.43,0,0,0-.13-2.59,7.63,7.63,0,0,0-.78-2.39,4.43,4.43,0,0,0-1.6-1.75,4.87,4.87,0,0,0-2.65-.66,5.4,5.4,0,0,0-3.37,1,6,6,0,0,0-2,2.7,9.41,9.41,0,0,0-.7,3.71v1.85a10.52,10.52,0,0,0,.67,4,6,6,0,0,0,2,2.73,6.27,6.27,0,0,0,6.67.06,4.18,4.18,0,0,0,1.62-2.81h4.65a8.45,8.45,0,0,1-5,6.54A11.19,11.19,0,0,1,383.93,420.91ZM382,393.51l-2.23-1.83,8.44-8.64,3.1,2.52Z"/><path class="cls-1" d="M400.67,420.29V397.2h4l.6,5v18.1Zm16.18,0V406.75a6.53,6.53,0,0,0-1.43-4.54,5,5,0,0,0-3.85-1.55,5.49,5.49,0,0,0-3.35,1,6.54,6.54,0,0,0-2.21,3,13.29,13.29,0,0,0-.78,4.88H403.6a20,20,0,0,1,1.07-7.08,9.35,9.35,0,0,1,3.13-4.4,8,8,0,0,1,4.9-1.5,8.37,8.37,0,0,1,4.72,1.25,8,8,0,0,1,2.94,3.54,13.36,13.36,0,0,1,1,5.38v13.54Z"/><path class="cls-1" d="M438.29,420.91a9.81,9.81,0,0,1-5.38-1.53,10.86,10.86,0,0,1-3.8-4.27,13.55,13.55,0,0,1-1.41-6.34,14.2,14.2,0,0,1,1.4-6.54,10,10,0,0,1,9.19-5.65,9.17,9.17,0,0,1,4.61,1.09A8.76,8.76,0,0,1,446,400.6a11.69,11.69,0,0,1,1.62,4.16,15.77,15.77,0,0,1,.16,4.8H431.35v-2.64h13.32l-1.11.72a12.43,12.43,0,0,0-.13-2.59,7.63,7.63,0,0,0-.78-2.39,4.55,4.55,0,0,0-1.62-1.75,4.87,4.87,0,0,0-2.65-.66,5.4,5.4,0,0,0-3.37,1A6,6,0,0,0,433,404a9.41,9.41,0,0,0-.7,3.71v1.85a10.52,10.52,0,0,0,.67,4,6,6,0,0,0,2,2.73,5.53,5.53,0,0,0,3.37,1,5.61,5.61,0,0,0,3.3-.93,4.18,4.18,0,0,0,1.62-2.81h4.65a8.43,8.43,0,0,1-5,6.54A11.08,11.08,0,0,1,438.29,420.91Z"/><path class="cls-1" d="M455,420.29V397.13h4.56v23.16ZM458.3,410a24.52,24.52,0,0,1,.93-7.38,9.14,9.14,0,0,1,2.59-4.38,5.76,5.76,0,0,1,3.92-1.44,6.69,6.69,0,0,1,1.26.1,8.19,8.19,0,0,1,1.17.26l-.17,4.54a11.66,11.66,0,0,0-1.4-.3,7.18,7.18,0,0,0-1.38-.14,4.78,4.78,0,0,0-3.22,1,6,6,0,0,0-1.85,3,15.77,15.77,0,0,0-.6,4.69Z"/><path class="cls-1" d="M481.67,420.91a11.57,11.57,0,0,1-5.63-1.36,9.84,9.84,0,0,1-3.93-4.08,16.45,16.45,0,0,1,0-13.46A9.56,9.56,0,0,1,476,398a11.26,11.26,0,0,1,5.63-1.37,11,11,0,0,1,5.56,1.37,9.61,9.61,0,0,1,3.9,4.06,16.6,16.6,0,0,1,0,13.46,9.83,9.83,0,0,1-3.9,4.08A11.38,11.38,0,0,1,481.67,420.91Zm-.15-4a5.84,5.84,0,0,0,5.68-3.76,11.42,11.42,0,0,0,.78-4.4,10.1,10.1,0,0,0-1.6-6.1,5.34,5.34,0,0,0-4.59-2.16,5.84,5.84,0,0,0-5.7,3.78,11.39,11.39,0,0,0-.79,4.48,9.83,9.83,0,0,0,1.61,6,5.4,5.4,0,0,0,4.6,2.18Z"/><path class="cls-4" d="M410.82,103.66c-4.06-3.06-9.43-7.16-13.54-10.15-2-1.48-4.81-4.43-7.09-4.78a4.19,4.19,0,0,0-4.93,5.08c.52,2.54,2.78,2.87,4.78,4.77a106.62,106.62,0,0,1-8.93,10.93c-3.13,3.21-6.73,7.27-11.09,8.63-1.62.51-3.21.42-4.62,1.09-4.5,2.14-7.85,11.54-7.85,11.54l9.7,7.7s-15.53,25-23.4,37.37c-1.9,3-.65,3.94,1.79,1.25,9.91-10.94,19.7-22,29.92-32.62,3.1,2.55,6.38,4.92,9.7,7.24,3.26-1.83,6-3.88,7.7-6.92,1.48-2.7,1-5.3,1.23-9.09.35-5,3-9.59,5.24-13.39,2.48-4.14,5.12-7.62,7.55-11.1,2.06,1.05,3.13,3.37,5.85,3.39a4.27,4.27,0,0,0,4.16-5.23c-.39-2.2-4-4.09-6.17-5.71Z"/></g></svg>