<svg id="Capa_1" data-name="Capa 1" xmlns="http://www.w3.org/2000/svg" viewBox="0 0 128 160"><defs><style>.cls-1{fill:#fff;}</style></defs><path class="cls-1" d="M88,116H83V62.77a9.07,9.07,0,0,0,5.86-4.39A32.24,32.24,0,0,1,104.6,69.21a8.19,8.19,0,0,0,4.7,2.9,7,7,0,0,0,1.29.11,7.24,7.24,0,0,0,6.18-3.43,2,2,0,0,0-3.33-2.22l-.06.1a3.3,3.3,0,0,1-3.38,1.5,4.28,4.28,0,0,1-2.28-1.46A36.21,36.21,0,0,0,90,54.54V54a9,9,0,0,0-7-8.77V42a2,2,0,0,0-4,0v3.23A9,9,0,0,0,72.23,52,33,33,0,0,0,54.5,57.26a4.22,4.22,0,0,1-2.64.59,3.27,3.27,0,0,1-2.66-2.57,2,2,0,1,0-4,.63,1.29,1.29,0,0,0,0,.19,7.26,7.26,0,0,0,5.87,5.69,6.3,6.3,0,0,0,1.15.1,8.54,8.54,0,0,0,4.26-1.21A29,29,0,0,1,72.23,56,9,9,0,0,0,79,62.77V116H74a10,10,0,0,0-10,10,2,2,0,0,0,2,2H96a2,2,0,0,0,2-2A10,10,0,0,0,88,116ZM76,54a5,5,0,1,1,5,5A5,5,0,0,1,76,54Zm-7.66,70A6,6,0,0,1,74,120H88a6,6,0,0,1,5.66,4Z"/><path class="cls-1" d="M35.23,96.93c2.9,5.51,9.29,9.07,16.27,9.07s13.37-3.56,16.27-9.07a2,2,0,0,0,.08-1.65l-.06-.17-14-28a2,2,0,0,0-3.58,0l-15,28v.1A2,2,0,0,0,35.23,96.93ZM51.5,102A15.21,15.21,0,0,1,41,98H62A15.21,15.21,0,0,1,51.5,102Zm.44-29.65L62.76,94H40.34Z"/><path class="cls-1" d="M127.8,105.16v-.1l-15-28A2,2,0,0,0,111,76h0a2,2,0,0,0-1.76,1.11l-14,28v.11a2,2,0,0,0,0,1.71c2.9,5.51,9.29,9.07,16.27,9.07s13.37-3.56,16.27-9.07A2,2,0,0,0,127.8,105.16ZM111.06,82.35,122.66,104H100.24ZM111.5,112a15.21,15.21,0,0,1-10.5-4h21A15.21,15.21,0,0,1,111.5,112Z"/><path class="cls-1" d="M74.32,106.22A2,2,0,1,0,72,103c-3.37,2.47-6.79,4.69-10.11,6.83-6.11,4-11.34,7.35-14.07,10.93-2.72-3.58-8-7-14.06-10.93-8.27-5.35-17.63-11.41-23.38-19.52C2.07,78.65,4.07,30.06,4.58,20c5.27-.14,20.18-.83,29.26-4.34,6.58-2.55,11.53-7.55,13.94-10.39,2.42,2.84,7.37,7.84,13.95,10.39,9.08,3.51,24,4.2,29.25,4.34.21,4.08.67,14.43.58,26a2,2,0,0,0,2,2h0a2,2,0,0,0,2-2c.11-15.06-.68-28-.69-28.16a2,2,0,0,0-2-1.88c-.2,0-19.48-.14-29.72-4.1C55,8.73,49.48.93,49.42.85A2,2,0,0,0,47.79,0h0a2,2,0,0,0-1.63.85c-.06.08-5.61,7.88-13.75,11C22.15,15.84,2.87,16,2.68,16a2,2,0,0,0-2,1.88C.54,20.33-2.93,78.52,7.07,92.62c6.2,8.73,15.91,15,24.47,20.56,7.33,4.74,14.24,9.22,14.24,12.82a2,2,0,0,0,4,0c0-3.6,6.92-8.08,14.25-12.82C67.39,111,70.86,108.75,74.32,106.22Z"/></svg>