<svg id="Capa_1" data-name="Capa 1" xmlns="http://www.w3.org/2000/svg" viewBox="0 0 64 80"><defs><style>.cls-1{fill:#fff;}</style></defs><path class="cls-1" d="M61.36,57.44H59.94V38.11a.62.62,0,0,0-.63-.63H56.4V19.18h2a.64.64,0,0,0,.64-.63h0V14.86a.64.64,0,0,0-.64-.64H36.27a.64.64,0,0,0-.64.64h0v3.68a.64.64,0,0,0,.64.64h2V31.62L28.16,37.05V32a.64.64,0,0,0-.64-.64.61.61,0,0,0-.3.08l-1.33.71-.41-11.33a.43.43,0,0,1,0-.05s0-.05,0-.08l-.12-3.47a.65.65,0,0,0-.64-.62h-5.4a.65.65,0,0,0-.64.62l-.12,3.45a.36.36,0,0,0,0,.1s0,0,0,.06L18,36.38l-1.24.67V32a.64.64,0,0,0-.63-.64.68.68,0,0,0-.31.08l-1.43.77L14,20.83a.2.2,0,0,0,0-.15l-.13-3.46a.64.64,0,0,0-.63-.62H7.8a.64.64,0,0,0-.64.62L7,20.7s0,0,0,.07,0,0,0,0L6.46,36.45l-2.07,1.1a.65.65,0,0,0-.33.56V57.44H2.64a.64.64,0,0,0-.64.64H2v3.28a.64.64,0,0,0,.64.64H61.36a.64.64,0,0,0,.64-.64h0V58.08a.64.64,0,0,0-.64-.64ZM58.67,38.75V57.44H56.4V38.75ZM36.91,17.91V15.5H57.78v2.41Zm18.21,1.27V57.44H39.57V19.18Zm-35.19-1.3h4.16l.09,2.25H19.85ZM19.8,21.4h4.42l.41,11.42-5.34,2.87ZM8.41,17.88h4.17l.08,2.25H8.33ZM8.28,21.4h4.43l.41,11.48L7.76,35.75ZM5.33,38.5l10.14-5.43v5a.65.65,0,0,0,.94.57l9.14-4.9h0l1.31-.7v5a.64.64,0,0,0,.64.64.6.6,0,0,0,.3-.07l10.47-5.61V57.44h-33ZM60.72,60.72H3.28v-2H60.72ZM24.82,42.39h-6a.64.64,0,0,0-.63.64h0v3.7a.64.64,0,0,0,.63.64h6a.64.64,0,0,0,.64-.64h0V43a.65.65,0,0,0-.64-.64Zm-.64,3.7H19.44V43.67h4.74Zm10.71-3.7h-6a.64.64,0,0,0-.64.64h0v3.7a.64.64,0,0,0,.64.64h6a.64.64,0,0,0,.63-.64h0V43a.64.64,0,0,0-.63-.64Zm-.64,3.7H29.51V43.67h4.74ZM44.34,28.28h6a.63.63,0,0,0,.64-.63h0V24a.64.64,0,0,0-.64-.64h-6a.64.64,0,0,0-.64.64h0v3.7a.63.63,0,0,0,.64.63ZM45,24.59h4.75V27H45ZM14.76,42.39h-6A.64.64,0,0,0,8.1,43h0v3.7a.65.65,0,0,0,.64.64h6a.64.64,0,0,0,.64-.64h0V43a.65.65,0,0,0-.64-.64Zm-.64,3.7H9.38V43.67h4.74ZM10.5,13.8a2.58,2.58,0,1,0-2.57-2.57h0A2.57,2.57,0,0,0,10.5,13.8Zm0-3.87a1.3,1.3,0,1,1-1.3,1.3A1.3,1.3,0,0,1,10.5,9.93Zm4.61-1.3a3.32,3.32,0,1,0-3.32-3.31h0A3.32,3.32,0,0,0,15.11,8.63Zm0-5.35a2,2,0,1,1-2,2A2,2,0,0,1,15.11,3.28ZM22,13.8a2.58,2.58,0,1,0-2.57-2.57h0A2.57,2.57,0,0,0,22,13.8Zm0-3.87a1.3,1.3,0,1,1-1.29,1.3A1.3,1.3,0,0,1,22,9.93Zm4.61-1.3a3.32,3.32,0,1,0-3.31-3.31A3.32,3.32,0,0,0,26.62,8.63Zm0-5.35a2,2,0,1,1-2,2h0A2,2,0,0,1,26.62,3.28ZM43.7,30.72a.63.63,0,0,1,.63-.63h6a.62.62,0,0,1,.64.63.63.63,0,0,1-.64.64h-6a.63.63,0,0,1-.64-.64Z"/></svg>