<svg id="Capa_1" data-name="Capa 1" xmlns="http://www.w3.org/2000/svg" viewBox="0 0 64 80"><defs><style>.cls-1{fill:#fff;}</style></defs><path class="cls-1" d="M59,20H49a1,1,0,0,0-.85.48L40.44,33H35a1,1,0,0,0-.94.66L30.3,44H24a1,1,0,0,0-.94.66l-5,14a1,1,0,0,0,.6,1.28A1,1,0,0,0,19,60H59a1,1,0,0,0,1-1V21A1,1,0,0,0,59,20ZM43,58H20.42l4.29-12H42a1,1,0,0,0,.8-.4L45.5,42h6.78l5.33,16Zm15-5.16L54,40.68A1,1,0,0,0,53,40H45a1,1,0,0,0-.8.4L41.5,44H32.43l3.27-9H41a1,1,0,0,0,.85-.48L49.56,22H58ZM35.41,28.33a1,1,0,0,0,1.65-1,37.7,37.7,0,0,0-6.64-12.37l.74-.75a1,1,0,0,0,0-1.41L28.33,10a1,1,0,0,0-1.41,0l-.74.74A37.74,37.74,0,0,0,13.8,4.05a1,1,0,0,0-1,1.66L22,14.9,4.29,32.58a1,1,0,0,0,0,1.41h0l2.83,2.83a1,1,0,0,0,1.42,0L26.21,19.14Zm-2-4.83-5.76-5.77L29,16.36A33.51,33.51,0,0,1,33.39,23.5ZM17.62,7.72a33.33,33.33,0,0,1,7.13,4.4l-1.37,1.36Zm-9.79,27L6.41,33.28,22,17.73l1.41,1.41Zm17-17-1.42-1.42.71-.7,2.83-2.83.71-.71L29,13.48l-.7.71L25.51,17Z"/></svg>