<svg id="Capa_1" data-name="Capa 1" xmlns="http://www.w3.org/2000/svg" viewBox="0 0 1080 1080"><defs><style>.cls-1{fill:#ff5757;}</style></defs><path class="cls-1" d="M674.9,358C674.9,233.91,574,133,450,133S225,233.91,225,358c0,116.44,88.94,212.5,202.45,223.82v123.6h-80.6a22.5,22.5,0,1,0,0,45h80.6v77.48a22.5,22.5,0,0,0,45,0V750.36H556.8a22.5,22.5,0,0,0,0-45H472.44V581.77C586,570.45,674.9,474.39,674.9,358ZM450,537.91c-99.23,0-180-80.73-180-180s80.73-180,180-180,180,80.73,180,180S549.17,537.91,450,537.91Z"/></svg>