<svg xmlns="http://www.w3.org/2000/svg" viewBox="0 0 100 125"><defs><style>.cls-1{fill:#fff;}</style></defs><g id="Capa_1" data-name="Capa 1"><path class="cls-1" d="M67.1,31.6a7.8,7.8,0,1,0-7.8-7.8A7.68,7.68,0,0,0,67.1,31.6Zm0-12.2a4.33,4.33,0,0,1,4.3,4.3,4.3,4.3,0,0,1-8.6,0A4.33,4.33,0,0,1,67.1,19.4ZM90.5,51.3H81c-1.7-13.6-8.5-16.5-13.9-16.5S54.9,37.7,53.2,51.3H48.1C44.5,44.8,39.4,43,34.9,43s-9.6,1.7-13.2,8.3H9.5a1.7,1.7,0,1,0,0,3.4H20.1a47,47,0,0,0-2.7,13.4,1.27,1.27,0,0,0,.1.6,1.88,1.88,0,0,0,1,2.1,43.62,43.62,0,0,0,32.8,0,1.77,1.77,0,0,0,1-2.1,1.27,1.27,0,0,0,.1-.6,51.61,51.61,0,0,0-2.7-13.4H90.6A1.69,1.69,0,0,0,92.3,53,1.77,1.77,0,0,0,90.5,51.3ZM20.9,68.1c.6-6.3,1.8-11.3,3.8-14.9,2.4-4.5,5.8-6.6,10.2-6.6s7.8,2.2,10.2,6.6c2,3.6,3.2,8.6,3.8,14.9a39.38,39.38,0,0,1-14,2.5A39.38,39.38,0,0,1,20.9,68.1ZM67.1,38.3c5.7,0,9.2,4.4,10.4,13H56.7C57.8,42.7,61.3,38.3,67.1,38.3ZM52.3,78.5a1.77,1.77,0,0,1-1,2.3,43.62,43.62,0,0,1-32.8,0,1.77,1.77,0,1,1,1.3-3.3,39.5,39.5,0,0,0,30.2,0A2,2,0,0,1,52.3,78.5ZM34.9,39.4a9.5,9.5,0,1,0-9.5-9.5A9.5,9.5,0,0,0,34.9,39.4Zm0-15.6a6,6,0,1,1-6,6A6,6,0,0,1,34.9,23.8Z"/></g></svg>