<?xml version="1.0" encoding="utf-8"?>
<!-- Generator: Adobe Illustrator 24.0.2, SVG Export Plug-In . SVG Version: 6.00 Build 0)  -->
<svg version="1.1" id="Capa_1" xmlns="http://www.w3.org/2000/svg" xmlns:xlink="http://www.w3.org/1999/xlink" x="0px" y="0px"
	 viewBox="0 0 874 1043" style="enable-background:new 0 0 874 1043;" xml:space="preserve">
<style type="text/css">
	.st0{fill:#252525;}
	.st1{fill:#49ADA4;}
	.st2{fill:#B3E6E0;}
	.st3{fill:#FFFFFF;}
</style>
<rect x="21" y="960" class="st0" width="825" height="72"/>
<g>
	<circle class="st1" cx="61.18" cy="43.88" r="8.09"/>
	<path class="st1" d="M74.06,63.82v13.7c-0.01,3.79-2.13,7.26-5.51,9v15.22c0.14,4.07-3.05,7.49-7.12,7.63s-7.49-3.05-7.63-7.12
		c-0.01-0.17-0.01-0.34,0-0.5V86.53c-3.38-1.74-5.5-5.21-5.52-9.01v-13.7c0.02-5.58,4.55-10.09,10.12-10.11h5.52
		C69.52,53.73,74.04,58.24,74.06,63.82z"/>
	<circle class="st1" cx="142.4" cy="43.88" r="8.09"/>
	<path class="st1" d="M155.29,63.82v13.7c-0.01,3.79-2.13,7.26-5.51,9v15.22c0.14,4.07-3.05,7.49-7.12,7.63
		c-4.07,0.14-7.49-3.05-7.63-7.12c-0.01-0.17-0.01-0.34,0-0.5V86.53c-3.38-1.74-5.5-5.21-5.52-9.01v-13.7
		c0.02-5.58,4.55-10.09,10.12-10.11h5.52C150.74,53.73,155.27,58.24,155.29,63.82z"/>
	<circle class="st1" cx="223.63" cy="43.88" r="8.09"/>
	<path class="st1" d="M236.51,63.82v13.7c-0.01,3.79-2.13,7.26-5.51,9v15.22c0.14,4.07-3.05,7.49-7.12,7.63
		c-4.07,0.14-7.49-3.05-7.63-7.12c-0.01-0.17-0.01-0.34,0-0.5V86.53c-3.38-1.74-5.5-5.21-5.52-9.01v-13.7
		c0.02-5.58,4.55-10.09,10.12-10.11h5.52C231.97,53.73,236.49,58.24,236.51,63.82z"/>
	<circle class="st1" cx="304.85" cy="43.88" r="8.09"/>
	<path class="st1" d="M317.74,63.82v13.7c-0.01,3.79-2.13,7.26-5.51,9v15.22c0.14,4.07-3.05,7.49-7.12,7.63s-7.49-3.05-7.63-7.12
		c-0.01-0.17-0.01-0.34,0-0.5V86.53c-3.38-1.74-5.5-5.21-5.52-9.01v-13.7c0.02-5.58,4.55-10.09,10.12-10.11h5.52
		C313.2,53.73,317.72,58.24,317.74,63.82z"/>
	<circle class="st1" cx="386.08" cy="43.88" r="8.09"/>
	<path class="st1" d="M398.97,63.82v13.7c-0.01,3.79-2.13,7.26-5.51,9v15.22c0.14,4.07-3.05,7.49-7.12,7.63
		c-4.07,0.14-7.49-3.05-7.63-7.12c-0.01-0.17-0.01-0.34,0-0.5V86.53c-3.38-1.74-5.5-5.21-5.52-9.01v-13.7
		c0.02-5.58,4.55-10.09,10.12-10.11h5.52C394.42,53.73,398.94,58.24,398.97,63.82z"/>
	<circle class="st1" cx="467.31" cy="43.88" r="8.09"/>
	<path class="st1" d="M480.19,63.82v13.7c-0.01,3.79-2.13,7.26-5.51,9v15.22c0.14,4.07-3.05,7.49-7.12,7.63
		c-4.07,0.14-7.49-3.05-7.63-7.12c-0.01-0.17-0.01-0.34,0-0.5V86.53c-3.38-1.74-5.5-5.21-5.52-9.01v-13.7
		c0.02-5.58,4.55-10.09,10.12-10.11h5.52C475.65,53.73,480.17,58.24,480.19,63.82z"/>
	<circle class="st1" cx="548.53" cy="43.88" r="8.09"/>
	<path class="st1" d="M561.42,63.82v13.7c-0.01,3.79-2.13,7.26-5.51,9v15.22c0.14,4.07-3.05,7.49-7.12,7.63s-7.49-3.05-7.63-7.12
		c-0.01-0.17-0.01-0.34,0-0.5V86.53c-3.38-1.74-5.5-5.21-5.52-9.01v-13.7c0.02-5.58,4.55-10.09,10.12-10.11h5.52
		C556.87,53.73,561.39,58.24,561.42,63.82z"/>
	<circle class="st1" cx="629.76" cy="43.88" r="8.09"/>
	<path class="st1" d="M642.64,63.82v13.7c-0.01,3.79-2.13,7.26-5.51,9v15.22c0.14,4.07-3.05,7.49-7.12,7.63s-7.49-3.05-7.63-7.12
		c-0.01-0.17-0.01-0.34,0-0.5V86.53c-3.38-1.74-5.5-5.21-5.52-9.01v-13.7c0.02-5.58,4.55-10.09,10.12-10.11h5.52
		C638.1,53.73,642.62,58.24,642.64,63.82z"/>
	<circle class="st1" cx="710.98" cy="43.88" r="8.09"/>
	<path class="st1" d="M723.87,63.82v13.7c-0.01,3.79-2.13,7.26-5.51,9v15.22c0.14,4.07-3.05,7.49-7.12,7.63s-7.49-3.05-7.63-7.12
		c-0.01-0.17-0.01-0.34,0-0.5V86.53c-3.38-1.74-5.5-5.21-5.52-9.01v-13.7c0.02-5.58,4.55-10.09,10.12-10.11h5.52
		C719.32,53.73,723.85,58.24,723.87,63.82z"/>
	<circle class="st1" cx="792.21" cy="43.88" r="8.09"/>
	<path class="st1" d="M805.1,63.82v13.7c-0.01,3.79-2.13,7.26-5.51,9v15.22c0.14,4.07-3.05,7.49-7.12,7.63s-7.49-3.05-7.63-7.12
		c-0.01-0.17-0.01-0.34,0-0.5V86.53c-3.38-1.74-5.5-5.21-5.52-9.01v-13.7c0.02-5.58,4.55-10.09,10.12-10.11h5.52
		C800.55,53.73,805.07,58.24,805.1,63.82z"/>
	<circle class="st1" cx="61.18" cy="137.38" r="8.09"/>
	<path class="st1" d="M74.06,157.32v13.7c-0.01,3.79-2.13,7.26-5.51,9v15.22c0.14,4.07-3.05,7.49-7.12,7.63
		c-4.07,0.14-7.49-3.05-7.63-7.12c-0.01-0.17-0.01-0.34,0-0.5v-15.21c-3.38-1.74-5.5-5.21-5.52-9.01v-13.7
		c0.02-5.58,4.55-10.09,10.12-10.11h5.52C69.52,147.23,74.04,151.74,74.06,157.32z"/>
	<circle class="st1" cx="142.4" cy="137.38" r="8.09"/>
	<path class="st1" d="M155.29,157.32v13.7c-0.01,3.79-2.13,7.26-5.51,9v15.22c0.14,4.07-3.05,7.49-7.12,7.63
		c-4.07,0.14-7.49-3.05-7.63-7.12c-0.01-0.17-0.01-0.34,0-0.5v-15.21c-3.38-1.74-5.5-5.21-5.52-9.01v-13.7
		c0.02-5.58,4.55-10.09,10.12-10.11h5.52C150.74,147.23,155.27,151.74,155.29,157.32z"/>
	<circle class="st1" cx="223.63" cy="137.38" r="8.09"/>
	<path class="st1" d="M236.51,157.32v13.7c-0.01,3.79-2.13,7.26-5.51,9v15.22c0.14,4.07-3.05,7.49-7.12,7.63
		c-4.07,0.14-7.49-3.05-7.63-7.12c-0.01-0.17-0.01-0.34,0-0.5v-15.21c-3.38-1.74-5.5-5.21-5.52-9.01v-13.7
		c0.02-5.58,4.55-10.09,10.12-10.11h5.52C231.97,147.23,236.49,151.74,236.51,157.32z"/>
	<circle class="st1" cx="304.85" cy="137.38" r="8.09"/>
	<path class="st1" d="M317.74,157.32v13.7c-0.01,3.79-2.13,7.26-5.51,9v15.22c0.14,4.07-3.05,7.49-7.12,7.63
		c-4.07,0.14-7.49-3.05-7.63-7.12c-0.01-0.17-0.01-0.34,0-0.5v-15.21c-3.38-1.74-5.5-5.21-5.52-9.01v-13.7
		c0.02-5.58,4.55-10.09,10.12-10.11h5.52C313.2,147.23,317.72,151.74,317.74,157.32z"/>
	<circle class="st1" cx="386.08" cy="137.38" r="8.09"/>
	<path class="st1" d="M398.97,157.32v13.7c-0.01,3.79-2.13,7.26-5.51,9v15.22c0.14,4.07-3.05,7.49-7.12,7.63
		c-4.07,0.14-7.49-3.05-7.63-7.12c-0.01-0.17-0.01-0.34,0-0.5v-15.21c-3.38-1.74-5.5-5.21-5.52-9.01v-13.7
		c0.02-5.58,4.55-10.09,10.12-10.11h5.52C394.42,147.23,398.94,151.74,398.97,157.32z"/>
	<circle class="st1" cx="467.31" cy="137.38" r="8.09"/>
	<path class="st1" d="M480.19,157.32v13.7c-0.01,3.79-2.13,7.26-5.51,9v15.22c0.14,4.07-3.05,7.49-7.12,7.63
		c-4.07,0.14-7.49-3.05-7.63-7.12c-0.01-0.17-0.01-0.34,0-0.5v-15.21c-3.38-1.74-5.5-5.21-5.52-9.01v-13.7
		c0.02-5.58,4.55-10.09,10.12-10.11h5.52C475.65,147.23,480.17,151.74,480.19,157.32z"/>
	<circle class="st1" cx="548.53" cy="137.38" r="8.09"/>
	<path class="st1" d="M561.42,157.32v13.7c-0.01,3.79-2.13,7.26-5.51,9v15.22c0.14,4.07-3.05,7.49-7.12,7.63
		c-4.07,0.14-7.49-3.05-7.63-7.12c-0.01-0.17-0.01-0.34,0-0.5v-15.21c-3.38-1.74-5.5-5.21-5.52-9.01v-13.7
		c0.02-5.58,4.55-10.09,10.12-10.11h5.52C556.87,147.23,561.39,151.74,561.42,157.32z"/>
	<circle class="st1" cx="629.76" cy="137.38" r="8.09"/>
	<path class="st1" d="M642.64,157.32v13.7c-0.01,3.79-2.13,7.26-5.51,9v15.22c0.14,4.07-3.05,7.49-7.12,7.63
		c-4.07,0.14-7.49-3.05-7.63-7.12c-0.01-0.17-0.01-0.34,0-0.5v-15.21c-3.38-1.74-5.5-5.21-5.52-9.01v-13.7
		c0.02-5.58,4.55-10.09,10.12-10.11h5.52C638.1,147.23,642.62,151.74,642.64,157.32z"/>
	<circle class="st1" cx="710.98" cy="137.38" r="8.09"/>
	<path class="st1" d="M723.87,157.32v13.7c-0.01,3.79-2.13,7.26-5.51,9v15.22c0.14,4.07-3.05,7.49-7.12,7.63
		c-4.07,0.14-7.49-3.05-7.63-7.12c-0.01-0.17-0.01-0.34,0-0.5v-15.21c-3.38-1.74-5.5-5.21-5.52-9.01v-13.7
		c0.02-5.58,4.55-10.09,10.12-10.11h5.52C719.32,147.23,723.85,151.74,723.87,157.32z"/>
	<circle class="st1" cx="792.21" cy="137.38" r="8.09"/>
	<path class="st1" d="M805.1,157.32v13.7c-0.01,3.79-2.13,7.26-5.51,9v15.22c0.14,4.07-3.05,7.49-7.12,7.63
		c-4.07,0.14-7.49-3.05-7.63-7.12c-0.01-0.17-0.01-0.34,0-0.5v-15.21c-3.38-1.74-5.5-5.21-5.52-9.01v-13.7
		c0.02-5.58,4.55-10.09,10.12-10.11h5.52C800.55,147.23,805.07,151.74,805.1,157.32z"/>
	<circle class="st1" cx="61.18" cy="230.88" r="8.09"/>
	<path class="st1" d="M74.06,250.82v13.7c-0.01,3.79-2.13,7.26-5.51,9v15.22c0.14,4.07-3.05,7.49-7.12,7.63
		c-4.07,0.14-7.49-3.05-7.63-7.12c-0.01-0.17-0.01-0.34,0-0.5v-15.21c-3.38-1.74-5.5-5.21-5.52-9.01v-13.7
		c0.02-5.58,4.55-10.09,10.12-10.11h5.52C69.52,240.73,74.04,245.25,74.06,250.82z"/>
	<circle class="st1" cx="142.4" cy="230.88" r="8.09"/>
	<path class="st1" d="M155.29,250.82v13.7c-0.01,3.79-2.13,7.26-5.51,9v15.22c0.14,4.07-3.05,7.49-7.12,7.63
		c-4.07,0.14-7.49-3.05-7.63-7.12c-0.01-0.17-0.01-0.34,0-0.5v-15.21c-3.38-1.74-5.5-5.21-5.52-9.01v-13.7
		c0.02-5.58,4.55-10.09,10.12-10.11h5.52C150.74,240.73,155.27,245.25,155.29,250.82z"/>
	<circle class="st1" cx="223.63" cy="230.88" r="8.09"/>
	<path class="st1" d="M236.51,250.82v13.7c-0.01,3.79-2.13,7.26-5.51,9v15.22c0.14,4.07-3.05,7.49-7.12,7.63
		c-4.07,0.14-7.49-3.05-7.63-7.12c-0.01-0.17-0.01-0.34,0-0.5v-15.21c-3.38-1.74-5.5-5.21-5.52-9.01v-13.7
		c0.02-5.58,4.55-10.09,10.12-10.11h5.52C231.97,240.73,236.49,245.25,236.51,250.82z"/>
	<circle class="st1" cx="304.85" cy="230.88" r="8.09"/>
	<path class="st1" d="M317.74,250.82v13.7c-0.01,3.79-2.13,7.26-5.51,9v15.22c0.14,4.07-3.05,7.49-7.12,7.63
		c-4.07,0.14-7.49-3.05-7.63-7.12c-0.01-0.17-0.01-0.34,0-0.5v-15.21c-3.38-1.74-5.5-5.21-5.52-9.01v-13.7
		c0.02-5.58,4.55-10.09,10.12-10.11h5.52C313.2,240.73,317.72,245.25,317.74,250.82z"/>
	<circle class="st1" cx="386.08" cy="230.88" r="8.09"/>
	<path class="st1" d="M398.97,250.82v13.7c-0.01,3.79-2.13,7.26-5.51,9v15.22c0.14,4.07-3.05,7.49-7.12,7.63
		c-4.07,0.14-7.49-3.05-7.63-7.12c-0.01-0.17-0.01-0.34,0-0.5v-15.21c-3.38-1.74-5.5-5.21-5.52-9.01v-13.7
		c0.02-5.58,4.55-10.09,10.12-10.11h5.52C394.42,240.73,398.94,245.25,398.97,250.82z"/>
	<circle class="st1" cx="467.31" cy="230.88" r="8.09"/>
	<path class="st1" d="M480.19,250.82v13.7c-0.01,3.79-2.13,7.26-5.51,9v15.22c0.14,4.07-3.05,7.49-7.12,7.63
		c-4.07,0.14-7.49-3.05-7.63-7.12c-0.01-0.17-0.01-0.34,0-0.5v-15.21c-3.38-1.74-5.5-5.21-5.52-9.01v-13.7
		c0.02-5.58,4.55-10.09,10.12-10.11h5.52C475.65,240.73,480.17,245.25,480.19,250.82z"/>
	<circle class="st1" cx="548.53" cy="230.88" r="8.09"/>
	<path class="st1" d="M561.42,250.82v13.7c-0.01,3.79-2.13,7.26-5.51,9v15.22c0.14,4.07-3.05,7.49-7.12,7.63
		c-4.07,0.14-7.49-3.05-7.63-7.12c-0.01-0.17-0.01-0.34,0-0.5v-15.21c-3.38-1.74-5.5-5.21-5.52-9.01v-13.7
		c0.02-5.58,4.55-10.09,10.12-10.11h5.52C556.87,240.73,561.39,245.25,561.42,250.82z"/>
	<circle class="st1" cx="629.76" cy="230.88" r="8.09"/>
	<path class="st1" d="M642.64,250.82v13.7c-0.01,3.79-2.13,7.26-5.51,9v15.22c0.14,4.07-3.05,7.49-7.12,7.63
		c-4.07,0.14-7.49-3.05-7.63-7.12c-0.01-0.17-0.01-0.34,0-0.5v-15.21c-3.38-1.74-5.5-5.21-5.52-9.01v-13.7
		c0.02-5.58,4.55-10.09,10.12-10.11h5.52C638.1,240.73,642.62,245.25,642.64,250.82z"/>
	<circle class="st1" cx="710.98" cy="230.88" r="8.09"/>
	<path class="st1" d="M723.87,250.82v13.7c-0.01,3.79-2.13,7.26-5.51,9v15.22c0.14,4.07-3.05,7.49-7.12,7.63
		c-4.07,0.14-7.49-3.05-7.63-7.12c-0.01-0.17-0.01-0.34,0-0.5v-15.21c-3.38-1.74-5.5-5.21-5.52-9.01v-13.7
		c0.02-5.58,4.55-10.09,10.12-10.11h5.52C719.32,240.73,723.85,245.25,723.87,250.82z"/>
	<circle class="st1" cx="792.21" cy="230.88" r="8.09"/>
	<path class="st1" d="M805.1,250.82v13.7c-0.01,3.79-2.13,7.26-5.51,9v15.22c0.14,4.07-3.05,7.49-7.12,7.63
		c-4.07,0.14-7.49-3.05-7.63-7.12c-0.01-0.17-0.01-0.34,0-0.5v-15.21c-3.38-1.74-5.5-5.21-5.52-9.01v-13.7
		c0.02-5.58,4.55-10.09,10.12-10.11h5.52C800.55,240.73,805.07,245.25,805.1,250.82z"/>
	<circle class="st1" cx="61.18" cy="324.38" r="8.09"/>
	<path class="st1" d="M74.06,344.32v13.7c-0.01,3.79-2.13,7.26-5.51,9v15.22c0.14,4.07-3.05,7.49-7.12,7.63
		c-4.07,0.14-7.49-3.05-7.63-7.12c-0.01-0.17-0.01-0.34,0-0.5v-15.21c-3.38-1.74-5.5-5.21-5.52-9.01v-13.7
		c0.02-5.58,4.55-10.09,10.12-10.11h5.52C69.52,334.23,74.04,338.75,74.06,344.32z"/>
	<circle class="st1" cx="142.4" cy="324.38" r="8.09"/>
	<path class="st1" d="M155.29,344.32v13.7c-0.01,3.79-2.13,7.26-5.51,9v15.22c0.14,4.07-3.05,7.49-7.12,7.63
		c-4.07,0.14-7.49-3.05-7.63-7.12c-0.01-0.17-0.01-0.34,0-0.5v-15.21c-3.38-1.74-5.5-5.21-5.52-9.01v-13.7
		c0.02-5.58,4.55-10.09,10.12-10.11h5.52C150.74,334.23,155.27,338.75,155.29,344.32z"/>
	<circle class="st1" cx="223.63" cy="324.38" r="8.09"/>
	<path class="st1" d="M236.51,344.32v13.7c-0.01,3.79-2.13,7.26-5.51,9v15.22c0.14,4.07-3.05,7.49-7.12,7.63
		c-4.07,0.14-7.49-3.05-7.63-7.12c-0.01-0.17-0.01-0.34,0-0.5v-15.21c-3.38-1.74-5.5-5.21-5.52-9.01v-13.7
		c0.02-5.58,4.55-10.09,10.12-10.11h5.52C231.97,334.23,236.49,338.75,236.51,344.32z"/>
	<circle class="st1" cx="304.85" cy="324.38" r="8.09"/>
	<path class="st1" d="M317.74,344.32v13.7c-0.01,3.79-2.13,7.26-5.51,9v15.22c0.14,4.07-3.05,7.49-7.12,7.63
		c-4.07,0.14-7.49-3.05-7.63-7.12c-0.01-0.17-0.01-0.34,0-0.5v-15.21c-3.38-1.74-5.5-5.21-5.52-9.01v-13.7
		c0.02-5.58,4.55-10.09,10.12-10.11h5.52C313.2,334.23,317.72,338.75,317.74,344.32z"/>
	<circle class="st1" cx="386.08" cy="324.38" r="8.09"/>
	<path class="st1" d="M398.97,344.32v13.7c-0.01,3.79-2.13,7.26-5.51,9v15.22c0.14,4.07-3.05,7.49-7.12,7.63
		c-4.07,0.14-7.49-3.05-7.63-7.12c-0.01-0.17-0.01-0.34,0-0.5v-15.21c-3.38-1.74-5.5-5.21-5.52-9.01v-13.7
		c0.02-5.58,4.55-10.09,10.12-10.11h5.52C394.42,334.23,398.94,338.75,398.97,344.32z"/>
	<circle class="st1" cx="467.31" cy="324.38" r="8.09"/>
	<path class="st1" d="M480.19,344.32v13.7c-0.01,3.79-2.13,7.26-5.51,9v15.22c0.14,4.07-3.05,7.49-7.12,7.63
		c-4.07,0.14-7.49-3.05-7.63-7.12c-0.01-0.17-0.01-0.34,0-0.5v-15.21c-3.38-1.74-5.5-5.21-5.52-9.01v-13.7
		c0.02-5.58,4.55-10.09,10.12-10.11h5.52C475.65,334.23,480.17,338.75,480.19,344.32z"/>
	<circle class="st1" cx="548.53" cy="324.38" r="8.09"/>
	<path class="st1" d="M561.42,344.32v13.7c-0.01,3.79-2.13,7.26-5.51,9v15.22c0.14,4.07-3.05,7.49-7.12,7.63
		c-4.07,0.14-7.49-3.05-7.63-7.12c-0.01-0.17-0.01-0.34,0-0.5v-15.21c-3.38-1.74-5.5-5.21-5.52-9.01v-13.7
		c0.02-5.58,4.55-10.09,10.12-10.11h5.52C556.87,334.23,561.39,338.75,561.42,344.32z"/>
	<circle class="st1" cx="629.76" cy="324.38" r="8.09"/>
	<path class="st1" d="M642.64,344.32v13.7c-0.01,3.79-2.13,7.26-5.51,9v15.22c0.14,4.07-3.05,7.49-7.12,7.63
		c-4.07,0.14-7.49-3.05-7.63-7.12c-0.01-0.17-0.01-0.34,0-0.5v-15.21c-3.38-1.74-5.5-5.21-5.52-9.01v-13.7
		c0.02-5.58,4.55-10.09,10.12-10.11h5.52C638.1,334.23,642.62,338.75,642.64,344.32z"/>
	<circle class="st1" cx="710.98" cy="324.38" r="8.09"/>
	<path class="st1" d="M723.87,344.32v13.7c-0.01,3.79-2.13,7.26-5.51,9v15.22c0.14,4.07-3.05,7.49-7.12,7.63
		c-4.07,0.14-7.49-3.05-7.63-7.12c-0.01-0.17-0.01-0.34,0-0.5v-15.21c-3.38-1.74-5.5-5.21-5.52-9.01v-13.7
		c0.02-5.58,4.55-10.09,10.12-10.11h5.52C719.32,334.23,723.85,338.75,723.87,344.32z"/>
	<circle class="st1" cx="792.21" cy="324.38" r="8.09"/>
	<path class="st1" d="M805.1,344.32v13.7c-0.01,3.79-2.13,7.26-5.51,9v15.22c0.14,4.07-3.05,7.49-7.12,7.63
		c-4.07,0.14-7.49-3.05-7.63-7.12c-0.01-0.17-0.01-0.34,0-0.5v-15.21c-3.38-1.74-5.5-5.21-5.52-9.01v-13.7
		c0.02-5.58,4.55-10.09,10.12-10.11h5.52C800.55,334.23,805.07,338.75,805.1,344.32z"/>
</g>
<g>
	<circle class="st1" cx="61.18" cy="417.88" r="8.09"/>
	<path class="st1" d="M74.06,437.83v13.7c-0.01,3.79-2.13,7.26-5.51,9v15.22c0.14,4.07-3.05,7.49-7.12,7.63
		c-4.07,0.14-7.49-3.05-7.63-7.12c-0.01-0.17-0.01-0.34,0-0.5v-15.21c-3.38-1.74-5.5-5.21-5.52-9.01v-13.7
		c0.02-5.58,4.55-10.09,10.12-10.11h5.52C69.52,427.73,74.04,432.25,74.06,437.83z"/>
	<circle class="st1" cx="142.4" cy="417.88" r="8.09"/>
	<path class="st1" d="M155.29,437.83v13.7c-0.01,3.79-2.13,7.26-5.51,9v15.22c0.14,4.07-3.05,7.49-7.12,7.63
		c-4.07,0.14-7.49-3.05-7.63-7.12c-0.01-0.17-0.01-0.34,0-0.5v-15.21c-3.38-1.74-5.5-5.21-5.52-9.01v-13.7
		c0.02-5.58,4.55-10.09,10.12-10.11h5.52C150.74,427.73,155.27,432.25,155.29,437.83z"/>
	<circle class="st1" cx="223.63" cy="417.88" r="8.09"/>
	<path class="st1" d="M236.51,437.83v13.7c-0.01,3.79-2.13,7.26-5.51,9v15.22c0.14,4.07-3.05,7.49-7.12,7.63
		c-4.07,0.14-7.49-3.05-7.63-7.12c-0.01-0.17-0.01-0.34,0-0.5v-15.21c-3.38-1.74-5.5-5.21-5.52-9.01v-13.7
		c0.02-5.58,4.55-10.09,10.12-10.11h5.52C231.97,427.73,236.49,432.25,236.51,437.83z"/>
</g>
<circle class="st2" cx="304.85" cy="417.88" r="8.09"/>
<path class="st2" d="M317.74,437.83v13.7c-0.01,3.79-2.13,7.26-5.51,9v15.22c0.14,4.07-3.05,7.49-7.12,7.63
	c-4.07,0.14-7.49-3.05-7.63-7.12c-0.01-0.17-0.01-0.34,0-0.5v-15.21c-3.38-1.74-5.5-5.21-5.52-9.01v-13.7
	c0.02-5.58,4.55-10.09,10.12-10.11h5.52C313.2,427.73,317.72,432.25,317.74,437.83z"/>
<circle class="st2" cx="386.08" cy="417.88" r="8.09"/>
<path class="st2" d="M398.97,437.83v13.7c-0.01,3.79-2.13,7.26-5.51,9v15.22c0.14,4.07-3.05,7.49-7.12,7.63
	c-4.07,0.14-7.49-3.05-7.63-7.12c-0.01-0.17-0.01-0.34,0-0.5v-15.21c-3.38-1.74-5.5-5.21-5.52-9.01v-13.7
	c0.02-5.58,4.55-10.09,10.12-10.11h5.52C394.42,427.73,398.94,432.25,398.97,437.83z"/>
<circle class="st2" cx="467.31" cy="417.88" r="8.09"/>
<path class="st2" d="M480.19,437.83v13.7c-0.01,3.79-2.13,7.26-5.51,9v15.22c0.14,4.07-3.05,7.49-7.12,7.63
	c-4.07,0.14-7.49-3.05-7.63-7.12c-0.01-0.17-0.01-0.34,0-0.5v-15.21c-3.38-1.74-5.5-5.21-5.52-9.01v-13.7
	c0.02-5.58,4.55-10.09,10.12-10.11h5.52C475.65,427.73,480.17,432.25,480.19,437.83z"/>
<circle class="st2" cx="548.53" cy="417.88" r="8.09"/>
<path class="st2" d="M561.42,437.83v13.7c-0.01,3.79-2.13,7.26-5.51,9v15.22c0.14,4.07-3.05,7.49-7.12,7.63
	c-4.07,0.14-7.49-3.05-7.63-7.12c-0.01-0.17-0.01-0.34,0-0.5v-15.21c-3.38-1.74-5.5-5.21-5.52-9.01v-13.7
	c0.02-5.58,4.55-10.09,10.12-10.11h5.52C556.87,427.73,561.39,432.25,561.42,437.83z"/>
<circle class="st2" cx="629.76" cy="417.88" r="8.09"/>
<path class="st2" d="M642.64,437.83v13.7c-0.01,3.79-2.13,7.26-5.51,9v15.22c0.14,4.07-3.05,7.49-7.12,7.63
	c-4.07,0.14-7.49-3.05-7.63-7.12c-0.01-0.17-0.01-0.34,0-0.5v-15.21c-3.38-1.74-5.5-5.21-5.52-9.01v-13.7
	c0.02-5.58,4.55-10.09,10.12-10.11h5.52C638.1,427.73,642.62,432.25,642.64,437.83z"/>
<circle class="st2" cx="710.98" cy="417.88" r="8.09"/>
<path class="st2" d="M723.87,437.83v13.7c-0.01,3.79-2.13,7.26-5.51,9v15.22c0.14,4.07-3.05,7.49-7.12,7.63
	c-4.07,0.14-7.49-3.05-7.63-7.12c-0.01-0.17-0.01-0.34,0-0.5v-15.21c-3.38-1.74-5.5-5.21-5.52-9.01v-13.7
	c0.02-5.58,4.55-10.09,10.12-10.11h5.52C719.32,427.73,723.85,432.25,723.87,437.83z"/>
<circle class="st2" cx="792.21" cy="417.88" r="8.09"/>
<path class="st2" d="M805.1,437.83v13.7c-0.01,3.79-2.13,7.26-5.51,9v15.22c0.14,4.07-3.05,7.49-7.12,7.63
	c-4.07,0.14-7.49-3.05-7.63-7.12c-0.01-0.17-0.01-0.34,0-0.5v-15.21c-3.38-1.74-5.5-5.21-5.52-9.01v-13.7
	c0.02-5.58,4.55-10.09,10.12-10.11h5.52C800.55,427.73,805.07,432.25,805.1,437.83z"/>
<circle class="st2" cx="61.18" cy="511.38" r="8.09"/>
<path class="st2" d="M74.06,531.33v13.7c-0.01,3.79-2.13,7.26-5.51,9v15.22c0.14,4.07-3.05,7.49-7.12,7.63s-7.49-3.05-7.63-7.12
	c-0.01-0.17-0.01-0.34,0-0.5v-15.21c-3.38-1.74-5.5-5.21-5.52-9.01v-13.7c0.02-5.58,4.55-10.09,10.12-10.11h5.52
	C69.52,521.23,74.04,525.75,74.06,531.33z"/>
<circle class="st2" cx="142.4" cy="511.38" r="8.09"/>
<path class="st2" d="M155.29,531.33v13.7c-0.01,3.79-2.13,7.26-5.51,9v15.22c0.14,4.07-3.05,7.49-7.12,7.63
	c-4.07,0.14-7.49-3.05-7.63-7.12c-0.01-0.17-0.01-0.34,0-0.5v-15.21c-3.38-1.74-5.5-5.21-5.52-9.01v-13.7
	c0.02-5.58,4.55-10.09,10.12-10.11h5.52C150.74,521.23,155.27,525.75,155.29,531.33z"/>
<circle class="st2" cx="223.63" cy="511.38" r="8.09"/>
<path class="st2" d="M236.51,531.33v13.7c-0.01,3.79-2.13,7.26-5.51,9v15.22c0.14,4.07-3.05,7.49-7.12,7.63
	c-4.07,0.14-7.49-3.05-7.63-7.12c-0.01-0.17-0.01-0.34,0-0.5v-15.21c-3.38-1.74-5.5-5.21-5.52-9.01v-13.7
	c0.02-5.58,4.55-10.09,10.12-10.11h5.52C231.97,521.23,236.49,525.75,236.51,531.33z"/>
<circle class="st2" cx="304.85" cy="511.38" r="8.09"/>
<path class="st2" d="M317.74,531.33v13.7c-0.01,3.79-2.13,7.26-5.51,9v15.22c0.14,4.07-3.05,7.49-7.12,7.63s-7.49-3.05-7.63-7.12
	c-0.01-0.17-0.01-0.34,0-0.5v-15.21c-3.38-1.74-5.5-5.21-5.52-9.01v-13.7c0.02-5.58,4.55-10.09,10.12-10.11h5.52
	C313.2,521.23,317.72,525.75,317.74,531.33z"/>
<circle class="st2" cx="386.08" cy="511.38" r="8.09"/>
<path class="st2" d="M398.97,531.33v13.7c-0.01,3.79-2.13,7.26-5.51,9v15.22c0.14,4.07-3.05,7.49-7.12,7.63
	c-4.07,0.14-7.49-3.05-7.63-7.12c-0.01-0.17-0.01-0.34,0-0.5v-15.21c-3.38-1.74-5.5-5.21-5.52-9.01v-13.7
	c0.02-5.58,4.55-10.09,10.12-10.11h5.52C394.42,521.23,398.94,525.75,398.97,531.33z"/>
<circle class="st2" cx="467.31" cy="511.38" r="8.09"/>
<path class="st2" d="M480.19,531.33v13.7c-0.01,3.79-2.13,7.26-5.51,9v15.22c0.14,4.07-3.05,7.49-7.12,7.63
	c-4.07,0.14-7.49-3.05-7.63-7.12c-0.01-0.17-0.01-0.34,0-0.5v-15.21c-3.38-1.74-5.5-5.21-5.52-9.01v-13.7
	c0.02-5.58,4.55-10.09,10.12-10.11h5.52C475.65,521.23,480.17,525.75,480.19,531.33z"/>
<circle class="st2" cx="548.53" cy="511.38" r="8.09"/>
<path class="st2" d="M561.42,531.33v13.7c-0.01,3.79-2.13,7.26-5.51,9v15.22c0.14,4.07-3.05,7.49-7.12,7.63s-7.49-3.05-7.63-7.12
	c-0.01-0.17-0.01-0.34,0-0.5v-15.21c-3.38-1.74-5.5-5.21-5.52-9.01v-13.7c0.02-5.58,4.55-10.09,10.12-10.11h5.52
	C556.87,521.23,561.39,525.75,561.42,531.33z"/>
<circle class="st2" cx="629.76" cy="511.38" r="8.09"/>
<path class="st2" d="M642.64,531.33v13.7c-0.01,3.79-2.13,7.26-5.51,9v15.22c0.14,4.07-3.05,7.49-7.12,7.63s-7.49-3.05-7.63-7.12
	c-0.01-0.17-0.01-0.34,0-0.5v-15.21c-3.38-1.74-5.5-5.21-5.52-9.01v-13.7c0.02-5.58,4.55-10.09,10.12-10.11h5.52
	C638.1,521.23,642.62,525.75,642.64,531.33z"/>
<circle class="st2" cx="710.98" cy="511.38" r="8.09"/>
<path class="st2" d="M723.87,531.33v13.7c-0.01,3.79-2.13,7.26-5.51,9v15.22c0.14,4.07-3.05,7.49-7.12,7.63s-7.49-3.05-7.63-7.12
	c-0.01-0.17-0.01-0.34,0-0.5v-15.21c-3.38-1.74-5.5-5.21-5.52-9.01v-13.7c0.02-5.58,4.55-10.09,10.12-10.11h5.52
	C719.32,521.23,723.85,525.75,723.87,531.33z"/>
<circle class="st2" cx="792.21" cy="511.38" r="8.09"/>
<path class="st2" d="M805.1,531.33v13.7c-0.01,3.79-2.13,7.26-5.51,9v15.22c0.14,4.07-3.05,7.49-7.12,7.63s-7.49-3.05-7.63-7.12
	c-0.01-0.17-0.01-0.34,0-0.5v-15.21c-3.38-1.74-5.5-5.21-5.52-9.01v-13.7c0.02-5.58,4.55-10.09,10.12-10.11h5.52
	C800.55,521.23,805.07,525.75,805.1,531.33z"/>
<circle class="st2" cx="61.18" cy="604.88" r="8.09"/>
<path class="st2" d="M74.06,624.83v13.7c-0.01,3.79-2.13,7.26-5.51,9v15.22c0.14,4.07-3.05,7.49-7.12,7.63
	c-4.07,0.14-7.49-3.05-7.63-7.12c-0.01-0.17-0.01-0.34,0-0.5v-15.21c-3.38-1.74-5.5-5.21-5.52-9.01v-13.7
	c0.02-5.58,4.55-10.09,10.12-10.11h5.52C69.52,614.73,74.04,619.25,74.06,624.83z"/>
<circle class="st2" cx="142.4" cy="604.88" r="8.09"/>
<path class="st2" d="M155.29,624.83v13.7c-0.01,3.79-2.13,7.26-5.51,9v15.22c0.14,4.07-3.05,7.49-7.12,7.63
	c-4.07,0.14-7.49-3.05-7.63-7.12c-0.01-0.17-0.01-0.34,0-0.5v-15.21c-3.38-1.74-5.5-5.21-5.52-9.01v-13.7
	c0.02-5.58,4.55-10.09,10.12-10.11h5.52C150.74,614.73,155.27,619.25,155.29,624.83z"/>
<circle class="st2" cx="223.63" cy="604.88" r="8.09"/>
<path class="st2" d="M236.51,624.83v13.7c-0.01,3.79-2.13,7.26-5.51,9v15.22c0.14,4.07-3.05,7.49-7.12,7.63
	c-4.07,0.14-7.49-3.05-7.63-7.12c-0.01-0.17-0.01-0.34,0-0.5v-15.21c-3.38-1.74-5.5-5.21-5.52-9.01v-13.7
	c0.02-5.58,4.55-10.09,10.12-10.11h5.52C231.97,614.73,236.49,619.25,236.51,624.83z"/>
<circle class="st2" cx="304.85" cy="604.88" r="8.09"/>
<path class="st2" d="M317.74,624.83v13.7c-0.01,3.79-2.13,7.26-5.51,9v15.22c0.14,4.07-3.05,7.49-7.12,7.63
	c-4.07,0.14-7.49-3.05-7.63-7.12c-0.01-0.17-0.01-0.34,0-0.5v-15.21c-3.38-1.74-5.5-5.21-5.52-9.01v-13.7
	c0.02-5.58,4.55-10.09,10.12-10.11h5.52C313.2,614.73,317.72,619.25,317.74,624.83z"/>
<circle class="st2" cx="386.08" cy="604.88" r="8.09"/>
<path class="st2" d="M398.97,624.83v13.7c-0.01,3.79-2.13,7.26-5.51,9v15.22c0.14,4.07-3.05,7.49-7.12,7.63
	c-4.07,0.14-7.49-3.05-7.63-7.12c-0.01-0.17-0.01-0.34,0-0.5v-15.21c-3.38-1.74-5.5-5.21-5.52-9.01v-13.7
	c0.02-5.58,4.55-10.09,10.12-10.11h5.52C394.42,614.73,398.94,619.25,398.97,624.83z"/>
<circle class="st2" cx="467.31" cy="604.88" r="8.09"/>
<path class="st2" d="M480.19,624.83v13.7c-0.01,3.79-2.13,7.26-5.51,9v15.22c0.14,4.07-3.05,7.49-7.12,7.63
	c-4.07,0.14-7.49-3.05-7.63-7.12c-0.01-0.17-0.01-0.34,0-0.5v-15.21c-3.38-1.74-5.5-5.21-5.52-9.01v-13.7
	c0.02-5.58,4.55-10.09,10.12-10.11h5.52C475.65,614.73,480.17,619.25,480.19,624.83z"/>
<circle class="st2" cx="548.53" cy="604.88" r="8.09"/>
<path class="st2" d="M561.42,624.83v13.7c-0.01,3.79-2.13,7.26-5.51,9v15.22c0.14,4.07-3.05,7.49-7.12,7.63
	c-4.07,0.14-7.49-3.05-7.63-7.12c-0.01-0.17-0.01-0.34,0-0.5v-15.21c-3.38-1.74-5.5-5.21-5.52-9.01v-13.7
	c0.02-5.58,4.55-10.09,10.12-10.11h5.52C556.87,614.73,561.39,619.25,561.42,624.83z"/>
<circle class="st2" cx="629.76" cy="604.88" r="8.09"/>
<path class="st2" d="M642.64,624.83v13.7c-0.01,3.79-2.13,7.26-5.51,9v15.22c0.14,4.07-3.05,7.49-7.12,7.63
	c-4.07,0.14-7.49-3.05-7.63-7.12c-0.01-0.17-0.01-0.34,0-0.5v-15.21c-3.38-1.74-5.5-5.21-5.52-9.01v-13.7
	c0.02-5.58,4.55-10.09,10.12-10.11h5.52C638.1,614.73,642.62,619.25,642.64,624.83z"/>
<circle class="st2" cx="710.98" cy="604.88" r="8.09"/>
<path class="st2" d="M723.87,624.83v13.7c-0.01,3.79-2.13,7.26-5.51,9v15.22c0.14,4.07-3.05,7.49-7.12,7.63
	c-4.07,0.14-7.49-3.05-7.63-7.12c-0.01-0.17-0.01-0.34,0-0.5v-15.21c-3.38-1.74-5.5-5.21-5.52-9.01v-13.7
	c0.02-5.58,4.55-10.09,10.12-10.11h5.52C719.32,614.73,723.85,619.25,723.87,624.83z"/>
<circle class="st2" cx="792.21" cy="604.88" r="8.09"/>
<path class="st2" d="M805.1,624.83v13.7c-0.01,3.79-2.13,7.26-5.51,9v15.22c0.14,4.07-3.05,7.49-7.12,7.63
	c-4.07,0.14-7.49-3.05-7.63-7.12c-0.01-0.17-0.01-0.34,0-0.5v-15.21c-3.38-1.74-5.5-5.21-5.52-9.01v-13.7
	c0.02-5.58,4.55-10.09,10.12-10.11h5.52C800.55,614.73,805.07,619.25,805.1,624.83z"/>
<circle class="st2" cx="61.18" cy="698.38" r="8.09"/>
<path class="st2" d="M74.06,718.33v13.7c-0.01,3.79-2.13,7.26-5.51,9v15.22c0.14,4.07-3.05,7.49-7.12,7.63s-7.49-3.05-7.63-7.12
	c-0.01-0.17-0.01-0.34,0-0.5v-15.21c-3.38-1.74-5.5-5.21-5.52-9.01v-13.7c0.02-5.58,4.55-10.09,10.12-10.11h5.52
	C69.52,708.24,74.04,712.75,74.06,718.33z"/>
<circle class="st2" cx="142.4" cy="698.38" r="8.09"/>
<path class="st2" d="M155.29,718.33v13.7c-0.01,3.79-2.13,7.26-5.51,9v15.22c0.14,4.07-3.05,7.49-7.12,7.63
	c-4.07,0.14-7.49-3.05-7.63-7.12c-0.01-0.17-0.01-0.34,0-0.5v-15.21c-3.38-1.74-5.5-5.21-5.52-9.01v-13.7
	c0.02-5.58,4.55-10.09,10.12-10.11h5.52C150.74,708.24,155.27,712.75,155.29,718.33z"/>
<circle class="st2" cx="223.63" cy="698.38" r="8.09"/>
<path class="st2" d="M236.51,718.33v13.7c-0.01,3.79-2.13,7.26-5.51,9v15.22c0.14,4.07-3.05,7.49-7.12,7.63
	c-4.07,0.14-7.49-3.05-7.63-7.12c-0.01-0.17-0.01-0.34,0-0.5v-15.21c-3.38-1.74-5.5-5.21-5.52-9.01v-13.7
	c0.02-5.58,4.55-10.09,10.12-10.11h5.52C231.97,708.24,236.49,712.75,236.51,718.33z"/>
<circle class="st2" cx="304.85" cy="698.38" r="8.09"/>
<path class="st2" d="M317.74,718.33v13.7c-0.01,3.79-2.13,7.26-5.51,9v15.22c0.14,4.07-3.05,7.49-7.12,7.63s-7.49-3.05-7.63-7.12
	c-0.01-0.17-0.01-0.34,0-0.5v-15.21c-3.38-1.74-5.5-5.21-5.52-9.01v-13.7c0.02-5.58,4.55-10.09,10.12-10.11h5.52
	C313.2,708.24,317.72,712.75,317.74,718.33z"/>
<circle class="st2" cx="386.08" cy="698.38" r="8.09"/>
<path class="st2" d="M398.97,718.33v13.7c-0.01,3.79-2.13,7.26-5.51,9v15.22c0.14,4.07-3.05,7.49-7.12,7.63
	c-4.07,0.14-7.49-3.05-7.63-7.12c-0.01-0.17-0.01-0.34,0-0.5v-15.21c-3.38-1.74-5.5-5.21-5.52-9.01v-13.7
	c0.02-5.58,4.55-10.09,10.12-10.11h5.52C394.42,708.24,398.94,712.75,398.97,718.33z"/>
<circle class="st2" cx="467.31" cy="698.38" r="8.09"/>
<path class="st2" d="M480.19,718.33v13.7c-0.01,3.79-2.13,7.26-5.51,9v15.22c0.14,4.07-3.05,7.49-7.12,7.63
	c-4.07,0.14-7.49-3.05-7.63-7.12c-0.01-0.17-0.01-0.34,0-0.5v-15.21c-3.38-1.74-5.5-5.21-5.52-9.01v-13.7
	c0.02-5.58,4.55-10.09,10.12-10.11h5.52C475.65,708.24,480.17,712.75,480.19,718.33z"/>
<circle class="st2" cx="548.53" cy="698.38" r="8.09"/>
<path class="st2" d="M561.42,718.33v13.7c-0.01,3.79-2.13,7.26-5.51,9v15.22c0.14,4.07-3.05,7.49-7.12,7.63s-7.49-3.05-7.63-7.12
	c-0.01-0.17-0.01-0.34,0-0.5v-15.21c-3.38-1.74-5.5-5.21-5.52-9.01v-13.7c0.02-5.58,4.55-10.09,10.12-10.11h5.52
	C556.87,708.24,561.39,712.75,561.42,718.33z"/>
<circle class="st2" cx="629.76" cy="698.38" r="8.09"/>
<path class="st2" d="M642.64,718.33v13.7c-0.01,3.79-2.13,7.26-5.51,9v15.22c0.14,4.07-3.05,7.49-7.12,7.63s-7.49-3.05-7.63-7.12
	c-0.01-0.17-0.01-0.34,0-0.5v-15.21c-3.38-1.74-5.5-5.21-5.52-9.01v-13.7c0.02-5.58,4.55-10.09,10.12-10.11h5.52
	C638.1,708.24,642.62,712.75,642.64,718.33z"/>
<circle class="st2" cx="710.98" cy="698.38" r="8.09"/>
<path class="st2" d="M723.87,718.33v13.7c-0.01,3.79-2.13,7.26-5.51,9v15.22c0.14,4.07-3.05,7.49-7.12,7.63s-7.49-3.05-7.63-7.12
	c-0.01-0.17-0.01-0.34,0-0.5v-15.21c-3.38-1.74-5.5-5.21-5.52-9.01v-13.7c0.02-5.58,4.55-10.09,10.12-10.11h5.52
	C719.32,708.24,723.85,712.75,723.87,718.33z"/>
<circle class="st2" cx="792.21" cy="698.38" r="8.09"/>
<path class="st2" d="M805.1,718.33v13.7c-0.01,3.79-2.13,7.26-5.51,9v15.22c0.14,4.07-3.05,7.49-7.12,7.63s-7.49-3.05-7.63-7.12
	c-0.01-0.17-0.01-0.34,0-0.5v-15.21c-3.38-1.74-5.5-5.21-5.52-9.01v-13.7c0.02-5.58,4.55-10.09,10.12-10.11h5.52
	C800.55,708.24,805.07,712.75,805.1,718.33z"/>
<circle class="st2" cx="61.18" cy="791.88" r="8.09"/>
<path class="st2" d="M74.06,811.83v13.7c-0.01,3.79-2.13,7.26-5.51,9v15.22c0.14,4.07-3.05,7.49-7.12,7.63
	c-4.07,0.14-7.49-3.05-7.63-7.12c-0.01-0.17-0.01-0.34,0-0.5v-15.21c-3.38-1.74-5.5-5.21-5.52-9.01v-13.7
	c0.02-5.58,4.55-10.09,10.12-10.11h5.52C69.52,801.74,74.04,806.25,74.06,811.83z"/>
<circle class="st2" cx="142.4" cy="791.88" r="8.09"/>
<path class="st2" d="M155.29,811.83v13.7c-0.01,3.79-2.13,7.26-5.51,9v15.22c0.14,4.07-3.05,7.49-7.12,7.63
	c-4.07,0.14-7.49-3.05-7.63-7.12c-0.01-0.17-0.01-0.34,0-0.5v-15.21c-3.38-1.74-5.5-5.21-5.52-9.01v-13.7
	c0.02-5.58,4.55-10.09,10.12-10.11h5.52C150.74,801.74,155.27,806.25,155.29,811.83z"/>
<circle class="st2" cx="223.63" cy="791.88" r="8.09"/>
<path class="st2" d="M236.51,811.83v13.7c-0.01,3.79-2.13,7.26-5.51,9v15.22c0.14,4.07-3.05,7.49-7.12,7.63
	c-4.07,0.14-7.49-3.05-7.63-7.12c-0.01-0.17-0.01-0.34,0-0.5v-15.21c-3.38-1.74-5.5-5.21-5.52-9.01v-13.7
	c0.02-5.58,4.55-10.09,10.12-10.11h5.52C231.97,801.74,236.49,806.25,236.51,811.83z"/>
<circle class="st2" cx="304.85" cy="791.88" r="8.09"/>
<path class="st2" d="M317.74,811.83v13.7c-0.01,3.79-2.13,7.26-5.51,9v15.22c0.14,4.07-3.05,7.49-7.12,7.63
	c-4.07,0.14-7.49-3.05-7.63-7.12c-0.01-0.17-0.01-0.34,0-0.5v-15.21c-3.38-1.74-5.5-5.21-5.52-9.01v-13.7
	c0.02-5.58,4.55-10.09,10.12-10.11h5.52C313.2,801.74,317.72,806.25,317.74,811.83z"/>
<circle class="st2" cx="386.08" cy="791.88" r="8.09"/>
<path class="st2" d="M398.97,811.83v13.7c-0.01,3.79-2.13,7.26-5.51,9v15.22c0.14,4.07-3.05,7.49-7.12,7.63
	c-4.07,0.14-7.49-3.05-7.63-7.12c-0.01-0.17-0.01-0.34,0-0.5v-15.21c-3.38-1.74-5.5-5.21-5.52-9.01v-13.7
	c0.02-5.58,4.55-10.09,10.12-10.11h5.52C394.42,801.74,398.94,806.25,398.97,811.83z"/>
<circle class="st2" cx="467.31" cy="791.88" r="8.09"/>
<path class="st2" d="M480.19,811.83v13.7c-0.01,3.79-2.13,7.26-5.51,9v15.22c0.14,4.07-3.05,7.49-7.12,7.63
	c-4.07,0.14-7.49-3.05-7.63-7.12c-0.01-0.17-0.01-0.34,0-0.5v-15.21c-3.38-1.74-5.5-5.21-5.52-9.01v-13.7
	c0.02-5.58,4.55-10.09,10.12-10.11h5.52C475.65,801.74,480.17,806.25,480.19,811.83z"/>
<circle class="st2" cx="548.53" cy="791.88" r="8.09"/>
<path class="st2" d="M561.42,811.83v13.7c-0.01,3.79-2.13,7.26-5.51,9v15.22c0.14,4.07-3.05,7.49-7.12,7.63
	c-4.07,0.14-7.49-3.05-7.63-7.12c-0.01-0.17-0.01-0.34,0-0.5v-15.21c-3.38-1.74-5.5-5.21-5.52-9.01v-13.7
	c0.02-5.58,4.55-10.09,10.12-10.11h5.52C556.87,801.74,561.39,806.25,561.42,811.83z"/>
<circle class="st2" cx="629.76" cy="791.88" r="8.09"/>
<path class="st2" d="M642.64,811.83v13.7c-0.01,3.79-2.13,7.26-5.51,9v15.22c0.14,4.07-3.05,7.49-7.12,7.63
	c-4.07,0.14-7.49-3.05-7.63-7.12c-0.01-0.17-0.01-0.34,0-0.5v-15.21c-3.38-1.74-5.5-5.21-5.52-9.01v-13.7
	c0.02-5.58,4.55-10.09,10.12-10.11h5.52C638.1,801.74,642.62,806.25,642.64,811.83z"/>
<circle class="st2" cx="710.98" cy="791.88" r="8.09"/>
<path class="st2" d="M723.87,811.83v13.7c-0.01,3.79-2.13,7.26-5.51,9v15.22c0.14,4.07-3.05,7.49-7.12,7.63
	c-4.07,0.14-7.49-3.05-7.63-7.12c-0.01-0.17-0.01-0.34,0-0.5v-15.21c-3.38-1.74-5.5-5.21-5.52-9.01v-13.7
	c0.02-5.58,4.55-10.09,10.12-10.11h5.52C719.32,801.74,723.85,806.25,723.87,811.83z"/>
<circle class="st2" cx="792.21" cy="791.88" r="8.09"/>
<path class="st2" d="M805.1,811.83v13.7c-0.01,3.79-2.13,7.26-5.51,9v15.22c0.14,4.07-3.05,7.49-7.12,7.63
	c-4.07,0.14-7.49-3.05-7.63-7.12c-0.01-0.17-0.01-0.34,0-0.5v-15.21c-3.38-1.74-5.5-5.21-5.52-9.01v-13.7
	c0.02-5.58,4.55-10.09,10.12-10.11h5.52C800.55,801.74,805.07,806.25,805.1,811.83z"/>
<circle class="st2" cx="61.18" cy="885.38" r="8.09"/>
<path class="st2" d="M74.06,905.33v13.7c-0.01,3.79-2.13,7.26-5.51,9v15.22c0.14,4.07-3.05,7.49-7.12,7.63s-7.49-3.05-7.63-7.12
	c-0.01-0.17-0.01-0.34,0-0.5v-15.21c-3.38-1.74-5.5-5.21-5.52-9.01v-13.7c0.02-5.58,4.55-10.09,10.12-10.11h5.52
	C69.52,895.24,74.04,899.75,74.06,905.33z"/>
<circle class="st2" cx="142.4" cy="885.38" r="8.09"/>
<path class="st2" d="M155.29,905.33v13.7c-0.01,3.79-2.13,7.26-5.51,9v15.22c0.14,4.07-3.05,7.49-7.12,7.63
	c-4.07,0.14-7.49-3.05-7.63-7.12c-0.01-0.17-0.01-0.34,0-0.5v-15.21c-3.38-1.74-5.5-5.21-5.52-9.01v-13.7
	c0.02-5.58,4.55-10.09,10.12-10.11h5.52C150.74,895.24,155.27,899.75,155.29,905.33z"/>
<circle class="st2" cx="223.63" cy="885.38" r="8.09"/>
<path class="st2" d="M236.51,905.33v13.7c-0.01,3.79-2.13,7.26-5.51,9v15.22c0.14,4.07-3.05,7.49-7.12,7.63
	c-4.07,0.14-7.49-3.05-7.63-7.12c-0.01-0.17-0.01-0.34,0-0.5v-15.21c-3.38-1.74-5.5-5.21-5.52-9.01v-13.7
	c0.02-5.58,4.55-10.09,10.12-10.11h5.52C231.97,895.24,236.49,899.75,236.51,905.33z"/>
<circle class="st2" cx="304.85" cy="885.38" r="8.09"/>
<path class="st2" d="M317.74,905.33v13.7c-0.01,3.79-2.13,7.26-5.51,9v15.22c0.14,4.07-3.05,7.49-7.12,7.63s-7.49-3.05-7.63-7.12
	c-0.01-0.17-0.01-0.34,0-0.5v-15.21c-3.38-1.74-5.5-5.21-5.52-9.01v-13.7c0.02-5.58,4.55-10.09,10.12-10.11h5.52
	C313.2,895.24,317.72,899.75,317.74,905.33z"/>
<circle class="st2" cx="386.08" cy="885.38" r="8.09"/>
<path class="st2" d="M398.97,905.33v13.7c-0.01,3.79-2.13,7.26-5.51,9v15.22c0.14,4.07-3.05,7.49-7.12,7.63
	c-4.07,0.14-7.49-3.05-7.63-7.12c-0.01-0.17-0.01-0.34,0-0.5v-15.21c-3.38-1.74-5.5-5.21-5.52-9.01v-13.7
	c0.02-5.58,4.55-10.09,10.12-10.11h5.52C394.42,895.24,398.94,899.75,398.97,905.33z"/>
<circle class="st2" cx="467.31" cy="885.38" r="8.09"/>
<path class="st2" d="M480.19,905.33v13.7c-0.01,3.79-2.13,7.26-5.51,9v15.22c0.14,4.07-3.05,7.49-7.12,7.63
	c-4.07,0.14-7.49-3.05-7.63-7.12c-0.01-0.17-0.01-0.34,0-0.5v-15.21c-3.38-1.74-5.5-5.21-5.52-9.01v-13.7
	c0.02-5.58,4.55-10.09,10.12-10.11h5.52C475.65,895.24,480.17,899.75,480.19,905.33z"/>
<circle class="st2" cx="548.53" cy="885.38" r="8.09"/>
<path class="st2" d="M561.42,905.33v13.7c-0.01,3.79-2.13,7.26-5.51,9v15.22c0.14,4.07-3.05,7.49-7.12,7.63s-7.49-3.05-7.63-7.12
	c-0.01-0.17-0.01-0.34,0-0.5v-15.21c-3.38-1.74-5.5-5.21-5.52-9.01v-13.7c0.02-5.58,4.55-10.09,10.12-10.11h5.52
	C556.87,895.24,561.39,899.75,561.42,905.33z"/>
<circle class="st2" cx="629.76" cy="885.38" r="8.09"/>
<path class="st2" d="M642.64,905.33v13.7c-0.01,3.79-2.13,7.26-5.51,9v15.22c0.14,4.07-3.05,7.49-7.12,7.63s-7.49-3.05-7.63-7.12
	c-0.01-0.17-0.01-0.34,0-0.5v-15.21c-3.38-1.74-5.5-5.21-5.52-9.01v-13.7c0.02-5.58,4.55-10.09,10.12-10.11h5.52
	C638.1,895.24,642.62,899.75,642.64,905.33z"/>
<circle class="st2" cx="710.98" cy="885.38" r="8.09"/>
<path class="st2" d="M723.87,905.33v13.7c-0.01,3.79-2.13,7.26-5.51,9v15.22c0.14,4.07-3.05,7.49-7.12,7.63s-7.49-3.05-7.63-7.12
	c-0.01-0.17-0.01-0.34,0-0.5v-15.21c-3.38-1.74-5.5-5.21-5.52-9.01v-13.7c0.02-5.58,4.55-10.09,10.12-10.11h5.52
	C719.32,895.24,723.85,899.75,723.87,905.33z"/>
<circle class="st2" cx="792.21" cy="885.38" r="8.09"/>
<path class="st2" d="M805.1,905.33v13.7c-0.01,3.79-2.13,7.26-5.51,9v15.22c0.14,4.07-3.05,7.49-7.12,7.63s-7.49-3.05-7.63-7.12
	c-0.01-0.17-0.01-0.34,0-0.5v-15.21c-3.38-1.74-5.5-5.21-5.52-9.01v-13.7c0.02-5.58,4.55-10.09,10.12-10.11h5.52
	C800.55,895.24,805.07,899.75,805.1,905.33z"/>
<g>
	<g>
		<path class="st3" d="M335.94,1004.2v-25.96h9.16c2.92,0,5.2,0.72,6.83,2.16c1.63,1.44,2.45,3.48,2.45,6.12
			c0,2.61-0.82,4.64-2.45,6.08c-1.63,1.44-3.91,2.16-6.83,2.16h-4.4v9.44H335.94z M340.7,990.64h4.4c1.47,0,2.57-0.39,3.32-1.16
			c0.75-0.77,1.12-1.76,1.12-2.96c0-1.23-0.37-2.23-1.12-3.02c-0.75-0.79-1.85-1.18-3.32-1.18h-4.4V990.64z"/>
		<path class="st3" d="M366.92,1004.76c-1.77,0-3.38-0.38-4.81-1.14s-2.57-1.9-3.41-3.41c-0.84-1.51-1.26-3.41-1.26-5.69
			c0-2.32,0.42-4.24,1.26-5.76c0.84-1.52,1.98-2.65,3.41-3.4s3.04-1.12,4.81-1.12c1.75,0,3.33,0.37,4.75,1.12s2.55,1.88,3.39,3.4
			c0.84,1.52,1.26,3.44,1.26,5.76c0,2.28-0.42,4.18-1.26,5.69c-0.84,1.51-1.97,2.65-3.39,3.41S368.67,1004.76,366.92,1004.76z
			 M366.76,1000.64c0.93,0,1.76-0.23,2.49-0.69c0.73-0.46,1.3-1.14,1.72-2.05c0.42-0.91,0.63-2.03,0.63-3.38
			c0-2.05-0.4-3.6-1.21-4.64c-0.81-1.04-1.91-1.56-3.31-1.56c-0.95,0-1.79,0.23-2.52,0.69s-1.31,1.15-1.73,2.07
			s-0.63,2.07-0.63,3.44c0,2.03,0.41,3.55,1.23,4.58C364.25,1000.13,365.36,1000.64,366.76,1000.64z"/>
		<path class="st3" d="M389.16,1004.76c-1.87,0-3.47-0.26-4.81-0.77s-2.37-1.25-3.09-2.22c-0.72-0.97-1.09-2.13-1.1-3.49h4.36
			c0.04,0.96,0.42,1.66,1.14,2.1c0.72,0.44,1.7,0.66,2.94,0.66c0.68,0,1.28-0.1,1.81-0.3s0.94-0.47,1.23-0.82s0.44-0.73,0.44-1.16
			c0-0.55-0.2-0.98-0.59-1.29c-0.39-0.31-1.02-0.6-1.89-0.87l-4.24-1.52c-1.52-0.55-2.69-1.27-3.5-2.16
			c-0.81-0.89-1.22-1.96-1.22-3.2c0-1.64,0.74-2.96,2.23-3.97s3.48-1.51,5.97-1.51c2.48,0,4.4,0.54,5.75,1.63
			c1.35,1.09,2.05,2.46,2.09,4.13h-4.44c-0.07-0.64-0.37-1.15-0.92-1.52c-0.55-0.37-1.37-0.56-2.48-0.56c-1,0-1.78,0.2-2.35,0.61
			c-0.57,0.41-0.85,0.88-0.85,1.43c0,0.92,0.79,1.61,2.36,2.08l4.6,1.72c1.49,0.51,2.65,1.16,3.48,1.96
			c0.83,0.8,1.24,1.81,1.24,3.04c0,1.03-0.34,2-1.03,2.91c-0.69,0.91-1.64,1.66-2.87,2.23
			C392.19,1004.47,390.77,1004.76,389.16,1004.76z"/>
		<path class="st3" d="M400.58,987.92v-3.12h12.72v3.12H400.58z M409.58,1004.76c-1.15,0-2.2-0.21-3.15-0.64s-1.71-1.08-2.28-1.96
			s-0.85-2-0.85-3.36v-19.16h4.72v19c0,1.6,0.76,2.4,2.28,2.4c0.47,0,0.93-0.05,1.4-0.16c0.47-0.11,1-0.27,1.6-0.48l0.68,3.32
			c-0.75,0.29-1.47,0.54-2.18,0.74S410.35,1004.76,409.58,1004.76z"/>
		<path class="st3" d="M426.28,1014.24c-2.23,0-4.13-0.31-5.71-0.92s-2.79-1.42-3.63-2.41c-0.84-0.99-1.26-2.07-1.26-3.23
			c0-1.37,0.5-2.44,1.5-3.19s2.26-1.13,3.78-1.13l3.44,1.28c-1.31,0-2.31,0.25-3.02,0.74s-1.06,1.18-1.06,2.06
			c0,0.92,0.53,1.66,1.59,2.21c1.06,0.55,2.52,0.83,4.37,0.83c1.35,0,2.51-0.2,3.5-0.6c0.99-0.4,1.75-0.92,2.29-1.56
			c0.54-0.64,0.81-1.32,0.81-2.04c0-0.48-0.16-0.87-0.48-1.18c-0.32-0.31-0.81-0.46-1.48-0.46h-6.52c-1.31,0-2.5-0.21-3.57-0.63
			c-1.07-0.42-1.93-0.99-2.56-1.7c-0.63-0.71-0.95-1.51-0.95-2.39c0-0.81,0.23-1.52,0.68-2.11c0.45-0.59,1.07-1.05,1.85-1.37
			c0.78-0.32,1.66-0.48,2.63-0.48l1.2,1.56c-0.39,0-0.76,0.08-1.11,0.23s-0.64,0.38-0.87,0.67c-0.23,0.29-0.34,0.66-0.34,1.1
			c0,0.53,0.23,0.97,0.68,1.3c0.45,0.33,1.24,0.5,2.36,0.5h6.52c2.07,0,3.69,0.38,4.87,1.14s1.77,1.93,1.77,3.5
			c0,1.4-0.46,2.73-1.38,3.99s-2.22,2.29-3.91,3.09C430.58,1013.84,428.59,1014.24,426.28,1014.24z M426.52,998.2
			c-1.53,0-2.94-0.29-4.21-0.87c-1.27-0.58-2.29-1.39-3.05-2.43s-1.14-2.26-1.14-3.66c0-1.43,0.38-2.67,1.14-3.72
			c0.76-1.05,1.78-1.86,3.05-2.43c1.27-0.57,2.68-0.85,4.21-0.85c1.49,0,2.87,0.28,4.14,0.85c1.27,0.57,2.29,1.38,3.06,2.43
			c0.77,1.05,1.16,2.29,1.16,3.72c0,1.4-0.39,2.62-1.16,3.66c-0.77,1.04-1.79,1.85-3.06,2.43
			C429.39,997.91,428.01,998.2,426.52,998.2z M426.56,994.92c1.23,0,2.15-0.35,2.76-1.06s0.92-1.58,0.92-2.62
			c0-1.12-0.31-2.02-0.93-2.7c-0.62-0.68-1.55-1.02-2.79-1.02c-1.2,0-2.12,0.34-2.76,1.02c-0.64,0.68-0.96,1.58-0.96,2.7
			c0,1.04,0.32,1.91,0.97,2.62S425.35,994.92,426.56,994.92z M433.4,987.36l-2.16-1.24c0-1.16,0.27-2.18,0.81-3.05
			c0.54-0.87,1.26-1.55,2.16-2.03c0.9-0.48,1.9-0.72,2.99-0.72l-0.24,4.52c-1.16,0-2.04,0.2-2.65,0.61
			C433.7,985.86,433.4,986.49,433.4,987.36z"/>
		<path class="st3" d="M442.08,1004.2v-19.48h4.72v19.48H442.08z M445.64,995.68c0-2.55,0.29-4.65,0.86-6.32
			c0.57-1.67,1.34-2.9,2.31-3.71c0.97-0.81,2.04-1.21,3.23-1.21c0.32,0,0.62,0.02,0.91,0.06s0.57,0.1,0.85,0.18l-0.08,4.72
			c-0.35-0.08-0.72-0.15-1.12-0.2c-0.4-0.05-0.76-0.08-1.08-0.08c-1.04,0-1.91,0.25-2.61,0.75s-1.23,1.24-1.58,2.21
			c-0.35,0.97-0.53,2.17-0.53,3.6H445.64z"/>
		<path class="st3" d="M463.78,1004.76c-1.67,0-3.06-0.29-4.17-0.87c-1.11-0.58-1.95-1.34-2.51-2.29c-0.56-0.95-0.84-1.97-0.84-3.08
			c0-1.23,0.32-2.26,0.97-3.09c0.65-0.83,1.56-1.46,2.75-1.88c1.19-0.42,2.59-0.63,4.2-0.63c1.05,0,2.05,0.08,2.99,0.24
			c0.94,0.16,1.88,0.37,2.81,0.64v2.76c-0.73-0.24-1.53-0.43-2.4-0.56c-0.87-0.13-1.68-0.2-2.44-0.2c-1.12,0-2.04,0.21-2.76,0.62
			c-0.72,0.41-1.08,1.11-1.08,2.1c0,0.72,0.29,1.34,0.88,1.86c0.59,0.52,1.52,0.78,2.8,0.78c0.97,0,1.8-0.21,2.48-0.64
			s1.2-0.96,1.55-1.6c0.35-0.64,0.53-1.28,0.53-1.92h1.12c0,1.4-0.26,2.69-0.78,3.87c-0.52,1.18-1.29,2.12-2.31,2.83
			S465.29,1004.76,463.78,1004.76z M470.14,1004.2l-0.6-4.72v-7.8c0-1.36-0.28-2.37-0.83-3.02c-0.55-0.65-1.49-0.98-2.81-0.98
			c-0.76,0-1.42,0.11-1.98,0.34c-0.56,0.23-0.99,0.55-1.29,0.97c-0.3,0.42-0.45,0.93-0.45,1.53h-5.16c0-1.47,0.35-2.66,1.06-3.59
			s1.72-1.61,3.05-2.04c1.33-0.43,2.92-0.65,4.77-0.65c1.68,0,3.15,0.27,4.4,0.81c1.25,0.54,2.23,1.37,2.92,2.49s1.04,2.55,1.04,4.3
			v12.36H470.14z"/>
		<path class="st3" d="M488.34,1004.76c-1.63,0-3.11-0.43-4.45-1.29c-1.34-0.86-2.41-2.07-3.2-3.62c-0.79-1.55-1.19-3.37-1.19-5.45
			c0-2.05,0.38-3.84,1.15-5.37c0.77-1.53,1.79-2.71,3.08-3.54c1.29-0.83,2.72-1.25,4.29-1.25c1.44,0,2.69,0.34,3.74,1.03
			s1.86,1.7,2.42,3.05c0.56,1.35,0.84,3,0.84,4.96h-1.48c0-1.01-0.21-1.88-0.62-2.59c-0.41-0.71-0.96-1.26-1.63-1.64
			c-0.67-0.38-1.4-0.57-2.19-0.57c-0.95,0-1.78,0.25-2.51,0.74c-0.73,0.49-1.3,1.18-1.71,2.07s-0.62,1.92-0.62,3.11
			c0,1.23,0.21,2.29,0.62,3.2c0.41,0.91,0.98,1.61,1.71,2.12c0.73,0.51,1.55,0.76,2.47,0.76c0.75,0,1.46-0.2,2.15-0.61
			c0.69-0.41,1.25-0.98,1.68-1.71c0.43-0.73,0.65-1.59,0.65-2.56h1.48c0,2.04-0.3,3.74-0.91,5.09c-0.61,1.35-1.42,2.37-2.43,3.05
			S489.55,1004.76,488.34,1004.76z M494.42,1004.2l-0.88-4.8v-22.64h4.76v27.44H494.42z"/>
		<path class="st3" d="M513.38,1004.76c-1.77,0-3.38-0.38-4.81-1.14c-1.43-0.76-2.57-1.9-3.41-3.41c-0.84-1.51-1.26-3.41-1.26-5.69
			c0-2.32,0.42-4.24,1.26-5.76c0.84-1.52,1.98-2.65,3.41-3.4c1.43-0.75,3.04-1.12,4.81-1.12c1.75,0,3.33,0.37,4.75,1.12
			s2.55,1.88,3.39,3.4c0.84,1.52,1.26,3.44,1.26,5.76c0,2.28-0.42,4.18-1.26,5.69c-0.84,1.51-1.97,2.65-3.39,3.41
			S515.13,1004.76,513.38,1004.76z M513.22,1000.64c0.93,0,1.76-0.23,2.49-0.69c0.73-0.46,1.3-1.14,1.72-2.05
			c0.42-0.91,0.63-2.03,0.63-3.38c0-2.05-0.4-3.6-1.21-4.64s-1.91-1.56-3.31-1.56c-0.95,0-1.79,0.23-2.52,0.69
			c-0.73,0.46-1.31,1.15-1.73,2.07s-0.63,2.07-0.63,3.44c0,2.03,0.41,3.55,1.23,4.58C510.71,1000.13,511.82,1000.64,513.22,1000.64z
			"/>
	</g>
</g>
</svg>
