<?xml version="1.0" encoding="utf-8"?>
<!-- Generator: Adobe Illustrator 24.0.2, SVG Export Plug-In . SVG Version: 6.00 Build 0)  -->
<svg version="1.1" id="Capa_1" xmlns="http://www.w3.org/2000/svg" xmlns:xlink="http://www.w3.org/1999/xlink" x="0px" y="0px"
	 viewBox="0 0 990 1043" style="enable-background:new 0 0 990 1043;" xml:space="preserve">
<style type="text/css">
	.st0{fill:#252525;}
	.st1{fill:#49ADA4;}
	.st2{fill:#B3E6E0;}
	.st3{fill:#FFFFFF;}
</style>
<rect x="79" y="960" class="st0" width="825" height="72"/>
<g>
	<circle class="st1" cx="59.68" cy="34.88" r="8.09"/>
	<path class="st1" d="M72.56,54.82v13.7c-0.01,3.79-2.13,7.26-5.51,9v15.22c0.14,4.07-3.05,7.49-7.12,7.63s-7.49-3.05-7.63-7.12
		c-0.01-0.17-0.01-0.34,0-0.5V77.53c-3.38-1.74-5.5-5.21-5.52-9.01v-13.7c0.02-5.58,4.55-10.09,10.12-10.11h5.52
		C68.02,44.73,72.54,49.24,72.56,54.82z"/>
	<circle class="st1" cx="59.68" cy="128.38" r="8.09"/>
	<path class="st1" d="M72.56,148.32v13.7c-0.01,3.79-2.13,7.26-5.51,9v15.22c0.14,4.07-3.05,7.49-7.12,7.63
		c-4.07,0.14-7.49-3.05-7.63-7.12c-0.01-0.17-0.01-0.34,0-0.5v-15.21c-3.38-1.74-5.5-5.21-5.52-9.01v-13.7
		c0.02-5.58,4.55-10.09,10.12-10.11h5.52C68.02,138.23,72.54,142.74,72.56,148.32z"/>
	<circle class="st1" cx="59.68" cy="221.88" r="8.09"/>
	<path class="st1" d="M72.56,241.82v13.7c-0.01,3.79-2.13,7.26-5.51,9v15.22c0.14,4.07-3.05,7.49-7.12,7.63
		c-4.07,0.14-7.49-3.05-7.63-7.12c-0.01-0.17-0.01-0.34,0-0.5v-15.21c-3.38-1.74-5.5-5.21-5.52-9.01v-13.7
		c0.02-5.58,4.55-10.09,10.12-10.11h5.52C68.02,231.73,72.54,236.25,72.56,241.82z"/>
	<circle class="st1" cx="59.68" cy="315.38" r="8.09"/>
	<path class="st1" d="M72.56,335.32v13.7c-0.01,3.79-2.13,7.26-5.51,9v15.22c0.14,4.07-3.05,7.49-7.12,7.63
		c-4.07,0.14-7.49-3.05-7.63-7.12c-0.01-0.17-0.01-0.34,0-0.5v-15.21c-3.38-1.74-5.5-5.21-5.52-9.01v-13.7
		c0.02-5.58,4.55-10.09,10.12-10.11h5.52C68.02,325.23,72.54,329.75,72.56,335.32z"/>
	<circle class="st1" cx="59.68" cy="408.88" r="8.09"/>
	<path class="st1" d="M72.56,428.83v13.7c-0.01,3.79-2.13,7.26-5.51,9v15.22c0.14,4.07-3.05,7.49-7.12,7.63
		c-4.07,0.14-7.49-3.05-7.63-7.12c-0.01-0.17-0.01-0.34,0-0.5v-15.21c-3.38-1.74-5.5-5.21-5.52-9.01v-13.7
		c0.02-5.58,4.55-10.09,10.12-10.11h5.52C68.02,418.73,72.54,423.25,72.56,428.83z"/>
	<circle class="st2" cx="59.68" cy="502.38" r="8.09"/>
	<path class="st2" d="M72.56,522.33v13.7c-0.01,3.79-2.13,7.26-5.51,9v15.22c0.14,4.07-3.05,7.49-7.12,7.63
		c-4.07,0.14-7.49-3.05-7.63-7.12c-0.01-0.17-0.01-0.34,0-0.5v-15.21c-3.38-1.74-5.5-5.21-5.52-9.01v-13.7
		c0.02-5.58,4.55-10.09,10.12-10.11h5.52C68.02,512.23,72.54,516.75,72.56,522.33z"/>
	<circle class="st2" cx="59.68" cy="595.88" r="8.09"/>
	<path class="st2" d="M72.56,615.83v13.7c-0.01,3.79-2.13,7.26-5.51,9v15.22c0.14,4.07-3.05,7.49-7.12,7.63s-7.49-3.05-7.63-7.12
		c-0.01-0.17-0.01-0.34,0-0.5v-15.21c-3.38-1.74-5.5-5.21-5.52-9.01v-13.7c0.02-5.58,4.55-10.09,10.12-10.11h5.52
		C68.02,605.73,72.54,610.25,72.56,615.83z"/>
	<circle class="st2" cx="59.68" cy="689.38" r="8.09"/>
	<path class="st2" d="M72.56,709.33v13.7c-0.01,3.79-2.13,7.26-5.51,9v15.22c0.14,4.07-3.05,7.49-7.12,7.63
		c-4.07,0.14-7.49-3.05-7.63-7.12c-0.01-0.17-0.01-0.34,0-0.5v-15.21c-3.38-1.74-5.5-5.21-5.52-9.01v-13.7
		c0.02-5.58,4.55-10.09,10.12-10.11h5.52C68.02,699.24,72.54,703.75,72.56,709.33z"/>
	<circle class="st2" cx="59.68" cy="782.88" r="8.09"/>
	<path class="st2" d="M72.56,802.83v13.7c-0.01,3.79-2.13,7.26-5.51,9v15.22c0.14,4.07-3.05,7.49-7.12,7.63s-7.49-3.05-7.63-7.12
		c-0.01-0.17-0.01-0.34,0-0.5v-15.21c-3.38-1.74-5.5-5.21-5.52-9.01v-13.7c0.02-5.58,4.55-10.09,10.12-10.11h5.52
		C68.02,792.74,72.54,797.25,72.56,802.83z"/>
	<circle class="st2" cx="59.68" cy="876.38" r="8.09"/>
	<path class="st2" d="M72.56,896.33v13.7c-0.01,3.79-2.13,7.26-5.51,9v15.22c0.14,4.07-3.05,7.49-7.12,7.63
		c-4.07,0.14-7.49-3.05-7.63-7.12c-0.01-0.17-0.01-0.34,0-0.5v-15.21c-3.38-1.74-5.5-5.21-5.52-9.01v-13.7
		c0.02-5.58,4.55-10.09,10.12-10.11h5.52C68.02,886.24,72.54,890.75,72.56,896.33z"/>
</g>
<g>
	<circle class="st1" cx="156.68" cy="34.88" r="8.09"/>
	<path class="st1" d="M169.57,54.82v13.7c-0.01,3.79-2.13,7.26-5.51,9v15.22c0.14,4.07-3.05,7.49-7.12,7.63
		c-4.07,0.14-7.49-3.05-7.63-7.12c-0.01-0.17-0.01-0.34,0-0.5V77.53c-3.38-1.74-5.5-5.21-5.52-9.01v-13.7
		c0.02-5.58,4.55-10.09,10.12-10.11h5.52C165.02,44.73,169.54,49.24,169.57,54.82z"/>
	<circle class="st1" cx="156.68" cy="128.38" r="8.09"/>
	<path class="st1" d="M169.57,148.32v13.7c-0.01,3.79-2.13,7.26-5.51,9v15.22c0.14,4.07-3.05,7.49-7.12,7.63
		c-4.07,0.14-7.49-3.05-7.63-7.12c-0.01-0.17-0.01-0.34,0-0.5v-15.21c-3.38-1.74-5.5-5.21-5.52-9.01v-13.7
		c0.02-5.58,4.55-10.09,10.12-10.11h5.52C165.02,138.23,169.54,142.74,169.57,148.32z"/>
	<circle class="st1" cx="156.68" cy="221.88" r="8.09"/>
	<path class="st1" d="M169.57,241.82v13.7c-0.01,3.79-2.13,7.26-5.51,9v15.22c0.14,4.07-3.05,7.49-7.12,7.63
		c-4.07,0.14-7.49-3.05-7.63-7.12c-0.01-0.17-0.01-0.34,0-0.5v-15.21c-3.38-1.74-5.5-5.21-5.52-9.01v-13.7
		c0.02-5.58,4.55-10.09,10.12-10.11h5.52C165.02,231.73,169.54,236.25,169.57,241.82z"/>
	<circle class="st1" cx="156.68" cy="315.38" r="8.09"/>
	<path class="st1" d="M169.57,335.32v13.7c-0.01,3.79-2.13,7.26-5.51,9v15.22c0.14,4.07-3.05,7.49-7.12,7.63
		c-4.07,0.14-7.49-3.05-7.63-7.12c-0.01-0.17-0.01-0.34,0-0.5v-15.21c-3.38-1.74-5.5-5.21-5.52-9.01v-13.7
		c0.02-5.58,4.55-10.09,10.12-10.11h5.52C165.02,325.23,169.54,329.75,169.57,335.32z"/>
	<circle class="st1" cx="156.68" cy="408.88" r="8.09"/>
	<path class="st1" d="M169.57,428.83v13.7c-0.01,3.79-2.13,7.26-5.51,9v15.22c0.14,4.07-3.05,7.49-7.12,7.63
		c-4.07,0.14-7.49-3.05-7.63-7.12c-0.01-0.17-0.01-0.34,0-0.5v-15.21c-3.38-1.74-5.5-5.21-5.52-9.01v-13.7
		c0.02-5.58,4.55-10.09,10.12-10.11h5.52C165.02,418.73,169.54,423.25,169.57,428.83z"/>
	<circle class="st2" cx="156.68" cy="502.38" r="8.09"/>
	<path class="st2" d="M169.57,522.33v13.7c-0.01,3.79-2.13,7.26-5.51,9v15.22c0.14,4.07-3.05,7.49-7.12,7.63
		c-4.07,0.14-7.49-3.05-7.63-7.12c-0.01-0.17-0.01-0.34,0-0.5v-15.21c-3.38-1.74-5.5-5.21-5.52-9.01v-13.7
		c0.02-5.58,4.55-10.09,10.12-10.11h5.52C165.02,512.23,169.54,516.75,169.57,522.33z"/>
	<circle class="st2" cx="156.68" cy="595.88" r="8.09"/>
	<path class="st2" d="M169.57,615.83v13.7c-0.01,3.79-2.13,7.26-5.51,9v15.22c0.14,4.07-3.05,7.49-7.12,7.63
		c-4.07,0.14-7.49-3.05-7.63-7.12c-0.01-0.17-0.01-0.34,0-0.5v-15.21c-3.38-1.74-5.5-5.21-5.52-9.01v-13.7
		c0.02-5.58,4.55-10.09,10.12-10.11h5.52C165.02,605.73,169.54,610.25,169.57,615.83z"/>
	<circle class="st2" cx="156.68" cy="689.38" r="8.09"/>
	<path class="st2" d="M169.57,709.33v13.7c-0.01,3.79-2.13,7.26-5.51,9v15.22c0.14,4.07-3.05,7.49-7.12,7.63
		c-4.07,0.14-7.49-3.05-7.63-7.12c-0.01-0.17-0.01-0.34,0-0.5v-15.21c-3.38-1.74-5.5-5.21-5.52-9.01v-13.7
		c0.02-5.58,4.55-10.09,10.12-10.11h5.52C165.02,699.24,169.54,703.75,169.57,709.33z"/>
	<circle class="st2" cx="156.68" cy="782.88" r="8.09"/>
	<path class="st2" d="M169.57,802.83v13.7c-0.01,3.79-2.13,7.26-5.51,9v15.22c0.14,4.07-3.05,7.49-7.12,7.63
		c-4.07,0.14-7.49-3.05-7.63-7.12c-0.01-0.17-0.01-0.34,0-0.5v-15.21c-3.38-1.74-5.5-5.21-5.52-9.01v-13.7
		c0.02-5.58,4.55-10.09,10.12-10.11h5.52C165.02,792.74,169.54,797.25,169.57,802.83z"/>
	<circle class="st2" cx="156.68" cy="876.38" r="8.09"/>
	<path class="st2" d="M169.57,896.33v13.7c-0.01,3.79-2.13,7.26-5.51,9v15.22c0.14,4.07-3.05,7.49-7.12,7.63
		c-4.07,0.14-7.49-3.05-7.63-7.12c-0.01-0.17-0.01-0.34,0-0.5v-15.21c-3.38-1.74-5.5-5.21-5.52-9.01v-13.7
		c0.02-5.58,4.55-10.09,10.12-10.11h5.52C165.02,886.24,169.54,890.75,169.57,896.33z"/>
</g>
<g>
	<circle class="st1" cx="253.68" cy="34.88" r="8.09"/>
	<path class="st1" d="M266.57,54.82v13.7c-0.01,3.79-2.13,7.26-5.51,9v15.22c0.14,4.07-3.05,7.49-7.12,7.63
		c-4.07,0.14-7.49-3.05-7.63-7.12c-0.01-0.17-0.01-0.34,0-0.5V77.53c-3.38-1.74-5.5-5.21-5.52-9.01v-13.7
		c0.02-5.58,4.55-10.09,10.12-10.11h5.52C262.02,44.73,266.55,49.24,266.57,54.82z"/>
	<circle class="st1" cx="253.68" cy="128.38" r="8.09"/>
	<path class="st1" d="M266.57,148.32v13.7c-0.01,3.79-2.13,7.26-5.51,9v15.22c0.14,4.07-3.05,7.49-7.12,7.63
		c-4.07,0.14-7.49-3.05-7.63-7.12c-0.01-0.17-0.01-0.34,0-0.5v-15.21c-3.38-1.74-5.5-5.21-5.52-9.01v-13.7
		c0.02-5.58,4.55-10.09,10.12-10.11h5.52C262.02,138.23,266.55,142.74,266.57,148.32z"/>
	<circle class="st1" cx="253.68" cy="221.88" r="8.09"/>
	<path class="st1" d="M266.57,241.82v13.7c-0.01,3.79-2.13,7.26-5.51,9v15.22c0.14,4.07-3.05,7.49-7.12,7.63
		c-4.07,0.14-7.49-3.05-7.63-7.12c-0.01-0.17-0.01-0.34,0-0.5v-15.21c-3.38-1.74-5.5-5.21-5.52-9.01v-13.7
		c0.02-5.58,4.55-10.09,10.12-10.11h5.52C262.02,231.73,266.55,236.25,266.57,241.82z"/>
	<circle class="st1" cx="253.68" cy="315.38" r="8.09"/>
	<path class="st1" d="M266.57,335.32v13.7c-0.01,3.79-2.13,7.26-5.51,9v15.22c0.14,4.07-3.05,7.49-7.12,7.63
		c-4.07,0.14-7.49-3.05-7.63-7.12c-0.01-0.17-0.01-0.34,0-0.5v-15.21c-3.38-1.74-5.5-5.21-5.52-9.01v-13.7
		c0.02-5.58,4.55-10.09,10.12-10.11h5.52C262.02,325.23,266.55,329.75,266.57,335.32z"/>
	<circle class="st1" cx="253.68" cy="408.88" r="8.09"/>
	<path class="st1" d="M266.57,428.83v13.7c-0.01,3.79-2.13,7.26-5.51,9v15.22c0.14,4.07-3.05,7.49-7.12,7.63
		c-4.07,0.14-7.49-3.05-7.63-7.12c-0.01-0.17-0.01-0.34,0-0.5v-15.21c-3.38-1.74-5.5-5.21-5.52-9.01v-13.7
		c0.02-5.58,4.55-10.09,10.12-10.11h5.52C262.02,418.73,266.55,423.25,266.57,428.83z"/>
	<circle class="st2" cx="253.68" cy="502.38" r="8.09"/>
	<path class="st2" d="M266.57,522.33v13.7c-0.01,3.79-2.13,7.26-5.51,9v15.22c0.14,4.07-3.05,7.49-7.12,7.63
		c-4.07,0.14-7.49-3.05-7.63-7.12c-0.01-0.17-0.01-0.34,0-0.5v-15.21c-3.38-1.74-5.5-5.21-5.52-9.01v-13.7
		c0.02-5.58,4.55-10.09,10.12-10.11h5.52C262.02,512.23,266.55,516.75,266.57,522.33z"/>
	<circle class="st2" cx="253.68" cy="595.88" r="8.09"/>
	<path class="st2" d="M266.57,615.83v13.7c-0.01,3.79-2.13,7.26-5.51,9v15.22c0.14,4.07-3.05,7.49-7.12,7.63
		c-4.07,0.14-7.49-3.05-7.63-7.12c-0.01-0.17-0.01-0.34,0-0.5v-15.21c-3.38-1.74-5.5-5.21-5.52-9.01v-13.7
		c0.02-5.58,4.55-10.09,10.12-10.11h5.52C262.02,605.73,266.55,610.25,266.57,615.83z"/>
	<circle class="st2" cx="253.68" cy="689.38" r="8.09"/>
	<path class="st2" d="M266.57,709.33v13.7c-0.01,3.79-2.13,7.26-5.51,9v15.22c0.14,4.07-3.05,7.49-7.12,7.63
		c-4.07,0.14-7.49-3.05-7.63-7.12c-0.01-0.17-0.01-0.34,0-0.5v-15.21c-3.38-1.74-5.5-5.21-5.52-9.01v-13.7
		c0.02-5.58,4.55-10.09,10.12-10.11h5.52C262.02,699.24,266.55,703.75,266.57,709.33z"/>
	<circle class="st2" cx="253.68" cy="782.88" r="8.09"/>
	<path class="st2" d="M266.57,802.83v13.7c-0.01,3.79-2.13,7.26-5.51,9v15.22c0.14,4.07-3.05,7.49-7.12,7.63
		c-4.07,0.14-7.49-3.05-7.63-7.12c-0.01-0.17-0.01-0.34,0-0.5v-15.21c-3.38-1.74-5.5-5.21-5.52-9.01v-13.7
		c0.02-5.58,4.55-10.09,10.12-10.11h5.52C262.02,792.74,266.55,797.25,266.57,802.83z"/>
	<circle class="st2" cx="253.68" cy="876.38" r="8.09"/>
	<path class="st2" d="M266.57,896.33v13.7c-0.01,3.79-2.13,7.26-5.51,9v15.22c0.14,4.07-3.05,7.49-7.12,7.63
		c-4.07,0.14-7.49-3.05-7.63-7.12c-0.01-0.17-0.01-0.34,0-0.5v-15.21c-3.38-1.74-5.5-5.21-5.52-9.01v-13.7
		c0.02-5.58,4.55-10.09,10.12-10.11h5.52C262.02,886.24,266.55,890.75,266.57,896.33z"/>
</g>
<g>
	<circle class="st1" cx="350.69" cy="34.88" r="8.09"/>
	<path class="st1" d="M363.57,54.82v13.7c-0.01,3.79-2.13,7.26-5.51,9v15.22c0.14,4.07-3.05,7.49-7.12,7.63
		c-4.07,0.14-7.49-3.05-7.63-7.12c-0.01-0.17-0.01-0.34,0-0.5V77.53c-3.38-1.74-5.5-5.21-5.52-9.01v-13.7
		c0.02-5.58,4.55-10.09,10.12-10.11h5.52C359.03,44.73,363.55,49.24,363.57,54.82z"/>
	<circle class="st1" cx="350.69" cy="128.38" r="8.09"/>
	<path class="st1" d="M363.57,148.32v13.7c-0.01,3.79-2.13,7.26-5.51,9v15.22c0.14,4.07-3.05,7.49-7.12,7.63
		c-4.07,0.14-7.49-3.05-7.63-7.12c-0.01-0.17-0.01-0.34,0-0.5v-15.21c-3.38-1.74-5.5-5.21-5.52-9.01v-13.7
		c0.02-5.58,4.55-10.09,10.12-10.11h5.52C359.03,138.23,363.55,142.74,363.57,148.32z"/>
	<circle class="st1" cx="350.69" cy="221.88" r="8.09"/>
	<path class="st1" d="M363.57,241.82v13.7c-0.01,3.79-2.13,7.26-5.51,9v15.22c0.14,4.07-3.05,7.49-7.12,7.63
		c-4.07,0.14-7.49-3.05-7.63-7.12c-0.01-0.17-0.01-0.34,0-0.5v-15.21c-3.38-1.74-5.5-5.21-5.52-9.01v-13.7
		c0.02-5.58,4.55-10.09,10.12-10.11h5.52C359.03,231.73,363.55,236.25,363.57,241.82z"/>
	<circle class="st1" cx="350.69" cy="315.38" r="8.09"/>
	<path class="st1" d="M363.57,335.32v13.7c-0.01,3.79-2.13,7.26-5.51,9v15.22c0.14,4.07-3.05,7.49-7.12,7.63
		c-4.07,0.14-7.49-3.05-7.63-7.12c-0.01-0.17-0.01-0.34,0-0.5v-15.21c-3.38-1.74-5.5-5.21-5.52-9.01v-13.7
		c0.02-5.58,4.55-10.09,10.12-10.11h5.52C359.03,325.23,363.55,329.75,363.57,335.32z"/>
	<circle class="st2" cx="350.69" cy="408.88" r="8.09"/>
	<path class="st2" d="M363.57,428.83v13.7c-0.01,3.79-2.13,7.26-5.51,9v15.22c0.14,4.07-3.05,7.49-7.12,7.63
		c-4.07,0.14-7.49-3.05-7.63-7.12c-0.01-0.17-0.01-0.34,0-0.5v-15.21c-3.38-1.74-5.5-5.21-5.52-9.01v-13.7
		c0.02-5.58,4.55-10.09,10.12-10.11h5.52C359.03,418.73,363.55,423.25,363.57,428.83z"/>
	<circle class="st2" cx="350.69" cy="502.38" r="8.09"/>
	<path class="st2" d="M363.57,522.33v13.7c-0.01,3.79-2.13,7.26-5.51,9v15.22c0.14,4.07-3.05,7.49-7.12,7.63
		c-4.07,0.14-7.49-3.05-7.63-7.12c-0.01-0.17-0.01-0.34,0-0.5v-15.21c-3.38-1.74-5.5-5.21-5.52-9.01v-13.7
		c0.02-5.58,4.55-10.09,10.12-10.11h5.52C359.03,512.23,363.55,516.75,363.57,522.33z"/>
	<circle class="st2" cx="350.69" cy="595.88" r="8.09"/>
	<path class="st2" d="M363.57,615.83v13.7c-0.01,3.79-2.13,7.26-5.51,9v15.22c0.14,4.07-3.05,7.49-7.12,7.63
		c-4.07,0.14-7.49-3.05-7.63-7.12c-0.01-0.17-0.01-0.34,0-0.5v-15.21c-3.38-1.74-5.5-5.21-5.52-9.01v-13.7
		c0.02-5.58,4.55-10.09,10.12-10.11h5.52C359.03,605.73,363.55,610.25,363.57,615.83z"/>
	<circle class="st2" cx="350.69" cy="689.38" r="8.09"/>
	<path class="st2" d="M363.57,709.33v13.7c-0.01,3.79-2.13,7.26-5.51,9v15.22c0.14,4.07-3.05,7.49-7.12,7.63
		c-4.07,0.14-7.49-3.05-7.63-7.12c-0.01-0.17-0.01-0.34,0-0.5v-15.21c-3.38-1.74-5.5-5.21-5.52-9.01v-13.7
		c0.02-5.58,4.55-10.09,10.12-10.11h5.52C359.03,699.24,363.55,703.75,363.57,709.33z"/>
	<circle class="st2" cx="350.69" cy="782.88" r="8.09"/>
	<path class="st2" d="M363.57,802.83v13.7c-0.01,3.79-2.13,7.26-5.51,9v15.22c0.14,4.07-3.05,7.49-7.12,7.63
		c-4.07,0.14-7.49-3.05-7.63-7.12c-0.01-0.17-0.01-0.34,0-0.5v-15.21c-3.38-1.74-5.5-5.21-5.52-9.01v-13.7
		c0.02-5.58,4.55-10.09,10.12-10.11h5.52C359.03,792.74,363.55,797.25,363.57,802.83z"/>
	<circle class="st2" cx="350.69" cy="876.38" r="8.09"/>
	<path class="st2" d="M363.57,896.33v13.7c-0.01,3.79-2.13,7.26-5.51,9v15.22c0.14,4.07-3.05,7.49-7.12,7.63
		c-4.07,0.14-7.49-3.05-7.63-7.12c-0.01-0.17-0.01-0.34,0-0.5v-15.21c-3.38-1.74-5.5-5.21-5.52-9.01v-13.7
		c0.02-5.58,4.55-10.09,10.12-10.11h5.52C359.03,886.24,363.55,890.75,363.57,896.33z"/>
</g>
<g>
	<circle class="st1" cx="447.69" cy="34.88" r="8.09"/>
	<path class="st1" d="M460.58,54.82v13.7c-0.01,3.79-2.13,7.26-5.51,9v15.22c0.14,4.07-3.05,7.49-7.12,7.63
		c-4.07,0.14-7.49-3.05-7.63-7.12c-0.01-0.17-0.01-0.34,0-0.5V77.53c-3.38-1.74-5.5-5.21-5.52-9.01v-13.7
		c0.02-5.58,4.55-10.09,10.12-10.11h5.52C456.03,44.73,460.55,49.24,460.58,54.82z"/>
	<circle class="st1" cx="447.69" cy="128.38" r="8.09"/>
	<path class="st1" d="M460.58,148.32v13.7c-0.01,3.79-2.13,7.26-5.51,9v15.22c0.14,4.07-3.05,7.49-7.12,7.63
		c-4.07,0.14-7.49-3.05-7.63-7.12c-0.01-0.17-0.01-0.34,0-0.5v-15.21c-3.38-1.74-5.5-5.21-5.52-9.01v-13.7
		c0.02-5.58,4.55-10.09,10.12-10.11h5.52C456.03,138.23,460.55,142.74,460.58,148.32z"/>
	<circle class="st1" cx="447.69" cy="221.88" r="8.09"/>
	<path class="st1" d="M460.58,241.82v13.7c-0.01,3.79-2.13,7.26-5.51,9v15.22c0.14,4.07-3.05,7.49-7.12,7.63
		c-4.07,0.14-7.49-3.05-7.63-7.12c-0.01-0.17-0.01-0.34,0-0.5v-15.21c-3.38-1.74-5.5-5.21-5.52-9.01v-13.7
		c0.02-5.58,4.55-10.09,10.12-10.11h5.52C456.03,231.73,460.55,236.25,460.58,241.82z"/>
	<circle class="st1" cx="447.69" cy="315.38" r="8.09"/>
	<path class="st1" d="M460.58,335.32v13.7c-0.01,3.79-2.13,7.26-5.51,9v15.22c0.14,4.07-3.05,7.49-7.12,7.63
		c-4.07,0.14-7.49-3.05-7.63-7.12c-0.01-0.17-0.01-0.34,0-0.5v-15.21c-3.38-1.74-5.5-5.21-5.52-9.01v-13.7
		c0.02-5.58,4.55-10.09,10.12-10.11h5.52C456.03,325.23,460.55,329.75,460.58,335.32z"/>
	<circle class="st2" cx="447.69" cy="408.88" r="8.09"/>
	<path class="st2" d="M460.58,428.83v13.7c-0.01,3.79-2.13,7.26-5.51,9v15.22c0.14,4.07-3.05,7.49-7.12,7.63
		c-4.07,0.14-7.49-3.05-7.63-7.12c-0.01-0.17-0.01-0.34,0-0.5v-15.21c-3.38-1.74-5.5-5.21-5.52-9.01v-13.7
		c0.02-5.58,4.55-10.09,10.12-10.11h5.52C456.03,418.73,460.55,423.25,460.58,428.83z"/>
	<circle class="st2" cx="447.69" cy="502.38" r="8.09"/>
	<path class="st2" d="M460.58,522.33v13.7c-0.01,3.79-2.13,7.26-5.51,9v15.22c0.14,4.07-3.05,7.49-7.12,7.63
		c-4.07,0.14-7.49-3.05-7.63-7.12c-0.01-0.17-0.01-0.34,0-0.5v-15.21c-3.38-1.74-5.5-5.21-5.52-9.01v-13.7
		c0.02-5.58,4.55-10.09,10.12-10.11h5.52C456.03,512.23,460.55,516.75,460.58,522.33z"/>
	<circle class="st2" cx="447.69" cy="595.88" r="8.09"/>
	<path class="st2" d="M460.58,615.83v13.7c-0.01,3.79-2.13,7.26-5.51,9v15.22c0.14,4.07-3.05,7.49-7.12,7.63
		c-4.07,0.14-7.49-3.05-7.63-7.12c-0.01-0.17-0.01-0.34,0-0.5v-15.21c-3.38-1.74-5.5-5.21-5.52-9.01v-13.7
		c0.02-5.58,4.55-10.09,10.12-10.11h5.52C456.03,605.73,460.55,610.25,460.58,615.83z"/>
	<circle class="st2" cx="447.69" cy="689.38" r="8.09"/>
	<path class="st2" d="M460.58,709.33v13.7c-0.01,3.79-2.13,7.26-5.51,9v15.22c0.14,4.07-3.05,7.49-7.12,7.63
		c-4.07,0.14-7.49-3.05-7.63-7.12c-0.01-0.17-0.01-0.34,0-0.5v-15.21c-3.38-1.74-5.5-5.21-5.52-9.01v-13.7
		c0.02-5.58,4.55-10.09,10.12-10.11h5.52C456.03,699.24,460.55,703.75,460.58,709.33z"/>
	<circle class="st2" cx="447.69" cy="782.88" r="8.09"/>
	<path class="st2" d="M460.58,802.83v13.7c-0.01,3.79-2.13,7.26-5.51,9v15.22c0.14,4.07-3.05,7.49-7.12,7.63
		c-4.07,0.14-7.49-3.05-7.63-7.12c-0.01-0.17-0.01-0.34,0-0.5v-15.21c-3.38-1.74-5.5-5.21-5.52-9.01v-13.7
		c0.02-5.58,4.55-10.09,10.12-10.11h5.52C456.03,792.74,460.55,797.25,460.58,802.83z"/>
	<circle class="st2" cx="447.69" cy="876.38" r="8.09"/>
	<path class="st2" d="M460.58,896.33v13.7c-0.01,3.79-2.13,7.26-5.51,9v15.22c0.14,4.07-3.05,7.49-7.12,7.63
		c-4.07,0.14-7.49-3.05-7.63-7.12c-0.01-0.17-0.01-0.34,0-0.5v-15.21c-3.38-1.74-5.5-5.21-5.52-9.01v-13.7
		c0.02-5.58,4.55-10.09,10.12-10.11h5.52C456.03,886.24,460.55,890.75,460.58,896.33z"/>
</g>
<g>
	<circle class="st1" cx="544.69" cy="34.88" r="8.09"/>
	<path class="st1" d="M557.58,54.82v13.7c-0.01,3.79-2.13,7.26-5.51,9v15.22c0.14,4.07-3.05,7.49-7.12,7.63s-7.49-3.05-7.63-7.12
		c-0.01-0.17-0.01-0.34,0-0.5V77.53c-3.38-1.74-5.5-5.21-5.52-9.01v-13.7c0.02-5.58,4.55-10.09,10.12-10.11h5.52
		C553.04,44.73,557.56,49.24,557.58,54.82z"/>
	<circle class="st1" cx="544.69" cy="128.38" r="8.09"/>
	<path class="st1" d="M557.58,148.32v13.7c-0.01,3.79-2.13,7.26-5.51,9v15.22c0.14,4.07-3.05,7.49-7.12,7.63
		c-4.07,0.14-7.49-3.05-7.63-7.12c-0.01-0.17-0.01-0.34,0-0.5v-15.21c-3.38-1.74-5.5-5.21-5.52-9.01v-13.7
		c0.02-5.58,4.55-10.09,10.12-10.11h5.52C553.04,138.23,557.56,142.74,557.58,148.32z"/>
	<circle class="st1" cx="544.69" cy="221.88" r="8.09"/>
	<path class="st1" d="M557.58,241.82v13.7c-0.01,3.79-2.13,7.26-5.51,9v15.22c0.14,4.07-3.05,7.49-7.12,7.63
		c-4.07,0.14-7.49-3.05-7.63-7.12c-0.01-0.17-0.01-0.34,0-0.5v-15.21c-3.38-1.74-5.5-5.21-5.52-9.01v-13.7
		c0.02-5.58,4.55-10.09,10.12-10.11h5.52C553.04,231.73,557.56,236.25,557.58,241.82z"/>
	<circle class="st1" cx="544.69" cy="315.38" r="8.09"/>
	<path class="st1" d="M557.58,335.32v13.7c-0.01,3.79-2.13,7.26-5.51,9v15.22c0.14,4.07-3.05,7.49-7.12,7.63
		c-4.07,0.14-7.49-3.05-7.63-7.12c-0.01-0.17-0.01-0.34,0-0.5v-15.21c-3.38-1.74-5.5-5.21-5.52-9.01v-13.7
		c0.02-5.58,4.55-10.09,10.12-10.11h5.52C553.04,325.23,557.56,329.75,557.58,335.32z"/>
	<circle class="st2" cx="544.69" cy="408.88" r="8.09"/>
	<path class="st2" d="M557.58,428.83v13.7c-0.01,3.79-2.13,7.26-5.51,9v15.22c0.14,4.07-3.05,7.49-7.12,7.63
		c-4.07,0.14-7.49-3.05-7.63-7.12c-0.01-0.17-0.01-0.34,0-0.5v-15.21c-3.38-1.74-5.5-5.21-5.52-9.01v-13.7
		c0.02-5.58,4.55-10.09,10.12-10.11h5.52C553.04,418.73,557.56,423.25,557.58,428.83z"/>
	<circle class="st2" cx="544.69" cy="502.38" r="8.09"/>
	<path class="st2" d="M557.58,522.33v13.7c-0.01,3.79-2.13,7.26-5.51,9v15.22c0.14,4.07-3.05,7.49-7.12,7.63
		c-4.07,0.14-7.49-3.05-7.63-7.12c-0.01-0.17-0.01-0.34,0-0.5v-15.21c-3.38-1.74-5.5-5.21-5.52-9.01v-13.7
		c0.02-5.58,4.55-10.09,10.12-10.11h5.52C553.04,512.23,557.56,516.75,557.58,522.33z"/>
	<circle class="st2" cx="544.69" cy="595.88" r="8.09"/>
	<path class="st2" d="M557.58,615.83v13.7c-0.01,3.79-2.13,7.26-5.51,9v15.22c0.14,4.07-3.05,7.49-7.12,7.63s-7.49-3.05-7.63-7.12
		c-0.01-0.17-0.01-0.34,0-0.5v-15.21c-3.38-1.74-5.5-5.21-5.52-9.01v-13.7c0.02-5.58,4.55-10.09,10.12-10.11h5.52
		C553.04,605.73,557.56,610.25,557.58,615.83z"/>
	<circle class="st2" cx="544.69" cy="689.38" r="8.09"/>
	<path class="st2" d="M557.58,709.33v13.7c-0.01,3.79-2.13,7.26-5.51,9v15.22c0.14,4.07-3.05,7.49-7.12,7.63
		c-4.07,0.14-7.49-3.05-7.63-7.12c-0.01-0.17-0.01-0.34,0-0.5v-15.21c-3.38-1.74-5.5-5.21-5.52-9.01v-13.7
		c0.02-5.58,4.55-10.09,10.12-10.11h5.52C553.04,699.24,557.56,703.75,557.58,709.33z"/>
	<circle class="st2" cx="544.69" cy="782.88" r="8.09"/>
	<path class="st2" d="M557.58,802.83v13.7c-0.01,3.79-2.13,7.26-5.51,9v15.22c0.14,4.07-3.05,7.49-7.12,7.63s-7.49-3.05-7.63-7.12
		c-0.01-0.17-0.01-0.34,0-0.5v-15.21c-3.38-1.74-5.5-5.21-5.52-9.01v-13.7c0.02-5.58,4.55-10.09,10.12-10.11h5.52
		C553.04,792.74,557.56,797.25,557.58,802.83z"/>
	<circle class="st2" cx="544.69" cy="876.38" r="8.09"/>
	<path class="st2" d="M557.58,896.33v13.7c-0.01,3.79-2.13,7.26-5.51,9v15.22c0.14,4.07-3.05,7.49-7.12,7.63
		c-4.07,0.14-7.49-3.05-7.63-7.12c-0.01-0.17-0.01-0.34,0-0.5v-15.21c-3.38-1.74-5.5-5.21-5.52-9.01v-13.7
		c0.02-5.58,4.55-10.09,10.12-10.11h5.52C553.04,886.24,557.56,890.75,557.58,896.33z"/>
</g>
<g>
	<circle class="st1" cx="641.7" cy="34.88" r="8.09"/>
	<path class="st1" d="M654.58,54.82v13.7c-0.01,3.79-2.13,7.26-5.51,9v15.22c0.14,4.07-3.05,7.49-7.12,7.63
		c-4.07,0.14-7.49-3.05-7.63-7.12c-0.01-0.17-0.01-0.34,0-0.5V77.53c-3.38-1.74-5.5-5.21-5.52-9.01v-13.7
		c0.02-5.58,4.55-10.09,10.12-10.11h5.52C650.04,44.73,654.56,49.24,654.58,54.82z"/>
	<circle class="st1" cx="641.7" cy="128.38" r="8.09"/>
	<path class="st1" d="M654.58,148.32v13.7c-0.01,3.79-2.13,7.26-5.51,9v15.22c0.14,4.07-3.05,7.49-7.12,7.63
		c-4.07,0.14-7.49-3.05-7.63-7.12c-0.01-0.17-0.01-0.34,0-0.5v-15.21c-3.38-1.74-5.5-5.21-5.52-9.01v-13.7
		c0.02-5.58,4.55-10.09,10.12-10.11h5.52C650.04,138.23,654.56,142.74,654.58,148.32z"/>
	<circle class="st1" cx="641.7" cy="221.88" r="8.09"/>
	<path class="st1" d="M654.58,241.82v13.7c-0.01,3.79-2.13,7.26-5.51,9v15.22c0.14,4.07-3.05,7.49-7.12,7.63
		c-4.07,0.14-7.49-3.05-7.63-7.12c-0.01-0.17-0.01-0.34,0-0.5v-15.21c-3.38-1.74-5.5-5.21-5.52-9.01v-13.7
		c0.02-5.58,4.55-10.09,10.12-10.11h5.52C650.04,231.73,654.56,236.25,654.58,241.82z"/>
	<circle class="st1" cx="641.7" cy="315.38" r="8.09"/>
	<path class="st1" d="M654.58,335.32v13.7c-0.01,3.79-2.13,7.26-5.51,9v15.22c0.14,4.07-3.05,7.49-7.12,7.63
		c-4.07,0.14-7.49-3.05-7.63-7.12c-0.01-0.17-0.01-0.34,0-0.5v-15.21c-3.38-1.74-5.5-5.21-5.52-9.01v-13.7
		c0.02-5.58,4.55-10.09,10.12-10.11h5.52C650.04,325.23,654.56,329.75,654.58,335.32z"/>
	<circle class="st2" cx="641.7" cy="408.88" r="8.09"/>
	<path class="st2" d="M654.58,428.83v13.7c-0.01,3.79-2.13,7.26-5.51,9v15.22c0.14,4.07-3.05,7.49-7.12,7.63
		c-4.07,0.14-7.49-3.05-7.63-7.12c-0.01-0.17-0.01-0.34,0-0.5v-15.21c-3.38-1.74-5.5-5.21-5.52-9.01v-13.7
		c0.02-5.58,4.55-10.09,10.12-10.11h5.52C650.04,418.73,654.56,423.25,654.58,428.83z"/>
	<circle class="st2" cx="641.7" cy="502.38" r="8.09"/>
	<path class="st2" d="M654.58,522.33v13.7c-0.01,3.79-2.13,7.26-5.51,9v15.22c0.14,4.07-3.05,7.49-7.12,7.63
		c-4.07,0.14-7.49-3.05-7.63-7.12c-0.01-0.17-0.01-0.34,0-0.5v-15.21c-3.38-1.74-5.5-5.21-5.52-9.01v-13.7
		c0.02-5.58,4.55-10.09,10.12-10.11h5.52C650.04,512.23,654.56,516.75,654.58,522.33z"/>
	<circle class="st2" cx="641.7" cy="595.88" r="8.09"/>
	<path class="st2" d="M654.58,615.83v13.7c-0.01,3.79-2.13,7.26-5.51,9v15.22c0.14,4.07-3.05,7.49-7.12,7.63
		c-4.07,0.14-7.49-3.05-7.63-7.12c-0.01-0.17-0.01-0.34,0-0.5v-15.21c-3.38-1.74-5.5-5.21-5.52-9.01v-13.7
		c0.02-5.58,4.55-10.09,10.12-10.11h5.52C650.04,605.73,654.56,610.25,654.58,615.83z"/>
	<circle class="st2" cx="641.7" cy="689.38" r="8.09"/>
	<path class="st2" d="M654.58,709.33v13.7c-0.01,3.79-2.13,7.26-5.51,9v15.22c0.14,4.07-3.05,7.49-7.12,7.63
		c-4.07,0.14-7.49-3.05-7.63-7.12c-0.01-0.17-0.01-0.34,0-0.5v-15.21c-3.38-1.74-5.5-5.21-5.52-9.01v-13.7
		c0.02-5.58,4.55-10.09,10.12-10.11h5.52C650.04,699.24,654.56,703.75,654.58,709.33z"/>
	<circle class="st2" cx="641.7" cy="782.88" r="8.09"/>
	<path class="st2" d="M654.58,802.83v13.7c-0.01,3.79-2.13,7.26-5.51,9v15.22c0.14,4.07-3.05,7.49-7.12,7.63
		c-4.07,0.14-7.49-3.05-7.63-7.12c-0.01-0.17-0.01-0.34,0-0.5v-15.21c-3.38-1.74-5.5-5.21-5.52-9.01v-13.7
		c0.02-5.58,4.55-10.09,10.12-10.11h5.52C650.04,792.74,654.56,797.25,654.58,802.83z"/>
	<circle class="st2" cx="641.7" cy="876.38" r="8.09"/>
	<path class="st2" d="M654.58,896.33v13.7c-0.01,3.79-2.13,7.26-5.51,9v15.22c0.14,4.07-3.05,7.49-7.12,7.63
		c-4.07,0.14-7.49-3.05-7.63-7.12c-0.01-0.17-0.01-0.34,0-0.5v-15.21c-3.38-1.74-5.5-5.21-5.52-9.01v-13.7
		c0.02-5.58,4.55-10.09,10.12-10.11h5.52C650.04,886.24,654.56,890.75,654.58,896.33z"/>
</g>
<g>
	<circle class="st1" cx="738.7" cy="34.88" r="8.09"/>
	<path class="st1" d="M751.59,54.82v13.7c-0.01,3.79-2.13,7.26-5.51,9v15.22c0.14,4.07-3.05,7.49-7.12,7.63s-7.49-3.05-7.63-7.12
		c-0.01-0.17-0.01-0.34,0-0.5V77.53c-3.38-1.74-5.5-5.21-5.52-9.01v-13.7c0.02-5.58,4.55-10.09,10.12-10.11h5.52
		C747.04,44.73,751.56,49.24,751.59,54.82z"/>
	<circle class="st1" cx="738.7" cy="128.38" r="8.09"/>
	<path class="st1" d="M751.59,148.32v13.7c-0.01,3.79-2.13,7.26-5.51,9v15.22c0.14,4.07-3.05,7.49-7.12,7.63
		c-4.07,0.14-7.49-3.05-7.63-7.12c-0.01-0.17-0.01-0.34,0-0.5v-15.21c-3.38-1.74-5.5-5.21-5.52-9.01v-13.7
		c0.02-5.58,4.55-10.09,10.12-10.11h5.52C747.04,138.23,751.56,142.74,751.59,148.32z"/>
	<circle class="st1" cx="738.7" cy="221.88" r="8.09"/>
	<path class="st1" d="M751.59,241.82v13.7c-0.01,3.79-2.13,7.26-5.51,9v15.22c0.14,4.07-3.05,7.49-7.12,7.63
		c-4.07,0.14-7.49-3.05-7.63-7.12c-0.01-0.17-0.01-0.34,0-0.5v-15.21c-3.38-1.74-5.5-5.21-5.52-9.01v-13.7
		c0.02-5.58,4.55-10.09,10.12-10.11h5.52C747.04,231.73,751.56,236.25,751.59,241.82z"/>
	<circle class="st1" cx="738.7" cy="315.38" r="8.09"/>
	<path class="st1" d="M751.59,335.32v13.7c-0.01,3.79-2.13,7.26-5.51,9v15.22c0.14,4.07-3.05,7.49-7.12,7.63
		c-4.07,0.14-7.49-3.05-7.63-7.12c-0.01-0.17-0.01-0.34,0-0.5v-15.21c-3.38-1.74-5.5-5.21-5.52-9.01v-13.7
		c0.02-5.58,4.55-10.09,10.12-10.11h5.52C747.04,325.23,751.56,329.75,751.59,335.32z"/>
	<circle class="st2" cx="738.7" cy="408.88" r="8.09"/>
	<path class="st2" d="M751.59,428.83v13.7c-0.01,3.79-2.13,7.26-5.51,9v15.22c0.14,4.07-3.05,7.49-7.12,7.63
		c-4.07,0.14-7.49-3.05-7.63-7.12c-0.01-0.17-0.01-0.34,0-0.5v-15.21c-3.38-1.74-5.5-5.21-5.52-9.01v-13.7
		c0.02-5.58,4.55-10.09,10.12-10.11h5.52C747.04,418.73,751.56,423.25,751.59,428.83z"/>
	<circle class="st2" cx="738.7" cy="502.38" r="8.09"/>
	<path class="st2" d="M751.59,522.33v13.7c-0.01,3.79-2.13,7.26-5.51,9v15.22c0.14,4.07-3.05,7.49-7.12,7.63
		c-4.07,0.14-7.49-3.05-7.63-7.12c-0.01-0.17-0.01-0.34,0-0.5v-15.21c-3.38-1.74-5.5-5.21-5.52-9.01v-13.7
		c0.02-5.58,4.55-10.09,10.12-10.11h5.52C747.04,512.23,751.56,516.75,751.59,522.33z"/>
	<circle class="st2" cx="738.7" cy="595.88" r="8.09"/>
	<path class="st2" d="M751.59,615.83v13.7c-0.01,3.79-2.13,7.26-5.51,9v15.22c0.14,4.07-3.05,7.49-7.12,7.63s-7.49-3.05-7.63-7.12
		c-0.01-0.17-0.01-0.34,0-0.5v-15.21c-3.38-1.74-5.5-5.21-5.52-9.01v-13.7c0.02-5.58,4.55-10.09,10.12-10.11h5.52
		C747.04,605.73,751.56,610.25,751.59,615.83z"/>
	<circle class="st2" cx="738.7" cy="689.38" r="8.09"/>
	<path class="st2" d="M751.59,709.33v13.7c-0.01,3.79-2.13,7.26-5.51,9v15.22c0.14,4.07-3.05,7.49-7.12,7.63
		c-4.07,0.14-7.49-3.05-7.63-7.12c-0.01-0.17-0.01-0.34,0-0.5v-15.21c-3.38-1.74-5.5-5.21-5.52-9.01v-13.7
		c0.02-5.58,4.55-10.09,10.12-10.11h5.52C747.04,699.24,751.56,703.75,751.59,709.33z"/>
	<circle class="st2" cx="738.7" cy="782.88" r="8.09"/>
	<path class="st2" d="M751.59,802.83v13.7c-0.01,3.79-2.13,7.26-5.51,9v15.22c0.14,4.07-3.05,7.49-7.12,7.63s-7.49-3.05-7.63-7.12
		c-0.01-0.17-0.01-0.34,0-0.5v-15.21c-3.38-1.74-5.5-5.21-5.52-9.01v-13.7c0.02-5.58,4.55-10.09,10.12-10.11h5.52
		C747.04,792.74,751.56,797.25,751.59,802.83z"/>
	<circle class="st2" cx="738.7" cy="876.38" r="8.09"/>
	<path class="st2" d="M751.59,896.33v13.7c-0.01,3.79-2.13,7.26-5.51,9v15.22c0.14,4.07-3.05,7.49-7.12,7.63
		c-4.07,0.14-7.49-3.05-7.63-7.12c-0.01-0.17-0.01-0.34,0-0.5v-15.21c-3.38-1.74-5.5-5.21-5.52-9.01v-13.7
		c0.02-5.58,4.55-10.09,10.12-10.11h5.52C747.04,886.24,751.56,890.75,751.59,896.33z"/>
</g>
<g>
	<circle class="st1" cx="835.71" cy="34.88" r="8.09"/>
	<path class="st1" d="M848.59,54.82v13.7c-0.01,3.79-2.13,7.26-5.51,9v15.22c0.14,4.07-3.05,7.49-7.12,7.63s-7.49-3.05-7.63-7.12
		c-0.01-0.17-0.01-0.34,0-0.5V77.53c-3.38-1.74-5.5-5.21-5.52-9.01v-13.7c0.02-5.58,4.55-10.09,10.12-10.11h5.52
		C844.05,44.73,848.57,49.24,848.59,54.82z"/>
	<circle class="st1" cx="835.71" cy="128.38" r="8.09"/>
	<path class="st1" d="M848.59,148.32v13.7c-0.01,3.79-2.13,7.26-5.51,9v15.22c0.14,4.07-3.05,7.49-7.12,7.63
		c-4.07,0.14-7.49-3.05-7.63-7.12c-0.01-0.17-0.01-0.34,0-0.5v-15.21c-3.38-1.74-5.5-5.21-5.52-9.01v-13.7
		c0.02-5.58,4.55-10.09,10.12-10.11h5.52C844.05,138.23,848.57,142.74,848.59,148.32z"/>
	<circle class="st1" cx="835.71" cy="221.88" r="8.09"/>
	<path class="st1" d="M848.59,241.82v13.7c-0.01,3.79-2.13,7.26-5.51,9v15.22c0.14,4.07-3.05,7.49-7.12,7.63
		c-4.07,0.14-7.49-3.05-7.63-7.12c-0.01-0.17-0.01-0.34,0-0.5v-15.21c-3.38-1.74-5.5-5.21-5.52-9.01v-13.7
		c0.02-5.58,4.55-10.09,10.12-10.11h5.52C844.05,231.73,848.57,236.25,848.59,241.82z"/>
	<circle class="st1" cx="835.71" cy="315.38" r="8.09"/>
	<path class="st1" d="M848.59,335.32v13.7c-0.01,3.79-2.13,7.26-5.51,9v15.22c0.14,4.07-3.05,7.49-7.12,7.63
		c-4.07,0.14-7.49-3.05-7.63-7.12c-0.01-0.17-0.01-0.34,0-0.5v-15.21c-3.38-1.74-5.5-5.21-5.52-9.01v-13.7
		c0.02-5.58,4.55-10.09,10.12-10.11h5.52C844.05,325.23,848.57,329.75,848.59,335.32z"/>
	<circle class="st2" cx="835.71" cy="408.88" r="8.09"/>
	<path class="st2" d="M848.59,428.83v13.7c-0.01,3.79-2.13,7.26-5.51,9v15.22c0.14,4.07-3.05,7.49-7.12,7.63
		c-4.07,0.14-7.49-3.05-7.63-7.12c-0.01-0.17-0.01-0.34,0-0.5v-15.21c-3.38-1.74-5.5-5.21-5.52-9.01v-13.7
		c0.02-5.58,4.55-10.09,10.12-10.11h5.52C844.05,418.73,848.57,423.25,848.59,428.83z"/>
	<circle class="st2" cx="835.71" cy="502.38" r="8.09"/>
	<path class="st2" d="M848.59,522.33v13.7c-0.01,3.79-2.13,7.26-5.51,9v15.22c0.14,4.07-3.05,7.49-7.12,7.63
		c-4.07,0.14-7.49-3.05-7.63-7.12c-0.01-0.17-0.01-0.34,0-0.5v-15.21c-3.38-1.74-5.5-5.21-5.52-9.01v-13.7
		c0.02-5.58,4.55-10.09,10.12-10.11h5.52C844.05,512.23,848.57,516.75,848.59,522.33z"/>
	<circle class="st2" cx="835.71" cy="595.88" r="8.09"/>
	<path class="st2" d="M848.59,615.83v13.7c-0.01,3.79-2.13,7.26-5.51,9v15.22c0.14,4.07-3.05,7.49-7.12,7.63s-7.49-3.05-7.63-7.12
		c-0.01-0.17-0.01-0.34,0-0.5v-15.21c-3.38-1.74-5.5-5.21-5.52-9.01v-13.7c0.02-5.58,4.55-10.09,10.12-10.11h5.52
		C844.05,605.73,848.57,610.25,848.59,615.83z"/>
	<circle class="st2" cx="835.71" cy="689.38" r="8.09"/>
	<path class="st2" d="M848.59,709.33v13.7c-0.01,3.79-2.13,7.26-5.51,9v15.22c0.14,4.07-3.05,7.49-7.12,7.63
		c-4.07,0.14-7.49-3.05-7.63-7.12c-0.01-0.17-0.01-0.34,0-0.5v-15.21c-3.38-1.74-5.5-5.21-5.52-9.01v-13.7
		c0.02-5.58,4.55-10.09,10.12-10.11h5.52C844.05,699.24,848.57,703.75,848.59,709.33z"/>
	<circle class="st2" cx="835.71" cy="782.88" r="8.09"/>
	<path class="st2" d="M848.59,802.83v13.7c-0.01,3.79-2.13,7.26-5.51,9v15.22c0.14,4.07-3.05,7.49-7.12,7.63s-7.49-3.05-7.63-7.12
		c-0.01-0.17-0.01-0.34,0-0.5v-15.21c-3.38-1.74-5.5-5.21-5.52-9.01v-13.7c0.02-5.58,4.55-10.09,10.12-10.11h5.52
		C844.05,792.74,848.57,797.25,848.59,802.83z"/>
	<circle class="st2" cx="835.71" cy="876.38" r="8.09"/>
	<path class="st2" d="M848.59,896.33v13.7c-0.01,3.79-2.13,7.26-5.51,9v15.22c0.14,4.07-3.05,7.49-7.12,7.63
		c-4.07,0.14-7.49-3.05-7.63-7.12c-0.01-0.17-0.01-0.34,0-0.5v-15.21c-3.38-1.74-5.5-5.21-5.52-9.01v-13.7
		c0.02-5.58,4.55-10.09,10.12-10.11h5.52C844.05,886.24,848.57,890.75,848.59,896.33z"/>
</g>
<g>
	<circle class="st1" cx="932.71" cy="34.88" r="8.09"/>
	<path class="st1" d="M945.59,54.82v13.7c-0.01,3.79-2.13,7.26-5.51,9v15.22c0.14,4.07-3.05,7.49-7.12,7.63s-7.49-3.05-7.63-7.12
		c-0.01-0.17-0.01-0.34,0-0.5V77.53c-3.38-1.74-5.5-5.21-5.52-9.01v-13.7c0.02-5.58,4.55-10.09,10.12-10.11h5.52
		C941.05,44.73,945.57,49.24,945.59,54.82z"/>
	<circle class="st1" cx="932.71" cy="128.38" r="8.09"/>
	<path class="st1" d="M945.59,148.32v13.7c-0.01,3.79-2.13,7.26-5.51,9v15.22c0.14,4.07-3.05,7.49-7.12,7.63
		c-4.07,0.14-7.49-3.05-7.63-7.12c-0.01-0.17-0.01-0.34,0-0.5v-15.21c-3.38-1.74-5.5-5.21-5.52-9.01v-13.7
		c0.02-5.58,4.55-10.09,10.12-10.11h5.52C941.05,138.23,945.57,142.74,945.59,148.32z"/>
	<circle class="st1" cx="932.71" cy="221.88" r="8.09"/>
	<path class="st1" d="M945.59,241.82v13.7c-0.01,3.79-2.13,7.26-5.51,9v15.22c0.14,4.07-3.05,7.49-7.12,7.63
		c-4.07,0.14-7.49-3.05-7.63-7.12c-0.01-0.17-0.01-0.34,0-0.5v-15.21c-3.38-1.74-5.5-5.21-5.52-9.01v-13.7
		c0.02-5.58,4.55-10.09,10.12-10.11h5.52C941.05,231.73,945.57,236.25,945.59,241.82z"/>
	<circle class="st1" cx="932.71" cy="315.38" r="8.09"/>
	<path class="st1" d="M945.59,335.32v13.7c-0.01,3.79-2.13,7.26-5.51,9v15.22c0.14,4.07-3.05,7.49-7.12,7.63
		c-4.07,0.14-7.49-3.05-7.63-7.12c-0.01-0.17-0.01-0.34,0-0.5v-15.21c-3.38-1.74-5.5-5.21-5.52-9.01v-13.7
		c0.02-5.58,4.55-10.09,10.12-10.11h5.52C941.05,325.23,945.57,329.75,945.59,335.32z"/>
	<circle class="st2" cx="932.71" cy="408.88" r="8.09"/>
	<path class="st2" d="M945.59,428.83v13.7c-0.01,3.79-2.13,7.26-5.51,9v15.22c0.14,4.07-3.05,7.49-7.12,7.63
		c-4.07,0.14-7.49-3.05-7.63-7.12c-0.01-0.17-0.01-0.34,0-0.5v-15.21c-3.38-1.74-5.5-5.21-5.52-9.01v-13.7
		c0.02-5.58,4.55-10.09,10.12-10.11h5.52C941.05,418.73,945.57,423.25,945.59,428.83z"/>
	<circle class="st2" cx="932.71" cy="502.38" r="8.09"/>
	<path class="st2" d="M945.59,522.33v13.7c-0.01,3.79-2.13,7.26-5.51,9v15.22c0.14,4.07-3.05,7.49-7.12,7.63
		c-4.07,0.14-7.49-3.05-7.63-7.12c-0.01-0.17-0.01-0.34,0-0.5v-15.21c-3.38-1.74-5.5-5.21-5.52-9.01v-13.7
		c0.02-5.58,4.55-10.09,10.12-10.11h5.52C941.05,512.23,945.57,516.75,945.59,522.33z"/>
	<circle class="st2" cx="932.71" cy="595.88" r="8.09"/>
	<path class="st2" d="M945.59,615.83v13.7c-0.01,3.79-2.13,7.26-5.51,9v15.22c0.14,4.07-3.05,7.49-7.12,7.63s-7.49-3.05-7.63-7.12
		c-0.01-0.17-0.01-0.34,0-0.5v-15.21c-3.38-1.74-5.5-5.21-5.52-9.01v-13.7c0.02-5.58,4.55-10.09,10.12-10.11h5.52
		C941.05,605.73,945.57,610.25,945.59,615.83z"/>
	<circle class="st2" cx="932.71" cy="689.38" r="8.09"/>
	<path class="st2" d="M945.59,709.33v13.7c-0.01,3.79-2.13,7.26-5.51,9v15.22c0.14,4.07-3.05,7.49-7.12,7.63
		c-4.07,0.14-7.49-3.05-7.63-7.12c-0.01-0.17-0.01-0.34,0-0.5v-15.21c-3.38-1.74-5.5-5.21-5.52-9.01v-13.7
		c0.02-5.58,4.55-10.09,10.12-10.11h5.52C941.05,699.24,945.57,703.75,945.59,709.33z"/>
	<circle class="st2" cx="932.71" cy="782.88" r="8.09"/>
	<path class="st2" d="M945.59,802.83v13.7c-0.01,3.79-2.13,7.26-5.51,9v15.22c0.14,4.07-3.05,7.49-7.12,7.63s-7.49-3.05-7.63-7.12
		c-0.01-0.17-0.01-0.34,0-0.5v-15.21c-3.38-1.74-5.5-5.21-5.52-9.01v-13.7c0.02-5.58,4.55-10.09,10.12-10.11h5.52
		C941.05,792.74,945.57,797.25,945.59,802.83z"/>
	<circle class="st2" cx="932.71" cy="876.38" r="8.09"/>
	<path class="st2" d="M945.59,896.33v13.7c-0.01,3.79-2.13,7.26-5.51,9v15.22c0.14,4.07-3.05,7.49-7.12,7.63
		c-4.07,0.14-7.49-3.05-7.63-7.12c-0.01-0.17-0.01-0.34,0-0.5v-15.21c-3.38-1.74-5.5-5.21-5.52-9.01v-13.7
		c0.02-5.58,4.55-10.09,10.12-10.11h5.52C941.05,886.24,945.57,890.75,945.59,896.33z"/>
</g>
<g>
	<g>
		<path class="st3" d="M393.94,1004.2v-25.96h9.16c2.92,0,5.2,0.72,6.83,2.16c1.63,1.44,2.45,3.48,2.45,6.12
			c0,2.61-0.82,4.64-2.45,6.08c-1.63,1.44-3.91,2.16-6.83,2.16h-4.4v9.44H393.94z M398.7,990.64h4.4c1.47,0,2.57-0.39,3.32-1.16
			c0.75-0.77,1.12-1.76,1.12-2.96c0-1.23-0.37-2.23-1.12-3.02c-0.75-0.79-1.85-1.18-3.32-1.18h-4.4V990.64z"/>
		<path class="st3" d="M424.92,1004.76c-1.77,0-3.38-0.38-4.81-1.14s-2.57-1.9-3.41-3.41c-0.84-1.51-1.26-3.41-1.26-5.69
			c0-2.32,0.42-4.24,1.26-5.76c0.84-1.52,1.98-2.65,3.41-3.4s3.04-1.12,4.81-1.12c1.75,0,3.33,0.37,4.75,1.12s2.55,1.88,3.39,3.4
			c0.84,1.52,1.26,3.44,1.26,5.76c0,2.28-0.42,4.18-1.26,5.69c-0.84,1.51-1.97,2.65-3.39,3.41S426.67,1004.76,424.92,1004.76z
			 M424.76,1000.64c0.93,0,1.76-0.23,2.49-0.69c0.73-0.46,1.3-1.14,1.72-2.05c0.42-0.91,0.63-2.03,0.63-3.38
			c0-2.05-0.4-3.6-1.21-4.64c-0.81-1.04-1.91-1.56-3.31-1.56c-0.95,0-1.79,0.23-2.52,0.69c-0.73,0.46-1.31,1.15-1.73,2.07
			s-0.63,2.07-0.63,3.44c0,2.03,0.41,3.55,1.23,4.58C422.25,1000.13,423.36,1000.64,424.76,1000.64z"/>
		<path class="st3" d="M447.16,1004.76c-1.87,0-3.47-0.26-4.81-0.77c-1.34-0.51-2.37-1.25-3.09-2.22c-0.72-0.97-1.09-2.13-1.1-3.49
			h4.36c0.04,0.96,0.42,1.66,1.14,2.1c0.72,0.44,1.7,0.66,2.94,0.66c0.68,0,1.28-0.1,1.81-0.3c0.53-0.2,0.94-0.47,1.23-0.82
			c0.29-0.35,0.44-0.73,0.44-1.16c0-0.55-0.2-0.98-0.59-1.29c-0.39-0.31-1.02-0.6-1.89-0.87l-4.24-1.52
			c-1.52-0.55-2.69-1.27-3.5-2.16c-0.81-0.89-1.22-1.96-1.22-3.2c0-1.64,0.74-2.96,2.23-3.97s3.48-1.51,5.97-1.51
			c2.48,0,4.4,0.54,5.75,1.63c1.35,1.09,2.05,2.46,2.09,4.13h-4.44c-0.07-0.64-0.37-1.15-0.92-1.52c-0.55-0.37-1.37-0.56-2.48-0.56
			c-1,0-1.78,0.2-2.35,0.61c-0.57,0.41-0.85,0.88-0.85,1.43c0,0.92,0.79,1.61,2.36,2.08l4.6,1.72c1.49,0.51,2.65,1.16,3.48,1.96
			c0.83,0.8,1.24,1.81,1.24,3.04c0,1.03-0.34,2-1.03,2.91c-0.69,0.91-1.64,1.66-2.87,2.23
			C450.19,1004.47,448.77,1004.76,447.16,1004.76z"/>
		<path class="st3" d="M458.58,987.92v-3.12h12.72v3.12H458.58z M467.58,1004.76c-1.15,0-2.2-0.21-3.15-0.64s-1.71-1.08-2.28-1.96
			c-0.57-0.88-0.85-2-0.85-3.36v-19.16h4.72v19c0,1.6,0.76,2.4,2.28,2.4c0.47,0,0.93-0.05,1.4-0.16c0.47-0.11,1-0.27,1.6-0.48
			l0.68,3.32c-0.75,0.29-1.47,0.54-2.18,0.74C469.09,1004.66,468.35,1004.76,467.58,1004.76z"/>
		<path class="st3" d="M484.28,1014.24c-2.23,0-4.13-0.31-5.71-0.92c-1.58-0.61-2.79-1.42-3.63-2.41c-0.84-0.99-1.26-2.07-1.26-3.23
			c0-1.37,0.5-2.44,1.5-3.19s2.26-1.13,3.78-1.13l3.44,1.28c-1.31,0-2.31,0.25-3.02,0.74s-1.06,1.18-1.06,2.06
			c0,0.92,0.53,1.66,1.59,2.21c1.06,0.55,2.52,0.83,4.37,0.83c1.35,0,2.51-0.2,3.5-0.6c0.99-0.4,1.75-0.92,2.29-1.56
			c0.54-0.64,0.81-1.32,0.81-2.04c0-0.48-0.16-0.87-0.48-1.18c-0.32-0.31-0.81-0.46-1.48-0.46h-6.52c-1.31,0-2.5-0.21-3.57-0.63
			c-1.07-0.42-1.93-0.99-2.56-1.7c-0.63-0.71-0.95-1.51-0.95-2.39c0-0.81,0.23-1.52,0.68-2.11c0.45-0.59,1.07-1.05,1.85-1.37
			c0.78-0.32,1.66-0.48,2.63-0.48l1.2,1.56c-0.39,0-0.76,0.08-1.11,0.23c-0.35,0.15-0.64,0.38-0.87,0.67
			c-0.23,0.29-0.34,0.66-0.34,1.1c0,0.53,0.23,0.97,0.68,1.3c0.45,0.33,1.24,0.5,2.36,0.5h6.52c2.07,0,3.69,0.38,4.87,1.14
			s1.77,1.93,1.77,3.5c0,1.4-0.46,2.73-1.38,3.99s-2.22,2.29-3.91,3.09C488.58,1013.84,486.59,1014.24,484.28,1014.24z
			 M484.52,998.2c-1.53,0-2.94-0.29-4.21-0.87c-1.27-0.58-2.29-1.39-3.05-2.43c-0.76-1.04-1.14-2.26-1.14-3.66
			c0-1.43,0.38-2.67,1.14-3.72c0.76-1.05,1.78-1.86,3.05-2.43c1.27-0.57,2.68-0.85,4.21-0.85c1.49,0,2.87,0.28,4.14,0.85
			c1.27,0.57,2.29,1.38,3.06,2.43c0.77,1.05,1.16,2.29,1.16,3.72c0,1.4-0.39,2.62-1.16,3.66c-0.77,1.04-1.79,1.85-3.06,2.43
			C487.39,997.91,486.01,998.2,484.52,998.2z M484.56,994.92c1.23,0,2.15-0.35,2.76-1.06c0.61-0.71,0.92-1.58,0.92-2.62
			c0-1.12-0.31-2.02-0.93-2.7s-1.55-1.02-2.79-1.02c-1.2,0-2.12,0.34-2.76,1.02c-0.64,0.68-0.96,1.58-0.96,2.7
			c0,1.04,0.32,1.91,0.97,2.62C482.42,994.57,483.35,994.92,484.56,994.92z M491.4,987.36l-2.16-1.24c0-1.16,0.27-2.18,0.81-3.05
			c0.54-0.87,1.26-1.55,2.16-2.03c0.9-0.48,1.9-0.72,2.99-0.72l-0.24,4.52c-1.16,0-2.04,0.2-2.65,0.61
			C491.7,985.86,491.4,986.49,491.4,987.36z"/>
		<path class="st3" d="M500.08,1004.2v-19.48h4.72v19.48H500.08z M503.64,995.68c0-2.55,0.29-4.65,0.86-6.32
			c0.57-1.67,1.34-2.9,2.31-3.71c0.97-0.81,2.04-1.21,3.23-1.21c0.32,0,0.62,0.02,0.91,0.06s0.57,0.1,0.85,0.18l-0.08,4.72
			c-0.35-0.08-0.72-0.15-1.12-0.2c-0.4-0.05-0.76-0.08-1.08-0.08c-1.04,0-1.91,0.25-2.61,0.75s-1.23,1.24-1.58,2.21
			c-0.35,0.97-0.53,2.17-0.53,3.6H503.64z"/>
		<path class="st3" d="M521.78,1004.76c-1.67,0-3.06-0.29-4.17-0.87c-1.11-0.58-1.95-1.34-2.51-2.29c-0.56-0.95-0.84-1.97-0.84-3.08
			c0-1.23,0.32-2.26,0.97-3.09c0.65-0.83,1.56-1.46,2.75-1.88c1.19-0.42,2.59-0.63,4.2-0.63c1.05,0,2.05,0.08,2.99,0.24
			c0.94,0.16,1.88,0.37,2.81,0.64v2.76c-0.73-0.24-1.53-0.43-2.4-0.56c-0.87-0.13-1.68-0.2-2.44-0.2c-1.12,0-2.04,0.21-2.76,0.62
			c-0.72,0.41-1.08,1.11-1.08,2.1c0,0.72,0.29,1.34,0.88,1.86c0.59,0.52,1.52,0.78,2.8,0.78c0.97,0,1.8-0.21,2.48-0.64
			s1.2-0.96,1.55-1.6c0.35-0.64,0.53-1.28,0.53-1.92h1.12c0,1.4-0.26,2.69-0.78,3.87c-0.52,1.18-1.29,2.12-2.31,2.83
			S523.29,1004.76,521.78,1004.76z M528.14,1004.2l-0.6-4.72v-7.8c0-1.36-0.28-2.37-0.83-3.02c-0.55-0.65-1.49-0.98-2.81-0.98
			c-0.76,0-1.42,0.11-1.98,0.34c-0.56,0.23-0.99,0.55-1.29,0.97c-0.3,0.42-0.45,0.93-0.45,1.53h-5.16c0-1.47,0.35-2.66,1.06-3.59
			s1.72-1.61,3.05-2.04c1.33-0.43,2.92-0.65,4.77-0.65c1.68,0,3.15,0.27,4.4,0.81c1.25,0.54,2.23,1.37,2.92,2.49s1.04,2.55,1.04,4.3
			v12.36H528.14z"/>
		<path class="st3" d="M546.34,1004.76c-1.63,0-3.11-0.43-4.45-1.29c-1.34-0.86-2.41-2.07-3.2-3.62c-0.79-1.55-1.19-3.37-1.19-5.45
			c0-2.05,0.38-3.84,1.15-5.37c0.77-1.53,1.79-2.71,3.08-3.54c1.29-0.83,2.72-1.25,4.29-1.25c1.44,0,2.69,0.34,3.74,1.03
			s1.86,1.7,2.42,3.05c0.56,1.35,0.84,3,0.84,4.96h-1.48c0-1.01-0.21-1.88-0.62-2.59c-0.41-0.71-0.96-1.26-1.63-1.64
			c-0.67-0.38-1.4-0.57-2.19-0.57c-0.95,0-1.78,0.25-2.51,0.74c-0.73,0.49-1.3,1.18-1.71,2.07s-0.62,1.92-0.62,3.11
			c0,1.23,0.21,2.29,0.62,3.2c0.41,0.91,0.98,1.61,1.71,2.12c0.73,0.51,1.55,0.76,2.47,0.76c0.75,0,1.46-0.2,2.15-0.61
			c0.69-0.41,1.25-0.98,1.68-1.71c0.43-0.73,0.65-1.59,0.65-2.56h1.48c0,2.04-0.3,3.74-0.91,5.09c-0.61,1.35-1.42,2.37-2.43,3.05
			S547.55,1004.76,546.34,1004.76z M552.42,1004.2l-0.88-4.8v-22.64h4.76v27.44H552.42z"/>
		<path class="st3" d="M571.38,1004.76c-1.77,0-3.38-0.38-4.81-1.14c-1.43-0.76-2.57-1.9-3.41-3.41c-0.84-1.51-1.26-3.41-1.26-5.69
			c0-2.32,0.42-4.24,1.26-5.76c0.84-1.52,1.98-2.65,3.41-3.4c1.43-0.75,3.04-1.12,4.81-1.12c1.75,0,3.33,0.37,4.75,1.12
			s2.55,1.88,3.39,3.4c0.84,1.52,1.26,3.44,1.26,5.76c0,2.28-0.42,4.18-1.26,5.69c-0.84,1.51-1.97,2.65-3.39,3.41
			S573.13,1004.76,571.38,1004.76z M571.22,1000.64c0.93,0,1.76-0.23,2.49-0.69c0.73-0.46,1.3-1.14,1.72-2.05
			c0.42-0.91,0.63-2.03,0.63-3.38c0-2.05-0.4-3.6-1.21-4.64s-1.91-1.56-3.31-1.56c-0.95,0-1.79,0.23-2.52,0.69
			c-0.73,0.46-1.31,1.15-1.73,2.07s-0.63,2.07-0.63,3.44c0,2.03,0.41,3.55,1.23,4.58C568.71,1000.13,569.82,1000.64,571.22,1000.64z
			"/>
	</g>
</g>
</svg>
