<?xml version="1.0" encoding="utf-8"?>
<!-- Generator: Adobe Illustrator 24.0.2, SVG Export Plug-In . SVG Version: 6.00 Build 0)  -->
<svg version="1.1" id="Capa_1" xmlns="http://www.w3.org/2000/svg" xmlns:xlink="http://www.w3.org/1999/xlink" x="0px" y="0px"
	 viewBox="0 0 1700 1043" style="enable-background:new 0 0 1700 1043;" xml:space="preserve">
<style type="text/css">
	.st0{fill:#252525;}
	.st1{fill:#FF5757;}
	.st2{fill:#B3E6E0;}
	.st3{fill:#FFFFFF;}
</style>
<rect x="28.5" y="15" class="st0" width="924" height="942"/>
<g>
	<circle class="st1" cx="59.68" cy="34.88" r="8.09"/>
	<path class="st1" d="M72.56,54.82v13.7c-0.01,3.79-2.13,7.26-5.51,9v15.22c0.14,4.07-3.05,7.49-7.12,7.63s-7.49-3.05-7.63-7.12
		c-0.01-0.17-0.01-0.34,0-0.5V77.53c-3.38-1.74-5.5-5.21-5.52-9.01v-13.7c0.02-5.58,4.55-10.09,10.12-10.11h5.52
		C68.02,44.73,72.54,49.24,72.56,54.82z"/>
	<circle class="st1" cx="59.68" cy="128.38" r="8.09"/>
	<path class="st1" d="M72.56,148.32v13.7c-0.01,3.79-2.13,7.26-5.51,9v15.22c0.14,4.07-3.05,7.49-7.12,7.63
		c-4.07,0.14-7.49-3.05-7.63-7.12c-0.01-0.17-0.01-0.34,0-0.5v-15.21c-3.38-1.74-5.5-5.21-5.52-9.01v-13.7
		c0.02-5.58,4.55-10.09,10.12-10.11h5.52C68.02,138.23,72.54,142.74,72.56,148.32z"/>
	<circle class="st1" cx="59.68" cy="221.88" r="8.09"/>
	<path class="st1" d="M72.56,241.82v13.7c-0.01,3.79-2.13,7.26-5.51,9v15.22c0.14,4.07-3.05,7.49-7.12,7.63
		c-4.07,0.14-7.49-3.05-7.63-7.12c-0.01-0.17-0.01-0.34,0-0.5v-15.21c-3.38-1.74-5.5-5.21-5.52-9.01v-13.7
		c0.02-5.58,4.55-10.09,10.12-10.11h5.52C68.02,231.73,72.54,236.25,72.56,241.82z"/>
	<circle class="st1" cx="59.68" cy="315.38" r="8.09"/>
	<path class="st1" d="M72.56,335.32v13.7c-0.01,3.79-2.13,7.26-5.51,9v15.22c0.14,4.07-3.05,7.49-7.12,7.63
		c-4.07,0.14-7.49-3.05-7.63-7.12c-0.01-0.17-0.01-0.34,0-0.5v-15.21c-3.38-1.74-5.5-5.21-5.52-9.01v-13.7
		c0.02-5.58,4.55-10.09,10.12-10.11h5.52C68.02,325.23,72.54,329.75,72.56,335.32z"/>
	<circle class="st1" cx="59.68" cy="408.88" r="8.09"/>
	<path class="st1" d="M72.56,428.83v13.7c-0.01,3.79-2.13,7.26-5.51,9v15.22c0.14,4.07-3.05,7.49-7.12,7.63
		c-4.07,0.14-7.49-3.05-7.63-7.12c-0.01-0.17-0.01-0.34,0-0.5v-15.21c-3.38-1.74-5.5-5.21-5.52-9.01v-13.7
		c0.02-5.58,4.55-10.09,10.12-10.11h5.52C68.02,418.73,72.54,423.25,72.56,428.83z"/>
	<circle class="st2" cx="59.68" cy="502.38" r="8.09"/>
	<path class="st2" d="M72.56,522.33v13.7c-0.01,3.79-2.13,7.26-5.51,9v15.22c0.14,4.07-3.05,7.49-7.12,7.63
		c-4.07,0.14-7.49-3.05-7.63-7.12c-0.01-0.17-0.01-0.34,0-0.5v-15.21c-3.38-1.74-5.5-5.21-5.52-9.01v-13.7
		c0.02-5.58,4.55-10.09,10.12-10.11h5.52C68.02,512.23,72.54,516.75,72.56,522.33z"/>
	<circle class="st2" cx="59.68" cy="595.88" r="8.09"/>
	<path class="st2" d="M72.56,615.83v13.7c-0.01,3.79-2.13,7.26-5.51,9v15.22c0.14,4.07-3.05,7.49-7.12,7.63s-7.49-3.05-7.63-7.12
		c-0.01-0.17-0.01-0.34,0-0.5v-15.21c-3.38-1.74-5.5-5.21-5.52-9.01v-13.7c0.02-5.58,4.55-10.09,10.12-10.11h5.52
		C68.02,605.73,72.54,610.25,72.56,615.83z"/>
	<circle class="st2" cx="59.68" cy="689.38" r="8.09"/>
	<path class="st2" d="M72.56,709.33v13.7c-0.01,3.79-2.13,7.26-5.51,9v15.22c0.14,4.07-3.05,7.49-7.12,7.63
		c-4.07,0.14-7.49-3.05-7.63-7.12c-0.01-0.17-0.01-0.34,0-0.5v-15.21c-3.38-1.74-5.5-5.21-5.52-9.01v-13.7
		c0.02-5.58,4.55-10.09,10.12-10.11h5.52C68.02,699.24,72.54,703.75,72.56,709.33z"/>
	<circle class="st2" cx="59.68" cy="782.88" r="8.09"/>
	<path class="st2" d="M72.56,802.83v13.7c-0.01,3.79-2.13,7.26-5.51,9v15.22c0.14,4.07-3.05,7.49-7.12,7.63s-7.49-3.05-7.63-7.12
		c-0.01-0.17-0.01-0.34,0-0.5v-15.21c-3.38-1.74-5.5-5.21-5.52-9.01v-13.7c0.02-5.58,4.55-10.09,10.12-10.11h5.52
		C68.02,792.74,72.54,797.25,72.56,802.83z"/>
	<circle class="st2" cx="59.68" cy="876.38" r="8.09"/>
	<path class="st2" d="M72.56,896.33v13.7c-0.01,3.79-2.13,7.26-5.51,9v15.22c0.14,4.07-3.05,7.49-7.12,7.63
		c-4.07,0.14-7.49-3.05-7.63-7.12c-0.01-0.17-0.01-0.34,0-0.5v-15.21c-3.38-1.74-5.5-5.21-5.52-9.01v-13.7
		c0.02-5.58,4.55-10.09,10.12-10.11h5.52C68.02,886.24,72.54,890.75,72.56,896.33z"/>
</g>
<g>
	<circle class="st1" cx="156.68" cy="34.88" r="8.09"/>
	<path class="st1" d="M169.57,54.82v13.7c-0.01,3.79-2.13,7.26-5.51,9v15.22c0.14,4.07-3.05,7.49-7.12,7.63
		c-4.07,0.14-7.49-3.05-7.63-7.12c-0.01-0.17-0.01-0.34,0-0.5V77.53c-3.38-1.74-5.5-5.21-5.52-9.01v-13.7
		c0.02-5.58,4.55-10.09,10.12-10.11h5.52C165.02,44.73,169.54,49.24,169.57,54.82z"/>
	<circle class="st1" cx="156.68" cy="128.38" r="8.09"/>
	<path class="st1" d="M169.57,148.32v13.7c-0.01,3.79-2.13,7.26-5.51,9v15.22c0.14,4.07-3.05,7.49-7.12,7.63
		c-4.07,0.14-7.49-3.05-7.63-7.12c-0.01-0.17-0.01-0.34,0-0.5v-15.21c-3.38-1.74-5.5-5.21-5.52-9.01v-13.7
		c0.02-5.58,4.55-10.09,10.12-10.11h5.52C165.02,138.23,169.54,142.74,169.57,148.32z"/>
	<circle class="st1" cx="156.68" cy="221.88" r="8.09"/>
	<path class="st1" d="M169.57,241.82v13.7c-0.01,3.79-2.13,7.26-5.51,9v15.22c0.14,4.07-3.05,7.49-7.12,7.63
		c-4.07,0.14-7.49-3.05-7.63-7.12c-0.01-0.17-0.01-0.34,0-0.5v-15.21c-3.38-1.74-5.5-5.21-5.52-9.01v-13.7
		c0.02-5.58,4.55-10.09,10.12-10.11h5.52C165.02,231.73,169.54,236.25,169.57,241.82z"/>
	<circle class="st1" cx="156.68" cy="315.38" r="8.09"/>
	<path class="st1" d="M169.57,335.32v13.7c-0.01,3.79-2.13,7.26-5.51,9v15.22c0.14,4.07-3.05,7.49-7.12,7.63
		c-4.07,0.14-7.49-3.05-7.63-7.12c-0.01-0.17-0.01-0.34,0-0.5v-15.21c-3.38-1.74-5.5-5.21-5.52-9.01v-13.7
		c0.02-5.58,4.55-10.09,10.12-10.11h5.52C165.02,325.23,169.54,329.75,169.57,335.32z"/>
	<circle class="st1" cx="156.68" cy="408.88" r="8.09"/>
	<path class="st1" d="M169.57,428.83v13.7c-0.01,3.79-2.13,7.26-5.51,9v15.22c0.14,4.07-3.05,7.49-7.12,7.63
		c-4.07,0.14-7.49-3.05-7.63-7.12c-0.01-0.17-0.01-0.34,0-0.5v-15.21c-3.38-1.74-5.5-5.21-5.52-9.01v-13.7
		c0.02-5.58,4.55-10.09,10.12-10.11h5.52C165.02,418.73,169.54,423.25,169.57,428.83z"/>
	<circle class="st2" cx="156.68" cy="502.38" r="8.09"/>
	<path class="st2" d="M169.57,522.33v13.7c-0.01,3.79-2.13,7.26-5.51,9v15.22c0.14,4.07-3.05,7.49-7.12,7.63
		c-4.07,0.14-7.49-3.05-7.63-7.12c-0.01-0.17-0.01-0.34,0-0.5v-15.21c-3.38-1.74-5.5-5.21-5.52-9.01v-13.7
		c0.02-5.58,4.55-10.09,10.12-10.11h5.52C165.02,512.23,169.54,516.75,169.57,522.33z"/>
	<circle class="st2" cx="156.68" cy="595.88" r="8.09"/>
	<path class="st2" d="M169.57,615.83v13.7c-0.01,3.79-2.13,7.26-5.51,9v15.22c0.14,4.07-3.05,7.49-7.12,7.63
		c-4.07,0.14-7.49-3.05-7.63-7.12c-0.01-0.17-0.01-0.34,0-0.5v-15.21c-3.38-1.74-5.5-5.21-5.52-9.01v-13.7
		c0.02-5.58,4.55-10.09,10.12-10.11h5.52C165.02,605.73,169.54,610.25,169.57,615.83z"/>
	<circle class="st2" cx="156.68" cy="689.38" r="8.09"/>
	<path class="st2" d="M169.57,709.33v13.7c-0.01,3.79-2.13,7.26-5.51,9v15.22c0.14,4.07-3.05,7.49-7.12,7.63
		c-4.07,0.14-7.49-3.05-7.63-7.12c-0.01-0.17-0.01-0.34,0-0.5v-15.21c-3.38-1.74-5.5-5.21-5.52-9.01v-13.7
		c0.02-5.58,4.55-10.09,10.12-10.11h5.52C165.02,699.24,169.54,703.75,169.57,709.33z"/>
	<circle class="st2" cx="156.68" cy="782.88" r="8.09"/>
	<path class="st2" d="M169.57,802.83v13.7c-0.01,3.79-2.13,7.26-5.51,9v15.22c0.14,4.07-3.05,7.49-7.12,7.63
		c-4.07,0.14-7.49-3.05-7.63-7.12c-0.01-0.17-0.01-0.34,0-0.5v-15.21c-3.38-1.74-5.5-5.21-5.52-9.01v-13.7
		c0.02-5.58,4.55-10.09,10.12-10.11h5.52C165.02,792.74,169.54,797.25,169.57,802.83z"/>
	<circle class="st2" cx="156.68" cy="876.38" r="8.09"/>
	<path class="st2" d="M169.57,896.33v13.7c-0.01,3.79-2.13,7.26-5.51,9v15.22c0.14,4.07-3.05,7.49-7.12,7.63
		c-4.07,0.14-7.49-3.05-7.63-7.12c-0.01-0.17-0.01-0.34,0-0.5v-15.21c-3.38-1.74-5.5-5.21-5.52-9.01v-13.7
		c0.02-5.58,4.55-10.09,10.12-10.11h5.52C165.02,886.24,169.54,890.75,169.57,896.33z"/>
</g>
<g>
	<circle class="st1" cx="253.68" cy="34.88" r="8.09"/>
	<path class="st1" d="M266.57,54.82v13.7c-0.01,3.79-2.13,7.26-5.51,9v15.22c0.14,4.07-3.05,7.49-7.12,7.63
		c-4.07,0.14-7.49-3.05-7.63-7.12c-0.01-0.17-0.01-0.34,0-0.5V77.53c-3.38-1.74-5.5-5.21-5.52-9.01v-13.7
		c0.02-5.58,4.55-10.09,10.12-10.11h5.52C262.02,44.73,266.55,49.24,266.57,54.82z"/>
	<circle class="st1" cx="253.68" cy="128.38" r="8.09"/>
	<path class="st1" d="M266.57,148.32v13.7c-0.01,3.79-2.13,7.26-5.51,9v15.22c0.14,4.07-3.05,7.49-7.12,7.63
		c-4.07,0.14-7.49-3.05-7.63-7.12c-0.01-0.17-0.01-0.34,0-0.5v-15.21c-3.38-1.74-5.5-5.21-5.52-9.01v-13.7
		c0.02-5.58,4.55-10.09,10.12-10.11h5.52C262.02,138.23,266.55,142.74,266.57,148.32z"/>
	<circle class="st1" cx="253.68" cy="221.88" r="8.09"/>
	<path class="st1" d="M266.57,241.82v13.7c-0.01,3.79-2.13,7.26-5.51,9v15.22c0.14,4.07-3.05,7.49-7.12,7.63
		c-4.07,0.14-7.49-3.05-7.63-7.12c-0.01-0.17-0.01-0.34,0-0.5v-15.21c-3.38-1.74-5.5-5.21-5.52-9.01v-13.7
		c0.02-5.58,4.55-10.09,10.12-10.11h5.52C262.02,231.73,266.55,236.25,266.57,241.82z"/>
	<circle class="st1" cx="253.68" cy="315.38" r="8.09"/>
	<path class="st1" d="M266.57,335.32v13.7c-0.01,3.79-2.13,7.26-5.51,9v15.22c0.14,4.07-3.05,7.49-7.12,7.63
		c-4.07,0.14-7.49-3.05-7.63-7.12c-0.01-0.17-0.01-0.34,0-0.5v-15.21c-3.38-1.74-5.5-5.21-5.52-9.01v-13.7
		c0.02-5.58,4.55-10.09,10.12-10.11h5.52C262.02,325.23,266.55,329.75,266.57,335.32z"/>
	<circle class="st1" cx="253.68" cy="408.88" r="8.09"/>
	<path class="st1" d="M266.57,428.83v13.7c-0.01,3.79-2.13,7.26-5.51,9v15.22c0.14,4.07-3.05,7.49-7.12,7.63
		c-4.07,0.14-7.49-3.05-7.63-7.12c-0.01-0.17-0.01-0.34,0-0.5v-15.21c-3.38-1.74-5.5-5.21-5.52-9.01v-13.7
		c0.02-5.58,4.55-10.09,10.12-10.11h5.52C262.02,418.73,266.55,423.25,266.57,428.83z"/>
	<circle class="st2" cx="253.68" cy="502.38" r="8.09"/>
	<path class="st2" d="M266.57,522.33v13.7c-0.01,3.79-2.13,7.26-5.51,9v15.22c0.14,4.07-3.05,7.49-7.12,7.63
		c-4.07,0.14-7.49-3.05-7.63-7.12c-0.01-0.17-0.01-0.34,0-0.5v-15.21c-3.38-1.74-5.5-5.21-5.52-9.01v-13.7
		c0.02-5.58,4.55-10.09,10.12-10.11h5.52C262.02,512.23,266.55,516.75,266.57,522.33z"/>
	<circle class="st2" cx="253.68" cy="595.88" r="8.09"/>
	<path class="st2" d="M266.57,615.83v13.7c-0.01,3.79-2.13,7.26-5.51,9v15.22c0.14,4.07-3.05,7.49-7.12,7.63
		c-4.07,0.14-7.49-3.05-7.63-7.12c-0.01-0.17-0.01-0.34,0-0.5v-15.21c-3.38-1.74-5.5-5.21-5.52-9.01v-13.7
		c0.02-5.58,4.55-10.09,10.12-10.11h5.52C262.02,605.73,266.55,610.25,266.57,615.83z"/>
	<circle class="st2" cx="253.68" cy="689.38" r="8.09"/>
	<path class="st2" d="M266.57,709.33v13.7c-0.01,3.79-2.13,7.26-5.51,9v15.22c0.14,4.07-3.05,7.49-7.12,7.63
		c-4.07,0.14-7.49-3.05-7.63-7.12c-0.01-0.17-0.01-0.34,0-0.5v-15.21c-3.38-1.74-5.5-5.21-5.52-9.01v-13.7
		c0.02-5.58,4.55-10.09,10.12-10.11h5.52C262.02,699.24,266.55,703.75,266.57,709.33z"/>
	<circle class="st2" cx="253.68" cy="782.88" r="8.09"/>
	<path class="st2" d="M266.57,802.83v13.7c-0.01,3.79-2.13,7.26-5.51,9v15.22c0.14,4.07-3.05,7.49-7.12,7.63
		c-4.07,0.14-7.49-3.05-7.63-7.12c-0.01-0.17-0.01-0.34,0-0.5v-15.21c-3.38-1.74-5.5-5.21-5.52-9.01v-13.7
		c0.02-5.58,4.55-10.09,10.12-10.11h5.52C262.02,792.74,266.55,797.25,266.57,802.83z"/>
	<circle class="st2" cx="253.68" cy="876.38" r="8.09"/>
	<path class="st2" d="M266.57,896.33v13.7c-0.01,3.79-2.13,7.26-5.51,9v15.22c0.14,4.07-3.05,7.49-7.12,7.63
		c-4.07,0.14-7.49-3.05-7.63-7.12c-0.01-0.17-0.01-0.34,0-0.5v-15.21c-3.38-1.74-5.5-5.21-5.52-9.01v-13.7
		c0.02-5.58,4.55-10.09,10.12-10.11h5.52C262.02,886.24,266.55,890.75,266.57,896.33z"/>
</g>
<g>
	<circle class="st1" cx="350.69" cy="34.88" r="8.09"/>
	<path class="st1" d="M363.57,54.82v13.7c-0.01,3.79-2.13,7.26-5.51,9v15.22c0.14,4.07-3.05,7.49-7.12,7.63
		c-4.07,0.14-7.49-3.05-7.63-7.12c-0.01-0.17-0.01-0.34,0-0.5V77.53c-3.38-1.74-5.5-5.21-5.52-9.01v-13.7
		c0.02-5.58,4.55-10.09,10.12-10.11h5.52C359.03,44.73,363.55,49.24,363.57,54.82z"/>
	<circle class="st1" cx="350.69" cy="128.38" r="8.09"/>
	<path class="st1" d="M363.57,148.32v13.7c-0.01,3.79-2.13,7.26-5.51,9v15.22c0.14,4.07-3.05,7.49-7.12,7.63
		c-4.07,0.14-7.49-3.05-7.63-7.12c-0.01-0.17-0.01-0.34,0-0.5v-15.21c-3.38-1.74-5.5-5.21-5.52-9.01v-13.7
		c0.02-5.58,4.55-10.09,10.12-10.11h5.52C359.03,138.23,363.55,142.74,363.57,148.32z"/>
	<circle class="st1" cx="350.69" cy="221.88" r="8.09"/>
	<path class="st1" d="M363.57,241.82v13.7c-0.01,3.79-2.13,7.26-5.51,9v15.22c0.14,4.07-3.05,7.49-7.12,7.63
		c-4.07,0.14-7.49-3.05-7.63-7.12c-0.01-0.17-0.01-0.34,0-0.5v-15.21c-3.38-1.74-5.5-5.21-5.52-9.01v-13.7
		c0.02-5.58,4.55-10.09,10.12-10.11h5.52C359.03,231.73,363.55,236.25,363.57,241.82z"/>
	<circle class="st1" cx="350.69" cy="315.38" r="8.09"/>
	<path class="st1" d="M363.57,335.32v13.7c-0.01,3.79-2.13,7.26-5.51,9v15.22c0.14,4.07-3.05,7.49-7.12,7.63
		c-4.07,0.14-7.49-3.05-7.63-7.12c-0.01-0.17-0.01-0.34,0-0.5v-15.21c-3.38-1.74-5.5-5.21-5.52-9.01v-13.7
		c0.02-5.58,4.55-10.09,10.12-10.11h5.52C359.03,325.23,363.55,329.75,363.57,335.32z"/>
	<circle class="st2" cx="350.69" cy="408.88" r="8.09"/>
	<path class="st2" d="M363.57,428.83v13.7c-0.01,3.79-2.13,7.26-5.51,9v15.22c0.14,4.07-3.05,7.49-7.12,7.63
		c-4.07,0.14-7.49-3.05-7.63-7.12c-0.01-0.17-0.01-0.34,0-0.5v-15.21c-3.38-1.74-5.5-5.21-5.52-9.01v-13.7
		c0.02-5.58,4.55-10.09,10.12-10.11h5.52C359.03,418.73,363.55,423.25,363.57,428.83z"/>
	<circle class="st2" cx="350.69" cy="502.38" r="8.09"/>
	<path class="st2" d="M363.57,522.33v13.7c-0.01,3.79-2.13,7.26-5.51,9v15.22c0.14,4.07-3.05,7.49-7.12,7.63
		c-4.07,0.14-7.49-3.05-7.63-7.12c-0.01-0.17-0.01-0.34,0-0.5v-15.21c-3.38-1.74-5.5-5.21-5.52-9.01v-13.7
		c0.02-5.58,4.55-10.09,10.12-10.11h5.52C359.03,512.23,363.55,516.75,363.57,522.33z"/>
	<circle class="st2" cx="350.69" cy="595.88" r="8.09"/>
	<path class="st2" d="M363.57,615.83v13.7c-0.01,3.79-2.13,7.26-5.51,9v15.22c0.14,4.07-3.05,7.49-7.12,7.63
		c-4.07,0.14-7.49-3.05-7.63-7.12c-0.01-0.17-0.01-0.34,0-0.5v-15.21c-3.38-1.74-5.5-5.21-5.52-9.01v-13.7
		c0.02-5.58,4.55-10.09,10.12-10.11h5.52C359.03,605.73,363.55,610.25,363.57,615.83z"/>
	<circle class="st2" cx="350.69" cy="689.38" r="8.09"/>
	<path class="st2" d="M363.57,709.33v13.7c-0.01,3.79-2.13,7.26-5.51,9v15.22c0.14,4.07-3.05,7.49-7.12,7.63
		c-4.07,0.14-7.49-3.05-7.63-7.12c-0.01-0.17-0.01-0.34,0-0.5v-15.21c-3.38-1.74-5.5-5.21-5.52-9.01v-13.7
		c0.02-5.58,4.55-10.09,10.12-10.11h5.52C359.03,699.24,363.55,703.75,363.57,709.33z"/>
	<circle class="st2" cx="350.69" cy="782.88" r="8.09"/>
	<path class="st2" d="M363.57,802.83v13.7c-0.01,3.79-2.13,7.26-5.51,9v15.22c0.14,4.07-3.05,7.49-7.12,7.63
		c-4.07,0.14-7.49-3.05-7.63-7.12c-0.01-0.17-0.01-0.34,0-0.5v-15.21c-3.38-1.74-5.5-5.21-5.52-9.01v-13.7
		c0.02-5.58,4.55-10.09,10.12-10.11h5.52C359.03,792.74,363.55,797.25,363.57,802.83z"/>
	<circle class="st2" cx="350.69" cy="876.38" r="8.09"/>
	<path class="st2" d="M363.57,896.33v13.7c-0.01,3.79-2.13,7.26-5.51,9v15.22c0.14,4.07-3.05,7.49-7.12,7.63
		c-4.07,0.14-7.49-3.05-7.63-7.12c-0.01-0.17-0.01-0.34,0-0.5v-15.21c-3.38-1.74-5.5-5.21-5.52-9.01v-13.7
		c0.02-5.58,4.55-10.09,10.12-10.11h5.52C359.03,886.24,363.55,890.75,363.57,896.33z"/>
</g>
<g>
	<circle class="st1" cx="447.69" cy="34.88" r="8.09"/>
	<path class="st1" d="M460.58,54.82v13.7c-0.01,3.79-2.13,7.26-5.51,9v15.22c0.14,4.07-3.05,7.49-7.12,7.63
		c-4.07,0.14-7.49-3.05-7.63-7.12c-0.01-0.17-0.01-0.34,0-0.5V77.53c-3.38-1.74-5.5-5.21-5.52-9.01v-13.7
		c0.02-5.58,4.55-10.09,10.12-10.11h5.52C456.03,44.73,460.55,49.24,460.58,54.82z"/>
	<circle class="st1" cx="447.69" cy="128.38" r="8.09"/>
	<path class="st1" d="M460.58,148.32v13.7c-0.01,3.79-2.13,7.26-5.51,9v15.22c0.14,4.07-3.05,7.49-7.12,7.63
		c-4.07,0.14-7.49-3.05-7.63-7.12c-0.01-0.17-0.01-0.34,0-0.5v-15.21c-3.38-1.74-5.5-5.21-5.52-9.01v-13.7
		c0.02-5.58,4.55-10.09,10.12-10.11h5.52C456.03,138.23,460.55,142.74,460.58,148.32z"/>
	<circle class="st1" cx="447.69" cy="221.88" r="8.09"/>
	<path class="st1" d="M460.58,241.82v13.7c-0.01,3.79-2.13,7.26-5.51,9v15.22c0.14,4.07-3.05,7.49-7.12,7.63
		c-4.07,0.14-7.49-3.05-7.63-7.12c-0.01-0.17-0.01-0.34,0-0.5v-15.21c-3.38-1.74-5.5-5.21-5.52-9.01v-13.7
		c0.02-5.58,4.55-10.09,10.12-10.11h5.52C456.03,231.73,460.55,236.25,460.58,241.82z"/>
	<circle class="st1" cx="447.69" cy="315.38" r="8.09"/>
	<path class="st1" d="M460.58,335.32v13.7c-0.01,3.79-2.13,7.26-5.51,9v15.22c0.14,4.07-3.05,7.49-7.12,7.63
		c-4.07,0.14-7.49-3.05-7.63-7.12c-0.01-0.17-0.01-0.34,0-0.5v-15.21c-3.38-1.74-5.5-5.21-5.52-9.01v-13.7
		c0.02-5.58,4.55-10.09,10.12-10.11h5.52C456.03,325.23,460.55,329.75,460.58,335.32z"/>
	<circle class="st2" cx="447.69" cy="408.88" r="8.09"/>
	<path class="st2" d="M460.58,428.83v13.7c-0.01,3.79-2.13,7.26-5.51,9v15.22c0.14,4.07-3.05,7.49-7.12,7.63
		c-4.07,0.14-7.49-3.05-7.63-7.12c-0.01-0.17-0.01-0.34,0-0.5v-15.21c-3.38-1.74-5.5-5.21-5.52-9.01v-13.7
		c0.02-5.58,4.55-10.09,10.12-10.11h5.52C456.03,418.73,460.55,423.25,460.58,428.83z"/>
	<circle class="st2" cx="447.69" cy="502.38" r="8.09"/>
	<path class="st2" d="M460.58,522.33v13.7c-0.01,3.79-2.13,7.26-5.51,9v15.22c0.14,4.07-3.05,7.49-7.12,7.63
		c-4.07,0.14-7.49-3.05-7.63-7.12c-0.01-0.17-0.01-0.34,0-0.5v-15.21c-3.38-1.74-5.5-5.21-5.52-9.01v-13.7
		c0.02-5.58,4.55-10.09,10.12-10.11h5.52C456.03,512.23,460.55,516.75,460.58,522.33z"/>
	<circle class="st2" cx="447.69" cy="595.88" r="8.09"/>
	<path class="st2" d="M460.58,615.83v13.7c-0.01,3.79-2.13,7.26-5.51,9v15.22c0.14,4.07-3.05,7.49-7.12,7.63
		c-4.07,0.14-7.49-3.05-7.63-7.12c-0.01-0.17-0.01-0.34,0-0.5v-15.21c-3.38-1.74-5.5-5.21-5.52-9.01v-13.7
		c0.02-5.58,4.55-10.09,10.12-10.11h5.52C456.03,605.73,460.55,610.25,460.58,615.83z"/>
	<circle class="st2" cx="447.69" cy="689.38" r="8.09"/>
	<path class="st2" d="M460.58,709.33v13.7c-0.01,3.79-2.13,7.26-5.51,9v15.22c0.14,4.07-3.05,7.49-7.12,7.63
		c-4.07,0.14-7.49-3.05-7.63-7.12c-0.01-0.17-0.01-0.34,0-0.5v-15.21c-3.38-1.74-5.5-5.21-5.52-9.01v-13.7
		c0.02-5.58,4.55-10.09,10.12-10.11h5.52C456.03,699.24,460.55,703.75,460.58,709.33z"/>
	<circle class="st2" cx="447.69" cy="782.88" r="8.09"/>
	<path class="st2" d="M460.58,802.83v13.7c-0.01,3.79-2.13,7.26-5.51,9v15.22c0.14,4.07-3.05,7.49-7.12,7.63
		c-4.07,0.14-7.49-3.05-7.63-7.12c-0.01-0.17-0.01-0.34,0-0.5v-15.21c-3.38-1.74-5.5-5.21-5.52-9.01v-13.7
		c0.02-5.58,4.55-10.09,10.12-10.11h5.52C456.03,792.74,460.55,797.25,460.58,802.83z"/>
	<circle class="st2" cx="447.69" cy="876.38" r="8.09"/>
	<path class="st2" d="M460.58,896.33v13.7c-0.01,3.79-2.13,7.26-5.51,9v15.22c0.14,4.07-3.05,7.49-7.12,7.63
		c-4.07,0.14-7.49-3.05-7.63-7.12c-0.01-0.17-0.01-0.34,0-0.5v-15.21c-3.38-1.74-5.5-5.21-5.52-9.01v-13.7
		c0.02-5.58,4.55-10.09,10.12-10.11h5.52C456.03,886.24,460.55,890.75,460.58,896.33z"/>
</g>
<g>
	<circle class="st1" cx="544.69" cy="34.88" r="8.09"/>
	<path class="st1" d="M557.58,54.82v13.7c-0.01,3.79-2.13,7.26-5.51,9v15.22c0.14,4.07-3.05,7.49-7.12,7.63s-7.49-3.05-7.63-7.12
		c-0.01-0.17-0.01-0.34,0-0.5V77.53c-3.38-1.74-5.5-5.21-5.52-9.01v-13.7c0.02-5.58,4.55-10.09,10.12-10.11h5.52
		C553.04,44.73,557.56,49.24,557.58,54.82z"/>
	<circle class="st1" cx="544.69" cy="128.38" r="8.09"/>
	<path class="st1" d="M557.58,148.32v13.7c-0.01,3.79-2.13,7.26-5.51,9v15.22c0.14,4.07-3.05,7.49-7.12,7.63
		c-4.07,0.14-7.49-3.05-7.63-7.12c-0.01-0.17-0.01-0.34,0-0.5v-15.21c-3.38-1.74-5.5-5.21-5.52-9.01v-13.7
		c0.02-5.58,4.55-10.09,10.12-10.11h5.52C553.04,138.23,557.56,142.74,557.58,148.32z"/>
	<circle class="st1" cx="544.69" cy="221.88" r="8.09"/>
	<path class="st1" d="M557.58,241.82v13.7c-0.01,3.79-2.13,7.26-5.51,9v15.22c0.14,4.07-3.05,7.49-7.12,7.63
		c-4.07,0.14-7.49-3.05-7.63-7.12c-0.01-0.17-0.01-0.34,0-0.5v-15.21c-3.38-1.74-5.5-5.21-5.52-9.01v-13.7
		c0.02-5.58,4.55-10.09,10.12-10.11h5.52C553.04,231.73,557.56,236.25,557.58,241.82z"/>
	<circle class="st1" cx="544.69" cy="315.38" r="8.09"/>
	<path class="st1" d="M557.58,335.32v13.7c-0.01,3.79-2.13,7.26-5.51,9v15.22c0.14,4.07-3.05,7.49-7.12,7.63
		c-4.07,0.14-7.49-3.05-7.63-7.12c-0.01-0.17-0.01-0.34,0-0.5v-15.21c-3.38-1.74-5.5-5.21-5.52-9.01v-13.7
		c0.02-5.58,4.55-10.09,10.12-10.11h5.52C553.04,325.23,557.56,329.75,557.58,335.32z"/>
	<circle class="st2" cx="544.69" cy="408.88" r="8.09"/>
	<path class="st2" d="M557.58,428.83v13.7c-0.01,3.79-2.13,7.26-5.51,9v15.22c0.14,4.07-3.05,7.49-7.12,7.63
		c-4.07,0.14-7.49-3.05-7.63-7.12c-0.01-0.17-0.01-0.34,0-0.5v-15.21c-3.38-1.74-5.5-5.21-5.52-9.01v-13.7
		c0.02-5.58,4.55-10.09,10.12-10.11h5.52C553.04,418.73,557.56,423.25,557.58,428.83z"/>
	<circle class="st2" cx="544.69" cy="502.38" r="8.09"/>
	<path class="st2" d="M557.58,522.33v13.7c-0.01,3.79-2.13,7.26-5.51,9v15.22c0.14,4.07-3.05,7.49-7.12,7.63
		c-4.07,0.14-7.49-3.05-7.63-7.12c-0.01-0.17-0.01-0.34,0-0.5v-15.21c-3.38-1.74-5.5-5.21-5.52-9.01v-13.7
		c0.02-5.58,4.55-10.09,10.12-10.11h5.52C553.04,512.23,557.56,516.75,557.58,522.33z"/>
	<circle class="st2" cx="544.69" cy="595.88" r="8.09"/>
	<path class="st2" d="M557.58,615.83v13.7c-0.01,3.79-2.13,7.26-5.51,9v15.22c0.14,4.07-3.05,7.49-7.12,7.63s-7.49-3.05-7.63-7.12
		c-0.01-0.17-0.01-0.34,0-0.5v-15.21c-3.38-1.74-5.5-5.21-5.52-9.01v-13.7c0.02-5.58,4.55-10.09,10.12-10.11h5.52
		C553.04,605.73,557.56,610.25,557.58,615.83z"/>
	<circle class="st2" cx="544.69" cy="689.38" r="8.09"/>
	<path class="st2" d="M557.58,709.33v13.7c-0.01,3.79-2.13,7.26-5.51,9v15.22c0.14,4.07-3.05,7.49-7.12,7.63
		c-4.07,0.14-7.49-3.05-7.63-7.12c-0.01-0.17-0.01-0.34,0-0.5v-15.21c-3.38-1.74-5.5-5.21-5.52-9.01v-13.7
		c0.02-5.58,4.55-10.09,10.12-10.11h5.52C553.04,699.24,557.56,703.75,557.58,709.33z"/>
	<circle class="st2" cx="544.69" cy="782.88" r="8.09"/>
	<path class="st2" d="M557.58,802.83v13.7c-0.01,3.79-2.13,7.26-5.51,9v15.22c0.14,4.07-3.05,7.49-7.12,7.63s-7.49-3.05-7.63-7.12
		c-0.01-0.17-0.01-0.34,0-0.5v-15.21c-3.38-1.74-5.5-5.21-5.52-9.01v-13.7c0.02-5.58,4.55-10.09,10.12-10.11h5.52
		C553.04,792.74,557.56,797.25,557.58,802.83z"/>
	<circle class="st2" cx="544.69" cy="876.38" r="8.09"/>
	<path class="st2" d="M557.58,896.33v13.7c-0.01,3.79-2.13,7.26-5.51,9v15.22c0.14,4.07-3.05,7.49-7.12,7.63
		c-4.07,0.14-7.49-3.05-7.63-7.12c-0.01-0.17-0.01-0.34,0-0.5v-15.21c-3.38-1.74-5.5-5.21-5.52-9.01v-13.7
		c0.02-5.58,4.55-10.09,10.12-10.11h5.52C553.04,886.24,557.56,890.75,557.58,896.33z"/>
</g>
<g>
	<circle class="st1" cx="641.7" cy="34.88" r="8.09"/>
	<path class="st1" d="M654.58,54.82v13.7c-0.01,3.79-2.13,7.26-5.51,9v15.22c0.14,4.07-3.05,7.49-7.12,7.63
		c-4.07,0.14-7.49-3.05-7.63-7.12c-0.01-0.17-0.01-0.34,0-0.5V77.53c-3.38-1.74-5.5-5.21-5.52-9.01v-13.7
		c0.02-5.58,4.55-10.09,10.12-10.11h5.52C650.04,44.73,654.56,49.24,654.58,54.82z"/>
	<circle class="st1" cx="641.7" cy="128.38" r="8.09"/>
	<path class="st1" d="M654.58,148.32v13.7c-0.01,3.79-2.13,7.26-5.51,9v15.22c0.14,4.07-3.05,7.49-7.12,7.63
		c-4.07,0.14-7.49-3.05-7.63-7.12c-0.01-0.17-0.01-0.34,0-0.5v-15.21c-3.38-1.74-5.5-5.21-5.52-9.01v-13.7
		c0.02-5.58,4.55-10.09,10.12-10.11h5.52C650.04,138.23,654.56,142.74,654.58,148.32z"/>
	<circle class="st1" cx="641.7" cy="221.88" r="8.09"/>
	<path class="st1" d="M654.58,241.82v13.7c-0.01,3.79-2.13,7.26-5.51,9v15.22c0.14,4.07-3.05,7.49-7.12,7.63
		c-4.07,0.14-7.49-3.05-7.63-7.12c-0.01-0.17-0.01-0.34,0-0.5v-15.21c-3.38-1.74-5.5-5.21-5.52-9.01v-13.7
		c0.02-5.58,4.55-10.09,10.12-10.11h5.52C650.04,231.73,654.56,236.25,654.58,241.82z"/>
	<circle class="st1" cx="641.7" cy="315.38" r="8.09"/>
	<path class="st1" d="M654.58,335.32v13.7c-0.01,3.79-2.13,7.26-5.51,9v15.22c0.14,4.07-3.05,7.49-7.12,7.63
		c-4.07,0.14-7.49-3.05-7.63-7.12c-0.01-0.17-0.01-0.34,0-0.5v-15.21c-3.38-1.74-5.5-5.21-5.52-9.01v-13.7
		c0.02-5.58,4.55-10.09,10.12-10.11h5.52C650.04,325.23,654.56,329.75,654.58,335.32z"/>
	<circle class="st2" cx="641.7" cy="408.88" r="8.09"/>
	<path class="st2" d="M654.58,428.83v13.7c-0.01,3.79-2.13,7.26-5.51,9v15.22c0.14,4.07-3.05,7.49-7.12,7.63
		c-4.07,0.14-7.49-3.05-7.63-7.12c-0.01-0.17-0.01-0.34,0-0.5v-15.21c-3.38-1.74-5.5-5.21-5.52-9.01v-13.7
		c0.02-5.58,4.55-10.09,10.12-10.11h5.52C650.04,418.73,654.56,423.25,654.58,428.83z"/>
	<circle class="st2" cx="641.7" cy="502.38" r="8.09"/>
	<path class="st2" d="M654.58,522.33v13.7c-0.01,3.79-2.13,7.26-5.51,9v15.22c0.14,4.07-3.05,7.49-7.12,7.63
		c-4.07,0.14-7.49-3.05-7.63-7.12c-0.01-0.17-0.01-0.34,0-0.5v-15.21c-3.38-1.74-5.5-5.21-5.52-9.01v-13.7
		c0.02-5.58,4.55-10.09,10.12-10.11h5.52C650.04,512.23,654.56,516.75,654.58,522.33z"/>
	<circle class="st2" cx="641.7" cy="595.88" r="8.09"/>
	<path class="st2" d="M654.58,615.83v13.7c-0.01,3.79-2.13,7.26-5.51,9v15.22c0.14,4.07-3.05,7.49-7.12,7.63
		c-4.07,0.14-7.49-3.05-7.63-7.12c-0.01-0.17-0.01-0.34,0-0.5v-15.21c-3.38-1.74-5.5-5.21-5.52-9.01v-13.7
		c0.02-5.58,4.55-10.09,10.12-10.11h5.52C650.04,605.73,654.56,610.25,654.58,615.83z"/>
	<circle class="st2" cx="641.7" cy="689.38" r="8.09"/>
	<path class="st2" d="M654.58,709.33v13.7c-0.01,3.79-2.13,7.26-5.51,9v15.22c0.14,4.07-3.05,7.49-7.12,7.63
		c-4.07,0.14-7.49-3.05-7.63-7.12c-0.01-0.17-0.01-0.34,0-0.5v-15.21c-3.38-1.74-5.5-5.21-5.52-9.01v-13.7
		c0.02-5.58,4.55-10.09,10.12-10.11h5.52C650.04,699.24,654.56,703.75,654.58,709.33z"/>
	<circle class="st2" cx="641.7" cy="782.88" r="8.09"/>
	<path class="st2" d="M654.58,802.83v13.7c-0.01,3.79-2.13,7.26-5.51,9v15.22c0.14,4.07-3.05,7.49-7.12,7.63
		c-4.07,0.14-7.49-3.05-7.63-7.12c-0.01-0.17-0.01-0.34,0-0.5v-15.21c-3.38-1.74-5.5-5.21-5.52-9.01v-13.7
		c0.02-5.58,4.55-10.09,10.12-10.11h5.52C650.04,792.74,654.56,797.25,654.58,802.83z"/>
	<circle class="st2" cx="641.7" cy="876.38" r="8.09"/>
	<path class="st2" d="M654.58,896.33v13.7c-0.01,3.79-2.13,7.26-5.51,9v15.22c0.14,4.07-3.05,7.49-7.12,7.63
		c-4.07,0.14-7.49-3.05-7.63-7.12c-0.01-0.17-0.01-0.34,0-0.5v-15.21c-3.38-1.74-5.5-5.21-5.52-9.01v-13.7
		c0.02-5.58,4.55-10.09,10.12-10.11h5.52C650.04,886.24,654.56,890.75,654.58,896.33z"/>
</g>
<g>
	<circle class="st1" cx="738.7" cy="34.88" r="8.09"/>
	<path class="st1" d="M751.59,54.82v13.7c-0.01,3.79-2.13,7.26-5.51,9v15.22c0.14,4.07-3.05,7.49-7.12,7.63s-7.49-3.05-7.63-7.12
		c-0.01-0.17-0.01-0.34,0-0.5V77.53c-3.38-1.74-5.5-5.21-5.52-9.01v-13.7c0.02-5.58,4.55-10.09,10.12-10.11h5.52
		C747.04,44.73,751.56,49.24,751.59,54.82z"/>
	<circle class="st1" cx="738.7" cy="128.38" r="8.09"/>
	<path class="st1" d="M751.59,148.32v13.7c-0.01,3.79-2.13,7.26-5.51,9v15.22c0.14,4.07-3.05,7.49-7.12,7.63
		c-4.07,0.14-7.49-3.05-7.63-7.12c-0.01-0.17-0.01-0.34,0-0.5v-15.21c-3.38-1.74-5.5-5.21-5.52-9.01v-13.7
		c0.02-5.58,4.55-10.09,10.12-10.11h5.52C747.04,138.23,751.56,142.74,751.59,148.32z"/>
	<circle class="st1" cx="738.7" cy="221.88" r="8.09"/>
	<path class="st1" d="M751.59,241.82v13.7c-0.01,3.79-2.13,7.26-5.51,9v15.22c0.14,4.07-3.05,7.49-7.12,7.63
		c-4.07,0.14-7.49-3.05-7.63-7.12c-0.01-0.17-0.01-0.34,0-0.5v-15.21c-3.38-1.74-5.5-5.21-5.52-9.01v-13.7
		c0.02-5.58,4.55-10.09,10.12-10.11h5.52C747.04,231.73,751.56,236.25,751.59,241.82z"/>
	<circle class="st1" cx="738.7" cy="315.38" r="8.09"/>
	<path class="st1" d="M751.59,335.32v13.7c-0.01,3.79-2.13,7.26-5.51,9v15.22c0.14,4.07-3.05,7.49-7.12,7.63
		c-4.07,0.14-7.49-3.05-7.63-7.12c-0.01-0.17-0.01-0.34,0-0.5v-15.21c-3.38-1.74-5.5-5.21-5.52-9.01v-13.7
		c0.02-5.58,4.55-10.09,10.12-10.11h5.52C747.04,325.23,751.56,329.75,751.59,335.32z"/>
	<circle class="st2" cx="738.7" cy="408.88" r="8.09"/>
	<path class="st2" d="M751.59,428.83v13.7c-0.01,3.79-2.13,7.26-5.51,9v15.22c0.14,4.07-3.05,7.49-7.12,7.63
		c-4.07,0.14-7.49-3.05-7.63-7.12c-0.01-0.17-0.01-0.34,0-0.5v-15.21c-3.38-1.74-5.5-5.21-5.52-9.01v-13.7
		c0.02-5.58,4.55-10.09,10.12-10.11h5.52C747.04,418.73,751.56,423.25,751.59,428.83z"/>
	<circle class="st2" cx="738.7" cy="502.38" r="8.09"/>
	<path class="st2" d="M751.59,522.33v13.7c-0.01,3.79-2.13,7.26-5.51,9v15.22c0.14,4.07-3.05,7.49-7.12,7.63
		c-4.07,0.14-7.49-3.05-7.63-7.12c-0.01-0.17-0.01-0.34,0-0.5v-15.21c-3.38-1.74-5.5-5.21-5.52-9.01v-13.7
		c0.02-5.58,4.55-10.09,10.12-10.11h5.52C747.04,512.23,751.56,516.75,751.59,522.33z"/>
	<circle class="st2" cx="738.7" cy="595.88" r="8.09"/>
	<path class="st2" d="M751.59,615.83v13.7c-0.01,3.79-2.13,7.26-5.51,9v15.22c0.14,4.07-3.05,7.49-7.12,7.63s-7.49-3.05-7.63-7.12
		c-0.01-0.17-0.01-0.34,0-0.5v-15.21c-3.38-1.74-5.5-5.21-5.52-9.01v-13.7c0.02-5.58,4.55-10.09,10.12-10.11h5.52
		C747.04,605.73,751.56,610.25,751.59,615.83z"/>
	<circle class="st2" cx="738.7" cy="689.38" r="8.09"/>
	<path class="st2" d="M751.59,709.33v13.7c-0.01,3.79-2.13,7.26-5.51,9v15.22c0.14,4.07-3.05,7.49-7.12,7.63
		c-4.07,0.14-7.49-3.05-7.63-7.12c-0.01-0.17-0.01-0.34,0-0.5v-15.21c-3.38-1.74-5.5-5.21-5.52-9.01v-13.7
		c0.02-5.58,4.55-10.09,10.12-10.11h5.52C747.04,699.24,751.56,703.75,751.59,709.33z"/>
	<circle class="st2" cx="738.7" cy="782.88" r="8.09"/>
	<path class="st2" d="M751.59,802.83v13.7c-0.01,3.79-2.13,7.26-5.51,9v15.22c0.14,4.07-3.05,7.49-7.12,7.63s-7.49-3.05-7.63-7.12
		c-0.01-0.17-0.01-0.34,0-0.5v-15.21c-3.38-1.74-5.5-5.21-5.52-9.01v-13.7c0.02-5.58,4.55-10.09,10.12-10.11h5.52
		C747.04,792.74,751.56,797.25,751.59,802.83z"/>
	<circle class="st2" cx="738.7" cy="876.38" r="8.09"/>
	<path class="st2" d="M751.59,896.33v13.7c-0.01,3.79-2.13,7.26-5.51,9v15.22c0.14,4.07-3.05,7.49-7.12,7.63
		c-4.07,0.14-7.49-3.05-7.63-7.12c-0.01-0.17-0.01-0.34,0-0.5v-15.21c-3.38-1.74-5.5-5.21-5.52-9.01v-13.7
		c0.02-5.58,4.55-10.09,10.12-10.11h5.52C747.04,886.24,751.56,890.75,751.59,896.33z"/>
</g>
<g>
	<circle class="st1" cx="835.71" cy="34.88" r="8.09"/>
	<path class="st1" d="M848.59,54.82v13.7c-0.01,3.79-2.13,7.26-5.51,9v15.22c0.14,4.07-3.05,7.49-7.12,7.63s-7.49-3.05-7.63-7.12
		c-0.01-0.17-0.01-0.34,0-0.5V77.53c-3.38-1.74-5.5-5.21-5.52-9.01v-13.7c0.02-5.58,4.55-10.09,10.12-10.11h5.52
		C844.05,44.73,848.57,49.24,848.59,54.82z"/>
	<circle class="st1" cx="835.71" cy="128.38" r="8.09"/>
	<path class="st1" d="M848.59,148.32v13.7c-0.01,3.79-2.13,7.26-5.51,9v15.22c0.14,4.07-3.05,7.49-7.12,7.63
		c-4.07,0.14-7.49-3.05-7.63-7.12c-0.01-0.17-0.01-0.34,0-0.5v-15.21c-3.38-1.74-5.5-5.21-5.52-9.01v-13.7
		c0.02-5.58,4.55-10.09,10.12-10.11h5.52C844.05,138.23,848.57,142.74,848.59,148.32z"/>
	<circle class="st1" cx="835.71" cy="221.88" r="8.09"/>
	<path class="st1" d="M848.59,241.82v13.7c-0.01,3.79-2.13,7.26-5.51,9v15.22c0.14,4.07-3.05,7.49-7.12,7.63
		c-4.07,0.14-7.49-3.05-7.63-7.12c-0.01-0.17-0.01-0.34,0-0.5v-15.21c-3.38-1.74-5.5-5.21-5.52-9.01v-13.7
		c0.02-5.58,4.55-10.09,10.12-10.11h5.52C844.05,231.73,848.57,236.25,848.59,241.82z"/>
	<circle class="st1" cx="835.71" cy="315.38" r="8.09"/>
	<path class="st1" d="M848.59,335.32v13.7c-0.01,3.79-2.13,7.26-5.51,9v15.22c0.14,4.07-3.05,7.49-7.12,7.63
		c-4.07,0.14-7.49-3.05-7.63-7.12c-0.01-0.17-0.01-0.34,0-0.5v-15.21c-3.38-1.74-5.5-5.21-5.52-9.01v-13.7
		c0.02-5.58,4.55-10.09,10.12-10.11h5.52C844.05,325.23,848.57,329.75,848.59,335.32z"/>
	<circle class="st2" cx="835.71" cy="408.88" r="8.09"/>
	<path class="st2" d="M848.59,428.83v13.7c-0.01,3.79-2.13,7.26-5.51,9v15.22c0.14,4.07-3.05,7.49-7.12,7.63
		c-4.07,0.14-7.49-3.05-7.63-7.12c-0.01-0.17-0.01-0.34,0-0.5v-15.21c-3.38-1.74-5.5-5.21-5.52-9.01v-13.7
		c0.02-5.58,4.55-10.09,10.12-10.11h5.52C844.05,418.73,848.57,423.25,848.59,428.83z"/>
	<circle class="st2" cx="835.71" cy="502.38" r="8.09"/>
	<path class="st2" d="M848.59,522.33v13.7c-0.01,3.79-2.13,7.26-5.51,9v15.22c0.14,4.07-3.05,7.49-7.12,7.63
		c-4.07,0.14-7.49-3.05-7.63-7.12c-0.01-0.17-0.01-0.34,0-0.5v-15.21c-3.38-1.74-5.5-5.21-5.52-9.01v-13.7
		c0.02-5.58,4.55-10.09,10.12-10.11h5.52C844.05,512.23,848.57,516.75,848.59,522.33z"/>
	<circle class="st2" cx="835.71" cy="595.88" r="8.09"/>
	<path class="st2" d="M848.59,615.83v13.7c-0.01,3.79-2.13,7.26-5.51,9v15.22c0.14,4.07-3.05,7.49-7.12,7.63s-7.49-3.05-7.63-7.12
		c-0.01-0.17-0.01-0.34,0-0.5v-15.21c-3.38-1.74-5.5-5.21-5.52-9.01v-13.7c0.02-5.58,4.55-10.09,10.12-10.11h5.52
		C844.05,605.73,848.57,610.25,848.59,615.83z"/>
	<circle class="st2" cx="835.71" cy="689.38" r="8.09"/>
	<path class="st2" d="M848.59,709.33v13.7c-0.01,3.79-2.13,7.26-5.51,9v15.22c0.14,4.07-3.05,7.49-7.12,7.63
		c-4.07,0.14-7.49-3.05-7.63-7.12c-0.01-0.17-0.01-0.34,0-0.5v-15.21c-3.38-1.74-5.5-5.21-5.52-9.01v-13.7
		c0.02-5.58,4.55-10.09,10.12-10.11h5.52C844.05,699.24,848.57,703.75,848.59,709.33z"/>
	<circle class="st2" cx="835.71" cy="782.88" r="8.09"/>
	<path class="st2" d="M848.59,802.83v13.7c-0.01,3.79-2.13,7.26-5.51,9v15.22c0.14,4.07-3.05,7.49-7.12,7.63s-7.49-3.05-7.63-7.12
		c-0.01-0.17-0.01-0.34,0-0.5v-15.21c-3.38-1.74-5.5-5.21-5.52-9.01v-13.7c0.02-5.58,4.55-10.09,10.12-10.11h5.52
		C844.05,792.74,848.57,797.25,848.59,802.83z"/>
	<circle class="st2" cx="835.71" cy="876.38" r="8.09"/>
	<path class="st2" d="M848.59,896.33v13.7c-0.01,3.79-2.13,7.26-5.51,9v15.22c0.14,4.07-3.05,7.49-7.12,7.63
		c-4.07,0.14-7.49-3.05-7.63-7.12c-0.01-0.17-0.01-0.34,0-0.5v-15.21c-3.38-1.74-5.5-5.21-5.52-9.01v-13.7
		c0.02-5.58,4.55-10.09,10.12-10.11h5.52C844.05,886.24,848.57,890.75,848.59,896.33z"/>
</g>
<g>
	<circle class="st1" cx="932.71" cy="34.88" r="8.09"/>
	<path class="st1" d="M945.59,54.82v13.7c-0.01,3.79-2.13,7.26-5.51,9v15.22c0.14,4.07-3.05,7.49-7.12,7.63s-7.49-3.05-7.63-7.12
		c-0.01-0.17-0.01-0.34,0-0.5V77.53c-3.38-1.74-5.5-5.21-5.52-9.01v-13.7c0.02-5.58,4.55-10.09,10.12-10.11h5.52
		C941.05,44.73,945.57,49.24,945.59,54.82z"/>
	<circle class="st1" cx="932.71" cy="128.38" r="8.09"/>
	<path class="st1" d="M945.59,148.32v13.7c-0.01,3.79-2.13,7.26-5.51,9v15.22c0.14,4.07-3.05,7.49-7.12,7.63
		c-4.07,0.14-7.49-3.05-7.63-7.12c-0.01-0.17-0.01-0.34,0-0.5v-15.21c-3.38-1.74-5.5-5.21-5.52-9.01v-13.7
		c0.02-5.58,4.55-10.09,10.12-10.11h5.52C941.05,138.23,945.57,142.74,945.59,148.32z"/>
	<circle class="st1" cx="932.71" cy="221.88" r="8.09"/>
	<path class="st1" d="M945.59,241.82v13.7c-0.01,3.79-2.13,7.26-5.51,9v15.22c0.14,4.07-3.05,7.49-7.12,7.63
		c-4.07,0.14-7.49-3.05-7.63-7.12c-0.01-0.17-0.01-0.34,0-0.5v-15.21c-3.38-1.74-5.5-5.21-5.52-9.01v-13.7
		c0.02-5.58,4.55-10.09,10.12-10.11h5.52C941.05,231.73,945.57,236.25,945.59,241.82z"/>
	<circle class="st1" cx="932.71" cy="315.38" r="8.09"/>
	<path class="st1" d="M945.59,335.32v13.7c-0.01,3.79-2.13,7.26-5.51,9v15.22c0.14,4.07-3.05,7.49-7.12,7.63
		c-4.07,0.14-7.49-3.05-7.63-7.12c-0.01-0.17-0.01-0.34,0-0.5v-15.21c-3.38-1.74-5.5-5.21-5.52-9.01v-13.7
		c0.02-5.58,4.55-10.09,10.12-10.11h5.52C941.05,325.23,945.57,329.75,945.59,335.32z"/>
	<circle class="st2" cx="932.71" cy="408.88" r="8.09"/>
	<path class="st2" d="M945.59,428.83v13.7c-0.01,3.79-2.13,7.26-5.51,9v15.22c0.14,4.07-3.05,7.49-7.12,7.63
		c-4.07,0.14-7.49-3.05-7.63-7.12c-0.01-0.17-0.01-0.34,0-0.5v-15.21c-3.38-1.74-5.5-5.21-5.52-9.01v-13.7
		c0.02-5.58,4.55-10.09,10.12-10.11h5.52C941.05,418.73,945.57,423.25,945.59,428.83z"/>
	<circle class="st2" cx="932.71" cy="502.38" r="8.09"/>
	<path class="st2" d="M945.59,522.33v13.7c-0.01,3.79-2.13,7.26-5.51,9v15.22c0.14,4.07-3.05,7.49-7.12,7.63
		c-4.07,0.14-7.49-3.05-7.63-7.12c-0.01-0.17-0.01-0.34,0-0.5v-15.21c-3.38-1.74-5.5-5.21-5.52-9.01v-13.7
		c0.02-5.58,4.55-10.09,10.12-10.11h5.52C941.05,512.23,945.57,516.75,945.59,522.33z"/>
	<circle class="st2" cx="932.71" cy="595.88" r="8.09"/>
	<path class="st2" d="M945.59,615.83v13.7c-0.01,3.79-2.13,7.26-5.51,9v15.22c0.14,4.07-3.05,7.49-7.12,7.63s-7.49-3.05-7.63-7.12
		c-0.01-0.17-0.01-0.34,0-0.5v-15.21c-3.38-1.74-5.5-5.21-5.52-9.01v-13.7c0.02-5.58,4.55-10.09,10.12-10.11h5.52
		C941.05,605.73,945.57,610.25,945.59,615.83z"/>
	<circle class="st2" cx="932.71" cy="689.38" r="8.09"/>
	<path class="st2" d="M945.59,709.33v13.7c-0.01,3.79-2.13,7.26-5.51,9v15.22c0.14,4.07-3.05,7.49-7.12,7.63
		c-4.07,0.14-7.49-3.05-7.63-7.12c-0.01-0.17-0.01-0.34,0-0.5v-15.21c-3.38-1.74-5.5-5.21-5.52-9.01v-13.7
		c0.02-5.58,4.55-10.09,10.12-10.11h5.52C941.05,699.24,945.57,703.75,945.59,709.33z"/>
	<circle class="st2" cx="932.71" cy="782.88" r="8.09"/>
	<path class="st2" d="M945.59,802.83v13.7c-0.01,3.79-2.13,7.26-5.51,9v15.22c0.14,4.07-3.05,7.49-7.12,7.63s-7.49-3.05-7.63-7.12
		c-0.01-0.17-0.01-0.34,0-0.5v-15.21c-3.38-1.74-5.5-5.21-5.52-9.01v-13.7c0.02-5.58,4.55-10.09,10.12-10.11h5.52
		C941.05,792.74,945.57,797.25,945.59,802.83z"/>
	<circle class="st2" cx="932.71" cy="876.38" r="8.09"/>
	<path class="st2" d="M945.59,896.33v13.7c-0.01,3.79-2.13,7.26-5.51,9v15.22c0.14,4.07-3.05,7.49-7.12,7.63
		c-4.07,0.14-7.49-3.05-7.63-7.12c-0.01-0.17-0.01-0.34,0-0.5v-15.21c-3.38-1.74-5.5-5.21-5.52-9.01v-13.7
		c0.02-5.58,4.55-10.09,10.12-10.11h5.52C941.05,886.24,945.57,890.75,945.59,896.33z"/>
</g>
<rect x="957.5" y="334" class="st0" width="726" height="359"/>
<g>
	<g>
		<path class="st3" d="M1207.37,408.62v-29.21h10.31c3.28,0,5.85,0.81,7.68,2.43c1.84,1.62,2.76,3.91,2.76,6.88
			c0,2.94-0.92,5.22-2.76,6.84c-1.84,1.62-4.4,2.43-7.68,2.43h-4.95v10.62H1207.37z M1212.73,393.36h4.95c1.65,0,2.89-0.44,3.73-1.3
			c0.84-0.87,1.26-1.98,1.26-3.33c0-1.38-0.42-2.51-1.26-3.4c-0.84-0.88-2.08-1.33-3.73-1.33h-4.95V393.36z"/>
		<path class="st3" d="M1242.22,409.25c-2,0-3.8-0.43-5.41-1.28c-1.61-0.85-2.89-2.13-3.84-3.84c-0.94-1.7-1.42-3.84-1.42-6.4
			c0-2.61,0.47-4.77,1.42-6.48c0.95-1.71,2.22-2.98,3.84-3.82c1.61-0.84,3.42-1.26,5.41-1.26c1.96,0,3.75,0.42,5.34,1.26
			s2.87,2.11,3.81,3.82s1.42,3.87,1.42,6.48c0,2.56-0.47,4.7-1.42,6.4c-0.95,1.7-2.22,2.98-3.81,3.84S1244.19,409.25,1242.22,409.25
			z M1242.04,404.61c1.05,0,1.98-0.26,2.8-0.78s1.46-1.29,1.93-2.31c0.47-1.02,0.71-2.29,0.71-3.8c0-2.31-0.45-4.05-1.36-5.22
			s-2.15-1.75-3.72-1.75c-1.07,0-2.01,0.26-2.83,0.78s-1.47,1.29-1.95,2.33c-0.47,1.03-0.71,2.33-0.71,3.87c0,2.28,0.46,4,1.38,5.15
			C1239.22,404.04,1240.47,404.61,1242.04,404.61z"/>
		<path class="st3" d="M1267.24,409.25c-2.1,0-3.9-0.29-5.41-0.87c-1.51-0.58-2.67-1.41-3.48-2.5c-0.81-1.09-1.22-2.4-1.24-3.93
			h4.91c0.04,1.08,0.47,1.87,1.28,2.36c0.81,0.5,1.91,0.74,3.31,0.74c0.76,0,1.44-0.11,2.04-0.34s1.05-0.53,1.38-0.92
			c0.33-0.39,0.5-0.82,0.5-1.3c0-0.62-0.22-1.1-0.66-1.45c-0.44-0.35-1.15-0.68-2.13-0.98l-4.77-1.71
			c-1.71-0.62-3.02-1.42-3.94-2.43c-0.92-1-1.37-2.21-1.37-3.6c0-1.84,0.84-3.33,2.51-4.47c1.67-1.13,3.91-1.7,6.72-1.7
			c2.79,0,4.95,0.61,6.47,1.83s2.31,2.77,2.35,4.65h-5c-0.08-0.72-0.42-1.29-1.04-1.71s-1.54-0.63-2.79-0.63
			c-1.13,0-2.01,0.23-2.64,0.69c-0.64,0.46-0.96,0.99-0.96,1.61c0,1.04,0.88,1.82,2.66,2.34l5.17,1.94c1.68,0.57,2.98,1.3,3.92,2.21
			c0.93,0.9,1.39,2.04,1.39,3.42c0,1.16-0.39,2.25-1.16,3.27c-0.77,1.03-1.85,1.86-3.23,2.51
			C1270.66,408.93,1269.06,409.25,1267.24,409.25z"/>
		<path class="st3" d="M1280.09,390.3v-3.51h14.31v3.51H1280.09z M1290.22,409.25c-1.29,0-2.47-0.24-3.54-0.72
			c-1.07-0.48-1.93-1.22-2.57-2.21c-0.64-0.99-0.96-2.25-0.96-3.78v-21.55h5.31v21.38c0,1.8,0.86,2.7,2.57,2.7
			c0.52,0,1.05-0.06,1.58-0.18c0.52-0.12,1.13-0.3,1.8-0.54l0.76,3.73c-0.84,0.33-1.66,0.61-2.45,0.83
			C1291.92,409.14,1291.08,409.25,1290.22,409.25z"/>
		<path class="st3" d="M1309,419.91c-2.5,0-4.65-0.34-6.42-1.04c-1.78-0.69-3.14-1.59-4.08-2.71c-0.95-1.12-1.42-2.33-1.42-3.63
			c0-1.54,0.56-2.74,1.69-3.59s2.54-1.27,4.25-1.27l3.87,1.44c-1.47,0-2.6,0.28-3.4,0.83c-0.8,0.55-1.19,1.33-1.19,2.32
			c0,1.04,0.6,1.86,1.79,2.49c1.19,0.62,2.83,0.93,4.92,0.93c1.52,0,2.83-0.23,3.94-0.68c1.11-0.45,1.97-1.04,2.58-1.75
			c0.61-0.72,0.91-1.49,0.91-2.29c0-0.54-0.18-0.98-0.54-1.33c-0.36-0.35-0.92-0.52-1.67-0.52h-7.33c-1.47,0-2.81-0.24-4.02-0.71
			c-1.21-0.47-2.17-1.11-2.88-1.91c-0.71-0.8-1.07-1.7-1.07-2.69c0-0.91,0.25-1.71,0.77-2.37c0.51-0.67,1.2-1.18,2.08-1.54
			c0.88-0.36,1.86-0.54,2.96-0.54l1.35,1.76c-0.43,0-0.85,0.09-1.25,0.26c-0.4,0.17-0.72,0.42-0.98,0.75
			c-0.25,0.33-0.38,0.74-0.38,1.24c0,0.6,0.25,1.09,0.76,1.46c0.51,0.38,1.39,0.56,2.66,0.56h7.33c2.32,0,4.15,0.43,5.48,1.28
			c1.33,0.86,1.99,2.17,1.99,3.94c0,1.58-0.52,3.07-1.55,4.49s-2.5,2.58-4.4,3.48C1313.84,419.46,1311.6,419.91,1309,419.91z
			 M1309.27,401.87c-1.73,0-3.3-0.33-4.74-0.98c-1.43-0.65-2.58-1.56-3.43-2.73c-0.85-1.17-1.28-2.54-1.28-4.12
			c0-1.6,0.43-3,1.28-4.18c0.86-1.19,2-2.1,3.43-2.73c1.43-0.64,3.01-0.96,4.74-0.96c1.68,0,3.23,0.32,4.66,0.96
			c1.42,0.64,2.57,1.55,3.44,2.73c0.87,1.18,1.31,2.58,1.31,4.18c0,1.58-0.44,2.95-1.31,4.12s-2.02,2.08-3.44,2.73
			C1312.5,401.54,1310.95,401.87,1309.27,401.87z M1309.32,398.18c1.38,0,2.42-0.4,3.1-1.19c0.69-0.79,1.04-1.78,1.04-2.95
			c0-1.26-0.35-2.27-1.05-3.04c-0.7-0.76-1.74-1.15-3.14-1.15c-1.35,0-2.38,0.38-3.11,1.15c-0.72,0.77-1.08,1.78-1.08,3.04
			c0,1.17,0.36,2.15,1.09,2.95S1307.95,398.18,1309.32,398.18z M1317.01,389.67l-2.43-1.4c0-1.31,0.3-2.45,0.91-3.43
			c0.61-0.98,1.42-1.74,2.43-2.28c1.01-0.54,2.13-0.81,3.36-0.81l-0.27,5.08c-1.31,0-2.3,0.23-2.98,0.69
			S1317.01,388.7,1317.01,389.67z"/>
		<path class="st3" d="M1326.78,408.62V386.7h5.31v21.92H1326.78z M1330.78,399.03c0-2.87,0.32-5.23,0.97-7.11
			c0.65-1.88,1.51-3.27,2.6-4.17c1.09-0.91,2.3-1.36,3.63-1.36c0.36,0,0.7,0.02,1.02,0.07c0.32,0.04,0.64,0.11,0.96,0.2l-0.09,5.31
			c-0.39-0.09-0.81-0.17-1.26-0.23c-0.45-0.06-0.85-0.09-1.21-0.09c-1.17,0-2.15,0.28-2.94,0.84c-0.79,0.56-1.38,1.39-1.78,2.49
			s-0.6,2.44-0.6,4.05H1330.78z"/>
		<path class="st3" d="M1351.19,409.25c-1.88,0-3.44-0.33-4.69-0.98c-1.25-0.65-2.19-1.51-2.82-2.58s-0.95-2.22-0.95-3.46
			c0-1.38,0.36-2.54,1.09-3.48s1.76-1.64,3.09-2.12s2.91-0.71,4.72-0.71c1.18,0,2.31,0.09,3.36,0.27c1.06,0.18,2.11,0.42,3.16,0.72
			v3.11c-0.83-0.27-1.73-0.48-2.7-0.63c-0.98-0.15-1.89-0.22-2.75-0.22c-1.26,0-2.29,0.23-3.1,0.7c-0.81,0.46-1.22,1.25-1.22,2.36
			c0,0.81,0.33,1.51,0.99,2.09c0.66,0.59,1.71,0.88,3.15,0.88c1.09,0,2.02-0.24,2.79-0.72c0.76-0.48,1.35-1.08,1.74-1.8
			c0.4-0.72,0.6-1.44,0.6-2.16h1.26c0,1.58-0.29,3.03-0.88,4.35s-1.45,2.39-2.6,3.18C1354.3,408.85,1352.88,409.25,1351.19,409.25z
			 M1358.34,408.62l-0.67-5.31v-8.78c0-1.53-0.31-2.66-0.93-3.4c-0.62-0.74-1.68-1.1-3.16-1.1c-0.86,0-1.6,0.13-2.23,0.38
			c-0.63,0.25-1.11,0.62-1.45,1.09c-0.34,0.47-0.51,1.05-0.51,1.72h-5.8c0-1.65,0.4-3,1.19-4.04s1.94-1.81,3.43-2.29
			c1.49-0.49,3.28-0.73,5.37-0.73c1.89,0,3.54,0.3,4.95,0.91c1.41,0.61,2.5,1.54,3.29,2.8c0.78,1.26,1.17,2.87,1.17,4.84v13.91
			H1358.34z"/>
		<path class="st3" d="M1378.82,409.25c-1.83,0-3.5-0.48-5.01-1.45c-1.51-0.97-2.71-2.32-3.6-4.07s-1.34-3.79-1.34-6.13
			c0-2.31,0.43-4.32,1.29-6.04c0.86-1.72,2.02-3.04,3.46-3.98c1.45-0.94,3.06-1.41,4.83-1.41c1.62,0,3.02,0.39,4.21,1.16
			c1.18,0.77,2.09,1.92,2.72,3.43c0.63,1.52,0.95,3.38,0.95,5.58h-1.67c0-1.14-0.23-2.11-0.7-2.91s-1.08-1.42-1.83-1.85
			s-1.58-0.64-2.46-0.64c-1.07,0-2.01,0.28-2.82,0.83c-0.82,0.55-1.46,1.33-1.92,2.33c-0.46,1-0.7,2.16-0.7,3.5
			c0,1.38,0.23,2.58,0.7,3.6s1.11,1.81,1.92,2.38c0.82,0.57,1.74,0.86,2.78,0.86c0.84,0,1.65-0.23,2.42-0.69s1.4-1.1,1.89-1.92
			s0.73-1.79,0.73-2.88h1.67c0,2.29-0.34,4.2-1.02,5.73c-0.68,1.52-1.59,2.67-2.73,3.43
			C1381.44,408.87,1380.18,409.25,1378.82,409.25z M1385.66,408.62l-0.99-5.4v-25.47h5.36v30.87H1385.66z"/>
		<path class="st3" d="M1406.99,409.25c-2,0-3.8-0.43-5.41-1.28c-1.61-0.85-2.89-2.13-3.84-3.84c-0.94-1.7-1.42-3.84-1.42-6.4
			c0-2.61,0.47-4.77,1.42-6.48c0.95-1.71,2.22-2.98,3.84-3.82c1.61-0.84,3.42-1.26,5.41-1.26c1.96,0,3.75,0.42,5.34,1.26
			s2.87,2.11,3.81,3.82s1.42,3.87,1.42,6.48c0,2.56-0.47,4.7-1.42,6.4c-0.95,1.7-2.22,2.98-3.81,3.84S1408.95,409.25,1406.99,409.25
			z M1406.81,404.61c1.05,0,1.98-0.26,2.8-0.78s1.46-1.29,1.93-2.31c0.47-1.02,0.71-2.29,0.71-3.8c0-2.31-0.45-4.05-1.36-5.22
			s-2.15-1.75-3.72-1.75c-1.07,0-2.01,0.26-2.83,0.78s-1.47,1.29-1.95,2.33c-0.47,1.03-0.71,2.33-0.71,3.87c0,2.28,0.46,4,1.38,5.15
			C1403.98,404.04,1405.23,404.61,1406.81,404.61z"/>
	</g>
</g>
<path class="st2" d="M1099.44,523.81l20.45-20.45v14.9c0,1,0.41,1.91,1.06,2.56s1.56,1.06,2.56,1.06c2,0,3.62-1.62,3.62-3.62v-23.64
	c0-0.47-0.09-0.95-0.28-1.39c-0.01-0.02-0.02-0.03-0.03-0.05c-0.18-0.4-0.42-0.78-0.75-1.12c-0.33-0.33-0.71-0.57-1.12-0.75
	c-0.02-0.01-0.03-0.02-0.05-0.03c-0.45-0.18-0.92-0.28-1.4-0.28h-23.64c-2,0-3.62,1.62-3.62,3.62c0,1,0.41,1.91,1.06,2.56
	c0.65,0.66,1.56,1.06,2.56,1.06l14.9,0l-20.45,20.45c-12.16-9.61-29.9-8.83-41.12,2.39c-12.09,12.09-12.09,31.76,0,43.85
	c12.09,12.09,31.76,12.09,43.85,0C1108.26,553.71,1109.05,535.97,1099.44,523.81z M1058.31,559.82c-9.27-9.27-9.27-24.34,0-33.61
	c9.26-9.26,24.34-9.26,33.61,0c9.26,9.27,9.26,24.34,0,33.61C1082.65,569.08,1067.58,569.08,1058.31,559.82z"/>
<path class="st1" d="M1417.5,521.67c0-16.54-13.46-30-30-30c-16.54,0-30,13.46-30,30c0,15.53,11.86,28.34,27,29.85V568h-10.75
	c-1.66,0-3,1.34-3,3s1.34,3,3,3h10.75v10.33c0,1.66,1.34,3,3,3s3-1.34,3-3V574h11.25c1.66,0,3-1.34,3-3s-1.34-3-3-3h-11.25v-16.48
	C1405.64,550.01,1417.5,537.2,1417.5,521.67z M1387.5,545.67c-13.23,0-24-10.77-24-24s10.77-24,24-24c13.23,0,24,10.77,24,24
	S1400.73,545.67,1387.5,545.67z"/>
<g>
	<g>
		<path class="st3" d="M1471.91,511.97h7.98v28.77h7.91v7.07h-7.91v10.08h-8.19v-10.08h-23.03v-6.23L1471.91,511.97z
			 M1472.12,524.22l-13.65,17.36h13.65V524.22z"/>
		<path class="st3" d="M1510.69,558.87c-2.4,0-4.73-0.33-6.96-0.98c-2.24-0.65-4.25-1.62-6.02-2.91s-3.18-2.88-4.22-4.78
			c-1.04-1.9-1.56-4.1-1.56-6.6h8.68c0.09,1.59,0.57,2.96,1.43,4.11c0.86,1.15,2.04,2.04,3.52,2.66c1.48,0.62,3.19,0.93,5.13,0.93
			c2.85,0,5.08-0.65,6.68-1.96c1.61-1.31,2.42-2.96,2.42-4.97c0-1.31-0.33-2.43-0.98-3.38c-0.65-0.95-1.66-1.67-3.01-2.17
			s-3.08-0.75-5.18-0.75h-6.02v-6.51h5.11c2.66,0,4.75-0.57,6.27-1.72c1.52-1.14,2.27-2.69,2.27-4.66c0-1.75-0.65-3.21-1.96-4.39
			c-1.31-1.18-3.27-1.77-5.88-1.77c-2.12,0-4.02,0.43-5.69,1.29c-1.67,0.86-2.74,2.37-3.2,4.52h-8.68c0.33-3.1,1.27-5.63,2.82-7.59
			c1.55-1.96,3.56-3.4,6.04-4.32c2.47-0.92,5.26-1.38,8.37-1.38c3.29,0,6.22,0.54,8.79,1.61c2.57,1.07,4.59,2.56,6.07,4.46
			c1.48,1.9,2.22,4.1,2.22,6.6c0,2.31-0.63,4.32-1.89,6.04c-1.26,1.71-3.13,2.99-5.6,3.83c2.75,0.93,4.96,2.32,6.62,4.17
			c1.66,1.84,2.48,4.14,2.48,6.89c0,2.68-0.75,5.06-2.26,7.12c-1.51,2.07-3.61,3.68-6.32,4.85
			C1517.46,558.29,1514.3,558.87,1510.69,558.87z"/>
	</g>
</g>
<g>
	<g>
		<path class="st3" d="M1180.48,558.87c-3.27,0-6.15-0.57-8.65-1.7c-2.5-1.13-4.46-2.78-5.9-4.95c-1.43-2.17-2.19-4.81-2.26-7.91
			h8.4c0,2.33,0.81,4.08,2.42,5.25c1.61,1.17,3.61,1.75,5.99,1.75c2.54,0,4.63-0.82,6.25-2.47c1.62-1.64,2.43-3.67,2.43-6.07
			c0-4.67-3.13-7-9.38-7h-13.86l2.1-23.31h27.23v7.56h-20.58l1.61-2.38l-1.33,13.51l-0.7-0.77c1.12-0.26,2.45-0.45,3.99-0.58
			c1.54-0.13,2.87-0.19,3.99-0.19c4.69,0,8.43,1.14,11.22,3.41c2.79,2.28,4.18,5.53,4.18,9.75c0,3.01-0.71,5.73-2.14,8.17
			s-3.42,4.37-5.98,5.79C1186.94,558.16,1183.93,558.87,1180.48,558.87z"/>
		<path class="st3" d="M1203.51,557.89l20.79-37.45h-22.19v-7.98h31.92v7.91l-19.39,37.52H1203.51z"/>
	</g>
</g>
</svg>
