<?xml version="1.0" encoding="utf-8"?>
<!-- Generator: Adobe Illustrator 24.0.2, SVG Export Plug-In . SVG Version: 6.00 Build 0)  -->
<svg version="1.1" id="Capa_1" xmlns="http://www.w3.org/2000/svg" xmlns:xlink="http://www.w3.org/1999/xlink" x="0px" y="0px"
	 viewBox="0 0 874 1043" style="enable-background:new 0 0 874 1043;" xml:space="preserve">
<style type="text/css">
	.st0{fill:#252525;}
	.st1{fill:#49ADA4;}
	.st2{fill:#B3E6E0;}
	.st3{fill:#FFFFFF;}
</style>
<rect x="21" y="960" class="st0" width="825" height="72"/>
<circle class="st1" cx="61.18" cy="44.38" r="8.09"/>
<path class="st1" d="M74.06,64.32v13.7c-0.01,3.79-2.13,7.26-5.51,9v15.22c0.14,4.07-3.05,7.49-7.12,7.63s-7.49-3.05-7.63-7.12
	c-0.01-0.17-0.01-0.34,0-0.5V87.03c-3.38-1.74-5.5-5.21-5.52-9.01v-13.7c0.02-5.58,4.55-10.09,10.12-10.11h5.52
	C69.52,54.23,74.04,58.74,74.06,64.32z"/>
<circle class="st1" cx="142.4" cy="44.38" r="8.09"/>
<path class="st1" d="M155.29,64.32v13.7c-0.01,3.79-2.13,7.26-5.51,9v15.22c0.14,4.07-3.05,7.49-7.12,7.63
	c-4.07,0.14-7.49-3.05-7.63-7.12c-0.01-0.17-0.01-0.34,0-0.5V87.03c-3.38-1.74-5.5-5.21-5.52-9.01v-13.7
	c0.02-5.58,4.55-10.09,10.12-10.11h5.52C150.74,54.23,155.27,58.74,155.29,64.32z"/>
<circle class="st1" cx="223.63" cy="44.38" r="8.09"/>
<path class="st1" d="M236.51,64.32v13.7c-0.01,3.79-2.13,7.26-5.51,9v15.22c0.14,4.07-3.05,7.49-7.12,7.63
	c-4.07,0.14-7.49-3.05-7.63-7.12c-0.01-0.17-0.01-0.34,0-0.5V87.03c-3.38-1.74-5.5-5.21-5.52-9.01v-13.7
	c0.02-5.58,4.55-10.09,10.12-10.11h5.52C231.97,54.23,236.49,58.74,236.51,64.32z"/>
<circle class="st1" cx="304.85" cy="44.38" r="8.09"/>
<path class="st1" d="M317.74,64.32v13.7c-0.01,3.79-2.13,7.26-5.51,9v15.22c0.14,4.07-3.05,7.49-7.12,7.63s-7.49-3.05-7.63-7.12
	c-0.01-0.17-0.01-0.34,0-0.5V87.03c-3.38-1.74-5.5-5.21-5.52-9.01v-13.7c0.02-5.58,4.55-10.09,10.12-10.11h5.52
	C313.2,54.23,317.72,58.74,317.74,64.32z"/>
<circle class="st1" cx="386.08" cy="44.38" r="8.09"/>
<path class="st1" d="M398.97,64.32v13.7c-0.01,3.79-2.13,7.26-5.51,9v15.22c0.14,4.07-3.05,7.49-7.12,7.63
	c-4.07,0.14-7.49-3.05-7.63-7.12c-0.01-0.17-0.01-0.34,0-0.5V87.03c-3.38-1.74-5.5-5.21-5.52-9.01v-13.7
	c0.02-5.58,4.55-10.09,10.12-10.11h5.52C394.42,54.23,398.94,58.74,398.97,64.32z"/>
<circle class="st1" cx="467.31" cy="44.38" r="8.09"/>
<path class="st1" d="M480.19,64.32v13.7c-0.01,3.79-2.13,7.26-5.51,9v15.22c0.14,4.07-3.05,7.49-7.12,7.63
	c-4.07,0.14-7.49-3.05-7.63-7.12c-0.01-0.17-0.01-0.34,0-0.5V87.03c-3.38-1.74-5.5-5.21-5.52-9.01v-13.7
	c0.02-5.58,4.55-10.09,10.12-10.11h5.52C475.65,54.23,480.17,58.74,480.19,64.32z"/>
<circle class="st1" cx="548.53" cy="44.38" r="8.09"/>
<path class="st1" d="M561.42,64.32v13.7c-0.01,3.79-2.13,7.26-5.51,9v15.22c0.14,4.07-3.05,7.49-7.12,7.63s-7.49-3.05-7.63-7.12
	c-0.01-0.17-0.01-0.34,0-0.5V87.03c-3.38-1.74-5.5-5.21-5.52-9.01v-13.7c0.02-5.58,4.55-10.09,10.12-10.11h5.52
	C556.87,54.23,561.39,58.74,561.42,64.32z"/>
<circle class="st1" cx="629.76" cy="44.38" r="8.09"/>
<path class="st1" d="M642.64,64.32v13.7c-0.01,3.79-2.13,7.26-5.51,9v15.22c0.14,4.07-3.05,7.49-7.12,7.63s-7.49-3.05-7.63-7.12
	c-0.01-0.17-0.01-0.34,0-0.5V87.03c-3.38-1.74-5.5-5.21-5.52-9.01v-13.7c0.02-5.58,4.55-10.09,10.12-10.11h5.52
	C638.1,54.23,642.62,58.74,642.64,64.32z"/>
<circle class="st1" cx="710.98" cy="44.38" r="8.09"/>
<path class="st1" d="M723.87,64.32v13.7c-0.01,3.79-2.13,7.26-5.51,9v15.22c0.14,4.07-3.05,7.49-7.12,7.63s-7.49-3.05-7.63-7.12
	c-0.01-0.17-0.01-0.34,0-0.5V87.03c-3.38-1.74-5.5-5.21-5.52-9.01v-13.7c0.02-5.58,4.55-10.09,10.12-10.11h5.52
	C719.32,54.23,723.85,58.74,723.87,64.32z"/>
<circle class="st1" cx="792.21" cy="44.38" r="8.09"/>
<path class="st1" d="M805.1,64.32v13.7c-0.01,3.79-2.13,7.26-5.51,9v15.22c0.14,4.07-3.05,7.49-7.12,7.63s-7.49-3.05-7.63-7.12
	c-0.01-0.17-0.01-0.34,0-0.5V87.03c-3.38-1.74-5.5-5.21-5.52-9.01v-13.7c0.02-5.58,4.55-10.09,10.12-10.11h5.52
	C800.55,54.23,805.07,58.74,805.1,64.32z"/>
<circle class="st1" cx="61.18" cy="137.88" r="8.09"/>
<path class="st1" d="M74.06,157.82v13.7c-0.01,3.79-2.13,7.26-5.51,9v15.22c0.14,4.07-3.05,7.49-7.12,7.63
	c-4.07,0.14-7.49-3.05-7.63-7.12c-0.01-0.17-0.01-0.34,0-0.5v-15.21c-3.38-1.74-5.5-5.21-5.52-9.01v-13.7
	c0.02-5.58,4.55-10.09,10.12-10.11h5.52C69.52,147.73,74.04,152.24,74.06,157.82z"/>
<circle class="st1" cx="142.4" cy="137.88" r="8.09"/>
<path class="st1" d="M155.29,157.82v13.7c-0.01,3.79-2.13,7.26-5.51,9v15.22c0.14,4.07-3.05,7.49-7.12,7.63
	c-4.07,0.14-7.49-3.05-7.63-7.12c-0.01-0.17-0.01-0.34,0-0.5v-15.21c-3.38-1.74-5.5-5.21-5.52-9.01v-13.7
	c0.02-5.58,4.55-10.09,10.12-10.11h5.52C150.74,147.73,155.27,152.24,155.29,157.82z"/>
<circle class="st1" cx="223.63" cy="137.88" r="8.09"/>
<path class="st1" d="M236.51,157.82v13.7c-0.01,3.79-2.13,7.26-5.51,9v15.22c0.14,4.07-3.05,7.49-7.12,7.63
	c-4.07,0.14-7.49-3.05-7.63-7.12c-0.01-0.17-0.01-0.34,0-0.5v-15.21c-3.38-1.74-5.5-5.21-5.52-9.01v-13.7
	c0.02-5.58,4.55-10.09,10.12-10.11h5.52C231.97,147.73,236.49,152.24,236.51,157.82z"/>
<circle class="st1" cx="304.85" cy="137.88" r="8.09"/>
<path class="st1" d="M317.74,157.82v13.7c-0.01,3.79-2.13,7.26-5.51,9v15.22c0.14,4.07-3.05,7.49-7.12,7.63
	c-4.07,0.14-7.49-3.05-7.63-7.12c-0.01-0.17-0.01-0.34,0-0.5v-15.21c-3.38-1.74-5.5-5.21-5.52-9.01v-13.7
	c0.02-5.58,4.55-10.09,10.12-10.11h5.52C313.2,147.73,317.72,152.24,317.74,157.82z"/>
<circle class="st1" cx="386.08" cy="137.88" r="8.09"/>
<path class="st1" d="M398.97,157.82v13.7c-0.01,3.79-2.13,7.26-5.51,9v15.22c0.14,4.07-3.05,7.49-7.12,7.63
	c-4.07,0.14-7.49-3.05-7.63-7.12c-0.01-0.17-0.01-0.34,0-0.5v-15.21c-3.38-1.74-5.5-5.21-5.52-9.01v-13.7
	c0.02-5.58,4.55-10.09,10.12-10.11h5.52C394.42,147.73,398.94,152.24,398.97,157.82z"/>
<circle class="st1" cx="467.31" cy="137.88" r="8.09"/>
<path class="st1" d="M480.19,157.82v13.7c-0.01,3.79-2.13,7.26-5.51,9v15.22c0.14,4.07-3.05,7.49-7.12,7.63
	c-4.07,0.14-7.49-3.05-7.63-7.12c-0.01-0.17-0.01-0.34,0-0.5v-15.21c-3.38-1.74-5.5-5.21-5.52-9.01v-13.7
	c0.02-5.58,4.55-10.09,10.12-10.11h5.52C475.65,147.73,480.17,152.24,480.19,157.82z"/>
<circle class="st1" cx="548.53" cy="137.88" r="8.09"/>
<path class="st1" d="M561.42,157.82v13.7c-0.01,3.79-2.13,7.26-5.51,9v15.22c0.14,4.07-3.05,7.49-7.12,7.63
	c-4.07,0.14-7.49-3.05-7.63-7.12c-0.01-0.17-0.01-0.34,0-0.5v-15.21c-3.38-1.74-5.5-5.21-5.52-9.01v-13.7
	c0.02-5.58,4.55-10.09,10.12-10.11h5.52C556.87,147.73,561.39,152.24,561.42,157.82z"/>
<circle class="st1" cx="629.76" cy="137.88" r="8.09"/>
<path class="st1" d="M642.64,157.82v13.7c-0.01,3.79-2.13,7.26-5.51,9v15.22c0.14,4.07-3.05,7.49-7.12,7.63
	c-4.07,0.14-7.49-3.05-7.63-7.12c-0.01-0.17-0.01-0.34,0-0.5v-15.21c-3.38-1.74-5.5-5.21-5.52-9.01v-13.7
	c0.02-5.58,4.55-10.09,10.12-10.11h5.52C638.1,147.73,642.62,152.24,642.64,157.82z"/>
<circle class="st1" cx="710.98" cy="137.88" r="8.09"/>
<path class="st1" d="M723.87,157.82v13.7c-0.01,3.79-2.13,7.26-5.51,9v15.22c0.14,4.07-3.05,7.49-7.12,7.63
	c-4.07,0.14-7.49-3.05-7.63-7.12c-0.01-0.17-0.01-0.34,0-0.5v-15.21c-3.38-1.74-5.5-5.21-5.52-9.01v-13.7
	c0.02-5.58,4.55-10.09,10.12-10.11h5.52C719.32,147.73,723.85,152.24,723.87,157.82z"/>
<circle class="st1" cx="792.21" cy="137.88" r="8.09"/>
<path class="st1" d="M805.1,157.82v13.7c-0.01,3.79-2.13,7.26-5.51,9v15.22c0.14,4.07-3.05,7.49-7.12,7.63
	c-4.07,0.14-7.49-3.05-7.63-7.12c-0.01-0.17-0.01-0.34,0-0.5v-15.21c-3.38-1.74-5.5-5.21-5.52-9.01v-13.7
	c0.02-5.58,4.55-10.09,10.12-10.11h5.52C800.55,147.73,805.07,152.24,805.1,157.82z"/>
<circle class="st1" cx="61.18" cy="231.38" r="8.09"/>
<path class="st1" d="M74.06,251.32v13.7c-0.01,3.79-2.13,7.26-5.51,9v15.22c0.14,4.07-3.05,7.49-7.12,7.63
	c-4.07,0.14-7.49-3.05-7.63-7.12c-0.01-0.17-0.01-0.34,0-0.5v-15.21c-3.38-1.74-5.5-5.21-5.52-9.01v-13.7
	c0.02-5.58,4.55-10.09,10.12-10.11h5.52C69.52,241.23,74.04,245.75,74.06,251.32z"/>
<circle class="st1" cx="142.4" cy="231.38" r="8.09"/>
<path class="st1" d="M155.29,251.32v13.7c-0.01,3.79-2.13,7.26-5.51,9v15.22c0.14,4.07-3.05,7.49-7.12,7.63
	c-4.07,0.14-7.49-3.05-7.63-7.12c-0.01-0.17-0.01-0.34,0-0.5v-15.21c-3.38-1.74-5.5-5.21-5.52-9.01v-13.7
	c0.02-5.58,4.55-10.09,10.12-10.11h5.52C150.74,241.23,155.27,245.75,155.29,251.32z"/>
<circle class="st1" cx="223.63" cy="231.38" r="8.09"/>
<path class="st1" d="M236.51,251.32v13.7c-0.01,3.79-2.13,7.26-5.51,9v15.22c0.14,4.07-3.05,7.49-7.12,7.63
	c-4.07,0.14-7.49-3.05-7.63-7.12c-0.01-0.17-0.01-0.34,0-0.5v-15.21c-3.38-1.74-5.5-5.21-5.52-9.01v-13.7
	c0.02-5.58,4.55-10.09,10.12-10.11h5.52C231.97,241.23,236.49,245.75,236.51,251.32z"/>
<circle class="st1" cx="304.85" cy="231.38" r="8.09"/>
<path class="st1" d="M317.74,251.32v13.7c-0.01,3.79-2.13,7.26-5.51,9v15.22c0.14,4.07-3.05,7.49-7.12,7.63
	c-4.07,0.14-7.49-3.05-7.63-7.12c-0.01-0.17-0.01-0.34,0-0.5v-15.21c-3.38-1.74-5.5-5.21-5.52-9.01v-13.7
	c0.02-5.58,4.55-10.09,10.12-10.11h5.52C313.2,241.23,317.72,245.75,317.74,251.32z"/>
<circle class="st1" cx="386.08" cy="231.38" r="8.09"/>
<path class="st1" d="M398.97,251.32v13.7c-0.01,3.79-2.13,7.26-5.51,9v15.22c0.14,4.07-3.05,7.49-7.12,7.63
	c-4.07,0.14-7.49-3.05-7.63-7.12c-0.01-0.17-0.01-0.34,0-0.5v-15.21c-3.38-1.74-5.5-5.21-5.52-9.01v-13.7
	c0.02-5.58,4.55-10.09,10.12-10.11h5.52C394.42,241.23,398.94,245.75,398.97,251.32z"/>
<circle class="st1" cx="467.31" cy="231.38" r="8.09"/>
<path class="st1" d="M480.19,251.32v13.7c-0.01,3.79-2.13,7.26-5.51,9v15.22c0.14,4.07-3.05,7.49-7.12,7.63
	c-4.07,0.14-7.49-3.05-7.63-7.12c-0.01-0.17-0.01-0.34,0-0.5v-15.21c-3.38-1.74-5.5-5.21-5.52-9.01v-13.7
	c0.02-5.58,4.55-10.09,10.12-10.11h5.52C475.65,241.23,480.17,245.75,480.19,251.32z"/>
<circle class="st1" cx="548.53" cy="231.38" r="8.09"/>
<path class="st1" d="M561.42,251.32v13.7c-0.01,3.79-2.13,7.26-5.51,9v15.22c0.14,4.07-3.05,7.49-7.12,7.63
	c-4.07,0.14-7.49-3.05-7.63-7.12c-0.01-0.17-0.01-0.34,0-0.5v-15.21c-3.38-1.74-5.5-5.21-5.52-9.01v-13.7
	c0.02-5.58,4.55-10.09,10.12-10.11h5.52C556.87,241.23,561.39,245.75,561.42,251.32z"/>
<circle class="st1" cx="629.76" cy="231.38" r="8.09"/>
<path class="st1" d="M642.64,251.32v13.7c-0.01,3.79-2.13,7.26-5.51,9v15.22c0.14,4.07-3.05,7.49-7.12,7.63
	c-4.07,0.14-7.49-3.05-7.63-7.12c-0.01-0.17-0.01-0.34,0-0.5v-15.21c-3.38-1.74-5.5-5.21-5.52-9.01v-13.7
	c0.02-5.58,4.55-10.09,10.12-10.11h5.52C638.1,241.23,642.62,245.75,642.64,251.32z"/>
<circle class="st1" cx="710.98" cy="231.38" r="8.09"/>
<path class="st1" d="M723.87,251.32v13.7c-0.01,3.79-2.13,7.26-5.51,9v15.22c0.14,4.07-3.05,7.49-7.12,7.63
	c-4.07,0.14-7.49-3.05-7.63-7.12c-0.01-0.17-0.01-0.34,0-0.5v-15.21c-3.38-1.74-5.5-5.21-5.52-9.01v-13.7
	c0.02-5.58,4.55-10.09,10.12-10.11h5.52C719.32,241.23,723.85,245.75,723.87,251.32z"/>
<circle class="st1" cx="792.21" cy="231.38" r="8.09"/>
<path class="st1" d="M805.1,251.32v13.7c-0.01,3.79-2.13,7.26-5.51,9v15.22c0.14,4.07-3.05,7.49-7.12,7.63
	c-4.07,0.14-7.49-3.05-7.63-7.12c-0.01-0.17-0.01-0.34,0-0.5v-15.21c-3.38-1.74-5.5-5.21-5.52-9.01v-13.7
	c0.02-5.58,4.55-10.09,10.12-10.11h5.52C800.55,241.23,805.07,245.75,805.1,251.32z"/>
<circle class="st1" cx="61.18" cy="324.88" r="8.09"/>
<path class="st1" d="M74.06,344.82v13.7c-0.01,3.79-2.13,7.26-5.51,9v15.22c0.14,4.07-3.05,7.49-7.12,7.63
	c-4.07,0.14-7.49-3.05-7.63-7.12c-0.01-0.17-0.01-0.34,0-0.5v-15.21c-3.38-1.74-5.5-5.21-5.52-9.01v-13.7
	c0.02-5.58,4.55-10.09,10.12-10.11h5.52C69.52,334.73,74.04,339.25,74.06,344.82z"/>
<circle class="st1" cx="142.4" cy="324.88" r="8.09"/>
<path class="st1" d="M155.29,344.82v13.7c-0.01,3.79-2.13,7.26-5.51,9v15.22c0.14,4.07-3.05,7.49-7.12,7.63
	c-4.07,0.14-7.49-3.05-7.63-7.12c-0.01-0.17-0.01-0.34,0-0.5v-15.21c-3.38-1.74-5.5-5.21-5.52-9.01v-13.7
	c0.02-5.58,4.55-10.09,10.12-10.11h5.52C150.74,334.73,155.27,339.25,155.29,344.82z"/>
<circle class="st1" cx="223.63" cy="324.88" r="8.09"/>
<path class="st1" d="M236.51,344.82v13.7c-0.01,3.79-2.13,7.26-5.51,9v15.22c0.14,4.07-3.05,7.49-7.12,7.63
	c-4.07,0.14-7.49-3.05-7.63-7.12c-0.01-0.17-0.01-0.34,0-0.5v-15.21c-3.38-1.74-5.5-5.21-5.52-9.01v-13.7
	c0.02-5.58,4.55-10.09,10.12-10.11h5.52C231.97,334.73,236.49,339.25,236.51,344.82z"/>
<circle class="st1" cx="304.85" cy="324.88" r="8.09"/>
<path class="st1" d="M317.74,344.82v13.7c-0.01,3.79-2.13,7.26-5.51,9v15.22c0.14,4.07-3.05,7.49-7.12,7.63
	c-4.07,0.14-7.49-3.05-7.63-7.12c-0.01-0.17-0.01-0.34,0-0.5v-15.21c-3.38-1.74-5.5-5.21-5.52-9.01v-13.7
	c0.02-5.58,4.55-10.09,10.12-10.11h5.52C313.2,334.73,317.72,339.25,317.74,344.82z"/>
<circle class="st1" cx="386.08" cy="324.88" r="8.09"/>
<path class="st1" d="M398.97,344.82v13.7c-0.01,3.79-2.13,7.26-5.51,9v15.22c0.14,4.07-3.05,7.49-7.12,7.63
	c-4.07,0.14-7.49-3.05-7.63-7.12c-0.01-0.17-0.01-0.34,0-0.5v-15.21c-3.38-1.74-5.5-5.21-5.52-9.01v-13.7
	c0.02-5.58,4.55-10.09,10.12-10.11h5.52C394.42,334.73,398.94,339.25,398.97,344.82z"/>
<circle class="st1" cx="467.31" cy="324.88" r="8.09"/>
<path class="st1" d="M480.19,344.82v13.7c-0.01,3.79-2.13,7.26-5.51,9v15.22c0.14,4.07-3.05,7.49-7.12,7.63
	c-4.07,0.14-7.49-3.05-7.63-7.12c-0.01-0.17-0.01-0.34,0-0.5v-15.21c-3.38-1.74-5.5-5.21-5.52-9.01v-13.7
	c0.02-5.58,4.55-10.09,10.12-10.11h5.52C475.65,334.73,480.17,339.25,480.19,344.82z"/>
<circle class="st1" cx="548.53" cy="324.88" r="8.09"/>
<path class="st1" d="M561.42,344.82v13.7c-0.01,3.79-2.13,7.26-5.51,9v15.22c0.14,4.07-3.05,7.49-7.12,7.63
	c-4.07,0.14-7.49-3.05-7.63-7.12c-0.01-0.17-0.01-0.34,0-0.5v-15.21c-3.38-1.74-5.5-5.21-5.52-9.01v-13.7
	c0.02-5.58,4.55-10.09,10.12-10.11h5.52C556.87,334.73,561.39,339.25,561.42,344.82z"/>
<g>
	<circle class="st2" cx="629.76" cy="324.88" r="8.09"/>
	<path class="st2" d="M642.64,344.82v13.7c-0.01,3.79-2.13,7.26-5.51,9v15.22c0.14,4.07-3.05,7.49-7.12,7.63
		c-4.07,0.14-7.49-3.05-7.63-7.12c-0.01-0.17-0.01-0.34,0-0.5v-15.21c-3.38-1.74-5.5-5.21-5.52-9.01v-13.7
		c0.02-5.58,4.55-10.09,10.12-10.11h5.52C638.1,334.73,642.62,339.25,642.64,344.82z"/>
	<circle class="st2" cx="710.98" cy="324.88" r="8.09"/>
	<path class="st2" d="M723.87,344.82v13.7c-0.01,3.79-2.13,7.26-5.51,9v15.22c0.14,4.07-3.05,7.49-7.12,7.63
		c-4.07,0.14-7.49-3.05-7.63-7.12c-0.01-0.17-0.01-0.34,0-0.5v-15.21c-3.38-1.74-5.5-5.21-5.52-9.01v-13.7
		c0.02-5.58,4.55-10.09,10.12-10.11h5.52C719.32,334.73,723.85,339.25,723.87,344.82z"/>
	<circle class="st2" cx="792.21" cy="324.88" r="8.09"/>
	<path class="st2" d="M805.1,344.82v13.7c-0.01,3.79-2.13,7.26-5.51,9v15.22c0.14,4.07-3.05,7.49-7.12,7.63
		c-4.07,0.14-7.49-3.05-7.63-7.12c-0.01-0.17-0.01-0.34,0-0.5v-15.21c-3.38-1.74-5.5-5.21-5.52-9.01v-13.7
		c0.02-5.58,4.55-10.09,10.12-10.11h5.52C800.55,334.73,805.07,339.25,805.1,344.82z"/>
</g>
<circle class="st2" cx="61.18" cy="418.38" r="8.09"/>
<path class="st2" d="M74.06,438.33v13.7c-0.01,3.79-2.13,7.26-5.51,9v15.22c0.14,4.07-3.05,7.49-7.12,7.63
	c-4.07,0.14-7.49-3.05-7.63-7.12c-0.01-0.17-0.01-0.34,0-0.5v-15.21c-3.38-1.74-5.5-5.21-5.52-9.01v-13.7
	c0.02-5.58,4.55-10.09,10.12-10.11h5.52C69.52,428.23,74.04,432.75,74.06,438.33z"/>
<circle class="st2" cx="142.4" cy="418.38" r="8.09"/>
<path class="st2" d="M155.29,438.33v13.7c-0.01,3.79-2.13,7.26-5.51,9v15.22c0.14,4.07-3.05,7.49-7.12,7.63
	c-4.07,0.14-7.49-3.05-7.63-7.12c-0.01-0.17-0.01-0.34,0-0.5v-15.21c-3.38-1.74-5.5-5.21-5.52-9.01v-13.7
	c0.02-5.58,4.55-10.09,10.12-10.11h5.52C150.74,428.23,155.27,432.75,155.29,438.33z"/>
<circle class="st2" cx="223.63" cy="418.38" r="8.09"/>
<path class="st2" d="M236.51,438.33v13.7c-0.01,3.79-2.13,7.26-5.51,9v15.22c0.14,4.07-3.05,7.49-7.12,7.63
	c-4.07,0.14-7.49-3.05-7.63-7.12c-0.01-0.17-0.01-0.34,0-0.5v-15.21c-3.38-1.74-5.5-5.21-5.52-9.01v-13.7
	c0.02-5.58,4.55-10.09,10.12-10.11h5.52C231.97,428.23,236.49,432.75,236.51,438.33z"/>
<circle class="st2" cx="304.85" cy="418.38" r="8.09"/>
<path class="st2" d="M317.74,438.33v13.7c-0.01,3.79-2.13,7.26-5.51,9v15.22c0.14,4.07-3.05,7.49-7.12,7.63
	c-4.07,0.14-7.49-3.05-7.63-7.12c-0.01-0.17-0.01-0.34,0-0.5v-15.21c-3.38-1.74-5.5-5.21-5.52-9.01v-13.7
	c0.02-5.58,4.55-10.09,10.12-10.11h5.52C313.2,428.23,317.72,432.75,317.74,438.33z"/>
<circle class="st2" cx="386.08" cy="418.38" r="8.09"/>
<path class="st2" d="M398.97,438.33v13.7c-0.01,3.79-2.13,7.26-5.51,9v15.22c0.14,4.07-3.05,7.49-7.12,7.63
	c-4.07,0.14-7.49-3.05-7.63-7.12c-0.01-0.17-0.01-0.34,0-0.5v-15.21c-3.38-1.74-5.5-5.21-5.52-9.01v-13.7
	c0.02-5.58,4.55-10.09,10.12-10.11h5.52C394.42,428.23,398.94,432.75,398.97,438.33z"/>
<circle class="st2" cx="467.31" cy="418.38" r="8.09"/>
<path class="st2" d="M480.19,438.33v13.7c-0.01,3.79-2.13,7.26-5.51,9v15.22c0.14,4.07-3.05,7.49-7.12,7.63
	c-4.07,0.14-7.49-3.05-7.63-7.12c-0.01-0.17-0.01-0.34,0-0.5v-15.21c-3.38-1.74-5.5-5.21-5.52-9.01v-13.7
	c0.02-5.58,4.55-10.09,10.12-10.11h5.52C475.65,428.23,480.17,432.75,480.19,438.33z"/>
<circle class="st2" cx="548.53" cy="418.38" r="8.09"/>
<path class="st2" d="M561.42,438.33v13.7c-0.01,3.79-2.13,7.26-5.51,9v15.22c0.14,4.07-3.05,7.49-7.12,7.63
	c-4.07,0.14-7.49-3.05-7.63-7.12c-0.01-0.17-0.01-0.34,0-0.5v-15.21c-3.38-1.74-5.5-5.21-5.52-9.01v-13.7
	c0.02-5.58,4.55-10.09,10.12-10.11h5.52C556.87,428.23,561.39,432.75,561.42,438.33z"/>
<circle class="st2" cx="629.76" cy="418.38" r="8.09"/>
<path class="st2" d="M642.64,438.33v13.7c-0.01,3.79-2.13,7.26-5.51,9v15.22c0.14,4.07-3.05,7.49-7.12,7.63
	c-4.07,0.14-7.49-3.05-7.63-7.12c-0.01-0.17-0.01-0.34,0-0.5v-15.21c-3.38-1.74-5.5-5.21-5.52-9.01v-13.7
	c0.02-5.58,4.55-10.09,10.12-10.11h5.52C638.1,428.23,642.62,432.75,642.64,438.33z"/>
<circle class="st2" cx="710.98" cy="418.38" r="8.09"/>
<path class="st2" d="M723.87,438.33v13.7c-0.01,3.79-2.13,7.26-5.51,9v15.22c0.14,4.07-3.05,7.49-7.12,7.63
	c-4.07,0.14-7.49-3.05-7.63-7.12c-0.01-0.17-0.01-0.34,0-0.5v-15.21c-3.38-1.74-5.5-5.21-5.52-9.01v-13.7
	c0.02-5.58,4.55-10.09,10.12-10.11h5.52C719.32,428.23,723.85,432.75,723.87,438.33z"/>
<circle class="st2" cx="792.21" cy="418.38" r="8.09"/>
<path class="st2" d="M805.1,438.33v13.7c-0.01,3.79-2.13,7.26-5.51,9v15.22c0.14,4.07-3.05,7.49-7.12,7.63
	c-4.07,0.14-7.49-3.05-7.63-7.12c-0.01-0.17-0.01-0.34,0-0.5v-15.21c-3.38-1.74-5.5-5.21-5.52-9.01v-13.7
	c0.02-5.58,4.55-10.09,10.12-10.11h5.52C800.55,428.23,805.07,432.75,805.1,438.33z"/>
<circle class="st2" cx="61.18" cy="511.88" r="8.09"/>
<path class="st2" d="M74.06,531.83v13.7c-0.01,3.79-2.13,7.26-5.51,9v15.22c0.14,4.07-3.05,7.49-7.12,7.63s-7.49-3.05-7.63-7.12
	c-0.01-0.17-0.01-0.34,0-0.5v-15.21c-3.38-1.74-5.5-5.21-5.52-9.01v-13.7c0.02-5.58,4.55-10.09,10.12-10.11h5.52
	C69.52,521.73,74.04,526.25,74.06,531.83z"/>
<circle class="st2" cx="142.4" cy="511.88" r="8.09"/>
<path class="st2" d="M155.29,531.83v13.7c-0.01,3.79-2.13,7.26-5.51,9v15.22c0.14,4.07-3.05,7.49-7.12,7.63
	c-4.07,0.14-7.49-3.05-7.63-7.12c-0.01-0.17-0.01-0.34,0-0.5v-15.21c-3.38-1.74-5.5-5.21-5.52-9.01v-13.7
	c0.02-5.58,4.55-10.09,10.12-10.11h5.52C150.74,521.73,155.27,526.25,155.29,531.83z"/>
<circle class="st2" cx="223.63" cy="511.88" r="8.09"/>
<path class="st2" d="M236.51,531.83v13.7c-0.01,3.79-2.13,7.26-5.51,9v15.22c0.14,4.07-3.05,7.49-7.12,7.63
	c-4.07,0.14-7.49-3.05-7.63-7.12c-0.01-0.17-0.01-0.34,0-0.5v-15.21c-3.38-1.74-5.5-5.21-5.52-9.01v-13.7
	c0.02-5.58,4.55-10.09,10.12-10.11h5.52C231.97,521.73,236.49,526.25,236.51,531.83z"/>
<circle class="st2" cx="304.85" cy="511.88" r="8.09"/>
<path class="st2" d="M317.74,531.83v13.7c-0.01,3.79-2.13,7.26-5.51,9v15.22c0.14,4.07-3.05,7.49-7.12,7.63s-7.49-3.05-7.63-7.12
	c-0.01-0.17-0.01-0.34,0-0.5v-15.21c-3.38-1.74-5.5-5.21-5.52-9.01v-13.7c0.02-5.58,4.55-10.09,10.12-10.11h5.52
	C313.2,521.73,317.72,526.25,317.74,531.83z"/>
<circle class="st2" cx="386.08" cy="511.88" r="8.09"/>
<path class="st2" d="M398.97,531.83v13.7c-0.01,3.79-2.13,7.26-5.51,9v15.22c0.14,4.07-3.05,7.49-7.12,7.63
	c-4.07,0.14-7.49-3.05-7.63-7.12c-0.01-0.17-0.01-0.34,0-0.5v-15.21c-3.38-1.74-5.5-5.21-5.52-9.01v-13.7
	c0.02-5.58,4.55-10.09,10.12-10.11h5.52C394.42,521.73,398.94,526.25,398.97,531.83z"/>
<circle class="st2" cx="467.31" cy="511.88" r="8.09"/>
<path class="st2" d="M480.19,531.83v13.7c-0.01,3.79-2.13,7.26-5.51,9v15.22c0.14,4.07-3.05,7.49-7.12,7.63
	c-4.07,0.14-7.49-3.05-7.63-7.12c-0.01-0.17-0.01-0.34,0-0.5v-15.21c-3.38-1.74-5.5-5.21-5.52-9.01v-13.7
	c0.02-5.58,4.55-10.09,10.12-10.11h5.52C475.65,521.73,480.17,526.25,480.19,531.83z"/>
<circle class="st2" cx="548.53" cy="511.88" r="8.09"/>
<path class="st2" d="M561.42,531.83v13.7c-0.01,3.79-2.13,7.26-5.51,9v15.22c0.14,4.07-3.05,7.49-7.12,7.63s-7.49-3.05-7.63-7.12
	c-0.01-0.17-0.01-0.34,0-0.5v-15.21c-3.38-1.74-5.5-5.21-5.52-9.01v-13.7c0.02-5.58,4.55-10.09,10.12-10.11h5.52
	C556.87,521.73,561.39,526.25,561.42,531.83z"/>
<circle class="st2" cx="629.76" cy="511.88" r="8.09"/>
<path class="st2" d="M642.64,531.83v13.7c-0.01,3.79-2.13,7.26-5.51,9v15.22c0.14,4.07-3.05,7.49-7.12,7.63s-7.49-3.05-7.63-7.12
	c-0.01-0.17-0.01-0.34,0-0.5v-15.21c-3.38-1.74-5.5-5.21-5.52-9.01v-13.7c0.02-5.58,4.55-10.09,10.12-10.11h5.52
	C638.1,521.73,642.62,526.25,642.64,531.83z"/>
<circle class="st2" cx="710.98" cy="511.88" r="8.09"/>
<path class="st2" d="M723.87,531.83v13.7c-0.01,3.79-2.13,7.26-5.51,9v15.22c0.14,4.07-3.05,7.49-7.12,7.63s-7.49-3.05-7.63-7.12
	c-0.01-0.17-0.01-0.34,0-0.5v-15.21c-3.38-1.74-5.5-5.21-5.52-9.01v-13.7c0.02-5.58,4.55-10.09,10.12-10.11h5.52
	C719.32,521.73,723.85,526.25,723.87,531.83z"/>
<circle class="st2" cx="792.21" cy="511.88" r="8.09"/>
<path class="st2" d="M805.1,531.83v13.7c-0.01,3.79-2.13,7.26-5.51,9v15.22c0.14,4.07-3.05,7.49-7.12,7.63s-7.49-3.05-7.63-7.12
	c-0.01-0.17-0.01-0.34,0-0.5v-15.21c-3.38-1.74-5.5-5.21-5.52-9.01v-13.7c0.02-5.58,4.55-10.09,10.12-10.11h5.52
	C800.55,521.73,805.07,526.25,805.1,531.83z"/>
<circle class="st2" cx="61.18" cy="605.38" r="8.09"/>
<path class="st2" d="M74.06,625.33v13.7c-0.01,3.79-2.13,7.26-5.51,9v15.22c0.14,4.07-3.05,7.49-7.12,7.63
	c-4.07,0.14-7.49-3.05-7.63-7.12c-0.01-0.17-0.01-0.34,0-0.5v-15.21c-3.38-1.74-5.5-5.21-5.52-9.01v-13.7
	c0.02-5.58,4.55-10.09,10.12-10.11h5.52C69.52,615.23,74.04,619.75,74.06,625.33z"/>
<circle class="st2" cx="142.4" cy="605.38" r="8.09"/>
<path class="st2" d="M155.29,625.33v13.7c-0.01,3.79-2.13,7.26-5.51,9v15.22c0.14,4.07-3.05,7.49-7.12,7.63
	c-4.07,0.14-7.49-3.05-7.63-7.12c-0.01-0.17-0.01-0.34,0-0.5v-15.21c-3.38-1.74-5.5-5.21-5.52-9.01v-13.7
	c0.02-5.58,4.55-10.09,10.12-10.11h5.52C150.74,615.23,155.27,619.75,155.29,625.33z"/>
<circle class="st2" cx="223.63" cy="605.38" r="8.09"/>
<path class="st2" d="M236.51,625.33v13.7c-0.01,3.79-2.13,7.26-5.51,9v15.22c0.14,4.07-3.05,7.49-7.12,7.63
	c-4.07,0.14-7.49-3.05-7.63-7.12c-0.01-0.17-0.01-0.34,0-0.5v-15.21c-3.38-1.74-5.5-5.21-5.52-9.01v-13.7
	c0.02-5.58,4.55-10.09,10.12-10.11h5.52C231.97,615.23,236.49,619.75,236.51,625.33z"/>
<circle class="st2" cx="304.85" cy="605.38" r="8.09"/>
<path class="st2" d="M317.74,625.33v13.7c-0.01,3.79-2.13,7.26-5.51,9v15.22c0.14,4.07-3.05,7.49-7.12,7.63
	c-4.07,0.14-7.49-3.05-7.63-7.12c-0.01-0.17-0.01-0.34,0-0.5v-15.21c-3.38-1.74-5.5-5.21-5.52-9.01v-13.7
	c0.02-5.58,4.55-10.09,10.12-10.11h5.52C313.2,615.23,317.72,619.75,317.74,625.33z"/>
<circle class="st2" cx="386.08" cy="605.38" r="8.09"/>
<path class="st2" d="M398.97,625.33v13.7c-0.01,3.79-2.13,7.26-5.51,9v15.22c0.14,4.07-3.05,7.49-7.12,7.63
	c-4.07,0.14-7.49-3.05-7.63-7.12c-0.01-0.17-0.01-0.34,0-0.5v-15.21c-3.38-1.74-5.5-5.21-5.52-9.01v-13.7
	c0.02-5.58,4.55-10.09,10.12-10.11h5.52C394.42,615.23,398.94,619.75,398.97,625.33z"/>
<circle class="st2" cx="467.31" cy="605.38" r="8.09"/>
<path class="st2" d="M480.19,625.33v13.7c-0.01,3.79-2.13,7.26-5.51,9v15.22c0.14,4.07-3.05,7.49-7.12,7.63
	c-4.07,0.14-7.49-3.05-7.63-7.12c-0.01-0.17-0.01-0.34,0-0.5v-15.21c-3.38-1.74-5.5-5.21-5.52-9.01v-13.7
	c0.02-5.58,4.55-10.09,10.12-10.11h5.52C475.65,615.23,480.17,619.75,480.19,625.33z"/>
<circle class="st2" cx="548.53" cy="605.38" r="8.09"/>
<path class="st2" d="M561.42,625.33v13.7c-0.01,3.79-2.13,7.26-5.51,9v15.22c0.14,4.07-3.05,7.49-7.12,7.63
	c-4.07,0.14-7.49-3.05-7.63-7.12c-0.01-0.17-0.01-0.34,0-0.5v-15.21c-3.38-1.74-5.5-5.21-5.52-9.01v-13.7
	c0.02-5.58,4.55-10.09,10.12-10.11h5.52C556.87,615.23,561.39,619.75,561.42,625.33z"/>
<circle class="st2" cx="629.76" cy="605.38" r="8.09"/>
<path class="st2" d="M642.64,625.33v13.7c-0.01,3.79-2.13,7.26-5.51,9v15.22c0.14,4.07-3.05,7.49-7.12,7.63
	c-4.07,0.14-7.49-3.05-7.63-7.12c-0.01-0.17-0.01-0.34,0-0.5v-15.21c-3.38-1.74-5.5-5.21-5.52-9.01v-13.7
	c0.02-5.58,4.55-10.09,10.12-10.11h5.52C638.1,615.23,642.62,619.75,642.64,625.33z"/>
<circle class="st2" cx="710.98" cy="605.38" r="8.09"/>
<path class="st2" d="M723.87,625.33v13.7c-0.01,3.79-2.13,7.26-5.51,9v15.22c0.14,4.07-3.05,7.49-7.12,7.63
	c-4.07,0.14-7.49-3.05-7.63-7.12c-0.01-0.17-0.01-0.34,0-0.5v-15.21c-3.38-1.74-5.5-5.21-5.52-9.01v-13.7
	c0.02-5.58,4.55-10.09,10.12-10.11h5.52C719.32,615.23,723.85,619.75,723.87,625.33z"/>
<circle class="st2" cx="792.21" cy="605.38" r="8.09"/>
<path class="st2" d="M805.1,625.33v13.7c-0.01,3.79-2.13,7.26-5.51,9v15.22c0.14,4.07-3.05,7.49-7.12,7.63
	c-4.07,0.14-7.49-3.05-7.63-7.12c-0.01-0.17-0.01-0.34,0-0.5v-15.21c-3.38-1.74-5.5-5.21-5.52-9.01v-13.7
	c0.02-5.58,4.55-10.09,10.12-10.11h5.52C800.55,615.23,805.07,619.75,805.1,625.33z"/>
<circle class="st2" cx="61.18" cy="698.88" r="8.09"/>
<path class="st2" d="M74.06,718.83v13.7c-0.01,3.79-2.13,7.26-5.51,9v15.22c0.14,4.07-3.05,7.49-7.12,7.63s-7.49-3.05-7.63-7.12
	c-0.01-0.17-0.01-0.34,0-0.5v-15.21c-3.38-1.74-5.5-5.21-5.52-9.01v-13.7c0.02-5.58,4.55-10.09,10.12-10.11h5.52
	C69.52,708.74,74.04,713.25,74.06,718.83z"/>
<circle class="st2" cx="142.4" cy="698.88" r="8.09"/>
<path class="st2" d="M155.29,718.83v13.7c-0.01,3.79-2.13,7.26-5.51,9v15.22c0.14,4.07-3.05,7.49-7.12,7.63
	c-4.07,0.14-7.49-3.05-7.63-7.12c-0.01-0.17-0.01-0.34,0-0.5v-15.21c-3.38-1.74-5.5-5.21-5.52-9.01v-13.7
	c0.02-5.58,4.55-10.09,10.12-10.11h5.52C150.74,708.74,155.27,713.25,155.29,718.83z"/>
<circle class="st2" cx="223.63" cy="698.88" r="8.09"/>
<path class="st2" d="M236.51,718.83v13.7c-0.01,3.79-2.13,7.26-5.51,9v15.22c0.14,4.07-3.05,7.49-7.12,7.63
	c-4.07,0.14-7.49-3.05-7.63-7.12c-0.01-0.17-0.01-0.34,0-0.5v-15.21c-3.38-1.74-5.5-5.21-5.52-9.01v-13.7
	c0.02-5.58,4.55-10.09,10.12-10.11h5.52C231.97,708.74,236.49,713.25,236.51,718.83z"/>
<circle class="st2" cx="304.85" cy="698.88" r="8.09"/>
<path class="st2" d="M317.74,718.83v13.7c-0.01,3.79-2.13,7.26-5.51,9v15.22c0.14,4.07-3.05,7.49-7.12,7.63s-7.49-3.05-7.63-7.12
	c-0.01-0.17-0.01-0.34,0-0.5v-15.21c-3.38-1.74-5.5-5.21-5.52-9.01v-13.7c0.02-5.58,4.55-10.09,10.12-10.11h5.52
	C313.2,708.74,317.72,713.25,317.74,718.83z"/>
<circle class="st2" cx="386.08" cy="698.88" r="8.09"/>
<path class="st2" d="M398.97,718.83v13.7c-0.01,3.79-2.13,7.26-5.51,9v15.22c0.14,4.07-3.05,7.49-7.12,7.63
	c-4.07,0.14-7.49-3.05-7.63-7.12c-0.01-0.17-0.01-0.34,0-0.5v-15.21c-3.38-1.74-5.5-5.21-5.52-9.01v-13.7
	c0.02-5.58,4.55-10.09,10.12-10.11h5.52C394.42,708.74,398.94,713.25,398.97,718.83z"/>
<circle class="st2" cx="467.31" cy="698.88" r="8.09"/>
<path class="st2" d="M480.19,718.83v13.7c-0.01,3.79-2.13,7.26-5.51,9v15.22c0.14,4.07-3.05,7.49-7.12,7.63
	c-4.07,0.14-7.49-3.05-7.63-7.12c-0.01-0.17-0.01-0.34,0-0.5v-15.21c-3.38-1.74-5.5-5.21-5.52-9.01v-13.7
	c0.02-5.58,4.55-10.09,10.12-10.11h5.52C475.65,708.74,480.17,713.25,480.19,718.83z"/>
<circle class="st2" cx="548.53" cy="698.88" r="8.09"/>
<path class="st2" d="M561.42,718.83v13.7c-0.01,3.79-2.13,7.26-5.51,9v15.22c0.14,4.07-3.05,7.49-7.12,7.63s-7.49-3.05-7.63-7.12
	c-0.01-0.17-0.01-0.34,0-0.5v-15.21c-3.38-1.74-5.5-5.21-5.52-9.01v-13.7c0.02-5.58,4.55-10.09,10.12-10.11h5.52
	C556.87,708.74,561.39,713.25,561.42,718.83z"/>
<circle class="st2" cx="629.76" cy="698.88" r="8.09"/>
<path class="st2" d="M642.64,718.83v13.7c-0.01,3.79-2.13,7.26-5.51,9v15.22c0.14,4.07-3.05,7.49-7.12,7.63s-7.49-3.05-7.63-7.12
	c-0.01-0.17-0.01-0.34,0-0.5v-15.21c-3.38-1.74-5.5-5.21-5.52-9.01v-13.7c0.02-5.58,4.55-10.09,10.12-10.11h5.52
	C638.1,708.74,642.62,713.25,642.64,718.83z"/>
<circle class="st2" cx="710.98" cy="698.88" r="8.09"/>
<path class="st2" d="M723.87,718.83v13.7c-0.01,3.79-2.13,7.26-5.51,9v15.22c0.14,4.07-3.05,7.49-7.12,7.63s-7.49-3.05-7.63-7.12
	c-0.01-0.17-0.01-0.34,0-0.5v-15.21c-3.38-1.74-5.5-5.21-5.52-9.01v-13.7c0.02-5.58,4.55-10.09,10.12-10.11h5.52
	C719.32,708.74,723.85,713.25,723.87,718.83z"/>
<circle class="st2" cx="792.21" cy="698.88" r="8.09"/>
<path class="st2" d="M805.1,718.83v13.7c-0.01,3.79-2.13,7.26-5.51,9v15.22c0.14,4.07-3.05,7.49-7.12,7.63s-7.49-3.05-7.63-7.12
	c-0.01-0.17-0.01-0.34,0-0.5v-15.21c-3.38-1.74-5.5-5.21-5.52-9.01v-13.7c0.02-5.58,4.55-10.09,10.12-10.11h5.52
	C800.55,708.74,805.07,713.25,805.1,718.83z"/>
<circle class="st2" cx="61.18" cy="792.38" r="8.09"/>
<path class="st2" d="M74.06,812.33v13.7c-0.01,3.79-2.13,7.26-5.51,9v15.22c0.14,4.07-3.05,7.49-7.12,7.63
	c-4.07,0.14-7.49-3.05-7.63-7.12c-0.01-0.17-0.01-0.34,0-0.5v-15.21c-3.38-1.74-5.5-5.21-5.52-9.01v-13.7
	c0.02-5.58,4.55-10.09,10.12-10.11h5.52C69.52,802.24,74.04,806.75,74.06,812.33z"/>
<circle class="st2" cx="142.4" cy="792.38" r="8.09"/>
<path class="st2" d="M155.29,812.33v13.7c-0.01,3.79-2.13,7.26-5.51,9v15.22c0.14,4.07-3.05,7.49-7.12,7.63
	c-4.07,0.14-7.49-3.05-7.63-7.12c-0.01-0.17-0.01-0.34,0-0.5v-15.21c-3.38-1.74-5.5-5.21-5.52-9.01v-13.7
	c0.02-5.58,4.55-10.09,10.12-10.11h5.52C150.74,802.24,155.27,806.75,155.29,812.33z"/>
<circle class="st2" cx="223.63" cy="792.38" r="8.09"/>
<path class="st2" d="M236.51,812.33v13.7c-0.01,3.79-2.13,7.26-5.51,9v15.22c0.14,4.07-3.05,7.49-7.12,7.63
	c-4.07,0.14-7.49-3.05-7.63-7.12c-0.01-0.17-0.01-0.34,0-0.5v-15.21c-3.38-1.74-5.5-5.21-5.52-9.01v-13.7
	c0.02-5.58,4.55-10.09,10.12-10.11h5.52C231.97,802.24,236.49,806.75,236.51,812.33z"/>
<circle class="st2" cx="304.85" cy="792.38" r="8.09"/>
<path class="st2" d="M317.74,812.33v13.7c-0.01,3.79-2.13,7.26-5.51,9v15.22c0.14,4.07-3.05,7.49-7.12,7.63
	c-4.07,0.14-7.49-3.05-7.63-7.12c-0.01-0.17-0.01-0.34,0-0.5v-15.21c-3.38-1.74-5.5-5.21-5.52-9.01v-13.7
	c0.02-5.58,4.55-10.09,10.12-10.11h5.52C313.2,802.24,317.72,806.75,317.74,812.33z"/>
<circle class="st2" cx="386.08" cy="792.38" r="8.09"/>
<path class="st2" d="M398.97,812.33v13.7c-0.01,3.79-2.13,7.26-5.51,9v15.22c0.14,4.07-3.05,7.49-7.12,7.63
	c-4.07,0.14-7.49-3.05-7.63-7.12c-0.01-0.17-0.01-0.34,0-0.5v-15.21c-3.38-1.74-5.5-5.21-5.52-9.01v-13.7
	c0.02-5.58,4.55-10.09,10.12-10.11h5.52C394.42,802.24,398.94,806.75,398.97,812.33z"/>
<circle class="st2" cx="467.31" cy="792.38" r="8.09"/>
<path class="st2" d="M480.19,812.33v13.7c-0.01,3.79-2.13,7.26-5.51,9v15.22c0.14,4.07-3.05,7.49-7.12,7.63
	c-4.07,0.14-7.49-3.05-7.63-7.12c-0.01-0.17-0.01-0.34,0-0.5v-15.21c-3.38-1.74-5.5-5.21-5.52-9.01v-13.7
	c0.02-5.58,4.55-10.09,10.12-10.11h5.52C475.65,802.24,480.17,806.75,480.19,812.33z"/>
<circle class="st2" cx="548.53" cy="792.38" r="8.09"/>
<path class="st2" d="M561.42,812.33v13.7c-0.01,3.79-2.13,7.26-5.51,9v15.22c0.14,4.07-3.05,7.49-7.12,7.63
	c-4.07,0.14-7.49-3.05-7.63-7.12c-0.01-0.17-0.01-0.34,0-0.5v-15.21c-3.38-1.74-5.5-5.21-5.52-9.01v-13.7
	c0.02-5.58,4.55-10.09,10.12-10.11h5.52C556.87,802.24,561.39,806.75,561.42,812.33z"/>
<circle class="st2" cx="629.76" cy="792.38" r="8.09"/>
<path class="st2" d="M642.64,812.33v13.7c-0.01,3.79-2.13,7.26-5.51,9v15.22c0.14,4.07-3.05,7.49-7.12,7.63
	c-4.07,0.14-7.49-3.05-7.63-7.12c-0.01-0.17-0.01-0.34,0-0.5v-15.21c-3.38-1.74-5.5-5.21-5.52-9.01v-13.7
	c0.02-5.58,4.55-10.09,10.12-10.11h5.52C638.1,802.24,642.62,806.75,642.64,812.33z"/>
<circle class="st2" cx="710.98" cy="792.38" r="8.09"/>
<path class="st2" d="M723.87,812.33v13.7c-0.01,3.79-2.13,7.26-5.51,9v15.22c0.14,4.07-3.05,7.49-7.12,7.63
	c-4.07,0.14-7.49-3.05-7.63-7.12c-0.01-0.17-0.01-0.34,0-0.5v-15.21c-3.38-1.74-5.5-5.21-5.52-9.01v-13.7
	c0.02-5.58,4.55-10.09,10.12-10.11h5.52C719.32,802.24,723.85,806.75,723.87,812.33z"/>
<circle class="st2" cx="792.21" cy="792.38" r="8.09"/>
<path class="st2" d="M805.1,812.33v13.7c-0.01,3.79-2.13,7.26-5.51,9v15.22c0.14,4.07-3.05,7.49-7.12,7.63
	c-4.07,0.14-7.49-3.05-7.63-7.12c-0.01-0.17-0.01-0.34,0-0.5v-15.21c-3.38-1.74-5.5-5.21-5.52-9.01v-13.7
	c0.02-5.58,4.55-10.09,10.12-10.11h5.52C800.55,802.24,805.07,806.75,805.1,812.33z"/>
<circle class="st2" cx="61.18" cy="885.88" r="8.09"/>
<path class="st2" d="M74.06,905.83v13.7c-0.01,3.79-2.13,7.26-5.51,9v15.22c0.14,4.07-3.05,7.49-7.12,7.63s-7.49-3.05-7.63-7.12
	c-0.01-0.17-0.01-0.34,0-0.5v-15.21c-3.38-1.74-5.5-5.21-5.52-9.01v-13.7c0.02-5.58,4.55-10.09,10.12-10.11h5.52
	C69.52,895.74,74.04,900.25,74.06,905.83z"/>
<circle class="st2" cx="142.4" cy="885.88" r="8.09"/>
<path class="st2" d="M155.29,905.83v13.7c-0.01,3.79-2.13,7.26-5.51,9v15.22c0.14,4.07-3.05,7.49-7.12,7.63
	c-4.07,0.14-7.49-3.05-7.63-7.12c-0.01-0.17-0.01-0.34,0-0.5v-15.21c-3.38-1.74-5.5-5.21-5.52-9.01v-13.7
	c0.02-5.58,4.55-10.09,10.12-10.11h5.52C150.74,895.74,155.27,900.25,155.29,905.83z"/>
<circle class="st2" cx="223.63" cy="885.88" r="8.09"/>
<path class="st2" d="M236.51,905.83v13.7c-0.01,3.79-2.13,7.26-5.51,9v15.22c0.14,4.07-3.05,7.49-7.12,7.63
	c-4.07,0.14-7.49-3.05-7.63-7.12c-0.01-0.17-0.01-0.34,0-0.5v-15.21c-3.38-1.74-5.5-5.21-5.52-9.01v-13.7
	c0.02-5.58,4.55-10.09,10.12-10.11h5.52C231.97,895.74,236.49,900.25,236.51,905.83z"/>
<circle class="st2" cx="304.85" cy="885.88" r="8.09"/>
<path class="st2" d="M317.74,905.83v13.7c-0.01,3.79-2.13,7.26-5.51,9v15.22c0.14,4.07-3.05,7.49-7.12,7.63s-7.49-3.05-7.63-7.12
	c-0.01-0.17-0.01-0.34,0-0.5v-15.21c-3.38-1.74-5.5-5.21-5.52-9.01v-13.7c0.02-5.58,4.55-10.09,10.12-10.11h5.52
	C313.2,895.74,317.72,900.25,317.74,905.83z"/>
<circle class="st2" cx="386.08" cy="885.88" r="8.09"/>
<path class="st2" d="M398.97,905.83v13.7c-0.01,3.79-2.13,7.26-5.51,9v15.22c0.14,4.07-3.05,7.49-7.12,7.63
	c-4.07,0.14-7.49-3.05-7.63-7.12c-0.01-0.17-0.01-0.34,0-0.5v-15.21c-3.38-1.74-5.5-5.21-5.52-9.01v-13.7
	c0.02-5.58,4.55-10.09,10.12-10.11h5.52C394.42,895.74,398.94,900.25,398.97,905.83z"/>
<circle class="st2" cx="467.31" cy="885.88" r="8.09"/>
<path class="st2" d="M480.19,905.83v13.7c-0.01,3.79-2.13,7.26-5.51,9v15.22c0.14,4.07-3.05,7.49-7.12,7.63
	c-4.07,0.14-7.49-3.05-7.63-7.12c-0.01-0.17-0.01-0.34,0-0.5v-15.21c-3.38-1.74-5.5-5.21-5.52-9.01v-13.7
	c0.02-5.58,4.55-10.09,10.12-10.11h5.52C475.65,895.74,480.17,900.25,480.19,905.83z"/>
<circle class="st2" cx="548.53" cy="885.88" r="8.09"/>
<path class="st2" d="M561.42,905.83v13.7c-0.01,3.79-2.13,7.26-5.51,9v15.22c0.14,4.07-3.05,7.49-7.12,7.63s-7.49-3.05-7.63-7.12
	c-0.01-0.17-0.01-0.34,0-0.5v-15.21c-3.38-1.74-5.5-5.21-5.52-9.01v-13.7c0.02-5.58,4.55-10.09,10.12-10.11h5.52
	C556.87,895.74,561.39,900.25,561.42,905.83z"/>
<circle class="st2" cx="629.76" cy="885.88" r="8.09"/>
<path class="st2" d="M642.64,905.83v13.7c-0.01,3.79-2.13,7.26-5.51,9v15.22c0.14,4.07-3.05,7.49-7.12,7.63s-7.49-3.05-7.63-7.12
	c-0.01-0.17-0.01-0.34,0-0.5v-15.21c-3.38-1.74-5.5-5.21-5.52-9.01v-13.7c0.02-5.58,4.55-10.09,10.12-10.11h5.52
	C638.1,895.74,642.62,900.25,642.64,905.83z"/>
<circle class="st2" cx="710.98" cy="885.88" r="8.09"/>
<path class="st2" d="M723.87,905.83v13.7c-0.01,3.79-2.13,7.26-5.51,9v15.22c0.14,4.07-3.05,7.49-7.12,7.63s-7.49-3.05-7.63-7.12
	c-0.01-0.17-0.01-0.34,0-0.5v-15.21c-3.38-1.74-5.5-5.21-5.52-9.01v-13.7c0.02-5.58,4.55-10.09,10.12-10.11h5.52
	C719.32,895.74,723.85,900.25,723.87,905.83z"/>
<circle class="st2" cx="792.21" cy="885.88" r="8.09"/>
<path class="st2" d="M805.1,905.83v13.7c-0.01,3.79-2.13,7.26-5.51,9v15.22c0.14,4.07-3.05,7.49-7.12,7.63s-7.49-3.05-7.63-7.12
	c-0.01-0.17-0.01-0.34,0-0.5v-15.21c-3.38-1.74-5.5-5.21-5.52-9.01v-13.7c0.02-5.58,4.55-10.09,10.12-10.11h5.52
	C800.55,895.74,805.07,900.25,805.1,905.83z"/>
<g>
	<g>
		<path class="st3" d="M359.29,1004.2v-25.96h9.16c2.92,0,5.2,0.72,6.83,2.16c1.63,1.44,2.45,3.48,2.45,6.12
			c0,2.61-0.82,4.64-2.45,6.08c-1.63,1.44-3.91,2.16-6.83,2.16h-4.4v9.44H359.29z M364.05,990.64h4.4c1.47,0,2.57-0.39,3.32-1.16
			c0.75-0.77,1.12-1.76,1.12-2.96c0-1.23-0.37-2.23-1.12-3.02c-0.75-0.79-1.85-1.18-3.32-1.18h-4.4V990.64z"/>
		<path class="st3" d="M382.63,1004.2v-19.48h4.72v19.48H382.63z M386.19,995.68c0-2.55,0.29-4.65,0.86-6.32s1.34-2.9,2.31-3.71
			s2.04-1.21,3.23-1.21c0.32,0,0.62,0.02,0.91,0.06c0.29,0.04,0.57,0.1,0.85,0.18l-0.08,4.72c-0.35-0.08-0.72-0.15-1.12-0.2
			c-0.4-0.05-0.76-0.08-1.08-0.08c-1.04,0-1.91,0.25-2.61,0.75c-0.7,0.5-1.23,1.24-1.58,2.21c-0.35,0.97-0.53,2.17-0.53,3.6H386.19z
			"/>
		<path class="st3" d="M401.09,981.24c-0.92,0-1.64-0.24-2.15-0.73c-0.51-0.49-0.77-1.16-0.77-2.03c0-0.84,0.26-1.51,0.77-2.01
			s1.23-0.75,2.15-0.75c0.89,0,1.6,0.25,2.13,0.75c0.53,0.5,0.79,1.17,0.79,2.01c0,0.87-0.26,1.54-0.79,2.03
			C402.69,981,401.98,981.24,401.09,981.24z M398.73,1004.2v-19.48h4.72v19.48H398.73z"/>
		<path class="st3" d="M411.45,1004.2v-19.4h4.12l0.52,3.32c0.64-1.29,1.49-2.26,2.54-2.91c1.05-0.65,2.26-0.97,3.62-0.97
			c1.6,0,2.94,0.36,4.01,1.07c1.07,0.71,1.88,1.72,2.42,3.01c0.54,1.29,0.81,2.8,0.81,4.52v11.36h-4.72v-11.36
			c0-1.44-0.35-2.53-1.04-3.26s-1.6-1.1-2.72-1.1c-0.95,0-1.78,0.26-2.51,0.78c-0.73,0.52-1.3,1.3-1.71,2.35
			c-0.41,1.05-0.62,2.35-0.62,3.91v8.68H411.45z M437.81,1004.2v-11.36c0-1.44-0.35-2.53-1.04-3.26c-0.69-0.73-1.6-1.1-2.72-1.1
			c-1.41,0-2.53,0.57-3.34,1.72c-0.81,1.15-1.22,2.88-1.22,5.2h-1.96c0-2.04,0.19-3.77,0.57-5.19c0.38-1.42,0.92-2.57,1.62-3.44
			c0.7-0.87,1.52-1.51,2.47-1.92c0.95-0.41,1.99-0.61,3.14-0.61c1.59,0,2.92,0.36,3.99,1.07c1.07,0.71,1.88,1.72,2.43,3.01
			c0.55,1.29,0.82,2.8,0.82,4.52v11.36H437.81z"/>
		<path class="st3" d="M455.41,1004.76c-1.67,0-3.06-0.29-4.17-0.87c-1.11-0.58-1.95-1.34-2.51-2.29c-0.56-0.95-0.84-1.97-0.84-3.08
			c0-1.23,0.32-2.26,0.97-3.09c0.65-0.83,1.56-1.46,2.75-1.88s2.59-0.63,4.2-0.63c1.05,0,2.05,0.08,2.99,0.24
			c0.94,0.16,1.88,0.37,2.81,0.64v2.76c-0.73-0.24-1.53-0.43-2.4-0.56c-0.87-0.13-1.68-0.2-2.44-0.2c-1.12,0-2.04,0.21-2.76,0.62
			c-0.72,0.41-1.08,1.11-1.08,2.1c0,0.72,0.29,1.34,0.88,1.86c0.59,0.52,1.52,0.78,2.8,0.78c0.97,0,1.8-0.21,2.48-0.64
			c0.68-0.43,1.2-0.96,1.55-1.6c0.35-0.64,0.53-1.28,0.53-1.92h1.12c0,1.4-0.26,2.69-0.78,3.87c-0.52,1.18-1.29,2.12-2.31,2.83
			C458.18,1004.41,456.92,1004.76,455.41,1004.76z M461.77,1004.2l-0.6-4.72v-7.8c0-1.36-0.28-2.37-0.83-3.02
			c-0.55-0.65-1.49-0.98-2.81-0.98c-0.76,0-1.42,0.11-1.98,0.34c-0.56,0.23-0.99,0.55-1.29,0.97c-0.3,0.42-0.45,0.93-0.45,1.53
			h-5.16c0-1.47,0.35-2.66,1.06-3.59c0.71-0.93,1.72-1.61,3.05-2.04c1.33-0.43,2.92-0.65,4.77-0.65c1.68,0,3.15,0.27,4.4,0.81
			c1.25,0.54,2.23,1.37,2.92,2.49c0.69,1.12,1.04,2.55,1.04,4.3v12.36H461.77z"/>
		<path class="st3" d="M472.81,1004.2v-19.48h4.72v19.48H472.81z M476.37,995.68c0-2.55,0.29-4.65,0.86-6.32
			c0.57-1.67,1.34-2.9,2.31-3.71c0.97-0.81,2.04-1.21,3.23-1.21c0.32,0,0.62,0.02,0.91,0.06s0.57,0.1,0.85,0.18l-0.08,4.72
			c-0.35-0.08-0.72-0.15-1.12-0.2c-0.4-0.05-0.76-0.08-1.08-0.08c-1.04,0-1.91,0.25-2.61,0.75s-1.23,1.24-1.58,2.21
			c-0.35,0.97-0.53,2.17-0.53,3.6H476.37z"/>
		<path class="st3" d="M491.27,981.24c-0.92,0-1.64-0.24-2.15-0.73c-0.51-0.49-0.77-1.16-0.77-2.03c0-0.84,0.26-1.51,0.77-2.01
			s1.23-0.75,2.15-0.75c0.89,0,1.6,0.25,2.13,0.75c0.53,0.5,0.79,1.17,0.79,2.01c0,0.87-0.26,1.54-0.79,2.03
			C492.87,981,492.16,981.24,491.27,981.24z M488.91,1004.2v-19.48h4.72v19.48H488.91z"/>
		<path class="st3" d="M507.63,1004.76c-1.67,0-3.06-0.29-4.17-0.87c-1.11-0.58-1.95-1.34-2.51-2.29c-0.56-0.95-0.84-1.97-0.84-3.08
			c0-1.23,0.32-2.26,0.97-3.09c0.65-0.83,1.56-1.46,2.75-1.88c1.19-0.42,2.59-0.63,4.2-0.63c1.05,0,2.05,0.08,2.99,0.24
			s1.88,0.37,2.81,0.64v2.76c-0.73-0.24-1.53-0.43-2.4-0.56c-0.87-0.13-1.68-0.2-2.44-0.2c-1.12,0-2.04,0.21-2.76,0.62
			c-0.72,0.41-1.08,1.11-1.08,2.1c0,0.72,0.29,1.34,0.88,1.86c0.59,0.52,1.52,0.78,2.8,0.78c0.97,0,1.8-0.21,2.48-0.64
			s1.2-0.96,1.55-1.6c0.35-0.64,0.53-1.28,0.53-1.92h1.12c0,1.4-0.26,2.69-0.78,3.87s-1.29,2.12-2.31,2.83
			C510.4,1004.41,509.13,1004.76,507.63,1004.76z M513.99,1004.2l-0.6-4.72v-7.8c0-1.36-0.28-2.37-0.83-3.02s-1.49-0.98-2.81-0.98
			c-0.76,0-1.42,0.11-1.98,0.34s-0.99,0.55-1.29,0.97c-0.3,0.42-0.45,0.93-0.45,1.53h-5.16c0-1.47,0.35-2.66,1.06-3.59
			c0.71-0.93,1.72-1.61,3.05-2.04c1.33-0.43,2.92-0.65,4.77-0.65c1.68,0,3.15,0.27,4.4,0.81s2.23,1.37,2.92,2.49s1.04,2.55,1.04,4.3
			v12.36H513.99z"/>
	</g>
</g>
</svg>
