<?xml version="1.0" encoding="utf-8"?>
<!-- Generator: Adobe Illustrator 24.0.2, SVG Export Plug-In . SVG Version: 6.00 Build 0)  -->
<svg version="1.1" id="Capa_1" xmlns="http://www.w3.org/2000/svg" xmlns:xlink="http://www.w3.org/1999/xlink" x="0px" y="0px"
	 viewBox="0 0 1700 1043" style="enable-background:new 0 0 1700 1043;" xml:space="preserve">
<style type="text/css">
	.st0{fill:#252525;}
	.st1{fill:#FF5757;}
	.st2{fill:#B3E6E0;}
	.st3{fill:#FFFFFF;}
</style>
<rect x="28.5" y="15" class="st0" width="924" height="942"/>
<circle class="st1" cx="58.18" cy="34.88" r="8.09"/>
<path class="st1" d="M71.07,54.82v13.7c-0.01,3.79-2.13,7.26-5.51,9v15.22c0.14,4.07-3.05,7.49-7.12,7.63s-7.49-3.05-7.63-7.12
	c-0.01-0.17-0.01-0.34,0-0.5V77.53c-3.38-1.74-5.5-5.21-5.52-9.01v-13.7c0.02-5.58,4.55-10.09,10.12-10.11h5.52
	C66.52,44.73,71.04,49.24,71.07,54.82z"/>
<circle class="st1" cx="58.18" cy="128.38" r="8.09"/>
<path class="st1" d="M71.07,148.32v13.7c-0.01,3.79-2.13,7.26-5.51,9v15.22c0.14,4.07-3.05,7.49-7.12,7.63
	c-4.07,0.14-7.49-3.05-7.63-7.12c-0.01-0.17-0.01-0.34,0-0.5v-15.21c-3.38-1.74-5.5-5.21-5.52-9.01v-13.7
	c0.02-5.58,4.55-10.09,10.12-10.11h5.52C66.52,138.23,71.04,142.74,71.07,148.32z"/>
<circle class="st1" cx="58.18" cy="221.88" r="8.09"/>
<path class="st1" d="M71.07,241.82v13.7c-0.01,3.79-2.13,7.26-5.51,9v15.22c0.14,4.07-3.05,7.49-7.12,7.63
	c-4.07,0.14-7.49-3.05-7.63-7.12c-0.01-0.17-0.01-0.34,0-0.5v-15.21c-3.38-1.74-5.5-5.21-5.52-9.01v-13.7
	c0.02-5.58,4.55-10.09,10.12-10.11h5.52C66.52,231.73,71.04,236.25,71.07,241.82z"/>
<circle class="st1" cx="58.18" cy="315.38" r="8.09"/>
<path class="st1" d="M71.07,335.32v13.7c-0.01,3.79-2.13,7.26-5.51,9v15.22c0.14,4.07-3.05,7.49-7.12,7.63
	c-4.07,0.14-7.49-3.05-7.63-7.12c-0.01-0.17-0.01-0.34,0-0.5v-15.21c-3.38-1.74-5.5-5.21-5.52-9.01v-13.7
	c0.02-5.58,4.55-10.09,10.12-10.11h5.52C66.52,325.23,71.04,329.75,71.07,335.32z"/>
<circle class="st2" cx="58.18" cy="408.88" r="8.09"/>
<path class="st2" d="M71.07,428.83v13.7c-0.01,3.79-2.13,7.26-5.51,9v15.22c0.14,4.07-3.05,7.49-7.12,7.63
	c-4.07,0.14-7.49-3.05-7.63-7.12c-0.01-0.17-0.01-0.34,0-0.5v-15.21c-3.38-1.74-5.5-5.21-5.52-9.01v-13.7
	c0.02-5.58,4.55-10.09,10.12-10.11h5.52C66.52,418.73,71.04,423.25,71.07,428.83z"/>
<circle class="st2" cx="58.18" cy="502.38" r="8.09"/>
<path class="st2" d="M71.07,522.33v13.7c-0.01,3.79-2.13,7.26-5.51,9v15.22c0.14,4.07-3.05,7.49-7.12,7.63
	c-4.07,0.14-7.49-3.05-7.63-7.12c-0.01-0.17-0.01-0.34,0-0.5v-15.21c-3.38-1.74-5.5-5.21-5.52-9.01v-13.7
	c0.02-5.58,4.55-10.09,10.12-10.11h5.52C66.52,512.23,71.04,516.75,71.07,522.33z"/>
<circle class="st2" cx="58.18" cy="595.88" r="8.09"/>
<path class="st2" d="M71.07,615.83v13.7c-0.01,3.79-2.13,7.26-5.51,9v15.22c0.14,4.07-3.05,7.49-7.12,7.63s-7.49-3.05-7.63-7.12
	c-0.01-0.17-0.01-0.34,0-0.5v-15.21c-3.38-1.74-5.5-5.21-5.52-9.01v-13.7c0.02-5.58,4.55-10.09,10.12-10.11h5.52
	C66.52,605.73,71.04,610.25,71.07,615.83z"/>
<circle class="st2" cx="58.18" cy="689.38" r="8.09"/>
<path class="st2" d="M71.07,709.33v13.7c-0.01,3.79-2.13,7.26-5.51,9v15.22c0.14,4.07-3.05,7.49-7.12,7.63
	c-4.07,0.14-7.49-3.05-7.63-7.12c-0.01-0.17-0.01-0.34,0-0.5v-15.21c-3.38-1.74-5.5-5.21-5.52-9.01v-13.7
	c0.02-5.58,4.55-10.09,10.12-10.11h5.52C66.52,699.24,71.04,703.75,71.07,709.33z"/>
<circle class="st2" cx="58.18" cy="782.88" r="8.09"/>
<path class="st2" d="M71.07,802.83v13.7c-0.01,3.79-2.13,7.26-5.51,9v15.22c0.14,4.07-3.05,7.49-7.12,7.63s-7.49-3.05-7.63-7.12
	c-0.01-0.17-0.01-0.34,0-0.5v-15.21c-3.38-1.74-5.5-5.21-5.52-9.01v-13.7c0.02-5.58,4.55-10.09,10.12-10.11h5.52
	C66.52,792.74,71.04,797.25,71.07,802.83z"/>
<circle class="st2" cx="58.18" cy="876.38" r="8.09"/>
<path class="st2" d="M71.07,896.33v13.7c-0.01,3.79-2.13,7.26-5.51,9v15.22c0.14,4.07-3.05,7.49-7.12,7.63
	c-4.07,0.14-7.49-3.05-7.63-7.12c-0.01-0.17-0.01-0.34,0-0.5v-15.21c-3.38-1.74-5.5-5.21-5.52-9.01v-13.7
	c0.02-5.58,4.55-10.09,10.12-10.11h5.52C66.52,886.24,71.04,890.75,71.07,896.33z"/>
<circle class="st1" cx="155.18" cy="34.88" r="8.09"/>
<path class="st1" d="M168.07,54.82v13.7c-0.01,3.79-2.13,7.26-5.51,9v15.22c0.14,4.07-3.05,7.49-7.12,7.63
	c-4.07,0.14-7.49-3.05-7.63-7.12c-0.01-0.17-0.01-0.34,0-0.5V77.53c-3.38-1.74-5.5-5.21-5.52-9.01v-13.7
	c0.02-5.58,4.55-10.09,10.12-10.11h5.52C163.53,44.73,168.05,49.24,168.07,54.82z"/>
<circle class="st1" cx="155.18" cy="128.38" r="8.09"/>
<path class="st1" d="M168.07,148.32v13.7c-0.01,3.79-2.13,7.26-5.51,9v15.22c0.14,4.07-3.05,7.49-7.12,7.63
	c-4.07,0.14-7.49-3.05-7.63-7.12c-0.01-0.17-0.01-0.34,0-0.5v-15.21c-3.38-1.74-5.5-5.21-5.52-9.01v-13.7
	c0.02-5.58,4.55-10.09,10.12-10.11h5.52C163.53,138.23,168.05,142.74,168.07,148.32z"/>
<circle class="st1" cx="155.18" cy="221.88" r="8.09"/>
<path class="st1" d="M168.07,241.82v13.7c-0.01,3.79-2.13,7.26-5.51,9v15.22c0.14,4.07-3.05,7.49-7.12,7.63
	c-4.07,0.14-7.49-3.05-7.63-7.12c-0.01-0.17-0.01-0.34,0-0.5v-15.21c-3.38-1.74-5.5-5.21-5.52-9.01v-13.7
	c0.02-5.58,4.55-10.09,10.12-10.11h5.52C163.53,231.73,168.05,236.25,168.07,241.82z"/>
<circle class="st1" cx="155.18" cy="315.38" r="8.09"/>
<path class="st1" d="M168.07,335.32v13.7c-0.01,3.79-2.13,7.26-5.51,9v15.22c0.14,4.07-3.05,7.49-7.12,7.63
	c-4.07,0.14-7.49-3.05-7.63-7.12c-0.01-0.17-0.01-0.34,0-0.5v-15.21c-3.38-1.74-5.5-5.21-5.52-9.01v-13.7
	c0.02-5.58,4.55-10.09,10.12-10.11h5.52C163.53,325.23,168.05,329.75,168.07,335.32z"/>
<circle class="st2" cx="155.18" cy="408.88" r="8.09"/>
<path class="st2" d="M168.07,428.83v13.7c-0.01,3.79-2.13,7.26-5.51,9v15.22c0.14,4.07-3.05,7.49-7.12,7.63
	c-4.07,0.14-7.49-3.05-7.63-7.12c-0.01-0.17-0.01-0.34,0-0.5v-15.21c-3.38-1.74-5.5-5.21-5.52-9.01v-13.7
	c0.02-5.58,4.55-10.09,10.12-10.11h5.52C163.53,418.73,168.05,423.25,168.07,428.83z"/>
<circle class="st2" cx="155.18" cy="502.38" r="8.09"/>
<path class="st2" d="M168.07,522.33v13.7c-0.01,3.79-2.13,7.26-5.51,9v15.22c0.14,4.07-3.05,7.49-7.12,7.63
	c-4.07,0.14-7.49-3.05-7.63-7.12c-0.01-0.17-0.01-0.34,0-0.5v-15.21c-3.38-1.74-5.5-5.21-5.52-9.01v-13.7
	c0.02-5.58,4.55-10.09,10.12-10.11h5.52C163.53,512.23,168.05,516.75,168.07,522.33z"/>
<circle class="st2" cx="155.18" cy="595.88" r="8.09"/>
<path class="st2" d="M168.07,615.83v13.7c-0.01,3.79-2.13,7.26-5.51,9v15.22c0.14,4.07-3.05,7.49-7.12,7.63
	c-4.07,0.14-7.49-3.05-7.63-7.12c-0.01-0.17-0.01-0.34,0-0.5v-15.21c-3.38-1.74-5.5-5.21-5.52-9.01v-13.7
	c0.02-5.58,4.55-10.09,10.12-10.11h5.52C163.53,605.73,168.05,610.25,168.07,615.83z"/>
<circle class="st2" cx="155.18" cy="689.38" r="8.09"/>
<path class="st2" d="M168.07,709.33v13.7c-0.01,3.79-2.13,7.26-5.51,9v15.22c0.14,4.07-3.05,7.49-7.12,7.63
	c-4.07,0.14-7.49-3.05-7.63-7.12c-0.01-0.17-0.01-0.34,0-0.5v-15.21c-3.38-1.74-5.5-5.21-5.52-9.01v-13.7
	c0.02-5.58,4.55-10.09,10.12-10.11h5.52C163.53,699.24,168.05,703.75,168.07,709.33z"/>
<circle class="st2" cx="155.18" cy="782.88" r="8.09"/>
<path class="st2" d="M168.07,802.83v13.7c-0.01,3.79-2.13,7.26-5.51,9v15.22c0.14,4.07-3.05,7.49-7.12,7.63
	c-4.07,0.14-7.49-3.05-7.63-7.12c-0.01-0.17-0.01-0.34,0-0.5v-15.21c-3.38-1.74-5.5-5.21-5.52-9.01v-13.7
	c0.02-5.58,4.55-10.09,10.12-10.11h5.52C163.53,792.74,168.05,797.25,168.07,802.83z"/>
<circle class="st2" cx="155.18" cy="876.38" r="8.09"/>
<path class="st2" d="M168.07,896.33v13.7c-0.01,3.79-2.13,7.26-5.51,9v15.22c0.14,4.07-3.05,7.49-7.12,7.63
	c-4.07,0.14-7.49-3.05-7.63-7.12c-0.01-0.17-0.01-0.34,0-0.5v-15.21c-3.38-1.74-5.5-5.21-5.52-9.01v-13.7
	c0.02-5.58,4.55-10.09,10.12-10.11h5.52C163.53,886.24,168.05,890.75,168.07,896.33z"/>
<circle class="st1" cx="252.19" cy="34.88" r="8.09"/>
<path class="st1" d="M265.07,54.82v13.7c-0.01,3.79-2.13,7.26-5.51,9v15.22c0.14,4.07-3.05,7.49-7.12,7.63s-7.49-3.05-7.63-7.12
	c-0.01-0.17-0.01-0.34,0-0.5V77.53c-3.38-1.74-5.5-5.21-5.52-9.01v-13.7c0.02-5.58,4.55-10.09,10.12-10.11h5.52
	C260.53,44.73,265.05,49.24,265.07,54.82z"/>
<circle class="st1" cx="252.19" cy="128.38" r="8.09"/>
<path class="st1" d="M265.07,148.32v13.7c-0.01,3.79-2.13,7.26-5.51,9v15.22c0.14,4.07-3.05,7.49-7.12,7.63
	c-4.07,0.14-7.49-3.05-7.63-7.12c-0.01-0.17-0.01-0.34,0-0.5v-15.21c-3.38-1.74-5.5-5.21-5.52-9.01v-13.7
	c0.02-5.58,4.55-10.09,10.12-10.11h5.52C260.53,138.23,265.05,142.74,265.07,148.32z"/>
<circle class="st1" cx="252.19" cy="221.88" r="8.09"/>
<path class="st1" d="M265.07,241.82v13.7c-0.01,3.79-2.13,7.26-5.51,9v15.22c0.14,4.07-3.05,7.49-7.12,7.63
	c-4.07,0.14-7.49-3.05-7.63-7.12c-0.01-0.17-0.01-0.34,0-0.5v-15.21c-3.38-1.74-5.5-5.21-5.52-9.01v-13.7
	c0.02-5.58,4.55-10.09,10.12-10.11h5.52C260.53,231.73,265.05,236.25,265.07,241.82z"/>
<circle class="st1" cx="252.19" cy="315.38" r="8.09"/>
<path class="st1" d="M265.07,335.32v13.7c-0.01,3.79-2.13,7.26-5.51,9v15.22c0.14,4.07-3.05,7.49-7.12,7.63
	c-4.07,0.14-7.49-3.05-7.63-7.12c-0.01-0.17-0.01-0.34,0-0.5v-15.21c-3.38-1.74-5.5-5.21-5.52-9.01v-13.7
	c0.02-5.58,4.55-10.09,10.12-10.11h5.52C260.53,325.23,265.05,329.75,265.07,335.32z"/>
<circle class="st2" cx="252.19" cy="408.88" r="8.09"/>
<path class="st2" d="M265.07,428.83v13.7c-0.01,3.79-2.13,7.26-5.51,9v15.22c0.14,4.07-3.05,7.49-7.12,7.63
	c-4.07,0.14-7.49-3.05-7.63-7.12c-0.01-0.17-0.01-0.34,0-0.5v-15.21c-3.38-1.74-5.5-5.21-5.52-9.01v-13.7
	c0.02-5.58,4.55-10.09,10.12-10.11h5.52C260.53,418.73,265.05,423.25,265.07,428.83z"/>
<circle class="st2" cx="252.19" cy="502.38" r="8.09"/>
<path class="st2" d="M265.07,522.33v13.7c-0.01,3.79-2.13,7.26-5.51,9v15.22c0.14,4.07-3.05,7.49-7.12,7.63
	c-4.07,0.14-7.49-3.05-7.63-7.12c-0.01-0.17-0.01-0.34,0-0.5v-15.21c-3.38-1.74-5.5-5.21-5.52-9.01v-13.7
	c0.02-5.58,4.55-10.09,10.12-10.11h5.52C260.53,512.23,265.05,516.75,265.07,522.33z"/>
<circle class="st2" cx="252.19" cy="595.88" r="8.09"/>
<path class="st2" d="M265.07,615.83v13.7c-0.01,3.79-2.13,7.26-5.51,9v15.22c0.14,4.07-3.05,7.49-7.12,7.63s-7.49-3.05-7.63-7.12
	c-0.01-0.17-0.01-0.34,0-0.5v-15.21c-3.38-1.74-5.5-5.21-5.52-9.01v-13.7c0.02-5.58,4.55-10.09,10.12-10.11h5.52
	C260.53,605.73,265.05,610.25,265.07,615.83z"/>
<circle class="st2" cx="252.19" cy="689.38" r="8.09"/>
<path class="st2" d="M265.07,709.33v13.7c-0.01,3.79-2.13,7.26-5.51,9v15.22c0.14,4.07-3.05,7.49-7.12,7.63
	c-4.07,0.14-7.49-3.05-7.63-7.12c-0.01-0.17-0.01-0.34,0-0.5v-15.21c-3.38-1.74-5.5-5.21-5.52-9.01v-13.7
	c0.02-5.58,4.55-10.09,10.12-10.11h5.52C260.53,699.24,265.05,703.75,265.07,709.33z"/>
<circle class="st2" cx="252.19" cy="782.88" r="8.09"/>
<path class="st2" d="M265.07,802.83v13.7c-0.01,3.79-2.13,7.26-5.51,9v15.22c0.14,4.07-3.05,7.49-7.12,7.63s-7.49-3.05-7.63-7.12
	c-0.01-0.17-0.01-0.34,0-0.5v-15.21c-3.38-1.74-5.5-5.21-5.52-9.01v-13.7c0.02-5.58,4.55-10.09,10.12-10.11h5.52
	C260.53,792.74,265.05,797.25,265.07,802.83z"/>
<circle class="st2" cx="252.19" cy="876.38" r="8.09"/>
<path class="st2" d="M265.07,896.33v13.7c-0.01,3.79-2.13,7.26-5.51,9v15.22c0.14,4.07-3.05,7.49-7.12,7.63
	c-4.07,0.14-7.49-3.05-7.63-7.12c-0.01-0.17-0.01-0.34,0-0.5v-15.21c-3.38-1.74-5.5-5.21-5.52-9.01v-13.7
	c0.02-5.58,4.55-10.09,10.12-10.11h5.52C260.53,886.24,265.05,890.75,265.07,896.33z"/>
<circle class="st1" cx="349.19" cy="34.88" r="8.09"/>
<path class="st1" d="M362.08,54.82v13.7c-0.01,3.79-2.13,7.26-5.51,9v15.22c0.14,4.07-3.05,7.49-7.12,7.63
	c-4.07,0.14-7.49-3.05-7.63-7.12c-0.01-0.17-0.01-0.34,0-0.5V77.53c-3.38-1.74-5.5-5.21-5.52-9.01v-13.7
	c0.02-5.58,4.55-10.09,10.12-10.11h5.52C357.53,44.73,362.05,49.24,362.08,54.82z"/>
<circle class="st1" cx="349.19" cy="128.38" r="8.09"/>
<path class="st1" d="M362.08,148.32v13.7c-0.01,3.79-2.13,7.26-5.51,9v15.22c0.14,4.07-3.05,7.49-7.12,7.63
	c-4.07,0.14-7.49-3.05-7.63-7.12c-0.01-0.17-0.01-0.34,0-0.5v-15.21c-3.38-1.74-5.5-5.21-5.52-9.01v-13.7
	c0.02-5.58,4.55-10.09,10.12-10.11h5.52C357.53,138.23,362.05,142.74,362.08,148.32z"/>
<circle class="st1" cx="349.19" cy="221.88" r="8.09"/>
<path class="st1" d="M362.08,241.82v13.7c-0.01,3.79-2.13,7.26-5.51,9v15.22c0.14,4.07-3.05,7.49-7.12,7.63
	c-4.07,0.14-7.49-3.05-7.63-7.12c-0.01-0.17-0.01-0.34,0-0.5v-15.21c-3.38-1.74-5.5-5.21-5.52-9.01v-13.7
	c0.02-5.58,4.55-10.09,10.12-10.11h5.52C357.53,231.73,362.05,236.25,362.08,241.82z"/>
<circle class="st1" cx="349.19" cy="315.38" r="8.09"/>
<path class="st1" d="M362.08,335.32v13.7c-0.01,3.79-2.13,7.26-5.51,9v15.22c0.14,4.07-3.05,7.49-7.12,7.63
	c-4.07,0.14-7.49-3.05-7.63-7.12c-0.01-0.17-0.01-0.34,0-0.5v-15.21c-3.38-1.74-5.5-5.21-5.52-9.01v-13.7
	c0.02-5.58,4.55-10.09,10.12-10.11h5.52C357.53,325.23,362.05,329.75,362.08,335.32z"/>
<circle class="st2" cx="349.19" cy="408.88" r="8.09"/>
<path class="st2" d="M362.08,428.83v13.7c-0.01,3.79-2.13,7.26-5.51,9v15.22c0.14,4.07-3.05,7.49-7.12,7.63
	c-4.07,0.14-7.49-3.05-7.63-7.12c-0.01-0.17-0.01-0.34,0-0.5v-15.21c-3.38-1.74-5.5-5.21-5.52-9.01v-13.7
	c0.02-5.58,4.55-10.09,10.12-10.11h5.52C357.53,418.73,362.05,423.25,362.08,428.83z"/>
<circle class="st2" cx="349.19" cy="502.38" r="8.09"/>
<path class="st2" d="M362.08,522.33v13.7c-0.01,3.79-2.13,7.26-5.51,9v15.22c0.14,4.07-3.05,7.49-7.12,7.63
	c-4.07,0.14-7.49-3.05-7.63-7.12c-0.01-0.17-0.01-0.34,0-0.5v-15.21c-3.38-1.74-5.5-5.21-5.52-9.01v-13.7
	c0.02-5.58,4.55-10.09,10.12-10.11h5.52C357.53,512.23,362.05,516.75,362.08,522.33z"/>
<circle class="st2" cx="349.19" cy="595.88" r="8.09"/>
<path class="st2" d="M362.08,615.83v13.7c-0.01,3.79-2.13,7.26-5.51,9v15.22c0.14,4.07-3.05,7.49-7.12,7.63
	c-4.07,0.14-7.49-3.05-7.63-7.12c-0.01-0.17-0.01-0.34,0-0.5v-15.21c-3.38-1.74-5.5-5.21-5.52-9.01v-13.7
	c0.02-5.58,4.55-10.09,10.12-10.11h5.52C357.53,605.73,362.05,610.25,362.08,615.83z"/>
<circle class="st2" cx="349.19" cy="689.38" r="8.09"/>
<path class="st2" d="M362.08,709.33v13.7c-0.01,3.79-2.13,7.26-5.51,9v15.22c0.14,4.07-3.05,7.49-7.12,7.63
	c-4.07,0.14-7.49-3.05-7.63-7.12c-0.01-0.17-0.01-0.34,0-0.5v-15.21c-3.38-1.74-5.5-5.21-5.52-9.01v-13.7
	c0.02-5.58,4.55-10.09,10.12-10.11h5.52C357.53,699.24,362.05,703.75,362.08,709.33z"/>
<circle class="st2" cx="349.19" cy="782.88" r="8.09"/>
<path class="st2" d="M362.08,802.83v13.7c-0.01,3.79-2.13,7.26-5.51,9v15.22c0.14,4.07-3.05,7.49-7.12,7.63
	c-4.07,0.14-7.49-3.05-7.63-7.12c-0.01-0.17-0.01-0.34,0-0.5v-15.21c-3.38-1.74-5.5-5.21-5.52-9.01v-13.7
	c0.02-5.58,4.55-10.09,10.12-10.11h5.52C357.53,792.74,362.05,797.25,362.08,802.83z"/>
<circle class="st2" cx="349.19" cy="876.38" r="8.09"/>
<path class="st2" d="M362.08,896.33v13.7c-0.01,3.79-2.13,7.26-5.51,9v15.22c0.14,4.07-3.05,7.49-7.12,7.63
	c-4.07,0.14-7.49-3.05-7.63-7.12c-0.01-0.17-0.01-0.34,0-0.5v-15.21c-3.38-1.74-5.5-5.21-5.52-9.01v-13.7
	c0.02-5.58,4.55-10.09,10.12-10.11h5.52C357.53,886.24,362.05,890.75,362.08,896.33z"/>
<circle class="st1" cx="446.2" cy="34.88" r="8.09"/>
<path class="st1" d="M459.08,54.82v13.7c-0.01,3.79-2.13,7.26-5.51,9v15.22c0.14,4.07-3.05,7.49-7.12,7.63
	c-4.07,0.14-7.49-3.05-7.63-7.12c-0.01-0.17-0.01-0.34,0-0.5V77.53c-3.38-1.74-5.5-5.21-5.52-9.01v-13.7
	c0.02-5.58,4.55-10.09,10.12-10.11h5.52C454.54,44.73,459.06,49.24,459.08,54.82z"/>
<circle class="st1" cx="446.2" cy="128.38" r="8.09"/>
<path class="st1" d="M459.08,148.32v13.7c-0.01,3.79-2.13,7.26-5.51,9v15.22c0.14,4.07-3.05,7.49-7.12,7.63
	c-4.07,0.14-7.49-3.05-7.63-7.12c-0.01-0.17-0.01-0.34,0-0.5v-15.21c-3.38-1.74-5.5-5.21-5.52-9.01v-13.7
	c0.02-5.58,4.55-10.09,10.12-10.11h5.52C454.54,138.23,459.06,142.74,459.08,148.32z"/>
<circle class="st1" cx="446.2" cy="221.88" r="8.09"/>
<path class="st1" d="M459.08,241.82v13.7c-0.01,3.79-2.13,7.26-5.51,9v15.22c0.14,4.07-3.05,7.49-7.12,7.63
	c-4.07,0.14-7.49-3.05-7.63-7.12c-0.01-0.17-0.01-0.34,0-0.5v-15.21c-3.38-1.74-5.5-5.21-5.52-9.01v-13.7
	c0.02-5.58,4.55-10.09,10.12-10.11h5.52C454.54,231.73,459.06,236.25,459.08,241.82z"/>
<circle class="st1" cx="446.2" cy="315.38" r="8.09"/>
<path class="st1" d="M459.08,335.32v13.7c-0.01,3.79-2.13,7.26-5.51,9v15.22c0.14,4.07-3.05,7.49-7.12,7.63
	c-4.07,0.14-7.49-3.05-7.63-7.12c-0.01-0.17-0.01-0.34,0-0.5v-15.21c-3.38-1.74-5.5-5.21-5.52-9.01v-13.7
	c0.02-5.58,4.55-10.09,10.12-10.11h5.52C454.54,325.23,459.06,329.75,459.08,335.32z"/>
<circle class="st2" cx="446.2" cy="408.88" r="8.09"/>
<path class="st2" d="M459.08,428.83v13.7c-0.01,3.79-2.13,7.26-5.51,9v15.22c0.14,4.07-3.05,7.49-7.12,7.63
	c-4.07,0.14-7.49-3.05-7.63-7.12c-0.01-0.17-0.01-0.34,0-0.5v-15.21c-3.38-1.74-5.5-5.21-5.52-9.01v-13.7
	c0.02-5.58,4.55-10.09,10.12-10.11h5.52C454.54,418.73,459.06,423.25,459.08,428.83z"/>
<circle class="st2" cx="446.2" cy="502.38" r="8.09"/>
<path class="st2" d="M459.08,522.33v13.7c-0.01,3.79-2.13,7.26-5.51,9v15.22c0.14,4.07-3.05,7.49-7.12,7.63
	c-4.07,0.14-7.49-3.05-7.63-7.12c-0.01-0.17-0.01-0.34,0-0.5v-15.21c-3.38-1.74-5.5-5.21-5.52-9.01v-13.7
	c0.02-5.58,4.55-10.09,10.12-10.11h5.52C454.54,512.23,459.06,516.75,459.08,522.33z"/>
<circle class="st2" cx="446.2" cy="595.88" r="8.09"/>
<path class="st2" d="M459.08,615.83v13.7c-0.01,3.79-2.13,7.26-5.51,9v15.22c0.14,4.07-3.05,7.49-7.12,7.63
	c-4.07,0.14-7.49-3.05-7.63-7.12c-0.01-0.17-0.01-0.34,0-0.5v-15.21c-3.38-1.74-5.5-5.21-5.52-9.01v-13.7
	c0.02-5.58,4.55-10.09,10.12-10.11h5.52C454.54,605.73,459.06,610.25,459.08,615.83z"/>
<circle class="st2" cx="446.2" cy="689.38" r="8.09"/>
<path class="st2" d="M459.08,709.33v13.7c-0.01,3.79-2.13,7.26-5.51,9v15.22c0.14,4.07-3.05,7.49-7.12,7.63
	c-4.07,0.14-7.49-3.05-7.63-7.12c-0.01-0.17-0.01-0.34,0-0.5v-15.21c-3.38-1.74-5.5-5.21-5.52-9.01v-13.7
	c0.02-5.58,4.55-10.09,10.12-10.11h5.52C454.54,699.24,459.06,703.75,459.08,709.33z"/>
<circle class="st2" cx="446.2" cy="782.88" r="8.09"/>
<path class="st2" d="M459.08,802.83v13.7c-0.01,3.79-2.13,7.26-5.51,9v15.22c0.14,4.07-3.05,7.49-7.12,7.63
	c-4.07,0.14-7.49-3.05-7.63-7.12c-0.01-0.17-0.01-0.34,0-0.5v-15.21c-3.38-1.74-5.5-5.21-5.52-9.01v-13.7
	c0.02-5.58,4.55-10.09,10.12-10.11h5.52C454.54,792.74,459.06,797.25,459.08,802.83z"/>
<circle class="st2" cx="446.2" cy="876.38" r="8.09"/>
<path class="st2" d="M459.08,896.33v13.7c-0.01,3.79-2.13,7.26-5.51,9v15.22c0.14,4.07-3.05,7.49-7.12,7.63
	c-4.07,0.14-7.49-3.05-7.63-7.12c-0.01-0.17-0.01-0.34,0-0.5v-15.21c-3.38-1.74-5.5-5.21-5.52-9.01v-13.7
	c0.02-5.58,4.55-10.09,10.12-10.11h5.52C454.54,886.24,459.06,890.75,459.08,896.33z"/>
<circle class="st1" cx="543.2" cy="34.88" r="8.09"/>
<path class="st1" d="M556.09,54.82v13.7c-0.01,3.79-2.13,7.26-5.51,9v15.22c0.14,4.07-3.05,7.49-7.12,7.63
	c-4.07,0.14-7.49-3.05-7.63-7.12c-0.01-0.17-0.01-0.34,0-0.5V77.53c-3.38-1.74-5.5-5.21-5.52-9.01v-13.7
	c0.02-5.58,4.55-10.09,10.12-10.11h5.52C551.54,44.73,556.06,49.24,556.09,54.82z"/>
<circle class="st1" cx="543.2" cy="128.38" r="8.09"/>
<path class="st1" d="M556.09,148.32v13.7c-0.01,3.79-2.13,7.26-5.51,9v15.22c0.14,4.07-3.05,7.49-7.12,7.63
	c-4.07,0.14-7.49-3.05-7.63-7.12c-0.01-0.17-0.01-0.34,0-0.5v-15.21c-3.38-1.74-5.5-5.21-5.52-9.01v-13.7
	c0.02-5.58,4.55-10.09,10.12-10.11h5.52C551.54,138.23,556.06,142.74,556.09,148.32z"/>
<circle class="st1" cx="543.2" cy="221.88" r="8.09"/>
<path class="st1" d="M556.09,241.82v13.7c-0.01,3.79-2.13,7.26-5.51,9v15.22c0.14,4.07-3.05,7.49-7.12,7.63
	c-4.07,0.14-7.49-3.05-7.63-7.12c-0.01-0.17-0.01-0.34,0-0.5v-15.21c-3.38-1.74-5.5-5.21-5.52-9.01v-13.7
	c0.02-5.58,4.55-10.09,10.12-10.11h5.52C551.54,231.73,556.06,236.25,556.09,241.82z"/>
<circle class="st1" cx="543.2" cy="315.38" r="8.09"/>
<path class="st1" d="M556.09,335.32v13.7c-0.01,3.79-2.13,7.26-5.51,9v15.22c0.14,4.07-3.05,7.49-7.12,7.63
	c-4.07,0.14-7.49-3.05-7.63-7.12c-0.01-0.17-0.01-0.34,0-0.5v-15.21c-3.38-1.74-5.5-5.21-5.52-9.01v-13.7
	c0.02-5.58,4.55-10.09,10.12-10.11h5.52C551.54,325.23,556.06,329.75,556.09,335.32z"/>
<circle class="st2" cx="543.2" cy="408.88" r="8.09"/>
<path class="st2" d="M556.09,428.83v13.7c-0.01,3.79-2.13,7.26-5.51,9v15.22c0.14,4.07-3.05,7.49-7.12,7.63
	c-4.07,0.14-7.49-3.05-7.63-7.12c-0.01-0.17-0.01-0.34,0-0.5v-15.21c-3.38-1.74-5.5-5.21-5.52-9.01v-13.7
	c0.02-5.58,4.55-10.09,10.12-10.11h5.52C551.54,418.73,556.06,423.25,556.09,428.83z"/>
<circle class="st2" cx="543.2" cy="502.38" r="8.09"/>
<path class="st2" d="M556.09,522.33v13.7c-0.01,3.79-2.13,7.26-5.51,9v15.22c0.14,4.07-3.05,7.49-7.12,7.63
	c-4.07,0.14-7.49-3.05-7.63-7.12c-0.01-0.17-0.01-0.34,0-0.5v-15.21c-3.38-1.74-5.5-5.21-5.52-9.01v-13.7
	c0.02-5.58,4.55-10.09,10.12-10.11h5.52C551.54,512.23,556.06,516.75,556.09,522.33z"/>
<circle class="st2" cx="543.2" cy="595.88" r="8.09"/>
<path class="st2" d="M556.09,615.83v13.7c-0.01,3.79-2.13,7.26-5.51,9v15.22c0.14,4.07-3.05,7.49-7.12,7.63
	c-4.07,0.14-7.49-3.05-7.63-7.12c-0.01-0.17-0.01-0.34,0-0.5v-15.21c-3.38-1.74-5.5-5.21-5.52-9.01v-13.7
	c0.02-5.58,4.55-10.09,10.12-10.11h5.52C551.54,605.73,556.06,610.25,556.09,615.83z"/>
<circle class="st2" cx="543.2" cy="689.38" r="8.09"/>
<path class="st2" d="M556.09,709.33v13.7c-0.01,3.79-2.13,7.26-5.51,9v15.22c0.14,4.07-3.05,7.49-7.12,7.63
	c-4.07,0.14-7.49-3.05-7.63-7.12c-0.01-0.17-0.01-0.34,0-0.5v-15.21c-3.38-1.74-5.5-5.21-5.52-9.01v-13.7
	c0.02-5.58,4.55-10.09,10.12-10.11h5.52C551.54,699.24,556.06,703.75,556.09,709.33z"/>
<circle class="st2" cx="543.2" cy="782.88" r="8.09"/>
<path class="st2" d="M556.09,802.83v13.7c-0.01,3.79-2.13,7.26-5.51,9v15.22c0.14,4.07-3.05,7.49-7.12,7.63
	c-4.07,0.14-7.49-3.05-7.63-7.12c-0.01-0.17-0.01-0.34,0-0.5v-15.21c-3.38-1.74-5.5-5.21-5.52-9.01v-13.7
	c0.02-5.58,4.55-10.09,10.12-10.11h5.52C551.54,792.74,556.06,797.25,556.09,802.83z"/>
<circle class="st2" cx="543.2" cy="876.38" r="8.09"/>
<path class="st2" d="M556.09,896.33v13.7c-0.01,3.79-2.13,7.26-5.51,9v15.22c0.14,4.07-3.05,7.49-7.12,7.63
	c-4.07,0.14-7.49-3.05-7.63-7.12c-0.01-0.17-0.01-0.34,0-0.5v-15.21c-3.38-1.74-5.5-5.21-5.52-9.01v-13.7
	c0.02-5.58,4.55-10.09,10.12-10.11h5.52C551.54,886.24,556.06,890.75,556.09,896.33z"/>
<circle class="st1" cx="640.2" cy="34.88" r="8.09"/>
<path class="st1" d="M653.09,54.82v13.7c-0.01,3.79-2.13,7.26-5.51,9v15.22c0.14,4.07-3.05,7.49-7.12,7.63
	c-4.07,0.14-7.49-3.05-7.63-7.12c-0.01-0.17-0.01-0.34,0-0.5V77.53c-3.38-1.74-5.5-5.21-5.52-9.01v-13.7
	c0.02-5.58,4.55-10.09,10.12-10.11h5.52C648.54,44.73,653.06,49.24,653.09,54.82z"/>
<circle class="st1" cx="640.2" cy="128.38" r="8.09"/>
<path class="st1" d="M653.09,148.32v13.7c-0.01,3.79-2.13,7.26-5.51,9v15.22c0.14,4.07-3.05,7.49-7.12,7.63
	c-4.07,0.14-7.49-3.05-7.63-7.12c-0.01-0.17-0.01-0.34,0-0.5v-15.21c-3.38-1.74-5.5-5.21-5.52-9.01v-13.7
	c0.02-5.58,4.55-10.09,10.12-10.11h5.52C648.54,138.23,653.06,142.74,653.09,148.32z"/>
<circle class="st1" cx="640.2" cy="221.88" r="8.09"/>
<path class="st1" d="M653.09,241.82v13.7c-0.01,3.79-2.13,7.26-5.51,9v15.22c0.14,4.07-3.05,7.49-7.12,7.63
	c-4.07,0.14-7.49-3.05-7.63-7.12c-0.01-0.17-0.01-0.34,0-0.5v-15.21c-3.38-1.74-5.5-5.21-5.52-9.01v-13.7
	c0.02-5.58,4.55-10.09,10.12-10.11h5.52C648.54,231.73,653.06,236.25,653.09,241.82z"/>
<circle class="st1" cx="640.2" cy="315.38" r="8.09"/>
<path class="st1" d="M653.09,335.32v13.7c-0.01,3.79-2.13,7.26-5.51,9v15.22c0.14,4.07-3.05,7.49-7.12,7.63
	c-4.07,0.14-7.49-3.05-7.63-7.12c-0.01-0.17-0.01-0.34,0-0.5v-15.21c-3.38-1.74-5.5-5.21-5.52-9.01v-13.7
	c0.02-5.58,4.55-10.09,10.12-10.11h5.52C648.54,325.23,653.06,329.75,653.09,335.32z"/>
<circle class="st2" cx="640.2" cy="408.88" r="8.09"/>
<path class="st2" d="M653.09,428.83v13.7c-0.01,3.79-2.13,7.26-5.51,9v15.22c0.14,4.07-3.05,7.49-7.12,7.63
	c-4.07,0.14-7.49-3.05-7.63-7.12c-0.01-0.17-0.01-0.34,0-0.5v-15.21c-3.38-1.74-5.5-5.21-5.52-9.01v-13.7
	c0.02-5.58,4.55-10.09,10.12-10.11h5.52C648.54,418.73,653.06,423.25,653.09,428.83z"/>
<circle class="st2" cx="640.2" cy="502.38" r="8.09"/>
<path class="st2" d="M653.09,522.33v13.7c-0.01,3.79-2.13,7.26-5.51,9v15.22c0.14,4.07-3.05,7.49-7.12,7.63
	c-4.07,0.14-7.49-3.05-7.63-7.12c-0.01-0.17-0.01-0.34,0-0.5v-15.21c-3.38-1.74-5.5-5.21-5.52-9.01v-13.7
	c0.02-5.58,4.55-10.09,10.12-10.11h5.52C648.54,512.23,653.06,516.75,653.09,522.33z"/>
<circle class="st2" cx="640.2" cy="595.88" r="8.09"/>
<path class="st2" d="M653.09,615.83v13.7c-0.01,3.79-2.13,7.26-5.51,9v15.22c0.14,4.07-3.05,7.49-7.12,7.63
	c-4.07,0.14-7.49-3.05-7.63-7.12c-0.01-0.17-0.01-0.34,0-0.5v-15.21c-3.38-1.74-5.5-5.21-5.52-9.01v-13.7
	c0.02-5.58,4.55-10.09,10.12-10.11h5.52C648.54,605.73,653.06,610.25,653.09,615.83z"/>
<circle class="st2" cx="640.2" cy="689.38" r="8.09"/>
<path class="st2" d="M653.09,709.33v13.7c-0.01,3.79-2.13,7.26-5.51,9v15.22c0.14,4.07-3.05,7.49-7.12,7.63
	c-4.07,0.14-7.49-3.05-7.63-7.12c-0.01-0.17-0.01-0.34,0-0.5v-15.21c-3.38-1.74-5.5-5.21-5.52-9.01v-13.7
	c0.02-5.58,4.55-10.09,10.12-10.11h5.52C648.54,699.24,653.06,703.75,653.09,709.33z"/>
<circle class="st2" cx="640.2" cy="782.88" r="8.09"/>
<path class="st2" d="M653.09,802.83v13.7c-0.01,3.79-2.13,7.26-5.51,9v15.22c0.14,4.07-3.05,7.49-7.12,7.63
	c-4.07,0.14-7.49-3.05-7.63-7.12c-0.01-0.17-0.01-0.34,0-0.5v-15.21c-3.38-1.74-5.5-5.21-5.52-9.01v-13.7
	c0.02-5.58,4.55-10.09,10.12-10.11h5.52C648.54,792.74,653.06,797.25,653.09,802.83z"/>
<circle class="st2" cx="640.2" cy="876.38" r="8.09"/>
<path class="st2" d="M653.09,896.33v13.7c-0.01,3.79-2.13,7.26-5.51,9v15.22c0.14,4.07-3.05,7.49-7.12,7.63
	c-4.07,0.14-7.49-3.05-7.63-7.12c-0.01-0.17-0.01-0.34,0-0.5v-15.21c-3.38-1.74-5.5-5.21-5.52-9.01v-13.7
	c0.02-5.58,4.55-10.09,10.12-10.11h5.52C648.54,886.24,653.06,890.75,653.09,896.33z"/>
<circle class="st1" cx="737.21" cy="34.88" r="8.09"/>
<path class="st1" d="M750.09,54.82v13.7c-0.01,3.79-2.13,7.26-5.51,9v15.22c0.14,4.07-3.05,7.49-7.12,7.63s-7.49-3.05-7.63-7.12
	c-0.01-0.17-0.01-0.34,0-0.5V77.53c-3.38-1.74-5.5-5.21-5.52-9.01v-13.7c0.02-5.58,4.55-10.09,10.12-10.11h5.52
	C745.55,44.73,750.07,49.24,750.09,54.82z"/>
<circle class="st1" cx="737.21" cy="128.38" r="8.09"/>
<path class="st1" d="M750.09,148.32v13.7c-0.01,3.79-2.13,7.26-5.51,9v15.22c0.14,4.07-3.05,7.49-7.12,7.63
	c-4.07,0.14-7.49-3.05-7.63-7.12c-0.01-0.17-0.01-0.34,0-0.5v-15.21c-3.38-1.74-5.5-5.21-5.52-9.01v-13.7
	c0.02-5.58,4.55-10.09,10.12-10.11h5.52C745.55,138.23,750.07,142.74,750.09,148.32z"/>
<circle class="st1" cx="737.21" cy="221.88" r="8.09"/>
<path class="st1" d="M750.09,241.82v13.7c-0.01,3.79-2.13,7.26-5.51,9v15.22c0.14,4.07-3.05,7.49-7.12,7.63
	c-4.07,0.14-7.49-3.05-7.63-7.12c-0.01-0.17-0.01-0.34,0-0.5v-15.21c-3.38-1.74-5.5-5.21-5.52-9.01v-13.7
	c0.02-5.58,4.55-10.09,10.12-10.11h5.52C745.55,231.73,750.07,236.25,750.09,241.82z"/>
<circle class="st2" cx="737.21" cy="315.38" r="8.09"/>
<path class="st2" d="M750.09,335.32v13.7c-0.01,3.79-2.13,7.26-5.51,9v15.22c0.14,4.07-3.05,7.49-7.12,7.63
	c-4.07,0.14-7.49-3.05-7.63-7.12c-0.01-0.17-0.01-0.34,0-0.5v-15.21c-3.38-1.74-5.5-5.21-5.52-9.01v-13.7
	c0.02-5.58,4.55-10.09,10.12-10.11h5.52C745.55,325.23,750.07,329.75,750.09,335.32z"/>
<circle class="st2" cx="737.21" cy="408.88" r="8.09"/>
<path class="st2" d="M750.09,428.83v13.7c-0.01,3.79-2.13,7.26-5.51,9v15.22c0.14,4.07-3.05,7.49-7.12,7.63
	c-4.07,0.14-7.49-3.05-7.63-7.12c-0.01-0.17-0.01-0.34,0-0.5v-15.21c-3.38-1.74-5.5-5.21-5.52-9.01v-13.7
	c0.02-5.58,4.55-10.09,10.12-10.11h5.52C745.55,418.73,750.07,423.25,750.09,428.83z"/>
<circle class="st2" cx="737.21" cy="502.38" r="8.09"/>
<path class="st2" d="M750.09,522.33v13.7c-0.01,3.79-2.13,7.26-5.51,9v15.22c0.14,4.07-3.05,7.49-7.12,7.63
	c-4.07,0.14-7.49-3.05-7.63-7.12c-0.01-0.17-0.01-0.34,0-0.5v-15.21c-3.38-1.74-5.5-5.21-5.52-9.01v-13.7
	c0.02-5.58,4.55-10.09,10.12-10.11h5.52C745.55,512.23,750.07,516.75,750.09,522.33z"/>
<circle class="st2" cx="737.21" cy="595.88" r="8.09"/>
<path class="st2" d="M750.09,615.83v13.7c-0.01,3.79-2.13,7.26-5.51,9v15.22c0.14,4.07-3.05,7.49-7.12,7.63s-7.49-3.05-7.63-7.12
	c-0.01-0.17-0.01-0.34,0-0.5v-15.21c-3.38-1.74-5.5-5.21-5.52-9.01v-13.7c0.02-5.58,4.55-10.09,10.12-10.11h5.52
	C745.55,605.73,750.07,610.25,750.09,615.83z"/>
<circle class="st2" cx="737.21" cy="689.38" r="8.09"/>
<path class="st2" d="M750.09,709.33v13.7c-0.01,3.79-2.13,7.26-5.51,9v15.22c0.14,4.07-3.05,7.49-7.12,7.63
	c-4.07,0.14-7.49-3.05-7.63-7.12c-0.01-0.17-0.01-0.34,0-0.5v-15.21c-3.38-1.74-5.5-5.21-5.52-9.01v-13.7
	c0.02-5.58,4.55-10.09,10.12-10.11h5.52C745.55,699.24,750.07,703.75,750.09,709.33z"/>
<circle class="st2" cx="737.21" cy="782.88" r="8.09"/>
<path class="st2" d="M750.09,802.83v13.7c-0.01,3.79-2.13,7.26-5.51,9v15.22c0.14,4.07-3.05,7.49-7.12,7.63s-7.49-3.05-7.63-7.12
	c-0.01-0.17-0.01-0.34,0-0.5v-15.21c-3.38-1.74-5.5-5.21-5.52-9.01v-13.7c0.02-5.58,4.55-10.09,10.12-10.11h5.52
	C745.55,792.74,750.07,797.25,750.09,802.83z"/>
<circle class="st2" cx="737.21" cy="876.38" r="8.09"/>
<path class="st2" d="M750.09,896.33v13.7c-0.01,3.79-2.13,7.26-5.51,9v15.22c0.14,4.07-3.05,7.49-7.12,7.63
	c-4.07,0.14-7.49-3.05-7.63-7.12c-0.01-0.17-0.01-0.34,0-0.5v-15.21c-3.38-1.74-5.5-5.21-5.52-9.01v-13.7
	c0.02-5.58,4.55-10.09,10.12-10.11h5.52C745.55,886.24,750.07,890.75,750.09,896.33z"/>
<circle class="st1" cx="834.21" cy="34.88" r="8.09"/>
<path class="st1" d="M847.1,54.82v13.7c-0.01,3.79-2.13,7.26-5.51,9v15.22c0.14,4.07-3.05,7.49-7.12,7.63s-7.49-3.05-7.63-7.12
	c-0.01-0.17-0.01-0.34,0-0.5V77.53c-3.38-1.74-5.5-5.21-5.52-9.01v-13.7c0.02-5.58,4.55-10.09,10.12-10.11h5.52
	C842.55,44.73,847.07,49.24,847.1,54.82z"/>
<circle class="st1" cx="834.21" cy="128.38" r="8.09"/>
<path class="st1" d="M847.1,148.32v13.7c-0.01,3.79-2.13,7.26-5.51,9v15.22c0.14,4.07-3.05,7.49-7.12,7.63
	c-4.07,0.14-7.49-3.05-7.63-7.12c-0.01-0.17-0.01-0.34,0-0.5v-15.21c-3.38-1.74-5.5-5.21-5.52-9.01v-13.7
	c0.02-5.58,4.55-10.09,10.12-10.11h5.52C842.55,138.23,847.07,142.74,847.1,148.32z"/>
<circle class="st1" cx="834.21" cy="221.88" r="8.09"/>
<path class="st1" d="M847.1,241.82v13.7c-0.01,3.79-2.13,7.26-5.51,9v15.22c0.14,4.07-3.05,7.49-7.12,7.63
	c-4.07,0.14-7.49-3.05-7.63-7.12c-0.01-0.17-0.01-0.34,0-0.5v-15.21c-3.38-1.74-5.5-5.21-5.52-9.01v-13.7
	c0.02-5.58,4.55-10.09,10.12-10.11h5.52C842.55,231.73,847.07,236.25,847.1,241.82z"/>
<circle class="st2" cx="834.21" cy="408.88" r="8.09"/>
<path class="st2" d="M847.1,428.83v13.7c-0.01,3.79-2.13,7.26-5.51,9v15.22c0.14,4.07-3.05,7.49-7.12,7.63
	c-4.07,0.14-7.49-3.05-7.63-7.12c-0.01-0.17-0.01-0.34,0-0.5v-15.21c-3.38-1.74-5.5-5.21-5.52-9.01v-13.7
	c0.02-5.58,4.55-10.09,10.12-10.11h5.52C842.55,418.73,847.07,423.25,847.1,428.83z"/>
<circle class="st2" cx="834.21" cy="502.38" r="8.09"/>
<path class="st2" d="M847.1,522.33v13.7c-0.01,3.79-2.13,7.26-5.51,9v15.22c0.14,4.07-3.05,7.49-7.12,7.63
	c-4.07,0.14-7.49-3.05-7.63-7.12c-0.01-0.17-0.01-0.34,0-0.5v-15.21c-3.38-1.74-5.5-5.21-5.52-9.01v-13.7
	c0.02-5.58,4.55-10.09,10.12-10.11h5.52C842.55,512.23,847.07,516.75,847.1,522.33z"/>
<circle class="st2" cx="834.21" cy="595.88" r="8.09"/>
<path class="st2" d="M847.1,615.83v13.7c-0.01,3.79-2.13,7.26-5.51,9v15.22c0.14,4.07-3.05,7.49-7.12,7.63s-7.49-3.05-7.63-7.12
	c-0.01-0.17-0.01-0.34,0-0.5v-15.21c-3.38-1.74-5.5-5.21-5.52-9.01v-13.7c0.02-5.58,4.55-10.09,10.12-10.11h5.52
	C842.55,605.73,847.07,610.25,847.1,615.83z"/>
<circle class="st2" cx="834.21" cy="689.38" r="8.09"/>
<path class="st2" d="M847.1,709.33v13.7c-0.01,3.79-2.13,7.26-5.51,9v15.22c0.14,4.07-3.05,7.49-7.12,7.63
	c-4.07,0.14-7.49-3.05-7.63-7.12c-0.01-0.17-0.01-0.34,0-0.5v-15.21c-3.38-1.74-5.5-5.21-5.52-9.01v-13.7
	c0.02-5.58,4.55-10.09,10.12-10.11h5.52C842.55,699.24,847.07,703.75,847.1,709.33z"/>
<circle class="st2" cx="834.21" cy="782.88" r="8.09"/>
<path class="st2" d="M847.1,802.83v13.7c-0.01,3.79-2.13,7.26-5.51,9v15.22c0.14,4.07-3.05,7.49-7.12,7.63s-7.49-3.05-7.63-7.12
	c-0.01-0.17-0.01-0.34,0-0.5v-15.21c-3.38-1.74-5.5-5.21-5.52-9.01v-13.7c0.02-5.58,4.55-10.09,10.12-10.11h5.52
	C842.55,792.74,847.07,797.25,847.1,802.83z"/>
<circle class="st2" cx="834.21" cy="315.38" r="8.09"/>
<path class="st2" d="M847.1,335.32v13.7c-0.01,3.79-2.13,7.26-5.51,9v15.22c0.14,4.07-3.05,7.49-7.12,7.63
	c-4.07,0.14-7.49-3.05-7.63-7.12c-0.01-0.17-0.01-0.34,0-0.5v-15.21c-3.38-1.74-5.5-5.21-5.52-9.01v-13.7
	c0.02-5.58,4.55-10.09,10.12-10.11h5.52C842.55,325.23,847.07,329.75,847.1,335.32z"/>
<circle class="st2" cx="834.21" cy="876.38" r="8.09"/>
<path class="st2" d="M847.1,896.33v13.7c-0.01,3.79-2.13,7.26-5.51,9v15.22c0.14,4.07-3.05,7.49-7.12,7.63
	c-4.07,0.14-7.49-3.05-7.63-7.12c-0.01-0.17-0.01-0.34,0-0.5v-15.21c-3.38-1.74-5.5-5.21-5.52-9.01v-13.7
	c0.02-5.58,4.55-10.09,10.12-10.11h5.52C842.55,886.24,847.07,890.75,847.1,896.33z"/>
<circle class="st1" cx="931.21" cy="34.88" r="8.09"/>
<path class="st1" d="M944.1,54.82v13.7c-0.01,3.79-2.13,7.26-5.51,9v15.22c0.14,4.07-3.05,7.49-7.12,7.63
	c-4.07,0.14-7.49-3.05-7.63-7.12c-0.01-0.17-0.01-0.34,0-0.5V77.53c-3.38-1.74-5.5-5.21-5.52-9.01v-13.7
	c0.02-5.58,4.55-10.09,10.12-10.11h5.52C939.55,44.73,944.08,49.24,944.1,54.82z"/>
<circle class="st1" cx="931.21" cy="128.38" r="8.09"/>
<path class="st1" d="M944.1,148.32v13.7c-0.01,3.79-2.13,7.26-5.51,9v15.22c0.14,4.07-3.05,7.49-7.12,7.63
	c-4.07,0.14-7.49-3.05-7.63-7.12c-0.01-0.17-0.01-0.34,0-0.5v-15.21c-3.38-1.74-5.5-5.21-5.52-9.01v-13.7
	c0.02-5.58,4.55-10.09,10.12-10.11h5.52C939.55,138.23,944.08,142.74,944.1,148.32z"/>
<circle class="st1" cx="931.21" cy="221.88" r="8.09"/>
<path class="st1" d="M944.1,241.82v13.7c-0.01,3.79-2.13,7.26-5.51,9v15.22c0.14,4.07-3.05,7.49-7.12,7.63
	c-4.07,0.14-7.49-3.05-7.63-7.12c-0.01-0.17-0.01-0.34,0-0.5v-15.21c-3.38-1.74-5.5-5.21-5.52-9.01v-13.7
	c0.02-5.58,4.55-10.09,10.12-10.11h5.52C939.55,231.73,944.08,236.25,944.1,241.82z"/>
<circle class="st2" cx="931.21" cy="408.88" r="8.09"/>
<path class="st2" d="M944.1,428.83v13.7c-0.01,3.79-2.13,7.26-5.51,9v15.22c0.14,4.07-3.05,7.49-7.12,7.63
	c-4.07,0.14-7.49-3.05-7.63-7.12c-0.01-0.17-0.01-0.34,0-0.5v-15.21c-3.38-1.74-5.5-5.21-5.52-9.01v-13.7
	c0.02-5.58,4.55-10.09,10.12-10.11h5.52C939.55,418.73,944.08,423.25,944.1,428.83z"/>
<circle class="st2" cx="931.21" cy="502.38" r="8.09"/>
<path class="st2" d="M944.1,522.33v13.7c-0.01,3.79-2.13,7.26-5.51,9v15.22c0.14,4.07-3.05,7.49-7.12,7.63
	c-4.07,0.14-7.49-3.05-7.63-7.12c-0.01-0.17-0.01-0.34,0-0.5v-15.21c-3.38-1.74-5.5-5.21-5.52-9.01v-13.7
	c0.02-5.58,4.55-10.09,10.12-10.11h5.52C939.55,512.23,944.08,516.75,944.1,522.33z"/>
<circle class="st2" cx="931.21" cy="595.88" r="8.09"/>
<path class="st2" d="M944.1,615.83v13.7c-0.01,3.79-2.13,7.26-5.51,9v15.22c0.14,4.07-3.05,7.49-7.12,7.63
	c-4.07,0.14-7.49-3.05-7.63-7.12c-0.01-0.17-0.01-0.34,0-0.5v-15.21c-3.38-1.74-5.5-5.21-5.52-9.01v-13.7
	c0.02-5.58,4.55-10.09,10.12-10.11h5.52C939.55,605.73,944.08,610.25,944.1,615.83z"/>
<circle class="st2" cx="931.21" cy="689.38" r="8.09"/>
<path class="st2" d="M944.1,709.33v13.7c-0.01,3.79-2.13,7.26-5.51,9v15.22c0.14,4.07-3.05,7.49-7.12,7.63
	c-4.07,0.14-7.49-3.05-7.63-7.12c-0.01-0.17-0.01-0.34,0-0.5v-15.21c-3.38-1.74-5.5-5.21-5.52-9.01v-13.7
	c0.02-5.58,4.55-10.09,10.12-10.11h5.52C939.55,699.24,944.08,703.75,944.1,709.33z"/>
<circle class="st2" cx="931.21" cy="782.88" r="8.09"/>
<path class="st2" d="M944.1,802.83v13.7c-0.01,3.79-2.13,7.26-5.51,9v15.22c0.14,4.07-3.05,7.49-7.12,7.63
	c-4.07,0.14-7.49-3.05-7.63-7.12c-0.01-0.17-0.01-0.34,0-0.5v-15.21c-3.38-1.74-5.5-5.21-5.52-9.01v-13.7
	c0.02-5.58,4.55-10.09,10.12-10.11h5.52C939.55,792.74,944.08,797.25,944.1,802.83z"/>
<circle class="st2" cx="931.21" cy="315.38" r="8.09"/>
<path class="st2" d="M944.1,335.32v13.7c-0.01,3.79-2.13,7.26-5.51,9v15.22c0.14,4.07-3.05,7.49-7.12,7.63
	c-4.07,0.14-7.49-3.05-7.63-7.12c-0.01-0.17-0.01-0.34,0-0.5v-15.21c-3.38-1.74-5.5-5.21-5.52-9.01v-13.7
	c0.02-5.58,4.55-10.09,10.12-10.11h5.52C939.55,325.23,944.08,329.75,944.1,335.32z"/>
<circle class="st2" cx="931.21" cy="876.38" r="8.09"/>
<path class="st2" d="M944.1,896.33v13.7c-0.01,3.79-2.13,7.26-5.51,9v15.22c0.14,4.07-3.05,7.49-7.12,7.63
	c-4.07,0.14-7.49-3.05-7.63-7.12c-0.01-0.17-0.01-0.34,0-0.5v-15.21c-3.38-1.74-5.5-5.21-5.52-9.01v-13.7
	c0.02-5.58,4.55-10.09,10.12-10.11h5.52C939.55,886.24,944.08,890.75,944.1,896.33z"/>
<rect x="957.5" y="334" class="st0" width="726" height="359"/>
<g>
	<g>
		<path class="st3" d="M1227.39,408.62v-29.21h10.31c3.28,0,5.85,0.81,7.68,2.43c1.84,1.62,2.76,3.92,2.76,6.88
			c0,2.94-0.92,5.22-2.76,6.84c-1.84,1.62-4.4,2.43-7.68,2.43h-4.95v10.62H1227.39z M1232.75,393.36h4.95
			c1.65,0,2.89-0.44,3.73-1.31c0.84-0.87,1.26-1.98,1.26-3.33c0-1.38-0.42-2.51-1.26-3.4c-0.84-0.88-2.08-1.33-3.73-1.33h-4.95
			V393.36z"/>
		<path class="st3" d="M1253.65,408.62V386.7h5.31v21.92H1253.65z M1257.65,399.03c0-2.86,0.32-5.23,0.97-7.11
			c0.65-1.88,1.51-3.27,2.6-4.17c1.09-0.91,2.3-1.36,3.63-1.36c0.36,0,0.7,0.02,1.02,0.07c0.32,0.04,0.64,0.11,0.96,0.2l-0.09,5.31
			c-0.39-0.09-0.81-0.17-1.26-0.23c-0.45-0.06-0.85-0.09-1.21-0.09c-1.17,0-2.15,0.28-2.94,0.84c-0.79,0.56-1.38,1.39-1.78,2.49
			c-0.4,1.09-0.6,2.44-0.6,4.05H1257.65z"/>
		<path class="st3" d="M1274.41,382.79c-1.04,0-1.84-0.27-2.42-0.82c-0.58-0.55-0.87-1.31-0.87-2.28c0-0.94,0.29-1.7,0.87-2.26
			s1.38-0.84,2.42-0.84c1,0,1.8,0.28,2.4,0.84c0.59,0.56,0.89,1.32,0.89,2.26c0,0.98-0.3,1.74-0.89,2.28
			C1276.22,382.51,1275.42,382.79,1274.41,382.79z M1271.76,408.62V386.7h5.31v21.92H1271.76z"/>
		<path class="st3" d="M1286.07,408.62v-21.83h4.64l0.58,3.74c0.72-1.46,1.67-2.55,2.86-3.27c1.18-0.73,2.54-1.09,4.07-1.09
			c1.8,0,3.3,0.4,4.51,1.2c1.21,0.8,2.11,1.93,2.72,3.39c0.61,1.46,0.91,3.15,0.91,5.09v12.78h-5.31v-12.78
			c0-1.62-0.39-2.84-1.17-3.67c-0.78-0.83-1.8-1.24-3.06-1.24c-1.07,0-2.01,0.29-2.82,0.88s-1.46,1.47-1.92,2.64s-0.7,2.64-0.7,4.4
			v9.77H1286.07z M1315.72,408.62v-12.78c0-1.62-0.39-2.84-1.17-3.67c-0.78-0.83-1.8-1.24-3.06-1.24c-1.59,0-2.84,0.65-3.76,1.94
			s-1.37,3.24-1.37,5.85h-2.21c0-2.29,0.21-4.24,0.64-5.84s1.04-2.89,1.82-3.87c0.79-0.98,1.71-1.7,2.78-2.16
			c1.06-0.46,2.24-0.69,3.53-0.69c1.79,0,3.28,0.4,4.49,1.2c1.21,0.8,2.12,1.93,2.73,3.39c0.62,1.46,0.92,3.15,0.92,5.09v12.78
			H1315.72z"/>
		<path class="st3" d="M1335.52,409.25c-1.88,0-3.44-0.33-4.69-0.98c-1.25-0.65-2.19-1.51-2.82-2.58s-0.95-2.22-0.95-3.47
			c0-1.38,0.36-2.54,1.09-3.48s1.76-1.64,3.09-2.12c1.33-0.47,2.91-0.71,4.72-0.71c1.18,0,2.31,0.09,3.36,0.27
			c1.06,0.18,2.11,0.42,3.16,0.72v3.1c-0.83-0.27-1.73-0.48-2.7-0.63c-0.98-0.15-1.89-0.23-2.75-0.23c-1.26,0-2.29,0.23-3.1,0.7
			c-0.81,0.46-1.22,1.25-1.22,2.36c0,0.81,0.33,1.51,0.99,2.09s1.71,0.88,3.15,0.88c1.09,0,2.02-0.24,2.79-0.72
			c0.76-0.48,1.35-1.08,1.74-1.8c0.4-0.72,0.6-1.44,0.6-2.16h1.26c0,1.58-0.29,3.03-0.88,4.35c-0.58,1.33-1.45,2.39-2.6,3.18
			C1338.64,408.85,1337.22,409.25,1335.52,409.25z M1342.68,408.62l-0.67-5.31v-8.77c0-1.53-0.31-2.66-0.93-3.4
			c-0.62-0.73-1.68-1.1-3.16-1.1c-0.86,0-1.6,0.13-2.23,0.38c-0.63,0.26-1.11,0.62-1.45,1.09c-0.34,0.47-0.51,1.05-0.51,1.72h-5.8
			c0-1.65,0.4-3,1.19-4.04s1.94-1.81,3.43-2.29c1.49-0.49,3.28-0.73,5.37-0.73c1.89,0,3.54,0.3,4.95,0.91
			c1.41,0.61,2.5,1.54,3.29,2.8c0.78,1.26,1.17,2.87,1.17,4.84v13.9H1342.68z"/>
		<path class="st3" d="M1355.1,408.62V386.7h5.31v21.92H1355.1z M1359.1,399.03c0-2.86,0.32-5.23,0.97-7.11
			c0.65-1.88,1.51-3.27,2.6-4.17c1.09-0.91,2.3-1.36,3.63-1.36c0.36,0,0.7,0.02,1.02,0.07c0.32,0.04,0.64,0.11,0.96,0.2l-0.09,5.31
			c-0.39-0.09-0.81-0.17-1.26-0.23c-0.45-0.06-0.85-0.09-1.21-0.09c-1.17,0-2.15,0.28-2.94,0.84c-0.79,0.56-1.38,1.39-1.78,2.49
			c-0.4,1.09-0.6,2.44-0.6,4.05H1359.1z"/>
		<path class="st3" d="M1375.86,382.79c-1.04,0-1.84-0.27-2.42-0.82c-0.58-0.55-0.87-1.31-0.87-2.28c0-0.94,0.29-1.7,0.87-2.26
			s1.38-0.84,2.42-0.84c1,0,1.8,0.28,2.4,0.84c0.59,0.56,0.89,1.32,0.89,2.26c0,0.98-0.3,1.74-0.89,2.28
			C1377.67,382.51,1376.87,382.79,1375.86,382.79z M1373.21,408.62V386.7h5.31v21.92H1373.21z"/>
		<path class="st3" d="M1394.27,409.25c-1.88,0-3.44-0.33-4.69-0.98c-1.25-0.65-2.19-1.51-2.82-2.58s-0.95-2.22-0.95-3.47
			c0-1.38,0.36-2.54,1.09-3.48s1.76-1.64,3.09-2.12c1.33-0.47,2.91-0.71,4.72-0.71c1.18,0,2.31,0.09,3.36,0.27
			c1.06,0.18,2.11,0.42,3.16,0.72v3.1c-0.83-0.27-1.73-0.48-2.7-0.63c-0.98-0.15-1.89-0.23-2.75-0.23c-1.26,0-2.29,0.23-3.1,0.7
			c-0.81,0.46-1.22,1.25-1.22,2.36c0,0.81,0.33,1.51,0.99,2.09s1.71,0.88,3.15,0.88c1.09,0,2.02-0.24,2.79-0.72
			c0.76-0.48,1.35-1.08,1.74-1.8c0.4-0.72,0.6-1.44,0.6-2.16h1.26c0,1.58-0.29,3.03-0.88,4.35c-0.58,1.33-1.45,2.39-2.6,3.18
			C1397.39,408.85,1395.96,409.25,1394.27,409.25z M1401.42,408.62l-0.67-5.31v-8.77c0-1.53-0.31-2.66-0.93-3.4
			c-0.62-0.73-1.68-1.1-3.16-1.1c-0.86,0-1.6,0.13-2.23,0.38c-0.63,0.26-1.11,0.62-1.45,1.09c-0.34,0.47-0.51,1.05-0.51,1.72h-5.8
			c0-1.65,0.4-3,1.19-4.04s1.94-1.81,3.43-2.29c1.49-0.49,3.28-0.73,5.37-0.73c1.89,0,3.54,0.3,4.95,0.91
			c1.41,0.61,2.5,1.54,3.29,2.8c0.78,1.26,1.17,2.87,1.17,4.84v13.9H1401.42z"/>
	</g>
</g>
<path class="st2" d="M1099.44,523.81l20.45-20.45v14.9c0,1,0.41,1.91,1.06,2.56s1.56,1.06,2.56,1.06c2,0,3.62-1.62,3.62-3.62v-23.64
	c0-0.47-0.09-0.95-0.28-1.39c-0.01-0.02-0.02-0.03-0.03-0.05c-0.18-0.4-0.42-0.78-0.75-1.12c-0.33-0.33-0.71-0.57-1.12-0.75
	c-0.02-0.01-0.03-0.02-0.05-0.03c-0.45-0.18-0.92-0.28-1.4-0.28h-23.64c-2,0-3.62,1.62-3.62,3.62c0,1,0.41,1.91,1.06,2.56
	c0.65,0.66,1.56,1.06,2.56,1.06l14.9,0l-20.45,20.45c-12.16-9.61-29.9-8.83-41.12,2.39c-12.09,12.09-12.09,31.76,0,43.85
	c12.09,12.09,31.76,12.09,43.85,0C1108.26,553.71,1109.05,535.97,1099.44,523.81z M1058.31,559.82c-9.27-9.27-9.27-24.34,0-33.61
	c9.26-9.26,24.34-9.26,33.61,0c9.26,9.27,9.26,24.34,0,33.61C1082.65,569.08,1067.58,569.08,1058.31,559.82z"/>
<path class="st1" d="M1417.5,521.67c0-16.54-13.46-30-30-30c-16.54,0-30,13.46-30,30c0,15.53,11.86,28.34,27,29.85V568h-10.75
	c-1.66,0-3,1.34-3,3s1.34,3,3,3h10.75v10.33c0,1.66,1.34,3,3,3s3-1.34,3-3V574h11.25c1.66,0,3-1.34,3-3s-1.34-3-3-3h-11.25v-16.48
	C1405.64,550.01,1417.5,537.2,1417.5,521.67z M1387.5,545.67c-13.23,0-24-10.77-24-24s10.77-24,24-24c13.23,0,24,10.77,24,24
	S1400.73,545.67,1387.5,545.67z"/>
<g>
	<g>
		<path class="st3" d="M1176.99,558.87c-3.8,0-7.15-0.99-10.04-2.98c-2.89-1.98-5.15-4.7-6.77-8.14c-1.62-3.44-2.43-7.37-2.43-11.78
			c0-5.2,0.82-9.63,2.45-13.26c1.63-3.64,3.92-6.41,6.88-8.31s6.4-2.85,10.34-2.85c3.01,0,5.67,0.55,7.98,1.66
			c2.31,1.11,4.13,2.67,5.46,4.67s2.05,4.35,2.17,7.03h-8.82c-0.26-1.82-0.91-3.25-1.96-4.3c-1.05-1.05-2.57-1.58-4.55-1.58
			c-3.59,0-6.44,1.58-8.54,4.74c-2.1,3.16-3.15,7.46-3.15,12.9c0,0.7,0.02,1.46,0.05,2.27c0.04,0.82,0.11,1.6,0.23,2.35
			c0.37-2.87,1.2-5.12,2.47-6.76c1.27-1.63,2.8-2.79,4.6-3.48c1.8-0.69,3.69-1.03,5.67-1.03c2.85,0,5.35,0.62,7.52,1.85
			s3.87,2.94,5.11,5.11c1.24,2.17,1.85,4.65,1.85,7.46c0,2.87-0.69,5.39-2.08,7.56c-1.39,2.17-3.33,3.86-5.81,5.06
			C1183.14,558.27,1180.26,558.87,1176.99,558.87z M1176.99,551.31c2.19,0,4.07-0.66,5.63-1.98c1.56-1.32,2.34-3.06,2.34-5.23
			c0-2.26-0.78-4.04-2.34-5.34s-3.44-1.94-5.63-1.94c-1.45,0-2.76,0.3-3.94,0.91c-1.18,0.61-2.12,1.46-2.83,2.56
			c-0.71,1.1-1.07,2.37-1.07,3.81c0,2.17,0.76,3.91,2.29,5.23C1172.97,550.65,1174.82,551.31,1176.99,551.31z"/>
		<path class="st3" d="M1218.85,558.87c-2.4,0-4.73-0.33-6.96-0.98c-2.24-0.65-4.25-1.62-6.02-2.9s-3.18-2.88-4.22-4.78
			c-1.04-1.9-1.56-4.1-1.56-6.6h8.68c0.09,1.59,0.57,2.96,1.43,4.11s2.04,2.04,3.52,2.66s3.19,0.93,5.13,0.93
			c2.85,0,5.08-0.65,6.68-1.96c1.61-1.31,2.42-2.96,2.42-4.97c0-1.31-0.33-2.43-0.98-3.38c-0.65-0.94-1.66-1.67-3.01-2.17
			c-1.35-0.5-3.08-0.75-5.18-0.75h-6.02v-6.51h5.11c2.66,0,4.75-0.57,6.27-1.72c1.52-1.14,2.27-2.69,2.27-4.65
			c0-1.75-0.65-3.21-1.96-4.39c-1.31-1.18-3.27-1.77-5.88-1.77c-2.12,0-4.02,0.43-5.69,1.29c-1.67,0.86-2.74,2.37-3.2,4.52H1201
			c0.33-3.1,1.27-5.63,2.82-7.59c1.55-1.96,3.56-3.4,6.04-4.32c2.47-0.92,5.26-1.38,8.37-1.38c3.29,0,6.22,0.54,8.79,1.61
			c2.57,1.07,4.59,2.56,6.07,4.46c1.48,1.9,2.22,4.1,2.22,6.6c0,2.31-0.63,4.32-1.89,6.04c-1.26,1.71-3.13,2.99-5.6,3.83
			c2.75,0.93,4.96,2.32,6.62,4.17c1.66,1.84,2.48,4.14,2.48,6.89c0,2.68-0.75,5.06-2.26,7.12c-1.51,2.06-3.61,3.68-6.32,4.85
			S1222.47,558.87,1218.85,558.87z"/>
	</g>
</g>
<g>
	<g>
		<path class="st3" d="M1472.45,558.87c-2.4,0-4.73-0.33-6.96-0.98c-2.24-0.65-4.25-1.62-6.02-2.9s-3.18-2.88-4.22-4.78
			c-1.04-1.9-1.56-4.1-1.56-6.6h8.68c0.09,1.59,0.57,2.96,1.43,4.11s2.04,2.04,3.52,2.66s3.19,0.93,5.13,0.93
			c2.85,0,5.08-0.65,6.68-1.96c1.61-1.31,2.42-2.96,2.42-4.97c0-1.31-0.33-2.43-0.98-3.38c-0.65-0.94-1.66-1.67-3.01-2.17
			c-1.35-0.5-3.08-0.75-5.18-0.75h-6.02v-6.51h5.11c2.66,0,4.75-0.57,6.27-1.72c1.52-1.14,2.27-2.69,2.27-4.65
			c0-1.75-0.65-3.21-1.96-4.39c-1.31-1.18-3.27-1.77-5.88-1.77c-2.12,0-4.02,0.43-5.69,1.29c-1.67,0.86-2.74,2.37-3.2,4.52h-8.68
			c0.33-3.1,1.27-5.63,2.82-7.59c1.55-1.96,3.56-3.4,6.04-4.32c2.47-0.92,5.26-1.38,8.37-1.38c3.29,0,6.22,0.54,8.79,1.61
			c2.57,1.07,4.59,2.56,6.07,4.46c1.48,1.9,2.22,4.1,2.22,6.6c0,2.31-0.63,4.32-1.89,6.04c-1.26,1.71-3.13,2.99-5.6,3.83
			c2.75,0.93,4.96,2.32,6.62,4.17c1.66,1.84,2.48,4.14,2.48,6.89c0,2.68-0.75,5.06-2.26,7.12c-1.51,2.06-3.61,3.68-6.32,4.85
			S1476.06,558.87,1472.45,558.87z"/>
		<path class="st3" d="M1497.16,557.89l20.79-37.45h-22.19v-7.98h31.92v7.91l-19.39,37.52H1497.16z"/>
	</g>
</g>
</svg>
