<?xml version="1.0" encoding="utf-8"?>
<!-- Generator: Adobe Illustrator 24.0.2, SVG Export Plug-In . SVG Version: 6.00 Build 0)  -->
<svg version="1.1" id="Capa_1" xmlns="http://www.w3.org/2000/svg" xmlns:xlink="http://www.w3.org/1999/xlink" x="0px" y="0px"
	 viewBox="0 0 680 480" style="enable-background:new 0 0 680 480;" xml:space="preserve">
<style type="text/css">
	.st0{fill:#252525;}
	.st1{fill:none;stroke:#FF5757;stroke-miterlimit:10;}
	.st2{opacity:0.7;}
	.st3{fill:#FF5757;}
	.st4{fill:#FFFFFF;}
	.st5{opacity:0.6;}
	.st6{opacity:0.5;}
	.st7{opacity:0.4;}
	.st8{opacity:0.8;}
	.st9{opacity:0.9;}
	.st10{fill:none;stroke:#FFFFFF;stroke-width:3;stroke-miterlimit:10;}
</style>
<rect x="-1" y="1" class="st0" width="680" height="478"/>
<line class="st1" x1="501.3" y1="51.8" x2="502.8" y2="51.8"/>
<line class="st1" x1="580" y1="51.8" x2="581.5" y2="51.8"/>
<line class="st1" x1="575.4" y1="51.8" x2="576.9" y2="51.8"/>
<line class="st1" x1="570.7" y1="51.8" x2="572.3" y2="51.8"/>
<line class="st1" x1="566.1" y1="51.8" x2="567.6" y2="51.8"/>
<line class="st1" x1="561.5" y1="51.8" x2="563" y2="51.8"/>
<line class="st1" x1="556.9" y1="51.8" x2="558.4" y2="51.8"/>
<line class="st1" x1="552.2" y1="51.8" x2="553.7" y2="51.8"/>
<line class="st1" x1="547.6" y1="51.8" x2="549.1" y2="51.8"/>
<line class="st1" x1="543" y1="51.8" x2="544.5" y2="51.8"/>
<line class="st1" x1="538.3" y1="51.8" x2="539.8" y2="51.8"/>
<line class="st1" x1="533.7" y1="51.8" x2="535.2" y2="51.8"/>
<line class="st1" x1="529.1" y1="51.8" x2="530.6" y2="51.8"/>
<line class="st1" x1="524.4" y1="51.8" x2="525.9" y2="51.8"/>
<line class="st1" x1="519.8" y1="51.8" x2="521.3" y2="51.8"/>
<line class="st1" x1="515.2" y1="51.8" x2="516.7" y2="51.8"/>
<line class="st1" x1="510.5" y1="51.8" x2="512" y2="51.8"/>
<line class="st1" x1="505.9" y1="51.8" x2="507.4" y2="51.8"/>
<line class="st1" x1="584.6" y1="51.8" x2="586.2" y2="51.8"/>
<line class="st1" x1="418.3" y1="51.8" x2="419.8" y2="51.8"/>
<line class="st1" x1="497" y1="51.8" x2="498.5" y2="51.8"/>
<line class="st1" x1="492.4" y1="51.8" x2="493.9" y2="51.8"/>
<line class="st1" x1="487.7" y1="51.8" x2="489.3" y2="51.8"/>
<line class="st1" x1="483.1" y1="51.8" x2="484.6" y2="51.8"/>
<line class="st1" x1="478.5" y1="51.8" x2="480" y2="51.8"/>
<line class="st1" x1="473.9" y1="51.8" x2="475.4" y2="51.8"/>
<line class="st1" x1="469.2" y1="51.8" x2="470.7" y2="51.8"/>
<line class="st1" x1="464.6" y1="51.8" x2="466.1" y2="51.8"/>
<line class="st1" x1="460" y1="51.8" x2="461.5" y2="51.8"/>
<line class="st1" x1="455.3" y1="51.8" x2="456.8" y2="51.8"/>
<line class="st1" x1="450.7" y1="51.8" x2="452.2" y2="51.8"/>
<line class="st1" x1="446.1" y1="51.8" x2="447.6" y2="51.8"/>
<line class="st1" x1="441.4" y1="51.8" x2="442.9" y2="51.8"/>
<line class="st1" x1="436.8" y1="51.8" x2="438.3" y2="51.8"/>
<line class="st1" x1="432.2" y1="51.8" x2="433.7" y2="51.8"/>
<line class="st1" x1="427.5" y1="51.8" x2="429" y2="51.8"/>
<line class="st1" x1="422.9" y1="51.8" x2="424.4" y2="51.8"/>
<line class="st1" x1="501.6" y1="51.8" x2="503.2" y2="51.8"/>
<line class="st1" x1="336.3" y1="51.8" x2="337.8" y2="51.8"/>
<line class="st1" x1="415" y1="51.8" x2="416.5" y2="51.8"/>
<line class="st1" x1="410.4" y1="51.8" x2="411.9" y2="51.8"/>
<line class="st1" x1="405.7" y1="51.8" x2="407.3" y2="51.8"/>
<line class="st1" x1="401.1" y1="51.8" x2="402.6" y2="51.8"/>
<line class="st1" x1="396.5" y1="51.8" x2="398" y2="51.8"/>
<line class="st1" x1="391.9" y1="51.8" x2="393.4" y2="51.8"/>
<line class="st1" x1="387.2" y1="51.8" x2="388.7" y2="51.8"/>
<line class="st1" x1="382.6" y1="51.8" x2="384.1" y2="51.8"/>
<line class="st1" x1="378" y1="51.8" x2="379.5" y2="51.8"/>
<line class="st1" x1="373.3" y1="51.8" x2="374.8" y2="51.8"/>
<line class="st1" x1="368.7" y1="51.8" x2="370.2" y2="51.8"/>
<line class="st1" x1="364.1" y1="51.8" x2="365.6" y2="51.8"/>
<line class="st1" x1="359.4" y1="51.8" x2="360.9" y2="51.8"/>
<line class="st1" x1="354.8" y1="51.8" x2="356.3" y2="51.8"/>
<line class="st1" x1="350.2" y1="51.8" x2="351.7" y2="51.8"/>
<line class="st1" x1="345.5" y1="51.8" x2="347" y2="51.8"/>
<line class="st1" x1="340.9" y1="51.8" x2="342.4" y2="51.8"/>
<line class="st1" x1="419.6" y1="51.8" x2="421.2" y2="51.8"/>
<line class="st1" x1="249.3" y1="51.8" x2="250.8" y2="51.8"/>
<line class="st1" x1="328" y1="51.8" x2="329.5" y2="51.8"/>
<line class="st1" x1="323.4" y1="51.8" x2="324.9" y2="51.8"/>
<line class="st1" x1="318.7" y1="51.8" x2="320.3" y2="51.8"/>
<line class="st1" x1="314.1" y1="51.8" x2="315.6" y2="51.8"/>
<line class="st1" x1="309.5" y1="51.8" x2="311" y2="51.8"/>
<line class="st1" x1="304.9" y1="51.8" x2="306.4" y2="51.8"/>
<line class="st1" x1="300.2" y1="51.8" x2="301.7" y2="51.8"/>
<line class="st1" x1="295.6" y1="51.8" x2="297.1" y2="51.8"/>
<line class="st1" x1="291" y1="51.8" x2="292.5" y2="51.8"/>
<line class="st1" x1="286.3" y1="51.8" x2="287.8" y2="51.8"/>
<line class="st1" x1="281.7" y1="51.8" x2="283.2" y2="51.8"/>
<line class="st1" x1="277.1" y1="51.8" x2="278.6" y2="51.8"/>
<line class="st1" x1="272.4" y1="51.8" x2="273.9" y2="51.8"/>
<line class="st1" x1="267.8" y1="51.8" x2="269.3" y2="51.8"/>
<line class="st1" x1="263.2" y1="51.8" x2="264.7" y2="51.8"/>
<line class="st1" x1="258.5" y1="51.8" x2="260" y2="51.8"/>
<line class="st1" x1="253.9" y1="51.8" x2="255.4" y2="51.8"/>
<line class="st1" x1="332.6" y1="51.8" x2="334.2" y2="51.8"/>
<line class="st1" x1="167.3" y1="51.8" x2="168.8" y2="51.8"/>
<line class="st1" x1="246" y1="51.8" x2="247.5" y2="51.8"/>
<line class="st1" x1="241.4" y1="51.8" x2="242.9" y2="51.8"/>
<line class="st1" x1="236.7" y1="51.8" x2="238.3" y2="51.8"/>
<line class="st1" x1="232.1" y1="51.8" x2="233.6" y2="51.8"/>
<line class="st1" x1="227.5" y1="51.8" x2="229" y2="51.8"/>
<line class="st1" x1="222.9" y1="51.8" x2="224.4" y2="51.8"/>
<line class="st1" x1="218.2" y1="51.8" x2="219.7" y2="51.8"/>
<line class="st1" x1="213.6" y1="51.8" x2="215.1" y2="51.8"/>
<line class="st1" x1="209" y1="51.8" x2="210.5" y2="51.8"/>
<line class="st1" x1="204.3" y1="51.8" x2="205.8" y2="51.8"/>
<line class="st1" x1="199.7" y1="51.8" x2="201.2" y2="51.8"/>
<line class="st1" x1="195.1" y1="51.8" x2="196.6" y2="51.8"/>
<line class="st1" x1="190.4" y1="51.8" x2="191.9" y2="51.8"/>
<line class="st1" x1="185.8" y1="51.8" x2="187.3" y2="51.8"/>
<line class="st1" x1="181.2" y1="51.8" x2="182.7" y2="51.8"/>
<line class="st1" x1="176.5" y1="51.8" x2="178" y2="51.8"/>
<line class="st1" x1="171.9" y1="51.8" x2="173.4" y2="51.8"/>
<line class="st1" x1="250.6" y1="51.8" x2="252.2" y2="51.8"/>
<line class="st1" x1="85.3" y1="51.8" x2="86.8" y2="51.8"/>
<line class="st1" x1="164" y1="51.8" x2="165.5" y2="51.8"/>
<line class="st1" x1="159.4" y1="51.8" x2="160.9" y2="51.8"/>
<line class="st1" x1="154.7" y1="51.8" x2="156.3" y2="51.8"/>
<line class="st1" x1="150.1" y1="51.8" x2="151.6" y2="51.8"/>
<line class="st1" x1="145.5" y1="51.8" x2="147" y2="51.8"/>
<line class="st1" x1="140.9" y1="51.8" x2="142.4" y2="51.8"/>
<line class="st1" x1="136.2" y1="51.8" x2="137.7" y2="51.8"/>
<line class="st1" x1="131.6" y1="51.8" x2="133.1" y2="51.8"/>
<line class="st1" x1="127" y1="51.8" x2="128.5" y2="51.8"/>
<line class="st1" x1="122.3" y1="51.8" x2="123.8" y2="51.8"/>
<line class="st1" x1="117.7" y1="51.8" x2="119.2" y2="51.8"/>
<line class="st1" x1="113.1" y1="51.8" x2="114.6" y2="51.8"/>
<line class="st1" x1="108.4" y1="51.8" x2="109.9" y2="51.8"/>
<line class="st1" x1="103.8" y1="51.8" x2="105.3" y2="51.8"/>
<line class="st1" x1="99.2" y1="51.8" x2="100.7" y2="51.8"/>
<line class="st1" x1="94.5" y1="51.8" x2="96" y2="51.8"/>
<line class="st1" x1="89.9" y1="51.8" x2="91.4" y2="51.8"/>
<line class="st1" x1="168.6" y1="51.8" x2="170.2" y2="51.8"/>
<g class="st2">
	<rect x="320" y="104.1" class="st3" width="30" height="304"/>
	<polygon class="st3" points="335,88.9 320,103.9 350,103.9 	"/>
</g>
<g>
	<g>
		<path class="st4" d="M322.9,79.8l4.5-8.3h-5v-1.1h6.4v1.1l-4.3,8.3H322.9z"/>
		<path class="st4" d="M333.6,80c-0.8,0-1.4-0.2-2-0.6s-1-1-1.3-1.7s-0.5-1.5-0.5-2.4c0-1.1,0.2-2,0.5-2.7c0.3-0.8,0.8-1.3,1.4-1.7
			c0.6-0.4,1.3-0.6,2.1-0.6c0.6,0,1.1,0.1,1.5,0.3c0.4,0.2,0.8,0.5,1,0.9c0.3,0.4,0.4,0.8,0.5,1.3h-1.3c-0.1-0.5-0.2-0.8-0.5-1.1
			c-0.3-0.3-0.7-0.4-1.2-0.4c-0.9,0-1.5,0.4-2,1.1c-0.5,0.7-0.7,1.8-0.7,3c0,0.2,0,0.4,0,0.6c0,0.2,0,0.5,0.1,0.7
			c0-0.7,0.2-1.2,0.5-1.6c0.3-0.4,0.6-0.7,1-0.8c0.4-0.2,0.8-0.2,1.3-0.2c0.6,0,1.1,0.1,1.5,0.4s0.8,0.6,1.1,1
			c0.3,0.4,0.4,1,0.4,1.5c0,0.6-0.1,1.1-0.4,1.5s-0.6,0.8-1.1,1C334.8,79.9,334.2,80,333.6,80z M333.6,78.9c0.6,0,1-0.2,1.4-0.5
			s0.6-0.8,0.6-1.4c0-0.6-0.2-1-0.6-1.4c-0.4-0.3-0.8-0.5-1.4-0.5c-0.4,0-0.7,0.1-1,0.2c-0.3,0.2-0.5,0.4-0.7,0.7
			c-0.2,0.3-0.3,0.6-0.3,1c0,0.6,0.2,1,0.6,1.4S333,78.9,333.6,78.9z"/>
		<path class="st4" d="M340.5,74.5c-0.3,0-0.6-0.1-0.9-0.2c-0.3-0.2-0.5-0.4-0.7-0.7s-0.3-0.7-0.3-1.2c0-0.5,0.1-0.9,0.3-1.2
			s0.4-0.6,0.7-0.7c0.3-0.2,0.6-0.2,0.9-0.2c0.3,0,0.7,0.1,1,0.2c0.3,0.2,0.5,0.4,0.7,0.7s0.3,0.7,0.3,1.2c0,0.5-0.1,0.9-0.3,1.2
			s-0.4,0.6-0.7,0.7C341.1,74.5,340.8,74.5,340.5,74.5z M339.3,79.8l6.3-9.4h1.2l-6.3,9.4H339.3z M340.5,73.7c0.3,0,0.5-0.1,0.7-0.3
			s0.3-0.6,0.3-1s-0.1-0.8-0.3-1s-0.4-0.3-0.7-0.3c-0.3,0-0.5,0.1-0.7,0.3c-0.2,0.2-0.3,0.6-0.3,1s0.1,0.8,0.3,1
			C340,73.6,340.2,73.7,340.5,73.7z M345.7,80c-0.3,0-0.6-0.1-0.9-0.2c-0.3-0.2-0.5-0.4-0.7-0.7c-0.2-0.3-0.3-0.7-0.3-1.2
			c0-0.5,0.1-0.9,0.3-1.2c0.2-0.3,0.4-0.6,0.7-0.7c0.3-0.2,0.6-0.2,0.9-0.2c0.3,0,0.7,0.1,1,0.2s0.5,0.4,0.7,0.7
			c0.2,0.3,0.3,0.7,0.3,1.2c0,0.5-0.1,0.9-0.3,1.2c-0.2,0.3-0.4,0.6-0.7,0.7S346.1,80,345.7,80z M345.7,79.2c0.3,0,0.5-0.1,0.7-0.3
			s0.3-0.6,0.3-1c0-0.5-0.1-0.8-0.3-1c-0.2-0.2-0.4-0.3-0.7-0.3c-0.3,0-0.5,0.1-0.7,0.3c-0.2,0.2-0.3,0.6-0.3,1c0,0.5,0.1,0.8,0.3,1
			C345.2,79.1,345.4,79.2,345.7,79.2z"/>
	</g>
</g>
<circle class="st4" cx="336" cy="51.9" r="4"/>
<g class="st5">
	<rect x="233" y="104.1" class="st3" width="30" height="304"/>
	<polygon class="st3" points="248,88.8 233,103.8 263,103.8 	"/>
</g>
<g>
	<g>
		<path class="st4" d="M235.4,79.7l4.5-8.3h-5v-1.1h6.4v1.1l-4.3,8.3H235.4z"/>
		<path class="st4" d="M246,79.9c-0.8,0-1.4-0.2-2-0.6s-1-1-1.3-1.7s-0.5-1.5-0.5-2.4c0-1.1,0.2-2,0.5-2.7c0.3-0.8,0.8-1.3,1.4-1.7
			c0.6-0.4,1.3-0.6,2.1-0.6c0.6,0,1.1,0.1,1.5,0.3c0.4,0.2,0.8,0.5,1,0.9c0.3,0.4,0.4,0.8,0.5,1.3h-1.3c-0.1-0.5-0.2-0.8-0.5-1.1
			c-0.3-0.3-0.7-0.4-1.2-0.4c-0.9,0-1.5,0.4-2,1.1c-0.5,0.7-0.7,1.8-0.7,3c0,0.2,0,0.4,0,0.6c0,0.2,0,0.5,0.1,0.7
			c0-0.7,0.2-1.2,0.5-1.6c0.3-0.4,0.6-0.7,1-0.8c0.4-0.2,0.8-0.2,1.3-0.2c0.6,0,1.1,0.1,1.5,0.4s0.8,0.6,1.1,1
			c0.3,0.4,0.4,1,0.4,1.5c0,0.6-0.1,1.1-0.4,1.5s-0.6,0.8-1.1,1C247.2,79.8,246.7,79.9,246,79.9z M246,78.8c0.6,0,1-0.2,1.4-0.5
			s0.6-0.8,0.6-1.4c0-0.6-0.2-1-0.6-1.4c-0.4-0.3-0.8-0.5-1.4-0.5c-0.4,0-0.7,0.1-1,0.2c-0.3,0.2-0.5,0.4-0.7,0.7
			c-0.2,0.3-0.3,0.6-0.3,1c0,0.6,0.2,1,0.6,1.4S245.5,78.8,246,78.8z"/>
		<path class="st4" d="M252.9,74.4c-0.3,0-0.6-0.1-0.9-0.2c-0.3-0.2-0.5-0.4-0.7-0.7s-0.3-0.7-0.3-1.2c0-0.5,0.1-0.9,0.3-1.2
			s0.4-0.6,0.7-0.7c0.3-0.2,0.6-0.2,0.9-0.2c0.3,0,0.7,0.1,1,0.2c0.3,0.2,0.5,0.4,0.7,0.7c0.2,0.3,0.3,0.7,0.3,1.2
			c0,0.5-0.1,0.9-0.3,1.2c-0.2,0.3-0.4,0.6-0.7,0.7C253.6,74.3,253.3,74.4,252.9,74.4z M251.8,79.7l6.3-9.4h1.2l-6.3,9.4H251.8z
			 M252.9,73.6c0.3,0,0.5-0.1,0.7-0.3c0.2-0.2,0.3-0.6,0.3-1s-0.1-0.8-0.3-1c-0.2-0.2-0.4-0.3-0.7-0.3c-0.3,0-0.5,0.1-0.7,0.3
			c-0.2,0.2-0.3,0.6-0.3,1s0.1,0.8,0.3,1C252.4,73.5,252.6,73.6,252.9,73.6z M258.2,79.9c-0.3,0-0.6-0.1-0.9-0.2
			c-0.3-0.2-0.5-0.4-0.7-0.7s-0.3-0.7-0.3-1.2c0-0.5,0.1-0.9,0.3-1.2s0.4-0.6,0.7-0.7c0.3-0.2,0.6-0.2,0.9-0.2c0.3,0,0.7,0.1,1,0.2
			c0.3,0.2,0.5,0.4,0.7,0.7c0.2,0.3,0.3,0.7,0.3,1.2c0,0.5-0.1,0.9-0.3,1.2c-0.2,0.3-0.4,0.6-0.7,0.7
			C258.8,79.8,258.5,79.9,258.2,79.9z M258.2,79c0.3,0,0.5-0.1,0.7-0.3s0.3-0.6,0.3-1c0-0.5-0.1-0.8-0.3-1c-0.2-0.2-0.4-0.3-0.7-0.3
			c-0.3,0-0.5,0.1-0.7,0.3c-0.2,0.2-0.3,0.6-0.3,1c0,0.5,0.1,0.8,0.3,1C257.7,78.9,257.9,79,258.2,79z"/>
	</g>
</g>
<circle class="st4" cx="248.4" cy="51.8" r="4"/>
<g class="st6">
	<rect x="155" y="104.1" class="st3" width="30" height="304"/>
	<polygon class="st3" points="170,89.1 155,104.1 185,104.1 	"/>
</g>
<g>
	<g>
		<path class="st4" d="M156.4,79.9l4.5-8.3h-5v-1.1h6.4v1.1l-4.3,8.3H156.4z"/>
		<path class="st4" d="M167,80.1c-0.8,0-1.4-0.2-2-0.6s-1-1-1.3-1.7s-0.5-1.5-0.5-2.4c0-1.1,0.2-2,0.5-2.7c0.3-0.8,0.8-1.3,1.4-1.7
			c0.6-0.4,1.3-0.6,2.1-0.6c0.6,0,1.1,0.1,1.5,0.3c0.4,0.2,0.8,0.5,1,0.9c0.3,0.4,0.4,0.8,0.5,1.3h-1.3c-0.1-0.5-0.2-0.8-0.5-1.1
			c-0.3-0.3-0.7-0.4-1.2-0.4c-0.9,0-1.5,0.4-2,1.1c-0.5,0.7-0.7,1.8-0.7,3c0,0.2,0,0.4,0,0.6c0,0.2,0,0.5,0.1,0.7
			c0-0.7,0.2-1.2,0.5-1.6c0.3-0.4,0.6-0.7,1-0.8c0.4-0.2,0.8-0.2,1.3-0.2c0.6,0,1.1,0.1,1.5,0.4s0.8,0.6,1.1,1
			c0.3,0.4,0.4,1,0.4,1.5c0,0.6-0.1,1.1-0.4,1.5s-0.6,0.8-1.1,1C168.2,80,167.7,80.1,167,80.1z M167,79c0.6,0,1-0.2,1.4-0.5
			s0.6-0.8,0.6-1.4c0-0.6-0.2-1-0.6-1.4c-0.4-0.3-0.8-0.5-1.4-0.5c-0.4,0-0.7,0.1-1,0.2c-0.3,0.2-0.5,0.4-0.7,0.7
			c-0.2,0.3-0.3,0.6-0.3,1c0,0.6,0.2,1,0.6,1.4S166.5,79,167,79z"/>
		<path class="st4" d="M173.9,74.6c-0.3,0-0.6-0.1-0.9-0.2c-0.3-0.2-0.5-0.4-0.7-0.7S172,73,172,72.5c0-0.5,0.1-0.9,0.3-1.2
			s0.4-0.6,0.7-0.7c0.3-0.2,0.6-0.2,0.9-0.2c0.3,0,0.7,0.1,1,0.2c0.3,0.2,0.5,0.4,0.7,0.7c0.2,0.3,0.3,0.7,0.3,1.2
			c0,0.5-0.1,0.9-0.3,1.2c-0.2,0.3-0.4,0.6-0.7,0.7C174.6,74.6,174.3,74.6,173.9,74.6z M172.8,79.9l6.3-9.4h1.2l-6.3,9.4H172.8z
			 M173.9,73.8c0.3,0,0.5-0.1,0.7-0.3c0.2-0.2,0.3-0.6,0.3-1s-0.1-0.8-0.3-1c-0.2-0.2-0.4-0.3-0.7-0.3c-0.3,0-0.5,0.1-0.7,0.3
			c-0.2,0.2-0.3,0.6-0.3,1s0.1,0.8,0.3,1C173.4,73.7,173.6,73.8,173.9,73.8z M179.2,80.1c-0.3,0-0.6-0.1-0.9-0.2
			c-0.3-0.2-0.5-0.4-0.7-0.7s-0.3-0.7-0.3-1.2c0-0.5,0.1-0.9,0.3-1.2s0.4-0.6,0.7-0.7c0.3-0.2,0.6-0.2,0.9-0.2c0.3,0,0.7,0.1,1,0.2
			c0.3,0.2,0.5,0.4,0.7,0.7c0.2,0.3,0.3,0.7,0.3,1.2c0,0.5-0.1,0.9-0.3,1.2c-0.2,0.3-0.4,0.6-0.7,0.7
			C179.8,80,179.5,80.1,179.2,80.1z M179.2,79.3c0.3,0,0.5-0.1,0.7-0.3s0.3-0.6,0.3-1c0-0.5-0.1-0.8-0.3-1c-0.2-0.2-0.4-0.3-0.7-0.3
			c-0.3,0-0.5,0.1-0.7,0.3c-0.2,0.2-0.3,0.6-0.3,1c0,0.5,0.1,0.8,0.3,1C178.7,79.2,178.9,79.3,179.2,79.3z"/>
	</g>
</g>
<circle class="st4" cx="169.4" cy="52.1" r="4"/>
<g class="st7">
	<rect x="71" y="104.1" class="st3" width="30" height="304"/>
	<polygon class="st3" points="86,89.5 71,104.5 101,104.5 	"/>
</g>
<g>
	<g>
		<path class="st4" d="M73.4,80.4l4.5-8.3h-5v-1.1h6.4V72l-4.3,8.3H73.4z"/>
		<path class="st4" d="M84,80.5c-0.8,0-1.4-0.2-2-0.6s-1-1-1.3-1.7c-0.3-0.7-0.5-1.5-0.5-2.4c0-1.1,0.2-2,0.5-2.7
			c0.3-0.8,0.8-1.3,1.4-1.7c0.6-0.4,1.3-0.6,2.1-0.6c0.6,0,1.1,0.1,1.5,0.3c0.4,0.2,0.8,0.5,1,0.9c0.3,0.4,0.4,0.8,0.5,1.3h-1.3
			c-0.1-0.5-0.2-0.8-0.5-1.1c-0.3-0.3-0.7-0.4-1.2-0.4c-0.9,0-1.5,0.4-2,1.1c-0.5,0.7-0.7,1.8-0.7,3c0,0.2,0,0.4,0,0.6
			c0,0.2,0,0.5,0.1,0.7c0-0.7,0.2-1.2,0.5-1.6c0.3-0.4,0.6-0.7,1-0.8c0.4-0.2,0.8-0.2,1.3-0.2c0.6,0,1.1,0.1,1.5,0.4s0.8,0.6,1.1,1
			c0.3,0.4,0.4,1,0.4,1.5c0,0.6-0.1,1.1-0.4,1.5s-0.6,0.8-1.1,1C85.2,80.4,84.7,80.5,84,80.5z M84,79.5c0.6,0,1-0.2,1.4-0.5
			s0.6-0.8,0.6-1.4c0-0.6-0.2-1-0.6-1.4c-0.4-0.3-0.8-0.5-1.4-0.5c-0.4,0-0.7,0.1-1,0.2c-0.3,0.2-0.5,0.4-0.7,0.7
			c-0.2,0.3-0.3,0.6-0.3,1c0,0.6,0.2,1,0.6,1.4S83.5,79.5,84,79.5z"/>
		<path class="st4" d="M90.9,75.1c-0.3,0-0.6-0.1-0.9-0.2c-0.3-0.2-0.5-0.4-0.7-0.7S89,73.4,89,72.9c0-0.5,0.1-0.9,0.3-1.2
			s0.4-0.6,0.7-0.7c0.3-0.2,0.6-0.2,0.9-0.2c0.3,0,0.7,0.1,1,0.2c0.3,0.2,0.5,0.4,0.7,0.7c0.2,0.3,0.3,0.7,0.3,1.2
			c0,0.5-0.1,0.9-0.3,1.2c-0.2,0.3-0.4,0.6-0.7,0.7C91.6,75,91.3,75.1,90.9,75.1z M89.8,80.4l6.3-9.4h1.2L91,80.4H89.8z M90.9,74.3
			c0.3,0,0.5-0.1,0.7-0.3c0.2-0.2,0.3-0.6,0.3-1s-0.1-0.8-0.3-1c-0.2-0.2-0.4-0.3-0.7-0.3c-0.3,0-0.5,0.1-0.7,0.3
			c-0.2,0.2-0.3,0.6-0.3,1s0.1,0.8,0.3,1C90.4,74.2,90.6,74.3,90.9,74.3z M96.2,80.5c-0.3,0-0.6-0.1-0.9-0.2
			c-0.3-0.2-0.5-0.4-0.7-0.7c-0.2-0.3-0.3-0.7-0.3-1.2c0-0.5,0.1-0.9,0.3-1.2s0.4-0.6,0.7-0.7c0.3-0.2,0.6-0.2,0.9-0.2
			c0.3,0,0.7,0.1,1,0.2c0.3,0.2,0.5,0.4,0.7,0.7c0.2,0.3,0.3,0.7,0.3,1.2c0,0.5-0.1,0.9-0.3,1.2c-0.2,0.3-0.4,0.6-0.7,0.7
			C96.8,80.4,96.5,80.5,96.2,80.5z M96.2,79.7c0.3,0,0.5-0.1,0.7-0.3s0.3-0.6,0.3-1c0-0.5-0.1-0.8-0.3-1S96.5,77,96.2,77
			c-0.3,0-0.5,0.1-0.7,0.3c-0.2,0.2-0.3,0.6-0.3,1c0,0.5,0.1,0.8,0.3,1C95.7,79.6,95.9,79.7,96.2,79.7z"/>
	</g>
</g>
<circle class="st4" cx="86.4" cy="52.5" r="4"/>
<g class="st8">
	<rect x="402" y="104.1" class="st3" width="30" height="304"/>
	<polygon class="st3" points="417,88.8 402,103.8 432,103.8 	"/>
</g>
<g>
	<g>
		<path class="st4" d="M404.4,79.7l4.5-8.3h-5v-1.1h6.4v1.1l-4.3,8.3H404.4z"/>
		<path class="st4" d="M415,79.9c-0.8,0-1.4-0.2-2-0.6s-1-1-1.3-1.7s-0.5-1.5-0.5-2.4c0-1.1,0.2-2,0.5-2.7c0.3-0.8,0.8-1.3,1.3-1.7
			c0.6-0.4,1.3-0.6,2.1-0.6c0.6,0,1.1,0.1,1.5,0.3c0.4,0.2,0.8,0.5,1,0.9c0.3,0.4,0.4,0.8,0.5,1.3h-1.3c-0.1-0.5-0.2-0.8-0.5-1.1
			c-0.3-0.3-0.7-0.4-1.2-0.4c-0.9,0-1.5,0.4-2,1.1s-0.7,1.8-0.7,3c0,0.2,0,0.4,0,0.6c0,0.2,0,0.5,0.1,0.7c0-0.7,0.2-1.2,0.5-1.6
			c0.3-0.4,0.6-0.7,1-0.8c0.4-0.2,0.8-0.2,1.3-0.2c0.6,0,1.1,0.1,1.5,0.4c0.5,0.3,0.8,0.6,1.1,1c0.3,0.4,0.4,1,0.4,1.5
			c0,0.6-0.1,1.1-0.4,1.5s-0.6,0.8-1.1,1C416.2,79.8,415.7,79.9,415,79.9z M415,78.8c0.6,0,1-0.2,1.4-0.5s0.6-0.8,0.6-1.4
			c0-0.6-0.2-1-0.6-1.4c-0.4-0.3-0.8-0.5-1.4-0.5c-0.4,0-0.7,0.1-1,0.2c-0.3,0.2-0.5,0.4-0.7,0.7c-0.2,0.3-0.3,0.6-0.3,1
			c0,0.6,0.2,1,0.6,1.4S414.5,78.8,415,78.8z"/>
		<path class="st4" d="M421.9,74.4c-0.3,0-0.6-0.1-0.9-0.2c-0.3-0.2-0.5-0.4-0.7-0.7c-0.2-0.3-0.3-0.7-0.3-1.2
			c0-0.5,0.1-0.9,0.3-1.2c0.2-0.3,0.4-0.6,0.7-0.7c0.3-0.2,0.6-0.2,0.9-0.2c0.3,0,0.7,0.1,1,0.2c0.3,0.2,0.5,0.4,0.7,0.7
			c0.2,0.3,0.3,0.7,0.3,1.2c0,0.5-0.1,0.9-0.3,1.2c-0.2,0.3-0.4,0.6-0.7,0.7C422.6,74.3,422.3,74.4,421.9,74.4z M420.8,79.7l6.3-9.4
			h1.2l-6.3,9.4H420.8z M421.9,73.6c0.3,0,0.5-0.1,0.7-0.3c0.2-0.2,0.3-0.6,0.3-1s-0.1-0.8-0.3-1c-0.2-0.2-0.4-0.3-0.7-0.3
			c-0.3,0-0.5,0.1-0.7,0.3s-0.3,0.6-0.3,1s0.1,0.8,0.3,1S421.6,73.6,421.9,73.6z M427.2,79.9c-0.3,0-0.6-0.1-0.9-0.2
			c-0.3-0.2-0.5-0.4-0.7-0.7c-0.2-0.3-0.3-0.7-0.3-1.2c0-0.5,0.1-0.9,0.3-1.2c0.2-0.3,0.4-0.6,0.7-0.7c0.3-0.2,0.6-0.2,0.9-0.2
			c0.3,0,0.7,0.1,1,0.2c0.3,0.2,0.5,0.4,0.7,0.7s0.3,0.7,0.3,1.2c0,0.5-0.1,0.9-0.3,1.2s-0.4,0.6-0.7,0.7
			C427.8,79.8,427.5,79.9,427.2,79.9z M427.2,79.1c0.3,0,0.5-0.1,0.7-0.3s0.3-0.6,0.3-1c0-0.5-0.1-0.8-0.3-1
			c-0.2-0.2-0.4-0.3-0.7-0.3c-0.3,0-0.5,0.1-0.7,0.3c-0.2,0.2-0.3,0.6-0.3,1c0,0.5,0.1,0.8,0.3,1S426.9,79.1,427.2,79.1z"/>
	</g>
</g>
<circle class="st4" cx="417.4" cy="51.8" r="4"/>
<g>
	<rect x="570" y="104.1" class="st3" width="30" height="304"/>
	<polygon class="st3" points="585,89.6 570,104.6 600,104.6 	"/>
</g>
<g>
	<g>
		<path class="st4" d="M571.6,80.5l4.5-8.3h-5v-1.1h6.4v1.1l-4.3,8.3H571.6z"/>
		<path class="st4" d="M582.2,80.7c-0.8,0-1.4-0.2-2-0.6s-1-1-1.3-1.7s-0.5-1.5-0.5-2.4c0-1.1,0.2-2,0.5-2.7
			c0.3-0.8,0.8-1.3,1.3-1.7c0.6-0.4,1.3-0.6,2.1-0.6c0.6,0,1.1,0.1,1.5,0.3c0.4,0.2,0.8,0.5,1,0.9c0.3,0.4,0.4,0.8,0.5,1.3h-1.3
			c-0.1-0.5-0.2-0.8-0.5-1.1c-0.3-0.3-0.7-0.4-1.2-0.4c-0.9,0-1.5,0.4-2,1.1s-0.7,1.8-0.7,3c0,0.2,0,0.4,0,0.6c0,0.2,0,0.5,0.1,0.7
			c0-0.7,0.2-1.2,0.5-1.6c0.3-0.4,0.6-0.7,1-0.8s0.8-0.2,1.3-0.2c0.6,0,1.1,0.1,1.5,0.4c0.5,0.3,0.8,0.6,1.1,1
			c0.3,0.4,0.4,1,0.4,1.5c0,0.6-0.1,1.1-0.4,1.5s-0.6,0.8-1.1,1S582.9,80.7,582.2,80.7z M582.2,79.6c0.6,0,1-0.2,1.4-0.5
			s0.6-0.8,0.6-1.4c0-0.6-0.2-1-0.6-1.4c-0.4-0.3-0.8-0.5-1.4-0.5c-0.4,0-0.7,0.1-1,0.2c-0.3,0.2-0.5,0.4-0.7,0.7
			c-0.2,0.3-0.3,0.6-0.3,1c0,0.6,0.2,1,0.6,1.4S581.7,79.6,582.2,79.6z"/>
		<path class="st4" d="M589.1,75.2c-0.3,0-0.6-0.1-0.9-0.2c-0.3-0.2-0.5-0.4-0.7-0.7c-0.2-0.3-0.3-0.7-0.3-1.2
			c0-0.5,0.1-0.9,0.3-1.2c0.2-0.3,0.4-0.6,0.7-0.7c0.3-0.2,0.6-0.2,0.9-0.2c0.3,0,0.7,0.1,1,0.2c0.3,0.2,0.5,0.4,0.7,0.7
			c0.2,0.3,0.3,0.7,0.3,1.2c0,0.5-0.1,0.9-0.3,1.2c-0.2,0.3-0.4,0.6-0.7,0.7C589.8,75.1,589.5,75.2,589.1,75.2z M588,80.5l6.3-9.4
			h1.2l-6.3,9.4H588z M589.1,74.4c0.3,0,0.5-0.1,0.7-0.3c0.2-0.2,0.3-0.6,0.3-1s-0.1-0.8-0.3-1c-0.2-0.2-0.4-0.3-0.7-0.3
			c-0.3,0-0.5,0.1-0.7,0.3s-0.3,0.6-0.3,1s0.1,0.8,0.3,1C588.6,74.3,588.8,74.4,589.1,74.4z M594.4,80.6c-0.3,0-0.6-0.1-0.9-0.2
			c-0.3-0.2-0.5-0.4-0.7-0.7c-0.2-0.3-0.3-0.7-0.3-1.2c0-0.5,0.1-0.9,0.3-1.2c0.2-0.3,0.4-0.6,0.7-0.7c0.3-0.2,0.6-0.2,0.9-0.2
			c0.3,0,0.7,0.1,1,0.2c0.3,0.2,0.5,0.4,0.7,0.7c0.2,0.3,0.3,0.7,0.3,1.2c0,0.5-0.1,0.9-0.3,1.2s-0.4,0.6-0.7,0.7
			C595,80.6,594.7,80.6,594.4,80.6z M594.4,79.8c0.3,0,0.5-0.1,0.7-0.3s0.3-0.6,0.3-1c0-0.5-0.1-0.8-0.3-1c-0.2-0.2-0.4-0.3-0.7-0.3
			c-0.3,0-0.5,0.1-0.7,0.3c-0.2,0.2-0.3,0.6-0.3,1c0,0.5,0.1,0.8,0.3,1S594.1,79.8,594.4,79.8z"/>
	</g>
</g>
<circle class="st4" cx="584.6" cy="52.6" r="4"/>
<g class="st9">
	<rect x="487" y="104.1" class="st3" width="30" height="304"/>
	<polygon class="st3" points="502,89 487,104 517,104 	"/>
</g>
<g>
	<g>
		<path class="st4" d="M486.4,79.8l4.5-8.3h-5v-1.1h6.4v1.1l-4.3,8.3H486.4z"/>
		<path class="st4" d="M497,80c-0.8,0-1.4-0.2-2-0.6s-1-1-1.3-1.7s-0.5-1.5-0.5-2.4c0-1.1,0.2-2,0.5-2.7c0.3-0.8,0.8-1.3,1.3-1.7
			c0.6-0.4,1.3-0.6,2.1-0.6c0.6,0,1.1,0.1,1.5,0.3c0.4,0.2,0.8,0.5,1,0.9c0.3,0.4,0.4,0.8,0.5,1.3h-1.3c-0.1-0.5-0.2-0.8-0.5-1.1
			c-0.3-0.3-0.7-0.4-1.2-0.4c-0.9,0-1.5,0.4-2,1.1s-0.7,1.8-0.7,3c0,0.2,0,0.4,0,0.6c0,0.2,0,0.5,0.1,0.7c0-0.7,0.2-1.2,0.5-1.6
			c0.3-0.4,0.6-0.7,1-0.8c0.4-0.2,0.8-0.2,1.3-0.2c0.6,0,1.1,0.1,1.5,0.4c0.5,0.3,0.8,0.6,1.1,1c0.3,0.4,0.4,1,0.4,1.5
			c0,0.6-0.1,1.1-0.4,1.5s-0.6,0.8-1.1,1C498.2,79.9,497.7,80,497,80z M497,78.9c0.6,0,1-0.2,1.4-0.5s0.6-0.8,0.6-1.4
			c0-0.6-0.2-1-0.6-1.4c-0.4-0.3-0.8-0.5-1.4-0.5c-0.4,0-0.7,0.1-1,0.2c-0.3,0.2-0.5,0.4-0.7,0.7c-0.2,0.3-0.3,0.6-0.3,1
			c0,0.6,0.2,1,0.6,1.4S496.5,78.9,497,78.9z"/>
		<path class="st4" d="M503.9,74.5c-0.3,0-0.6-0.1-0.9-0.2c-0.3-0.2-0.5-0.4-0.7-0.7c-0.2-0.3-0.3-0.7-0.3-1.2
			c0-0.5,0.1-0.9,0.3-1.2c0.2-0.3,0.4-0.6,0.7-0.7c0.3-0.2,0.6-0.2,0.9-0.2c0.3,0,0.7,0.1,1,0.2c0.3,0.2,0.5,0.4,0.7,0.7
			c0.2,0.3,0.3,0.7,0.3,1.2c0,0.5-0.1,0.9-0.3,1.2c-0.2,0.3-0.4,0.6-0.7,0.7C504.6,74.5,504.3,74.5,503.9,74.5z M502.8,79.8l6.3-9.4
			h1.2l-6.3,9.4H502.8z M503.9,73.8c0.3,0,0.5-0.1,0.7-0.3c0.2-0.2,0.3-0.6,0.3-1s-0.1-0.8-0.3-1c-0.2-0.2-0.4-0.3-0.7-0.3
			c-0.3,0-0.5,0.1-0.7,0.3s-0.3,0.6-0.3,1s0.1,0.8,0.3,1S503.6,73.8,503.9,73.8z M509.2,80c-0.3,0-0.6-0.1-0.9-0.2
			c-0.3-0.2-0.5-0.4-0.7-0.7c-0.2-0.3-0.3-0.7-0.3-1.2c0-0.5,0.1-0.9,0.3-1.2c0.2-0.3,0.4-0.6,0.7-0.7c0.3-0.2,0.6-0.2,0.9-0.2
			c0.3,0,0.7,0.1,1,0.2c0.3,0.2,0.5,0.4,0.7,0.7s0.3,0.7,0.3,1.2c0,0.5-0.1,0.9-0.3,1.2s-0.4,0.6-0.7,0.7
			C509.8,79.9,509.5,80,509.2,80z M509.2,79.2c0.3,0,0.5-0.1,0.7-0.3s0.3-0.6,0.3-1c0-0.5-0.1-0.8-0.3-1c-0.2-0.2-0.4-0.3-0.7-0.3
			c-0.3,0-0.5,0.1-0.7,0.3c-0.2,0.2-0.3,0.6-0.3,1c0,0.5,0.1,0.8,0.3,1S508.9,79.2,509.2,79.2z"/>
	</g>
</g>
<circle class="st4" cx="499.4" cy="52" r="4"/>
<g>
	<g>
		<path class="st4" d="M324.5,426.3v-1.2c0-0.5,0.1-0.9,0.2-1.2c0.2-0.3,0.4-0.6,0.6-0.8c0.3-0.2,0.6-0.4,1-0.5l1.6-0.6
			c0.4-0.2,0.7-0.4,0.9-0.6s0.3-0.6,0.3-1c0-0.4-0.1-0.8-0.4-1c-0.3-0.3-0.7-0.4-1.2-0.4c-0.5,0-0.9,0.1-1.3,0.3
			c-0.3,0.2-0.5,0.5-0.6,1h-1.1c0-0.5,0.2-0.9,0.4-1.2c0.2-0.3,0.6-0.6,1-0.8c0.4-0.2,0.9-0.3,1.5-0.3c0.5,0,1,0.1,1.4,0.3
			c0.4,0.2,0.7,0.5,1,0.8c0.2,0.4,0.4,0.8,0.4,1.2c0,0.4-0.1,0.8-0.2,1.1c-0.2,0.3-0.4,0.6-0.7,0.8s-0.6,0.4-1,0.6l-1.7,0.7
			c-0.4,0.2-0.7,0.4-0.9,0.6c-0.2,0.2-0.3,0.5-0.3,0.9v0.4h4.7v0.9H324.5z"/>
		<path class="st4" d="M335,426.4c-0.6,0-1.2-0.2-1.7-0.5c-0.5-0.3-0.9-0.8-1.1-1.4c-0.3-0.6-0.4-1.4-0.4-2.4s0.1-1.7,0.4-2.4
			c0.3-0.6,0.6-1.1,1.1-1.4c0.5-0.3,1-0.5,1.7-0.5c0.6,0,1.2,0.2,1.7,0.5c0.5,0.3,0.9,0.8,1.1,1.4s0.4,1.4,0.4,2.4s-0.1,1.7-0.4,2.4
			c-0.3,0.6-0.6,1.1-1.1,1.4C336.2,426.3,335.7,426.4,335,426.4z M335,425.5c0.7,0,1.2-0.3,1.6-0.9c0.4-0.6,0.5-1.4,0.5-2.4
			s-0.2-1.9-0.5-2.4c-0.4-0.6-0.9-0.9-1.6-0.9c-0.7,0-1.2,0.3-1.6,0.9c-0.4,0.6-0.6,1.4-0.6,2.4s0.2,1.9,0.6,2.4
			C333.8,425.2,334.3,425.5,335,425.5z"/>
		<path class="st4" d="M341.1,418.1h0.8v8.2h-1v-7c-0.2,0.1-0.4,0.3-0.7,0.3c-0.2,0.1-0.5,0.1-0.7,0.1v-1c0.3,0,0.5-0.1,0.8-0.2
			C340.6,418.4,340.8,418.3,341.1,418.1z"/>
		<path class="st4" d="M344,426.3l3.9-7.2h-4.4v-1h5.6v0.9l-3.8,7.2H344z"/>
	</g>
</g>
<g>
	<g>
		<path class="st4" d="M236.9,426.3v-1.2c0-0.5,0.1-0.9,0.2-1.2c0.2-0.3,0.4-0.6,0.6-0.8c0.3-0.2,0.6-0.4,1-0.5l1.6-0.6
			c0.4-0.2,0.7-0.4,0.9-0.6s0.3-0.6,0.3-1c0-0.4-0.1-0.8-0.4-1c-0.3-0.3-0.7-0.4-1.2-0.4c-0.5,0-0.9,0.1-1.3,0.3
			c-0.3,0.2-0.5,0.5-0.6,1h-1.1c0-0.5,0.2-0.9,0.4-1.2c0.2-0.3,0.6-0.6,1-0.8c0.4-0.2,0.9-0.3,1.5-0.3c0.5,0,1,0.1,1.4,0.3
			c0.4,0.2,0.7,0.5,1,0.8c0.2,0.4,0.4,0.8,0.4,1.2c0,0.4-0.1,0.8-0.2,1.1c-0.2,0.3-0.4,0.6-0.7,0.8s-0.6,0.4-1,0.6l-1.7,0.7
			c-0.4,0.2-0.7,0.4-0.9,0.6c-0.2,0.2-0.3,0.5-0.3,0.9v0.4h4.7v0.9H236.9z"/>
		<path class="st4" d="M247.5,426.4c-0.6,0-1.2-0.2-1.7-0.5c-0.5-0.3-0.9-0.8-1.1-1.4c-0.3-0.6-0.4-1.4-0.4-2.4s0.1-1.7,0.4-2.4
			c0.3-0.6,0.6-1.1,1.1-1.4c0.5-0.3,1-0.5,1.7-0.5c0.6,0,1.2,0.2,1.7,0.5c0.5,0.3,0.9,0.8,1.1,1.4s0.4,1.4,0.4,2.4s-0.1,1.7-0.4,2.4
			c-0.3,0.6-0.6,1.1-1.1,1.4C248.7,426.3,248.1,426.4,247.5,426.4z M247.5,425.5c0.7,0,1.2-0.3,1.6-0.9c0.4-0.6,0.5-1.4,0.5-2.4
			s-0.2-1.9-0.5-2.4c-0.4-0.6-0.9-0.9-1.6-0.9c-0.7,0-1.2,0.3-1.6,0.9c-0.4,0.6-0.6,1.4-0.6,2.4s0.2,1.9,0.6,2.4
			C246.3,425.2,246.8,425.5,247.5,425.5z"/>
		<path class="st4" d="M253.5,418.1h0.8v8.2h-1v-7c-0.2,0.1-0.4,0.3-0.7,0.3c-0.2,0.1-0.5,0.1-0.7,0.1v-1c0.3,0,0.5-0.1,0.8-0.2
			C253,418.4,253.3,418.3,253.5,418.1z"/>
		<path class="st4" d="M259.6,426.4c-0.7,0-1.2-0.2-1.7-0.5c-0.5-0.4-0.9-0.8-1.1-1.5c-0.3-0.6-0.4-1.3-0.4-2.1
			c0-0.9,0.1-1.7,0.4-2.3c0.3-0.7,0.7-1.2,1.2-1.5c0.5-0.3,1.1-0.5,1.8-0.5c0.5,0,0.9,0.1,1.3,0.3c0.4,0.2,0.7,0.4,0.9,0.8
			c0.2,0.3,0.4,0.7,0.4,1.2h-1.1c-0.1-0.4-0.2-0.7-0.4-0.9c-0.2-0.2-0.6-0.3-1-0.3c-0.7,0-1.3,0.3-1.8,1c-0.4,0.6-0.6,1.5-0.6,2.6
			c0,0.2,0,0.3,0,0.6c0,0.2,0,0.4,0.1,0.6c0-0.6,0.2-1,0.4-1.4c0.2-0.3,0.5-0.6,0.9-0.7s0.7-0.2,1.1-0.2c0.5,0,0.9,0.1,1.3,0.3
			s0.7,0.5,0.9,0.9c0.2,0.4,0.3,0.8,0.3,1.3c0,0.5-0.1,0.9-0.4,1.3c-0.2,0.4-0.6,0.7-1,0.9S260.1,426.4,259.6,426.4z M259.6,425.5
			c0.5,0,0.9-0.1,1.2-0.4c0.3-0.3,0.5-0.7,0.5-1.2c0-0.5-0.2-0.9-0.5-1.2c-0.3-0.3-0.7-0.4-1.2-0.4c-0.3,0-0.6,0.1-0.9,0.2
			s-0.5,0.3-0.6,0.6c-0.1,0.2-0.2,0.5-0.2,0.8c0,0.5,0.2,0.9,0.5,1.2C258.7,425.3,259.1,425.5,259.6,425.5z"/>
	</g>
</g>
<g>
	<g>
		<path class="st4" d="M157.9,426.3v-1.2c0-0.5,0.1-0.9,0.2-1.2c0.2-0.3,0.4-0.6,0.6-0.8c0.3-0.2,0.6-0.4,1-0.5l1.6-0.6
			c0.4-0.2,0.7-0.4,0.9-0.6s0.3-0.6,0.3-1c0-0.4-0.1-0.8-0.4-1c-0.3-0.3-0.7-0.4-1.2-0.4c-0.5,0-0.9,0.1-1.3,0.3
			c-0.3,0.2-0.5,0.5-0.6,1h-1.1c0-0.5,0.2-0.9,0.4-1.2c0.2-0.3,0.6-0.6,1-0.8c0.4-0.2,0.9-0.3,1.5-0.3c0.5,0,1,0.1,1.4,0.3
			c0.4,0.2,0.7,0.5,1,0.8c0.2,0.4,0.4,0.8,0.4,1.2c0,0.4-0.1,0.8-0.2,1.1c-0.2,0.3-0.4,0.6-0.7,0.8s-0.6,0.4-1,0.6l-1.7,0.7
			c-0.4,0.2-0.7,0.4-0.9,0.6c-0.2,0.2-0.3,0.5-0.3,0.9v0.4h4.7v0.9H157.9z"/>
		<path class="st4" d="M168.5,426.4c-0.6,0-1.2-0.2-1.7-0.5c-0.5-0.3-0.9-0.8-1.1-1.4c-0.3-0.6-0.4-1.4-0.4-2.4s0.1-1.7,0.4-2.4
			c0.3-0.6,0.6-1.1,1.1-1.4c0.5-0.3,1-0.5,1.7-0.5c0.6,0,1.2,0.2,1.7,0.5c0.5,0.3,0.9,0.8,1.1,1.4s0.4,1.4,0.4,2.4s-0.1,1.7-0.4,2.4
			c-0.3,0.6-0.6,1.1-1.1,1.4C169.7,426.3,169.1,426.4,168.5,426.4z M168.5,425.5c0.7,0,1.2-0.3,1.6-0.9c0.4-0.6,0.5-1.4,0.5-2.4
			s-0.2-1.9-0.5-2.4c-0.4-0.6-0.9-0.9-1.6-0.9c-0.7,0-1.2,0.3-1.6,0.9c-0.4,0.6-0.6,1.4-0.6,2.4s0.2,1.9,0.6,2.4
			C167.3,425.2,167.8,425.5,168.5,425.5z"/>
		<path class="st4" d="M174.5,418.1h0.8v8.2h-1v-7c-0.2,0.1-0.4,0.3-0.7,0.3c-0.2,0.1-0.5,0.1-0.7,0.1v-1c0.3,0,0.5-0.1,0.8-0.2
			C174,418.4,174.3,418.3,174.5,418.1z"/>
		<path class="st4" d="M180.3,426.4c-0.5,0-1-0.1-1.4-0.3c-0.4-0.2-0.8-0.5-1-0.8c-0.3-0.4-0.4-0.8-0.4-1.3h1c0,0.5,0.2,0.9,0.5,1.1
			c0.3,0.3,0.8,0.4,1.3,0.4c0.6,0,1-0.2,1.4-0.5c0.3-0.4,0.5-0.8,0.5-1.3c0-1-0.7-1.6-2-1.6H178l0.4-4h4.5v0.9h-3.7l0.2-0.4
			l-0.3,2.8l-0.1-0.1c0.2,0,0.4-0.1,0.7-0.1s0.5,0,0.7,0c0.9,0,1.6,0.2,2.1,0.6s0.8,1,0.8,1.8c0,0.5-0.1,1-0.4,1.4
			c-0.2,0.4-0.6,0.8-1,1C181.4,426.3,180.9,426.4,180.3,426.4z"/>
	</g>
</g>
<g>
	<g>
		<path class="st4" d="M74.9,426.3v-1.2c0-0.5,0.1-0.9,0.2-1.2c0.2-0.3,0.4-0.6,0.6-0.8c0.3-0.2,0.6-0.4,1-0.5l1.6-0.6
			c0.4-0.2,0.7-0.4,0.9-0.6s0.3-0.6,0.3-1c0-0.4-0.1-0.8-0.4-1c-0.3-0.3-0.7-0.4-1.2-0.4c-0.5,0-0.9,0.1-1.3,0.3
			c-0.3,0.2-0.5,0.5-0.6,1h-1.1c0-0.5,0.2-0.9,0.4-1.2c0.2-0.3,0.6-0.6,1-0.8c0.4-0.2,0.9-0.3,1.5-0.3c0.5,0,1,0.1,1.4,0.3
			c0.4,0.2,0.7,0.5,1,0.8c0.2,0.4,0.4,0.8,0.4,1.2c0,0.4-0.1,0.8-0.2,1.1c-0.2,0.3-0.4,0.6-0.7,0.8s-0.6,0.4-1,0.6l-1.7,0.7
			c-0.4,0.2-0.7,0.4-0.9,0.6c-0.2,0.2-0.3,0.5-0.3,0.9v0.4h4.7v0.9H74.9z"/>
		<path class="st4" d="M85.5,426.4c-0.6,0-1.2-0.2-1.7-0.5c-0.5-0.3-0.9-0.8-1.1-1.4c-0.3-0.6-0.4-1.4-0.4-2.4s0.1-1.7,0.4-2.4
			c0.3-0.6,0.6-1.1,1.1-1.4c0.5-0.3,1-0.5,1.7-0.5c0.6,0,1.2,0.2,1.7,0.5c0.5,0.3,0.9,0.8,1.1,1.4s0.4,1.4,0.4,2.4s-0.1,1.7-0.4,2.4
			c-0.3,0.6-0.6,1.1-1.1,1.4C86.7,426.3,86.1,426.4,85.5,426.4z M85.5,425.5c0.7,0,1.2-0.3,1.6-0.9c0.4-0.6,0.5-1.4,0.5-2.4
			s-0.2-1.9-0.5-2.4c-0.4-0.6-0.9-0.9-1.6-0.9c-0.7,0-1.2,0.3-1.6,0.9c-0.4,0.6-0.6,1.4-0.6,2.4s0.2,1.9,0.6,2.4
			C84.3,425.2,84.8,425.5,85.5,425.5z"/>
		<path class="st4" d="M91.5,418.1h0.8v8.2h-1v-7c-0.2,0.1-0.4,0.3-0.7,0.3c-0.2,0.1-0.5,0.1-0.7,0.1v-1c0.3,0,0.5-0.1,0.8-0.2
			C91,418.4,91.3,418.3,91.5,418.1z"/>
		<path class="st4" d="M98.3,418h0.9v5.4h1.4v0.9h-1.4v2h-1v-2H94v-0.8L98.3,418z M98.2,419.6l-3.1,3.9h3.1V419.6z"/>
	</g>
</g>
<g>
	<g>
		<path class="st4" d="M487.9,426.3v-1.2c0-0.5,0.1-0.9,0.2-1.2c0.2-0.3,0.4-0.6,0.6-0.8c0.3-0.2,0.6-0.4,1-0.5l1.6-0.6
			c0.4-0.2,0.7-0.4,0.9-0.6s0.3-0.6,0.3-1c0-0.4-0.1-0.8-0.4-1c-0.3-0.3-0.7-0.4-1.2-0.4c-0.5,0-0.9,0.1-1.3,0.3
			c-0.3,0.2-0.5,0.5-0.6,1h-1.1c0-0.5,0.2-0.9,0.4-1.2c0.3-0.3,0.6-0.6,1-0.8c0.4-0.2,0.9-0.3,1.5-0.3c0.5,0,1,0.1,1.4,0.3
			c0.4,0.2,0.7,0.5,1,0.8c0.2,0.4,0.4,0.8,0.4,1.2c0,0.4-0.1,0.8-0.2,1.1c-0.2,0.3-0.4,0.6-0.7,0.8s-0.6,0.4-1,0.6l-1.7,0.7
			c-0.4,0.2-0.7,0.4-0.9,0.6c-0.2,0.2-0.3,0.5-0.3,0.9v0.4h4.7v0.9H487.9z"/>
		<path class="st4" d="M498.5,426.4c-0.6,0-1.2-0.2-1.7-0.5c-0.5-0.3-0.9-0.8-1.1-1.4c-0.3-0.6-0.4-1.4-0.4-2.4s0.1-1.7,0.4-2.4
			c0.3-0.6,0.6-1.1,1.1-1.4c0.5-0.3,1-0.5,1.7-0.5c0.6,0,1.2,0.2,1.7,0.5c0.5,0.3,0.9,0.8,1.1,1.4c0.3,0.6,0.4,1.4,0.4,2.4
			s-0.1,1.7-0.4,2.4c-0.3,0.6-0.6,1.1-1.1,1.4C499.7,426.3,499.1,426.4,498.5,426.4z M498.5,425.5c0.7,0,1.2-0.3,1.6-0.9
			c0.4-0.6,0.5-1.4,0.5-2.4s-0.2-1.9-0.5-2.4c-0.4-0.6-0.9-0.9-1.6-0.9c-0.7,0-1.2,0.3-1.6,0.9c-0.4,0.6-0.6,1.4-0.6,2.4
			s0.2,1.9,0.6,2.4C497.3,425.2,497.8,425.5,498.5,425.5z"/>
		<path class="st4" d="M504.5,418.1h0.8v8.2h-1v-7c-0.2,0.1-0.4,0.3-0.7,0.3c-0.2,0.1-0.5,0.1-0.7,0.1v-1c0.3,0,0.5-0.1,0.8-0.2
			C504,418.4,504.3,418.3,504.5,418.1z"/>
		<path class="st4" d="M510.3,426.4c-0.5,0-1-0.1-1.4-0.3c-0.4-0.2-0.7-0.5-1-0.9c-0.2-0.4-0.4-0.8-0.4-1.3h1.1
			c0,0.5,0.2,0.9,0.5,1.2s0.7,0.4,1.2,0.4c0.5,0,0.9-0.1,1.2-0.4c0.3-0.3,0.6-0.7,0.7-1.3c0.1-0.5,0.2-1.2,0.2-1.9
			c0-0.2,0-0.3,0-0.5c0-0.1,0-0.3-0.1-0.5c-0.1,0.5-0.2,0.9-0.4,1.2c-0.2,0.3-0.5,0.5-0.8,0.7c-0.3,0.2-0.7,0.2-1.1,0.2
			c-0.5,0-0.9-0.1-1.3-0.3c-0.4-0.2-0.7-0.5-0.9-0.9c-0.2-0.4-0.3-0.8-0.3-1.3c0-0.5,0.1-0.9,0.3-1.3c0.2-0.4,0.6-0.7,1-0.9
			c0.4-0.2,0.9-0.3,1.4-0.3c0.5,0,0.9,0.1,1.3,0.3c0.4,0.2,0.7,0.5,1,0.8c0.3,0.4,0.5,0.8,0.7,1.3s0.2,1.1,0.2,1.7
			c0,0.9-0.1,1.7-0.3,2.3c-0.2,0.7-0.6,1.2-1,1.5C511.7,426.2,511.1,426.4,510.3,426.4z M510.3,422.1c0.3,0,0.6-0.1,0.9-0.2
			c0.3-0.1,0.5-0.3,0.6-0.6c0.2-0.2,0.2-0.5,0.2-0.8c0-0.5-0.2-0.9-0.5-1.2c-0.3-0.3-0.7-0.4-1.2-0.4c-0.5,0-0.9,0.1-1.2,0.4
			c-0.3,0.3-0.5,0.7-0.5,1.2c0,0.5,0.2,0.9,0.5,1.2C509.4,422,509.8,422.1,510.3,422.1z"/>
	</g>
</g>
<g>
	<g>
		<path class="st4" d="M405.9,426.3v-1.2c0-0.5,0.1-0.9,0.2-1.2c0.2-0.3,0.4-0.6,0.6-0.8c0.3-0.2,0.6-0.4,1-0.5l1.6-0.6
			c0.4-0.2,0.7-0.4,0.9-0.6s0.3-0.6,0.3-1c0-0.4-0.1-0.8-0.4-1c-0.3-0.3-0.7-0.4-1.2-0.4c-0.5,0-0.9,0.1-1.3,0.3
			c-0.3,0.2-0.5,0.5-0.6,1h-1.1c0-0.5,0.2-0.9,0.4-1.2c0.3-0.3,0.6-0.6,1-0.8c0.4-0.2,0.9-0.3,1.5-0.3c0.5,0,1,0.1,1.4,0.3
			c0.4,0.2,0.7,0.5,1,0.8c0.2,0.4,0.4,0.8,0.4,1.2c0,0.4-0.1,0.8-0.2,1.1c-0.2,0.3-0.4,0.6-0.7,0.8s-0.6,0.4-1,0.6l-1.7,0.7
			c-0.4,0.2-0.7,0.4-0.9,0.6c-0.2,0.2-0.3,0.5-0.3,0.9v0.4h4.7v0.9H405.9z"/>
		<path class="st4" d="M416.5,426.4c-0.6,0-1.2-0.2-1.7-0.5c-0.5-0.3-0.9-0.8-1.1-1.4c-0.3-0.6-0.4-1.4-0.4-2.4s0.1-1.7,0.4-2.4
			c0.3-0.6,0.6-1.1,1.1-1.4c0.5-0.3,1-0.5,1.7-0.5c0.6,0,1.2,0.2,1.7,0.5c0.5,0.3,0.9,0.8,1.1,1.4c0.3,0.6,0.4,1.4,0.4,2.4
			s-0.1,1.7-0.4,2.4c-0.3,0.6-0.6,1.1-1.1,1.4C417.7,426.3,417.1,426.4,416.5,426.4z M416.5,425.5c0.7,0,1.2-0.3,1.6-0.9
			c0.4-0.6,0.5-1.4,0.5-2.4s-0.2-1.9-0.5-2.4c-0.4-0.6-0.9-0.9-1.6-0.9c-0.7,0-1.2,0.3-1.6,0.9c-0.4,0.6-0.6,1.4-0.6,2.4
			s0.2,1.9,0.6,2.4C415.3,425.2,415.8,425.5,416.5,425.5z"/>
		<path class="st4" d="M422.5,418.1h0.8v8.2h-1v-7c-0.2,0.1-0.4,0.3-0.7,0.3c-0.2,0.1-0.5,0.1-0.7,0.1v-1c0.3,0,0.5-0.1,0.8-0.2
			C422,418.4,422.3,418.3,422.5,418.1z"/>
		<path class="st4" d="M428.6,426.4c-0.6,0-1.2-0.1-1.7-0.3c-0.5-0.2-0.9-0.5-1.2-0.8s-0.4-0.8-0.4-1.2c0-0.4,0.1-0.8,0.3-1.1
			c0.2-0.3,0.5-0.5,0.9-0.7s0.8-0.2,1.3-0.2c0.1,0,0.2,0,0.4,0s0.2,0,0.4,0.1v0.3c-0.4,0-0.8,0.1-1.1,0.2c-0.3,0.1-0.6,0.3-0.8,0.6
			c-0.2,0.2-0.3,0.5-0.3,0.7c0,0.3,0.1,0.6,0.3,0.8c0.2,0.2,0.5,0.4,0.8,0.5c0.3,0.1,0.7,0.2,1.1,0.2c0.7,0,1.2-0.1,1.6-0.3
			c0.4-0.2,0.6-0.5,0.6-0.9c0-0.3-0.1-0.5-0.3-0.7c-0.2-0.2-0.5-0.4-0.8-0.5l-2.2-0.9c-0.3-0.1-0.5-0.2-0.8-0.4s-0.5-0.4-0.7-0.7
			c-0.2-0.3-0.3-0.6-0.3-1c0-0.4,0.1-0.8,0.4-1.1c0.2-0.3,0.6-0.6,1-0.8c0.4-0.2,1-0.3,1.6-0.3c0.6,0,1.1,0.1,1.5,0.3
			c0.4,0.2,0.8,0.5,1.1,0.8s0.4,0.7,0.4,1.2c0,0.3-0.1,0.7-0.3,0.9c-0.2,0.3-0.4,0.5-0.8,0.7c-0.3,0.2-0.7,0.3-1.2,0.3
			c-0.1,0-0.2,0-0.3,0c-0.1,0-0.2,0-0.4-0.1v-0.3c0.4,0,0.7-0.1,0.9-0.2c0.3-0.1,0.5-0.3,0.7-0.5c0.2-0.2,0.3-0.5,0.3-0.7
			c0-0.3-0.1-0.5-0.2-0.7s-0.4-0.4-0.7-0.5c-0.3-0.1-0.6-0.2-1-0.2c-0.4,0-0.7,0.1-1,0.2c-0.3,0.1-0.5,0.3-0.7,0.5
			c-0.2,0.2-0.3,0.4-0.3,0.6c0,0.3,0.1,0.5,0.3,0.7s0.5,0.3,0.8,0.5l2.2,0.9c0.6,0.2,1.1,0.5,1.4,0.8c0.3,0.3,0.5,0.7,0.5,1.3
			c0,0.4-0.1,0.8-0.4,1.1c-0.3,0.3-0.6,0.6-1.1,0.8C429.9,426.3,429.3,426.4,428.6,426.4z"/>
	</g>
</g>
<g>
	<g>
		<path class="st4" d="M573.1,426.3v-1.2c0-0.5,0.1-0.9,0.2-1.2c0.2-0.3,0.4-0.6,0.6-0.8c0.3-0.2,0.6-0.4,1-0.5l1.6-0.6
			c0.4-0.2,0.7-0.4,0.9-0.6s0.3-0.6,0.3-1c0-0.4-0.1-0.8-0.4-1c-0.3-0.3-0.7-0.4-1.2-0.4c-0.5,0-0.9,0.1-1.3,0.3
			c-0.3,0.2-0.5,0.5-0.6,1h-1.1c0-0.5,0.2-0.9,0.4-1.2c0.3-0.3,0.6-0.6,1-0.8c0.4-0.2,0.9-0.3,1.5-0.3c0.5,0,1,0.1,1.4,0.3
			c0.4,0.2,0.7,0.5,1,0.8c0.2,0.4,0.4,0.8,0.4,1.2c0,0.4-0.1,0.8-0.2,1.1c-0.2,0.3-0.4,0.6-0.7,0.8s-0.6,0.4-1,0.6l-1.7,0.7
			c-0.4,0.2-0.7,0.4-0.9,0.6c-0.2,0.2-0.3,0.5-0.3,0.9v0.4h4.7v0.9H573.1z"/>
		<path class="st4" d="M583.7,426.4c-0.6,0-1.2-0.2-1.7-0.5c-0.5-0.3-0.9-0.8-1.1-1.4c-0.3-0.6-0.4-1.4-0.4-2.4s0.1-1.7,0.4-2.4
			c0.3-0.6,0.6-1.1,1.1-1.4c0.5-0.3,1-0.5,1.7-0.5c0.6,0,1.2,0.2,1.7,0.5c0.5,0.3,0.9,0.8,1.1,1.4c0.3,0.6,0.4,1.4,0.4,2.4
			s-0.1,1.7-0.4,2.4c-0.3,0.6-0.6,1.1-1.1,1.4C584.9,426.3,584.3,426.4,583.7,426.4z M583.7,425.5c0.7,0,1.2-0.3,1.6-0.9
			c0.4-0.6,0.5-1.4,0.5-2.4s-0.2-1.9-0.5-2.4c-0.4-0.6-0.9-0.9-1.6-0.9c-0.7,0-1.2,0.3-1.6,0.9c-0.4,0.6-0.6,1.4-0.6,2.4
			s0.2,1.9,0.6,2.4C582.5,425.2,583,425.5,583.7,425.5z"/>
		<path class="st4" d="M588.4,426.3v-1.2c0-0.5,0.1-0.9,0.2-1.2s0.4-0.6,0.7-0.8s0.6-0.4,1-0.5l1.6-0.6c0.4-0.2,0.7-0.4,0.9-0.6
			s0.3-0.6,0.3-1c0-0.4-0.1-0.8-0.4-1c-0.3-0.3-0.7-0.4-1.2-0.4c-0.5,0-0.9,0.1-1.3,0.3c-0.3,0.2-0.5,0.5-0.6,1h-1.1
			c0-0.5,0.2-0.9,0.4-1.2c0.2-0.3,0.6-0.6,1-0.8c0.4-0.2,0.9-0.3,1.5-0.3c0.5,0,1,0.1,1.4,0.3c0.4,0.2,0.7,0.5,1,0.8
			s0.4,0.8,0.4,1.2c0,0.4-0.1,0.8-0.2,1.1c-0.2,0.3-0.4,0.6-0.7,0.8s-0.6,0.4-1,0.6l-1.7,0.7c-0.4,0.2-0.7,0.4-0.9,0.6
			c-0.2,0.2-0.3,0.5-0.3,0.9v0.4h4.7v0.9H588.4z"/>
		<path class="st4" d="M598.9,426.4c-0.6,0-1.2-0.2-1.7-0.5c-0.5-0.3-0.9-0.8-1.1-1.4c-0.3-0.6-0.4-1.4-0.4-2.4s0.1-1.7,0.4-2.4
			c0.3-0.6,0.6-1.1,1.1-1.4c0.5-0.3,1-0.5,1.7-0.5c0.6,0,1.2,0.2,1.7,0.5c0.5,0.3,0.9,0.8,1.1,1.4s0.4,1.4,0.4,2.4s-0.1,1.7-0.4,2.4
			c-0.3,0.6-0.6,1.1-1.1,1.4C600.1,426.3,599.6,426.4,598.9,426.4z M598.9,425.5c0.7,0,1.2-0.3,1.6-0.9s0.5-1.4,0.5-2.4
			s-0.2-1.9-0.5-2.4s-0.9-0.9-1.6-0.9c-0.7,0-1.2,0.3-1.6,0.9s-0.6,1.4-0.6,2.4s0.2,1.9,0.6,2.4S598.2,425.5,598.9,425.5z"/>
	</g>
</g>
<line class="st10" x1="40.5" y1="407.8" x2="639.5" y2="407.8"/>
</svg>
