<svg id="Capa_1" data-name="Capa 1" xmlns="http://www.w3.org/2000/svg" viewBox="0 0 95 118.75"><defs><style>.cls-1{fill:#fff;}</style></defs><path class="cls-1" d="M57.2,48.9H54.81V46.51a5.4,5.4,0,0,0-5.4-5.4H45.59a5.4,5.4,0,0,0-5.4,5.4V48.9H37.8a5.41,5.41,0,0,0-5.4,5.39v3.83a5.41,5.41,0,0,0,5.4,5.4h2.39v2.39a5.4,5.4,0,0,0,5.4,5.39h3.82a5.4,5.4,0,0,0,5.4-5.39V63.52H57.2a5.4,5.4,0,0,0,5.4-5.4V54.29A5.4,5.4,0,0,0,57.2,48.9Zm2.58,9.22a2.59,2.59,0,0,1-2.58,2.59H52v5.2a2.59,2.59,0,0,1-2.59,2.58H45.59A2.59,2.59,0,0,1,43,65.91v-5.2H37.8a2.59,2.59,0,0,1-2.58-2.59V54.29a2.59,2.59,0,0,1,2.58-2.58H43v-5.2a2.59,2.59,0,0,1,2.59-2.59h3.82A2.59,2.59,0,0,1,52,46.51v5.2h5.2a2.59,2.59,0,0,1,2.58,2.58Z"/><path class="cls-1" d="M47.5,32A24.15,24.15,0,1,0,71.65,56.14,24.18,24.18,0,0,0,47.5,32Zm0,45.48A21.34,21.34,0,1,1,68.83,56.14,21.36,21.36,0,0,1,47.5,77.47Z"/><path class="cls-1" d="M84.76,22.26H68.94L68.58,21a22,22,0,0,0-42.33,0l-.36,1.26H10.24a4.91,4.91,0,0,0-4.91,4.91V85.1A4.91,4.91,0,0,0,10.24,90H84.76a4.91,4.91,0,0,0,4.91-4.91V27.17A4.91,4.91,0,0,0,84.76,22.26ZM47.42,7.8A19.27,19.27,0,0,1,65.27,20H59.89a14.31,14.31,0,0,0-25,0H29.56A19.27,19.27,0,0,1,47.42,7.8ZM37.06,22a11.49,11.49,0,0,1,20.71,0l.13.26h-21Zm49.8,63.1a2.1,2.1,0,0,1-2.1,2.1H10.24a2.1,2.1,0,0,1-2.1-2.1V27.17a2.1,2.1,0,0,1,2.1-2.1H84.76a2.1,2.1,0,0,1,2.1,2.1V85.1Z"/></svg>