<?xml version="1.0" encoding="utf-8"?>
<!-- Generator: Adobe Illustrator 24.0.2, SVG Export Plug-In . SVG Version: 6.00 Build 0)  -->
<svg version="1.1" id="Capa_1" xmlns="http://www.w3.org/2000/svg" xmlns:xlink="http://www.w3.org/1999/xlink" x="0px" y="0px"
	 viewBox="0 0 1700 1043" style="enable-background:new 0 0 1700 1043;" xml:space="preserve">
<style type="text/css">
	.st0{fill:#252525;}
	.st1{fill:#FF5757;}
	.st2{fill:#B3E6E0;}
	.st3{fill:#FFFFFF;}
</style>
<rect x="28.5" y="15" class="st0" width="924" height="942"/>
<circle class="st1" cx="59.68" cy="34.88" r="8.09"/>
<path class="st1" d="M72.56,54.82v13.7c-0.01,3.79-2.13,7.26-5.51,9v15.22c0.14,4.07-3.05,7.49-7.12,7.63s-7.49-3.05-7.63-7.12
	c-0.01-0.17-0.01-0.34,0-0.5V77.53c-3.38-1.74-5.5-5.21-5.52-9.01v-13.7c0.02-5.58,4.55-10.09,10.12-10.11h5.52
	C68.02,44.73,72.54,49.24,72.56,54.82z"/>
<circle class="st1" cx="59.68" cy="128.38" r="8.09"/>
<path class="st1" d="M72.56,148.32v13.7c-0.01,3.79-2.13,7.26-5.51,9v15.22c0.14,4.07-3.05,7.49-7.12,7.63
	c-4.07,0.14-7.49-3.05-7.63-7.12c-0.01-0.17-0.01-0.34,0-0.5v-15.21c-3.38-1.74-5.5-5.21-5.52-9.01v-13.7
	c0.02-5.58,4.55-10.09,10.12-10.11h5.52C68.02,138.23,72.54,142.74,72.56,148.32z"/>
<circle class="st1" cx="59.68" cy="221.88" r="8.09"/>
<path class="st1" d="M72.56,241.82v13.7c-0.01,3.79-2.13,7.26-5.51,9v15.22c0.14,4.07-3.05,7.49-7.12,7.63
	c-4.07,0.14-7.49-3.05-7.63-7.12c-0.01-0.17-0.01-0.34,0-0.5v-15.21c-3.38-1.74-5.5-5.21-5.52-9.01v-13.7
	c0.02-5.58,4.55-10.09,10.12-10.11h5.52C68.02,231.73,72.54,236.25,72.56,241.82z"/>
<circle class="st1" cx="59.68" cy="315.38" r="8.09"/>
<path class="st1" d="M72.56,335.32v13.7c-0.01,3.79-2.13,7.26-5.51,9v15.22c0.14,4.07-3.05,7.49-7.12,7.63
	c-4.07,0.14-7.49-3.05-7.63-7.12c-0.01-0.17-0.01-0.34,0-0.5v-15.21c-3.38-1.74-5.5-5.21-5.52-9.01v-13.7
	c0.02-5.58,4.55-10.09,10.12-10.11h5.52C68.02,325.23,72.54,329.75,72.56,335.32z"/>
<circle class="st1" cx="59.68" cy="408.88" r="8.09"/>
<path class="st1" d="M72.56,428.83v13.7c-0.01,3.79-2.13,7.26-5.51,9v15.22c0.14,4.07-3.05,7.49-7.12,7.63
	c-4.07,0.14-7.49-3.05-7.63-7.12c-0.01-0.17-0.01-0.34,0-0.5v-15.21c-3.38-1.74-5.5-5.21-5.52-9.01v-13.7
	c0.02-5.58,4.55-10.09,10.12-10.11h5.52C68.02,418.73,72.54,423.25,72.56,428.83z"/>
<circle class="st2" cx="59.68" cy="502.38" r="8.09"/>
<path class="st2" d="M72.56,522.33v13.7c-0.01,3.79-2.13,7.26-5.51,9v15.22c0.14,4.07-3.05,7.49-7.12,7.63
	c-4.07,0.14-7.49-3.05-7.63-7.12c-0.01-0.17-0.01-0.34,0-0.5v-15.21c-3.38-1.74-5.5-5.21-5.52-9.01v-13.7
	c0.02-5.58,4.55-10.09,10.12-10.11h5.52C68.02,512.23,72.54,516.75,72.56,522.33z"/>
<circle class="st2" cx="59.68" cy="595.88" r="8.09"/>
<path class="st2" d="M72.56,615.83v13.7c-0.01,3.79-2.13,7.26-5.51,9v15.22c0.14,4.07-3.05,7.49-7.12,7.63s-7.49-3.05-7.63-7.12
	c-0.01-0.17-0.01-0.34,0-0.5v-15.21c-3.38-1.74-5.5-5.21-5.52-9.01v-13.7c0.02-5.58,4.55-10.09,10.12-10.11h5.52
	C68.02,605.73,72.54,610.25,72.56,615.83z"/>
<circle class="st2" cx="59.68" cy="689.38" r="8.09"/>
<path class="st2" d="M72.56,709.33v13.7c-0.01,3.79-2.13,7.26-5.51,9v15.22c0.14,4.07-3.05,7.49-7.12,7.63
	c-4.07,0.14-7.49-3.05-7.63-7.12c-0.01-0.17-0.01-0.34,0-0.5v-15.21c-3.38-1.74-5.5-5.21-5.52-9.01v-13.7
	c0.02-5.58,4.55-10.09,10.12-10.11h5.52C68.02,699.24,72.54,703.75,72.56,709.33z"/>
<circle class="st2" cx="59.68" cy="782.88" r="8.09"/>
<path class="st2" d="M72.56,802.83v13.7c-0.01,3.79-2.13,7.26-5.51,9v15.22c0.14,4.07-3.05,7.49-7.12,7.63s-7.49-3.05-7.63-7.12
	c-0.01-0.17-0.01-0.34,0-0.5v-15.21c-3.38-1.74-5.5-5.21-5.52-9.01v-13.7c0.02-5.58,4.55-10.09,10.12-10.11h5.52
	C68.02,792.74,72.54,797.25,72.56,802.83z"/>
<circle class="st2" cx="59.68" cy="876.38" r="8.09"/>
<path class="st2" d="M72.56,896.33v13.7c-0.01,3.79-2.13,7.26-5.51,9v15.22c0.14,4.07-3.05,7.49-7.12,7.63
	c-4.07,0.14-7.49-3.05-7.63-7.12c-0.01-0.17-0.01-0.34,0-0.5v-15.21c-3.38-1.74-5.5-5.21-5.52-9.01v-13.7
	c0.02-5.58,4.55-10.09,10.12-10.11h5.52C68.02,886.24,72.54,890.75,72.56,896.33z"/>
<circle class="st1" cx="156.68" cy="34.88" r="8.09"/>
<path class="st1" d="M169.57,54.82v13.7c-0.01,3.79-2.13,7.26-5.51,9v15.22c0.14,4.07-3.05,7.49-7.12,7.63
	c-4.07,0.14-7.49-3.05-7.63-7.12c-0.01-0.17-0.01-0.34,0-0.5V77.53c-3.38-1.74-5.5-5.21-5.52-9.01v-13.7
	c0.02-5.58,4.55-10.09,10.12-10.11h5.52C165.02,44.73,169.54,49.24,169.57,54.82z"/>
<circle class="st1" cx="156.68" cy="128.38" r="8.09"/>
<path class="st1" d="M169.57,148.32v13.7c-0.01,3.79-2.13,7.26-5.51,9v15.22c0.14,4.07-3.05,7.49-7.12,7.63
	c-4.07,0.14-7.49-3.05-7.63-7.12c-0.01-0.17-0.01-0.34,0-0.5v-15.21c-3.38-1.74-5.5-5.21-5.52-9.01v-13.7
	c0.02-5.58,4.55-10.09,10.12-10.11h5.52C165.02,138.23,169.54,142.74,169.57,148.32z"/>
<circle class="st1" cx="156.68" cy="221.88" r="8.09"/>
<path class="st1" d="M169.57,241.82v13.7c-0.01,3.79-2.13,7.26-5.51,9v15.22c0.14,4.07-3.05,7.49-7.12,7.63
	c-4.07,0.14-7.49-3.05-7.63-7.12c-0.01-0.17-0.01-0.34,0-0.5v-15.21c-3.38-1.74-5.5-5.21-5.52-9.01v-13.7
	c0.02-5.58,4.55-10.09,10.12-10.11h5.52C165.02,231.73,169.54,236.25,169.57,241.82z"/>
<circle class="st1" cx="156.68" cy="315.38" r="8.09"/>
<path class="st1" d="M169.57,335.32v13.7c-0.01,3.79-2.13,7.26-5.51,9v15.22c0.14,4.07-3.05,7.49-7.12,7.63
	c-4.07,0.14-7.49-3.05-7.63-7.12c-0.01-0.17-0.01-0.34,0-0.5v-15.21c-3.38-1.74-5.5-5.21-5.52-9.01v-13.7
	c0.02-5.58,4.55-10.09,10.12-10.11h5.52C165.02,325.23,169.54,329.75,169.57,335.32z"/>
<circle class="st1" cx="156.68" cy="408.88" r="8.09"/>
<path class="st1" d="M169.57,428.83v13.7c-0.01,3.79-2.13,7.26-5.51,9v15.22c0.14,4.07-3.05,7.49-7.12,7.63
	c-4.07,0.14-7.49-3.05-7.63-7.12c-0.01-0.17-0.01-0.34,0-0.5v-15.21c-3.38-1.74-5.5-5.21-5.52-9.01v-13.7
	c0.02-5.58,4.55-10.09,10.12-10.11h5.52C165.02,418.73,169.54,423.25,169.57,428.83z"/>
<circle class="st2" cx="156.68" cy="502.38" r="8.09"/>
<path class="st2" d="M169.57,522.33v13.7c-0.01,3.79-2.13,7.26-5.51,9v15.22c0.14,4.07-3.05,7.49-7.12,7.63
	c-4.07,0.14-7.49-3.05-7.63-7.12c-0.01-0.17-0.01-0.34,0-0.5v-15.21c-3.38-1.74-5.5-5.21-5.52-9.01v-13.7
	c0.02-5.58,4.55-10.09,10.12-10.11h5.52C165.02,512.23,169.54,516.75,169.57,522.33z"/>
<circle class="st2" cx="156.68" cy="595.88" r="8.09"/>
<path class="st2" d="M169.57,615.83v13.7c-0.01,3.79-2.13,7.26-5.51,9v15.22c0.14,4.07-3.05,7.49-7.12,7.63
	c-4.07,0.14-7.49-3.05-7.63-7.12c-0.01-0.17-0.01-0.34,0-0.5v-15.21c-3.38-1.74-5.5-5.21-5.52-9.01v-13.7
	c0.02-5.58,4.55-10.09,10.12-10.11h5.52C165.02,605.73,169.54,610.25,169.57,615.83z"/>
<circle class="st2" cx="156.68" cy="689.38" r="8.09"/>
<path class="st2" d="M169.57,709.33v13.7c-0.01,3.79-2.13,7.26-5.51,9v15.22c0.14,4.07-3.05,7.49-7.12,7.63
	c-4.07,0.14-7.49-3.05-7.63-7.12c-0.01-0.17-0.01-0.34,0-0.5v-15.21c-3.38-1.74-5.5-5.21-5.52-9.01v-13.7
	c0.02-5.58,4.55-10.09,10.12-10.11h5.52C165.02,699.24,169.54,703.75,169.57,709.33z"/>
<circle class="st2" cx="156.68" cy="782.88" r="8.09"/>
<path class="st2" d="M169.57,802.83v13.7c-0.01,3.79-2.13,7.26-5.51,9v15.22c0.14,4.07-3.05,7.49-7.12,7.63
	c-4.07,0.14-7.49-3.05-7.63-7.12c-0.01-0.17-0.01-0.34,0-0.5v-15.21c-3.38-1.74-5.5-5.21-5.52-9.01v-13.7
	c0.02-5.58,4.55-10.09,10.12-10.11h5.52C165.02,792.74,169.54,797.25,169.57,802.83z"/>
<circle class="st2" cx="156.68" cy="876.38" r="8.09"/>
<path class="st2" d="M169.57,896.33v13.7c-0.01,3.79-2.13,7.26-5.51,9v15.22c0.14,4.07-3.05,7.49-7.12,7.63
	c-4.07,0.14-7.49-3.05-7.63-7.12c-0.01-0.17-0.01-0.34,0-0.5v-15.21c-3.38-1.74-5.5-5.21-5.52-9.01v-13.7
	c0.02-5.58,4.55-10.09,10.12-10.11h5.52C165.02,886.24,169.54,890.75,169.57,896.33z"/>
<circle class="st1" cx="253.68" cy="34.88" r="8.09"/>
<path class="st1" d="M266.57,54.82v13.7c-0.01,3.79-2.13,7.26-5.51,9v15.22c0.14,4.07-3.05,7.49-7.12,7.63
	c-4.07,0.14-7.49-3.05-7.63-7.12c-0.01-0.17-0.01-0.34,0-0.5V77.53c-3.38-1.74-5.5-5.21-5.52-9.01v-13.7
	c0.02-5.58,4.55-10.09,10.12-10.11h5.52C262.02,44.73,266.55,49.24,266.57,54.82z"/>
<circle class="st1" cx="253.68" cy="128.38" r="8.09"/>
<path class="st1" d="M266.57,148.32v13.7c-0.01,3.79-2.13,7.26-5.51,9v15.22c0.14,4.07-3.05,7.49-7.12,7.63
	c-4.07,0.14-7.49-3.05-7.63-7.12c-0.01-0.17-0.01-0.34,0-0.5v-15.21c-3.38-1.74-5.5-5.21-5.52-9.01v-13.7
	c0.02-5.58,4.55-10.09,10.12-10.11h5.52C262.02,138.23,266.55,142.74,266.57,148.32z"/>
<circle class="st1" cx="253.68" cy="221.88" r="8.09"/>
<path class="st1" d="M266.57,241.82v13.7c-0.01,3.79-2.13,7.26-5.51,9v15.22c0.14,4.07-3.05,7.49-7.12,7.63
	c-4.07,0.14-7.49-3.05-7.63-7.12c-0.01-0.17-0.01-0.34,0-0.5v-15.21c-3.38-1.74-5.5-5.21-5.52-9.01v-13.7
	c0.02-5.58,4.55-10.09,10.12-10.11h5.52C262.02,231.73,266.55,236.25,266.57,241.82z"/>
<circle class="st1" cx="253.68" cy="315.38" r="8.09"/>
<path class="st1" d="M266.57,335.32v13.7c-0.01,3.79-2.13,7.26-5.51,9v15.22c0.14,4.07-3.05,7.49-7.12,7.63
	c-4.07,0.14-7.49-3.05-7.63-7.12c-0.01-0.17-0.01-0.34,0-0.5v-15.21c-3.38-1.74-5.5-5.21-5.52-9.01v-13.7
	c0.02-5.58,4.55-10.09,10.12-10.11h5.52C262.02,325.23,266.55,329.75,266.57,335.32z"/>
<circle class="st2" cx="253.68" cy="408.88" r="8.09"/>
<path class="st2" d="M266.57,428.83v13.7c-0.01,3.79-2.13,7.26-5.51,9v15.22c0.14,4.07-3.05,7.49-7.12,7.63
	c-4.07,0.14-7.49-3.05-7.63-7.12c-0.01-0.17-0.01-0.34,0-0.5v-15.21c-3.38-1.74-5.5-5.21-5.52-9.01v-13.7
	c0.02-5.58,4.55-10.09,10.12-10.11h5.52C262.02,418.73,266.55,423.25,266.57,428.83z"/>
<circle class="st2" cx="253.68" cy="502.38" r="8.09"/>
<path class="st2" d="M266.57,522.33v13.7c-0.01,3.79-2.13,7.26-5.51,9v15.22c0.14,4.07-3.05,7.49-7.12,7.63
	c-4.07,0.14-7.49-3.05-7.63-7.12c-0.01-0.17-0.01-0.34,0-0.5v-15.21c-3.38-1.74-5.5-5.21-5.52-9.01v-13.7
	c0.02-5.58,4.55-10.09,10.12-10.11h5.52C262.02,512.23,266.55,516.75,266.57,522.33z"/>
<circle class="st2" cx="253.68" cy="595.88" r="8.09"/>
<path class="st2" d="M266.57,615.83v13.7c-0.01,3.79-2.13,7.26-5.51,9v15.22c0.14,4.07-3.05,7.49-7.12,7.63
	c-4.07,0.14-7.49-3.05-7.63-7.12c-0.01-0.17-0.01-0.34,0-0.5v-15.21c-3.38-1.74-5.5-5.21-5.52-9.01v-13.7
	c0.02-5.58,4.55-10.09,10.12-10.11h5.52C262.02,605.73,266.55,610.25,266.57,615.83z"/>
<circle class="st2" cx="253.68" cy="689.38" r="8.09"/>
<path class="st2" d="M266.57,709.33v13.7c-0.01,3.79-2.13,7.26-5.51,9v15.22c0.14,4.07-3.05,7.49-7.12,7.63
	c-4.07,0.14-7.49-3.05-7.63-7.12c-0.01-0.17-0.01-0.34,0-0.5v-15.21c-3.38-1.74-5.5-5.21-5.52-9.01v-13.7
	c0.02-5.58,4.55-10.09,10.12-10.11h5.52C262.02,699.24,266.55,703.75,266.57,709.33z"/>
<circle class="st2" cx="253.68" cy="782.88" r="8.09"/>
<path class="st2" d="M266.57,802.83v13.7c-0.01,3.79-2.13,7.26-5.51,9v15.22c0.14,4.07-3.05,7.49-7.12,7.63
	c-4.07,0.14-7.49-3.05-7.63-7.12c-0.01-0.17-0.01-0.34,0-0.5v-15.21c-3.38-1.74-5.5-5.21-5.52-9.01v-13.7
	c0.02-5.58,4.55-10.09,10.12-10.11h5.52C262.02,792.74,266.55,797.25,266.57,802.83z"/>
<circle class="st2" cx="253.68" cy="876.38" r="8.09"/>
<path class="st2" d="M266.57,896.33v13.7c-0.01,3.79-2.13,7.26-5.51,9v15.22c0.14,4.07-3.05,7.49-7.12,7.63
	c-4.07,0.14-7.49-3.05-7.63-7.12c-0.01-0.17-0.01-0.34,0-0.5v-15.21c-3.38-1.74-5.5-5.21-5.52-9.01v-13.7
	c0.02-5.58,4.55-10.09,10.12-10.11h5.52C262.02,886.24,266.55,890.75,266.57,896.33z"/>
<circle class="st1" cx="350.69" cy="34.88" r="8.09"/>
<path class="st1" d="M363.57,54.82v13.7c-0.01,3.79-2.13,7.26-5.51,9v15.22c0.14,4.07-3.05,7.49-7.12,7.63
	c-4.07,0.14-7.49-3.05-7.63-7.12c-0.01-0.17-0.01-0.34,0-0.5V77.53c-3.38-1.74-5.5-5.21-5.52-9.01v-13.7
	c0.02-5.58,4.55-10.09,10.12-10.11h5.52C359.03,44.73,363.55,49.24,363.57,54.82z"/>
<circle class="st1" cx="350.69" cy="128.38" r="8.09"/>
<path class="st1" d="M363.57,148.32v13.7c-0.01,3.79-2.13,7.26-5.51,9v15.22c0.14,4.07-3.05,7.49-7.12,7.63
	c-4.07,0.14-7.49-3.05-7.63-7.12c-0.01-0.17-0.01-0.34,0-0.5v-15.21c-3.38-1.74-5.5-5.21-5.52-9.01v-13.7
	c0.02-5.58,4.55-10.09,10.12-10.11h5.52C359.03,138.23,363.55,142.74,363.57,148.32z"/>
<circle class="st1" cx="350.69" cy="221.88" r="8.09"/>
<path class="st1" d="M363.57,241.82v13.7c-0.01,3.79-2.13,7.26-5.51,9v15.22c0.14,4.07-3.05,7.49-7.12,7.63
	c-4.07,0.14-7.49-3.05-7.63-7.12c-0.01-0.17-0.01-0.34,0-0.5v-15.21c-3.38-1.74-5.5-5.21-5.52-9.01v-13.7
	c0.02-5.58,4.55-10.09,10.12-10.11h5.52C359.03,231.73,363.55,236.25,363.57,241.82z"/>
<circle class="st1" cx="350.69" cy="315.38" r="8.09"/>
<path class="st1" d="M363.57,335.32v13.7c-0.01,3.79-2.13,7.26-5.51,9v15.22c0.14,4.07-3.05,7.49-7.12,7.63
	c-4.07,0.14-7.49-3.05-7.63-7.12c-0.01-0.17-0.01-0.34,0-0.5v-15.21c-3.38-1.74-5.5-5.21-5.52-9.01v-13.7
	c0.02-5.58,4.55-10.09,10.12-10.11h5.52C359.03,325.23,363.55,329.75,363.57,335.32z"/>
<circle class="st2" cx="350.69" cy="408.88" r="8.09"/>
<path class="st2" d="M363.57,428.83v13.7c-0.01,3.79-2.13,7.26-5.51,9v15.22c0.14,4.07-3.05,7.49-7.12,7.63
	c-4.07,0.14-7.49-3.05-7.63-7.12c-0.01-0.17-0.01-0.34,0-0.5v-15.21c-3.38-1.74-5.5-5.21-5.52-9.01v-13.7
	c0.02-5.58,4.55-10.09,10.12-10.11h5.52C359.03,418.73,363.55,423.25,363.57,428.83z"/>
<circle class="st2" cx="350.69" cy="502.38" r="8.09"/>
<path class="st2" d="M363.57,522.33v13.7c-0.01,3.79-2.13,7.26-5.51,9v15.22c0.14,4.07-3.05,7.49-7.12,7.63
	c-4.07,0.14-7.49-3.05-7.63-7.12c-0.01-0.17-0.01-0.34,0-0.5v-15.21c-3.38-1.74-5.5-5.21-5.52-9.01v-13.7
	c0.02-5.58,4.55-10.09,10.12-10.11h5.52C359.03,512.23,363.55,516.75,363.57,522.33z"/>
<circle class="st2" cx="350.69" cy="595.88" r="8.09"/>
<path class="st2" d="M363.57,615.83v13.7c-0.01,3.79-2.13,7.26-5.51,9v15.22c0.14,4.07-3.05,7.49-7.12,7.63
	c-4.07,0.14-7.49-3.05-7.63-7.12c-0.01-0.17-0.01-0.34,0-0.5v-15.21c-3.38-1.74-5.5-5.21-5.52-9.01v-13.7
	c0.02-5.58,4.55-10.09,10.12-10.11h5.52C359.03,605.73,363.55,610.25,363.57,615.83z"/>
<circle class="st2" cx="350.69" cy="689.38" r="8.09"/>
<path class="st2" d="M363.57,709.33v13.7c-0.01,3.79-2.13,7.26-5.51,9v15.22c0.14,4.07-3.05,7.49-7.12,7.63
	c-4.07,0.14-7.49-3.05-7.63-7.12c-0.01-0.17-0.01-0.34,0-0.5v-15.21c-3.38-1.74-5.5-5.21-5.52-9.01v-13.7
	c0.02-5.58,4.55-10.09,10.12-10.11h5.52C359.03,699.24,363.55,703.75,363.57,709.33z"/>
<circle class="st2" cx="350.69" cy="782.88" r="8.09"/>
<path class="st2" d="M363.57,802.83v13.7c-0.01,3.79-2.13,7.26-5.51,9v15.22c0.14,4.07-3.05,7.49-7.12,7.63
	c-4.07,0.14-7.49-3.05-7.63-7.12c-0.01-0.17-0.01-0.34,0-0.5v-15.21c-3.38-1.74-5.5-5.21-5.52-9.01v-13.7
	c0.02-5.58,4.55-10.09,10.12-10.11h5.52C359.03,792.74,363.55,797.25,363.57,802.83z"/>
<circle class="st2" cx="350.69" cy="876.38" r="8.09"/>
<path class="st2" d="M363.57,896.33v13.7c-0.01,3.79-2.13,7.26-5.51,9v15.22c0.14,4.07-3.05,7.49-7.12,7.63
	c-4.07,0.14-7.49-3.05-7.63-7.12c-0.01-0.17-0.01-0.34,0-0.5v-15.21c-3.38-1.74-5.5-5.21-5.52-9.01v-13.7
	c0.02-5.58,4.55-10.09,10.12-10.11h5.52C359.03,886.24,363.55,890.75,363.57,896.33z"/>
<circle class="st1" cx="447.69" cy="34.88" r="8.09"/>
<path class="st1" d="M460.58,54.82v13.7c-0.01,3.79-2.13,7.26-5.51,9v15.22c0.14,4.07-3.05,7.49-7.12,7.63
	c-4.07,0.14-7.49-3.05-7.63-7.12c-0.01-0.17-0.01-0.34,0-0.5V77.53c-3.38-1.74-5.5-5.21-5.52-9.01v-13.7
	c0.02-5.58,4.55-10.09,10.12-10.11h5.52C456.03,44.73,460.55,49.24,460.58,54.82z"/>
<circle class="st1" cx="447.69" cy="128.38" r="8.09"/>
<path class="st1" d="M460.58,148.32v13.7c-0.01,3.79-2.13,7.26-5.51,9v15.22c0.14,4.07-3.05,7.49-7.12,7.63
	c-4.07,0.14-7.49-3.05-7.63-7.12c-0.01-0.17-0.01-0.34,0-0.5v-15.21c-3.38-1.74-5.5-5.21-5.52-9.01v-13.7
	c0.02-5.58,4.55-10.09,10.12-10.11h5.52C456.03,138.23,460.55,142.74,460.58,148.32z"/>
<circle class="st1" cx="447.69" cy="221.88" r="8.09"/>
<path class="st1" d="M460.58,241.82v13.7c-0.01,3.79-2.13,7.26-5.51,9v15.22c0.14,4.07-3.05,7.49-7.12,7.63
	c-4.07,0.14-7.49-3.05-7.63-7.12c-0.01-0.17-0.01-0.34,0-0.5v-15.21c-3.38-1.74-5.5-5.21-5.52-9.01v-13.7
	c0.02-5.58,4.55-10.09,10.12-10.11h5.52C456.03,231.73,460.55,236.25,460.58,241.82z"/>
<circle class="st1" cx="447.69" cy="315.38" r="8.09"/>
<path class="st1" d="M460.58,335.32v13.7c-0.01,3.79-2.13,7.26-5.51,9v15.22c0.14,4.07-3.05,7.49-7.12,7.63
	c-4.07,0.14-7.49-3.05-7.63-7.12c-0.01-0.17-0.01-0.34,0-0.5v-15.21c-3.38-1.74-5.5-5.21-5.52-9.01v-13.7
	c0.02-5.58,4.55-10.09,10.12-10.11h5.52C456.03,325.23,460.55,329.75,460.58,335.32z"/>
<circle class="st2" cx="447.69" cy="408.88" r="8.09"/>
<path class="st2" d="M460.58,428.83v13.7c-0.01,3.79-2.13,7.26-5.51,9v15.22c0.14,4.07-3.05,7.49-7.12,7.63
	c-4.07,0.14-7.49-3.05-7.63-7.12c-0.01-0.17-0.01-0.34,0-0.5v-15.21c-3.38-1.74-5.5-5.21-5.52-9.01v-13.7
	c0.02-5.58,4.55-10.09,10.12-10.11h5.52C456.03,418.73,460.55,423.25,460.58,428.83z"/>
<circle class="st2" cx="447.69" cy="502.38" r="8.09"/>
<path class="st2" d="M460.58,522.33v13.7c-0.01,3.79-2.13,7.26-5.51,9v15.22c0.14,4.07-3.05,7.49-7.12,7.63
	c-4.07,0.14-7.49-3.05-7.63-7.12c-0.01-0.17-0.01-0.34,0-0.5v-15.21c-3.38-1.74-5.5-5.21-5.52-9.01v-13.7
	c0.02-5.58,4.55-10.09,10.12-10.11h5.52C456.03,512.23,460.55,516.75,460.58,522.33z"/>
<circle class="st2" cx="447.69" cy="595.88" r="8.09"/>
<path class="st2" d="M460.58,615.83v13.7c-0.01,3.79-2.13,7.26-5.51,9v15.22c0.14,4.07-3.05,7.49-7.12,7.63
	c-4.07,0.14-7.49-3.05-7.63-7.12c-0.01-0.17-0.01-0.34,0-0.5v-15.21c-3.38-1.74-5.5-5.21-5.52-9.01v-13.7
	c0.02-5.58,4.55-10.09,10.12-10.11h5.52C456.03,605.73,460.55,610.25,460.58,615.83z"/>
<circle class="st2" cx="447.69" cy="689.38" r="8.09"/>
<path class="st2" d="M460.58,709.33v13.7c-0.01,3.79-2.13,7.26-5.51,9v15.22c0.14,4.07-3.05,7.49-7.12,7.63
	c-4.07,0.14-7.49-3.05-7.63-7.12c-0.01-0.17-0.01-0.34,0-0.5v-15.21c-3.38-1.74-5.5-5.21-5.52-9.01v-13.7
	c0.02-5.58,4.55-10.09,10.12-10.11h5.52C456.03,699.24,460.55,703.75,460.58,709.33z"/>
<circle class="st2" cx="447.69" cy="782.88" r="8.09"/>
<path class="st2" d="M460.58,802.83v13.7c-0.01,3.79-2.13,7.26-5.51,9v15.22c0.14,4.07-3.05,7.49-7.12,7.63
	c-4.07,0.14-7.49-3.05-7.63-7.12c-0.01-0.17-0.01-0.34,0-0.5v-15.21c-3.38-1.74-5.5-5.21-5.52-9.01v-13.7
	c0.02-5.58,4.55-10.09,10.12-10.11h5.52C456.03,792.74,460.55,797.25,460.58,802.83z"/>
<circle class="st2" cx="447.69" cy="876.38" r="8.09"/>
<path class="st2" d="M460.58,896.33v13.7c-0.01,3.79-2.13,7.26-5.51,9v15.22c0.14,4.07-3.05,7.49-7.12,7.63
	c-4.07,0.14-7.49-3.05-7.63-7.12c-0.01-0.17-0.01-0.34,0-0.5v-15.21c-3.38-1.74-5.5-5.21-5.52-9.01v-13.7
	c0.02-5.58,4.55-10.09,10.12-10.11h5.52C456.03,886.24,460.55,890.75,460.58,896.33z"/>
<circle class="st1" cx="544.69" cy="34.88" r="8.09"/>
<path class="st1" d="M557.58,54.82v13.7c-0.01,3.79-2.13,7.26-5.51,9v15.22c0.14,4.07-3.05,7.49-7.12,7.63s-7.49-3.05-7.63-7.12
	c-0.01-0.17-0.01-0.34,0-0.5V77.53c-3.38-1.74-5.5-5.21-5.52-9.01v-13.7c0.02-5.58,4.55-10.09,10.12-10.11h5.52
	C553.04,44.73,557.56,49.24,557.58,54.82z"/>
<circle class="st1" cx="544.69" cy="128.38" r="8.09"/>
<path class="st1" d="M557.58,148.32v13.7c-0.01,3.79-2.13,7.26-5.51,9v15.22c0.14,4.07-3.05,7.49-7.12,7.63
	c-4.07,0.14-7.49-3.05-7.63-7.12c-0.01-0.17-0.01-0.34,0-0.5v-15.21c-3.38-1.74-5.5-5.21-5.52-9.01v-13.7
	c0.02-5.58,4.55-10.09,10.12-10.11h5.52C553.04,138.23,557.56,142.74,557.58,148.32z"/>
<circle class="st1" cx="544.69" cy="221.88" r="8.09"/>
<path class="st1" d="M557.58,241.82v13.7c-0.01,3.79-2.13,7.26-5.51,9v15.22c0.14,4.07-3.05,7.49-7.12,7.63
	c-4.07,0.14-7.49-3.05-7.63-7.12c-0.01-0.17-0.01-0.34,0-0.5v-15.21c-3.38-1.74-5.5-5.21-5.52-9.01v-13.7
	c0.02-5.58,4.55-10.09,10.12-10.11h5.52C553.04,231.73,557.56,236.25,557.58,241.82z"/>
<circle class="st1" cx="544.69" cy="315.38" r="8.09"/>
<path class="st1" d="M557.58,335.32v13.7c-0.01,3.79-2.13,7.26-5.51,9v15.22c0.14,4.07-3.05,7.49-7.12,7.63
	c-4.07,0.14-7.49-3.05-7.63-7.12c-0.01-0.17-0.01-0.34,0-0.5v-15.21c-3.38-1.74-5.5-5.21-5.52-9.01v-13.7
	c0.02-5.58,4.55-10.09,10.12-10.11h5.52C553.04,325.23,557.56,329.75,557.58,335.32z"/>
<circle class="st2" cx="544.69" cy="408.88" r="8.09"/>
<path class="st2" d="M557.58,428.83v13.7c-0.01,3.79-2.13,7.26-5.51,9v15.22c0.14,4.07-3.05,7.49-7.12,7.63
	c-4.07,0.14-7.49-3.05-7.63-7.12c-0.01-0.17-0.01-0.34,0-0.5v-15.21c-3.38-1.74-5.5-5.21-5.52-9.01v-13.7
	c0.02-5.58,4.55-10.09,10.12-10.11h5.52C553.04,418.73,557.56,423.25,557.58,428.83z"/>
<circle class="st2" cx="544.69" cy="502.38" r="8.09"/>
<path class="st2" d="M557.58,522.33v13.7c-0.01,3.79-2.13,7.26-5.51,9v15.22c0.14,4.07-3.05,7.49-7.12,7.63
	c-4.07,0.14-7.49-3.05-7.63-7.12c-0.01-0.17-0.01-0.34,0-0.5v-15.21c-3.38-1.74-5.5-5.21-5.52-9.01v-13.7
	c0.02-5.58,4.55-10.09,10.12-10.11h5.52C553.04,512.23,557.56,516.75,557.58,522.33z"/>
<circle class="st2" cx="544.69" cy="595.88" r="8.09"/>
<path class="st2" d="M557.58,615.83v13.7c-0.01,3.79-2.13,7.26-5.51,9v15.22c0.14,4.07-3.05,7.49-7.12,7.63s-7.49-3.05-7.63-7.12
	c-0.01-0.17-0.01-0.34,0-0.5v-15.21c-3.38-1.74-5.5-5.21-5.52-9.01v-13.7c0.02-5.58,4.55-10.09,10.12-10.11h5.52
	C553.04,605.73,557.56,610.25,557.58,615.83z"/>
<circle class="st2" cx="544.69" cy="689.38" r="8.09"/>
<path class="st2" d="M557.58,709.33v13.7c-0.01,3.79-2.13,7.26-5.51,9v15.22c0.14,4.07-3.05,7.49-7.12,7.63
	c-4.07,0.14-7.49-3.05-7.63-7.12c-0.01-0.17-0.01-0.34,0-0.5v-15.21c-3.38-1.74-5.5-5.21-5.52-9.01v-13.7
	c0.02-5.58,4.55-10.09,10.12-10.11h5.52C553.04,699.24,557.56,703.75,557.58,709.33z"/>
<circle class="st2" cx="544.69" cy="782.88" r="8.09"/>
<path class="st2" d="M557.58,802.83v13.7c-0.01,3.79-2.13,7.26-5.51,9v15.22c0.14,4.07-3.05,7.49-7.12,7.63s-7.49-3.05-7.63-7.12
	c-0.01-0.17-0.01-0.34,0-0.5v-15.21c-3.38-1.74-5.5-5.21-5.52-9.01v-13.7c0.02-5.58,4.55-10.09,10.12-10.11h5.52
	C553.04,792.74,557.56,797.25,557.58,802.83z"/>
<circle class="st2" cx="544.69" cy="876.38" r="8.09"/>
<path class="st2" d="M557.58,896.33v13.7c-0.01,3.79-2.13,7.26-5.51,9v15.22c0.14,4.07-3.05,7.49-7.12,7.63
	c-4.07,0.14-7.49-3.05-7.63-7.12c-0.01-0.17-0.01-0.34,0-0.5v-15.21c-3.38-1.74-5.5-5.21-5.52-9.01v-13.7
	c0.02-5.58,4.55-10.09,10.12-10.11h5.52C553.04,886.24,557.56,890.75,557.58,896.33z"/>
<circle class="st1" cx="641.7" cy="34.88" r="8.09"/>
<path class="st1" d="M654.58,54.82v13.7c-0.01,3.79-2.13,7.26-5.51,9v15.22c0.14,4.07-3.05,7.49-7.12,7.63
	c-4.07,0.14-7.49-3.05-7.63-7.12c-0.01-0.17-0.01-0.34,0-0.5V77.53c-3.38-1.74-5.5-5.21-5.52-9.01v-13.7
	c0.02-5.58,4.55-10.09,10.12-10.11h5.52C650.04,44.73,654.56,49.24,654.58,54.82z"/>
<circle class="st1" cx="641.7" cy="128.38" r="8.09"/>
<path class="st1" d="M654.58,148.32v13.7c-0.01,3.79-2.13,7.26-5.51,9v15.22c0.14,4.07-3.05,7.49-7.12,7.63
	c-4.07,0.14-7.49-3.05-7.63-7.12c-0.01-0.17-0.01-0.34,0-0.5v-15.21c-3.38-1.74-5.5-5.21-5.52-9.01v-13.7
	c0.02-5.58,4.55-10.09,10.12-10.11h5.52C650.04,138.23,654.56,142.74,654.58,148.32z"/>
<circle class="st1" cx="641.7" cy="221.88" r="8.09"/>
<path class="st1" d="M654.58,241.82v13.7c-0.01,3.79-2.13,7.26-5.51,9v15.22c0.14,4.07-3.05,7.49-7.12,7.63
	c-4.07,0.14-7.49-3.05-7.63-7.12c-0.01-0.17-0.01-0.34,0-0.5v-15.21c-3.38-1.74-5.5-5.21-5.52-9.01v-13.7
	c0.02-5.58,4.55-10.09,10.12-10.11h5.52C650.04,231.73,654.56,236.25,654.58,241.82z"/>
<circle class="st1" cx="641.7" cy="315.38" r="8.09"/>
<path class="st1" d="M654.58,335.32v13.7c-0.01,3.79-2.13,7.26-5.51,9v15.22c0.14,4.07-3.05,7.49-7.12,7.63
	c-4.07,0.14-7.49-3.05-7.63-7.12c-0.01-0.17-0.01-0.34,0-0.5v-15.21c-3.38-1.74-5.5-5.21-5.52-9.01v-13.7
	c0.02-5.58,4.55-10.09,10.12-10.11h5.52C650.04,325.23,654.56,329.75,654.58,335.32z"/>
<circle class="st2" cx="641.7" cy="408.88" r="8.09"/>
<path class="st2" d="M654.58,428.83v13.7c-0.01,3.79-2.13,7.26-5.51,9v15.22c0.14,4.07-3.05,7.49-7.12,7.63
	c-4.07,0.14-7.49-3.05-7.63-7.12c-0.01-0.17-0.01-0.34,0-0.5v-15.21c-3.38-1.74-5.5-5.21-5.52-9.01v-13.7
	c0.02-5.58,4.55-10.09,10.12-10.11h5.52C650.04,418.73,654.56,423.25,654.58,428.83z"/>
<circle class="st2" cx="641.7" cy="502.38" r="8.09"/>
<path class="st2" d="M654.58,522.33v13.7c-0.01,3.79-2.13,7.26-5.51,9v15.22c0.14,4.07-3.05,7.49-7.12,7.63
	c-4.07,0.14-7.49-3.05-7.63-7.12c-0.01-0.17-0.01-0.34,0-0.5v-15.21c-3.38-1.74-5.5-5.21-5.52-9.01v-13.7
	c0.02-5.58,4.55-10.09,10.12-10.11h5.52C650.04,512.23,654.56,516.75,654.58,522.33z"/>
<circle class="st2" cx="641.7" cy="595.88" r="8.09"/>
<path class="st2" d="M654.58,615.83v13.7c-0.01,3.79-2.13,7.26-5.51,9v15.22c0.14,4.07-3.05,7.49-7.12,7.63
	c-4.07,0.14-7.49-3.05-7.63-7.12c-0.01-0.17-0.01-0.34,0-0.5v-15.21c-3.38-1.74-5.5-5.21-5.52-9.01v-13.7
	c0.02-5.58,4.55-10.09,10.12-10.11h5.52C650.04,605.73,654.56,610.25,654.58,615.83z"/>
<circle class="st2" cx="641.7" cy="689.38" r="8.09"/>
<path class="st2" d="M654.58,709.33v13.7c-0.01,3.79-2.13,7.26-5.51,9v15.22c0.14,4.07-3.05,7.49-7.12,7.63
	c-4.07,0.14-7.49-3.05-7.63-7.12c-0.01-0.17-0.01-0.34,0-0.5v-15.21c-3.38-1.74-5.5-5.21-5.52-9.01v-13.7
	c0.02-5.58,4.55-10.09,10.12-10.11h5.52C650.04,699.24,654.56,703.75,654.58,709.33z"/>
<circle class="st2" cx="641.7" cy="782.88" r="8.09"/>
<path class="st2" d="M654.58,802.83v13.7c-0.01,3.79-2.13,7.26-5.51,9v15.22c0.14,4.07-3.05,7.49-7.12,7.63
	c-4.07,0.14-7.49-3.05-7.63-7.12c-0.01-0.17-0.01-0.34,0-0.5v-15.21c-3.38-1.74-5.5-5.21-5.52-9.01v-13.7
	c0.02-5.58,4.55-10.09,10.12-10.11h5.52C650.04,792.74,654.56,797.25,654.58,802.83z"/>
<circle class="st2" cx="641.7" cy="876.38" r="8.09"/>
<path class="st2" d="M654.58,896.33v13.7c-0.01,3.79-2.13,7.26-5.51,9v15.22c0.14,4.07-3.05,7.49-7.12,7.63
	c-4.07,0.14-7.49-3.05-7.63-7.12c-0.01-0.17-0.01-0.34,0-0.5v-15.21c-3.38-1.74-5.5-5.21-5.52-9.01v-13.7
	c0.02-5.58,4.55-10.09,10.12-10.11h5.52C650.04,886.24,654.56,890.75,654.58,896.33z"/>
<circle class="st1" cx="738.7" cy="34.88" r="8.09"/>
<path class="st1" d="M751.59,54.82v13.7c-0.01,3.79-2.13,7.26-5.51,9v15.22c0.14,4.07-3.05,7.49-7.12,7.63s-7.49-3.05-7.63-7.12
	c-0.01-0.17-0.01-0.34,0-0.5V77.53c-3.38-1.74-5.5-5.21-5.52-9.01v-13.7c0.02-5.58,4.55-10.09,10.12-10.11h5.52
	C747.04,44.73,751.56,49.24,751.59,54.82z"/>
<circle class="st1" cx="738.7" cy="128.38" r="8.09"/>
<path class="st1" d="M751.59,148.32v13.7c-0.01,3.79-2.13,7.26-5.51,9v15.22c0.14,4.07-3.05,7.49-7.12,7.63
	c-4.07,0.14-7.49-3.05-7.63-7.12c-0.01-0.17-0.01-0.34,0-0.5v-15.21c-3.38-1.74-5.5-5.21-5.52-9.01v-13.7
	c0.02-5.58,4.55-10.09,10.12-10.11h5.52C747.04,138.23,751.56,142.74,751.59,148.32z"/>
<circle class="st1" cx="738.7" cy="221.88" r="8.09"/>
<path class="st1" d="M751.59,241.82v13.7c-0.01,3.79-2.13,7.26-5.51,9v15.22c0.14,4.07-3.05,7.49-7.12,7.63
	c-4.07,0.14-7.49-3.05-7.63-7.12c-0.01-0.17-0.01-0.34,0-0.5v-15.21c-3.38-1.74-5.5-5.21-5.52-9.01v-13.7
	c0.02-5.58,4.55-10.09,10.12-10.11h5.52C747.04,231.73,751.56,236.25,751.59,241.82z"/>
<circle class="st1" cx="738.7" cy="315.38" r="8.09"/>
<path class="st1" d="M751.59,335.32v13.7c-0.01,3.79-2.13,7.26-5.51,9v15.22c0.14,4.07-3.05,7.49-7.12,7.63
	c-4.07,0.14-7.49-3.05-7.63-7.12c-0.01-0.17-0.01-0.34,0-0.5v-15.21c-3.38-1.74-5.5-5.21-5.52-9.01v-13.7
	c0.02-5.58,4.55-10.09,10.12-10.11h5.52C747.04,325.23,751.56,329.75,751.59,335.32z"/>
<circle class="st2" cx="738.7" cy="408.88" r="8.09"/>
<path class="st2" d="M751.59,428.83v13.7c-0.01,3.79-2.13,7.26-5.51,9v15.22c0.14,4.07-3.05,7.49-7.12,7.63
	c-4.07,0.14-7.49-3.05-7.63-7.12c-0.01-0.17-0.01-0.34,0-0.5v-15.21c-3.38-1.74-5.5-5.21-5.52-9.01v-13.7
	c0.02-5.58,4.55-10.09,10.12-10.11h5.52C747.04,418.73,751.56,423.25,751.59,428.83z"/>
<circle class="st2" cx="738.7" cy="502.38" r="8.09"/>
<path class="st2" d="M751.59,522.33v13.7c-0.01,3.79-2.13,7.26-5.51,9v15.22c0.14,4.07-3.05,7.49-7.12,7.63
	c-4.07,0.14-7.49-3.05-7.63-7.12c-0.01-0.17-0.01-0.34,0-0.5v-15.21c-3.38-1.74-5.5-5.21-5.52-9.01v-13.7
	c0.02-5.58,4.55-10.09,10.12-10.11h5.52C747.04,512.23,751.56,516.75,751.59,522.33z"/>
<circle class="st2" cx="738.7" cy="595.88" r="8.09"/>
<path class="st2" d="M751.59,615.83v13.7c-0.01,3.79-2.13,7.26-5.51,9v15.22c0.14,4.07-3.05,7.49-7.12,7.63s-7.49-3.05-7.63-7.12
	c-0.01-0.17-0.01-0.34,0-0.5v-15.21c-3.38-1.74-5.5-5.21-5.52-9.01v-13.7c0.02-5.58,4.55-10.09,10.12-10.11h5.52
	C747.04,605.73,751.56,610.25,751.59,615.83z"/>
<circle class="st2" cx="738.7" cy="689.38" r="8.09"/>
<path class="st2" d="M751.59,709.33v13.7c-0.01,3.79-2.13,7.26-5.51,9v15.22c0.14,4.07-3.05,7.49-7.12,7.63
	c-4.07,0.14-7.49-3.05-7.63-7.12c-0.01-0.17-0.01-0.34,0-0.5v-15.21c-3.38-1.74-5.5-5.21-5.52-9.01v-13.7
	c0.02-5.58,4.55-10.09,10.12-10.11h5.52C747.04,699.24,751.56,703.75,751.59,709.33z"/>
<circle class="st2" cx="738.7" cy="782.88" r="8.09"/>
<path class="st2" d="M751.59,802.83v13.7c-0.01,3.79-2.13,7.26-5.51,9v15.22c0.14,4.07-3.05,7.49-7.12,7.63s-7.49-3.05-7.63-7.12
	c-0.01-0.17-0.01-0.34,0-0.5v-15.21c-3.38-1.74-5.5-5.21-5.52-9.01v-13.7c0.02-5.58,4.55-10.09,10.12-10.11h5.52
	C747.04,792.74,751.56,797.25,751.59,802.83z"/>
<circle class="st2" cx="738.7" cy="876.38" r="8.09"/>
<path class="st2" d="M751.59,896.33v13.7c-0.01,3.79-2.13,7.26-5.51,9v15.22c0.14,4.07-3.05,7.49-7.12,7.63
	c-4.07,0.14-7.49-3.05-7.63-7.12c-0.01-0.17-0.01-0.34,0-0.5v-15.21c-3.38-1.74-5.5-5.21-5.52-9.01v-13.7
	c0.02-5.58,4.55-10.09,10.12-10.11h5.52C747.04,886.24,751.56,890.75,751.59,896.33z"/>
<circle class="st1" cx="835.71" cy="34.88" r="8.09"/>
<path class="st1" d="M848.59,54.82v13.7c-0.01,3.79-2.13,7.26-5.51,9v15.22c0.14,4.07-3.05,7.49-7.12,7.63s-7.49-3.05-7.63-7.12
	c-0.01-0.17-0.01-0.34,0-0.5V77.53c-3.38-1.74-5.5-5.21-5.52-9.01v-13.7c0.02-5.58,4.55-10.09,10.12-10.11h5.52
	C844.05,44.73,848.57,49.24,848.59,54.82z"/>
<circle class="st1" cx="835.71" cy="128.38" r="8.09"/>
<path class="st1" d="M848.59,148.32v13.7c-0.01,3.79-2.13,7.26-5.51,9v15.22c0.14,4.07-3.05,7.49-7.12,7.63
	c-4.07,0.14-7.49-3.05-7.63-7.12c-0.01-0.17-0.01-0.34,0-0.5v-15.21c-3.38-1.74-5.5-5.21-5.52-9.01v-13.7
	c0.02-5.58,4.55-10.09,10.12-10.11h5.52C844.05,138.23,848.57,142.74,848.59,148.32z"/>
<circle class="st1" cx="835.71" cy="221.88" r="8.09"/>
<path class="st1" d="M848.59,241.82v13.7c-0.01,3.79-2.13,7.26-5.51,9v15.22c0.14,4.07-3.05,7.49-7.12,7.63
	c-4.07,0.14-7.49-3.05-7.63-7.12c-0.01-0.17-0.01-0.34,0-0.5v-15.21c-3.38-1.74-5.5-5.21-5.52-9.01v-13.7
	c0.02-5.58,4.55-10.09,10.12-10.11h5.52C844.05,231.73,848.57,236.25,848.59,241.82z"/>
<circle class="st1" cx="835.71" cy="315.38" r="8.09"/>
<path class="st1" d="M848.59,335.32v13.7c-0.01,3.79-2.13,7.26-5.51,9v15.22c0.14,4.07-3.05,7.49-7.12,7.63
	c-4.07,0.14-7.49-3.05-7.63-7.12c-0.01-0.17-0.01-0.34,0-0.5v-15.21c-3.38-1.74-5.5-5.21-5.52-9.01v-13.7
	c0.02-5.58,4.55-10.09,10.12-10.11h5.52C844.05,325.23,848.57,329.75,848.59,335.32z"/>
<circle class="st2" cx="835.71" cy="408.88" r="8.09"/>
<path class="st2" d="M848.59,428.83v13.7c-0.01,3.79-2.13,7.26-5.51,9v15.22c0.14,4.07-3.05,7.49-7.12,7.63
	c-4.07,0.14-7.49-3.05-7.63-7.12c-0.01-0.17-0.01-0.34,0-0.5v-15.21c-3.38-1.74-5.5-5.21-5.52-9.01v-13.7
	c0.02-5.58,4.55-10.09,10.12-10.11h5.52C844.05,418.73,848.57,423.25,848.59,428.83z"/>
<circle class="st2" cx="835.71" cy="502.38" r="8.09"/>
<path class="st2" d="M848.59,522.33v13.7c-0.01,3.79-2.13,7.26-5.51,9v15.22c0.14,4.07-3.05,7.49-7.12,7.63
	c-4.07,0.14-7.49-3.05-7.63-7.12c-0.01-0.17-0.01-0.34,0-0.5v-15.21c-3.38-1.74-5.5-5.21-5.52-9.01v-13.7
	c0.02-5.58,4.55-10.09,10.12-10.11h5.52C844.05,512.23,848.57,516.75,848.59,522.33z"/>
<circle class="st2" cx="835.71" cy="595.88" r="8.09"/>
<path class="st2" d="M848.59,615.83v13.7c-0.01,3.79-2.13,7.26-5.51,9v15.22c0.14,4.07-3.05,7.49-7.12,7.63s-7.49-3.05-7.63-7.12
	c-0.01-0.17-0.01-0.34,0-0.5v-15.21c-3.38-1.74-5.5-5.21-5.52-9.01v-13.7c0.02-5.58,4.55-10.09,10.12-10.11h5.52
	C844.05,605.73,848.57,610.25,848.59,615.83z"/>
<circle class="st2" cx="835.71" cy="689.38" r="8.09"/>
<path class="st2" d="M848.59,709.33v13.7c-0.01,3.79-2.13,7.26-5.51,9v15.22c0.14,4.07-3.05,7.49-7.12,7.63
	c-4.07,0.14-7.49-3.05-7.63-7.12c-0.01-0.17-0.01-0.34,0-0.5v-15.21c-3.38-1.74-5.5-5.21-5.52-9.01v-13.7
	c0.02-5.58,4.55-10.09,10.12-10.11h5.52C844.05,699.24,848.57,703.75,848.59,709.33z"/>
<circle class="st2" cx="835.71" cy="782.88" r="8.09"/>
<path class="st2" d="M848.59,802.83v13.7c-0.01,3.79-2.13,7.26-5.51,9v15.22c0.14,4.07-3.05,7.49-7.12,7.63s-7.49-3.05-7.63-7.12
	c-0.01-0.17-0.01-0.34,0-0.5v-15.21c-3.38-1.74-5.5-5.21-5.52-9.01v-13.7c0.02-5.58,4.55-10.09,10.12-10.11h5.52
	C844.05,792.74,848.57,797.25,848.59,802.83z"/>
<circle class="st2" cx="835.71" cy="876.38" r="8.09"/>
<path class="st2" d="M848.59,896.33v13.7c-0.01,3.79-2.13,7.26-5.51,9v15.22c0.14,4.07-3.05,7.49-7.12,7.63
	c-4.07,0.14-7.49-3.05-7.63-7.12c-0.01-0.17-0.01-0.34,0-0.5v-15.21c-3.38-1.74-5.5-5.21-5.52-9.01v-13.7
	c0.02-5.58,4.55-10.09,10.12-10.11h5.52C844.05,886.24,848.57,890.75,848.59,896.33z"/>
<circle class="st1" cx="932.71" cy="34.88" r="8.09"/>
<path class="st1" d="M945.59,54.82v13.7c-0.01,3.79-2.13,7.26-5.51,9v15.22c0.14,4.07-3.05,7.49-7.12,7.63s-7.49-3.05-7.63-7.12
	c-0.01-0.17-0.01-0.34,0-0.5V77.53c-3.38-1.74-5.5-5.21-5.52-9.01v-13.7c0.02-5.58,4.55-10.09,10.12-10.11h5.52
	C941.05,44.73,945.57,49.24,945.59,54.82z"/>
<circle class="st1" cx="932.71" cy="128.38" r="8.09"/>
<path class="st1" d="M945.59,148.32v13.7c-0.01,3.79-2.13,7.26-5.51,9v15.22c0.14,4.07-3.05,7.49-7.12,7.63
	c-4.07,0.14-7.49-3.05-7.63-7.12c-0.01-0.17-0.01-0.34,0-0.5v-15.21c-3.38-1.74-5.5-5.21-5.52-9.01v-13.7
	c0.02-5.58,4.55-10.09,10.12-10.11h5.52C941.05,138.23,945.57,142.74,945.59,148.32z"/>
<circle class="st1" cx="932.71" cy="221.88" r="8.09"/>
<path class="st1" d="M945.59,241.82v13.7c-0.01,3.79-2.13,7.26-5.51,9v15.22c0.14,4.07-3.05,7.49-7.12,7.63
	c-4.07,0.14-7.49-3.05-7.63-7.12c-0.01-0.17-0.01-0.34,0-0.5v-15.21c-3.38-1.74-5.5-5.21-5.52-9.01v-13.7
	c0.02-5.58,4.55-10.09,10.12-10.11h5.52C941.05,231.73,945.57,236.25,945.59,241.82z"/>
<circle class="st1" cx="932.71" cy="315.38" r="8.09"/>
<path class="st1" d="M945.59,335.32v13.7c-0.01,3.79-2.13,7.26-5.51,9v15.22c0.14,4.07-3.05,7.49-7.12,7.63
	c-4.07,0.14-7.49-3.05-7.63-7.12c-0.01-0.17-0.01-0.34,0-0.5v-15.21c-3.38-1.74-5.5-5.21-5.52-9.01v-13.7
	c0.02-5.58,4.55-10.09,10.12-10.11h5.52C941.05,325.23,945.57,329.75,945.59,335.32z"/>
<circle class="st2" cx="932.71" cy="408.88" r="8.09"/>
<path class="st2" d="M945.59,428.83v13.7c-0.01,3.79-2.13,7.26-5.51,9v15.22c0.14,4.07-3.05,7.49-7.12,7.63
	c-4.07,0.14-7.49-3.05-7.63-7.12c-0.01-0.17-0.01-0.34,0-0.5v-15.21c-3.38-1.74-5.5-5.21-5.52-9.01v-13.7
	c0.02-5.58,4.55-10.09,10.12-10.11h5.52C941.05,418.73,945.57,423.25,945.59,428.83z"/>
<circle class="st2" cx="932.71" cy="502.38" r="8.09"/>
<path class="st2" d="M945.59,522.33v13.7c-0.01,3.79-2.13,7.26-5.51,9v15.22c0.14,4.07-3.05,7.49-7.12,7.63
	c-4.07,0.14-7.49-3.05-7.63-7.12c-0.01-0.17-0.01-0.34,0-0.5v-15.21c-3.38-1.74-5.5-5.21-5.52-9.01v-13.7
	c0.02-5.58,4.55-10.09,10.12-10.11h5.52C941.05,512.23,945.57,516.75,945.59,522.33z"/>
<circle class="st2" cx="932.71" cy="595.88" r="8.09"/>
<path class="st2" d="M945.59,615.83v13.7c-0.01,3.79-2.13,7.26-5.51,9v15.22c0.14,4.07-3.05,7.49-7.12,7.63s-7.49-3.05-7.63-7.12
	c-0.01-0.17-0.01-0.34,0-0.5v-15.21c-3.38-1.74-5.5-5.21-5.52-9.01v-13.7c0.02-5.58,4.55-10.09,10.12-10.11h5.52
	C941.05,605.73,945.57,610.25,945.59,615.83z"/>
<circle class="st2" cx="932.71" cy="689.38" r="8.09"/>
<path class="st2" d="M945.59,709.33v13.7c-0.01,3.79-2.13,7.26-5.51,9v15.22c0.14,4.07-3.05,7.49-7.12,7.63
	c-4.07,0.14-7.49-3.05-7.63-7.12c-0.01-0.17-0.01-0.34,0-0.5v-15.21c-3.38-1.74-5.5-5.21-5.52-9.01v-13.7
	c0.02-5.58,4.55-10.09,10.12-10.11h5.52C941.05,699.24,945.57,703.75,945.59,709.33z"/>
<circle class="st2" cx="932.71" cy="782.88" r="8.09"/>
<path class="st2" d="M945.59,802.83v13.7c-0.01,3.79-2.13,7.26-5.51,9v15.22c0.14,4.07-3.05,7.49-7.12,7.63s-7.49-3.05-7.63-7.12
	c-0.01-0.17-0.01-0.34,0-0.5v-15.21c-3.38-1.74-5.5-5.21-5.52-9.01v-13.7c0.02-5.58,4.55-10.09,10.12-10.11h5.52
	C941.05,792.74,945.57,797.25,945.59,802.83z"/>
<circle class="st2" cx="932.71" cy="876.38" r="8.09"/>
<path class="st2" d="M945.59,896.33v13.7c-0.01,3.79-2.13,7.26-5.51,9v15.22c0.14,4.07-3.05,7.49-7.12,7.63
	c-4.07,0.14-7.49-3.05-7.63-7.12c-0.01-0.17-0.01-0.34,0-0.5v-15.21c-3.38-1.74-5.5-5.21-5.52-9.01v-13.7
	c0.02-5.58,4.55-10.09,10.12-10.11h5.52C941.05,886.24,945.57,890.75,945.59,896.33z"/>
<rect x="957.5" y="334" class="st0" width="726" height="359"/>
<g>
	<g>
		<path class="st3" d="M1202.2,409.25c-2.03,0-3.89-0.35-5.59-1.06c-1.7-0.7-3.08-1.78-4.14-3.22s-1.62-3.27-1.7-5.49h5.22
			c0,1.13,0.28,2.05,0.83,2.77c0.55,0.72,1.3,1.26,2.24,1.61c0.94,0.35,1.97,0.53,3.09,0.53c1.08,0,2.04-0.14,2.89-0.43
			c0.85-0.28,1.51-0.69,2-1.23c0.49-0.53,0.73-1.17,0.73-1.9c0-0.97-0.3-1.74-0.89-2.29c-0.59-0.55-1.54-1.06-2.85-1.53l-5.76-2.29
			c-2.25-0.89-3.98-1.91-5.18-3.08c-1.2-1.17-1.8-2.78-1.8-4.84c0-2.37,0.94-4.29,2.81-5.76c1.88-1.47,4.49-2.21,7.85-2.21
			c3.27,0,5.8,0.76,7.58,2.28c1.78,1.52,2.8,3.64,3.04,6.36h-5.22c-0.2-1.15-0.72-2.08-1.58-2.78c-0.86-0.7-2.13-1.05-3.83-1.05
			c-1.5,0-2.69,0.31-3.55,0.93c-0.87,0.62-1.31,1.41-1.31,2.35c0,0.81,0.27,1.45,0.82,1.92c0.55,0.47,1.4,0.93,2.55,1.36l6.39,2.47
			c2.16,0.84,3.82,1.9,4.97,3.17c1.15,1.27,1.73,2.87,1.73,4.79c0,1.75-0.44,3.27-1.33,4.56c-0.88,1.28-2.17,2.28-3.87,2.98
			C1206.69,408.9,1204.63,409.25,1202.2,409.25z"/>
		<path class="st3" d="M1228.86,409.25c-1.86,0-3.56-0.48-5.11-1.44c-1.54-0.96-2.78-2.31-3.71-4.04s-1.39-3.76-1.39-6.09
			c0-2.4,0.46-4.46,1.38-6.19c0.92-1.72,2.16-3.04,3.7-3.96c1.54-0.91,3.25-1.37,5.13-1.37c1.74,0,3.24,0.35,4.51,1.05
			c1.27,0.7,2.29,1.64,3.06,2.83s1.29,2.54,1.56,4.04c0.27,1.5,0.29,3.05,0.04,4.64h-15.17v-2.88h11.41l-1.04,0.67
			c0.04-0.71,0.01-1.42-0.1-2.14c-0.11-0.72-0.33-1.38-0.64-1.98c-0.31-0.6-0.76-1.08-1.34-1.45c-0.58-0.37-1.32-0.55-2.22-0.55
			c-1.08,0-2,0.27-2.75,0.81s-1.32,1.28-1.71,2.21c-0.39,0.93-0.58,1.98-0.58,3.15v2.12c0,1.23,0.18,2.32,0.55,3.26
			c0.37,0.95,0.91,1.69,1.64,2.23c0.73,0.54,1.65,0.81,2.76,0.81c1.04,0,1.9-0.24,2.61-0.72c0.7-0.48,1.15-1.2,1.35-2.16h5.35
			c-0.22,1.41-0.75,2.65-1.59,3.72c-0.83,1.07-1.91,1.91-3.23,2.52C1232.04,408.94,1230.54,409.25,1228.86,409.25z"/>
		<path class="st3" d="M1252.84,409.25c-1.83,0-3.53-0.48-5.1-1.43c-1.57-0.95-2.83-2.29-3.8-4.03s-1.45-3.77-1.45-6.11
			c0-2.48,0.48-4.57,1.45-6.29c0.97-1.72,2.23-3.02,3.8-3.9c1.57-0.88,3.27-1.33,5.1-1.33c1.42,0,2.68,0.23,3.77,0.69
			c1.09,0.46,2.01,1.07,2.78,1.84c0.76,0.77,1.36,1.63,1.8,2.58c0.43,0.95,0.71,1.9,0.83,2.86l-5.35,0.14
			c-0.24-0.96-0.69-1.75-1.34-2.39c-0.65-0.63-1.5-0.94-2.53-0.94c-0.85,0-1.66,0.24-2.41,0.71c-0.75,0.47-1.36,1.2-1.83,2.19
			c-0.47,0.99-0.71,2.27-0.71,3.85c0,1.5,0.22,2.75,0.66,3.75c0.44,1,1.04,1.75,1.79,2.25c0.75,0.5,1.58,0.75,2.5,0.75
			c1.35,0,2.33-0.33,2.95-0.98c0.62-0.65,0.92-1.53,0.92-2.62h5.35c0,1.55-0.35,2.96-1.06,4.23c-0.71,1.28-1.74,2.29-3.11,3.05
			S1254.83,409.25,1252.84,409.25z"/>
		<path class="st3" d="M1267.94,386.7h5.31v13.41c0,1.43,0.35,2.49,1.06,3.21c0.71,0.71,1.67,1.07,2.9,1.07
			c1.05,0,2.01-0.27,2.87-0.82c0.86-0.55,1.55-1.36,2.07-2.43c0.52-1.07,0.78-2.4,0.78-3.99h1.44c0,2.67-0.35,4.88-1.04,6.64
			c-0.69,1.75-1.64,3.07-2.86,3.94c-1.21,0.87-2.62,1.3-4.21,1.3c-1.56,0-2.97-0.28-4.23-0.83c-1.26-0.55-2.26-1.45-2.99-2.68
			c-0.74-1.23-1.1-2.85-1.1-4.86V386.7z M1282.93,386.7h5.31v21.92h-5.31V386.7z"/>
		<path class="st3" d="M1296.61,408.62v-21.83h4.64l0.67,4.32v17.5H1296.61z M1311.59,408.62v-12.78c0-1.62-0.39-2.84-1.17-3.67
			c-0.78-0.83-1.8-1.24-3.06-1.24c-1.07,0-2.01,0.29-2.82,0.88s-1.46,1.47-1.92,2.64s-0.7,2.64-0.7,4.4h-1.75
			c0-2.83,0.35-5.19,1.06-7.08c0.7-1.88,1.7-3.29,2.99-4.22c1.29-0.93,2.8-1.4,4.54-1.4c1.8,0,3.3,0.4,4.51,1.2
			c1.21,0.8,2.11,1.93,2.72,3.39c0.61,1.46,0.91,3.15,0.91,5.09v12.78H1311.59z"/>
		<path class="st3" d="M1332.7,409.25c-1.83,0-3.5-0.48-5.01-1.45c-1.51-0.97-2.71-2.32-3.6-4.07s-1.34-3.79-1.34-6.13
			c0-2.31,0.43-4.32,1.29-6.04c0.86-1.72,2.02-3.04,3.46-3.98c1.45-0.94,3.06-1.41,4.83-1.41c1.62,0,3.02,0.39,4.21,1.16
			c1.18,0.77,2.09,1.92,2.72,3.43c0.63,1.52,0.95,3.38,0.95,5.58h-1.67c0-1.14-0.23-2.11-0.7-2.91c-0.46-0.8-1.08-1.42-1.83-1.85
			c-0.76-0.43-1.58-0.64-2.46-0.64c-1.07,0-2.01,0.28-2.82,0.83c-0.82,0.56-1.46,1.33-1.92,2.33c-0.46,1-0.7,2.16-0.7,3.5
			c0,1.38,0.23,2.58,0.7,3.6s1.11,1.81,1.92,2.38c0.82,0.57,1.74,0.85,2.78,0.85c0.84,0,1.65-0.23,2.42-0.69s1.4-1.1,1.89-1.92
			c0.49-0.82,0.73-1.79,0.73-2.88h1.67c0,2.29-0.34,4.2-1.02,5.73s-1.59,2.67-2.73,3.43
			C1335.31,408.87,1334.06,409.25,1332.7,409.25z M1339.54,408.62l-0.99-5.4v-25.47h5.36v30.87H1339.54z"/>
		<path class="st3" d="M1359.02,409.25c-1.88,0-3.44-0.33-4.69-0.98c-1.25-0.65-2.19-1.51-2.82-2.58s-0.95-2.22-0.95-3.47
			c0-1.38,0.36-2.54,1.09-3.48s1.76-1.64,3.09-2.12c1.33-0.47,2.91-0.71,4.72-0.71c1.18,0,2.31,0.09,3.36,0.27
			c1.06,0.18,2.11,0.42,3.16,0.72v3.1c-0.83-0.27-1.73-0.48-2.7-0.63c-0.98-0.15-1.89-0.23-2.75-0.23c-1.26,0-2.29,0.23-3.1,0.7
			c-0.81,0.46-1.22,1.25-1.22,2.36c0,0.81,0.33,1.51,0.99,2.09s1.71,0.88,3.15,0.88c1.09,0,2.02-0.24,2.79-0.72
			c0.76-0.48,1.35-1.08,1.74-1.8c0.4-0.72,0.6-1.44,0.6-2.16h1.26c0,1.58-0.29,3.03-0.88,4.35c-0.58,1.33-1.45,2.39-2.6,3.18
			C1362.14,408.85,1360.72,409.25,1359.02,409.25z M1366.18,408.62l-0.67-5.31v-8.77c0-1.53-0.31-2.66-0.93-3.4
			c-0.62-0.73-1.68-1.1-3.16-1.1c-0.86,0-1.6,0.13-2.23,0.38c-0.63,0.26-1.11,0.62-1.45,1.09c-0.34,0.47-0.51,1.05-0.51,1.72h-5.8
			c0-1.65,0.4-3,1.19-4.04s1.94-1.81,3.43-2.29c1.49-0.49,3.28-0.73,5.37-0.73c1.89,0,3.54,0.3,4.95,0.91
			c1.41,0.61,2.5,1.54,3.29,2.8c0.78,1.26,1.17,2.87,1.17,4.84v13.9H1366.18z"/>
		<path class="st3" d="M1378.59,408.62V386.7h5.31v21.92H1378.59z M1382.6,399.03c0-2.86,0.32-5.23,0.97-7.11
			c0.65-1.88,1.51-3.27,2.6-4.17c1.09-0.91,2.3-1.36,3.63-1.36c0.36,0,0.7,0.02,1.02,0.07c0.32,0.04,0.64,0.11,0.96,0.2l-0.09,5.31
			c-0.39-0.09-0.81-0.17-1.26-0.23c-0.45-0.06-0.85-0.09-1.21-0.09c-1.17,0-2.15,0.28-2.94,0.84c-0.79,0.56-1.38,1.39-1.78,2.49
			c-0.4,1.09-0.6,2.44-0.6,4.05H1382.6z"/>
		<path class="st3" d="M1399.36,382.79c-1.04,0-1.84-0.27-2.42-0.82c-0.58-0.55-0.87-1.31-0.87-2.28c0-0.94,0.29-1.7,0.87-2.26
			s1.38-0.84,2.42-0.84c1,0,1.8,0.28,2.4,0.84c0.59,0.56,0.89,1.32,0.89,2.26c0,0.98-0.3,1.74-0.89,2.28
			C1401.17,382.51,1400.37,382.79,1399.36,382.79z M1396.71,408.62V386.7h5.31v21.92H1396.71z"/>
		<path class="st3" d="M1417.77,409.25c-1.88,0-3.44-0.33-4.69-0.98c-1.25-0.65-2.19-1.51-2.82-2.58s-0.95-2.22-0.95-3.47
			c0-1.38,0.36-2.54,1.09-3.48s1.76-1.64,3.09-2.12c1.33-0.47,2.91-0.71,4.72-0.71c1.18,0,2.31,0.09,3.36,0.27
			c1.06,0.18,2.11,0.42,3.16,0.72v3.1c-0.83-0.27-1.73-0.48-2.7-0.63c-0.98-0.15-1.89-0.23-2.75-0.23c-1.26,0-2.29,0.23-3.1,0.7
			c-0.81,0.46-1.22,1.25-1.22,2.36c0,0.81,0.33,1.51,0.99,2.09s1.71,0.88,3.15,0.88c1.09,0,2.02-0.24,2.79-0.72
			c0.76-0.48,1.35-1.08,1.74-1.8c0.4-0.72,0.6-1.44,0.6-2.16h1.26c0,1.58-0.29,3.03-0.88,4.35c-0.58,1.33-1.45,2.39-2.6,3.18
			C1420.88,408.85,1419.46,409.25,1417.77,409.25z M1424.92,408.62l-0.67-5.31v-8.77c0-1.53-0.31-2.66-0.93-3.4
			c-0.62-0.73-1.68-1.1-3.16-1.1c-0.86,0-1.6,0.13-2.23,0.38c-0.63,0.26-1.11,0.62-1.45,1.09c-0.34,0.47-0.51,1.05-0.51,1.72h-5.8
			c0-1.65,0.4-3,1.19-4.04s1.94-1.81,3.43-2.29c1.49-0.49,3.28-0.73,5.37-0.73c1.89,0,3.54,0.3,4.95,0.91
			c1.41,0.61,2.5,1.54,3.29,2.8c0.78,1.26,1.17,2.87,1.17,4.84v13.9H1424.92z"/>
	</g>
</g>
<path class="st2" d="M1099.44,523.81l20.45-20.45v14.9c0,1,0.41,1.91,1.06,2.56s1.56,1.06,2.56,1.06c2,0,3.62-1.62,3.62-3.62v-23.64
	c0-0.47-0.09-0.95-0.28-1.39c-0.01-0.02-0.02-0.03-0.03-0.05c-0.18-0.4-0.42-0.78-0.75-1.12c-0.33-0.33-0.71-0.57-1.12-0.75
	c-0.02-0.01-0.03-0.02-0.05-0.03c-0.45-0.18-0.92-0.28-1.4-0.28h-23.64c-2,0-3.62,1.62-3.62,3.62c0,1,0.41,1.91,1.06,2.56
	c0.65,0.66,1.56,1.06,2.56,1.06l14.9,0l-20.45,20.45c-12.16-9.61-29.9-8.83-41.12,2.39c-12.09,12.09-12.09,31.76,0,43.85
	c12.09,12.09,31.76,12.09,43.85,0C1108.26,553.71,1109.05,535.97,1099.44,523.81z M1058.31,559.82c-9.27-9.27-9.27-24.34,0-33.61
	c9.26-9.26,24.34-9.26,33.61,0c9.26,9.27,9.26,24.34,0,33.61C1082.65,569.08,1067.58,569.08,1058.31,559.82z"/>
<path class="st1" d="M1417.5,521.67c0-16.54-13.46-30-30-30c-16.54,0-30,13.46-30,30c0,15.53,11.86,28.34,27,29.85V568h-10.75
	c-1.66,0-3,1.34-3,3s1.34,3,3,3h10.75v10.33c0,1.66,1.34,3,3,3s3-1.34,3-3V574h11.25c1.66,0,3-1.34,3-3s-1.34-3-3-3h-11.25v-16.48
	C1405.64,550.01,1417.5,537.2,1417.5,521.67z M1387.5,545.67c-13.23,0-24-10.77-24-24s10.77-24,24-24c13.23,0,24,10.77,24,24
	S1400.73,545.67,1387.5,545.67z"/>
<g>
	<g>
		<path class="st3" d="M1472.5,511.97h7.98v28.77h7.91v7.07h-7.91v10.08h-8.19v-10.08h-23.03v-6.23L1472.5,511.97z M1472.71,524.22
			l-13.65,17.36h13.65V524.22z"/>
		<path class="st3" d="M1493.57,557.89v-7.77c0-2.54,0.38-4.7,1.16-6.48c0.77-1.77,1.92-3.27,3.45-4.5
			c1.53-1.22,3.45-2.28,5.76-3.17l9.31-3.57c2.03-0.82,3.53-1.82,4.5-3.01c0.97-1.19,1.45-2.66,1.45-4.41s-0.64-3.23-1.91-4.43
			c-1.27-1.2-3.09-1.8-5.44-1.8c-2.26,0-4.16,0.57-5.69,1.7c-1.53,1.13-2.41,2.78-2.64,4.95h-9.17c0.07-3.1,0.88-5.68,2.42-7.73
			s3.61-3.59,6.2-4.6c2.59-1.02,5.51-1.52,8.75-1.52c3.06,0,5.82,0.58,8.29,1.73c2.47,1.15,4.44,2.77,5.9,4.83s2.19,4.47,2.19,7.23
			c0,2.33-0.43,4.39-1.28,6.16c-0.85,1.77-2.14,3.33-3.87,4.66c-1.73,1.33-3.91,2.51-6.55,3.53l-9.38,3.64
			c-1.82,0.7-3.14,1.48-3.96,2.33c-0.82,0.85-1.22,1.97-1.22,3.34v1.33h25.97v7.56H1493.57z"/>
	</g>
</g>
<g>
	<g>
		<path class="st3" d="M1175.26,558.87c-3.27,0-6.15-0.57-8.65-1.7c-2.5-1.13-4.46-2.78-5.9-4.95c-1.43-2.17-2.19-4.81-2.26-7.91
			h8.4c0,2.33,0.81,4.08,2.42,5.25c1.61,1.17,3.61,1.75,5.99,1.75c2.54,0,4.63-0.82,6.25-2.47s2.43-3.67,2.43-6.07
			c0-4.67-3.13-7-9.38-7h-13.86l2.1-23.31h27.23v7.56h-20.58l1.61-2.38l-1.33,13.51l-0.7-0.77c1.12-0.26,2.45-0.45,3.99-0.58
			c1.54-0.13,2.87-0.19,3.99-0.19c4.69,0,8.43,1.14,11.22,3.41c2.79,2.28,4.18,5.52,4.18,9.75c0,3.01-0.71,5.73-2.14,8.17
			c-1.42,2.44-3.42,4.37-5.98,5.79C1181.72,558.16,1178.71,558.87,1175.26,558.87z"/>
		<path class="st3" d="M1217.82,558.87c-3.9,0-7.28-0.58-10.15-1.73c-2.87-1.16-5.09-2.73-6.67-4.73c-1.58-2-2.36-4.25-2.36-6.77
			c0-2.15,0.57-3.98,1.71-5.5c1.14-1.52,2.71-2.68,4.69-3.5c1.98-0.82,4.21-1.23,6.68-1.23c0.98,0,1.89,0.08,2.73,0.25
			c0.84,0.16,1.82,0.39,2.94,0.67v2.03c-1.98,0-3.75,0.29-5.29,0.88c-1.54,0.58-2.75,1.36-3.62,2.34s-1.31,2.05-1.31,3.22
			c0,1.35,0.48,2.51,1.44,3.48c0.96,0.97,2.24,1.71,3.85,2.24c1.61,0.53,3.4,0.79,5.36,0.79c3.64,0,6.33-0.47,8.08-1.42
			s2.63-2.15,2.63-3.62c0-1.17-0.43-2.16-1.28-2.99c-0.85-0.83-2.04-1.53-3.55-2.12l-12.95-4.97c-1.56-0.61-3.16-1.45-4.78-2.52
			c-1.62-1.07-2.99-2.41-4.11-4.02c-1.12-1.61-1.68-3.51-1.68-5.71c0-2.52,0.69-4.71,2.08-6.56c1.39-1.85,3.39-3.29,6.02-4.3
			c2.63-1.02,5.8-1.52,9.54-1.52c3.31,0,6.3,0.56,8.96,1.68c2.66,1.12,4.77,2.66,6.33,4.62c1.56,1.96,2.34,4.2,2.34,6.72
			c0,1.75-0.48,3.37-1.43,4.86c-0.96,1.49-2.35,2.7-4.17,3.62c-1.82,0.92-4.01,1.38-6.58,1.38c-0.89,0-1.7-0.08-2.45-0.23
			c-0.75-0.15-1.61-0.38-2.59-0.68v-2.38c1.54,0,2.97-0.25,4.29-0.75c1.32-0.5,2.38-1.2,3.19-2.1c0.8-0.9,1.21-1.95,1.21-3.17
			c0-1.24-0.38-2.31-1.16-3.22c-0.77-0.91-1.84-1.62-3.2-2.12c-1.37-0.5-2.95-0.75-4.74-0.75c-1.7,0-3.24,0.23-4.62,0.68
			c-1.38,0.46-2.47,1.08-3.27,1.87c-0.81,0.79-1.21,1.69-1.21,2.69c0,1.14,0.4,2.08,1.19,2.82c0.79,0.74,1.94,1.41,3.43,2.01
			l13.37,5.18c3.34,1.28,5.9,2.77,7.68,4.46c1.79,1.69,2.68,4.05,2.68,7.09c0,2.52-0.75,4.76-2.26,6.72s-3.69,3.5-6.56,4.62
			C1225.38,558.31,1221.9,558.87,1217.82,558.87z"/>
	</g>
</g>
</svg>
