<?xml version="1.0" encoding="utf-8"?>
<!-- Generator: Adobe Illustrator 24.0.2, SVG Export Plug-In . SVG Version: 6.00 Build 0)  -->
<svg version="1.1" id="Capa_1" xmlns="http://www.w3.org/2000/svg" xmlns:xlink="http://www.w3.org/1999/xlink" x="0px" y="0px"
	 viewBox="0 0 874 1043" style="enable-background:new 0 0 874 1043;" xml:space="preserve">
<style type="text/css">
	.st0{fill:#252525;}
	.st1{fill:#49ADA4;}
	.st2{fill:#B3E6E0;}
	.st3{fill:#FFFFFF;}
</style>
<rect x="21" y="960" class="st0" width="825" height="72"/>
<g>
	<circle class="st1" cx="61.18" cy="43.38" r="8.09"/>
	<path class="st1" d="M74.06,63.32v13.7c-0.01,3.79-2.13,7.26-5.51,9v15.22c0.14,4.07-3.05,7.49-7.12,7.63s-7.49-3.05-7.63-7.12
		c-0.01-0.17-0.01-0.34,0-0.5V86.03c-3.38-1.74-5.5-5.21-5.52-9.01v-13.7c0.02-5.58,4.55-10.09,10.12-10.11h5.52
		C69.52,53.23,74.04,57.74,74.06,63.32z"/>
	<circle class="st1" cx="142.4" cy="43.38" r="8.09"/>
	<path class="st1" d="M155.29,63.32v13.7c-0.01,3.79-2.13,7.26-5.51,9v15.22c0.14,4.07-3.05,7.49-7.12,7.63
		c-4.07,0.14-7.49-3.05-7.63-7.12c-0.01-0.17-0.01-0.34,0-0.5V86.03c-3.38-1.74-5.5-5.21-5.52-9.01v-13.7
		c0.02-5.58,4.55-10.09,10.12-10.11h5.52C150.74,53.23,155.27,57.74,155.29,63.32z"/>
	<circle class="st1" cx="223.63" cy="43.38" r="8.09"/>
	<path class="st1" d="M236.51,63.32v13.7c-0.01,3.79-2.13,7.26-5.51,9v15.22c0.14,4.07-3.05,7.49-7.12,7.63
		c-4.07,0.14-7.49-3.05-7.63-7.12c-0.01-0.17-0.01-0.34,0-0.5V86.03c-3.38-1.74-5.5-5.21-5.52-9.01v-13.7
		c0.02-5.58,4.55-10.09,10.12-10.11h5.52C231.97,53.23,236.49,57.74,236.51,63.32z"/>
	<circle class="st1" cx="304.85" cy="43.38" r="8.09"/>
	<path class="st1" d="M317.74,63.32v13.7c-0.01,3.79-2.13,7.26-5.51,9v15.22c0.14,4.07-3.05,7.49-7.12,7.63s-7.49-3.05-7.63-7.12
		c-0.01-0.17-0.01-0.34,0-0.5V86.03c-3.38-1.74-5.5-5.21-5.52-9.01v-13.7c0.02-5.58,4.55-10.09,10.12-10.11h5.52
		C313.2,53.23,317.72,57.74,317.74,63.32z"/>
	<circle class="st1" cx="386.08" cy="43.38" r="8.09"/>
	<path class="st1" d="M398.97,63.32v13.7c-0.01,3.79-2.13,7.26-5.51,9v15.22c0.14,4.07-3.05,7.49-7.12,7.63
		c-4.07,0.14-7.49-3.05-7.63-7.12c-0.01-0.17-0.01-0.34,0-0.5V86.03c-3.38-1.74-5.5-5.21-5.52-9.01v-13.7
		c0.02-5.58,4.55-10.09,10.12-10.11h5.52C394.42,53.23,398.94,57.74,398.97,63.32z"/>
	<circle class="st1" cx="467.31" cy="43.38" r="8.09"/>
	<path class="st1" d="M480.19,63.32v13.7c-0.01,3.79-2.13,7.26-5.51,9v15.22c0.14,4.07-3.05,7.49-7.12,7.63
		c-4.07,0.14-7.49-3.05-7.63-7.12c-0.01-0.17-0.01-0.34,0-0.5V86.03c-3.38-1.74-5.5-5.21-5.52-9.01v-13.7
		c0.02-5.58,4.55-10.09,10.12-10.11h5.52C475.65,53.23,480.17,57.74,480.19,63.32z"/>
	<circle class="st1" cx="548.53" cy="43.38" r="8.09"/>
	<path class="st1" d="M561.42,63.32v13.7c-0.01,3.79-2.13,7.26-5.51,9v15.22c0.14,4.07-3.05,7.49-7.12,7.63s-7.49-3.05-7.63-7.12
		c-0.01-0.17-0.01-0.34,0-0.5V86.03c-3.38-1.74-5.5-5.21-5.52-9.01v-13.7c0.02-5.58,4.55-10.09,10.12-10.11h5.52
		C556.87,53.23,561.39,57.74,561.42,63.32z"/>
	<circle class="st1" cx="629.76" cy="43.38" r="8.09"/>
	<path class="st1" d="M642.64,63.32v13.7c-0.01,3.79-2.13,7.26-5.51,9v15.22c0.14,4.07-3.05,7.49-7.12,7.63s-7.49-3.05-7.63-7.12
		c-0.01-0.17-0.01-0.34,0-0.5V86.03c-3.38-1.74-5.5-5.21-5.52-9.01v-13.7c0.02-5.58,4.55-10.09,10.12-10.11h5.52
		C638.1,53.23,642.62,57.74,642.64,63.32z"/>
	<circle class="st1" cx="710.98" cy="43.38" r="8.09"/>
	<path class="st1" d="M723.87,63.32v13.7c-0.01,3.79-2.13,7.26-5.51,9v15.22c0.14,4.07-3.05,7.49-7.12,7.63s-7.49-3.05-7.63-7.12
		c-0.01-0.17-0.01-0.34,0-0.5V86.03c-3.38-1.74-5.5-5.21-5.52-9.01v-13.7c0.02-5.58,4.55-10.09,10.12-10.11h5.52
		C719.32,53.23,723.85,57.74,723.87,63.32z"/>
	<circle class="st1" cx="792.21" cy="43.38" r="8.09"/>
	<path class="st1" d="M805.1,63.32v13.7c-0.01,3.79-2.13,7.26-5.51,9v15.22c0.14,4.07-3.05,7.49-7.12,7.63s-7.49-3.05-7.63-7.12
		c-0.01-0.17-0.01-0.34,0-0.5V86.03c-3.38-1.74-5.5-5.21-5.52-9.01v-13.7c0.02-5.58,4.55-10.09,10.12-10.11h5.52
		C800.55,53.23,805.07,57.74,805.1,63.32z"/>
	<circle class="st1" cx="61.18" cy="136.88" r="8.09"/>
	<path class="st1" d="M74.06,156.82v13.7c-0.01,3.79-2.13,7.26-5.51,9v15.22c0.14,4.07-3.05,7.49-7.12,7.63
		c-4.07,0.14-7.49-3.05-7.63-7.12c-0.01-0.17-0.01-0.34,0-0.5v-15.21c-3.38-1.74-5.5-5.21-5.52-9.01v-13.7
		c0.02-5.58,4.55-10.09,10.12-10.11h5.52C69.52,146.73,74.04,151.24,74.06,156.82z"/>
	<circle class="st1" cx="142.4" cy="136.88" r="8.09"/>
	<path class="st1" d="M155.29,156.82v13.7c-0.01,3.79-2.13,7.26-5.51,9v15.22c0.14,4.07-3.05,7.49-7.12,7.63
		c-4.07,0.14-7.49-3.05-7.63-7.12c-0.01-0.17-0.01-0.34,0-0.5v-15.21c-3.38-1.74-5.5-5.21-5.52-9.01v-13.7
		c0.02-5.58,4.55-10.09,10.12-10.11h5.52C150.74,146.73,155.27,151.24,155.29,156.82z"/>
	<circle class="st1" cx="223.63" cy="136.88" r="8.09"/>
	<path class="st1" d="M236.51,156.82v13.7c-0.01,3.79-2.13,7.26-5.51,9v15.22c0.14,4.07-3.05,7.49-7.12,7.63
		c-4.07,0.14-7.49-3.05-7.63-7.12c-0.01-0.17-0.01-0.34,0-0.5v-15.21c-3.38-1.74-5.5-5.21-5.52-9.01v-13.7
		c0.02-5.58,4.55-10.09,10.12-10.11h5.52C231.97,146.73,236.49,151.24,236.51,156.82z"/>
	<circle class="st1" cx="304.85" cy="136.88" r="8.09"/>
	<path class="st1" d="M317.74,156.82v13.7c-0.01,3.79-2.13,7.26-5.51,9v15.22c0.14,4.07-3.05,7.49-7.12,7.63
		c-4.07,0.14-7.49-3.05-7.63-7.12c-0.01-0.17-0.01-0.34,0-0.5v-15.21c-3.38-1.74-5.5-5.21-5.52-9.01v-13.7
		c0.02-5.58,4.55-10.09,10.12-10.11h5.52C313.2,146.73,317.72,151.24,317.74,156.82z"/>
	<circle class="st1" cx="386.08" cy="136.88" r="8.09"/>
	<path class="st1" d="M398.97,156.82v13.7c-0.01,3.79-2.13,7.26-5.51,9v15.22c0.14,4.07-3.05,7.49-7.12,7.63
		c-4.07,0.14-7.49-3.05-7.63-7.12c-0.01-0.17-0.01-0.34,0-0.5v-15.21c-3.38-1.74-5.5-5.21-5.52-9.01v-13.7
		c0.02-5.58,4.55-10.09,10.12-10.11h5.52C394.42,146.73,398.94,151.24,398.97,156.82z"/>
	<circle class="st1" cx="467.31" cy="136.88" r="8.09"/>
	<path class="st1" d="M480.19,156.82v13.7c-0.01,3.79-2.13,7.26-5.51,9v15.22c0.14,4.07-3.05,7.49-7.12,7.63
		c-4.07,0.14-7.49-3.05-7.63-7.12c-0.01-0.17-0.01-0.34,0-0.5v-15.21c-3.38-1.74-5.5-5.21-5.52-9.01v-13.7
		c0.02-5.58,4.55-10.09,10.12-10.11h5.52C475.65,146.73,480.17,151.24,480.19,156.82z"/>
	<circle class="st1" cx="548.53" cy="136.88" r="8.09"/>
	<path class="st1" d="M561.42,156.82v13.7c-0.01,3.79-2.13,7.26-5.51,9v15.22c0.14,4.07-3.05,7.49-7.12,7.63
		c-4.07,0.14-7.49-3.05-7.63-7.12c-0.01-0.17-0.01-0.34,0-0.5v-15.21c-3.38-1.74-5.5-5.21-5.52-9.01v-13.7
		c0.02-5.58,4.55-10.09,10.12-10.11h5.52C556.87,146.73,561.39,151.24,561.42,156.82z"/>
	<circle class="st1" cx="629.76" cy="136.88" r="8.09"/>
	<path class="st1" d="M642.64,156.82v13.7c-0.01,3.79-2.13,7.26-5.51,9v15.22c0.14,4.07-3.05,7.49-7.12,7.63
		c-4.07,0.14-7.49-3.05-7.63-7.12c-0.01-0.17-0.01-0.34,0-0.5v-15.21c-3.38-1.74-5.5-5.21-5.52-9.01v-13.7
		c0.02-5.58,4.55-10.09,10.12-10.11h5.52C638.1,146.73,642.62,151.24,642.64,156.82z"/>
	<circle class="st1" cx="710.98" cy="136.88" r="8.09"/>
	<path class="st1" d="M723.87,156.82v13.7c-0.01,3.79-2.13,7.26-5.51,9v15.22c0.14,4.07-3.05,7.49-7.12,7.63
		c-4.07,0.14-7.49-3.05-7.63-7.12c-0.01-0.17-0.01-0.34,0-0.5v-15.21c-3.38-1.74-5.5-5.21-5.52-9.01v-13.7
		c0.02-5.58,4.55-10.09,10.12-10.11h5.52C719.32,146.73,723.85,151.24,723.87,156.82z"/>
	<circle class="st1" cx="792.21" cy="136.88" r="8.09"/>
	<path class="st1" d="M805.1,156.82v13.7c-0.01,3.79-2.13,7.26-5.51,9v15.22c0.14,4.07-3.05,7.49-7.12,7.63
		c-4.07,0.14-7.49-3.05-7.63-7.12c-0.01-0.17-0.01-0.34,0-0.5v-15.21c-3.38-1.74-5.5-5.21-5.52-9.01v-13.7
		c0.02-5.58,4.55-10.09,10.12-10.11h5.52C800.55,146.73,805.07,151.24,805.1,156.82z"/>
	<circle class="st1" cx="61.18" cy="230.38" r="8.09"/>
	<path class="st1" d="M74.06,250.32v13.7c-0.01,3.79-2.13,7.26-5.51,9v15.22c0.14,4.07-3.05,7.49-7.12,7.63
		c-4.07,0.14-7.49-3.05-7.63-7.12c-0.01-0.17-0.01-0.34,0-0.5v-15.21c-3.38-1.74-5.5-5.21-5.52-9.01v-13.7
		c0.02-5.58,4.55-10.09,10.12-10.11h5.52C69.52,240.23,74.04,244.75,74.06,250.32z"/>
	<circle class="st1" cx="142.4" cy="230.38" r="8.09"/>
	<path class="st1" d="M155.29,250.32v13.7c-0.01,3.79-2.13,7.26-5.51,9v15.22c0.14,4.07-3.05,7.49-7.12,7.63
		c-4.07,0.14-7.49-3.05-7.63-7.12c-0.01-0.17-0.01-0.34,0-0.5v-15.21c-3.38-1.74-5.5-5.21-5.52-9.01v-13.7
		c0.02-5.58,4.55-10.09,10.12-10.11h5.52C150.74,240.23,155.27,244.75,155.29,250.32z"/>
	<circle class="st1" cx="223.63" cy="230.38" r="8.09"/>
	<path class="st1" d="M236.51,250.32v13.7c-0.01,3.79-2.13,7.26-5.51,9v15.22c0.14,4.07-3.05,7.49-7.12,7.63
		c-4.07,0.14-7.49-3.05-7.63-7.12c-0.01-0.17-0.01-0.34,0-0.5v-15.21c-3.38-1.74-5.5-5.21-5.52-9.01v-13.7
		c0.02-5.58,4.55-10.09,10.12-10.11h5.52C231.97,240.23,236.49,244.75,236.51,250.32z"/>
	<circle class="st1" cx="304.85" cy="230.38" r="8.09"/>
	<path class="st1" d="M317.74,250.32v13.7c-0.01,3.79-2.13,7.26-5.51,9v15.22c0.14,4.07-3.05,7.49-7.12,7.63
		c-4.07,0.14-7.49-3.05-7.63-7.12c-0.01-0.17-0.01-0.34,0-0.5v-15.21c-3.38-1.74-5.5-5.21-5.52-9.01v-13.7
		c0.02-5.58,4.55-10.09,10.12-10.11h5.52C313.2,240.23,317.72,244.75,317.74,250.32z"/>
	<circle class="st1" cx="386.08" cy="230.38" r="8.09"/>
	<path class="st1" d="M398.97,250.32v13.7c-0.01,3.79-2.13,7.26-5.51,9v15.22c0.14,4.07-3.05,7.49-7.12,7.63
		c-4.07,0.14-7.49-3.05-7.63-7.12c-0.01-0.17-0.01-0.34,0-0.5v-15.21c-3.38-1.74-5.5-5.21-5.52-9.01v-13.7
		c0.02-5.58,4.55-10.09,10.12-10.11h5.52C394.42,240.23,398.94,244.75,398.97,250.32z"/>
	<circle class="st1" cx="467.31" cy="230.38" r="8.09"/>
	<path class="st1" d="M480.19,250.32v13.7c-0.01,3.79-2.13,7.26-5.51,9v15.22c0.14,4.07-3.05,7.49-7.12,7.63
		c-4.07,0.14-7.49-3.05-7.63-7.12c-0.01-0.17-0.01-0.34,0-0.5v-15.21c-3.38-1.74-5.5-5.21-5.52-9.01v-13.7
		c0.02-5.58,4.55-10.09,10.12-10.11h5.52C475.65,240.23,480.17,244.75,480.19,250.32z"/>
	<circle class="st1" cx="548.53" cy="230.38" r="8.09"/>
	<path class="st1" d="M561.42,250.32v13.7c-0.01,3.79-2.13,7.26-5.51,9v15.22c0.14,4.07-3.05,7.49-7.12,7.63
		c-4.07,0.14-7.49-3.05-7.63-7.12c-0.01-0.17-0.01-0.34,0-0.5v-15.21c-3.38-1.74-5.5-5.21-5.52-9.01v-13.7
		c0.02-5.58,4.55-10.09,10.12-10.11h5.52C556.87,240.23,561.39,244.75,561.42,250.32z"/>
	<circle class="st1" cx="629.76" cy="230.38" r="8.09"/>
	<path class="st1" d="M642.64,250.32v13.7c-0.01,3.79-2.13,7.26-5.51,9v15.22c0.14,4.07-3.05,7.49-7.12,7.63
		c-4.07,0.14-7.49-3.05-7.63-7.12c-0.01-0.17-0.01-0.34,0-0.5v-15.21c-3.38-1.74-5.5-5.21-5.52-9.01v-13.7
		c0.02-5.58,4.55-10.09,10.12-10.11h5.52C638.1,240.23,642.62,244.75,642.64,250.32z"/>
	<circle class="st1" cx="710.98" cy="230.38" r="8.09"/>
	<path class="st1" d="M723.87,250.32v13.7c-0.01,3.79-2.13,7.26-5.51,9v15.22c0.14,4.07-3.05,7.49-7.12,7.63
		c-4.07,0.14-7.49-3.05-7.63-7.12c-0.01-0.17-0.01-0.34,0-0.5v-15.21c-3.38-1.74-5.5-5.21-5.52-9.01v-13.7
		c0.02-5.58,4.55-10.09,10.12-10.11h5.52C719.32,240.23,723.85,244.75,723.87,250.32z"/>
	<circle class="st1" cx="792.21" cy="230.38" r="8.09"/>
	<path class="st1" d="M805.1,250.32v13.7c-0.01,3.79-2.13,7.26-5.51,9v15.22c0.14,4.07-3.05,7.49-7.12,7.63
		c-4.07,0.14-7.49-3.05-7.63-7.12c-0.01-0.17-0.01-0.34,0-0.5v-15.21c-3.38-1.74-5.5-5.21-5.52-9.01v-13.7
		c0.02-5.58,4.55-10.09,10.12-10.11h5.52C800.55,240.23,805.07,244.75,805.1,250.32z"/>
	<circle class="st1" cx="61.18" cy="323.88" r="8.09"/>
	<path class="st1" d="M74.06,343.82v13.7c-0.01,3.79-2.13,7.26-5.51,9v15.22c0.14,4.07-3.05,7.49-7.12,7.63
		c-4.07,0.14-7.49-3.05-7.63-7.12c-0.01-0.17-0.01-0.34,0-0.5v-15.21c-3.38-1.74-5.5-5.21-5.52-9.01v-13.7
		c0.02-5.58,4.55-10.09,10.12-10.11h5.52C69.52,333.73,74.04,338.25,74.06,343.82z"/>
	<circle class="st1" cx="142.4" cy="323.88" r="8.09"/>
	<path class="st1" d="M155.29,343.82v13.7c-0.01,3.79-2.13,7.26-5.51,9v15.22c0.14,4.07-3.05,7.49-7.12,7.63
		c-4.07,0.14-7.49-3.05-7.63-7.12c-0.01-0.17-0.01-0.34,0-0.5v-15.21c-3.38-1.74-5.5-5.21-5.52-9.01v-13.7
		c0.02-5.58,4.55-10.09,10.12-10.11h5.52C150.74,333.73,155.27,338.25,155.29,343.82z"/>
	<circle class="st1" cx="223.63" cy="323.88" r="8.09"/>
	<path class="st1" d="M236.51,343.82v13.7c-0.01,3.79-2.13,7.26-5.51,9v15.22c0.14,4.07-3.05,7.49-7.12,7.63
		c-4.07,0.14-7.49-3.05-7.63-7.12c-0.01-0.17-0.01-0.34,0-0.5v-15.21c-3.38-1.74-5.5-5.21-5.52-9.01v-13.7
		c0.02-5.58,4.55-10.09,10.12-10.11h5.52C231.97,333.73,236.49,338.25,236.51,343.82z"/>
	<circle class="st1" cx="304.85" cy="323.88" r="8.09"/>
	<path class="st1" d="M317.74,343.82v13.7c-0.01,3.79-2.13,7.26-5.51,9v15.22c0.14,4.07-3.05,7.49-7.12,7.63
		c-4.07,0.14-7.49-3.05-7.63-7.12c-0.01-0.17-0.01-0.34,0-0.5v-15.21c-3.38-1.74-5.5-5.21-5.52-9.01v-13.7
		c0.02-5.58,4.55-10.09,10.12-10.11h5.52C313.2,333.73,317.72,338.25,317.74,343.82z"/>
	<circle class="st1" cx="386.08" cy="323.88" r="8.09"/>
	<path class="st1" d="M398.97,343.82v13.7c-0.01,3.79-2.13,7.26-5.51,9v15.22c0.14,4.07-3.05,7.49-7.12,7.63
		c-4.07,0.14-7.49-3.05-7.63-7.12c-0.01-0.17-0.01-0.34,0-0.5v-15.21c-3.38-1.74-5.5-5.21-5.52-9.01v-13.7
		c0.02-5.58,4.55-10.09,10.12-10.11h5.52C394.42,333.73,398.94,338.25,398.97,343.82z"/>
	<circle class="st1" cx="467.31" cy="323.88" r="8.09"/>
	<path class="st1" d="M480.19,343.82v13.7c-0.01,3.79-2.13,7.26-5.51,9v15.22c0.14,4.07-3.05,7.49-7.12,7.63
		c-4.07,0.14-7.49-3.05-7.63-7.12c-0.01-0.17-0.01-0.34,0-0.5v-15.21c-3.38-1.74-5.5-5.21-5.52-9.01v-13.7
		c0.02-5.58,4.55-10.09,10.12-10.11h5.52C475.65,333.73,480.17,338.25,480.19,343.82z"/>
	<circle class="st1" cx="548.53" cy="323.88" r="8.09"/>
	<path class="st1" d="M561.42,343.82v13.7c-0.01,3.79-2.13,7.26-5.51,9v15.22c0.14,4.07-3.05,7.49-7.12,7.63
		c-4.07,0.14-7.49-3.05-7.63-7.12c-0.01-0.17-0.01-0.34,0-0.5v-15.21c-3.38-1.74-5.5-5.21-5.52-9.01v-13.7
		c0.02-5.58,4.55-10.09,10.12-10.11h5.52C556.87,333.73,561.39,338.25,561.42,343.82z"/>
	<circle class="st1" cx="629.76" cy="323.88" r="8.09"/>
	<path class="st1" d="M642.64,343.82v13.7c-0.01,3.79-2.13,7.26-5.51,9v15.22c0.14,4.07-3.05,7.49-7.12,7.63
		c-4.07,0.14-7.49-3.05-7.63-7.12c-0.01-0.17-0.01-0.34,0-0.5v-15.21c-3.38-1.74-5.5-5.21-5.52-9.01v-13.7
		c0.02-5.58,4.55-10.09,10.12-10.11h5.52C638.1,333.73,642.62,338.25,642.64,343.82z"/>
	<circle class="st1" cx="710.98" cy="323.88" r="8.09"/>
	<path class="st1" d="M723.87,343.82v13.7c-0.01,3.79-2.13,7.26-5.51,9v15.22c0.14,4.07-3.05,7.49-7.12,7.63
		c-4.07,0.14-7.49-3.05-7.63-7.12c-0.01-0.17-0.01-0.34,0-0.5v-15.21c-3.38-1.74-5.5-5.21-5.52-9.01v-13.7
		c0.02-5.58,4.55-10.09,10.12-10.11h5.52C719.32,333.73,723.85,338.25,723.87,343.82z"/>
	<circle class="st1" cx="792.21" cy="323.88" r="8.09"/>
	<path class="st1" d="M805.1,343.82v13.7c-0.01,3.79-2.13,7.26-5.51,9v15.22c0.14,4.07-3.05,7.49-7.12,7.63
		c-4.07,0.14-7.49-3.05-7.63-7.12c-0.01-0.17-0.01-0.34,0-0.5v-15.21c-3.38-1.74-5.5-5.21-5.52-9.01v-13.7
		c0.02-5.58,4.55-10.09,10.12-10.11h5.52C800.55,333.73,805.07,338.25,805.1,343.82z"/>
</g>
<circle class="st1" cx="61.18" cy="417.38" r="8.09"/>
<path class="st1" d="M74.06,437.33v13.7c-0.01,3.79-2.13,7.26-5.51,9v15.22c0.14,4.07-3.05,7.49-7.12,7.63
	c-4.07,0.14-7.49-3.05-7.63-7.12c-0.01-0.17-0.01-0.34,0-0.5v-15.21c-3.38-1.74-5.5-5.21-5.52-9.01v-13.7
	c0.02-5.58,4.55-10.09,10.12-10.11h5.52C69.52,427.23,74.04,431.75,74.06,437.33z"/>
<circle class="st1" cx="142.4" cy="417.38" r="8.09"/>
<path class="st1" d="M155.29,437.33v13.7c-0.01,3.79-2.13,7.26-5.51,9v15.22c0.14,4.07-3.05,7.49-7.12,7.63
	c-4.07,0.14-7.49-3.05-7.63-7.12c-0.01-0.17-0.01-0.34,0-0.5v-15.21c-3.38-1.74-5.5-5.21-5.52-9.01v-13.7
	c0.02-5.58,4.55-10.09,10.12-10.11h5.52C150.74,427.23,155.27,431.75,155.29,437.33z"/>
<circle class="st2" cx="223.63" cy="417.38" r="8.09"/>
<path class="st2" d="M236.51,437.33v13.7c-0.01,3.79-2.13,7.26-5.51,9v15.22c0.14,4.07-3.05,7.49-7.12,7.63
	c-4.07,0.14-7.49-3.05-7.63-7.12c-0.01-0.17-0.01-0.34,0-0.5v-15.21c-3.38-1.74-5.5-5.21-5.52-9.01v-13.7
	c0.02-5.58,4.55-10.09,10.12-10.11h5.52C231.97,427.23,236.49,431.75,236.51,437.33z"/>
<circle class="st2" cx="304.85" cy="417.38" r="8.09"/>
<path class="st2" d="M317.74,437.33v13.7c-0.01,3.79-2.13,7.26-5.51,9v15.22c0.14,4.07-3.05,7.49-7.12,7.63
	c-4.07,0.14-7.49-3.05-7.63-7.12c-0.01-0.17-0.01-0.34,0-0.5v-15.21c-3.38-1.74-5.5-5.21-5.52-9.01v-13.7
	c0.02-5.58,4.55-10.09,10.12-10.11h5.52C313.2,427.23,317.72,431.75,317.74,437.33z"/>
<circle class="st2" cx="386.08" cy="417.38" r="8.09"/>
<path class="st2" d="M398.97,437.33v13.7c-0.01,3.79-2.13,7.26-5.51,9v15.22c0.14,4.07-3.05,7.49-7.12,7.63
	c-4.07,0.14-7.49-3.05-7.63-7.12c-0.01-0.17-0.01-0.34,0-0.5v-15.21c-3.38-1.74-5.5-5.21-5.52-9.01v-13.7
	c0.02-5.58,4.55-10.09,10.12-10.11h5.52C394.42,427.23,398.94,431.75,398.97,437.33z"/>
<circle class="st2" cx="467.31" cy="417.38" r="8.09"/>
<path class="st2" d="M480.19,437.33v13.7c-0.01,3.79-2.13,7.26-5.51,9v15.22c0.14,4.07-3.05,7.49-7.12,7.63
	c-4.07,0.14-7.49-3.05-7.63-7.12c-0.01-0.17-0.01-0.34,0-0.5v-15.21c-3.38-1.74-5.5-5.21-5.52-9.01v-13.7
	c0.02-5.58,4.55-10.09,10.12-10.11h5.52C475.65,427.23,480.17,431.75,480.19,437.33z"/>
<circle class="st2" cx="548.53" cy="417.38" r="8.09"/>
<path class="st2" d="M561.42,437.33v13.7c-0.01,3.79-2.13,7.26-5.51,9v15.22c0.14,4.07-3.05,7.49-7.12,7.63
	c-4.07,0.14-7.49-3.05-7.63-7.12c-0.01-0.17-0.01-0.34,0-0.5v-15.21c-3.38-1.74-5.5-5.21-5.52-9.01v-13.7
	c0.02-5.58,4.55-10.09,10.12-10.11h5.52C556.87,427.23,561.39,431.75,561.42,437.33z"/>
<circle class="st2" cx="629.76" cy="417.38" r="8.09"/>
<path class="st2" d="M642.64,437.33v13.7c-0.01,3.79-2.13,7.26-5.51,9v15.22c0.14,4.07-3.05,7.49-7.12,7.63
	c-4.07,0.14-7.49-3.05-7.63-7.12c-0.01-0.17-0.01-0.34,0-0.5v-15.21c-3.38-1.74-5.5-5.21-5.52-9.01v-13.7
	c0.02-5.58,4.55-10.09,10.12-10.11h5.52C638.1,427.23,642.62,431.75,642.64,437.33z"/>
<circle class="st2" cx="710.98" cy="417.38" r="8.09"/>
<path class="st2" d="M723.87,437.33v13.7c-0.01,3.79-2.13,7.26-5.51,9v15.22c0.14,4.07-3.05,7.49-7.12,7.63
	c-4.07,0.14-7.49-3.05-7.63-7.12c-0.01-0.17-0.01-0.34,0-0.5v-15.21c-3.38-1.74-5.5-5.21-5.52-9.01v-13.7
	c0.02-5.58,4.55-10.09,10.12-10.11h5.52C719.32,427.23,723.85,431.75,723.87,437.33z"/>
<circle class="st2" cx="792.21" cy="417.38" r="8.09"/>
<path class="st2" d="M805.1,437.33v13.7c-0.01,3.79-2.13,7.26-5.51,9v15.22c0.14,4.07-3.05,7.49-7.12,7.63
	c-4.07,0.14-7.49-3.05-7.63-7.12c-0.01-0.17-0.01-0.34,0-0.5v-15.21c-3.38-1.74-5.5-5.21-5.52-9.01v-13.7
	c0.02-5.58,4.55-10.09,10.12-10.11h5.52C800.55,427.23,805.07,431.75,805.1,437.33z"/>
<circle class="st2" cx="61.18" cy="510.88" r="8.09"/>
<path class="st2" d="M74.06,530.83v13.7c-0.01,3.79-2.13,7.26-5.51,9v15.22c0.14,4.07-3.05,7.49-7.12,7.63s-7.49-3.05-7.63-7.12
	c-0.01-0.17-0.01-0.34,0-0.5v-15.21c-3.38-1.74-5.5-5.21-5.52-9.01v-13.7c0.02-5.58,4.55-10.09,10.12-10.11h5.52
	C69.52,520.73,74.04,525.25,74.06,530.83z"/>
<circle class="st2" cx="142.4" cy="510.88" r="8.09"/>
<path class="st2" d="M155.29,530.83v13.7c-0.01,3.79-2.13,7.26-5.51,9v15.22c0.14,4.07-3.05,7.49-7.12,7.63
	c-4.07,0.14-7.49-3.05-7.63-7.12c-0.01-0.17-0.01-0.34,0-0.5v-15.21c-3.38-1.74-5.5-5.21-5.52-9.01v-13.7
	c0.02-5.58,4.55-10.09,10.12-10.11h5.52C150.74,520.73,155.27,525.25,155.29,530.83z"/>
<circle class="st2" cx="223.63" cy="510.88" r="8.09"/>
<path class="st2" d="M236.51,530.83v13.7c-0.01,3.79-2.13,7.26-5.51,9v15.22c0.14,4.07-3.05,7.49-7.12,7.63
	c-4.07,0.14-7.49-3.05-7.63-7.12c-0.01-0.17-0.01-0.34,0-0.5v-15.21c-3.38-1.74-5.5-5.21-5.52-9.01v-13.7
	c0.02-5.58,4.55-10.09,10.12-10.11h5.52C231.97,520.73,236.49,525.25,236.51,530.83z"/>
<circle class="st2" cx="304.85" cy="510.88" r="8.09"/>
<path class="st2" d="M317.74,530.83v13.7c-0.01,3.79-2.13,7.26-5.51,9v15.22c0.14,4.07-3.05,7.49-7.12,7.63s-7.49-3.05-7.63-7.12
	c-0.01-0.17-0.01-0.34,0-0.5v-15.21c-3.38-1.74-5.5-5.21-5.52-9.01v-13.7c0.02-5.58,4.55-10.09,10.12-10.11h5.52
	C313.2,520.73,317.72,525.25,317.74,530.83z"/>
<circle class="st2" cx="386.08" cy="510.88" r="8.09"/>
<path class="st2" d="M398.97,530.83v13.7c-0.01,3.79-2.13,7.26-5.51,9v15.22c0.14,4.07-3.05,7.49-7.12,7.63
	c-4.07,0.14-7.49-3.05-7.63-7.12c-0.01-0.17-0.01-0.34,0-0.5v-15.21c-3.38-1.74-5.5-5.21-5.52-9.01v-13.7
	c0.02-5.58,4.55-10.09,10.12-10.11h5.52C394.42,520.73,398.94,525.25,398.97,530.83z"/>
<circle class="st2" cx="467.31" cy="510.88" r="8.09"/>
<path class="st2" d="M480.19,530.83v13.7c-0.01,3.79-2.13,7.26-5.51,9v15.22c0.14,4.07-3.05,7.49-7.12,7.63
	c-4.07,0.14-7.49-3.05-7.63-7.12c-0.01-0.17-0.01-0.34,0-0.5v-15.21c-3.38-1.74-5.5-5.21-5.52-9.01v-13.7
	c0.02-5.58,4.55-10.09,10.12-10.11h5.52C475.65,520.73,480.17,525.25,480.19,530.83z"/>
<circle class="st2" cx="548.53" cy="510.88" r="8.09"/>
<path class="st2" d="M561.42,530.83v13.7c-0.01,3.79-2.13,7.26-5.51,9v15.22c0.14,4.07-3.05,7.49-7.12,7.63s-7.49-3.05-7.63-7.12
	c-0.01-0.17-0.01-0.34,0-0.5v-15.21c-3.38-1.74-5.5-5.21-5.52-9.01v-13.7c0.02-5.58,4.55-10.09,10.12-10.11h5.52
	C556.87,520.73,561.39,525.25,561.42,530.83z"/>
<circle class="st2" cx="629.76" cy="510.88" r="8.09"/>
<path class="st2" d="M642.64,530.83v13.7c-0.01,3.79-2.13,7.26-5.51,9v15.22c0.14,4.07-3.05,7.49-7.12,7.63s-7.49-3.05-7.63-7.12
	c-0.01-0.17-0.01-0.34,0-0.5v-15.21c-3.38-1.74-5.5-5.21-5.52-9.01v-13.7c0.02-5.58,4.55-10.09,10.12-10.11h5.52
	C638.1,520.73,642.62,525.25,642.64,530.83z"/>
<circle class="st2" cx="710.98" cy="510.88" r="8.09"/>
<path class="st2" d="M723.87,530.83v13.7c-0.01,3.79-2.13,7.26-5.51,9v15.22c0.14,4.07-3.05,7.49-7.12,7.63s-7.49-3.05-7.63-7.12
	c-0.01-0.17-0.01-0.34,0-0.5v-15.21c-3.38-1.74-5.5-5.21-5.52-9.01v-13.7c0.02-5.58,4.55-10.09,10.12-10.11h5.52
	C719.32,520.73,723.85,525.25,723.87,530.83z"/>
<circle class="st2" cx="792.21" cy="510.88" r="8.09"/>
<path class="st2" d="M805.1,530.83v13.7c-0.01,3.79-2.13,7.26-5.51,9v15.22c0.14,4.07-3.05,7.49-7.12,7.63s-7.49-3.05-7.63-7.12
	c-0.01-0.17-0.01-0.34,0-0.5v-15.21c-3.38-1.74-5.5-5.21-5.52-9.01v-13.7c0.02-5.58,4.55-10.09,10.12-10.11h5.52
	C800.55,520.73,805.07,525.25,805.1,530.83z"/>
<circle class="st2" cx="61.18" cy="604.38" r="8.09"/>
<path class="st2" d="M74.06,624.33v13.7c-0.01,3.79-2.13,7.26-5.51,9v15.22c0.14,4.07-3.05,7.49-7.12,7.63
	c-4.07,0.14-7.49-3.05-7.63-7.12c-0.01-0.17-0.01-0.34,0-0.5v-15.21c-3.38-1.74-5.5-5.21-5.52-9.01v-13.7
	c0.02-5.58,4.55-10.09,10.12-10.11h5.52C69.52,614.23,74.04,618.75,74.06,624.33z"/>
<circle class="st2" cx="142.4" cy="604.38" r="8.09"/>
<path class="st2" d="M155.29,624.33v13.7c-0.01,3.79-2.13,7.26-5.51,9v15.22c0.14,4.07-3.05,7.49-7.12,7.63
	c-4.07,0.14-7.49-3.05-7.63-7.12c-0.01-0.17-0.01-0.34,0-0.5v-15.21c-3.38-1.74-5.5-5.21-5.52-9.01v-13.7
	c0.02-5.58,4.55-10.09,10.12-10.11h5.52C150.74,614.23,155.27,618.75,155.29,624.33z"/>
<circle class="st2" cx="223.63" cy="604.38" r="8.09"/>
<path class="st2" d="M236.51,624.33v13.7c-0.01,3.79-2.13,7.26-5.51,9v15.22c0.14,4.07-3.05,7.49-7.12,7.63
	c-4.07,0.14-7.49-3.05-7.63-7.12c-0.01-0.17-0.01-0.34,0-0.5v-15.21c-3.38-1.74-5.5-5.21-5.52-9.01v-13.7
	c0.02-5.58,4.55-10.09,10.12-10.11h5.52C231.97,614.23,236.49,618.75,236.51,624.33z"/>
<circle class="st2" cx="304.85" cy="604.38" r="8.09"/>
<path class="st2" d="M317.74,624.33v13.7c-0.01,3.79-2.13,7.26-5.51,9v15.22c0.14,4.07-3.05,7.49-7.12,7.63
	c-4.07,0.14-7.49-3.05-7.63-7.12c-0.01-0.17-0.01-0.34,0-0.5v-15.21c-3.38-1.74-5.5-5.21-5.52-9.01v-13.7
	c0.02-5.58,4.55-10.09,10.12-10.11h5.52C313.2,614.23,317.72,618.75,317.74,624.33z"/>
<circle class="st2" cx="386.08" cy="604.38" r="8.09"/>
<path class="st2" d="M398.97,624.33v13.7c-0.01,3.79-2.13,7.26-5.51,9v15.22c0.14,4.07-3.05,7.49-7.12,7.63
	c-4.07,0.14-7.49-3.05-7.63-7.12c-0.01-0.17-0.01-0.34,0-0.5v-15.21c-3.38-1.74-5.5-5.21-5.52-9.01v-13.7
	c0.02-5.58,4.55-10.09,10.12-10.11h5.52C394.42,614.23,398.94,618.75,398.97,624.33z"/>
<circle class="st2" cx="467.31" cy="604.38" r="8.09"/>
<path class="st2" d="M480.19,624.33v13.7c-0.01,3.79-2.13,7.26-5.51,9v15.22c0.14,4.07-3.05,7.49-7.12,7.63
	c-4.07,0.14-7.49-3.05-7.63-7.12c-0.01-0.17-0.01-0.34,0-0.5v-15.21c-3.38-1.74-5.5-5.21-5.52-9.01v-13.7
	c0.02-5.58,4.55-10.09,10.12-10.11h5.52C475.65,614.23,480.17,618.75,480.19,624.33z"/>
<circle class="st2" cx="548.53" cy="604.38" r="8.09"/>
<path class="st2" d="M561.42,624.33v13.7c-0.01,3.79-2.13,7.26-5.51,9v15.22c0.14,4.07-3.05,7.49-7.12,7.63
	c-4.07,0.14-7.49-3.05-7.63-7.12c-0.01-0.17-0.01-0.34,0-0.5v-15.21c-3.38-1.74-5.5-5.21-5.52-9.01v-13.7
	c0.02-5.58,4.55-10.09,10.12-10.11h5.52C556.87,614.23,561.39,618.75,561.42,624.33z"/>
<circle class="st2" cx="629.76" cy="604.38" r="8.09"/>
<path class="st2" d="M642.64,624.33v13.7c-0.01,3.79-2.13,7.26-5.51,9v15.22c0.14,4.07-3.05,7.49-7.12,7.63
	c-4.07,0.14-7.49-3.05-7.63-7.12c-0.01-0.17-0.01-0.34,0-0.5v-15.21c-3.38-1.74-5.5-5.21-5.52-9.01v-13.7
	c0.02-5.58,4.55-10.09,10.12-10.11h5.52C638.1,614.23,642.62,618.75,642.64,624.33z"/>
<circle class="st2" cx="710.98" cy="604.38" r="8.09"/>
<path class="st2" d="M723.87,624.33v13.7c-0.01,3.79-2.13,7.26-5.51,9v15.22c0.14,4.07-3.05,7.49-7.12,7.63
	c-4.07,0.14-7.49-3.05-7.63-7.12c-0.01-0.17-0.01-0.34,0-0.5v-15.21c-3.38-1.74-5.5-5.21-5.52-9.01v-13.7
	c0.02-5.58,4.55-10.09,10.12-10.11h5.52C719.32,614.23,723.85,618.75,723.87,624.33z"/>
<circle class="st2" cx="792.21" cy="604.38" r="8.09"/>
<path class="st2" d="M805.1,624.33v13.7c-0.01,3.79-2.13,7.26-5.51,9v15.22c0.14,4.07-3.05,7.49-7.12,7.63
	c-4.07,0.14-7.49-3.05-7.63-7.12c-0.01-0.17-0.01-0.34,0-0.5v-15.21c-3.38-1.74-5.5-5.21-5.52-9.01v-13.7
	c0.02-5.58,4.55-10.09,10.12-10.11h5.52C800.55,614.23,805.07,618.75,805.1,624.33z"/>
<circle class="st2" cx="61.18" cy="697.88" r="8.09"/>
<path class="st2" d="M74.06,717.83v13.7c-0.01,3.79-2.13,7.26-5.51,9v15.22c0.14,4.07-3.05,7.49-7.12,7.63s-7.49-3.05-7.63-7.12
	c-0.01-0.17-0.01-0.34,0-0.5v-15.21c-3.38-1.74-5.5-5.21-5.52-9.01v-13.7c0.02-5.58,4.55-10.09,10.12-10.11h5.52
	C69.52,707.74,74.04,712.25,74.06,717.83z"/>
<circle class="st2" cx="142.4" cy="697.88" r="8.09"/>
<path class="st2" d="M155.29,717.83v13.7c-0.01,3.79-2.13,7.26-5.51,9v15.22c0.14,4.07-3.05,7.49-7.12,7.63
	c-4.07,0.14-7.49-3.05-7.63-7.12c-0.01-0.17-0.01-0.34,0-0.5v-15.21c-3.38-1.74-5.5-5.21-5.52-9.01v-13.7
	c0.02-5.58,4.55-10.09,10.12-10.11h5.52C150.74,707.74,155.27,712.25,155.29,717.83z"/>
<circle class="st2" cx="223.63" cy="697.88" r="8.09"/>
<path class="st2" d="M236.51,717.83v13.7c-0.01,3.79-2.13,7.26-5.51,9v15.22c0.14,4.07-3.05,7.49-7.12,7.63
	c-4.07,0.14-7.49-3.05-7.63-7.12c-0.01-0.17-0.01-0.34,0-0.5v-15.21c-3.38-1.74-5.5-5.21-5.52-9.01v-13.7
	c0.02-5.58,4.55-10.09,10.12-10.11h5.52C231.97,707.74,236.49,712.25,236.51,717.83z"/>
<circle class="st2" cx="304.85" cy="697.88" r="8.09"/>
<path class="st2" d="M317.74,717.83v13.7c-0.01,3.79-2.13,7.26-5.51,9v15.22c0.14,4.07-3.05,7.49-7.12,7.63s-7.49-3.05-7.63-7.12
	c-0.01-0.17-0.01-0.34,0-0.5v-15.21c-3.38-1.74-5.5-5.21-5.52-9.01v-13.7c0.02-5.58,4.55-10.09,10.12-10.11h5.52
	C313.2,707.74,317.72,712.25,317.74,717.83z"/>
<circle class="st2" cx="386.08" cy="697.88" r="8.09"/>
<path class="st2" d="M398.97,717.83v13.7c-0.01,3.79-2.13,7.26-5.51,9v15.22c0.14,4.07-3.05,7.49-7.12,7.63
	c-4.07,0.14-7.49-3.05-7.63-7.12c-0.01-0.17-0.01-0.34,0-0.5v-15.21c-3.38-1.74-5.5-5.21-5.52-9.01v-13.7
	c0.02-5.58,4.55-10.09,10.12-10.11h5.52C394.42,707.74,398.94,712.25,398.97,717.83z"/>
<circle class="st2" cx="467.31" cy="697.88" r="8.09"/>
<path class="st2" d="M480.19,717.83v13.7c-0.01,3.79-2.13,7.26-5.51,9v15.22c0.14,4.07-3.05,7.49-7.12,7.63
	c-4.07,0.14-7.49-3.05-7.63-7.12c-0.01-0.17-0.01-0.34,0-0.5v-15.21c-3.38-1.74-5.5-5.21-5.52-9.01v-13.7
	c0.02-5.58,4.55-10.09,10.12-10.11h5.52C475.65,707.74,480.17,712.25,480.19,717.83z"/>
<circle class="st2" cx="548.53" cy="697.88" r="8.09"/>
<path class="st2" d="M561.42,717.83v13.7c-0.01,3.79-2.13,7.26-5.51,9v15.22c0.14,4.07-3.05,7.49-7.12,7.63s-7.49-3.05-7.63-7.12
	c-0.01-0.17-0.01-0.34,0-0.5v-15.21c-3.38-1.74-5.5-5.21-5.52-9.01v-13.7c0.02-5.58,4.55-10.09,10.12-10.11h5.52
	C556.87,707.74,561.39,712.25,561.42,717.83z"/>
<circle class="st2" cx="629.76" cy="697.88" r="8.09"/>
<path class="st2" d="M642.64,717.83v13.7c-0.01,3.79-2.13,7.26-5.51,9v15.22c0.14,4.07-3.05,7.49-7.12,7.63s-7.49-3.05-7.63-7.12
	c-0.01-0.17-0.01-0.34,0-0.5v-15.21c-3.38-1.74-5.5-5.21-5.52-9.01v-13.7c0.02-5.58,4.55-10.09,10.12-10.11h5.52
	C638.1,707.74,642.62,712.25,642.64,717.83z"/>
<circle class="st2" cx="710.98" cy="697.88" r="8.09"/>
<path class="st2" d="M723.87,717.83v13.7c-0.01,3.79-2.13,7.26-5.51,9v15.22c0.14,4.07-3.05,7.49-7.12,7.63s-7.49-3.05-7.63-7.12
	c-0.01-0.17-0.01-0.34,0-0.5v-15.21c-3.38-1.74-5.5-5.21-5.52-9.01v-13.7c0.02-5.58,4.55-10.09,10.12-10.11h5.52
	C719.32,707.74,723.85,712.25,723.87,717.83z"/>
<circle class="st2" cx="792.21" cy="697.88" r="8.09"/>
<path class="st2" d="M805.1,717.83v13.7c-0.01,3.79-2.13,7.26-5.51,9v15.22c0.14,4.07-3.05,7.49-7.12,7.63s-7.49-3.05-7.63-7.12
	c-0.01-0.17-0.01-0.34,0-0.5v-15.21c-3.38-1.74-5.5-5.21-5.52-9.01v-13.7c0.02-5.58,4.55-10.09,10.12-10.11h5.52
	C800.55,707.74,805.07,712.25,805.1,717.83z"/>
<circle class="st2" cx="61.18" cy="791.38" r="8.09"/>
<path class="st2" d="M74.06,811.33v13.7c-0.01,3.79-2.13,7.26-5.51,9v15.22c0.14,4.07-3.05,7.49-7.12,7.63
	c-4.07,0.14-7.49-3.05-7.63-7.12c-0.01-0.17-0.01-0.34,0-0.5v-15.21c-3.38-1.74-5.5-5.21-5.52-9.01v-13.7
	c0.02-5.58,4.55-10.09,10.12-10.11h5.52C69.52,801.24,74.04,805.75,74.06,811.33z"/>
<circle class="st2" cx="142.4" cy="791.38" r="8.09"/>
<path class="st2" d="M155.29,811.33v13.7c-0.01,3.79-2.13,7.26-5.51,9v15.22c0.14,4.07-3.05,7.49-7.12,7.63
	c-4.07,0.14-7.49-3.05-7.63-7.12c-0.01-0.17-0.01-0.34,0-0.5v-15.21c-3.38-1.74-5.5-5.21-5.52-9.01v-13.7
	c0.02-5.58,4.55-10.09,10.12-10.11h5.52C150.74,801.24,155.27,805.75,155.29,811.33z"/>
<circle class="st2" cx="223.63" cy="791.38" r="8.09"/>
<path class="st2" d="M236.51,811.33v13.7c-0.01,3.79-2.13,7.26-5.51,9v15.22c0.14,4.07-3.05,7.49-7.12,7.63
	c-4.07,0.14-7.49-3.05-7.63-7.12c-0.01-0.17-0.01-0.34,0-0.5v-15.21c-3.38-1.74-5.5-5.21-5.52-9.01v-13.7
	c0.02-5.58,4.55-10.09,10.12-10.11h5.52C231.97,801.24,236.49,805.75,236.51,811.33z"/>
<circle class="st2" cx="304.85" cy="791.38" r="8.09"/>
<path class="st2" d="M317.74,811.33v13.7c-0.01,3.79-2.13,7.26-5.51,9v15.22c0.14,4.07-3.05,7.49-7.12,7.63
	c-4.07,0.14-7.49-3.05-7.63-7.12c-0.01-0.17-0.01-0.34,0-0.5v-15.21c-3.38-1.74-5.5-5.21-5.52-9.01v-13.7
	c0.02-5.58,4.55-10.09,10.12-10.11h5.52C313.2,801.24,317.72,805.75,317.74,811.33z"/>
<circle class="st2" cx="386.08" cy="791.38" r="8.09"/>
<path class="st2" d="M398.97,811.33v13.7c-0.01,3.79-2.13,7.26-5.51,9v15.22c0.14,4.07-3.05,7.49-7.12,7.63
	c-4.07,0.14-7.49-3.05-7.63-7.12c-0.01-0.17-0.01-0.34,0-0.5v-15.21c-3.38-1.74-5.5-5.21-5.52-9.01v-13.7
	c0.02-5.58,4.55-10.09,10.12-10.11h5.52C394.42,801.24,398.94,805.75,398.97,811.33z"/>
<circle class="st2" cx="467.31" cy="791.38" r="8.09"/>
<path class="st2" d="M480.19,811.33v13.7c-0.01,3.79-2.13,7.26-5.51,9v15.22c0.14,4.07-3.05,7.49-7.12,7.63
	c-4.07,0.14-7.49-3.05-7.63-7.12c-0.01-0.17-0.01-0.34,0-0.5v-15.21c-3.38-1.74-5.5-5.21-5.52-9.01v-13.7
	c0.02-5.58,4.55-10.09,10.12-10.11h5.52C475.65,801.24,480.17,805.75,480.19,811.33z"/>
<circle class="st2" cx="548.53" cy="791.38" r="8.09"/>
<path class="st2" d="M561.42,811.33v13.7c-0.01,3.79-2.13,7.26-5.51,9v15.22c0.14,4.07-3.05,7.49-7.12,7.63
	c-4.07,0.14-7.49-3.05-7.63-7.12c-0.01-0.17-0.01-0.34,0-0.5v-15.21c-3.38-1.74-5.5-5.21-5.52-9.01v-13.7
	c0.02-5.58,4.55-10.09,10.12-10.11h5.52C556.87,801.24,561.39,805.75,561.42,811.33z"/>
<circle class="st2" cx="629.76" cy="791.38" r="8.09"/>
<path class="st2" d="M642.64,811.33v13.7c-0.01,3.79-2.13,7.26-5.51,9v15.22c0.14,4.07-3.05,7.49-7.12,7.63
	c-4.07,0.14-7.49-3.05-7.63-7.12c-0.01-0.17-0.01-0.34,0-0.5v-15.21c-3.38-1.74-5.5-5.21-5.52-9.01v-13.7
	c0.02-5.58,4.55-10.09,10.12-10.11h5.52C638.1,801.24,642.62,805.75,642.64,811.33z"/>
<circle class="st2" cx="710.98" cy="791.38" r="8.09"/>
<path class="st2" d="M723.87,811.33v13.7c-0.01,3.79-2.13,7.26-5.51,9v15.22c0.14,4.07-3.05,7.49-7.12,7.63
	c-4.07,0.14-7.49-3.05-7.63-7.12c-0.01-0.17-0.01-0.34,0-0.5v-15.21c-3.38-1.74-5.5-5.21-5.52-9.01v-13.7
	c0.02-5.58,4.55-10.09,10.12-10.11h5.52C719.32,801.24,723.85,805.75,723.87,811.33z"/>
<circle class="st2" cx="792.21" cy="791.38" r="8.09"/>
<path class="st2" d="M805.1,811.33v13.7c-0.01,3.79-2.13,7.26-5.51,9v15.22c0.14,4.07-3.05,7.49-7.12,7.63
	c-4.07,0.14-7.49-3.05-7.63-7.12c-0.01-0.17-0.01-0.34,0-0.5v-15.21c-3.38-1.74-5.5-5.21-5.52-9.01v-13.7
	c0.02-5.58,4.55-10.09,10.12-10.11h5.52C800.55,801.24,805.07,805.75,805.1,811.33z"/>
<circle class="st2" cx="61.18" cy="884.88" r="8.09"/>
<path class="st2" d="M74.06,904.83v13.7c-0.01,3.79-2.13,7.26-5.51,9v15.22c0.14,4.07-3.05,7.49-7.12,7.63s-7.49-3.05-7.63-7.12
	c-0.01-0.17-0.01-0.34,0-0.5v-15.21c-3.38-1.74-5.5-5.21-5.52-9.01v-13.7c0.02-5.58,4.55-10.09,10.12-10.11h5.52
	C69.52,894.74,74.04,899.25,74.06,904.83z"/>
<circle class="st2" cx="142.4" cy="884.88" r="8.09"/>
<path class="st2" d="M155.29,904.83v13.7c-0.01,3.79-2.13,7.26-5.51,9v15.22c0.14,4.07-3.05,7.49-7.12,7.63
	c-4.07,0.14-7.49-3.05-7.63-7.12c-0.01-0.17-0.01-0.34,0-0.5v-15.21c-3.38-1.74-5.5-5.21-5.52-9.01v-13.7
	c0.02-5.58,4.55-10.09,10.12-10.11h5.52C150.74,894.74,155.27,899.25,155.29,904.83z"/>
<circle class="st2" cx="223.63" cy="884.88" r="8.09"/>
<path class="st2" d="M236.51,904.83v13.7c-0.01,3.79-2.13,7.26-5.51,9v15.22c0.14,4.07-3.05,7.49-7.12,7.63
	c-4.07,0.14-7.49-3.05-7.63-7.12c-0.01-0.17-0.01-0.34,0-0.5v-15.21c-3.38-1.74-5.5-5.21-5.52-9.01v-13.7
	c0.02-5.58,4.55-10.09,10.12-10.11h5.52C231.97,894.74,236.49,899.25,236.51,904.83z"/>
<circle class="st2" cx="304.85" cy="884.88" r="8.09"/>
<path class="st2" d="M317.74,904.83v13.7c-0.01,3.79-2.13,7.26-5.51,9v15.22c0.14,4.07-3.05,7.49-7.12,7.63s-7.49-3.05-7.63-7.12
	c-0.01-0.17-0.01-0.34,0-0.5v-15.21c-3.38-1.74-5.5-5.21-5.52-9.01v-13.7c0.02-5.58,4.55-10.09,10.12-10.11h5.52
	C313.2,894.74,317.72,899.25,317.74,904.83z"/>
<circle class="st2" cx="386.08" cy="884.88" r="8.09"/>
<path class="st2" d="M398.97,904.83v13.7c-0.01,3.79-2.13,7.26-5.51,9v15.22c0.14,4.07-3.05,7.49-7.12,7.63
	c-4.07,0.14-7.49-3.05-7.63-7.12c-0.01-0.17-0.01-0.34,0-0.5v-15.21c-3.38-1.74-5.5-5.21-5.52-9.01v-13.7
	c0.02-5.58,4.55-10.09,10.12-10.11h5.52C394.42,894.74,398.94,899.25,398.97,904.83z"/>
<circle class="st2" cx="467.31" cy="884.88" r="8.09"/>
<path class="st2" d="M480.19,904.83v13.7c-0.01,3.79-2.13,7.26-5.51,9v15.22c0.14,4.07-3.05,7.49-7.12,7.63
	c-4.07,0.14-7.49-3.05-7.63-7.12c-0.01-0.17-0.01-0.34,0-0.5v-15.21c-3.38-1.74-5.5-5.21-5.52-9.01v-13.7
	c0.02-5.58,4.55-10.09,10.12-10.11h5.52C475.65,894.74,480.17,899.25,480.19,904.83z"/>
<circle class="st2" cx="548.53" cy="884.88" r="8.09"/>
<path class="st2" d="M561.42,904.83v13.7c-0.01,3.79-2.13,7.26-5.51,9v15.22c0.14,4.07-3.05,7.49-7.12,7.63s-7.49-3.05-7.63-7.12
	c-0.01-0.17-0.01-0.34,0-0.5v-15.21c-3.38-1.74-5.5-5.21-5.52-9.01v-13.7c0.02-5.58,4.55-10.09,10.12-10.11h5.52
	C556.87,894.74,561.39,899.25,561.42,904.83z"/>
<circle class="st2" cx="629.76" cy="884.88" r="8.09"/>
<path class="st2" d="M642.64,904.83v13.7c-0.01,3.79-2.13,7.26-5.51,9v15.22c0.14,4.07-3.05,7.49-7.12,7.63s-7.49-3.05-7.63-7.12
	c-0.01-0.17-0.01-0.34,0-0.5v-15.21c-3.38-1.74-5.5-5.21-5.52-9.01v-13.7c0.02-5.58,4.55-10.09,10.12-10.11h5.52
	C638.1,894.74,642.62,899.25,642.64,904.83z"/>
<circle class="st2" cx="710.98" cy="884.88" r="8.09"/>
<path class="st2" d="M723.87,904.83v13.7c-0.01,3.79-2.13,7.26-5.51,9v15.22c0.14,4.07-3.05,7.49-7.12,7.63s-7.49-3.05-7.63-7.12
	c-0.01-0.17-0.01-0.34,0-0.5v-15.21c-3.38-1.74-5.5-5.21-5.52-9.01v-13.7c0.02-5.58,4.55-10.09,10.12-10.11h5.52
	C719.32,894.74,723.85,899.25,723.87,904.83z"/>
<circle class="st2" cx="792.21" cy="884.88" r="8.09"/>
<path class="st2" d="M805.1,904.83v13.7c-0.01,3.79-2.13,7.26-5.51,9v15.22c0.14,4.07-3.05,7.49-7.12,7.63s-7.49-3.05-7.63-7.12
	c-0.01-0.17-0.01-0.34,0-0.5v-15.21c-3.38-1.74-5.5-5.21-5.52-9.01v-13.7c0.02-5.58,4.55-10.09,10.12-10.11h5.52
	C800.55,894.74,805.07,899.25,805.1,904.83z"/>
<g>
	<g>
		<path class="st3" d="M331.23,1004.76c-1.8,0-3.46-0.31-4.97-0.94c-1.51-0.63-2.74-1.58-3.68-2.86c-0.94-1.28-1.44-2.91-1.51-4.88
			h4.64c0,1,0.25,1.82,0.74,2.46c0.49,0.64,1.16,1.12,1.99,1.43c0.83,0.31,1.75,0.47,2.75,0.47c0.96,0,1.82-0.13,2.57-0.38
			c0.75-0.25,1.35-0.62,1.78-1.09c0.43-0.47,0.65-1.04,0.65-1.69c0-0.87-0.26-1.55-0.79-2.04s-1.37-0.95-2.53-1.36l-5.12-2.04
			c-2-0.79-3.53-1.7-4.6-2.74c-1.07-1.04-1.6-2.47-1.6-4.3c0-2.11,0.83-3.81,2.5-5.12c1.67-1.31,3.99-1.96,6.98-1.96
			c2.91,0,5.15,0.68,6.74,2.03c1.59,1.35,2.49,3.24,2.7,5.65h-4.64c-0.17-1.03-0.64-1.85-1.4-2.47c-0.76-0.62-1.89-0.93-3.4-0.93
			c-1.33,0-2.39,0.28-3.16,0.83c-0.77,0.55-1.16,1.25-1.16,2.09c0,0.72,0.24,1.29,0.73,1.71c0.49,0.42,1.24,0.82,2.27,1.21l5.68,2.2
			c1.92,0.75,3.39,1.69,4.42,2.82c1.03,1.13,1.54,2.55,1.54,4.26c0,1.56-0.39,2.91-1.18,4.05c-0.79,1.14-1.93,2.02-3.44,2.65
			C335.22,1004.45,333.39,1004.76,331.23,1004.76z"/>
		<path class="st3" d="M354.93,1004.76c-1.65,0-3.17-0.43-4.54-1.28c-1.37-0.85-2.47-2.05-3.3-3.59c-0.83-1.54-1.24-3.34-1.24-5.41
			c0-2.13,0.41-3.97,1.23-5.5c0.82-1.53,1.92-2.71,3.29-3.52c1.37-0.81,2.89-1.22,4.56-1.22c1.55,0,2.88,0.31,4.01,0.93
			s2.03,1.46,2.72,2.52c0.69,1.06,1.15,2.26,1.39,3.59s0.25,2.71,0.04,4.12h-13.48v-2.56h10.14l-0.92,0.6
			c0.04-0.63,0.01-1.26-0.09-1.9c-0.1-0.64-0.29-1.23-0.57-1.76c-0.28-0.53-0.68-0.96-1.19-1.29c-0.51-0.33-1.17-0.49-1.97-0.49
			c-0.96,0-1.77,0.24-2.44,0.72c-0.67,0.48-1.17,1.13-1.52,1.96c-0.35,0.83-0.52,1.76-0.52,2.8v1.88c0,1.09,0.16,2.06,0.49,2.9
			c0.33,0.84,0.81,1.5,1.46,1.98c0.65,0.48,1.46,0.72,2.45,0.72c0.92,0,1.69-0.21,2.32-0.64c0.63-0.43,1.03-1.07,1.2-1.92h4.76
			c-0.2,1.25-0.67,2.36-1.41,3.31c-0.74,0.95-1.7,1.7-2.87,2.24C357.76,1004.49,356.42,1004.76,354.93,1004.76z"/>
		<path class="st3" d="M376.25,1004.76c-1.63,0-3.14-0.42-4.53-1.27c-1.39-0.85-2.52-2.04-3.38-3.58s-1.29-3.35-1.29-5.43
			c0-2.2,0.43-4.06,1.29-5.59c0.86-1.53,1.99-2.68,3.38-3.47c1.39-0.79,2.9-1.18,4.53-1.18c1.27,0,2.38,0.2,3.35,0.61
			c0.97,0.41,1.79,0.95,2.47,1.64c0.68,0.69,1.21,1.45,1.6,2.29s0.63,1.69,0.74,2.54l-4.76,0.12c-0.21-0.85-0.61-1.56-1.19-2.12
			c-0.58-0.56-1.33-0.84-2.25-0.84c-0.76,0-1.47,0.21-2.14,0.63c-0.67,0.42-1.21,1.07-1.63,1.95s-0.63,2.02-0.63,3.42
			c0,1.33,0.2,2.44,0.59,3.33c0.39,0.89,0.92,1.55,1.59,2c0.67,0.45,1.41,0.67,2.22,0.67c1.2,0,2.07-0.29,2.62-0.87
			c0.55-0.58,0.82-1.36,0.82-2.33h4.76c0,1.37-0.31,2.63-0.94,3.76c-0.63,1.13-1.55,2.04-2.76,2.71S378.01,1004.76,376.25,1004.76z"
			/>
		<path class="st3" d="M389.67,984.72h4.72v11.92c0,1.27,0.31,2.22,0.94,2.85c0.63,0.63,1.49,0.95,2.58,0.95
			c0.93,0,1.78-0.24,2.55-0.73c0.77-0.49,1.38-1.21,1.84-2.16c0.46-0.95,0.69-2.14,0.69-3.55h1.28c0,2.37-0.31,4.34-0.92,5.9
			c-0.61,1.56-1.46,2.73-2.54,3.5s-2.33,1.16-3.74,1.16c-1.39,0-2.64-0.25-3.76-0.74s-2.01-1.29-2.66-2.38
			c-0.65-1.09-0.98-2.53-0.98-4.32V984.72z M402.99,984.72h4.72v19.48h-4.72V984.72z"/>
		<path class="st3" d="M415.15,1004.2v-19.4h4.12l0.6,3.84v15.56H415.15z M428.47,1004.2v-11.36c0-1.44-0.35-2.53-1.04-3.26
			s-1.6-1.1-2.72-1.1c-0.95,0-1.78,0.26-2.51,0.78c-0.73,0.52-1.3,1.3-1.71,2.35c-0.41,1.05-0.62,2.35-0.62,3.91h-1.56
			c0-2.52,0.31-4.62,0.94-6.29c0.63-1.67,1.51-2.92,2.66-3.75c1.15-0.83,2.49-1.24,4.04-1.24c1.6,0,2.94,0.36,4.01,1.07
			c1.07,0.71,1.88,1.72,2.42,3.01s0.81,2.8,0.81,4.52v11.36H428.47z"/>
		<path class="st3" d="M447.23,1004.76c-1.63,0-3.11-0.43-4.45-1.29c-1.34-0.86-2.41-2.07-3.2-3.62c-0.79-1.55-1.19-3.37-1.19-5.45
			c0-2.05,0.38-3.84,1.15-5.37s1.79-2.71,3.08-3.54c1.29-0.83,2.72-1.25,4.29-1.25c1.44,0,2.69,0.34,3.74,1.03
			c1.05,0.69,1.86,1.7,2.42,3.05c0.56,1.35,0.84,3,0.84,4.96h-1.48c0-1.01-0.21-1.88-0.62-2.59c-0.41-0.71-0.96-1.26-1.63-1.64
			c-0.67-0.38-1.4-0.57-2.19-0.57c-0.95,0-1.78,0.25-2.51,0.74c-0.73,0.49-1.3,1.18-1.71,2.07c-0.41,0.89-0.62,1.92-0.62,3.11
			c0,1.23,0.21,2.29,0.62,3.2c0.41,0.91,0.98,1.61,1.71,2.12c0.73,0.51,1.55,0.76,2.47,0.76c0.75,0,1.46-0.2,2.15-0.61
			c0.69-0.41,1.25-0.98,1.68-1.71c0.43-0.73,0.65-1.59,0.65-2.56h1.48c0,2.04-0.3,3.74-0.91,5.09c-0.61,1.35-1.42,2.37-2.43,3.05
			C449.56,1004.42,448.44,1004.76,447.23,1004.76z M453.31,1004.2l-0.88-4.8v-22.64h4.76v27.44H453.31z"/>
		<path class="st3" d="M470.63,1004.76c-1.67,0-3.06-0.29-4.17-0.87c-1.11-0.58-1.95-1.34-2.51-2.29c-0.56-0.95-0.84-1.97-0.84-3.08
			c0-1.23,0.32-2.26,0.97-3.09c0.65-0.83,1.56-1.46,2.75-1.88c1.19-0.42,2.59-0.63,4.2-0.63c1.05,0,2.05,0.08,2.99,0.24
			c0.94,0.16,1.88,0.37,2.81,0.64v2.76c-0.73-0.24-1.53-0.43-2.4-0.56c-0.87-0.13-1.68-0.2-2.44-0.2c-1.12,0-2.04,0.21-2.76,0.62
			c-0.72,0.41-1.08,1.11-1.08,2.1c0,0.72,0.29,1.34,0.88,1.86c0.59,0.52,1.52,0.78,2.8,0.78c0.97,0,1.8-0.21,2.48-0.64
			s1.2-0.96,1.55-1.6c0.35-0.64,0.53-1.28,0.53-1.92h1.12c0,1.4-0.26,2.69-0.78,3.87c-0.52,1.18-1.29,2.12-2.31,2.83
			S472.14,1004.76,470.63,1004.76z M476.99,1004.2l-0.6-4.72v-7.8c0-1.36-0.28-2.37-0.83-3.02c-0.55-0.65-1.49-0.98-2.81-0.98
			c-0.76,0-1.42,0.11-1.98,0.34c-0.56,0.23-0.99,0.55-1.29,0.97c-0.3,0.42-0.45,0.93-0.45,1.53h-5.16c0-1.47,0.35-2.66,1.06-3.59
			s1.72-1.61,3.05-2.04c1.33-0.43,2.92-0.65,4.77-0.65c1.68,0,3.15,0.27,4.4,0.81c1.25,0.54,2.23,1.37,2.92,2.49s1.04,2.55,1.04,4.3
			v12.36H476.99z"/>
		<path class="st3" d="M488.03,1004.2v-19.48h4.72v19.48H488.03z M491.59,995.68c0-2.55,0.29-4.65,0.86-6.32s1.34-2.9,2.31-3.71
			s2.04-1.21,3.23-1.21c0.32,0,0.62,0.02,0.91,0.06s0.57,0.1,0.85,0.18l-0.08,4.72c-0.35-0.08-0.72-0.15-1.12-0.2
			c-0.4-0.05-0.76-0.08-1.08-0.08c-1.04,0-1.91,0.25-2.61,0.75c-0.7,0.5-1.23,1.24-1.58,2.21c-0.35,0.97-0.53,2.17-0.53,3.6H491.59z
			"/>
		<path class="st3" d="M506.49,981.24c-0.92,0-1.64-0.24-2.15-0.73c-0.51-0.49-0.77-1.16-0.77-2.03c0-0.84,0.26-1.51,0.77-2.01
			c0.51-0.5,1.23-0.75,2.15-0.75c0.89,0,1.6,0.25,2.13,0.75c0.53,0.5,0.79,1.17,0.79,2.01c0,0.87-0.26,1.54-0.79,2.03
			C508.09,981,507.38,981.24,506.49,981.24z M504.13,1004.2v-19.48h4.72v19.48H504.13z"/>
		<path class="st3" d="M522.85,1004.76c-1.67,0-3.06-0.29-4.17-0.87c-1.11-0.58-1.95-1.34-2.51-2.29c-0.56-0.95-0.84-1.97-0.84-3.08
			c0-1.23,0.32-2.26,0.97-3.09c0.65-0.83,1.56-1.46,2.75-1.88c1.19-0.42,2.59-0.63,4.2-0.63c1.05,0,2.05,0.08,2.99,0.24
			s1.88,0.37,2.81,0.64v2.76c-0.73-0.24-1.53-0.43-2.4-0.56c-0.87-0.13-1.68-0.2-2.44-0.2c-1.12,0-2.04,0.21-2.76,0.62
			c-0.72,0.41-1.08,1.11-1.08,2.1c0,0.72,0.29,1.34,0.88,1.86c0.59,0.52,1.52,0.78,2.8,0.78c0.97,0,1.8-0.21,2.48-0.64
			c0.68-0.43,1.2-0.96,1.55-1.6c0.35-0.64,0.53-1.28,0.53-1.92h1.12c0,1.4-0.26,2.69-0.78,3.87s-1.29,2.12-2.31,2.83
			S524.36,1004.76,522.85,1004.76z M529.21,1004.2l-0.6-4.72v-7.8c0-1.36-0.28-2.37-0.83-3.02s-1.49-0.98-2.81-0.98
			c-0.76,0-1.42,0.11-1.98,0.34s-0.99,0.55-1.29,0.97s-0.45,0.93-0.45,1.53h-5.16c0-1.47,0.35-2.66,1.06-3.59s1.72-1.61,3.05-2.04
			c1.33-0.43,2.92-0.65,4.77-0.65c1.68,0,3.15,0.27,4.4,0.81c1.25,0.54,2.23,1.37,2.92,2.49c0.69,1.12,1.04,2.55,1.04,4.3v12.36
			H529.21z"/>
	</g>
</g>
</svg>
