<?xml version="1.0" encoding="utf-8"?>
<!-- Generator: Adobe Illustrator 24.0.2, SVG Export Plug-In . SVG Version: 6.00 Build 0)  -->
<svg version="1.1" id="Capa_1" xmlns="http://www.w3.org/2000/svg" xmlns:xlink="http://www.w3.org/1999/xlink" x="0px" y="0px"
	 viewBox="0 0 680 480" style="enable-background:new 0 0 680 480;" xml:space="preserve">
<style type="text/css">
	.st0{fill:#252525;}
	.st1{fill:none;stroke:#FF5757;stroke-miterlimit:10;}
	.st2{opacity:0.7;}
	.st3{fill:#FF5757;}
	.st4{fill:#FFFFFF;}
	.st5{opacity:0.6;}
	.st6{opacity:0.5;}
	.st7{opacity:0.4;}
	.st8{opacity:0.8;}
	.st9{opacity:0.9;}
	.st10{fill:none;stroke:#FFFFFF;stroke-width:3;stroke-miterlimit:10;}
</style>
<rect x="-1" y="1" class="st0" width="680" height="479"/>
<line class="st1" x1="169.3" y1="166.9" x2="170.8" y2="166.9"/>
<line class="st1" x1="248" y1="166.9" x2="249.5" y2="166.9"/>
<line class="st1" x1="243.4" y1="166.9" x2="244.9" y2="166.9"/>
<line class="st1" x1="238.7" y1="166.9" x2="240.3" y2="166.9"/>
<line class="st1" x1="234.1" y1="166.9" x2="235.6" y2="166.9"/>
<line class="st1" x1="229.5" y1="166.9" x2="231" y2="166.9"/>
<line class="st1" x1="224.9" y1="166.9" x2="226.4" y2="166.9"/>
<line class="st1" x1="220.2" y1="166.9" x2="221.7" y2="166.9"/>
<line class="st1" x1="215.6" y1="166.9" x2="217.1" y2="166.9"/>
<line class="st1" x1="211" y1="166.9" x2="212.5" y2="166.9"/>
<line class="st1" x1="206.3" y1="166.9" x2="207.8" y2="166.9"/>
<line class="st1" x1="201.7" y1="166.9" x2="203.2" y2="166.9"/>
<line class="st1" x1="197.1" y1="166.9" x2="198.6" y2="166.9"/>
<line class="st1" x1="192.4" y1="166.9" x2="193.9" y2="166.9"/>
<line class="st1" x1="187.8" y1="166.9" x2="189.3" y2="166.9"/>
<line class="st1" x1="183.2" y1="166.9" x2="184.7" y2="166.9"/>
<line class="st1" x1="178.5" y1="166.9" x2="180" y2="166.9"/>
<line class="st1" x1="173.9" y1="166.9" x2="175.4" y2="166.9"/>
<line class="st1" x1="252.6" y1="166.9" x2="254.2" y2="166.9"/>
<line class="st1" x1="250.3" y1="167.1" x2="251.8" y2="167"/>
<line class="st1" x1="329" y1="163" x2="330.5" y2="162.9"/>
<line class="st1" x1="324.3" y1="163.2" x2="325.8" y2="163.2"/>
<line class="st1" x1="319.7" y1="163.5" x2="321.2" y2="163.4"/>
<line class="st1" x1="315.1" y1="163.7" x2="316.6" y2="163.6"/>
<line class="st1" x1="310.5" y1="164" x2="312" y2="163.9"/>
<line class="st1" x1="305.8" y1="164.2" x2="307.3" y2="164.1"/>
<line class="st1" x1="301.2" y1="164.4" x2="302.7" y2="164.4"/>
<line class="st1" x1="296.6" y1="164.7" x2="298.1" y2="164.6"/>
<line class="st1" x1="292" y1="164.9" x2="293.5" y2="164.9"/>
<line class="st1" x1="287.3" y1="165.2" x2="288.8" y2="165.1"/>
<line class="st1" x1="282.7" y1="165.4" x2="284.2" y2="165.3"/>
<line class="st1" x1="278.1" y1="165.7" x2="279.6" y2="165.6"/>
<line class="st1" x1="273.5" y1="165.9" x2="275" y2="165.8"/>
<line class="st1" x1="268.8" y1="166.1" x2="270.3" y2="166.1"/>
<line class="st1" x1="264.2" y1="166.4" x2="265.7" y2="166.3"/>
<line class="st1" x1="259.6" y1="166.6" x2="261.1" y2="166.6"/>
<line class="st1" x1="255" y1="166.9" x2="256.5" y2="166.8"/>
<line class="st1" x1="333.6" y1="162.8" x2="335.1" y2="162.7"/>
<line class="st1" x1="250.3" y1="167.1" x2="251.8" y2="167"/>
<line class="st1" x1="329" y1="163" x2="330.5" y2="162.9"/>
<line class="st1" x1="324.3" y1="163.2" x2="325.8" y2="163.2"/>
<line class="st1" x1="319.7" y1="163.5" x2="321.2" y2="163.4"/>
<line class="st1" x1="315.1" y1="163.7" x2="316.6" y2="163.6"/>
<line class="st1" x1="310.5" y1="164" x2="312" y2="163.9"/>
<line class="st1" x1="305.8" y1="164.2" x2="307.3" y2="164.1"/>
<line class="st1" x1="301.2" y1="164.4" x2="302.7" y2="164.4"/>
<line class="st1" x1="296.6" y1="164.7" x2="298.1" y2="164.6"/>
<line class="st1" x1="292" y1="164.9" x2="293.5" y2="164.9"/>
<line class="st1" x1="287.3" y1="165.2" x2="288.8" y2="165.1"/>
<line class="st1" x1="282.7" y1="165.4" x2="284.2" y2="165.3"/>
<line class="st1" x1="278.1" y1="165.7" x2="279.6" y2="165.6"/>
<line class="st1" x1="273.5" y1="165.9" x2="275" y2="165.8"/>
<line class="st1" x1="268.8" y1="166.1" x2="270.3" y2="166.1"/>
<line class="st1" x1="264.2" y1="166.4" x2="265.7" y2="166.3"/>
<line class="st1" x1="259.6" y1="166.6" x2="261.1" y2="166.6"/>
<line class="st1" x1="255" y1="166.9" x2="256.5" y2="166.8"/>
<line class="st1" x1="333.6" y1="162.8" x2="335.1" y2="162.7"/>
<line class="st1" x1="88.3" y1="166.9" x2="89.8" y2="166.9"/>
<line class="st1" x1="167" y1="166.9" x2="168.5" y2="166.9"/>
<line class="st1" x1="162.4" y1="166.9" x2="163.9" y2="166.9"/>
<line class="st1" x1="157.7" y1="166.9" x2="159.3" y2="166.9"/>
<line class="st1" x1="153.1" y1="166.9" x2="154.6" y2="166.9"/>
<line class="st1" x1="148.5" y1="166.9" x2="150" y2="166.9"/>
<line class="st1" x1="143.9" y1="166.9" x2="145.4" y2="166.9"/>
<line class="st1" x1="139.2" y1="166.9" x2="140.7" y2="166.9"/>
<line class="st1" x1="134.6" y1="166.9" x2="136.1" y2="166.9"/>
<line class="st1" x1="130" y1="166.9" x2="131.5" y2="166.9"/>
<line class="st1" x1="125.3" y1="166.9" x2="126.8" y2="166.9"/>
<line class="st1" x1="120.7" y1="166.9" x2="122.2" y2="166.9"/>
<line class="st1" x1="116.1" y1="166.9" x2="117.6" y2="166.9"/>
<line class="st1" x1="111.4" y1="166.9" x2="112.9" y2="166.9"/>
<line class="st1" x1="106.8" y1="166.9" x2="108.3" y2="166.9"/>
<line class="st1" x1="102.2" y1="166.9" x2="103.7" y2="166.9"/>
<line class="st1" x1="97.5" y1="166.9" x2="99" y2="166.9"/>
<line class="st1" x1="92.9" y1="166.9" x2="94.4" y2="166.9"/>
<line class="st1" x1="171.6" y1="166.9" x2="173.2" y2="166.9"/>
<line class="st1" x1="419.3" y1="159" x2="420.8" y2="159"/>
<line class="st1" x1="498" y1="159" x2="499.5" y2="159"/>
<line class="st1" x1="493.4" y1="159" x2="494.9" y2="159"/>
<line class="st1" x1="488.7" y1="159" x2="490.3" y2="159"/>
<line class="st1" x1="484.1" y1="159" x2="485.6" y2="159"/>
<line class="st1" x1="479.5" y1="159" x2="481" y2="159"/>
<line class="st1" x1="474.9" y1="159" x2="476.4" y2="159"/>
<line class="st1" x1="470.2" y1="159" x2="471.7" y2="159"/>
<line class="st1" x1="465.6" y1="159" x2="467.1" y2="159"/>
<line class="st1" x1="461" y1="159" x2="462.5" y2="159"/>
<line class="st1" x1="456.3" y1="159" x2="457.8" y2="159"/>
<line class="st1" x1="451.7" y1="159" x2="453.2" y2="159"/>
<line class="st1" x1="447.1" y1="159" x2="448.6" y2="159"/>
<line class="st1" x1="442.4" y1="159" x2="443.9" y2="159"/>
<line class="st1" x1="437.8" y1="159" x2="439.3" y2="159"/>
<line class="st1" x1="433.2" y1="159" x2="434.7" y2="159"/>
<line class="st1" x1="428.5" y1="159" x2="430" y2="159"/>
<line class="st1" x1="423.9" y1="159" x2="425.4" y2="159"/>
<line class="st1" x1="502.6" y1="159" x2="504.2" y2="159"/>
<line class="st1" x1="338.3" y1="162.8" x2="339.8" y2="162.7"/>
<line class="st1" x1="417" y1="158.7" x2="418.5" y2="158.6"/>
<line class="st1" x1="412.3" y1="158.9" x2="413.8" y2="158.9"/>
<line class="st1" x1="407.7" y1="159.2" x2="409.2" y2="159.1"/>
<line class="st1" x1="403.1" y1="159.4" x2="404.6" y2="159.4"/>
<line class="st1" x1="398.5" y1="159.7" x2="400" y2="159.6"/>
<line class="st1" x1="393.8" y1="159.9" x2="395.3" y2="159.8"/>
<line class="st1" x1="389.2" y1="160.2" x2="390.7" y2="160.1"/>
<line class="st1" x1="384.6" y1="160.4" x2="386.1" y2="160.3"/>
<line class="st1" x1="380" y1="160.6" x2="381.5" y2="160.6"/>
<line class="st1" x1="375.3" y1="160.9" x2="376.8" y2="160.8"/>
<line class="st1" x1="370.7" y1="161.1" x2="372.2" y2="161.1"/>
<line class="st1" x1="366.1" y1="161.4" x2="367.6" y2="161.3"/>
<line class="st1" x1="361.5" y1="161.6" x2="363" y2="161.5"/>
<line class="st1" x1="356.8" y1="161.9" x2="358.3" y2="161.8"/>
<line class="st1" x1="352.2" y1="162.1" x2="353.7" y2="162"/>
<line class="st1" x1="347.6" y1="162.3" x2="349.1" y2="162.3"/>
<line class="st1" x1="343" y1="162.6" x2="344.5" y2="162.5"/>
<line class="st1" x1="421.6" y1="158.5" x2="423.1" y2="158.4"/>
<line class="st1" x1="500.5" y1="159" x2="502" y2="158.9"/>
<line class="st1" x1="578.8" y1="150.8" x2="580.3" y2="150.7"/>
<line class="st1" x1="574.2" y1="151.3" x2="575.7" y2="151.1"/>
<line class="st1" x1="569.6" y1="151.8" x2="571.1" y2="151.6"/>
<line class="st1" x1="565" y1="152.3" x2="566.5" y2="152.1"/>
<line class="st1" x1="560.4" y1="152.7" x2="561.9" y2="152.6"/>
<line class="st1" x1="555.8" y1="153.2" x2="557.3" y2="153.1"/>
<line class="st1" x1="551.2" y1="153.7" x2="552.7" y2="153.6"/>
<line class="st1" x1="546.6" y1="154.2" x2="548.1" y2="154"/>
<line class="st1" x1="542" y1="154.7" x2="543.5" y2="154.5"/>
<line class="st1" x1="537.4" y1="155.2" x2="538.9" y2="155"/>
<line class="st1" x1="532.8" y1="155.7" x2="534.3" y2="155.5"/>
<line class="st1" x1="528.1" y1="156.1" x2="529.6" y2="156"/>
<line class="st1" x1="523.5" y1="156.6" x2="525" y2="156.5"/>
<line class="st1" x1="518.9" y1="157.1" x2="520.4" y2="156.9"/>
<line class="st1" x1="514.3" y1="157.6" x2="515.8" y2="157.4"/>
<line class="st1" x1="509.7" y1="158.1" x2="511.2" y2="157.9"/>
<line class="st1" x1="505.1" y1="158.6" x2="506.6" y2="158.4"/>
<line class="st1" x1="583.4" y1="150.3" x2="584.9" y2="150.2"/>
<line class="st1" x1="250.3" y1="167.1" x2="251.8" y2="167"/>
<line class="st1" x1="329" y1="163" x2="330.5" y2="162.9"/>
<line class="st1" x1="324.3" y1="163.2" x2="325.8" y2="163.2"/>
<line class="st1" x1="319.7" y1="163.5" x2="321.2" y2="163.4"/>
<line class="st1" x1="315.1" y1="163.7" x2="316.6" y2="163.6"/>
<line class="st1" x1="310.5" y1="164" x2="312" y2="163.9"/>
<line class="st1" x1="305.8" y1="164.2" x2="307.3" y2="164.1"/>
<line class="st1" x1="301.2" y1="164.4" x2="302.7" y2="164.4"/>
<line class="st1" x1="296.6" y1="164.7" x2="298.1" y2="164.6"/>
<line class="st1" x1="292" y1="164.9" x2="293.5" y2="164.9"/>
<line class="st1" x1="287.3" y1="165.2" x2="288.8" y2="165.1"/>
<line class="st1" x1="282.7" y1="165.4" x2="284.2" y2="165.3"/>
<line class="st1" x1="278.1" y1="165.7" x2="279.6" y2="165.6"/>
<line class="st1" x1="273.5" y1="165.9" x2="275" y2="165.8"/>
<line class="st1" x1="268.8" y1="166.1" x2="270.3" y2="166.1"/>
<line class="st1" x1="264.2" y1="166.4" x2="265.7" y2="166.3"/>
<line class="st1" x1="259.6" y1="166.6" x2="261.1" y2="166.6"/>
<line class="st1" x1="255" y1="166.9" x2="256.5" y2="166.8"/>
<line class="st1" x1="333.6" y1="162.8" x2="335.1" y2="162.7"/>
<line class="st1" x1="250.3" y1="167.1" x2="251.8" y2="167"/>
<line class="st1" x1="329" y1="163" x2="330.5" y2="162.9"/>
<line class="st1" x1="324.3" y1="163.2" x2="325.8" y2="163.2"/>
<line class="st1" x1="319.7" y1="163.5" x2="321.2" y2="163.4"/>
<line class="st1" x1="315.1" y1="163.7" x2="316.6" y2="163.6"/>
<line class="st1" x1="310.5" y1="164" x2="312" y2="163.9"/>
<line class="st1" x1="305.8" y1="164.2" x2="307.3" y2="164.1"/>
<line class="st1" x1="301.2" y1="164.4" x2="302.7" y2="164.4"/>
<line class="st1" x1="296.6" y1="164.7" x2="298.1" y2="164.6"/>
<line class="st1" x1="292" y1="164.9" x2="293.5" y2="164.9"/>
<line class="st1" x1="287.3" y1="165.2" x2="288.8" y2="165.1"/>
<line class="st1" x1="282.7" y1="165.4" x2="284.2" y2="165.3"/>
<line class="st1" x1="278.1" y1="165.7" x2="279.6" y2="165.6"/>
<line class="st1" x1="273.5" y1="165.9" x2="275" y2="165.8"/>
<line class="st1" x1="268.8" y1="166.1" x2="270.3" y2="166.1"/>
<line class="st1" x1="264.2" y1="166.4" x2="265.7" y2="166.3"/>
<line class="st1" x1="259.6" y1="166.6" x2="261.1" y2="166.6"/>
<line class="st1" x1="255" y1="166.9" x2="256.5" y2="166.8"/>
<line class="st1" x1="333.6" y1="162.8" x2="335.1" y2="162.7"/>
<g class="st2">
	<rect x="320" y="215" class="st3" width="30" height="192"/>
	<polygon class="st3" points="335,200.1 320,215.1 350,215.1 	"/>
</g>
<g>
	<g>
		<path class="st4" d="M330.4,181.4h1.1v6.3h1.6v1h-1.6v2.3h-1.2v-2.3h-4.9v-0.9L330.4,181.4z M330.3,183.3l-3.5,4.5h3.5V183.3z"/>
		<path class="st4" d="M338,191.2c-0.7,0-1.4-0.1-2-0.4s-1-0.6-1.3-1c-0.3-0.4-0.5-0.9-0.5-1.4c0-0.5,0.1-0.9,0.4-1.2s0.6-0.6,1-0.8
			c0.4-0.2,0.9-0.3,1.5-0.3c0.1,0,0.3,0,0.4,0c0.1,0,0.3,0,0.4,0.1v0.3c-0.5,0-0.9,0.1-1.3,0.2c-0.4,0.2-0.7,0.4-0.9,0.6
			s-0.3,0.6-0.3,0.9c0,0.4,0.1,0.7,0.3,0.9c0.2,0.3,0.5,0.5,0.9,0.6c0.4,0.1,0.8,0.2,1.3,0.2c0.8,0,1.4-0.1,1.9-0.4
			c0.4-0.3,0.7-0.6,0.7-1c0-0.3-0.1-0.6-0.4-0.8c-0.2-0.2-0.6-0.4-1-0.6l-2.6-1c-0.3-0.1-0.6-0.3-1-0.5c-0.3-0.2-0.6-0.5-0.8-0.8
			c-0.2-0.3-0.3-0.7-0.3-1.1c0-0.5,0.1-0.9,0.4-1.3c0.3-0.4,0.7-0.7,1.2-0.9s1.1-0.3,1.9-0.3c0.7,0,1.3,0.1,1.8,0.3s0.9,0.5,1.2,0.9
			s0.4,0.8,0.4,1.3c0,0.4-0.1,0.8-0.3,1.1s-0.5,0.6-0.9,0.8c-0.4,0.2-0.9,0.3-1.4,0.3c-0.1,0-0.3,0-0.4,0s-0.3,0-0.4-0.1v-0.4
			c0.4,0,0.8-0.1,1.1-0.2c0.3-0.1,0.6-0.3,0.8-0.6c0.2-0.2,0.3-0.5,0.3-0.9c0-0.3-0.1-0.6-0.3-0.8s-0.4-0.4-0.8-0.6
			c-0.3-0.1-0.7-0.2-1.2-0.2c-0.4,0-0.8,0.1-1.1,0.2c-0.3,0.1-0.6,0.3-0.8,0.5c-0.2,0.2-0.3,0.5-0.3,0.7c0,0.3,0.1,0.6,0.3,0.8
			c0.2,0.2,0.5,0.4,0.9,0.5l2.6,1c0.7,0.3,1.2,0.6,1.6,0.9c0.4,0.4,0.6,0.8,0.6,1.4c0,0.5-0.2,0.9-0.4,1.3c-0.3,0.4-0.7,0.7-1.3,0.9
			S338.8,191.2,338,191.2z"/>
		<path class="st4" d="M345.4,185.7c-0.3,0-0.6-0.1-0.9-0.2c-0.3-0.2-0.5-0.4-0.7-0.7c-0.2-0.3-0.3-0.7-0.3-1.2s0.1-0.9,0.3-1.2
			c0.2-0.3,0.4-0.6,0.7-0.7c0.3-0.2,0.6-0.2,0.9-0.2c0.3,0,0.7,0.1,1,0.2s0.5,0.4,0.7,0.7c0.2,0.3,0.3,0.7,0.3,1.2s-0.1,0.9-0.3,1.2
			c-0.2,0.3-0.4,0.6-0.7,0.7S345.8,185.7,345.4,185.7z M344.3,191l6.3-9.4h1.2l-6.3,9.4H344.3z M345.4,184.9c0.3,0,0.5-0.1,0.7-0.3
			c0.2-0.2,0.3-0.6,0.3-1s-0.1-0.8-0.3-1s-0.4-0.3-0.7-0.3c-0.3,0-0.5,0.1-0.7,0.3c-0.2,0.2-0.3,0.6-0.3,1s0.1,0.8,0.3,1
			C344.9,184.8,345.2,184.9,345.4,184.9z M350.7,191.1c-0.3,0-0.6-0.1-0.9-0.2c-0.3-0.2-0.5-0.4-0.7-0.7c-0.2-0.3-0.3-0.7-0.3-1.2
			c0-0.5,0.1-0.9,0.3-1.2c0.2-0.3,0.4-0.6,0.7-0.7c0.3-0.2,0.6-0.2,0.9-0.2c0.3,0,0.7,0.1,1,0.2c0.3,0.2,0.5,0.4,0.7,0.7
			c0.2,0.3,0.3,0.7,0.3,1.2c0,0.5-0.1,0.9-0.3,1.2c-0.2,0.3-0.4,0.6-0.7,0.7C351.4,191,351,191.1,350.7,191.1z M350.7,190.3
			c0.3,0,0.5-0.1,0.7-0.3s0.3-0.6,0.3-1c0-0.5-0.1-0.8-0.3-1s-0.4-0.3-0.7-0.3c-0.3,0-0.5,0.1-0.7,0.3c-0.2,0.2-0.3,0.6-0.3,1
			c0,0.5,0.1,0.8,0.3,1C350.2,190.2,350.4,190.3,350.7,190.3z"/>
	</g>
</g>
<circle class="st4" cx="339" cy="163.1" r="4"/>
<g class="st5">
	<rect x="233" y="219" class="st3" width="30" height="188"/>
	<polygon class="st3" points="248,204.4 233,219.4 263,219.4 	"/>
</g>
<g>
	<g>
		<path class="st4" d="M242.8,185.7h1.1v6.3h1.6v1h-1.6v2.3h-1.2v-2.3h-4.9V192L242.8,185.7z M242.8,187.5l-3.5,4.5h3.5V187.5z"/>
		<path class="st4" d="M246.7,195.2l4.5-8.3h-5v-1.1h6.4v1.1l-4.3,8.3H246.7z"/>
		<path class="st4" d="M255.7,189.9c-0.3,0-0.6-0.1-0.9-0.2c-0.3-0.2-0.5-0.4-0.7-0.7s-0.3-0.7-0.3-1.2c0-0.5,0.1-0.9,0.3-1.2
			s0.4-0.6,0.7-0.7c0.3-0.2,0.6-0.2,0.9-0.2c0.3,0,0.7,0.1,1,0.2c0.3,0.2,0.5,0.4,0.7,0.7c0.2,0.3,0.3,0.7,0.3,1.2
			c0,0.5-0.1,0.9-0.3,1.2c-0.2,0.3-0.4,0.6-0.7,0.7C256.4,189.9,256.1,189.9,255.7,189.9z M254.6,195.2l6.3-9.4h1.2l-6.3,9.4H254.6z
			 M255.7,189.1c0.3,0,0.5-0.1,0.7-0.3c0.2-0.2,0.3-0.6,0.3-1s-0.1-0.8-0.3-1c-0.2-0.2-0.4-0.3-0.7-0.3c-0.3,0-0.5,0.1-0.7,0.3
			c-0.2,0.2-0.3,0.6-0.3,1s0.1,0.8,0.3,1C255.2,189,255.4,189.1,255.7,189.1z M261,195.4c-0.3,0-0.6-0.1-0.9-0.2
			c-0.3-0.2-0.5-0.4-0.7-0.7s-0.3-0.7-0.3-1.2c0-0.5,0.1-0.9,0.3-1.2s0.4-0.6,0.7-0.7c0.3-0.2,0.6-0.2,0.9-0.2c0.3,0,0.7,0.1,1,0.2
			c0.3,0.2,0.5,0.4,0.7,0.7c0.2,0.3,0.3,0.7,0.3,1.2c0,0.5-0.1,0.9-0.3,1.2c-0.2,0.3-0.4,0.6-0.7,0.7
			C261.6,195.3,261.3,195.4,261,195.4z M261,194.6c0.3,0,0.5-0.1,0.7-0.3s0.3-0.6,0.3-1c0-0.5-0.1-0.8-0.3-1
			c-0.2-0.2-0.4-0.3-0.7-0.3c-0.3,0-0.5,0.1-0.7,0.3c-0.2,0.2-0.3,0.6-0.3,1c0,0.5,0.1,0.8,0.3,1C260.4,194.5,260.7,194.6,261,194.6
			z"/>
	</g>
</g>
<circle class="st4" cx="251.4" cy="167.4" r="4"/>
<g class="st6">
	<rect x="155" y="219" class="st3" width="30" height="188"/>
	<polygon class="st3" points="170,204.1 155,219.1 185,219.1 	"/>
</g>
<g>
	<g>
		<path class="st4" d="M163.8,185.4h1.1v6.3h1.6v1h-1.6v2.3h-1.2v-2.3h-4.9v-0.9L163.8,185.4z M163.8,187.3l-3.5,4.5h3.5V187.3z"/>
		<path class="st4" d="M167.7,195l4.5-8.3h-5v-1.1h6.4v1.1l-4.3,8.3H167.7z"/>
		<path class="st4" d="M176.7,189.7c-0.3,0-0.6-0.1-0.9-0.2c-0.3-0.2-0.5-0.4-0.7-0.7c-0.2-0.3-0.3-0.7-0.3-1.2s0.1-0.9,0.3-1.2
			c0.2-0.3,0.4-0.6,0.7-0.7c0.3-0.2,0.6-0.2,0.9-0.2c0.3,0,0.7,0.1,1,0.2s0.5,0.4,0.7,0.7c0.2,0.3,0.3,0.7,0.3,1.2s-0.1,0.9-0.3,1.2
			c-0.2,0.3-0.4,0.6-0.7,0.7S177.1,189.7,176.7,189.7z M175.6,195l6.3-9.4h1.2l-6.3,9.4H175.6z M176.7,188.9c0.3,0,0.5-0.1,0.7-0.3
			c0.2-0.2,0.3-0.6,0.3-1s-0.1-0.8-0.3-1c-0.2-0.2-0.4-0.3-0.7-0.3c-0.3,0-0.5,0.1-0.7,0.3c-0.2,0.2-0.3,0.6-0.3,1s0.1,0.8,0.3,1
			C176.2,188.8,176.4,188.9,176.7,188.9z M182,195.1c-0.3,0-0.6-0.1-0.9-0.2c-0.3-0.2-0.5-0.4-0.7-0.7c-0.2-0.3-0.3-0.7-0.3-1.2
			c0-0.5,0.1-0.9,0.3-1.2c0.2-0.3,0.4-0.6,0.7-0.7c0.3-0.2,0.6-0.2,0.9-0.2c0.3,0,0.7,0.1,1,0.2c0.3,0.2,0.5,0.4,0.7,0.7
			c0.2,0.3,0.3,0.7,0.3,1.2c0,0.5-0.1,0.9-0.3,1.2c-0.2,0.3-0.4,0.6-0.7,0.7C182.6,195,182.3,195.1,182,195.1z M182,194.3
			c0.3,0,0.5-0.1,0.7-0.3s0.3-0.6,0.3-1c0-0.5-0.1-0.8-0.3-1s-0.4-0.3-0.7-0.3c-0.3,0-0.5,0.1-0.7,0.3c-0.2,0.2-0.3,0.6-0.3,1
			c0,0.5,0.1,0.8,0.3,1C181.4,194.2,181.7,194.3,182,194.3z"/>
	</g>
</g>
<circle class="st4" cx="172.4" cy="167.1" r="4"/>
<g class="st7">
	<rect x="71" y="219" class="st3" width="30" height="188"/>
	<polygon class="st3" points="86,204.4 71,219.4 101,219.4 	"/>
</g>
<g>
	<g>
		<path class="st4" d="M80.8,185.7h1.1v6.3h1.6v1h-1.6v2.3h-1.2v-2.3h-4.9V192L80.8,185.7z M80.8,187.5l-3.5,4.5h3.5V187.5z"/>
		<path class="st4" d="M84.7,195.2l4.5-8.3h-5v-1.1h6.4v1.1l-4.3,8.3H84.7z"/>
		<path class="st4" d="M93.7,189.9c-0.3,0-0.6-0.1-0.9-0.2c-0.3-0.2-0.5-0.4-0.7-0.7s-0.3-0.7-0.3-1.2c0-0.5,0.1-0.9,0.3-1.2
			s0.4-0.6,0.7-0.7c0.3-0.2,0.6-0.2,0.9-0.2c0.3,0,0.7,0.1,1,0.2c0.3,0.2,0.5,0.4,0.7,0.7c0.2,0.3,0.3,0.7,0.3,1.2
			c0,0.5-0.1,0.9-0.3,1.2c-0.2,0.3-0.4,0.6-0.7,0.7C94.4,189.9,94.1,189.9,93.7,189.9z M92.6,195.2l6.3-9.4h1.2l-6.3,9.4H92.6z
			 M93.7,189.1c0.3,0,0.5-0.1,0.7-0.3c0.2-0.2,0.3-0.6,0.3-1s-0.1-0.8-0.3-1c-0.2-0.2-0.4-0.3-0.7-0.3c-0.3,0-0.5,0.1-0.7,0.3
			c-0.2,0.2-0.3,0.6-0.3,1s0.1,0.8,0.3,1C93.2,189,93.4,189.1,93.7,189.1z M99,195.4c-0.3,0-0.6-0.1-0.9-0.2
			c-0.3-0.2-0.5-0.4-0.7-0.7s-0.3-0.7-0.3-1.2c0-0.5,0.1-0.9,0.3-1.2s0.4-0.6,0.7-0.7c0.3-0.2,0.6-0.2,0.9-0.2c0.3,0,0.7,0.1,1,0.2
			c0.3,0.2,0.5,0.4,0.7,0.7c0.2,0.3,0.3,0.7,0.3,1.2c0,0.5-0.1,0.9-0.3,1.2c-0.2,0.3-0.4,0.6-0.7,0.7
			C99.6,195.3,99.3,195.4,99,195.4z M99,194.6c0.3,0,0.5-0.1,0.7-0.3s0.3-0.6,0.3-1c0-0.5-0.1-0.8-0.3-1c-0.2-0.2-0.4-0.3-0.7-0.3
			c-0.3,0-0.5,0.1-0.7,0.3c-0.2,0.2-0.3,0.6-0.3,1c0,0.5,0.1,0.8,0.3,1C98.4,194.5,98.7,194.6,99,194.6z"/>
	</g>
</g>
<circle class="st4" cx="89.4" cy="167.4" r="4"/>
<g class="st8">
	<rect x="402" y="211" class="st3" width="30" height="196"/>
	<polygon class="st3" points="417,196.1 402,211.1 432,211.1 	"/>
</g>
<g>
	<g>
		<path class="st4" d="M411.8,177.4h1.1v6.3h1.6v1h-1.6v2.3h-1.2v-2.3h-4.9v-0.9L411.8,177.4z M411.8,179.3l-3.5,4.5h3.5V179.3z"/>
		<path class="st4" d="M419.1,187.2c-0.6,0-1.2-0.1-1.7-0.4c-0.5-0.3-0.9-0.6-1.1-1.1c-0.3-0.4-0.4-1-0.4-1.5h1.2
			c0,0.6,0.2,1,0.5,1.4c0.3,0.3,0.8,0.5,1.4,0.5c0.6,0,1.1-0.2,1.4-0.5s0.6-0.8,0.8-1.4c0.2-0.6,0.3-1.4,0.3-2.2c0-0.2,0-0.4,0-0.5
			c0-0.2,0-0.4-0.1-0.6c-0.1,0.5-0.2,1-0.5,1.3s-0.6,0.6-0.9,0.8c-0.4,0.2-0.8,0.3-1.3,0.3c-0.6,0-1.1-0.1-1.5-0.4
			c-0.4-0.3-0.8-0.6-1.1-1c-0.3-0.4-0.4-0.9-0.4-1.5c0-0.6,0.1-1.1,0.4-1.5c0.3-0.4,0.6-0.8,1.1-1c0.5-0.2,1-0.4,1.7-0.4
			c0.5,0,1,0.1,1.5,0.3c0.5,0.2,0.9,0.5,1.2,0.9c0.3,0.4,0.6,0.9,0.8,1.5c0.2,0.6,0.3,1.2,0.3,1.9c0,1-0.1,1.9-0.4,2.7
			c-0.3,0.8-0.7,1.3-1.2,1.8C420.6,186.9,420,187.2,419.1,187.2z M419,182.2c0.4,0,0.7-0.1,1-0.2c0.3-0.2,0.5-0.4,0.7-0.7
			c0.2-0.3,0.3-0.6,0.3-0.9c0-0.6-0.2-1-0.6-1.4c-0.4-0.3-0.9-0.5-1.4-0.5c-0.6,0-1,0.2-1.4,0.5c-0.4,0.3-0.6,0.8-0.6,1.4
			c0,0.6,0.2,1,0.6,1.4S418.5,182.2,419,182.2z"/>
		<path class="st4" d="M426.4,181.7c-0.3,0-0.6-0.1-0.9-0.2c-0.3-0.2-0.5-0.4-0.7-0.7c-0.2-0.3-0.3-0.7-0.3-1.2s0.1-0.9,0.3-1.2
			c0.2-0.3,0.4-0.6,0.7-0.7c0.3-0.2,0.6-0.2,0.9-0.2c0.3,0,0.7,0.1,1,0.2s0.5,0.4,0.7,0.7c0.2,0.3,0.3,0.7,0.3,1.2s-0.1,0.9-0.3,1.2
			c-0.2,0.3-0.4,0.6-0.7,0.7S426.7,181.7,426.4,181.7z M425.2,187l6.3-9.4h1.2l-6.3,9.4H425.2z M426.4,180.9c0.3,0,0.5-0.1,0.7-0.3
			c0.2-0.2,0.3-0.6,0.3-1s-0.1-0.8-0.3-1c-0.2-0.2-0.4-0.3-0.7-0.3c-0.3,0-0.5,0.1-0.7,0.3s-0.3,0.6-0.3,1s0.1,0.8,0.3,1
			C425.8,180.8,426.1,180.9,426.4,180.9z M431.6,187.1c-0.3,0-0.6-0.1-0.9-0.2c-0.3-0.2-0.5-0.4-0.7-0.7c-0.2-0.3-0.3-0.7-0.3-1.2
			c0-0.5,0.1-0.9,0.3-1.2c0.2-0.3,0.4-0.6,0.7-0.7c0.3-0.2,0.6-0.2,0.9-0.2c0.3,0,0.7,0.1,1,0.2c0.3,0.2,0.5,0.4,0.7,0.7
			c0.2,0.3,0.3,0.7,0.3,1.2c0,0.5-0.1,0.9-0.3,1.2c-0.2,0.3-0.4,0.6-0.7,0.7C432.3,187,432,187.1,431.6,187.1z M431.6,186.3
			c0.3,0,0.5-0.1,0.7-0.3s0.3-0.6,0.3-1c0-0.5-0.1-0.8-0.3-1s-0.4-0.3-0.7-0.3c-0.3,0-0.5,0.1-0.7,0.3s-0.3,0.6-0.3,1
			c0,0.5,0.1,0.8,0.3,1S431.3,186.3,431.6,186.3z"/>
	</g>
</g>
<circle class="st4" cx="420.4" cy="159.1" r="4"/>
<g>
	<rect x="570" y="203" class="st3" width="30" height="204"/>
	<polygon class="st3" points="585,188.1 570,203.1 600,203.1 	"/>
</g>
<g>
	<g>
		<path class="st4" d="M577.9,179.1c-0.6,0-1.1-0.1-1.6-0.3s-0.9-0.5-1.2-0.9c-0.3-0.4-0.4-0.9-0.4-1.5h1.2c0,0.6,0.2,1,0.6,1.3
			s0.9,0.4,1.5,0.4c0.7,0,1.2-0.2,1.6-0.6c0.4-0.4,0.6-0.9,0.6-1.5c0-1.2-0.8-1.8-2.3-1.8h-2.5l0.4-4.6h5.2v1.1h-4.3l0.2-0.4
			l-0.3,3.3l-0.1-0.1c0.2-0.1,0.5-0.1,0.8-0.1s0.6,0,0.8,0c1,0,1.8,0.2,2.4,0.7c0.6,0.5,0.9,1.1,0.9,2c0,0.6-0.1,1.2-0.4,1.6
			c-0.3,0.5-0.7,0.9-1.2,1.2C579.2,179,578.6,179.1,577.9,179.1z"/>
		<path class="st4" d="M584.6,169.5h0.9v9.5h-1.2v-8.1c-0.2,0.2-0.5,0.3-0.8,0.4s-0.5,0.1-0.8,0.1v-1.1c0.3,0,0.6-0.1,0.9-0.2
			C584.1,169.9,584.4,169.7,584.6,169.5z"/>
		<path class="st4" d="M589.9,173.7c-0.3,0-0.6-0.1-0.9-0.2c-0.3-0.2-0.5-0.4-0.7-0.7c-0.2-0.3-0.3-0.7-0.3-1.2
			c0-0.5,0.1-0.9,0.3-1.2c0.2-0.3,0.4-0.6,0.7-0.7c0.3-0.2,0.6-0.2,0.9-0.2c0.3,0,0.7,0.1,1,0.2c0.3,0.2,0.5,0.4,0.7,0.7
			c0.2,0.3,0.3,0.7,0.3,1.2c0,0.5-0.1,0.9-0.3,1.2c-0.2,0.3-0.4,0.6-0.7,0.7C590.6,173.6,590.3,173.7,589.9,173.7z M588.8,179
			l6.3-9.4h1.2L590,179H588.8z M589.9,172.9c0.3,0,0.5-0.1,0.7-0.3c0.2-0.2,0.3-0.6,0.3-1s-0.1-0.8-0.3-1c-0.2-0.2-0.4-0.3-0.7-0.3
			c-0.3,0-0.5,0.1-0.7,0.3s-0.3,0.6-0.3,1s0.1,0.8,0.3,1C589.4,172.8,589.6,172.9,589.9,172.9z M595.2,179.1c-0.3,0-0.6-0.1-0.9-0.2
			c-0.3-0.2-0.5-0.4-0.7-0.7c-0.2-0.3-0.3-0.7-0.3-1.2c0-0.5,0.1-0.9,0.3-1.2c0.2-0.3,0.4-0.6,0.7-0.7c0.3-0.2,0.6-0.2,0.9-0.2
			c0.3,0,0.7,0.1,1,0.2c0.3,0.2,0.5,0.4,0.7,0.7s0.3,0.7,0.3,1.2c0,0.5-0.1,0.9-0.3,1.2c-0.2,0.3-0.4,0.6-0.7,0.7
			C595.8,179,595.5,179.1,595.2,179.1z M595.2,178.3c0.3,0,0.5-0.1,0.7-0.3s0.3-0.6,0.3-1c0-0.5-0.1-0.8-0.3-1s-0.4-0.3-0.7-0.3
			c-0.3,0-0.5,0.1-0.7,0.3s-0.3,0.6-0.3,1c0,0.5,0.1,0.8,0.3,1S594.9,178.3,595.2,178.3z"/>
	</g>
</g>
<circle class="st4" cx="587.6" cy="151.1" r="4"/>
<g class="st9">
	<rect x="487" y="211" class="st3" width="30" height="196"/>
	<polygon class="st3" points="502,196.1 487,211.1 517,211.1 	"/>
</g>
<g>
	<g>
		<path class="st4" d="M493.8,177.4h1.1v6.3h1.6v1h-1.6v2.3h-1.2v-2.3h-4.9v-0.9L493.8,177.4z M493.8,179.3l-3.5,4.5h3.5V179.3z"/>
		<path class="st4" d="M501.1,187.2c-0.6,0-1.2-0.1-1.7-0.4c-0.5-0.3-0.9-0.6-1.1-1.1c-0.3-0.4-0.4-1-0.4-1.5h1.2
			c0,0.6,0.2,1,0.5,1.4c0.3,0.3,0.8,0.5,1.4,0.5c0.6,0,1.1-0.2,1.4-0.5s0.6-0.8,0.8-1.4c0.2-0.6,0.3-1.4,0.3-2.2c0-0.2,0-0.4,0-0.5
			c0-0.2,0-0.4-0.1-0.6c-0.1,0.5-0.2,1-0.5,1.3s-0.6,0.6-0.9,0.8c-0.4,0.2-0.8,0.3-1.3,0.3c-0.6,0-1.1-0.1-1.5-0.4
			c-0.4-0.3-0.8-0.6-1.1-1c-0.3-0.4-0.4-0.9-0.4-1.5c0-0.6,0.1-1.1,0.4-1.5c0.3-0.4,0.6-0.8,1.1-1c0.5-0.2,1-0.4,1.7-0.4
			c0.5,0,1,0.1,1.5,0.3c0.5,0.2,0.9,0.5,1.2,0.9c0.3,0.4,0.6,0.9,0.8,1.5c0.2,0.6,0.3,1.2,0.3,1.9c0,1-0.1,1.9-0.4,2.7
			c-0.3,0.8-0.7,1.3-1.2,1.8C502.6,186.9,502,187.2,501.1,187.2z M501,182.2c0.4,0,0.7-0.1,1-0.2c0.3-0.2,0.5-0.4,0.7-0.7
			c0.2-0.3,0.3-0.6,0.3-0.9c0-0.6-0.2-1-0.6-1.4c-0.4-0.3-0.9-0.5-1.4-0.5c-0.6,0-1,0.2-1.4,0.5c-0.4,0.3-0.6,0.8-0.6,1.4
			c0,0.6,0.2,1,0.6,1.4S500.5,182.2,501,182.2z"/>
		<path class="st4" d="M508.4,181.7c-0.3,0-0.6-0.1-0.9-0.2c-0.3-0.2-0.5-0.4-0.7-0.7c-0.2-0.3-0.3-0.7-0.3-1.2s0.1-0.9,0.3-1.2
			c0.2-0.3,0.4-0.6,0.7-0.7c0.3-0.2,0.6-0.2,0.9-0.2c0.3,0,0.7,0.1,1,0.2s0.5,0.4,0.7,0.7c0.2,0.3,0.3,0.7,0.3,1.2s-0.1,0.9-0.3,1.2
			c-0.2,0.3-0.4,0.6-0.7,0.7S508.7,181.7,508.4,181.7z M507.2,187l6.3-9.4h1.2l-6.3,9.4H507.2z M508.4,180.9c0.3,0,0.5-0.1,0.7-0.3
			c0.2-0.2,0.3-0.6,0.3-1s-0.1-0.8-0.3-1c-0.2-0.2-0.4-0.3-0.7-0.3c-0.3,0-0.5,0.1-0.7,0.3s-0.3,0.6-0.3,1s0.1,0.8,0.3,1
			C507.8,180.8,508.1,180.9,508.4,180.9z M513.6,187.1c-0.3,0-0.6-0.1-0.9-0.2c-0.3-0.2-0.5-0.4-0.7-0.7c-0.2-0.3-0.3-0.7-0.3-1.2
			c0-0.5,0.1-0.9,0.3-1.2c0.2-0.3,0.4-0.6,0.7-0.7c0.3-0.2,0.6-0.2,0.9-0.2c0.3,0,0.7,0.1,1,0.2c0.3,0.2,0.5,0.4,0.7,0.7
			c0.2,0.3,0.3,0.7,0.3,1.2c0,0.5-0.1,0.9-0.3,1.2c-0.2,0.3-0.4,0.6-0.7,0.7C514.3,187,514,187.1,513.6,187.1z M513.6,186.3
			c0.3,0,0.5-0.1,0.7-0.3s0.3-0.6,0.3-1c0-0.5-0.1-0.8-0.3-1s-0.4-0.3-0.7-0.3c-0.3,0-0.5,0.1-0.7,0.3s-0.3,0.6-0.3,1
			c0,0.5,0.1,0.8,0.3,1S513.3,186.3,513.6,186.3z"/>
	</g>
</g>
<circle class="st4" cx="502.4" cy="159.1" r="4"/>
<g>
	<g>
		<path class="st4" d="M324.5,426.3v-1.2c0-0.5,0.1-0.9,0.2-1.2c0.2-0.3,0.4-0.6,0.6-0.8c0.3-0.2,0.6-0.4,1-0.5l1.6-0.6
			c0.4-0.2,0.7-0.4,0.9-0.6s0.3-0.6,0.3-1c0-0.4-0.1-0.8-0.4-1c-0.3-0.3-0.7-0.4-1.2-0.4c-0.5,0-0.9,0.1-1.3,0.3
			c-0.3,0.2-0.5,0.5-0.6,1h-1.1c0-0.5,0.2-0.9,0.4-1.2c0.2-0.3,0.6-0.6,1-0.8c0.4-0.2,0.9-0.3,1.5-0.3c0.5,0,1,0.1,1.4,0.3
			c0.4,0.2,0.7,0.5,1,0.8c0.2,0.4,0.4,0.8,0.4,1.2c0,0.4-0.1,0.8-0.2,1.1c-0.2,0.3-0.4,0.6-0.7,0.8s-0.6,0.4-1,0.6l-1.7,0.7
			c-0.4,0.2-0.7,0.4-0.9,0.6c-0.2,0.2-0.3,0.5-0.3,0.9v0.4h4.7v0.9H324.5z"/>
		<path class="st4" d="M335,426.4c-0.6,0-1.2-0.2-1.7-0.5c-0.5-0.3-0.9-0.8-1.1-1.4c-0.3-0.6-0.4-1.4-0.4-2.4s0.1-1.7,0.4-2.4
			c0.3-0.6,0.6-1.1,1.1-1.4c0.5-0.3,1-0.5,1.7-0.5c0.6,0,1.2,0.2,1.7,0.5c0.5,0.3,0.9,0.8,1.1,1.4s0.4,1.4,0.4,2.4s-0.1,1.7-0.4,2.4
			c-0.3,0.6-0.6,1.1-1.1,1.4C336.2,426.3,335.7,426.4,335,426.4z M335,425.5c0.7,0,1.2-0.3,1.6-0.9c0.4-0.6,0.5-1.4,0.5-2.4
			s-0.2-1.9-0.5-2.4c-0.4-0.6-0.9-0.9-1.6-0.9c-0.7,0-1.2,0.3-1.6,0.9c-0.4,0.6-0.6,1.4-0.6,2.4s0.2,1.9,0.6,2.4
			C333.8,425.2,334.3,425.5,335,425.5z"/>
		<path class="st4" d="M341.1,418.1h0.8v8.2h-1v-7c-0.2,0.1-0.4,0.3-0.7,0.3c-0.2,0.1-0.5,0.1-0.7,0.1v-1c0.3,0,0.5-0.1,0.8-0.2
			C340.6,418.4,340.8,418.3,341.1,418.1z"/>
		<path class="st4" d="M344,426.3l3.9-7.2h-4.4v-1h5.6v0.9l-3.8,7.2H344z"/>
	</g>
</g>
<g>
	<g>
		<path class="st4" d="M236.9,426.3v-1.2c0-0.5,0.1-0.9,0.2-1.2c0.2-0.3,0.4-0.6,0.6-0.8c0.3-0.2,0.6-0.4,1-0.5l1.6-0.6
			c0.4-0.2,0.7-0.4,0.9-0.6s0.3-0.6,0.3-1c0-0.4-0.1-0.8-0.4-1c-0.3-0.3-0.7-0.4-1.2-0.4c-0.5,0-0.9,0.1-1.3,0.3
			c-0.3,0.2-0.5,0.5-0.6,1h-1.1c0-0.5,0.2-0.9,0.4-1.2c0.2-0.3,0.6-0.6,1-0.8c0.4-0.2,0.9-0.3,1.5-0.3c0.5,0,1,0.1,1.4,0.3
			c0.4,0.2,0.7,0.5,1,0.8c0.2,0.4,0.4,0.8,0.4,1.2c0,0.4-0.1,0.8-0.2,1.1c-0.2,0.3-0.4,0.6-0.7,0.8s-0.6,0.4-1,0.6l-1.7,0.7
			c-0.4,0.2-0.7,0.4-0.9,0.6c-0.2,0.2-0.3,0.5-0.3,0.9v0.4h4.7v0.9H236.9z"/>
		<path class="st4" d="M247.5,426.4c-0.6,0-1.2-0.2-1.7-0.5c-0.5-0.3-0.9-0.8-1.1-1.4c-0.3-0.6-0.4-1.4-0.4-2.4s0.1-1.7,0.4-2.4
			c0.3-0.6,0.6-1.1,1.1-1.4c0.5-0.3,1-0.5,1.7-0.5c0.6,0,1.2,0.2,1.7,0.5c0.5,0.3,0.9,0.8,1.1,1.4s0.4,1.4,0.4,2.4s-0.1,1.7-0.4,2.4
			c-0.3,0.6-0.6,1.1-1.1,1.4C248.7,426.3,248.1,426.4,247.5,426.4z M247.5,425.5c0.7,0,1.2-0.3,1.6-0.9c0.4-0.6,0.5-1.4,0.5-2.4
			s-0.2-1.9-0.5-2.4c-0.4-0.6-0.9-0.9-1.6-0.9c-0.7,0-1.2,0.3-1.6,0.9c-0.4,0.6-0.6,1.4-0.6,2.4s0.2,1.9,0.6,2.4
			C246.3,425.2,246.8,425.5,247.5,425.5z"/>
		<path class="st4" d="M253.5,418.1h0.8v8.2h-1v-7c-0.2,0.1-0.4,0.3-0.7,0.3c-0.2,0.1-0.5,0.1-0.7,0.1v-1c0.3,0,0.5-0.1,0.8-0.2
			C253,418.4,253.3,418.3,253.5,418.1z"/>
		<path class="st4" d="M259.6,426.4c-0.7,0-1.2-0.2-1.7-0.5c-0.5-0.4-0.9-0.8-1.1-1.5c-0.3-0.6-0.4-1.3-0.4-2.1
			c0-0.9,0.1-1.7,0.4-2.3c0.3-0.7,0.7-1.2,1.2-1.5c0.5-0.3,1.1-0.5,1.8-0.5c0.5,0,0.9,0.1,1.3,0.3c0.4,0.2,0.7,0.4,0.9,0.8
			c0.2,0.3,0.4,0.7,0.4,1.2h-1.1c-0.1-0.4-0.2-0.7-0.4-0.9c-0.2-0.2-0.6-0.3-1-0.3c-0.7,0-1.3,0.3-1.8,1c-0.4,0.6-0.6,1.5-0.6,2.6
			c0,0.2,0,0.3,0,0.6c0,0.2,0,0.4,0.1,0.6c0-0.6,0.2-1,0.4-1.4c0.2-0.3,0.5-0.6,0.9-0.7s0.7-0.2,1.1-0.2c0.5,0,0.9,0.1,1.3,0.3
			s0.7,0.5,0.9,0.9c0.2,0.4,0.3,0.8,0.3,1.3c0,0.5-0.1,0.9-0.4,1.3c-0.2,0.4-0.6,0.7-1,0.9S260.1,426.4,259.6,426.4z M259.6,425.5
			c0.5,0,0.9-0.1,1.2-0.4c0.3-0.3,0.5-0.7,0.5-1.2c0-0.5-0.2-0.9-0.5-1.2c-0.3-0.3-0.7-0.4-1.2-0.4c-0.3,0-0.6,0.1-0.9,0.2
			s-0.5,0.3-0.6,0.6c-0.1,0.2-0.2,0.5-0.2,0.8c0,0.5,0.2,0.9,0.5,1.2C258.7,425.3,259.1,425.5,259.6,425.5z"/>
	</g>
</g>
<g>
	<g>
		<path class="st4" d="M157.9,426.3v-1.2c0-0.5,0.1-0.9,0.2-1.2c0.2-0.3,0.4-0.6,0.6-0.8c0.3-0.2,0.6-0.4,1-0.5l1.6-0.6
			c0.4-0.2,0.7-0.4,0.9-0.6s0.3-0.6,0.3-1c0-0.4-0.1-0.8-0.4-1c-0.3-0.3-0.7-0.4-1.2-0.4c-0.5,0-0.9,0.1-1.3,0.3
			c-0.3,0.2-0.5,0.5-0.6,1h-1.1c0-0.5,0.2-0.9,0.4-1.2c0.2-0.3,0.6-0.6,1-0.8c0.4-0.2,0.9-0.3,1.5-0.3c0.5,0,1,0.1,1.4,0.3
			c0.4,0.2,0.7,0.5,1,0.8c0.2,0.4,0.4,0.8,0.4,1.2c0,0.4-0.1,0.8-0.2,1.1c-0.2,0.3-0.4,0.6-0.7,0.8s-0.6,0.4-1,0.6l-1.7,0.7
			c-0.4,0.2-0.7,0.4-0.9,0.6c-0.2,0.2-0.3,0.5-0.3,0.9v0.4h4.7v0.9H157.9z"/>
		<path class="st4" d="M168.5,426.4c-0.6,0-1.2-0.2-1.7-0.5c-0.5-0.3-0.9-0.8-1.1-1.4c-0.3-0.6-0.4-1.4-0.4-2.4s0.1-1.7,0.4-2.4
			c0.3-0.6,0.6-1.1,1.1-1.4c0.5-0.3,1-0.5,1.7-0.5c0.6,0,1.2,0.2,1.7,0.5c0.5,0.3,0.9,0.8,1.1,1.4s0.4,1.4,0.4,2.4s-0.1,1.7-0.4,2.4
			c-0.3,0.6-0.6,1.1-1.1,1.4C169.7,426.3,169.1,426.4,168.5,426.4z M168.5,425.5c0.7,0,1.2-0.3,1.6-0.9c0.4-0.6,0.5-1.4,0.5-2.4
			s-0.2-1.9-0.5-2.4c-0.4-0.6-0.9-0.9-1.6-0.9c-0.7,0-1.2,0.3-1.6,0.9c-0.4,0.6-0.6,1.4-0.6,2.4s0.2,1.9,0.6,2.4
			C167.3,425.2,167.8,425.5,168.5,425.5z"/>
		<path class="st4" d="M174.5,418.1h0.8v8.2h-1v-7c-0.2,0.1-0.4,0.3-0.7,0.3c-0.2,0.1-0.5,0.1-0.7,0.1v-1c0.3,0,0.5-0.1,0.8-0.2
			C174,418.4,174.3,418.3,174.5,418.1z"/>
		<path class="st4" d="M180.3,426.4c-0.5,0-1-0.1-1.4-0.3c-0.4-0.2-0.8-0.5-1-0.8c-0.3-0.4-0.4-0.8-0.4-1.3h1c0,0.5,0.2,0.9,0.5,1.1
			c0.3,0.3,0.8,0.4,1.3,0.4c0.6,0,1-0.2,1.4-0.5c0.3-0.4,0.5-0.8,0.5-1.3c0-1-0.7-1.6-2-1.6H178l0.4-4h4.5v0.9h-3.7l0.2-0.4
			l-0.3,2.8l-0.1-0.1c0.2,0,0.4-0.1,0.7-0.1s0.5,0,0.7,0c0.9,0,1.6,0.2,2.1,0.6s0.8,1,0.8,1.8c0,0.5-0.1,1-0.4,1.4
			c-0.2,0.4-0.6,0.8-1,1C181.4,426.3,180.9,426.4,180.3,426.4z"/>
	</g>
</g>
<g>
	<g>
		<path class="st4" d="M74.9,426.3v-1.2c0-0.5,0.1-0.9,0.2-1.2c0.2-0.3,0.4-0.6,0.6-0.8c0.3-0.2,0.6-0.4,1-0.5l1.6-0.6
			c0.4-0.2,0.7-0.4,0.9-0.6s0.3-0.6,0.3-1c0-0.4-0.1-0.8-0.4-1c-0.3-0.3-0.7-0.4-1.2-0.4c-0.5,0-0.9,0.1-1.3,0.3
			c-0.3,0.2-0.5,0.5-0.6,1h-1.1c0-0.5,0.2-0.9,0.4-1.2c0.2-0.3,0.6-0.6,1-0.8c0.4-0.2,0.9-0.3,1.5-0.3c0.5,0,1,0.1,1.4,0.3
			c0.4,0.2,0.7,0.5,1,0.8c0.2,0.4,0.4,0.8,0.4,1.2c0,0.4-0.1,0.8-0.2,1.1c-0.2,0.3-0.4,0.6-0.7,0.8s-0.6,0.4-1,0.6l-1.7,0.7
			c-0.4,0.2-0.7,0.4-0.9,0.6c-0.2,0.2-0.3,0.5-0.3,0.9v0.4h4.7v0.9H74.9z"/>
		<path class="st4" d="M85.5,426.4c-0.6,0-1.2-0.2-1.7-0.5c-0.5-0.3-0.9-0.8-1.1-1.4c-0.3-0.6-0.4-1.4-0.4-2.4s0.1-1.7,0.4-2.4
			c0.3-0.6,0.6-1.1,1.1-1.4c0.5-0.3,1-0.5,1.7-0.5c0.6,0,1.2,0.2,1.7,0.5c0.5,0.3,0.9,0.8,1.1,1.4s0.4,1.4,0.4,2.4s-0.1,1.7-0.4,2.4
			c-0.3,0.6-0.6,1.1-1.1,1.4C86.7,426.3,86.1,426.4,85.5,426.4z M85.5,425.5c0.7,0,1.2-0.3,1.6-0.9c0.4-0.6,0.5-1.4,0.5-2.4
			s-0.2-1.9-0.5-2.4c-0.4-0.6-0.9-0.9-1.6-0.9c-0.7,0-1.2,0.3-1.6,0.9c-0.4,0.6-0.6,1.4-0.6,2.4s0.2,1.9,0.6,2.4
			C84.3,425.2,84.8,425.5,85.5,425.5z"/>
		<path class="st4" d="M91.5,418.1h0.8v8.2h-1v-7c-0.2,0.1-0.4,0.3-0.7,0.3c-0.2,0.1-0.5,0.1-0.7,0.1v-1c0.3,0,0.5-0.1,0.8-0.2
			C91,418.4,91.3,418.3,91.5,418.1z"/>
		<path class="st4" d="M98.3,418h0.9v5.4h1.4v0.9h-1.4v2h-1v-2H94v-0.8L98.3,418z M98.2,419.6l-3.1,3.9h3.1V419.6z"/>
	</g>
</g>
<g>
	<g>
		<path class="st4" d="M487.9,426.3v-1.2c0-0.5,0.1-0.9,0.2-1.2c0.2-0.3,0.4-0.6,0.6-0.8c0.3-0.2,0.6-0.4,1-0.5l1.6-0.6
			c0.4-0.2,0.7-0.4,0.9-0.6s0.3-0.6,0.3-1c0-0.4-0.1-0.8-0.4-1c-0.3-0.3-0.7-0.4-1.2-0.4c-0.5,0-0.9,0.1-1.3,0.3
			c-0.3,0.2-0.5,0.5-0.6,1h-1.1c0-0.5,0.2-0.9,0.4-1.2c0.3-0.3,0.6-0.6,1-0.8c0.4-0.2,0.9-0.3,1.5-0.3c0.5,0,1,0.1,1.4,0.3
			c0.4,0.2,0.7,0.5,1,0.8c0.2,0.4,0.4,0.8,0.4,1.2c0,0.4-0.1,0.8-0.2,1.1c-0.2,0.3-0.4,0.6-0.7,0.8s-0.6,0.4-1,0.6l-1.7,0.7
			c-0.4,0.2-0.7,0.4-0.9,0.6c-0.2,0.2-0.3,0.5-0.3,0.9v0.4h4.7v0.9H487.9z"/>
		<path class="st4" d="M498.5,426.4c-0.6,0-1.2-0.2-1.7-0.5c-0.5-0.3-0.9-0.8-1.1-1.4c-0.3-0.6-0.4-1.4-0.4-2.4s0.1-1.7,0.4-2.4
			c0.3-0.6,0.6-1.1,1.1-1.4c0.5-0.3,1-0.5,1.7-0.5c0.6,0,1.2,0.2,1.7,0.5c0.5,0.3,0.9,0.8,1.1,1.4c0.3,0.6,0.4,1.4,0.4,2.4
			s-0.1,1.7-0.4,2.4c-0.3,0.6-0.6,1.1-1.1,1.4C499.7,426.3,499.1,426.4,498.5,426.4z M498.5,425.5c0.7,0,1.2-0.3,1.6-0.9
			c0.4-0.6,0.5-1.4,0.5-2.4s-0.2-1.9-0.5-2.4c-0.4-0.6-0.9-0.9-1.6-0.9c-0.7,0-1.2,0.3-1.6,0.9c-0.4,0.6-0.6,1.4-0.6,2.4
			s0.2,1.9,0.6,2.4C497.3,425.2,497.8,425.5,498.5,425.5z"/>
		<path class="st4" d="M504.5,418.1h0.8v8.2h-1v-7c-0.2,0.1-0.4,0.3-0.7,0.3c-0.2,0.1-0.5,0.1-0.7,0.1v-1c0.3,0,0.5-0.1,0.8-0.2
			C504,418.4,504.3,418.3,504.5,418.1z"/>
		<path class="st4" d="M510.3,426.4c-0.5,0-1-0.1-1.4-0.3c-0.4-0.2-0.7-0.5-1-0.9c-0.2-0.4-0.4-0.8-0.4-1.3h1.1
			c0,0.5,0.2,0.9,0.5,1.2s0.7,0.4,1.2,0.4c0.5,0,0.9-0.1,1.2-0.4c0.3-0.3,0.6-0.7,0.7-1.3c0.1-0.5,0.2-1.2,0.2-1.9
			c0-0.2,0-0.3,0-0.5c0-0.1,0-0.3-0.1-0.5c-0.1,0.5-0.2,0.9-0.4,1.2c-0.2,0.3-0.5,0.5-0.8,0.7c-0.3,0.2-0.7,0.2-1.1,0.2
			c-0.5,0-0.9-0.1-1.3-0.3c-0.4-0.2-0.7-0.5-0.9-0.9c-0.2-0.4-0.3-0.8-0.3-1.3c0-0.5,0.1-0.9,0.3-1.3c0.2-0.4,0.6-0.7,1-0.9
			c0.4-0.2,0.9-0.3,1.4-0.3c0.5,0,0.9,0.1,1.3,0.3c0.4,0.2,0.7,0.5,1,0.8c0.3,0.4,0.5,0.8,0.7,1.3s0.2,1.1,0.2,1.7
			c0,0.9-0.1,1.7-0.3,2.3c-0.2,0.7-0.6,1.2-1,1.5C511.7,426.2,511.1,426.4,510.3,426.4z M510.3,422.1c0.3,0,0.6-0.1,0.9-0.2
			c0.3-0.1,0.5-0.3,0.6-0.6c0.2-0.2,0.2-0.5,0.2-0.8c0-0.5-0.2-0.9-0.5-1.2c-0.3-0.3-0.7-0.4-1.2-0.4c-0.5,0-0.9,0.1-1.2,0.4
			c-0.3,0.3-0.5,0.7-0.5,1.2c0,0.5,0.2,0.9,0.5,1.2C509.4,422,509.8,422.1,510.3,422.1z"/>
	</g>
</g>
<g>
	<g>
		<path class="st4" d="M405.9,426.3v-1.2c0-0.5,0.1-0.9,0.2-1.2c0.2-0.3,0.4-0.6,0.6-0.8c0.3-0.2,0.6-0.4,1-0.5l1.6-0.6
			c0.4-0.2,0.7-0.4,0.9-0.6s0.3-0.6,0.3-1c0-0.4-0.1-0.8-0.4-1c-0.3-0.3-0.7-0.4-1.2-0.4c-0.5,0-0.9,0.1-1.3,0.3
			c-0.3,0.2-0.5,0.5-0.6,1h-1.1c0-0.5,0.2-0.9,0.4-1.2c0.3-0.3,0.6-0.6,1-0.8c0.4-0.2,0.9-0.3,1.5-0.3c0.5,0,1,0.1,1.4,0.3
			c0.4,0.2,0.7,0.5,1,0.8c0.2,0.4,0.4,0.8,0.4,1.2c0,0.4-0.1,0.8-0.2,1.1c-0.2,0.3-0.4,0.6-0.7,0.8s-0.6,0.4-1,0.6l-1.7,0.7
			c-0.4,0.2-0.7,0.4-0.9,0.6c-0.2,0.2-0.3,0.5-0.3,0.9v0.4h4.7v0.9H405.9z"/>
		<path class="st4" d="M416.5,426.4c-0.6,0-1.2-0.2-1.7-0.5c-0.5-0.3-0.9-0.8-1.1-1.4c-0.3-0.6-0.4-1.4-0.4-2.4s0.1-1.7,0.4-2.4
			c0.3-0.6,0.6-1.1,1.1-1.4c0.5-0.3,1-0.5,1.7-0.5c0.6,0,1.2,0.2,1.7,0.5c0.5,0.3,0.9,0.8,1.1,1.4c0.3,0.6,0.4,1.4,0.4,2.4
			s-0.1,1.7-0.4,2.4c-0.3,0.6-0.6,1.1-1.1,1.4C417.7,426.3,417.1,426.4,416.5,426.4z M416.5,425.5c0.7,0,1.2-0.3,1.6-0.9
			c0.4-0.6,0.5-1.4,0.5-2.4s-0.2-1.9-0.5-2.4c-0.4-0.6-0.9-0.9-1.6-0.9c-0.7,0-1.2,0.3-1.6,0.9c-0.4,0.6-0.6,1.4-0.6,2.4
			s0.2,1.9,0.6,2.4C415.3,425.2,415.8,425.5,416.5,425.5z"/>
		<path class="st4" d="M422.5,418.1h0.8v8.2h-1v-7c-0.2,0.1-0.4,0.3-0.7,0.3c-0.2,0.1-0.5,0.1-0.7,0.1v-1c0.3,0,0.5-0.1,0.8-0.2
			C422,418.4,422.3,418.3,422.5,418.1z"/>
		<path class="st4" d="M428.6,426.4c-0.6,0-1.2-0.1-1.7-0.3c-0.5-0.2-0.9-0.5-1.2-0.8s-0.4-0.8-0.4-1.2c0-0.4,0.1-0.8,0.3-1.1
			c0.2-0.3,0.5-0.5,0.9-0.7s0.8-0.2,1.3-0.2c0.1,0,0.2,0,0.4,0s0.2,0,0.4,0.1v0.3c-0.4,0-0.8,0.1-1.1,0.2c-0.3,0.1-0.6,0.3-0.8,0.6
			c-0.2,0.2-0.3,0.5-0.3,0.7c0,0.3,0.1,0.6,0.3,0.8c0.2,0.2,0.5,0.4,0.8,0.5c0.3,0.1,0.7,0.2,1.1,0.2c0.7,0,1.2-0.1,1.6-0.3
			c0.4-0.2,0.6-0.5,0.6-0.9c0-0.3-0.1-0.5-0.3-0.7c-0.2-0.2-0.5-0.4-0.8-0.5l-2.2-0.9c-0.3-0.1-0.5-0.2-0.8-0.4s-0.5-0.4-0.7-0.7
			c-0.2-0.3-0.3-0.6-0.3-1c0-0.4,0.1-0.8,0.4-1.1c0.2-0.3,0.6-0.6,1-0.8c0.4-0.2,1-0.3,1.6-0.3c0.6,0,1.1,0.1,1.5,0.3
			c0.4,0.2,0.8,0.5,1.1,0.8s0.4,0.7,0.4,1.2c0,0.3-0.1,0.7-0.3,0.9c-0.2,0.3-0.4,0.5-0.8,0.7c-0.3,0.2-0.7,0.3-1.2,0.3
			c-0.1,0-0.2,0-0.3,0c-0.1,0-0.2,0-0.4-0.1v-0.3c0.4,0,0.7-0.1,0.9-0.2c0.3-0.1,0.5-0.3,0.7-0.5c0.2-0.2,0.3-0.5,0.3-0.7
			c0-0.3-0.1-0.5-0.2-0.7s-0.4-0.4-0.7-0.5c-0.3-0.1-0.6-0.2-1-0.2c-0.4,0-0.7,0.1-1,0.2c-0.3,0.1-0.5,0.3-0.7,0.5
			c-0.2,0.2-0.3,0.4-0.3,0.6c0,0.3,0.1,0.5,0.3,0.7s0.5,0.3,0.8,0.5l2.2,0.9c0.6,0.2,1.1,0.5,1.4,0.8c0.3,0.3,0.5,0.7,0.5,1.3
			c0,0.4-0.1,0.8-0.4,1.1c-0.3,0.3-0.6,0.6-1.1,0.8C429.9,426.3,429.3,426.4,428.6,426.4z"/>
	</g>
</g>
<g>
	<g>
		<path class="st4" d="M573.1,426.3v-1.2c0-0.5,0.1-0.9,0.2-1.2c0.2-0.3,0.4-0.6,0.6-0.8c0.3-0.2,0.6-0.4,1-0.5l1.6-0.6
			c0.4-0.2,0.7-0.4,0.9-0.6s0.3-0.6,0.3-1c0-0.4-0.1-0.8-0.4-1c-0.3-0.3-0.7-0.4-1.2-0.4c-0.5,0-0.9,0.1-1.3,0.3
			c-0.3,0.2-0.5,0.5-0.6,1h-1.1c0-0.5,0.2-0.9,0.4-1.2c0.3-0.3,0.6-0.6,1-0.8c0.4-0.2,0.9-0.3,1.5-0.3c0.5,0,1,0.1,1.4,0.3
			c0.4,0.2,0.7,0.5,1,0.8c0.2,0.4,0.4,0.8,0.4,1.2c0,0.4-0.1,0.8-0.2,1.1c-0.2,0.3-0.4,0.6-0.7,0.8s-0.6,0.4-1,0.6l-1.7,0.7
			c-0.4,0.2-0.7,0.4-0.9,0.6c-0.2,0.2-0.3,0.5-0.3,0.9v0.4h4.7v0.9H573.1z"/>
		<path class="st4" d="M583.7,426.4c-0.6,0-1.2-0.2-1.7-0.5c-0.5-0.3-0.9-0.8-1.1-1.4c-0.3-0.6-0.4-1.4-0.4-2.4s0.1-1.7,0.4-2.4
			c0.3-0.6,0.6-1.1,1.1-1.4c0.5-0.3,1-0.5,1.7-0.5c0.6,0,1.2,0.2,1.7,0.5c0.5,0.3,0.9,0.8,1.1,1.4c0.3,0.6,0.4,1.4,0.4,2.4
			s-0.1,1.7-0.4,2.4c-0.3,0.6-0.6,1.1-1.1,1.4C584.9,426.3,584.3,426.4,583.7,426.4z M583.7,425.5c0.7,0,1.2-0.3,1.6-0.9
			c0.4-0.6,0.5-1.4,0.5-2.4s-0.2-1.9-0.5-2.4c-0.4-0.6-0.9-0.9-1.6-0.9c-0.7,0-1.2,0.3-1.6,0.9c-0.4,0.6-0.6,1.4-0.6,2.4
			s0.2,1.9,0.6,2.4C582.5,425.2,583,425.5,583.7,425.5z"/>
		<path class="st4" d="M588.4,426.3v-1.2c0-0.5,0.1-0.9,0.2-1.2s0.4-0.6,0.7-0.8s0.6-0.4,1-0.5l1.6-0.6c0.4-0.2,0.7-0.4,0.9-0.6
			s0.3-0.6,0.3-1c0-0.4-0.1-0.8-0.4-1c-0.3-0.3-0.7-0.4-1.2-0.4c-0.5,0-0.9,0.1-1.3,0.3c-0.3,0.2-0.5,0.5-0.6,1h-1.1
			c0-0.5,0.2-0.9,0.4-1.2c0.2-0.3,0.6-0.6,1-0.8c0.4-0.2,0.9-0.3,1.5-0.3c0.5,0,1,0.1,1.4,0.3c0.4,0.2,0.7,0.5,1,0.8
			s0.4,0.8,0.4,1.2c0,0.4-0.1,0.8-0.2,1.1c-0.2,0.3-0.4,0.6-0.7,0.8s-0.6,0.4-1,0.6l-1.7,0.7c-0.4,0.2-0.7,0.4-0.9,0.6
			c-0.2,0.2-0.3,0.5-0.3,0.9v0.4h4.7v0.9H588.4z"/>
		<path class="st4" d="M598.9,426.4c-0.6,0-1.2-0.2-1.7-0.5c-0.5-0.3-0.9-0.8-1.1-1.4c-0.3-0.6-0.4-1.4-0.4-2.4s0.1-1.7,0.4-2.4
			c0.3-0.6,0.6-1.1,1.1-1.4c0.5-0.3,1-0.5,1.7-0.5c0.6,0,1.2,0.2,1.7,0.5c0.5,0.3,0.9,0.8,1.1,1.4s0.4,1.4,0.4,2.4s-0.1,1.7-0.4,2.4
			c-0.3,0.6-0.6,1.1-1.1,1.4C600.1,426.3,599.6,426.4,598.9,426.4z M598.9,425.5c0.7,0,1.2-0.3,1.6-0.9s0.5-1.4,0.5-2.4
			s-0.2-1.9-0.5-2.4s-0.9-0.9-1.6-0.9c-0.7,0-1.2,0.3-1.6,0.9s-0.6,1.4-0.6,2.4s0.2,1.9,0.6,2.4S598.2,425.5,598.9,425.5z"/>
	</g>
</g>
<line class="st10" x1="40.5" y1="407.8" x2="639.5" y2="407.8"/>
</svg>
