<?xml version="1.0" encoding="utf-8"?>
<!-- Generator: Adobe Illustrator 24.0.2, SVG Export Plug-In . SVG Version: 6.00 Build 0)  -->
<svg version="1.1" id="Capa_1" xmlns="http://www.w3.org/2000/svg" xmlns:xlink="http://www.w3.org/1999/xlink" x="0px" y="0px"
	 viewBox="0 0 874 1043" style="enable-background:new 0 0 874 1043;" xml:space="preserve">
<style type="text/css">
	.st0{fill:#252525;}
	.st1{fill:#49ADA4;}
	.st2{fill:#B3E6E0;}
	.st3{fill:#FFFFFF;}
</style>
<rect x="21" y="960" class="st0" width="825" height="72"/>
<g>
	<circle class="st1" cx="61.18" cy="43.88" r="8.09"/>
	<path class="st1" d="M74.06,63.82v13.7c-0.01,3.79-2.13,7.26-5.51,9v15.22c0.14,4.07-3.05,7.49-7.12,7.63s-7.49-3.05-7.63-7.12
		c-0.01-0.17-0.01-0.34,0-0.5V86.53c-3.38-1.74-5.5-5.21-5.52-9.01v-13.7c0.02-5.58,4.55-10.09,10.12-10.11h5.52
		C69.52,53.73,74.04,58.24,74.06,63.82z"/>
	<circle class="st1" cx="142.4" cy="43.88" r="8.09"/>
	<path class="st1" d="M155.29,63.82v13.7c-0.01,3.79-2.13,7.26-5.51,9v15.22c0.14,4.07-3.05,7.49-7.12,7.63
		c-4.07,0.14-7.49-3.05-7.63-7.12c-0.01-0.17-0.01-0.34,0-0.5V86.53c-3.38-1.74-5.5-5.21-5.52-9.01v-13.7
		c0.02-5.58,4.55-10.09,10.12-10.11h5.52C150.74,53.73,155.27,58.24,155.29,63.82z"/>
	<circle class="st1" cx="223.63" cy="43.88" r="8.09"/>
	<path class="st1" d="M236.51,63.82v13.7c-0.01,3.79-2.13,7.26-5.51,9v15.22c0.14,4.07-3.05,7.49-7.12,7.63
		c-4.07,0.14-7.49-3.05-7.63-7.12c-0.01-0.17-0.01-0.34,0-0.5V86.53c-3.38-1.74-5.5-5.21-5.52-9.01v-13.7
		c0.02-5.58,4.55-10.09,10.12-10.11h5.52C231.97,53.73,236.49,58.24,236.51,63.82z"/>
	<circle class="st1" cx="304.85" cy="43.88" r="8.09"/>
	<path class="st1" d="M317.74,63.82v13.7c-0.01,3.79-2.13,7.26-5.51,9v15.22c0.14,4.07-3.05,7.49-7.12,7.63s-7.49-3.05-7.63-7.12
		c-0.01-0.17-0.01-0.34,0-0.5V86.53c-3.38-1.74-5.5-5.21-5.52-9.01v-13.7c0.02-5.58,4.55-10.09,10.12-10.11h5.52
		C313.2,53.73,317.72,58.24,317.74,63.82z"/>
	<circle class="st1" cx="386.08" cy="43.88" r="8.09"/>
	<path class="st1" d="M398.97,63.82v13.7c-0.01,3.79-2.13,7.26-5.51,9v15.22c0.14,4.07-3.05,7.49-7.12,7.63
		c-4.07,0.14-7.49-3.05-7.63-7.12c-0.01-0.17-0.01-0.34,0-0.5V86.53c-3.38-1.74-5.5-5.21-5.52-9.01v-13.7
		c0.02-5.58,4.55-10.09,10.12-10.11h5.52C394.42,53.73,398.94,58.24,398.97,63.82z"/>
	<circle class="st1" cx="467.31" cy="43.88" r="8.09"/>
	<path class="st1" d="M480.19,63.82v13.7c-0.01,3.79-2.13,7.26-5.51,9v15.22c0.14,4.07-3.05,7.49-7.12,7.63
		c-4.07,0.14-7.49-3.05-7.63-7.12c-0.01-0.17-0.01-0.34,0-0.5V86.53c-3.38-1.74-5.5-5.21-5.52-9.01v-13.7
		c0.02-5.58,4.55-10.09,10.12-10.11h5.52C475.65,53.73,480.17,58.24,480.19,63.82z"/>
	<circle class="st1" cx="548.53" cy="43.88" r="8.09"/>
	<path class="st1" d="M561.42,63.82v13.7c-0.01,3.79-2.13,7.26-5.51,9v15.22c0.14,4.07-3.05,7.49-7.12,7.63s-7.49-3.05-7.63-7.12
		c-0.01-0.17-0.01-0.34,0-0.5V86.53c-3.38-1.74-5.5-5.21-5.52-9.01v-13.7c0.02-5.58,4.55-10.09,10.12-10.11h5.52
		C556.87,53.73,561.39,58.24,561.42,63.82z"/>
	<circle class="st1" cx="629.76" cy="43.88" r="8.09"/>
	<path class="st1" d="M642.64,63.82v13.7c-0.01,3.79-2.13,7.26-5.51,9v15.22c0.14,4.07-3.05,7.49-7.12,7.63s-7.49-3.05-7.63-7.12
		c-0.01-0.17-0.01-0.34,0-0.5V86.53c-3.38-1.74-5.5-5.21-5.52-9.01v-13.7c0.02-5.58,4.55-10.09,10.12-10.11h5.52
		C638.1,53.73,642.62,58.24,642.64,63.82z"/>
	<circle class="st1" cx="710.98" cy="43.88" r="8.09"/>
	<path class="st1" d="M723.87,63.82v13.7c-0.01,3.79-2.13,7.26-5.51,9v15.22c0.14,4.07-3.05,7.49-7.12,7.63s-7.49-3.05-7.63-7.12
		c-0.01-0.17-0.01-0.34,0-0.5V86.53c-3.38-1.74-5.5-5.21-5.52-9.01v-13.7c0.02-5.58,4.55-10.09,10.12-10.11h5.52
		C719.32,53.73,723.85,58.24,723.87,63.82z"/>
	<circle class="st1" cx="792.21" cy="43.88" r="8.09"/>
	<path class="st1" d="M805.1,63.82v13.7c-0.01,3.79-2.13,7.26-5.51,9v15.22c0.14,4.07-3.05,7.49-7.12,7.63s-7.49-3.05-7.63-7.12
		c-0.01-0.17-0.01-0.34,0-0.5V86.53c-3.38-1.74-5.5-5.21-5.52-9.01v-13.7c0.02-5.58,4.55-10.09,10.12-10.11h5.52
		C800.55,53.73,805.07,58.24,805.1,63.82z"/>
</g>
<g>
	<circle class="st1" cx="61.18" cy="137.38" r="8.09"/>
	<path class="st1" d="M74.06,157.32v13.7c-0.01,3.79-2.13,7.26-5.51,9v15.22c0.14,4.07-3.05,7.49-7.12,7.63
		c-4.07,0.14-7.49-3.05-7.63-7.12c-0.01-0.17-0.01-0.34,0-0.5v-15.21c-3.38-1.74-5.5-5.21-5.52-9.01v-13.7
		c0.02-5.58,4.55-10.09,10.12-10.11h5.52C69.52,147.23,74.04,151.74,74.06,157.32z"/>
	<circle class="st1" cx="142.4" cy="137.38" r="8.09"/>
	<path class="st1" d="M155.29,157.32v13.7c-0.01,3.79-2.13,7.26-5.51,9v15.22c0.14,4.07-3.05,7.49-7.12,7.63
		c-4.07,0.14-7.49-3.05-7.63-7.12c-0.01-0.17-0.01-0.34,0-0.5v-15.21c-3.38-1.74-5.5-5.21-5.52-9.01v-13.7
		c0.02-5.58,4.55-10.09,10.12-10.11h5.52C150.74,147.23,155.27,151.74,155.29,157.32z"/>
	<circle class="st1" cx="223.63" cy="137.38" r="8.09"/>
	<path class="st1" d="M236.51,157.32v13.7c-0.01,3.79-2.13,7.26-5.51,9v15.22c0.14,4.07-3.05,7.49-7.12,7.63
		c-4.07,0.14-7.49-3.05-7.63-7.12c-0.01-0.17-0.01-0.34,0-0.5v-15.21c-3.38-1.74-5.5-5.21-5.52-9.01v-13.7
		c0.02-5.58,4.55-10.09,10.12-10.11h5.52C231.97,147.23,236.49,151.74,236.51,157.32z"/>
	<circle class="st1" cx="304.85" cy="137.38" r="8.09"/>
	<path class="st1" d="M317.74,157.32v13.7c-0.01,3.79-2.13,7.26-5.51,9v15.22c0.14,4.07-3.05,7.49-7.12,7.63
		c-4.07,0.14-7.49-3.05-7.63-7.12c-0.01-0.17-0.01-0.34,0-0.5v-15.21c-3.38-1.74-5.5-5.21-5.52-9.01v-13.7
		c0.02-5.58,4.55-10.09,10.12-10.11h5.52C313.2,147.23,317.72,151.74,317.74,157.32z"/>
	<circle class="st1" cx="386.08" cy="137.38" r="8.09"/>
	<path class="st1" d="M398.97,157.32v13.7c-0.01,3.79-2.13,7.26-5.51,9v15.22c0.14,4.07-3.05,7.49-7.12,7.63
		c-4.07,0.14-7.49-3.05-7.63-7.12c-0.01-0.17-0.01-0.34,0-0.5v-15.21c-3.38-1.74-5.5-5.21-5.52-9.01v-13.7
		c0.02-5.58,4.55-10.09,10.12-10.11h5.52C394.42,147.23,398.94,151.74,398.97,157.32z"/>
	<circle class="st1" cx="467.31" cy="137.38" r="8.09"/>
	<path class="st1" d="M480.19,157.32v13.7c-0.01,3.79-2.13,7.26-5.51,9v15.22c0.14,4.07-3.05,7.49-7.12,7.63
		c-4.07,0.14-7.49-3.05-7.63-7.12c-0.01-0.17-0.01-0.34,0-0.5v-15.21c-3.38-1.74-5.5-5.21-5.52-9.01v-13.7
		c0.02-5.58,4.55-10.09,10.12-10.11h5.52C475.65,147.23,480.17,151.74,480.19,157.32z"/>
	<circle class="st1" cx="548.53" cy="137.38" r="8.09"/>
	<path class="st1" d="M561.42,157.32v13.7c-0.01,3.79-2.13,7.26-5.51,9v15.22c0.14,4.07-3.05,7.49-7.12,7.63
		c-4.07,0.14-7.49-3.05-7.63-7.12c-0.01-0.17-0.01-0.34,0-0.5v-15.21c-3.38-1.74-5.5-5.21-5.52-9.01v-13.7
		c0.02-5.58,4.55-10.09,10.12-10.11h5.52C556.87,147.23,561.39,151.74,561.42,157.32z"/>
	<circle class="st1" cx="629.76" cy="137.38" r="8.09"/>
	<path class="st1" d="M642.64,157.32v13.7c-0.01,3.79-2.13,7.26-5.51,9v15.22c0.14,4.07-3.05,7.49-7.12,7.63
		c-4.07,0.14-7.49-3.05-7.63-7.12c-0.01-0.17-0.01-0.34,0-0.5v-15.21c-3.38-1.74-5.5-5.21-5.52-9.01v-13.7
		c0.02-5.58,4.55-10.09,10.12-10.11h5.52C638.1,147.23,642.62,151.74,642.64,157.32z"/>
	<circle class="st1" cx="710.98" cy="137.38" r="8.09"/>
	<path class="st1" d="M723.87,157.32v13.7c-0.01,3.79-2.13,7.26-5.51,9v15.22c0.14,4.07-3.05,7.49-7.12,7.63
		c-4.07,0.14-7.49-3.05-7.63-7.12c-0.01-0.17-0.01-0.34,0-0.5v-15.21c-3.38-1.74-5.5-5.21-5.52-9.01v-13.7
		c0.02-5.58,4.55-10.09,10.12-10.11h5.52C719.32,147.23,723.85,151.74,723.87,157.32z"/>
	<circle class="st1" cx="792.21" cy="137.38" r="8.09"/>
	<path class="st1" d="M805.1,157.32v13.7c-0.01,3.79-2.13,7.26-5.51,9v15.22c0.14,4.07-3.05,7.49-7.12,7.63
		c-4.07,0.14-7.49-3.05-7.63-7.12c-0.01-0.17-0.01-0.34,0-0.5v-15.21c-3.38-1.74-5.5-5.21-5.52-9.01v-13.7
		c0.02-5.58,4.55-10.09,10.12-10.11h5.52C800.55,147.23,805.07,151.74,805.1,157.32z"/>
</g>
<g>
	<circle class="st1" cx="61.18" cy="230.88" r="8.09"/>
	<path class="st1" d="M74.06,250.82v13.7c-0.01,3.79-2.13,7.26-5.51,9v15.22c0.14,4.07-3.05,7.49-7.12,7.63
		c-4.07,0.14-7.49-3.05-7.63-7.12c-0.01-0.17-0.01-0.34,0-0.5v-15.21c-3.38-1.74-5.5-5.21-5.52-9.01v-13.7
		c0.02-5.58,4.55-10.09,10.12-10.11h5.52C69.52,240.73,74.04,245.25,74.06,250.82z"/>
	<circle class="st1" cx="142.4" cy="230.88" r="8.09"/>
	<path class="st1" d="M155.29,250.82v13.7c-0.01,3.79-2.13,7.26-5.51,9v15.22c0.14,4.07-3.05,7.49-7.12,7.63
		c-4.07,0.14-7.49-3.05-7.63-7.12c-0.01-0.17-0.01-0.34,0-0.5v-15.21c-3.38-1.74-5.5-5.21-5.52-9.01v-13.7
		c0.02-5.58,4.55-10.09,10.12-10.11h5.52C150.74,240.73,155.27,245.25,155.29,250.82z"/>
	<circle class="st1" cx="223.63" cy="230.88" r="8.09"/>
	<path class="st1" d="M236.51,250.82v13.7c-0.01,3.79-2.13,7.26-5.51,9v15.22c0.14,4.07-3.05,7.49-7.12,7.63
		c-4.07,0.14-7.49-3.05-7.63-7.12c-0.01-0.17-0.01-0.34,0-0.5v-15.21c-3.38-1.74-5.5-5.21-5.52-9.01v-13.7
		c0.02-5.58,4.55-10.09,10.12-10.11h5.52C231.97,240.73,236.49,245.25,236.51,250.82z"/>
	<circle class="st1" cx="304.85" cy="230.88" r="8.09"/>
	<path class="st1" d="M317.74,250.82v13.7c-0.01,3.79-2.13,7.26-5.51,9v15.22c0.14,4.07-3.05,7.49-7.12,7.63
		c-4.07,0.14-7.49-3.05-7.63-7.12c-0.01-0.17-0.01-0.34,0-0.5v-15.21c-3.38-1.74-5.5-5.21-5.52-9.01v-13.7
		c0.02-5.58,4.55-10.09,10.12-10.11h5.52C313.2,240.73,317.72,245.25,317.74,250.82z"/>
	<circle class="st1" cx="386.08" cy="230.88" r="8.09"/>
	<path class="st1" d="M398.97,250.82v13.7c-0.01,3.79-2.13,7.26-5.51,9v15.22c0.14,4.07-3.05,7.49-7.12,7.63
		c-4.07,0.14-7.49-3.05-7.63-7.12c-0.01-0.17-0.01-0.34,0-0.5v-15.21c-3.38-1.74-5.5-5.21-5.52-9.01v-13.7
		c0.02-5.58,4.55-10.09,10.12-10.11h5.52C394.42,240.73,398.94,245.25,398.97,250.82z"/>
	<circle class="st1" cx="467.31" cy="230.88" r="8.09"/>
	<path class="st1" d="M480.19,250.82v13.7c-0.01,3.79-2.13,7.26-5.51,9v15.22c0.14,4.07-3.05,7.49-7.12,7.63
		c-4.07,0.14-7.49-3.05-7.63-7.12c-0.01-0.17-0.01-0.34,0-0.5v-15.21c-3.38-1.74-5.5-5.21-5.52-9.01v-13.7
		c0.02-5.58,4.55-10.09,10.12-10.11h5.52C475.65,240.73,480.17,245.25,480.19,250.82z"/>
</g>
<g>
	<circle class="st2" cx="548.53" cy="230.88" r="8.09"/>
	<path class="st2" d="M561.42,250.82v13.7c-0.01,3.79-2.13,7.26-5.51,9v15.22c0.14,4.07-3.05,7.49-7.12,7.63
		c-4.07,0.14-7.49-3.05-7.63-7.12c-0.01-0.17-0.01-0.34,0-0.5v-15.21c-3.38-1.74-5.5-5.21-5.52-9.01v-13.7
		c0.02-5.58,4.55-10.09,10.12-10.11h5.52C556.87,240.73,561.39,245.25,561.42,250.82z"/>
	<circle class="st2" cx="629.76" cy="230.88" r="8.09"/>
	<path class="st2" d="M642.64,250.82v13.7c-0.01,3.79-2.13,7.26-5.51,9v15.22c0.14,4.07-3.05,7.49-7.12,7.63
		c-4.07,0.14-7.49-3.05-7.63-7.12c-0.01-0.17-0.01-0.34,0-0.5v-15.21c-3.38-1.74-5.5-5.21-5.52-9.01v-13.7
		c0.02-5.58,4.55-10.09,10.12-10.11h5.52C638.1,240.73,642.62,245.25,642.64,250.82z"/>
	<circle class="st2" cx="710.98" cy="230.88" r="8.09"/>
	<path class="st2" d="M723.87,250.82v13.7c-0.01,3.79-2.13,7.26-5.51,9v15.22c0.14,4.07-3.05,7.49-7.12,7.63
		c-4.07,0.14-7.49-3.05-7.63-7.12c-0.01-0.17-0.01-0.34,0-0.5v-15.21c-3.38-1.74-5.5-5.21-5.52-9.01v-13.7
		c0.02-5.58,4.55-10.09,10.12-10.11h5.52C719.32,240.73,723.85,245.25,723.87,250.82z"/>
	<circle class="st2" cx="792.21" cy="230.88" r="8.09"/>
	<path class="st2" d="M805.1,250.82v13.7c-0.01,3.79-2.13,7.26-5.51,9v15.22c0.14,4.07-3.05,7.49-7.12,7.63
		c-4.07,0.14-7.49-3.05-7.63-7.12c-0.01-0.17-0.01-0.34,0-0.5v-15.21c-3.38-1.74-5.5-5.21-5.52-9.01v-13.7
		c0.02-5.58,4.55-10.09,10.12-10.11h5.52C800.55,240.73,805.07,245.25,805.1,250.82z"/>
</g>
<g>
	<circle class="st2" cx="61.18" cy="324.38" r="8.09"/>
	<path class="st2" d="M74.06,344.32v13.7c-0.01,3.79-2.13,7.26-5.51,9v15.22c0.14,4.07-3.05,7.49-7.12,7.63
		c-4.07,0.14-7.49-3.05-7.63-7.12c-0.01-0.17-0.01-0.34,0-0.5v-15.21c-3.38-1.74-5.5-5.21-5.52-9.01v-13.7
		c0.02-5.58,4.55-10.09,10.12-10.11h5.52C69.52,334.23,74.04,338.75,74.06,344.32z"/>
	<circle class="st2" cx="142.4" cy="324.38" r="8.09"/>
	<path class="st2" d="M155.29,344.32v13.7c-0.01,3.79-2.13,7.26-5.51,9v15.22c0.14,4.07-3.05,7.49-7.12,7.63
		c-4.07,0.14-7.49-3.05-7.63-7.12c-0.01-0.17-0.01-0.34,0-0.5v-15.21c-3.38-1.74-5.5-5.21-5.52-9.01v-13.7
		c0.02-5.58,4.55-10.09,10.12-10.11h5.52C150.74,334.23,155.27,338.75,155.29,344.32z"/>
	<circle class="st2" cx="223.63" cy="324.38" r="8.09"/>
	<path class="st2" d="M236.51,344.32v13.7c-0.01,3.79-2.13,7.26-5.51,9v15.22c0.14,4.07-3.05,7.49-7.12,7.63
		c-4.07,0.14-7.49-3.05-7.63-7.12c-0.01-0.17-0.01-0.34,0-0.5v-15.21c-3.38-1.74-5.5-5.21-5.52-9.01v-13.7
		c0.02-5.58,4.55-10.09,10.12-10.11h5.52C231.97,334.23,236.49,338.75,236.51,344.32z"/>
	<circle class="st2" cx="304.85" cy="324.38" r="8.09"/>
	<path class="st2" d="M317.74,344.32v13.7c-0.01,3.79-2.13,7.26-5.51,9v15.22c0.14,4.07-3.05,7.49-7.12,7.63
		c-4.07,0.14-7.49-3.05-7.63-7.12c-0.01-0.17-0.01-0.34,0-0.5v-15.21c-3.38-1.74-5.5-5.21-5.52-9.01v-13.7
		c0.02-5.58,4.55-10.09,10.12-10.11h5.52C313.2,334.23,317.72,338.75,317.74,344.32z"/>
	<circle class="st2" cx="386.08" cy="324.38" r="8.09"/>
	<path class="st2" d="M398.97,344.32v13.7c-0.01,3.79-2.13,7.26-5.51,9v15.22c0.14,4.07-3.05,7.49-7.12,7.63
		c-4.07,0.14-7.49-3.05-7.63-7.12c-0.01-0.17-0.01-0.34,0-0.5v-15.21c-3.38-1.74-5.5-5.21-5.52-9.01v-13.7
		c0.02-5.58,4.55-10.09,10.12-10.11h5.52C394.42,334.23,398.94,338.75,398.97,344.32z"/>
	<circle class="st2" cx="467.31" cy="324.38" r="8.09"/>
	<path class="st2" d="M480.19,344.32v13.7c-0.01,3.79-2.13,7.26-5.51,9v15.22c0.14,4.07-3.05,7.49-7.12,7.63
		c-4.07,0.14-7.49-3.05-7.63-7.12c-0.01-0.17-0.01-0.34,0-0.5v-15.21c-3.38-1.74-5.5-5.21-5.52-9.01v-13.7
		c0.02-5.58,4.55-10.09,10.12-10.11h5.52C475.65,334.23,480.17,338.75,480.19,344.32z"/>
	<circle class="st2" cx="548.53" cy="324.38" r="8.09"/>
	<path class="st2" d="M561.42,344.32v13.7c-0.01,3.79-2.13,7.26-5.51,9v15.22c0.14,4.07-3.05,7.49-7.12,7.63
		c-4.07,0.14-7.49-3.05-7.63-7.12c-0.01-0.17-0.01-0.34,0-0.5v-15.21c-3.38-1.74-5.5-5.21-5.52-9.01v-13.7
		c0.02-5.58,4.55-10.09,10.12-10.11h5.52C556.87,334.23,561.39,338.75,561.42,344.32z"/>
	<circle class="st2" cx="629.76" cy="324.38" r="8.09"/>
	<path class="st2" d="M642.64,344.32v13.7c-0.01,3.79-2.13,7.26-5.51,9v15.22c0.14,4.07-3.05,7.49-7.12,7.63
		c-4.07,0.14-7.49-3.05-7.63-7.12c-0.01-0.17-0.01-0.34,0-0.5v-15.21c-3.38-1.74-5.5-5.21-5.52-9.01v-13.7
		c0.02-5.58,4.55-10.09,10.12-10.11h5.52C638.1,334.23,642.62,338.75,642.64,344.32z"/>
	<circle class="st2" cx="710.98" cy="324.38" r="8.09"/>
	<path class="st2" d="M723.87,344.32v13.7c-0.01,3.79-2.13,7.26-5.51,9v15.22c0.14,4.07-3.05,7.49-7.12,7.63
		c-4.07,0.14-7.49-3.05-7.63-7.12c-0.01-0.17-0.01-0.34,0-0.5v-15.21c-3.38-1.74-5.5-5.21-5.52-9.01v-13.7
		c0.02-5.58,4.55-10.09,10.12-10.11h5.52C719.32,334.23,723.85,338.75,723.87,344.32z"/>
	<circle class="st2" cx="792.21" cy="324.38" r="8.09"/>
	<path class="st2" d="M805.1,344.32v13.7c-0.01,3.79-2.13,7.26-5.51,9v15.22c0.14,4.07-3.05,7.49-7.12,7.63
		c-4.07,0.14-7.49-3.05-7.63-7.12c-0.01-0.17-0.01-0.34,0-0.5v-15.21c-3.38-1.74-5.5-5.21-5.52-9.01v-13.7
		c0.02-5.58,4.55-10.09,10.12-10.11h5.52C800.55,334.23,805.07,338.75,805.1,344.32z"/>
	<circle class="st2" cx="61.18" cy="417.88" r="8.09"/>
	<path class="st2" d="M74.06,437.83v13.7c-0.01,3.79-2.13,7.26-5.51,9v15.22c0.14,4.07-3.05,7.49-7.12,7.63
		c-4.07,0.14-7.49-3.05-7.63-7.12c-0.01-0.17-0.01-0.34,0-0.5v-15.21c-3.38-1.74-5.5-5.21-5.52-9.01v-13.7
		c0.02-5.58,4.55-10.09,10.12-10.11h5.52C69.52,427.73,74.04,432.25,74.06,437.83z"/>
	<circle class="st2" cx="142.4" cy="417.88" r="8.09"/>
	<path class="st2" d="M155.29,437.83v13.7c-0.01,3.79-2.13,7.26-5.51,9v15.22c0.14,4.07-3.05,7.49-7.12,7.63
		c-4.07,0.14-7.49-3.05-7.63-7.12c-0.01-0.17-0.01-0.34,0-0.5v-15.21c-3.38-1.74-5.5-5.21-5.52-9.01v-13.7
		c0.02-5.58,4.55-10.09,10.12-10.11h5.52C150.74,427.73,155.27,432.25,155.29,437.83z"/>
	<circle class="st2" cx="223.63" cy="417.88" r="8.09"/>
	<path class="st2" d="M236.51,437.83v13.7c-0.01,3.79-2.13,7.26-5.51,9v15.22c0.14,4.07-3.05,7.49-7.12,7.63
		c-4.07,0.14-7.49-3.05-7.63-7.12c-0.01-0.17-0.01-0.34,0-0.5v-15.21c-3.38-1.74-5.5-5.21-5.52-9.01v-13.7
		c0.02-5.58,4.55-10.09,10.12-10.11h5.52C231.97,427.73,236.49,432.25,236.51,437.83z"/>
	<circle class="st2" cx="304.85" cy="417.88" r="8.09"/>
	<path class="st2" d="M317.74,437.83v13.7c-0.01,3.79-2.13,7.26-5.51,9v15.22c0.14,4.07-3.05,7.49-7.12,7.63
		c-4.07,0.14-7.49-3.05-7.63-7.12c-0.01-0.17-0.01-0.34,0-0.5v-15.21c-3.38-1.74-5.5-5.21-5.52-9.01v-13.7
		c0.02-5.58,4.55-10.09,10.12-10.11h5.52C313.2,427.73,317.72,432.25,317.74,437.83z"/>
	<circle class="st2" cx="386.08" cy="417.88" r="8.09"/>
	<path class="st2" d="M398.97,437.83v13.7c-0.01,3.79-2.13,7.26-5.51,9v15.22c0.14,4.07-3.05,7.49-7.12,7.63
		c-4.07,0.14-7.49-3.05-7.63-7.12c-0.01-0.17-0.01-0.34,0-0.5v-15.21c-3.38-1.74-5.5-5.21-5.52-9.01v-13.7
		c0.02-5.58,4.55-10.09,10.12-10.11h5.52C394.42,427.73,398.94,432.25,398.97,437.83z"/>
	<circle class="st2" cx="467.31" cy="417.88" r="8.09"/>
	<path class="st2" d="M480.19,437.83v13.7c-0.01,3.79-2.13,7.26-5.51,9v15.22c0.14,4.07-3.05,7.49-7.12,7.63
		c-4.07,0.14-7.49-3.05-7.63-7.12c-0.01-0.17-0.01-0.34,0-0.5v-15.21c-3.38-1.74-5.5-5.21-5.52-9.01v-13.7
		c0.02-5.58,4.55-10.09,10.12-10.11h5.52C475.65,427.73,480.17,432.25,480.19,437.83z"/>
	<circle class="st2" cx="548.53" cy="417.88" r="8.09"/>
	<path class="st2" d="M561.42,437.83v13.7c-0.01,3.79-2.13,7.26-5.51,9v15.22c0.14,4.07-3.05,7.49-7.12,7.63
		c-4.07,0.14-7.49-3.05-7.63-7.12c-0.01-0.17-0.01-0.34,0-0.5v-15.21c-3.38-1.74-5.5-5.21-5.52-9.01v-13.7
		c0.02-5.58,4.55-10.09,10.12-10.11h5.52C556.87,427.73,561.39,432.25,561.42,437.83z"/>
	<circle class="st2" cx="629.76" cy="417.88" r="8.09"/>
	<path class="st2" d="M642.64,437.83v13.7c-0.01,3.79-2.13,7.26-5.51,9v15.22c0.14,4.07-3.05,7.49-7.12,7.63
		c-4.07,0.14-7.49-3.05-7.63-7.12c-0.01-0.17-0.01-0.34,0-0.5v-15.21c-3.38-1.74-5.5-5.21-5.52-9.01v-13.7
		c0.02-5.58,4.55-10.09,10.12-10.11h5.52C638.1,427.73,642.62,432.25,642.64,437.83z"/>
	<circle class="st2" cx="710.98" cy="417.88" r="8.09"/>
	<path class="st2" d="M723.87,437.83v13.7c-0.01,3.79-2.13,7.26-5.51,9v15.22c0.14,4.07-3.05,7.49-7.12,7.63
		c-4.07,0.14-7.49-3.05-7.63-7.12c-0.01-0.17-0.01-0.34,0-0.5v-15.21c-3.38-1.74-5.5-5.21-5.52-9.01v-13.7
		c0.02-5.58,4.55-10.09,10.12-10.11h5.52C719.32,427.73,723.85,432.25,723.87,437.83z"/>
	<circle class="st2" cx="792.21" cy="417.88" r="8.09"/>
	<path class="st2" d="M805.1,437.83v13.7c-0.01,3.79-2.13,7.26-5.51,9v15.22c0.14,4.07-3.05,7.49-7.12,7.63
		c-4.07,0.14-7.49-3.05-7.63-7.12c-0.01-0.17-0.01-0.34,0-0.5v-15.21c-3.38-1.74-5.5-5.21-5.52-9.01v-13.7
		c0.02-5.58,4.55-10.09,10.12-10.11h5.52C800.55,427.73,805.07,432.25,805.1,437.83z"/>
	<circle class="st2" cx="61.18" cy="511.38" r="8.09"/>
	<path class="st2" d="M74.06,531.33v13.7c-0.01,3.79-2.13,7.26-5.51,9v15.22c0.14,4.07-3.05,7.49-7.12,7.63s-7.49-3.05-7.63-7.12
		c-0.01-0.17-0.01-0.34,0-0.5v-15.21c-3.38-1.74-5.5-5.21-5.52-9.01v-13.7c0.02-5.58,4.55-10.09,10.12-10.11h5.52
		C69.52,521.23,74.04,525.75,74.06,531.33z"/>
	<circle class="st2" cx="142.4" cy="511.38" r="8.09"/>
	<path class="st2" d="M155.29,531.33v13.7c-0.01,3.79-2.13,7.26-5.51,9v15.22c0.14,4.07-3.05,7.49-7.12,7.63
		c-4.07,0.14-7.49-3.05-7.63-7.12c-0.01-0.17-0.01-0.34,0-0.5v-15.21c-3.38-1.74-5.5-5.21-5.52-9.01v-13.7
		c0.02-5.58,4.55-10.09,10.12-10.11h5.52C150.74,521.23,155.27,525.75,155.29,531.33z"/>
	<circle class="st2" cx="223.63" cy="511.38" r="8.09"/>
	<path class="st2" d="M236.51,531.33v13.7c-0.01,3.79-2.13,7.26-5.51,9v15.22c0.14,4.07-3.05,7.49-7.12,7.63
		c-4.07,0.14-7.49-3.05-7.63-7.12c-0.01-0.17-0.01-0.34,0-0.5v-15.21c-3.38-1.74-5.5-5.21-5.52-9.01v-13.7
		c0.02-5.58,4.55-10.09,10.12-10.11h5.52C231.97,521.23,236.49,525.75,236.51,531.33z"/>
	<circle class="st2" cx="304.85" cy="511.38" r="8.09"/>
	<path class="st2" d="M317.74,531.33v13.7c-0.01,3.79-2.13,7.26-5.51,9v15.22c0.14,4.07-3.05,7.49-7.12,7.63s-7.49-3.05-7.63-7.12
		c-0.01-0.17-0.01-0.34,0-0.5v-15.21c-3.38-1.74-5.5-5.21-5.52-9.01v-13.7c0.02-5.58,4.55-10.09,10.12-10.11h5.52
		C313.2,521.23,317.72,525.75,317.74,531.33z"/>
	<circle class="st2" cx="386.08" cy="511.38" r="8.09"/>
	<path class="st2" d="M398.97,531.33v13.7c-0.01,3.79-2.13,7.26-5.51,9v15.22c0.14,4.07-3.05,7.49-7.12,7.63
		c-4.07,0.14-7.49-3.05-7.63-7.12c-0.01-0.17-0.01-0.34,0-0.5v-15.21c-3.38-1.74-5.5-5.21-5.52-9.01v-13.7
		c0.02-5.58,4.55-10.09,10.12-10.11h5.52C394.42,521.23,398.94,525.75,398.97,531.33z"/>
	<circle class="st2" cx="467.31" cy="511.38" r="8.09"/>
	<path class="st2" d="M480.19,531.33v13.7c-0.01,3.79-2.13,7.26-5.51,9v15.22c0.14,4.07-3.05,7.49-7.12,7.63
		c-4.07,0.14-7.49-3.05-7.63-7.12c-0.01-0.17-0.01-0.34,0-0.5v-15.21c-3.38-1.74-5.5-5.21-5.52-9.01v-13.7
		c0.02-5.58,4.55-10.09,10.12-10.11h5.52C475.65,521.23,480.17,525.75,480.19,531.33z"/>
	<circle class="st2" cx="548.53" cy="511.38" r="8.09"/>
	<path class="st2" d="M561.42,531.33v13.7c-0.01,3.79-2.13,7.26-5.51,9v15.22c0.14,4.07-3.05,7.49-7.12,7.63s-7.49-3.05-7.63-7.12
		c-0.01-0.17-0.01-0.34,0-0.5v-15.21c-3.38-1.74-5.5-5.21-5.52-9.01v-13.7c0.02-5.58,4.55-10.09,10.12-10.11h5.52
		C556.87,521.23,561.39,525.75,561.42,531.33z"/>
	<circle class="st2" cx="629.76" cy="511.38" r="8.09"/>
	<path class="st2" d="M642.64,531.33v13.7c-0.01,3.79-2.13,7.26-5.51,9v15.22c0.14,4.07-3.05,7.49-7.12,7.63s-7.49-3.05-7.63-7.12
		c-0.01-0.17-0.01-0.34,0-0.5v-15.21c-3.38-1.74-5.5-5.21-5.52-9.01v-13.7c0.02-5.58,4.55-10.09,10.12-10.11h5.52
		C638.1,521.23,642.62,525.75,642.64,531.33z"/>
	<circle class="st2" cx="710.98" cy="511.38" r="8.09"/>
	<path class="st2" d="M723.87,531.33v13.7c-0.01,3.79-2.13,7.26-5.51,9v15.22c0.14,4.07-3.05,7.49-7.12,7.63s-7.49-3.05-7.63-7.12
		c-0.01-0.17-0.01-0.34,0-0.5v-15.21c-3.38-1.74-5.5-5.21-5.52-9.01v-13.7c0.02-5.58,4.55-10.09,10.12-10.11h5.52
		C719.32,521.23,723.85,525.75,723.87,531.33z"/>
	<circle class="st2" cx="792.21" cy="511.38" r="8.09"/>
	<path class="st2" d="M805.1,531.33v13.7c-0.01,3.79-2.13,7.26-5.51,9v15.22c0.14,4.07-3.05,7.49-7.12,7.63s-7.49-3.05-7.63-7.12
		c-0.01-0.17-0.01-0.34,0-0.5v-15.21c-3.38-1.74-5.5-5.21-5.52-9.01v-13.7c0.02-5.58,4.55-10.09,10.12-10.11h5.52
		C800.55,521.23,805.07,525.75,805.1,531.33z"/>
	<circle class="st2" cx="61.18" cy="604.88" r="8.09"/>
	<path class="st2" d="M74.06,624.83v13.7c-0.01,3.79-2.13,7.26-5.51,9v15.22c0.14,4.07-3.05,7.49-7.12,7.63
		c-4.07,0.14-7.49-3.05-7.63-7.12c-0.01-0.17-0.01-0.34,0-0.5v-15.21c-3.38-1.74-5.5-5.21-5.52-9.01v-13.7
		c0.02-5.58,4.55-10.09,10.12-10.11h5.52C69.52,614.73,74.04,619.25,74.06,624.83z"/>
	<circle class="st2" cx="142.4" cy="604.88" r="8.09"/>
	<path class="st2" d="M155.29,624.83v13.7c-0.01,3.79-2.13,7.26-5.51,9v15.22c0.14,4.07-3.05,7.49-7.12,7.63
		c-4.07,0.14-7.49-3.05-7.63-7.12c-0.01-0.17-0.01-0.34,0-0.5v-15.21c-3.38-1.74-5.5-5.21-5.52-9.01v-13.7
		c0.02-5.58,4.55-10.09,10.12-10.11h5.52C150.74,614.73,155.27,619.25,155.29,624.83z"/>
	<circle class="st2" cx="223.63" cy="604.88" r="8.09"/>
	<path class="st2" d="M236.51,624.83v13.7c-0.01,3.79-2.13,7.26-5.51,9v15.22c0.14,4.07-3.05,7.49-7.12,7.63
		c-4.07,0.14-7.49-3.05-7.63-7.12c-0.01-0.17-0.01-0.34,0-0.5v-15.21c-3.38-1.74-5.5-5.21-5.52-9.01v-13.7
		c0.02-5.58,4.55-10.09,10.12-10.11h5.52C231.97,614.73,236.49,619.25,236.51,624.83z"/>
	<circle class="st2" cx="304.85" cy="604.88" r="8.09"/>
	<path class="st2" d="M317.74,624.83v13.7c-0.01,3.79-2.13,7.26-5.51,9v15.22c0.14,4.07-3.05,7.49-7.12,7.63
		c-4.07,0.14-7.49-3.05-7.63-7.12c-0.01-0.17-0.01-0.34,0-0.5v-15.21c-3.38-1.74-5.5-5.21-5.52-9.01v-13.7
		c0.02-5.58,4.55-10.09,10.12-10.11h5.52C313.2,614.73,317.72,619.25,317.74,624.83z"/>
	<circle class="st2" cx="386.08" cy="604.88" r="8.09"/>
	<path class="st2" d="M398.97,624.83v13.7c-0.01,3.79-2.13,7.26-5.51,9v15.22c0.14,4.07-3.05,7.49-7.12,7.63
		c-4.07,0.14-7.49-3.05-7.63-7.12c-0.01-0.17-0.01-0.34,0-0.5v-15.21c-3.38-1.74-5.5-5.21-5.52-9.01v-13.7
		c0.02-5.58,4.55-10.09,10.12-10.11h5.52C394.42,614.73,398.94,619.25,398.97,624.83z"/>
	<circle class="st2" cx="467.31" cy="604.88" r="8.09"/>
	<path class="st2" d="M480.19,624.83v13.7c-0.01,3.79-2.13,7.26-5.51,9v15.22c0.14,4.07-3.05,7.49-7.12,7.63
		c-4.07,0.14-7.49-3.05-7.63-7.12c-0.01-0.17-0.01-0.34,0-0.5v-15.21c-3.38-1.74-5.5-5.21-5.52-9.01v-13.7
		c0.02-5.58,4.55-10.09,10.12-10.11h5.52C475.65,614.73,480.17,619.25,480.19,624.83z"/>
	<circle class="st2" cx="548.53" cy="604.88" r="8.09"/>
	<path class="st2" d="M561.42,624.83v13.7c-0.01,3.79-2.13,7.26-5.51,9v15.22c0.14,4.07-3.05,7.49-7.12,7.63
		c-4.07,0.14-7.49-3.05-7.63-7.12c-0.01-0.17-0.01-0.34,0-0.5v-15.21c-3.38-1.74-5.5-5.21-5.52-9.01v-13.7
		c0.02-5.58,4.55-10.09,10.12-10.11h5.52C556.87,614.73,561.39,619.25,561.42,624.83z"/>
	<circle class="st2" cx="629.76" cy="604.88" r="8.09"/>
	<path class="st2" d="M642.64,624.83v13.7c-0.01,3.79-2.13,7.26-5.51,9v15.22c0.14,4.07-3.05,7.49-7.12,7.63
		c-4.07,0.14-7.49-3.05-7.63-7.12c-0.01-0.17-0.01-0.34,0-0.5v-15.21c-3.38-1.74-5.5-5.21-5.52-9.01v-13.7
		c0.02-5.58,4.55-10.09,10.12-10.11h5.52C638.1,614.73,642.62,619.25,642.64,624.83z"/>
	<circle class="st2" cx="710.98" cy="604.88" r="8.09"/>
	<path class="st2" d="M723.87,624.83v13.7c-0.01,3.79-2.13,7.26-5.51,9v15.22c0.14,4.07-3.05,7.49-7.12,7.63
		c-4.07,0.14-7.49-3.05-7.63-7.12c-0.01-0.17-0.01-0.34,0-0.5v-15.21c-3.38-1.74-5.5-5.21-5.52-9.01v-13.7
		c0.02-5.58,4.55-10.09,10.12-10.11h5.52C719.32,614.73,723.85,619.25,723.87,624.83z"/>
	<circle class="st2" cx="792.21" cy="604.88" r="8.09"/>
	<path class="st2" d="M805.1,624.83v13.7c-0.01,3.79-2.13,7.26-5.51,9v15.22c0.14,4.07-3.05,7.49-7.12,7.63
		c-4.07,0.14-7.49-3.05-7.63-7.12c-0.01-0.17-0.01-0.34,0-0.5v-15.21c-3.38-1.74-5.5-5.21-5.52-9.01v-13.7
		c0.02-5.58,4.55-10.09,10.12-10.11h5.52C800.55,614.73,805.07,619.25,805.1,624.83z"/>
	<circle class="st2" cx="61.18" cy="698.38" r="8.09"/>
	<path class="st2" d="M74.06,718.33v13.7c-0.01,3.79-2.13,7.26-5.51,9v15.22c0.14,4.07-3.05,7.49-7.12,7.63s-7.49-3.05-7.63-7.12
		c-0.01-0.17-0.01-0.34,0-0.5v-15.21c-3.38-1.74-5.5-5.21-5.52-9.01v-13.7c0.02-5.58,4.55-10.09,10.12-10.11h5.52
		C69.52,708.24,74.04,712.75,74.06,718.33z"/>
	<circle class="st2" cx="142.4" cy="698.38" r="8.09"/>
	<path class="st2" d="M155.29,718.33v13.7c-0.01,3.79-2.13,7.26-5.51,9v15.22c0.14,4.07-3.05,7.49-7.12,7.63
		c-4.07,0.14-7.49-3.05-7.63-7.12c-0.01-0.17-0.01-0.34,0-0.5v-15.21c-3.38-1.74-5.5-5.21-5.52-9.01v-13.7
		c0.02-5.58,4.55-10.09,10.12-10.11h5.52C150.74,708.24,155.27,712.75,155.29,718.33z"/>
	<circle class="st2" cx="223.63" cy="698.38" r="8.09"/>
	<path class="st2" d="M236.51,718.33v13.7c-0.01,3.79-2.13,7.26-5.51,9v15.22c0.14,4.07-3.05,7.49-7.12,7.63
		c-4.07,0.14-7.49-3.05-7.63-7.12c-0.01-0.17-0.01-0.34,0-0.5v-15.21c-3.38-1.74-5.5-5.21-5.52-9.01v-13.7
		c0.02-5.58,4.55-10.09,10.12-10.11h5.52C231.97,708.24,236.49,712.75,236.51,718.33z"/>
	<circle class="st2" cx="304.85" cy="698.38" r="8.09"/>
	<path class="st2" d="M317.74,718.33v13.7c-0.01,3.79-2.13,7.26-5.51,9v15.22c0.14,4.07-3.05,7.49-7.12,7.63s-7.49-3.05-7.63-7.12
		c-0.01-0.17-0.01-0.34,0-0.5v-15.21c-3.38-1.74-5.5-5.21-5.52-9.01v-13.7c0.02-5.58,4.55-10.09,10.12-10.11h5.52
		C313.2,708.24,317.72,712.75,317.74,718.33z"/>
	<circle class="st2" cx="386.08" cy="698.38" r="8.09"/>
	<path class="st2" d="M398.97,718.33v13.7c-0.01,3.79-2.13,7.26-5.51,9v15.22c0.14,4.07-3.05,7.49-7.12,7.63
		c-4.07,0.14-7.49-3.05-7.63-7.12c-0.01-0.17-0.01-0.34,0-0.5v-15.21c-3.38-1.74-5.5-5.21-5.52-9.01v-13.7
		c0.02-5.58,4.55-10.09,10.12-10.11h5.52C394.42,708.24,398.94,712.75,398.97,718.33z"/>
	<circle class="st2" cx="467.31" cy="698.38" r="8.09"/>
	<path class="st2" d="M480.19,718.33v13.7c-0.01,3.79-2.13,7.26-5.51,9v15.22c0.14,4.07-3.05,7.49-7.12,7.63
		c-4.07,0.14-7.49-3.05-7.63-7.12c-0.01-0.17-0.01-0.34,0-0.5v-15.21c-3.38-1.74-5.5-5.21-5.52-9.01v-13.7
		c0.02-5.58,4.55-10.09,10.12-10.11h5.52C475.65,708.24,480.17,712.75,480.19,718.33z"/>
	<circle class="st2" cx="548.53" cy="698.38" r="8.09"/>
	<path class="st2" d="M561.42,718.33v13.7c-0.01,3.79-2.13,7.26-5.51,9v15.22c0.14,4.07-3.05,7.49-7.12,7.63s-7.49-3.05-7.63-7.12
		c-0.01-0.17-0.01-0.34,0-0.5v-15.21c-3.38-1.74-5.5-5.21-5.52-9.01v-13.7c0.02-5.58,4.55-10.09,10.12-10.11h5.52
		C556.87,708.24,561.39,712.75,561.42,718.33z"/>
	<circle class="st2" cx="629.76" cy="698.38" r="8.09"/>
	<path class="st2" d="M642.64,718.33v13.7c-0.01,3.79-2.13,7.26-5.51,9v15.22c0.14,4.07-3.05,7.49-7.12,7.63s-7.49-3.05-7.63-7.12
		c-0.01-0.17-0.01-0.34,0-0.5v-15.21c-3.38-1.74-5.5-5.21-5.52-9.01v-13.7c0.02-5.58,4.55-10.09,10.12-10.11h5.52
		C638.1,708.24,642.62,712.75,642.64,718.33z"/>
	<circle class="st2" cx="710.98" cy="698.38" r="8.09"/>
	<path class="st2" d="M723.87,718.33v13.7c-0.01,3.79-2.13,7.26-5.51,9v15.22c0.14,4.07-3.05,7.49-7.12,7.63s-7.49-3.05-7.63-7.12
		c-0.01-0.17-0.01-0.34,0-0.5v-15.21c-3.38-1.74-5.5-5.21-5.52-9.01v-13.7c0.02-5.58,4.55-10.09,10.12-10.11h5.52
		C719.32,708.24,723.85,712.75,723.87,718.33z"/>
	<circle class="st2" cx="792.21" cy="698.38" r="8.09"/>
	<path class="st2" d="M805.1,718.33v13.7c-0.01,3.79-2.13,7.26-5.51,9v15.22c0.14,4.07-3.05,7.49-7.12,7.63s-7.49-3.05-7.63-7.12
		c-0.01-0.17-0.01-0.34,0-0.5v-15.21c-3.38-1.74-5.5-5.21-5.52-9.01v-13.7c0.02-5.58,4.55-10.09,10.12-10.11h5.52
		C800.55,708.24,805.07,712.75,805.1,718.33z"/>
	<circle class="st2" cx="61.18" cy="791.88" r="8.09"/>
	<path class="st2" d="M74.06,811.83v13.7c-0.01,3.79-2.13,7.26-5.51,9v15.22c0.14,4.07-3.05,7.49-7.12,7.63
		c-4.07,0.14-7.49-3.05-7.63-7.12c-0.01-0.17-0.01-0.34,0-0.5v-15.21c-3.38-1.74-5.5-5.21-5.52-9.01v-13.7
		c0.02-5.58,4.55-10.09,10.12-10.11h5.52C69.52,801.74,74.04,806.25,74.06,811.83z"/>
	<circle class="st2" cx="142.4" cy="791.88" r="8.09"/>
	<path class="st2" d="M155.29,811.83v13.7c-0.01,3.79-2.13,7.26-5.51,9v15.22c0.14,4.07-3.05,7.49-7.12,7.63
		c-4.07,0.14-7.49-3.05-7.63-7.12c-0.01-0.17-0.01-0.34,0-0.5v-15.21c-3.38-1.74-5.5-5.21-5.52-9.01v-13.7
		c0.02-5.58,4.55-10.09,10.12-10.11h5.52C150.74,801.74,155.27,806.25,155.29,811.83z"/>
	<circle class="st2" cx="223.63" cy="791.88" r="8.09"/>
	<path class="st2" d="M236.51,811.83v13.7c-0.01,3.79-2.13,7.26-5.51,9v15.22c0.14,4.07-3.05,7.49-7.12,7.63
		c-4.07,0.14-7.49-3.05-7.63-7.12c-0.01-0.17-0.01-0.34,0-0.5v-15.21c-3.38-1.74-5.5-5.21-5.52-9.01v-13.7
		c0.02-5.58,4.55-10.09,10.12-10.11h5.52C231.97,801.74,236.49,806.25,236.51,811.83z"/>
	<circle class="st2" cx="304.85" cy="791.88" r="8.09"/>
	<path class="st2" d="M317.74,811.83v13.7c-0.01,3.79-2.13,7.26-5.51,9v15.22c0.14,4.07-3.05,7.49-7.12,7.63
		c-4.07,0.14-7.49-3.05-7.63-7.12c-0.01-0.17-0.01-0.34,0-0.5v-15.21c-3.38-1.74-5.5-5.21-5.52-9.01v-13.7
		c0.02-5.58,4.55-10.09,10.12-10.11h5.52C313.2,801.74,317.72,806.25,317.74,811.83z"/>
	<circle class="st2" cx="386.08" cy="791.88" r="8.09"/>
	<path class="st2" d="M398.97,811.83v13.7c-0.01,3.79-2.13,7.26-5.51,9v15.22c0.14,4.07-3.05,7.49-7.12,7.63
		c-4.07,0.14-7.49-3.05-7.63-7.12c-0.01-0.17-0.01-0.34,0-0.5v-15.21c-3.38-1.74-5.5-5.21-5.52-9.01v-13.7
		c0.02-5.58,4.55-10.09,10.12-10.11h5.52C394.42,801.74,398.94,806.25,398.97,811.83z"/>
	<circle class="st2" cx="467.31" cy="791.88" r="8.09"/>
	<path class="st2" d="M480.19,811.83v13.7c-0.01,3.79-2.13,7.26-5.51,9v15.22c0.14,4.07-3.05,7.49-7.12,7.63
		c-4.07,0.14-7.49-3.05-7.63-7.12c-0.01-0.17-0.01-0.34,0-0.5v-15.21c-3.38-1.74-5.5-5.21-5.52-9.01v-13.7
		c0.02-5.58,4.55-10.09,10.12-10.11h5.52C475.65,801.74,480.17,806.25,480.19,811.83z"/>
	<circle class="st2" cx="548.53" cy="791.88" r="8.09"/>
	<path class="st2" d="M561.42,811.83v13.7c-0.01,3.79-2.13,7.26-5.51,9v15.22c0.14,4.07-3.05,7.49-7.12,7.63
		c-4.07,0.14-7.49-3.05-7.63-7.12c-0.01-0.17-0.01-0.34,0-0.5v-15.21c-3.38-1.74-5.5-5.21-5.52-9.01v-13.7
		c0.02-5.58,4.55-10.09,10.12-10.11h5.52C556.87,801.74,561.39,806.25,561.42,811.83z"/>
	<circle class="st2" cx="629.76" cy="791.88" r="8.09"/>
	<path class="st2" d="M642.64,811.83v13.7c-0.01,3.79-2.13,7.26-5.51,9v15.22c0.14,4.07-3.05,7.49-7.12,7.63
		c-4.07,0.14-7.49-3.05-7.63-7.12c-0.01-0.17-0.01-0.34,0-0.5v-15.21c-3.38-1.74-5.5-5.21-5.52-9.01v-13.7
		c0.02-5.58,4.55-10.09,10.12-10.11h5.52C638.1,801.74,642.62,806.25,642.64,811.83z"/>
	<circle class="st2" cx="710.98" cy="791.88" r="8.09"/>
	<path class="st2" d="M723.87,811.83v13.7c-0.01,3.79-2.13,7.26-5.51,9v15.22c0.14,4.07-3.05,7.49-7.12,7.63
		c-4.07,0.14-7.49-3.05-7.63-7.12c-0.01-0.17-0.01-0.34,0-0.5v-15.21c-3.38-1.74-5.5-5.21-5.52-9.01v-13.7
		c0.02-5.58,4.55-10.09,10.12-10.11h5.52C719.32,801.74,723.85,806.25,723.87,811.83z"/>
	<circle class="st2" cx="792.21" cy="791.88" r="8.09"/>
	<path class="st2" d="M805.1,811.83v13.7c-0.01,3.79-2.13,7.26-5.51,9v15.22c0.14,4.07-3.05,7.49-7.12,7.63
		c-4.07,0.14-7.49-3.05-7.63-7.12c-0.01-0.17-0.01-0.34,0-0.5v-15.21c-3.38-1.74-5.5-5.21-5.52-9.01v-13.7
		c0.02-5.58,4.55-10.09,10.12-10.11h5.52C800.55,801.74,805.07,806.25,805.1,811.83z"/>
	<circle class="st2" cx="61.18" cy="885.38" r="8.09"/>
	<path class="st2" d="M74.06,905.33v13.7c-0.01,3.79-2.13,7.26-5.51,9v15.22c0.14,4.07-3.05,7.49-7.12,7.63s-7.49-3.05-7.63-7.12
		c-0.01-0.17-0.01-0.34,0-0.5v-15.21c-3.38-1.74-5.5-5.21-5.52-9.01v-13.7c0.02-5.58,4.55-10.09,10.12-10.11h5.52
		C69.52,895.24,74.04,899.75,74.06,905.33z"/>
	<circle class="st2" cx="142.4" cy="885.38" r="8.09"/>
	<path class="st2" d="M155.29,905.33v13.7c-0.01,3.79-2.13,7.26-5.51,9v15.22c0.14,4.07-3.05,7.49-7.12,7.63
		c-4.07,0.14-7.49-3.05-7.63-7.12c-0.01-0.17-0.01-0.34,0-0.5v-15.21c-3.38-1.74-5.5-5.21-5.52-9.01v-13.7
		c0.02-5.58,4.55-10.09,10.12-10.11h5.52C150.74,895.24,155.27,899.75,155.29,905.33z"/>
	<circle class="st2" cx="223.63" cy="885.38" r="8.09"/>
	<path class="st2" d="M236.51,905.33v13.7c-0.01,3.79-2.13,7.26-5.51,9v15.22c0.14,4.07-3.05,7.49-7.12,7.63
		c-4.07,0.14-7.49-3.05-7.63-7.12c-0.01-0.17-0.01-0.34,0-0.5v-15.21c-3.38-1.74-5.5-5.21-5.52-9.01v-13.7
		c0.02-5.58,4.55-10.09,10.12-10.11h5.52C231.97,895.24,236.49,899.75,236.51,905.33z"/>
	<circle class="st2" cx="304.85" cy="885.38" r="8.09"/>
	<path class="st2" d="M317.74,905.33v13.7c-0.01,3.79-2.13,7.26-5.51,9v15.22c0.14,4.07-3.05,7.49-7.12,7.63s-7.49-3.05-7.63-7.12
		c-0.01-0.17-0.01-0.34,0-0.5v-15.21c-3.38-1.74-5.5-5.21-5.52-9.01v-13.7c0.02-5.58,4.55-10.09,10.12-10.11h5.52
		C313.2,895.24,317.72,899.75,317.74,905.33z"/>
	<circle class="st2" cx="386.08" cy="885.38" r="8.09"/>
	<path class="st2" d="M398.97,905.33v13.7c-0.01,3.79-2.13,7.26-5.51,9v15.22c0.14,4.07-3.05,7.49-7.12,7.63
		c-4.07,0.14-7.49-3.05-7.63-7.12c-0.01-0.17-0.01-0.34,0-0.5v-15.21c-3.38-1.74-5.5-5.21-5.52-9.01v-13.7
		c0.02-5.58,4.55-10.09,10.12-10.11h5.52C394.42,895.24,398.94,899.75,398.97,905.33z"/>
	<circle class="st2" cx="467.31" cy="885.38" r="8.09"/>
	<path class="st2" d="M480.19,905.33v13.7c-0.01,3.79-2.13,7.26-5.51,9v15.22c0.14,4.07-3.05,7.49-7.12,7.63
		c-4.07,0.14-7.49-3.05-7.63-7.12c-0.01-0.17-0.01-0.34,0-0.5v-15.21c-3.38-1.74-5.5-5.21-5.52-9.01v-13.7
		c0.02-5.58,4.55-10.09,10.12-10.11h5.52C475.65,895.24,480.17,899.75,480.19,905.33z"/>
	<circle class="st2" cx="548.53" cy="885.38" r="8.09"/>
	<path class="st2" d="M561.42,905.33v13.7c-0.01,3.79-2.13,7.26-5.51,9v15.22c0.14,4.07-3.05,7.49-7.12,7.63s-7.49-3.05-7.63-7.12
		c-0.01-0.17-0.01-0.34,0-0.5v-15.21c-3.38-1.74-5.5-5.21-5.52-9.01v-13.7c0.02-5.58,4.55-10.09,10.12-10.11h5.52
		C556.87,895.24,561.39,899.75,561.42,905.33z"/>
	<circle class="st2" cx="629.76" cy="885.38" r="8.09"/>
	<path class="st2" d="M642.64,905.33v13.7c-0.01,3.79-2.13,7.26-5.51,9v15.22c0.14,4.07-3.05,7.49-7.12,7.63s-7.49-3.05-7.63-7.12
		c-0.01-0.17-0.01-0.34,0-0.5v-15.21c-3.38-1.74-5.5-5.21-5.52-9.01v-13.7c0.02-5.58,4.55-10.09,10.12-10.11h5.52
		C638.1,895.24,642.62,899.75,642.64,905.33z"/>
	<circle class="st2" cx="710.98" cy="885.38" r="8.09"/>
	<path class="st2" d="M723.87,905.33v13.7c-0.01,3.79-2.13,7.26-5.51,9v15.22c0.14,4.07-3.05,7.49-7.12,7.63s-7.49-3.05-7.63-7.12
		c-0.01-0.17-0.01-0.34,0-0.5v-15.21c-3.38-1.74-5.5-5.21-5.52-9.01v-13.7c0.02-5.58,4.55-10.09,10.12-10.11h5.52
		C719.32,895.24,723.85,899.75,723.87,905.33z"/>
	<circle class="st2" cx="792.21" cy="885.38" r="8.09"/>
	<path class="st2" d="M805.1,905.33v13.7c-0.01,3.79-2.13,7.26-5.51,9v15.22c0.14,4.07-3.05,7.49-7.12,7.63s-7.49-3.05-7.63-7.12
		c-0.01-0.17-0.01-0.34,0-0.5v-15.21c-3.38-1.74-5.5-5.21-5.52-9.01v-13.7c0.02-5.58,4.55-10.09,10.12-10.11h5.52
		C800.55,895.24,805.07,899.75,805.1,905.33z"/>
</g>
<g>
	<g>
		<path class="st3" d="M188.76,1004.76c-1.8,0-3.46-0.31-4.97-0.94c-1.51-0.63-2.74-1.58-3.68-2.86c-0.94-1.28-1.44-2.91-1.51-4.88
			h4.64c0,1,0.25,1.82,0.74,2.46c0.49,0.64,1.16,1.12,1.99,1.43c0.83,0.31,1.75,0.47,2.75,0.47c0.96,0,1.82-0.13,2.57-0.38
			c0.75-0.25,1.35-0.62,1.78-1.09c0.43-0.47,0.65-1.04,0.65-1.69c0-0.87-0.26-1.55-0.79-2.04c-0.53-0.49-1.37-0.95-2.53-1.36
			l-5.12-2.04c-2-0.79-3.53-1.7-4.6-2.74c-1.07-1.04-1.6-2.47-1.6-4.3c0-2.11,0.83-3.81,2.5-5.12c1.67-1.31,3.99-1.96,6.98-1.96
			c2.91,0,5.15,0.68,6.74,2.03c1.59,1.35,2.49,3.24,2.7,5.65h-4.64c-0.17-1.03-0.64-1.85-1.4-2.47c-0.76-0.62-1.89-0.93-3.4-0.93
			c-1.33,0-2.39,0.28-3.16,0.83c-0.77,0.55-1.16,1.25-1.16,2.09c0,0.72,0.24,1.29,0.73,1.71c0.49,0.42,1.24,0.82,2.27,1.21l5.68,2.2
			c1.92,0.75,3.39,1.69,4.42,2.82s1.54,2.55,1.54,4.26c0,1.56-0.39,2.91-1.18,4.05c-0.79,1.14-1.93,2.02-3.44,2.65
			C192.75,1004.45,190.92,1004.76,188.76,1004.76z"/>
		<path class="st3" d="M207.98,981.24c-0.92,0-1.64-0.24-2.15-0.73c-0.51-0.49-0.77-1.16-0.77-2.03c0-0.84,0.26-1.51,0.77-2.01
			c0.51-0.5,1.23-0.75,2.15-0.75c0.89,0,1.6,0.25,2.13,0.75s0.79,1.17,0.79,2.01c0,0.87-0.26,1.54-0.79,2.03
			C209.58,981,208.87,981.24,207.98,981.24z M205.62,1004.2v-19.48h4.72v19.48H205.62z"/>
		<path class="st3" d="M218.34,1004.2v-19.4h4.12l0.6,3.84v15.56H218.34z M231.66,1004.2v-11.36c0-1.44-0.35-2.53-1.04-3.26
			s-1.6-1.1-2.72-1.1c-0.95,0-1.78,0.26-2.51,0.78c-0.73,0.52-1.3,1.3-1.71,2.35c-0.41,1.05-0.62,2.35-0.62,3.91h-1.56
			c0-2.52,0.31-4.62,0.94-6.29c0.63-1.67,1.51-2.92,2.66-3.75c1.15-0.83,2.49-1.24,4.04-1.24c1.6,0,2.94,0.36,4.01,1.07
			c1.07,0.71,1.88,1.72,2.42,3.01s0.81,2.8,0.81,4.52v11.36H231.66z"/>
		<path class="st3" d="M260.62,1004.76c-1.65,0-3.17-0.43-4.54-1.28c-1.37-0.85-2.47-2.05-3.3-3.59c-0.83-1.54-1.24-3.34-1.24-5.41
			c0-2.13,0.41-3.97,1.23-5.5c0.82-1.53,1.92-2.71,3.29-3.52c1.37-0.81,2.89-1.22,4.56-1.22c1.55,0,2.88,0.31,4.01,0.93
			c1.13,0.62,2.03,1.46,2.72,2.52c0.69,1.06,1.15,2.26,1.39,3.59c0.24,1.33,0.25,2.71,0.04,4.12H255.3v-2.56h10.14l-0.92,0.6
			c0.04-0.63,0.01-1.26-0.09-1.9c-0.1-0.64-0.29-1.23-0.57-1.76c-0.28-0.53-0.68-0.96-1.19-1.29c-0.51-0.33-1.17-0.49-1.97-0.49
			c-0.96,0-1.77,0.24-2.44,0.72c-0.67,0.48-1.17,1.13-1.52,1.96c-0.35,0.83-0.52,1.76-0.52,2.8v1.88c0,1.09,0.16,2.06,0.49,2.9
			c0.33,0.84,0.81,1.5,1.46,1.98c0.65,0.48,1.46,0.72,2.45,0.72c0.92,0,1.69-0.21,2.32-0.64c0.63-0.43,1.03-1.07,1.2-1.92h4.76
			c-0.2,1.25-0.67,2.36-1.41,3.31c-0.74,0.95-1.7,1.7-2.87,2.24S262.11,1004.76,260.62,1004.76z"/>
		<path class="st3" d="M281.74,1004.76c-1.63,0-3.11-0.43-4.45-1.29c-1.34-0.86-2.41-2.07-3.2-3.62c-0.79-1.55-1.19-3.37-1.19-5.45
			c0-2.05,0.38-3.84,1.15-5.37s1.79-2.71,3.08-3.54c1.29-0.83,2.72-1.25,4.29-1.25c1.44,0,2.69,0.34,3.74,1.03s1.86,1.7,2.42,3.05
			c0.56,1.35,0.84,3,0.84,4.96h-1.48c0-1.01-0.21-1.88-0.62-2.59c-0.41-0.71-0.96-1.26-1.63-1.64c-0.67-0.38-1.4-0.57-2.19-0.57
			c-0.95,0-1.78,0.25-2.51,0.74c-0.73,0.49-1.3,1.18-1.71,2.07c-0.41,0.89-0.62,1.92-0.62,3.11c0,1.23,0.21,2.29,0.62,3.2
			c0.41,0.91,0.98,1.61,1.71,2.12c0.73,0.51,1.55,0.76,2.47,0.76c0.75,0,1.46-0.2,2.15-0.61c0.69-0.41,1.25-0.98,1.68-1.71
			c0.43-0.73,0.65-1.59,0.65-2.56h1.48c0,2.04-0.3,3.74-0.91,5.09c-0.61,1.35-1.42,2.37-2.43,3.05
			C284.06,1004.42,282.95,1004.76,281.74,1004.76z M287.82,1004.2l-0.88-4.8v-22.64h4.76v27.44H287.82z"/>
		<path class="st3" d="M298.74,984.72h4.72v11.92c0,1.27,0.31,2.22,0.94,2.85c0.63,0.63,1.49,0.95,2.58,0.95
			c0.93,0,1.78-0.24,2.55-0.73c0.77-0.49,1.38-1.21,1.84-2.16c0.46-0.95,0.69-2.14,0.69-3.55h1.28c0,2.37-0.31,4.34-0.92,5.9
			c-0.61,1.56-1.46,2.73-2.54,3.5s-2.33,1.16-3.74,1.16c-1.39,0-2.64-0.25-3.76-0.74s-2.01-1.29-2.66-2.38
			c-0.65-1.09-0.98-2.53-0.98-4.32V984.72z M312.06,984.72h4.72v19.48h-4.72V984.72z"/>
		<path class="st3" d="M331.58,1004.76c-1.63,0-3.14-0.42-4.53-1.27c-1.39-0.85-2.52-2.04-3.38-3.58s-1.29-3.35-1.29-5.43
			c0-2.2,0.43-4.06,1.29-5.59c0.86-1.53,1.99-2.68,3.38-3.47c1.39-0.79,2.9-1.18,4.53-1.18c1.27,0,2.38,0.2,3.35,0.61
			c0.97,0.41,1.79,0.95,2.47,1.64c0.68,0.69,1.21,1.45,1.6,2.29s0.63,1.69,0.74,2.54l-4.76,0.12c-0.21-0.85-0.61-1.56-1.19-2.12
			c-0.58-0.56-1.33-0.84-2.25-0.84c-0.76,0-1.47,0.21-2.14,0.63c-0.67,0.42-1.21,1.07-1.63,1.95s-0.63,2.02-0.63,3.42
			c0,1.33,0.2,2.44,0.59,3.33c0.39,0.89,0.92,1.55,1.59,2c0.67,0.45,1.41,0.67,2.22,0.67c1.2,0,2.07-0.29,2.62-0.87
			c0.55-0.58,0.82-1.36,0.82-2.33h4.76c0,1.37-0.31,2.63-0.94,3.76c-0.63,1.13-1.55,2.04-2.76,2.71
			C334.83,1004.42,333.34,1004.76,331.58,1004.76z"/>
		<path class="st3" d="M351.4,1004.76c-1.67,0-3.06-0.29-4.17-0.87c-1.11-0.58-1.95-1.34-2.51-2.29c-0.56-0.95-0.84-1.97-0.84-3.08
			c0-1.23,0.32-2.26,0.97-3.09c0.65-0.83,1.56-1.46,2.75-1.88c1.19-0.42,2.59-0.63,4.2-0.63c1.05,0,2.05,0.08,2.99,0.24
			s1.88,0.37,2.81,0.64v2.76c-0.73-0.24-1.53-0.43-2.4-0.56c-0.87-0.13-1.68-0.2-2.44-0.2c-1.12,0-2.04,0.21-2.76,0.62
			c-0.72,0.41-1.08,1.11-1.08,2.1c0,0.72,0.29,1.34,0.88,1.86c0.59,0.52,1.52,0.78,2.8,0.78c0.97,0,1.8-0.21,2.48-0.64
			c0.68-0.43,1.2-0.96,1.55-1.6c0.35-0.64,0.53-1.28,0.53-1.92h1.12c0,1.4-0.26,2.69-0.78,3.87s-1.29,2.12-2.31,2.83
			C354.17,1004.41,352.9,1004.76,351.4,1004.76z M357.76,1004.2l-0.6-4.72v-7.8c0-1.36-0.28-2.37-0.83-3.02s-1.49-0.98-2.81-0.98
			c-0.76,0-1.42,0.11-1.98,0.34s-0.99,0.55-1.29,0.97c-0.3,0.42-0.45,0.93-0.45,1.53h-5.16c0-1.47,0.35-2.66,1.06-3.59
			c0.71-0.93,1.72-1.61,3.05-2.04c1.33-0.43,2.92-0.65,4.77-0.65c1.68,0,3.15,0.27,4.4,0.81c1.25,0.54,2.23,1.37,2.92,2.49
			c0.69,1.12,1.04,2.55,1.04,4.3v12.36H357.76z"/>
		<path class="st3" d="M376.16,1004.76c-1.63,0-3.14-0.42-4.53-1.27c-1.39-0.85-2.52-2.04-3.38-3.58s-1.29-3.35-1.29-5.43
			c0-2.2,0.43-4.06,1.29-5.59c0.86-1.53,1.99-2.68,3.38-3.47c1.39-0.79,2.9-1.18,4.53-1.18c1.27,0,2.38,0.2,3.35,0.61
			c0.97,0.41,1.79,0.95,2.47,1.64c0.68,0.69,1.21,1.45,1.6,2.29s0.63,1.69,0.74,2.54l-4.76,0.12c-0.21-0.85-0.61-1.56-1.19-2.12
			c-0.58-0.56-1.33-0.84-2.25-0.84c-0.76,0-1.47,0.21-2.14,0.63c-0.67,0.42-1.21,1.07-1.63,1.95s-0.63,2.02-0.63,3.42
			c0,1.33,0.2,2.44,0.59,3.33c0.39,0.89,0.92,1.55,1.59,2c0.67,0.45,1.41,0.67,2.22,0.67c1.2,0,2.07-0.29,2.62-0.87
			c0.55-0.58,0.82-1.36,0.82-2.33h4.76c0,1.37-0.31,2.63-0.94,3.76c-0.63,1.13-1.55,2.04-2.76,2.71
			C379.4,1004.42,377.92,1004.76,376.16,1004.76z"/>
		<path class="st3" d="M392.74,981.24c-0.92,0-1.64-0.24-2.15-0.73c-0.51-0.49-0.77-1.16-0.77-2.03c0-0.84,0.26-1.51,0.77-2.01
			c0.51-0.5,1.23-0.75,2.15-0.75c0.89,0,1.6,0.25,2.13,0.75s0.79,1.17,0.79,2.01c0,0.87-0.26,1.54-0.79,2.03
			C394.34,981,393.63,981.24,392.74,981.24z M390.38,1004.2v-19.48h4.72v19.48H390.38z"/>
		<path class="st3" d="M410.74,1004.76c-1.77,0-3.38-0.38-4.81-1.14s-2.57-1.9-3.41-3.41c-0.84-1.51-1.26-3.41-1.26-5.69
			c0-2.32,0.42-4.24,1.26-5.76c0.84-1.52,1.98-2.65,3.41-3.4s3.04-1.12,4.81-1.12c1.75,0,3.33,0.37,4.75,1.12s2.55,1.88,3.39,3.4
			c0.84,1.52,1.26,3.44,1.26,5.76c0,2.28-0.42,4.18-1.26,5.69c-0.84,1.51-1.97,2.65-3.39,3.41S412.48,1004.76,410.74,1004.76z
			 M410.58,1000.64c0.93,0,1.76-0.23,2.49-0.69c0.73-0.46,1.3-1.14,1.72-2.05c0.42-0.91,0.63-2.03,0.63-3.38
			c0-2.05-0.4-3.6-1.21-4.64c-0.81-1.04-1.91-1.56-3.31-1.56c-0.95,0-1.79,0.23-2.52,0.69c-0.73,0.46-1.31,1.15-1.73,2.07
			s-0.63,2.07-0.63,3.44c0,2.03,0.41,3.55,1.23,4.58C408.07,1000.13,409.18,1000.64,410.58,1000.64z M409.42,981.92l-2.26-1.84
			l7.48-7.46l3.16,2.56L409.42,981.92z"/>
		<path class="st3" d="M425.74,1004.2v-19.4h4.12l0.6,3.84v15.56H425.74z M439.06,1004.2v-11.36c0-1.44-0.35-2.53-1.04-3.26
			s-1.6-1.1-2.72-1.1c-0.95,0-1.78,0.26-2.51,0.78c-0.73,0.52-1.3,1.3-1.71,2.35c-0.41,1.05-0.62,2.35-0.62,3.91h-1.56
			c0-2.52,0.31-4.62,0.94-6.29c0.63-1.67,1.51-2.92,2.66-3.75c1.15-0.83,2.49-1.24,4.04-1.24c1.6,0,2.94,0.36,4.01,1.07
			c1.07,0.71,1.88,1.72,2.42,3.01s0.81,2.8,0.81,4.52v11.36H439.06z"/>
		<path class="st3" d="M458.9,994.2v-4.12h11.24v4.12H458.9z"/>
		<path class="st3" d="M485.72,1004.2v-25.96h9.16c2.92,0,5.2,0.72,6.83,2.16c1.63,1.44,2.45,3.48,2.45,6.12
			c0,2.61-0.82,4.64-2.45,6.08c-1.63,1.44-3.91,2.16-6.83,2.16h-4.4v9.44H485.72z M490.48,990.64h4.4c1.47,0,2.57-0.39,3.32-1.16
			c0.75-0.77,1.12-1.76,1.12-2.96c0-1.23-0.37-2.23-1.12-3.02c-0.75-0.79-1.85-1.18-3.32-1.18h-4.4V990.64z"/>
		<path class="st3" d="M509.06,1004.2v-19.48h4.72v19.48H509.06z M512.61,995.68c0-2.55,0.29-4.65,0.86-6.32
			c0.57-1.67,1.34-2.9,2.31-3.71c0.97-0.81,2.04-1.21,3.23-1.21c0.32,0,0.62,0.02,0.91,0.06s0.57,0.1,0.85,0.18l-0.08,4.72
			c-0.35-0.08-0.72-0.15-1.12-0.2c-0.4-0.05-0.76-0.08-1.08-0.08c-1.04,0-1.91,0.25-2.61,0.75c-0.7,0.5-1.23,1.24-1.58,2.21
			c-0.35,0.97-0.53,2.17-0.53,3.6H512.61z"/>
		<path class="st3" d="M531.99,1004.76c-1.65,0-3.17-0.43-4.54-1.28c-1.37-0.85-2.47-2.05-3.3-3.59c-0.83-1.54-1.24-3.34-1.24-5.41
			c0-2.13,0.41-3.97,1.23-5.5c0.82-1.53,1.92-2.71,3.29-3.52c1.37-0.81,2.89-1.22,4.56-1.22c1.55,0,2.88,0.31,4.01,0.93
			c1.13,0.62,2.03,1.46,2.72,2.52c0.69,1.06,1.15,2.26,1.39,3.59c0.24,1.33,0.25,2.71,0.04,4.12h-13.48v-2.56h10.14l-0.92,0.6
			c0.04-0.63,0.01-1.26-0.09-1.9c-0.1-0.64-0.29-1.23-0.57-1.76c-0.28-0.53-0.68-0.96-1.19-1.29c-0.51-0.33-1.17-0.49-1.97-0.49
			c-0.96,0-1.77,0.24-2.44,0.72c-0.67,0.48-1.17,1.13-1.52,1.96c-0.35,0.83-0.52,1.76-0.52,2.8v1.88c0,1.09,0.16,2.06,0.49,2.9
			c0.33,0.84,0.81,1.5,1.46,1.98c0.65,0.48,1.46,0.72,2.45,0.72c0.92,0,1.69-0.21,2.32-0.64c0.63-0.43,1.03-1.07,1.2-1.92h4.76
			c-0.2,1.25-0.67,2.36-1.41,3.31c-0.74,0.95-1.7,1.7-2.87,2.24S533.49,1004.76,531.99,1004.76z"/>
		<path class="st3" d="M553.19,1004.76c-1.65,0-3.17-0.43-4.54-1.28c-1.37-0.85-2.47-2.05-3.3-3.59c-0.83-1.54-1.24-3.34-1.24-5.41
			c0-2.13,0.41-3.97,1.23-5.5c0.82-1.53,1.92-2.71,3.29-3.52c1.37-0.81,2.89-1.22,4.56-1.22c1.55,0,2.88,0.31,4.01,0.93
			c1.13,0.62,2.03,1.46,2.72,2.52c0.69,1.06,1.15,2.26,1.39,3.59c0.24,1.33,0.25,2.71,0.04,4.12h-13.48v-2.56h10.14l-0.92,0.6
			c0.04-0.63,0.01-1.26-0.09-1.9c-0.1-0.64-0.29-1.23-0.57-1.76c-0.28-0.53-0.68-0.96-1.19-1.29c-0.51-0.33-1.17-0.49-1.97-0.49
			c-0.96,0-1.77,0.24-2.44,0.72c-0.67,0.48-1.17,1.13-1.52,1.96c-0.35,0.83-0.52,1.76-0.52,2.8v1.88c0,1.09,0.16,2.06,0.49,2.9
			c0.33,0.84,0.81,1.5,1.46,1.98c0.65,0.48,1.46,0.72,2.45,0.72c0.92,0,1.69-0.21,2.32-0.64c0.63-0.43,1.03-1.07,1.2-1.92h4.76
			c-0.2,1.25-0.67,2.36-1.41,3.31c-0.74,0.95-1.7,1.7-2.87,2.24S554.69,1004.76,553.19,1004.76z"/>
		<path class="st3" d="M574.39,1004.76c-1.87,0-3.47-0.26-4.81-0.77c-1.34-0.51-2.37-1.25-3.09-2.22c-0.72-0.97-1.09-2.13-1.1-3.49
			h4.36c0.04,0.96,0.42,1.66,1.14,2.1c0.72,0.44,1.7,0.66,2.94,0.66c0.68,0,1.28-0.1,1.81-0.3c0.53-0.2,0.94-0.47,1.23-0.82
			c0.29-0.35,0.44-0.73,0.44-1.16c0-0.55-0.2-0.98-0.59-1.29c-0.39-0.31-1.02-0.6-1.89-0.87l-4.24-1.52
			c-1.52-0.55-2.69-1.27-3.5-2.16c-0.81-0.89-1.22-1.96-1.22-3.2c0-1.64,0.74-2.96,2.23-3.97s3.48-1.51,5.97-1.51
			c2.48,0,4.4,0.54,5.75,1.63c1.35,1.09,2.05,2.46,2.09,4.13h-4.44c-0.07-0.64-0.37-1.15-0.92-1.52c-0.55-0.37-1.37-0.56-2.48-0.56
			c-1,0-1.78,0.2-2.35,0.61c-0.57,0.41-0.85,0.88-0.85,1.43c0,0.92,0.79,1.61,2.36,2.08l4.6,1.72c1.49,0.51,2.65,1.16,3.48,1.96
			c0.83,0.8,1.24,1.81,1.24,3.04c0,1.03-0.34,2-1.03,2.91c-0.69,0.91-1.64,1.66-2.87,2.23
			C577.43,1004.47,576.01,1004.76,574.39,1004.76z"/>
		<path class="st3" d="M595.61,1004.76c-1.63,0-3.14-0.42-4.53-1.27c-1.39-0.85-2.52-2.04-3.38-3.58s-1.29-3.35-1.29-5.43
			c0-2.2,0.43-4.06,1.29-5.59c0.86-1.53,1.99-2.68,3.38-3.47c1.39-0.79,2.9-1.18,4.53-1.18c1.27,0,2.38,0.2,3.35,0.61
			c0.97,0.41,1.79,0.95,2.47,1.64c0.68,0.69,1.21,1.45,1.6,2.29s0.63,1.69,0.74,2.54l-4.76,0.12c-0.21-0.85-0.61-1.56-1.19-2.12
			c-0.58-0.56-1.33-0.84-2.25-0.84c-0.76,0-1.47,0.21-2.14,0.63c-0.67,0.42-1.21,1.07-1.63,1.95s-0.63,2.02-0.63,3.42
			c0,1.33,0.2,2.44,0.59,3.33c0.39,0.89,0.92,1.55,1.59,2c0.67,0.45,1.41,0.67,2.22,0.67c1.2,0,2.07-0.29,2.62-0.87
			c0.55-0.58,0.82-1.36,0.82-2.33h4.76c0,1.37-0.31,2.63-0.94,3.76c-0.63,1.13-1.55,2.04-2.76,2.71
			C598.86,1004.42,597.37,1004.76,595.61,1004.76z"/>
		<path class="st3" d="M617.07,1004.76c-1.77,0-3.38-0.38-4.81-1.14s-2.57-1.9-3.41-3.41c-0.84-1.51-1.26-3.41-1.26-5.69
			c0-2.32,0.42-4.24,1.26-5.76c0.84-1.52,1.98-2.65,3.41-3.4s3.04-1.12,4.81-1.12c1.75,0,3.33,0.37,4.75,1.12s2.55,1.88,3.39,3.4
			c0.84,1.52,1.26,3.44,1.26,5.76c0,2.28-0.42,4.18-1.26,5.69c-0.84,1.51-1.97,2.65-3.39,3.41S618.82,1004.76,617.07,1004.76z
			 M616.91,1000.64c0.93,0,1.76-0.23,2.49-0.69c0.73-0.46,1.3-1.14,1.72-2.05c0.42-0.91,0.63-2.03,0.63-3.38
			c0-2.05-0.4-3.6-1.21-4.64c-0.81-1.04-1.91-1.56-3.31-1.56c-0.95,0-1.79,0.23-2.52,0.69c-0.73,0.46-1.31,1.15-1.73,2.07
			s-0.63,2.07-0.63,3.44c0,2.03,0.41,3.55,1.23,4.58C614.4,1000.13,615.51,1000.64,616.91,1000.64z"/>
		<path class="st3" d="M632.07,1004.2v-27.44h4.72v27.44H632.07z"/>
		<path class="st3" d="M650.25,1004.76c-1.67,0-3.06-0.29-4.17-0.87c-1.11-0.58-1.95-1.34-2.51-2.29c-0.56-0.95-0.84-1.97-0.84-3.08
			c0-1.23,0.32-2.26,0.97-3.09c0.65-0.83,1.56-1.46,2.75-1.88c1.19-0.42,2.59-0.63,4.2-0.63c1.05,0,2.05,0.08,2.99,0.24
			s1.88,0.37,2.81,0.64v2.76c-0.73-0.24-1.53-0.43-2.4-0.56c-0.87-0.13-1.68-0.2-2.44-0.2c-1.12,0-2.04,0.21-2.76,0.62
			c-0.72,0.41-1.08,1.11-1.08,2.1c0,0.72,0.29,1.34,0.88,1.86c0.59,0.52,1.52,0.78,2.8,0.78c0.97,0,1.8-0.21,2.48-0.64
			c0.68-0.43,1.2-0.96,1.55-1.6c0.35-0.64,0.53-1.28,0.53-1.92h1.12c0,1.4-0.26,2.69-0.78,3.87s-1.29,2.12-2.31,2.83
			C653.02,1004.41,651.76,1004.76,650.25,1004.76z M656.61,1004.2l-0.6-4.72v-7.8c0-1.36-0.28-2.37-0.83-3.02s-1.49-0.98-2.81-0.98
			c-0.76,0-1.42,0.11-1.98,0.34s-0.99,0.55-1.29,0.97c-0.3,0.42-0.45,0.93-0.45,1.53h-5.16c0-1.47,0.35-2.66,1.06-3.59
			c0.71-0.93,1.72-1.61,3.05-2.04c1.33-0.43,2.92-0.65,4.77-0.65c1.68,0,3.15,0.27,4.4,0.81c1.25,0.54,2.23,1.37,2.92,2.49
			c0.69,1.12,1.04,2.55,1.04,4.3v12.36H656.61z"/>
		<path class="st3" d="M667.65,1004.2v-19.48h4.72v19.48H667.65z M671.21,995.68c0-2.55,0.29-4.65,0.86-6.32
			c0.57-1.67,1.34-2.9,2.31-3.71c0.97-0.81,2.04-1.21,3.23-1.21c0.32,0,0.62,0.02,0.91,0.06s0.57,0.1,0.85,0.18l-0.08,4.72
			c-0.35-0.08-0.72-0.15-1.12-0.2c-0.4-0.05-0.76-0.08-1.08-0.08c-1.04,0-1.91,0.25-2.61,0.75c-0.7,0.5-1.23,1.24-1.58,2.21
			c-0.35,0.97-0.53,2.17-0.53,3.6H671.21z"/>
	</g>
</g>
</svg>
