<?xml version="1.0" encoding="utf-8"?>
<!-- Generator: Adobe Illustrator 24.0.2, SVG Export Plug-In . SVG Version: 6.00 Build 0)  -->
<svg version="1.1" xmlns="http://www.w3.org/2000/svg" xmlns:xlink="http://www.w3.org/1999/xlink" x="0px" y="0px"
	 viewBox="0 0 2360 1170" style="enable-background:new 0 0 2360 1170;" xml:space="preserve">
<style type="text/css">
	.st0{fill:#252525;}
	.st1{fill:#FFFFFF;}
	.st2{fill:#FF5757;}
	.st3{fill:#B3E6E0;}
	.st4{clip-path:url(#SVGID_2_);}
	.st5{fill:#7A7980;}
	.st6{clip-path:url(#SVGID_4_);}
	.st7{clip-path:url(#SVGID_6_);}
	.st8{fill:#666666;}
	.st9{clip-path:url(#SVGID_8_);}
	.st10{clip-path:url(#SVGID_10_);}
	.st11{clip-path:url(#SVGID_12_);}
	.st12{fill:#FF5757;stroke:#FF5757;stroke-width:0.75;stroke-miterlimit:10;}
	.st13{clip-path:url(#SVGID_14_);}
	.st14{clip-path:url(#SVGID_16_);}
	.st15{clip-path:url(#SVGID_18_);}
	.st16{clip-path:url(#SVGID_20_);}
	.st17{clip-path:url(#SVGID_22_);}
	.st18{clip-path:url(#SVGID_24_);}
</style>
<g id="Capa_2">
	<rect x="2" y="2" class="st0" width="2360" height="1170"/>
</g>
<g id="Capa_1">
	<g>
		<g>
			<path class="st1" d="M52.18,85.05c-3.1,0-5.96-0.54-8.57-1.62s-4.73-2.73-6.35-4.93c-1.62-2.21-2.49-5.01-2.6-8.42h8
				c0,1.72,0.42,3.14,1.28,4.24c0.85,1.1,2,1.93,3.43,2.47c1.44,0.54,3.02,0.81,4.74,0.81c1.66,0,3.13-0.22,4.43-0.66
				c1.3-0.44,2.32-1.06,3.07-1.88c0.75-0.82,1.12-1.79,1.12-2.92c0-1.49-0.46-2.67-1.36-3.52c-0.91-0.85-2.36-1.63-4.36-2.35
				l-8.83-3.52c-3.45-1.36-6.09-2.93-7.93-4.73c-1.84-1.79-2.76-4.27-2.76-7.42c0-3.63,1.44-6.58,4.31-8.83
				c2.87-2.25,6.89-3.38,12.04-3.38c5.01,0,8.89,1.17,11.63,3.5c2.74,2.33,4.29,5.58,4.66,9.75h-8c-0.3-1.77-1.1-3.19-2.42-4.26
				c-1.31-1.07-3.27-1.6-5.87-1.6c-2.3,0-4.12,0.48-5.45,1.43c-1.33,0.96-2,2.16-2,3.61c0,1.24,0.42,2.22,1.26,2.95
				c0.84,0.72,2.14,1.42,3.92,2.09l9.8,3.79c3.31,1.29,5.85,2.91,7.63,4.86c1.77,1.96,2.66,4.41,2.66,7.35
				c0,2.69-0.68,5.02-2.04,6.99c-1.36,1.97-3.33,3.49-5.93,4.57C59.07,84.51,55.91,85.05,52.18,85.05z"/>
			<path class="st1" d="M93.75,85.05c-3.06,0-5.83-0.66-8.3-1.97c-2.47-1.31-4.43-3.27-5.88-5.88c-1.45-2.61-2.17-5.88-2.17-9.82
				c0-4,0.72-7.31,2.17-9.94c1.45-2.62,3.41-4.58,5.88-5.87c2.47-1.29,5.24-1.93,8.3-1.93c3.01,0,5.74,0.64,8.19,1.93
				c2.45,1.29,4.4,3.24,5.85,5.87s2.17,5.93,2.17,9.94c0,3.93-0.72,7.21-2.17,9.82c-1.45,2.61-3.4,4.57-5.85,5.88
				C99.5,84.39,96.77,85.05,93.75,85.05z M93.48,77.94c1.61,0,3.04-0.4,4.29-1.19c1.25-0.79,2.24-1.97,2.97-3.54
				s1.09-3.51,1.09-5.83c0-3.54-0.7-6.21-2.09-8c-1.39-1.79-3.29-2.69-5.71-2.69c-1.63,0-3.08,0.4-4.35,1.19
				c-1.27,0.79-2.26,1.98-2.98,3.57s-1.09,3.57-1.09,5.93c0,3.5,0.71,6.13,2.12,7.9C89.15,77.06,91.06,77.94,93.48,77.94z"/>
			<path class="st1" d="M119.63,84.08V36.75h8.14V75.8l-2.83,8.28H119.63z M136.74,85.05c-2.09,0-4.01-0.59-5.74-1.76
				c-1.74-1.17-3.12-2.93-4.16-5.26c-1.04-2.33-1.55-5.26-1.55-8.78h2.48c0,1.68,0.38,3.15,1.14,4.42s1.74,2.25,2.93,2.95
				c1.2,0.7,2.44,1.05,3.73,1.05c1.59,0,3-0.44,4.24-1.31c1.24-0.87,2.23-2.09,2.95-3.66c0.72-1.56,1.09-3.4,1.09-5.52
				c0-2.05-0.36-3.84-1.07-5.37s-1.7-2.72-2.95-3.57c-1.25-0.85-2.7-1.28-4.33-1.28c-1.36,0-2.62,0.33-3.79,0.98
				s-2.12,1.6-2.85,2.83s-1.09,2.72-1.09,4.47h-2.48c0-3.38,0.49-6.23,1.47-8.56c0.98-2.32,2.37-4.08,4.17-5.26
				c1.81-1.18,3.95-1.78,6.43-1.78c2.71,0,5.18,0.72,7.4,2.16c2.22,1.44,3.99,3.47,5.31,6.11c1.32,2.63,1.98,5.72,1.98,9.26
				c0,3.59-0.68,6.72-2.05,9.4s-3.21,4.76-5.54,6.24C142.15,84.31,139.57,85.05,136.74,85.05z"/>
			<path class="st1" d="M162,84.08v-33.6h8.14v33.6H162z M168.14,69.39c0-4.39,0.5-8.03,1.48-10.9c0.99-2.87,2.32-5.01,3.99-6.4
				c1.67-1.39,3.52-2.09,5.57-2.09c0.55,0,1.08,0.04,1.57,0.1c0.49,0.07,0.98,0.17,1.47,0.31l-0.14,8.14
				c-0.6-0.14-1.24-0.25-1.93-0.35c-0.69-0.09-1.31-0.14-1.86-0.14c-1.79,0-3.29,0.43-4.5,1.29c-1.21,0.86-2.12,2.13-2.73,3.81
				c-0.61,1.68-0.92,3.75-0.92,6.21H168.14z"/>
			<path class="st1" d="M201.57,85.05c-2.85,0-5.46-0.74-7.83-2.21s-4.27-3.54-5.69-6.19c-1.43-2.66-2.14-5.77-2.14-9.33
				c0-3.68,0.71-6.84,2.12-9.49c1.41-2.64,3.31-4.67,5.67-6.07c2.37-1.4,4.99-2.11,7.87-2.11c2.67,0,4.97,0.54,6.92,1.61
				c1.94,1.07,3.51,2.52,4.69,4.35c1.18,1.83,1.98,3.89,2.4,6.19c0.41,2.3,0.44,4.67,0.07,7.11h-23.25v-4.42h17.49l-1.59,1.04
				c0.07-1.08,0.02-2.17-0.16-3.28c-0.17-1.1-0.5-2.12-0.98-3.04c-0.48-0.92-1.17-1.66-2.05-2.22c-0.89-0.56-2.02-0.85-3.4-0.85
				c-1.66,0-3.06,0.41-4.21,1.24c-1.15,0.83-2.02,1.96-2.62,3.38c-0.6,1.43-0.9,3.04-0.9,4.83v3.24c0,1.89,0.28,3.55,0.84,5
				s1.4,2.59,2.52,3.42c1.12,0.83,2.52,1.24,4.23,1.24c1.59,0,2.92-0.37,4-1.1c1.08-0.74,1.77-1.84,2.07-3.31h8.21
				c-0.35,2.16-1.16,4.07-2.43,5.71s-2.93,2.93-4.95,3.86C206.44,84.58,204.14,85.05,201.57,85.05z"/>
			<path class="st1" d="M248.69,39.03h6.14v45.06h-8.14V48.76c-1.22,0.55-2.42,0.98-3.59,1.28s-2.35,0.45-3.52,0.45v-7.8
				c1.56-0.16,3.08-0.52,4.55-1.09C245.61,41.03,247.13,40.18,248.69,39.03z"/>
			<path class="st1" d="M283.5,85.05c-3.75,0-7.05-0.98-9.9-2.93c-2.85-1.95-5.08-4.63-6.68-8.02c-1.6-3.39-2.4-7.26-2.4-11.61
				c0-5.13,0.8-9.49,2.42-13.07c1.61-3.59,3.87-6.32,6.78-8.19c2.91-1.87,6.31-2.81,10.19-2.81c2.97,0,5.59,0.55,7.87,1.64
				s4.07,2.63,5.38,4.61c1.31,1.98,2.02,4.29,2.14,6.93h-8.69c-0.25-1.79-0.9-3.21-1.93-4.24c-1.03-1.04-2.53-1.55-4.48-1.55
				c-3.54,0-6.35,1.56-8.42,4.67c-2.07,3.12-3.11,7.35-3.11,12.71c0,0.69,0.02,1.44,0.05,2.24c0.04,0.8,0.11,1.58,0.22,2.31
				c0.37-2.83,1.18-5.05,2.43-6.66c1.25-1.61,2.77-2.75,4.54-3.43c1.77-0.68,3.63-1.02,5.59-1.02c2.81,0,5.28,0.61,7.42,1.83
				c2.14,1.22,3.82,2.9,5.04,5.04c1.22,2.14,1.83,4.59,1.83,7.35c0,2.83-0.68,5.31-2.05,7.45c-1.37,2.14-3.28,3.8-5.73,4.99
				C289.56,84.46,286.72,85.05,283.5,85.05z M283.5,77.6c2.16,0,4.01-0.65,5.55-1.95c1.54-1.3,2.31-3.02,2.31-5.16
				c0-2.23-0.77-3.99-2.31-5.26s-3.39-1.92-5.55-1.92c-1.43,0-2.72,0.3-3.88,0.9c-1.16,0.6-2.09,1.44-2.79,2.52
				c-0.7,1.08-1.05,2.33-1.05,3.76c0,2.14,0.75,3.86,2.26,5.16C279.54,76.95,281.36,77.6,283.5,77.6z"/>
			<path class="st1" d="M322.14,84.08l15.25-44.78h10.21l14.63,44.78h-8.56l-3.1-9.66h-16.63l-3.17,9.66H322.14z M336.01,68.28
				h12.63l-6.28-19.25L336.01,68.28z"/>
			<path class="st1" d="M370.2,84.08V50.62h7.11l1.03,6.62v26.84H370.2z M377.06,45.1l-3.24-1.97c0.55-2.78,1.48-4.95,2.78-6.5
				s2.83-2.33,4.61-2.33c0.67,0,1.36,0.13,2.09,0.38c0.72,0.25,1.71,0.7,2.95,1.35c1.17,0.6,2.05,1.02,2.64,1.28
				c0.59,0.25,1.16,0.38,1.71,0.38c0.67,0,1.32-0.27,1.97-0.81c0.64-0.54,1.21-1.4,1.69-2.57l3.45,2.28
				c-0.32,1.66-0.84,3.12-1.57,4.4c-0.72,1.28-1.56,2.28-2.5,3.02c-0.94,0.74-1.89,1.1-2.83,1.1c-0.83,0-1.65-0.16-2.47-0.48
				s-1.88-0.81-3.19-1.45c-1.08-0.6-1.89-1-2.42-1.21s-1.04-0.31-1.52-0.31c-0.74,0-1.44,0.24-2.12,0.71
				C378.4,42.83,377.73,43.74,377.06,45.1z M393.18,84.08v-19.6c0-2.48-0.6-4.36-1.79-5.62c-1.2-1.26-2.76-1.9-4.69-1.9
				c-1.63,0-3.08,0.45-4.33,1.35s-2.24,2.25-2.95,4.05c-0.71,1.81-1.07,4.05-1.07,6.75h-2.69c0-4.35,0.54-7.96,1.62-10.85
				c1.08-2.89,2.61-5.04,4.59-6.47c1.98-1.43,4.3-2.14,6.97-2.14c2.76,0,5.07,0.62,6.92,1.85c1.85,1.23,3.24,2.96,4.17,5.19
				s1.4,4.83,1.4,7.8v19.6H393.18z"/>
			<path class="st1" d="M426.36,85.05c-3.06,0-5.83-0.66-8.3-1.97c-2.47-1.31-4.43-3.27-5.88-5.88c-1.45-2.61-2.17-5.88-2.17-9.82
				c0-4,0.72-7.31,2.17-9.94c1.45-2.62,3.41-4.58,5.88-5.87c2.47-1.29,5.24-1.93,8.3-1.93c3.01,0,5.74,0.64,8.19,1.93
				c2.45,1.29,4.4,3.24,5.85,5.87s2.17,5.93,2.17,9.94c0,3.93-0.72,7.21-2.17,9.82c-1.45,2.61-3.4,4.57-5.85,5.88
				C432.11,84.39,429.38,85.05,426.36,85.05z M426.09,77.94c1.61,0,3.04-0.4,4.29-1.19c1.25-0.79,2.24-1.97,2.97-3.54
				s1.09-3.51,1.09-5.83c0-3.54-0.7-6.21-2.09-8c-1.39-1.79-3.29-2.69-5.71-2.69c-1.63,0-3.08,0.4-4.35,1.19
				c-1.27,0.79-2.26,1.98-2.98,3.57s-1.09,3.57-1.09,5.93c0,3.5,0.71,6.13,2.12,7.9C421.76,77.06,423.67,77.94,426.09,77.94z"/>
			<path class="st1" d="M464.73,85.05c-3.22,0-5.99-0.44-8.3-1.33s-4.09-2.16-5.33-3.83s-1.88-3.67-1.9-6.02h7.52
				c0.07,1.66,0.72,2.86,1.97,3.62c1.24,0.76,2.93,1.14,5.07,1.14c1.17,0,2.21-0.17,3.12-0.52c0.91-0.34,1.62-0.82,2.12-1.41
				s0.76-1.26,0.76-2c0-0.94-0.34-1.68-1.02-2.23c-0.68-0.54-1.76-1.04-3.26-1.5l-7.31-2.62c-2.62-0.94-4.63-2.18-6.04-3.73
				c-1.4-1.54-2.1-3.38-2.1-5.52c0-2.83,1.28-5.11,3.85-6.85s6-2.61,10.3-2.61c4.28,0,7.58,0.94,9.92,2.81s3.54,4.25,3.61,7.12
				h-7.66c-0.12-1.1-0.64-1.98-1.59-2.62c-0.94-0.64-2.37-0.97-4.28-0.97c-1.72,0-3.08,0.35-4.05,1.05
				c-0.98,0.7-1.47,1.52-1.47,2.47c0,1.59,1.36,2.78,4.07,3.59l7.93,2.97c2.58,0.87,4.58,2,6,3.38s2.14,3.13,2.14,5.24
				c0,1.77-0.59,3.44-1.78,5.02s-2.83,2.86-4.95,3.85C469.96,84.55,467.51,85.05,464.73,85.05z"/>
			<path class="st1" d="M518.44,85.05c-2.81,0-5.36-0.74-7.68-2.23c-2.31-1.48-4.15-3.56-5.52-6.24s-2.05-5.81-2.05-9.4
				c0-3.54,0.66-6.63,1.98-9.26c1.32-2.63,3.09-4.67,5.31-6.11c2.22-1.44,4.69-2.16,7.4-2.16c2.48,0,4.63,0.59,6.45,1.78
				c1.82,1.19,3.21,2.94,4.17,5.26c0.97,2.32,1.45,5.17,1.45,8.56h-2.55c0-1.75-0.36-3.24-1.07-4.47c-0.71-1.23-1.65-2.17-2.81-2.83
				s-2.42-0.98-3.78-0.98c-1.63,0-3.08,0.43-4.33,1.28c-1.25,0.85-2.24,2.04-2.95,3.57c-0.71,1.53-1.07,3.32-1.07,5.37
				c0,2.12,0.36,3.96,1.07,5.52c0.71,1.56,1.7,2.78,2.95,3.66c1.25,0.88,2.67,1.31,4.26,1.31c1.29,0,2.52-0.35,3.71-1.05
				s2.15-1.69,2.9-2.95c0.75-1.26,1.12-2.74,1.12-4.42h2.55c0,3.52-0.52,6.45-1.57,8.78c-1.05,2.33-2.44,4.09-4.19,5.26
				C522.46,84.46,520.54,85.05,518.44,85.05z M528.93,84.08l-1.52-8.28V36.75h8.21v47.33H528.93z"/>
			<path class="st1" d="M560.95,85.05c-2.85,0-5.46-0.74-7.83-2.21s-4.27-3.54-5.69-6.19c-1.43-2.66-2.14-5.77-2.14-9.33
				c0-3.68,0.71-6.84,2.12-9.49c1.41-2.64,3.31-4.67,5.67-6.07c2.37-1.4,4.99-2.11,7.87-2.11c2.67,0,4.97,0.54,6.92,1.61
				c1.94,1.07,3.51,2.52,4.69,4.35c1.18,1.83,1.98,3.89,2.4,6.19c0.41,2.3,0.44,4.67,0.07,7.11h-23.25v-4.42h17.49l-1.59,1.04
				c0.07-1.08,0.02-2.17-0.16-3.28c-0.17-1.1-0.5-2.12-0.98-3.04c-0.48-0.92-1.17-1.66-2.05-2.22c-0.89-0.56-2.02-0.85-3.4-0.85
				c-1.66,0-3.06,0.41-4.21,1.24c-1.15,0.83-2.02,1.96-2.62,3.38c-0.6,1.43-0.9,3.04-0.9,4.83v3.24c0,1.89,0.28,3.55,0.84,5
				s1.4,2.59,2.52,3.42c1.12,0.83,2.52,1.24,4.23,1.24c1.59,0,2.92-0.37,4-1.1c1.08-0.74,1.77-1.84,2.07-3.31h8.21
				c-0.35,2.16-1.16,4.07-2.43,5.71s-2.93,2.93-4.95,3.86C565.82,84.58,563.52,85.05,560.95,85.05z"/>
			<path class="st1" d="M614.97,85.05c-2.85,0-5.46-0.74-7.83-2.21s-4.27-3.54-5.69-6.19c-1.43-2.66-2.14-5.77-2.14-9.33
				c0-3.68,0.71-6.84,2.12-9.49c1.41-2.64,3.31-4.67,5.67-6.07c2.37-1.4,4.99-2.11,7.87-2.11c2.67,0,4.97,0.54,6.92,1.61
				c1.94,1.07,3.51,2.52,4.69,4.35c1.18,1.83,1.98,3.89,2.4,6.19c0.41,2.3,0.44,4.67,0.07,7.11H605.8v-4.42h17.49l-1.59,1.04
				c0.07-1.08,0.02-2.17-0.16-3.28c-0.17-1.1-0.5-2.12-0.98-3.04c-0.48-0.92-1.17-1.66-2.05-2.22c-0.89-0.56-2.02-0.85-3.4-0.85
				c-1.66,0-3.06,0.41-4.21,1.24c-1.15,0.83-2.02,1.96-2.62,3.38c-0.6,1.43-0.9,3.04-0.9,4.83v3.24c0,1.89,0.28,3.55,0.84,5
				s1.4,2.59,2.52,3.42c1.12,0.83,2.52,1.24,4.23,1.24c1.59,0,2.92-0.37,4-1.1c1.08-0.74,1.77-1.84,2.07-3.31h8.21
				c-0.35,2.16-1.16,4.07-2.43,5.71s-2.93,2.93-4.95,3.86C619.85,84.58,617.55,85.05,614.97,85.05z"/>
			<path class="st1" d="M651.41,85.05c-2.81,0-5.36-0.74-7.68-2.23c-2.31-1.48-4.15-3.56-5.52-6.24s-2.05-5.81-2.05-9.4
				c0-3.54,0.66-6.63,1.98-9.26c1.32-2.63,3.09-4.67,5.31-6.11c2.22-1.44,4.69-2.16,7.4-2.16c2.48,0,4.63,0.59,6.45,1.78
				c1.82,1.19,3.21,2.94,4.17,5.26c0.97,2.32,1.45,5.17,1.45,8.56h-2.55c0-1.75-0.36-3.24-1.07-4.47c-0.71-1.23-1.65-2.17-2.81-2.83
				s-2.42-0.98-3.78-0.98c-1.63,0-3.08,0.43-4.33,1.28c-1.25,0.85-2.24,2.04-2.95,3.57c-0.71,1.53-1.07,3.32-1.07,5.37
				c0,2.12,0.36,3.96,1.07,5.52c0.71,1.56,1.7,2.78,2.95,3.66c1.25,0.88,2.67,1.31,4.26,1.31c1.29,0,2.52-0.35,3.71-1.05
				s2.15-1.69,2.9-2.95c0.75-1.26,1.12-2.74,1.12-4.42h2.55c0,3.52-0.52,6.45-1.57,8.78c-1.05,2.33-2.44,4.09-4.19,5.26
				C655.42,84.46,653.5,85.05,651.41,85.05z M661.89,84.08l-1.52-8.28V36.75h8.21v47.33H661.89z"/>
			<path class="st1" d="M680.73,50.48h8.14v20.56c0,2.19,0.54,3.82,1.62,4.92c1.08,1.09,2.56,1.64,4.45,1.64
				c1.61,0,3.08-0.42,4.4-1.26c1.32-0.84,2.38-2.08,3.17-3.73c0.79-1.64,1.19-3.69,1.19-6.13h2.21c0,4.09-0.53,7.49-1.59,10.18
				c-1.06,2.69-2.52,4.7-4.38,6.04s-4.01,2-6.45,2c-2.39,0-4.55-0.43-6.49-1.28c-1.93-0.85-3.46-2.22-4.59-4.11
				c-1.13-1.88-1.69-4.37-1.69-7.45V50.48z M703.71,50.48h8.14v33.6h-8.14V50.48z"/>
			<path class="st1" d="M737.38,85.05c-2.81,0-5.41-0.73-7.81-2.19c-2.4-1.46-4.35-3.52-5.83-6.18c-1.48-2.66-2.22-5.78-2.22-9.37
				c0-3.79,0.74-7.01,2.22-9.64c1.48-2.63,3.43-4.63,5.83-5.99c2.4-1.36,5.01-2.04,7.81-2.04c2.18,0,4.11,0.35,5.78,1.05
				c1.67,0.7,3.09,1.64,4.26,2.83s2.09,2.5,2.76,3.95s1.09,2.91,1.28,4.38l-8.21,0.21c-0.37-1.47-1.05-2.69-2.05-3.66
				c-1-0.97-2.29-1.45-3.88-1.45c-1.31,0-2.54,0.36-3.69,1.09c-1.15,0.72-2.09,1.85-2.81,3.36c-0.72,1.52-1.09,3.48-1.09,5.9
				c0,2.3,0.34,4.21,1.02,5.74c0.68,1.53,1.59,2.68,2.74,3.45c1.15,0.77,2.43,1.16,3.83,1.16c2.07,0,3.58-0.5,4.52-1.5
				c0.94-1,1.41-2.34,1.41-4.02h8.21c0,2.37-0.54,4.53-1.62,6.49s-2.67,3.51-4.76,4.67C742.98,84.47,740.42,85.05,737.38,85.05z"/>
			<path class="st1" d="M771.57,85.05c-2.88,0-5.27-0.5-7.19-1.5c-1.92-1-3.36-2.32-4.33-3.95s-1.45-3.4-1.45-5.31
				c0-2.12,0.56-3.89,1.67-5.33c1.12-1.44,2.7-2.52,4.74-3.24s4.46-1.09,7.25-1.09c1.82,0,3.54,0.14,5.16,0.41
				c1.62,0.28,3.24,0.64,4.85,1.1v4.76c-1.26-0.41-2.65-0.74-4.14-0.96c-1.5-0.23-2.9-0.35-4.21-0.35c-1.93,0-3.52,0.36-4.76,1.07
				c-1.24,0.71-1.86,1.92-1.86,3.62c0,1.24,0.51,2.31,1.52,3.21c1.01,0.9,2.62,1.35,4.83,1.35c1.68,0,3.11-0.37,4.28-1.1
				s2.06-1.66,2.67-2.76c0.61-1.1,0.91-2.21,0.91-3.31h1.93c0,2.42-0.45,4.64-1.35,6.68c-0.9,2.04-2.22,3.66-3.98,4.88
				C776.35,84.44,774.17,85.05,771.57,85.05z M782.54,84.08l-1.04-8.14V62.49c0-2.35-0.48-4.08-1.43-5.21
				c-0.96-1.13-2.57-1.69-4.85-1.69c-1.31,0-2.45,0.2-3.42,0.59s-1.71,0.95-2.23,1.67s-0.78,1.6-0.78,2.64h-8.9
				c0-2.53,0.61-4.59,1.83-6.19c1.22-1.6,2.97-2.77,5.26-3.52c2.29-0.75,5.03-1.12,8.23-1.12c2.9,0,5.43,0.47,7.59,1.4
				s3.84,2.36,5.04,4.29s1.79,4.4,1.79,7.42v21.32H782.54z"/>
			<path class="st1" d="M814.28,85.05c-2.81,0-5.41-0.73-7.81-2.19c-2.4-1.46-4.35-3.52-5.83-6.18c-1.48-2.66-2.22-5.78-2.22-9.37
				c0-3.79,0.74-7.01,2.22-9.64c1.48-2.63,3.43-4.63,5.83-5.99c2.4-1.36,5.01-2.04,7.81-2.04c2.18,0,4.11,0.35,5.78,1.05
				c1.67,0.7,3.09,1.64,4.26,2.83s2.09,2.5,2.76,3.95s1.09,2.91,1.28,4.38l-8.21,0.21c-0.37-1.47-1.05-2.69-2.05-3.66
				c-1-0.97-2.29-1.45-3.88-1.45c-1.31,0-2.54,0.36-3.69,1.09c-1.15,0.72-2.09,1.85-2.81,3.36c-0.72,1.52-1.09,3.48-1.09,5.9
				c0,2.3,0.34,4.21,1.02,5.74c0.68,1.53,1.59,2.68,2.74,3.45c1.15,0.77,2.43,1.16,3.83,1.16c2.07,0,3.58-0.5,4.52-1.5
				c0.94-1,1.41-2.34,1.41-4.02h8.21c0,2.37-0.54,4.53-1.62,6.49s-2.67,3.51-4.76,4.67C819.88,84.47,817.32,85.05,814.28,85.05z"/>
			<path class="st1" d="M842.88,44.48c-1.59,0-2.82-0.42-3.71-1.26c-0.89-0.84-1.33-2.01-1.33-3.5c0-1.45,0.44-2.6,1.33-3.47
				c0.88-0.86,2.12-1.29,3.71-1.29c1.54,0,2.77,0.43,3.67,1.29c0.91,0.86,1.36,2.02,1.36,3.47c0,1.5-0.45,2.66-1.36,3.5
				C845.65,44.06,844.42,44.48,842.88,44.48z M838.81,84.08v-33.6h8.14v33.6H838.81z"/>
			<path class="st1" d="M873.93,85.05c-3.06,0-5.83-0.66-8.3-1.97c-2.47-1.31-4.43-3.27-5.88-5.88c-1.45-2.61-2.17-5.88-2.17-9.82
				c0-4,0.72-7.31,2.17-9.94c1.45-2.62,3.41-4.58,5.88-5.87c2.47-1.29,5.24-1.93,8.3-1.93c3.01,0,5.74,0.64,8.19,1.93
				c2.45,1.29,4.4,3.24,5.85,5.87s2.17,5.93,2.17,9.94c0,3.93-0.72,7.21-2.17,9.82c-1.45,2.61-3.4,4.57-5.85,5.88
				C879.67,84.39,876.94,85.05,873.93,85.05z M873.65,77.94c1.61,0,3.04-0.4,4.29-1.19c1.25-0.79,2.24-1.97,2.97-3.54
				s1.09-3.51,1.09-5.83c0-3.54-0.7-6.21-2.09-8c-1.39-1.79-3.29-2.69-5.71-2.69c-1.63,0-3.08,0.4-4.35,1.19
				c-1.27,0.79-2.26,1.98-2.98,3.57s-1.09,3.57-1.09,5.93c0,3.5,0.71,6.13,2.12,7.9C869.32,77.06,871.24,77.94,873.65,77.94z
				 M871.65,45.65l-3.9-3.17l12.9-12.87l5.45,4.42L871.65,45.65z"/>
			<path class="st1" d="M899.8,84.08V50.62h7.11l1.03,6.62v26.84H899.8z M922.78,84.08v-19.6c0-2.48-0.6-4.36-1.79-5.62
				c-1.2-1.26-2.76-1.9-4.69-1.9c-1.63,0-3.08,0.45-4.33,1.35s-2.24,2.25-2.95,4.05c-0.71,1.81-1.07,4.05-1.07,6.75h-2.69
				c0-4.35,0.54-7.96,1.62-10.85c1.08-2.89,2.61-5.04,4.59-6.47c1.98-1.43,4.3-2.14,6.97-2.14c2.76,0,5.07,0.62,6.92,1.85
				c1.85,1.23,3.24,2.96,4.17,5.19s1.4,4.83,1.4,7.8v19.6H922.78z"/>
		</g>
	</g>
	<circle class="st2" cx="1895.57" cy="240.38" r="8.09"/>
	<circle class="st2" cx="1895.57" cy="333.88" r="8.09"/>
	<circle class="st2" cx="1895.57" cy="427.38" r="8.09"/>
	<circle class="st2" cx="1895.57" cy="520.88" r="8.09"/>
	<circle class="st3" cx="1895.57" cy="614.38" r="8.09"/>
	<circle class="st3" cx="1895.57" cy="707.88" r="8.09"/>
	<circle class="st3" cx="1895.57" cy="801.38" r="8.09"/>
	<circle class="st3" cx="1895.57" cy="894.88" r="8.09"/>
	<circle class="st3" cx="1895.57" cy="988.38" r="8.09"/>
	<circle class="st3" cx="1895.57" cy="1081.88" r="8.09"/>
	<g>
		<circle class="st2" cx="1023.48" cy="238.54" r="8.09"/>
		<path class="st2" d="M1036.37,258.49v13.7c-0.01,3.79-2.13,7.26-5.51,9v15.22c0.14,4.07-3.05,7.49-7.12,7.63
			c-4.07,0.14-7.49-3.05-7.63-7.12c-0.01-0.17-0.01-0.34,0-0.5V281.2c-3.38-1.74-5.5-5.21-5.52-9.01v-13.7
			c0.02-5.58,4.55-10.09,10.12-10.11h5.52C1031.82,248.4,1036.35,252.91,1036.37,258.49z"/>
		<circle class="st2" cx="1023.48" cy="332.04" r="8.09"/>
		<path class="st2" d="M1036.37,351.99v13.7c-0.01,3.79-2.13,7.26-5.51,9v15.22c0.14,4.07-3.05,7.49-7.12,7.63
			c-4.07,0.14-7.49-3.05-7.63-7.12c-0.01-0.17-0.01-0.34,0-0.5V374.7c-3.38-1.74-5.5-5.21-5.52-9.01v-13.7
			c0.02-5.58,4.55-10.09,10.12-10.11h5.52C1031.82,341.9,1036.35,346.41,1036.37,351.99z"/>
		<circle class="st2" cx="1023.48" cy="425.55" r="8.09"/>
		<path class="st2" d="M1036.37,445.49v13.7c-0.01,3.79-2.13,7.26-5.51,9v15.22c0.14,4.07-3.05,7.49-7.12,7.63
			c-4.07,0.14-7.49-3.05-7.63-7.12c-0.01-0.17-0.01-0.34,0-0.5V468.2c-3.38-1.74-5.5-5.21-5.52-9.01v-13.7
			c0.02-5.58,4.55-10.09,10.12-10.11h5.52C1031.82,435.4,1036.35,439.91,1036.37,445.49z"/>
		<circle class="st2" cx="1023.48" cy="519.05" r="8.09"/>
		<path class="st2" d="M1036.37,632.49v13.7c-0.01,3.79-2.13,7.26-5.51,9v15.22c0.14,4.07-3.05,7.49-7.12,7.63s-7.49-3.05-7.63-7.12
			c-0.01-0.17-0.01-0.34,0-0.5V655.2c-3.38-1.74-5.5-5.21-5.52-9.01v-13.7c0.02-5.58,4.55-10.09,10.12-10.11h5.52
			C1031.82,622.4,1036.35,626.91,1036.37,632.49z"/>
		<circle class="st3" cx="1023.48" cy="706.05" r="8.09"/>
		<path class="st3" d="M1036.37,725.99v13.7c-0.01,3.79-2.13,7.26-5.51,9v15.22c0.14,4.07-3.05,7.49-7.12,7.63s-7.49-3.05-7.63-7.12
			c-0.01-0.17-0.01-0.34,0-0.5V748.7c-3.38-1.74-5.5-5.21-5.52-9.01v-13.7c0.02-5.58,4.55-10.09,10.12-10.11h5.52
			C1031.82,715.9,1036.35,720.41,1036.37,725.99z"/>
		<circle class="st3" cx="1023.48" cy="799.55" r="8.09"/>
		<path class="st3" d="M1036.37,819.49v13.7c-0.01,3.79-2.13,7.26-5.51,9v15.22c0.14,4.07-3.05,7.49-7.12,7.63
			c-4.07,0.14-7.49-3.05-7.63-7.12c-0.01-0.17-0.01-0.34,0-0.5V842.2c-3.38-1.74-5.5-5.21-5.52-9.01v-13.7
			c0.02-5.58,4.55-10.09,10.12-10.11h5.52C1031.82,809.4,1036.35,813.92,1036.37,819.49z"/>
		<circle class="st3" cx="1023.48" cy="893.05" r="8.09"/>
		<path class="st3" d="M1036.37,912.99v13.7c-0.01,3.79-2.13,7.26-5.51,9v15.22c0.14,4.07-3.05,7.49-7.12,7.63s-7.49-3.05-7.63-7.12
			c-0.01-0.17-0.01-0.34,0-0.5V935.7c-3.38-1.74-5.5-5.21-5.52-9.01v-13.7c0.02-5.58,4.55-10.09,10.12-10.11h5.52
			C1031.82,902.9,1036.35,907.42,1036.37,912.99z"/>
		<circle class="st3" cx="1023.48" cy="986.55" r="8.09"/>
		<path class="st3" d="M1036.37,1006.5v13.7c-0.01,3.79-2.13,7.26-5.51,9v15.22c0.14,4.07-3.05,7.49-7.12,7.63
			c-4.07,0.14-7.49-3.05-7.63-7.12c-0.01-0.17-0.01-0.34,0-0.5v-15.21c-3.38-1.74-5.5-5.21-5.52-9.01v-13.7
			c0.02-5.58,4.55-10.09,10.12-10.11h5.52C1031.82,996.4,1036.35,1000.92,1036.37,1006.5z"/>
		<circle class="st3" cx="1023.48" cy="1080.05" r="8.09"/>
		<path class="st3" d="M1036.37,1100v13.7c-0.01,3.79-2.13,7.26-5.51,9v15.22c0.14,4.07-3.05,7.49-7.12,7.63s-7.49-3.05-7.63-7.12
			c-0.01-0.17-0.01-0.34,0-0.5v-15.21c-3.38-1.74-5.5-5.21-5.52-9.01V1100c0.02-5.58,4.55-10.09,10.12-10.11h5.52
			C1031.82,1089.9,1036.35,1094.42,1036.37,1100z"/>
		<path class="st2" d="M1036.37,538.99v13.7c-0.01,3.79-2.13,7.26-5.51,9v15.22c0.14,4.07-3.05,7.49-7.12,7.63s-7.49-3.05-7.63-7.12
			c-0.01-0.17-0.01-0.34,0-0.5V561.7c-3.38-1.74-5.5-5.21-5.52-9.01v-13.7c0.02-5.58,4.55-10.09,10.12-10.11h5.52
			C1031.82,528.9,1036.35,533.41,1036.37,538.99z"/>
		<circle class="st2" cx="1023.48" cy="612.55" r="8.09"/>
		<circle class="st2" cx="1120.49" cy="238.54" r="8.09"/>
		<path class="st2" d="M1133.37,258.49v13.7c-0.01,3.79-2.13,7.26-5.51,9v15.22c0.14,4.07-3.05,7.49-7.12,7.63
			c-4.07,0.14-7.49-3.05-7.63-7.12c-0.01-0.17-0.01-0.34,0-0.5V281.2c-3.38-1.74-5.5-5.21-5.52-9.01v-13.7
			c0.02-5.58,4.55-10.09,10.12-10.11h5.52C1128.83,248.4,1133.35,252.91,1133.37,258.49z"/>
		<circle class="st2" cx="1120.49" cy="332.04" r="8.09"/>
		<path class="st2" d="M1133.37,351.99v13.7c-0.01,3.79-2.13,7.26-5.51,9v15.22c0.14,4.07-3.05,7.49-7.12,7.63
			c-4.07,0.14-7.49-3.05-7.63-7.12c-0.01-0.17-0.01-0.34,0-0.5V374.7c-3.38-1.74-5.5-5.21-5.52-9.01v-13.7
			c0.02-5.58,4.55-10.09,10.12-10.11h5.52C1128.83,341.9,1133.35,346.41,1133.37,351.99z"/>
		<circle class="st2" cx="1120.49" cy="425.55" r="8.09"/>
		<path class="st2" d="M1133.37,445.49v13.7c-0.01,3.79-2.13,7.26-5.51,9v15.22c0.14,4.07-3.05,7.49-7.12,7.63
			c-4.07,0.14-7.49-3.05-7.63-7.12c-0.01-0.17-0.01-0.34,0-0.5V468.2c-3.38-1.74-5.5-5.21-5.52-9.01v-13.7
			c0.02-5.58,4.55-10.09,10.12-10.11h5.52C1128.83,435.4,1133.35,439.91,1133.37,445.49z"/>
		<circle class="st2" cx="1120.49" cy="519.05" r="8.09"/>
		<path class="st2" d="M1133.37,538.99v13.7c-0.01,3.79-2.13,7.26-5.51,9v15.22c0.14,4.07-3.05,7.49-7.12,7.63s-7.49-3.05-7.63-7.12
			c-0.01-0.17-0.01-0.34,0-0.5V561.7c-3.38-1.74-5.5-5.21-5.52-9.01v-13.7c0.02-5.58,4.55-10.09,10.12-10.11h5.52
			C1128.83,528.9,1133.35,533.41,1133.37,538.99z"/>
		<circle class="st2" cx="1120.49" cy="612.55" r="8.09"/>
		<path class="st2" d="M1133.37,632.49v13.7c-0.01,3.79-2.13,7.26-5.51,9v15.22c0.14,4.07-3.05,7.49-7.12,7.63s-7.49-3.05-7.63-7.12
			c-0.01-0.17-0.01-0.34,0-0.5V655.2c-3.38-1.74-5.5-5.21-5.52-9.01v-13.7c0.02-5.58,4.55-10.09,10.12-10.11h5.52
			C1128.83,622.4,1133.35,626.91,1133.37,632.49z"/>
		<circle class="st3" cx="1120.49" cy="706.05" r="8.09"/>
		<path class="st3" d="M1133.37,725.99v13.7c-0.01,3.79-2.13,7.26-5.51,9v15.22c0.14,4.07-3.05,7.49-7.12,7.63s-7.49-3.05-7.63-7.12
			c-0.01-0.17-0.01-0.34,0-0.5V748.7c-3.38-1.74-5.5-5.21-5.52-9.01v-13.7c0.02-5.58,4.55-10.09,10.12-10.11h5.52
			C1128.83,715.9,1133.35,720.41,1133.37,725.99z"/>
		<circle class="st3" cx="1120.49" cy="799.55" r="8.09"/>
		<path class="st3" d="M1133.37,819.49v13.7c-0.01,3.79-2.13,7.26-5.51,9v15.22c0.14,4.07-3.05,7.49-7.12,7.63
			c-4.07,0.14-7.49-3.05-7.63-7.12c-0.01-0.17-0.01-0.34,0-0.5V842.2c-3.38-1.74-5.5-5.21-5.52-9.01v-13.7
			c0.02-5.58,4.55-10.09,10.12-10.11h5.52C1128.83,809.4,1133.35,813.92,1133.37,819.49z"/>
		<circle class="st3" cx="1120.49" cy="893.05" r="8.09"/>
		<path class="st3" d="M1133.37,912.99v13.7c-0.01,3.79-2.13,7.26-5.51,9v15.22c0.14,4.07-3.05,7.49-7.12,7.63s-7.49-3.05-7.63-7.12
			c-0.01-0.17-0.01-0.34,0-0.5V935.7c-3.38-1.74-5.5-5.21-5.52-9.01v-13.7c0.02-5.58,4.55-10.09,10.12-10.11h5.52
			C1128.83,902.9,1133.35,907.42,1133.37,912.99z"/>
		<circle class="st3" cx="1120.49" cy="986.55" r="8.09"/>
		<path class="st3" d="M1133.37,1006.5v13.7c-0.01,3.79-2.13,7.26-5.51,9v15.22c0.14,4.07-3.05,7.49-7.12,7.63
			c-4.07,0.14-7.49-3.05-7.63-7.12c-0.01-0.17-0.01-0.34,0-0.5v-15.21c-3.38-1.74-5.5-5.21-5.52-9.01v-13.7
			c0.02-5.58,4.55-10.09,10.12-10.11h5.52C1128.83,996.4,1133.35,1000.92,1133.37,1006.5z"/>
		<circle class="st3" cx="1120.49" cy="1080.05" r="8.09"/>
		<path class="st3" d="M1133.37,1100v13.7c-0.01,3.79-2.13,7.26-5.51,9v15.22c0.14,4.07-3.05,7.49-7.12,7.63s-7.49-3.05-7.63-7.12
			c-0.01-0.17-0.01-0.34,0-0.5v-15.21c-3.38-1.74-5.5-5.21-5.52-9.01V1100c0.02-5.58,4.55-10.09,10.12-10.11h5.52
			C1128.83,1089.9,1133.35,1094.42,1133.37,1100z"/>
		<circle class="st2" cx="1217.49" cy="238.54" r="8.09"/>
		<path class="st2" d="M1230.38,258.49v13.7c-0.01,3.79-2.13,7.26-5.51,9v15.22c0.14,4.07-3.05,7.49-7.12,7.63
			c-4.07,0.14-7.49-3.05-7.63-7.12c-0.01-0.17-0.01-0.34,0-0.5V281.2c-3.38-1.74-5.5-5.21-5.52-9.01v-13.7
			c0.02-5.58,4.55-10.09,10.12-10.11h5.52C1225.83,248.4,1230.35,252.91,1230.38,258.49z"/>
		<circle class="st2" cx="1217.49" cy="332.04" r="8.09"/>
		<path class="st2" d="M1230.38,351.99v13.7c-0.01,3.79-2.13,7.26-5.51,9v15.22c0.14,4.07-3.05,7.49-7.12,7.63
			c-4.07,0.14-7.49-3.05-7.63-7.12c-0.01-0.17-0.01-0.34,0-0.5V374.7c-3.38-1.74-5.5-5.21-5.52-9.01v-13.7
			c0.02-5.58,4.55-10.09,10.12-10.11h5.52C1225.83,341.9,1230.35,346.41,1230.38,351.99z"/>
		<circle class="st2" cx="1217.49" cy="425.55" r="8.09"/>
		<path class="st2" d="M1230.38,445.49v13.7c-0.01,3.79-2.13,7.26-5.51,9v15.22c0.14,4.07-3.05,7.49-7.12,7.63
			c-4.07,0.14-7.49-3.05-7.63-7.12c-0.01-0.17-0.01-0.34,0-0.5V468.2c-3.38-1.74-5.5-5.21-5.52-9.01v-13.7
			c0.02-5.58,4.55-10.09,10.12-10.11h5.52C1225.83,435.4,1230.35,439.91,1230.38,445.49z"/>
		<circle class="st2" cx="1217.49" cy="519.05" r="8.09"/>
		<path class="st2" d="M1230.38,538.99v13.7c-0.01,3.79-2.13,7.26-5.51,9v15.22c0.14,4.07-3.05,7.49-7.12,7.63s-7.49-3.05-7.63-7.12
			c-0.01-0.17-0.01-0.34,0-0.5V561.7c-3.38-1.74-5.5-5.21-5.52-9.01v-13.7c0.02-5.58,4.55-10.09,10.12-10.11h5.52
			C1225.83,528.9,1230.35,533.41,1230.38,538.99z"/>
		<circle class="st2" cx="1217.49" cy="612.55" r="8.09"/>
		<path class="st2" d="M1230.38,632.49v13.7c-0.01,3.79-2.13,7.26-5.51,9v15.22c0.14,4.07-3.05,7.49-7.12,7.63s-7.49-3.05-7.63-7.12
			c-0.01-0.17-0.01-0.34,0-0.5V655.2c-3.38-1.74-5.5-5.21-5.52-9.01v-13.7c0.02-5.58,4.55-10.09,10.12-10.11h5.52
			C1225.83,622.4,1230.35,626.91,1230.38,632.49z"/>
		<circle class="st3" cx="1217.49" cy="706.05" r="8.09"/>
		<path class="st3" d="M1230.38,725.99v13.7c-0.01,3.79-2.13,7.26-5.51,9v15.22c0.14,4.07-3.05,7.49-7.12,7.63s-7.49-3.05-7.63-7.12
			c-0.01-0.17-0.01-0.34,0-0.5V748.7c-3.38-1.74-5.5-5.21-5.52-9.01v-13.7c0.02-5.58,4.55-10.09,10.12-10.11h5.52
			C1225.83,715.9,1230.35,720.41,1230.38,725.99z"/>
		<circle class="st3" cx="1217.49" cy="799.55" r="8.09"/>
		<path class="st3" d="M1230.38,819.49v13.7c-0.01,3.79-2.13,7.26-5.51,9v15.22c0.14,4.07-3.05,7.49-7.12,7.63
			c-4.07,0.14-7.49-3.05-7.63-7.12c-0.01-0.17-0.01-0.34,0-0.5V842.2c-3.38-1.74-5.5-5.21-5.52-9.01v-13.7
			c0.02-5.58,4.55-10.09,10.12-10.11h5.52C1225.83,809.4,1230.35,813.92,1230.38,819.49z"/>
		<circle class="st3" cx="1217.49" cy="893.05" r="8.09"/>
		<path class="st3" d="M1230.38,912.99v13.7c-0.01,3.79-2.13,7.26-5.51,9v15.22c0.14,4.07-3.05,7.49-7.12,7.63s-7.49-3.05-7.63-7.12
			c-0.01-0.17-0.01-0.34,0-0.5V935.7c-3.38-1.74-5.5-5.21-5.52-9.01v-13.7c0.02-5.58,4.55-10.09,10.12-10.11h5.52
			C1225.83,902.9,1230.35,907.42,1230.38,912.99z"/>
		<circle class="st3" cx="1217.49" cy="986.55" r="8.09"/>
		<path class="st3" d="M1230.38,1006.5v13.7c-0.01,3.79-2.13,7.26-5.51,9v15.22c0.14,4.07-3.05,7.49-7.12,7.63
			c-4.07,0.14-7.49-3.05-7.63-7.12c-0.01-0.17-0.01-0.34,0-0.5v-15.21c-3.38-1.74-5.5-5.21-5.52-9.01v-13.7
			c0.02-5.58,4.55-10.09,10.12-10.11h5.52C1225.83,996.4,1230.35,1000.92,1230.38,1006.5z"/>
		<circle class="st3" cx="1217.49" cy="1080.05" r="8.09"/>
		<path class="st3" d="M1230.38,1100v13.7c-0.01,3.79-2.13,7.26-5.51,9v15.22c0.14,4.07-3.05,7.49-7.12,7.63s-7.49-3.05-7.63-7.12
			c-0.01-0.17-0.01-0.34,0-0.5v-15.21c-3.38-1.74-5.5-5.21-5.52-9.01V1100c0.02-5.58,4.55-10.09,10.12-10.11h5.52
			C1225.83,1089.9,1230.35,1094.42,1230.38,1100z"/>
		<circle class="st2" cx="1314.49" cy="238.54" r="8.09"/>
		<path class="st2" d="M1327.38,258.49v13.7c-0.01,3.79-2.13,7.26-5.51,9v15.22c0.14,4.07-3.05,7.49-7.12,7.63
			c-4.07,0.14-7.49-3.05-7.63-7.12c-0.01-0.17-0.01-0.34,0-0.5V281.2c-3.38-1.74-5.5-5.21-5.52-9.01v-13.7
			c0.02-5.58,4.55-10.09,10.12-10.11h5.52C1322.84,248.4,1327.36,252.91,1327.38,258.49z"/>
		<circle class="st2" cx="1314.49" cy="332.04" r="8.09"/>
		<path class="st2" d="M1327.38,351.99v13.7c-0.01,3.79-2.13,7.26-5.51,9v15.22c0.14,4.07-3.05,7.49-7.12,7.63
			c-4.07,0.14-7.49-3.05-7.63-7.12c-0.01-0.17-0.01-0.34,0-0.5V374.7c-3.38-1.74-5.5-5.21-5.52-9.01v-13.7
			c0.02-5.58,4.55-10.09,10.12-10.11h5.52C1322.84,341.9,1327.36,346.41,1327.38,351.99z"/>
		<circle class="st2" cx="1314.49" cy="425.55" r="8.09"/>
		<path class="st2" d="M1327.38,445.49v13.7c-0.01,3.79-2.13,7.26-5.51,9v15.22c0.14,4.07-3.05,7.49-7.12,7.63
			c-4.07,0.14-7.49-3.05-7.63-7.12c-0.01-0.17-0.01-0.34,0-0.5V468.2c-3.38-1.74-5.5-5.21-5.52-9.01v-13.7
			c0.02-5.58,4.55-10.09,10.12-10.11h5.52C1322.84,435.4,1327.36,439.91,1327.38,445.49z"/>
		<circle class="st2" cx="1314.49" cy="519.05" r="8.09"/>
		<path class="st2" d="M1327.38,538.99v13.7c-0.01,3.79-2.13,7.26-5.51,9v15.22c0.14,4.07-3.05,7.49-7.12,7.63s-7.49-3.05-7.63-7.12
			c-0.01-0.17-0.01-0.34,0-0.5V561.7c-3.38-1.74-5.5-5.21-5.52-9.01v-13.7c0.02-5.58,4.55-10.09,10.12-10.11h5.52
			C1322.84,528.9,1327.36,533.41,1327.38,538.99z"/>
		<circle class="st2" cx="1314.49" cy="612.55" r="8.09"/>
		<path class="st2" d="M1327.38,632.49v13.7c-0.01,3.79-2.13,7.26-5.51,9v15.22c0.14,4.07-3.05,7.49-7.12,7.63s-7.49-3.05-7.63-7.12
			c-0.01-0.17-0.01-0.34,0-0.5V655.2c-3.38-1.74-5.5-5.21-5.52-9.01v-13.7c0.02-5.58,4.55-10.09,10.12-10.11h5.52
			C1322.84,622.4,1327.36,626.91,1327.38,632.49z"/>
		<circle class="st3" cx="1314.49" cy="706.05" r="8.09"/>
		<path class="st3" d="M1327.38,725.99v13.7c-0.01,3.79-2.13,7.26-5.51,9v15.22c0.14,4.07-3.05,7.49-7.12,7.63s-7.49-3.05-7.63-7.12
			c-0.01-0.17-0.01-0.34,0-0.5V748.7c-3.38-1.74-5.5-5.21-5.52-9.01v-13.7c0.02-5.58,4.55-10.09,10.12-10.11h5.52
			C1322.84,715.9,1327.36,720.41,1327.38,725.99z"/>
		<circle class="st3" cx="1314.49" cy="799.55" r="8.09"/>
		<path class="st3" d="M1327.38,819.49v13.7c-0.01,3.79-2.13,7.26-5.51,9v15.22c0.14,4.07-3.05,7.49-7.12,7.63
			c-4.07,0.14-7.49-3.05-7.63-7.12c-0.01-0.17-0.01-0.34,0-0.5V842.2c-3.38-1.74-5.5-5.21-5.52-9.01v-13.7
			c0.02-5.58,4.55-10.09,10.12-10.11h5.52C1322.84,809.4,1327.36,813.92,1327.38,819.49z"/>
		<circle class="st3" cx="1314.49" cy="893.05" r="8.09"/>
		<path class="st3" d="M1327.38,912.99v13.7c-0.01,3.79-2.13,7.26-5.51,9v15.22c0.14,4.07-3.05,7.49-7.12,7.63s-7.49-3.05-7.63-7.12
			c-0.01-0.17-0.01-0.34,0-0.5V935.7c-3.38-1.74-5.5-5.21-5.52-9.01v-13.7c0.02-5.58,4.55-10.09,10.12-10.11h5.52
			C1322.84,902.9,1327.36,907.42,1327.38,912.99z"/>
		<circle class="st3" cx="1314.49" cy="986.55" r="8.09"/>
		<path class="st3" d="M1327.38,1006.5v13.7c-0.01,3.79-2.13,7.26-5.51,9v15.22c0.14,4.07-3.05,7.49-7.12,7.63
			c-4.07,0.14-7.49-3.05-7.63-7.12c-0.01-0.17-0.01-0.34,0-0.5v-15.21c-3.38-1.74-5.5-5.21-5.52-9.01v-13.7
			c0.02-5.58,4.55-10.09,10.12-10.11h5.52C1322.84,996.4,1327.36,1000.92,1327.38,1006.5z"/>
		<circle class="st3" cx="1314.49" cy="1080.05" r="8.09"/>
		<path class="st3" d="M1327.38,1100v13.7c-0.01,3.79-2.13,7.26-5.51,9v15.22c0.14,4.07-3.05,7.49-7.12,7.63s-7.49-3.05-7.63-7.12
			c-0.01-0.17-0.01-0.34,0-0.5v-15.21c-3.38-1.74-5.5-5.21-5.52-9.01V1100c0.02-5.58,4.55-10.09,10.12-10.11h5.52
			C1322.84,1089.9,1327.36,1094.42,1327.38,1100z"/>
		<circle class="st2" cx="1411.5" cy="238.54" r="8.09"/>
		<path class="st2" d="M1424.38,258.49v13.7c-0.01,3.79-2.13,7.26-5.51,9v15.22c0.14,4.07-3.05,7.49-7.12,7.63
			c-4.07,0.14-7.49-3.05-7.63-7.12c-0.01-0.17-0.01-0.34,0-0.5V281.2c-3.38-1.74-5.5-5.21-5.52-9.01v-13.7
			c0.02-5.58,4.55-10.09,10.12-10.11h5.52C1419.84,248.4,1424.36,252.91,1424.38,258.49z"/>
		<circle class="st2" cx="1411.5" cy="332.04" r="8.09"/>
		<path class="st2" d="M1424.38,351.99v13.7c-0.01,3.79-2.13,7.26-5.51,9v15.22c0.14,4.07-3.05,7.49-7.12,7.63
			c-4.07,0.14-7.49-3.05-7.63-7.12c-0.01-0.17-0.01-0.34,0-0.5V374.7c-3.38-1.74-5.5-5.21-5.52-9.01v-13.7
			c0.02-5.58,4.55-10.09,10.12-10.11h5.52C1419.84,341.9,1424.36,346.41,1424.38,351.99z"/>
		<circle class="st2" cx="1411.5" cy="425.55" r="8.09"/>
		<path class="st2" d="M1424.38,445.49v13.7c-0.01,3.79-2.13,7.26-5.51,9v15.22c0.14,4.07-3.05,7.49-7.12,7.63
			c-4.07,0.14-7.49-3.05-7.63-7.12c-0.01-0.17-0.01-0.34,0-0.5V468.2c-3.38-1.74-5.5-5.21-5.52-9.01v-13.7
			c0.02-5.58,4.55-10.09,10.12-10.11h5.52C1419.84,435.4,1424.36,439.91,1424.38,445.49z"/>
		<circle class="st2" cx="1411.5" cy="519.05" r="8.09"/>
		<path class="st2" d="M1424.38,538.99v13.7c-0.01,3.79-2.13,7.26-5.51,9v15.22c0.14,4.07-3.05,7.49-7.12,7.63s-7.49-3.05-7.63-7.12
			c-0.01-0.17-0.01-0.34,0-0.5V561.7c-3.38-1.74-5.5-5.21-5.52-9.01v-13.7c0.02-5.58,4.55-10.09,10.12-10.11h5.52
			C1419.84,528.9,1424.36,533.41,1424.38,538.99z"/>
		<circle class="st2" cx="1411.5" cy="612.55" r="8.09"/>
		<path class="st2" d="M1424.38,632.49v13.7c-0.01,3.79-2.13,7.26-5.51,9v15.22c0.14,4.07-3.05,7.49-7.12,7.63s-7.49-3.05-7.63-7.12
			c-0.01-0.17-0.01-0.34,0-0.5V655.2c-3.38-1.74-5.5-5.21-5.52-9.01v-13.7c0.02-5.58,4.55-10.09,10.12-10.11h5.52
			C1419.84,622.4,1424.36,626.91,1424.38,632.49z"/>
		<circle class="st3" cx="1411.5" cy="706.05" r="8.09"/>
		<path class="st3" d="M1424.38,725.99v13.7c-0.01,3.79-2.13,7.26-5.51,9v15.22c0.14,4.07-3.05,7.49-7.12,7.63s-7.49-3.05-7.63-7.12
			c-0.01-0.17-0.01-0.34,0-0.5V748.7c-3.38-1.74-5.5-5.21-5.52-9.01v-13.7c0.02-5.58,4.55-10.09,10.12-10.11h5.52
			C1419.84,715.9,1424.36,720.41,1424.38,725.99z"/>
		<circle class="st3" cx="1411.5" cy="799.55" r="8.09"/>
		<path class="st3" d="M1424.38,819.49v13.7c-0.01,3.79-2.13,7.26-5.51,9v15.22c0.14,4.07-3.05,7.49-7.12,7.63
			c-4.07,0.14-7.49-3.05-7.63-7.12c-0.01-0.17-0.01-0.34,0-0.5V842.2c-3.38-1.74-5.5-5.21-5.52-9.01v-13.7
			c0.02-5.58,4.55-10.09,10.12-10.11h5.52C1419.84,809.4,1424.36,813.92,1424.38,819.49z"/>
		<circle class="st3" cx="1411.5" cy="893.05" r="8.09"/>
		<path class="st3" d="M1424.38,912.99v13.7c-0.01,3.79-2.13,7.26-5.51,9v15.22c0.14,4.07-3.05,7.49-7.12,7.63s-7.49-3.05-7.63-7.12
			c-0.01-0.17-0.01-0.34,0-0.5V935.7c-3.38-1.74-5.5-5.21-5.52-9.01v-13.7c0.02-5.58,4.55-10.09,10.12-10.11h5.52
			C1419.84,902.9,1424.36,907.42,1424.38,912.99z"/>
		<circle class="st3" cx="1411.5" cy="986.55" r="8.09"/>
		<path class="st3" d="M1424.38,1006.5v13.7c-0.01,3.79-2.13,7.26-5.51,9v15.22c0.14,4.07-3.05,7.49-7.12,7.63
			c-4.07,0.14-7.49-3.05-7.63-7.12c-0.01-0.17-0.01-0.34,0-0.5v-15.21c-3.38-1.74-5.5-5.21-5.52-9.01v-13.7
			c0.02-5.58,4.55-10.09,10.12-10.11h5.52C1419.84,996.4,1424.36,1000.92,1424.38,1006.5z"/>
		<circle class="st3" cx="1411.5" cy="1080.05" r="8.09"/>
		<path class="st3" d="M1424.38,1100v13.7c-0.01,3.79-2.13,7.26-5.51,9v15.22c0.14,4.07-3.05,7.49-7.12,7.63s-7.49-3.05-7.63-7.12
			c-0.01-0.17-0.01-0.34,0-0.5v-15.21c-3.38-1.74-5.5-5.21-5.52-9.01V1100c0.02-5.58,4.55-10.09,10.12-10.11h5.52
			C1419.84,1089.9,1424.36,1094.42,1424.38,1100z"/>
		<circle class="st2" cx="1508.5" cy="238.54" r="8.09"/>
		<path class="st2" d="M1521.39,258.49v13.7c-0.01,3.79-2.13,7.26-5.51,9v15.22c0.14,4.07-3.05,7.49-7.12,7.63
			c-4.07,0.14-7.49-3.05-7.63-7.12c-0.01-0.17-0.01-0.34,0-0.5V281.2c-3.38-1.74-5.5-5.21-5.52-9.01v-13.7
			c0.02-5.58,4.55-10.09,10.12-10.11h5.52C1516.84,248.4,1521.36,252.91,1521.39,258.49z"/>
		<circle class="st2" cx="1508.5" cy="332.04" r="8.09"/>
		<path class="st2" d="M1521.39,351.99v13.7c-0.01,3.79-2.13,7.26-5.51,9v15.22c0.14,4.07-3.05,7.49-7.12,7.63
			c-4.07,0.14-7.49-3.05-7.63-7.12c-0.01-0.17-0.01-0.34,0-0.5V374.7c-3.38-1.74-5.5-5.21-5.52-9.01v-13.7
			c0.02-5.58,4.55-10.09,10.12-10.11h5.52C1516.84,341.9,1521.36,346.41,1521.39,351.99z"/>
		<circle class="st2" cx="1508.5" cy="425.55" r="8.09"/>
		<path class="st2" d="M1521.39,445.49v13.7c-0.01,3.79-2.13,7.26-5.51,9v15.22c0.14,4.07-3.05,7.49-7.12,7.63
			c-4.07,0.14-7.49-3.05-7.63-7.12c-0.01-0.17-0.01-0.34,0-0.5V468.2c-3.38-1.74-5.5-5.21-5.52-9.01v-13.7
			c0.02-5.58,4.55-10.09,10.12-10.11h5.52C1516.84,435.4,1521.36,439.91,1521.39,445.49z"/>
		<circle class="st2" cx="1508.5" cy="519.05" r="8.09"/>
		<path class="st2" d="M1521.39,538.99v13.7c-0.01,3.79-2.13,7.26-5.51,9v15.22c0.14,4.07-3.05,7.49-7.12,7.63s-7.49-3.05-7.63-7.12
			c-0.01-0.17-0.01-0.34,0-0.5V561.7c-3.38-1.74-5.5-5.21-5.52-9.01v-13.7c0.02-5.58,4.55-10.09,10.12-10.11h5.52
			C1516.84,528.9,1521.36,533.41,1521.39,538.99z"/>
		<circle class="st2" cx="1508.5" cy="612.55" r="8.09"/>
		<path class="st2" d="M1521.39,632.49v13.7c-0.01,3.79-2.13,7.26-5.51,9v15.22c0.14,4.07-3.05,7.49-7.12,7.63s-7.49-3.05-7.63-7.12
			c-0.01-0.17-0.01-0.34,0-0.5V655.2c-3.38-1.74-5.5-5.21-5.52-9.01v-13.7c0.02-5.58,4.55-10.09,10.12-10.11h5.52
			C1516.84,622.4,1521.36,626.91,1521.39,632.49z"/>
		<circle class="st3" cx="1508.5" cy="706.05" r="8.09"/>
		<path class="st3" d="M1521.39,725.99v13.7c-0.01,3.79-2.13,7.26-5.51,9v15.22c0.14,4.07-3.05,7.49-7.12,7.63s-7.49-3.05-7.63-7.12
			c-0.01-0.17-0.01-0.34,0-0.5V748.7c-3.38-1.74-5.5-5.21-5.52-9.01v-13.7c0.02-5.58,4.55-10.09,10.12-10.11h5.52
			C1516.84,715.9,1521.36,720.41,1521.39,725.99z"/>
		<circle class="st3" cx="1508.5" cy="799.55" r="8.09"/>
		<path class="st3" d="M1521.39,819.49v13.7c-0.01,3.79-2.13,7.26-5.51,9v15.22c0.14,4.07-3.05,7.49-7.12,7.63
			c-4.07,0.14-7.49-3.05-7.63-7.12c-0.01-0.17-0.01-0.34,0-0.5V842.2c-3.38-1.74-5.5-5.21-5.52-9.01v-13.7
			c0.02-5.58,4.55-10.09,10.12-10.11h5.52C1516.84,809.4,1521.36,813.92,1521.39,819.49z"/>
		<circle class="st3" cx="1508.5" cy="893.05" r="8.09"/>
		<path class="st3" d="M1521.39,912.99v13.7c-0.01,3.79-2.13,7.26-5.51,9v15.22c0.14,4.07-3.05,7.49-7.12,7.63s-7.49-3.05-7.63-7.12
			c-0.01-0.17-0.01-0.34,0-0.5V935.7c-3.38-1.74-5.5-5.21-5.52-9.01v-13.7c0.02-5.58,4.55-10.09,10.12-10.11h5.52
			C1516.84,902.9,1521.36,907.42,1521.39,912.99z"/>
		<circle class="st3" cx="1508.5" cy="986.55" r="8.09"/>
		<path class="st3" d="M1521.39,1006.5v13.7c-0.01,3.79-2.13,7.26-5.51,9v15.22c0.14,4.07-3.05,7.49-7.12,7.63
			c-4.07,0.14-7.49-3.05-7.63-7.12c-0.01-0.17-0.01-0.34,0-0.5v-15.21c-3.38-1.74-5.5-5.21-5.52-9.01v-13.7
			c0.02-5.58,4.55-10.09,10.12-10.11h5.52C1516.84,996.4,1521.36,1000.92,1521.39,1006.5z"/>
		<circle class="st3" cx="1508.5" cy="1080.05" r="8.09"/>
		<path class="st3" d="M1521.39,1100v13.7c-0.01,3.79-2.13,7.26-5.51,9v15.22c0.14,4.07-3.05,7.49-7.12,7.63s-7.49-3.05-7.63-7.12
			c-0.01-0.17-0.01-0.34,0-0.5v-15.21c-3.38-1.74-5.5-5.21-5.52-9.01V1100c0.02-5.58,4.55-10.09,10.12-10.11h5.52
			C1516.84,1089.9,1521.36,1094.42,1521.39,1100z"/>
		<circle class="st2" cx="1605.51" cy="238.54" r="8.09"/>
		<path class="st2" d="M1618.39,258.49v13.7c-0.01,3.79-2.13,7.26-5.51,9v15.22c0.14,4.07-3.05,7.49-7.12,7.63
			c-4.07,0.14-7.49-3.05-7.63-7.12c-0.01-0.17-0.01-0.34,0-0.5V281.2c-3.38-1.74-5.5-5.21-5.52-9.01v-13.7
			c0.02-5.58,4.55-10.09,10.12-10.11h5.52C1613.85,248.4,1618.37,252.91,1618.39,258.49z"/>
		<circle class="st2" cx="1605.51" cy="332.04" r="8.09"/>
		<path class="st2" d="M1618.39,351.99v13.7c-0.01,3.79-2.13,7.26-5.51,9v15.22c0.14,4.07-3.05,7.49-7.12,7.63
			c-4.07,0.14-7.49-3.05-7.63-7.12c-0.01-0.17-0.01-0.34,0-0.5V374.7c-3.38-1.74-5.5-5.21-5.52-9.01v-13.7
			c0.02-5.58,4.55-10.09,10.12-10.11h5.52C1613.85,341.9,1618.37,346.41,1618.39,351.99z"/>
		<circle class="st2" cx="1605.51" cy="425.55" r="8.09"/>
		<path class="st2" d="M1618.39,445.49v13.7c-0.01,3.79-2.13,7.26-5.51,9v15.22c0.14,4.07-3.05,7.49-7.12,7.63
			c-4.07,0.14-7.49-3.05-7.63-7.12c-0.01-0.17-0.01-0.34,0-0.5V468.2c-3.38-1.74-5.5-5.21-5.52-9.01v-13.7
			c0.02-5.58,4.55-10.09,10.12-10.11h5.52C1613.85,435.4,1618.37,439.91,1618.39,445.49z"/>
		<circle class="st2" cx="1605.51" cy="519.05" r="8.09"/>
		<path class="st2" d="M1618.39,538.99v13.7c-0.01,3.79-2.13,7.26-5.51,9v15.22c0.14,4.07-3.05,7.49-7.12,7.63s-7.49-3.05-7.63-7.12
			c-0.01-0.17-0.01-0.34,0-0.5V561.7c-3.38-1.74-5.5-5.21-5.52-9.01v-13.7c0.02-5.58,4.55-10.09,10.12-10.11h5.52
			C1613.85,528.9,1618.37,533.41,1618.39,538.99z"/>
		<circle class="st2" cx="1605.51" cy="612.55" r="8.09"/>
		<path class="st2" d="M1618.39,632.49v13.7c-0.01,3.79-2.13,7.26-5.51,9v15.22c0.14,4.07-3.05,7.49-7.12,7.63s-7.49-3.05-7.63-7.12
			c-0.01-0.17-0.01-0.34,0-0.5V655.2c-3.38-1.74-5.5-5.21-5.52-9.01v-13.7c0.02-5.58,4.55-10.09,10.12-10.11h5.52
			C1613.85,622.4,1618.37,626.91,1618.39,632.49z"/>
		<circle class="st3" cx="1605.51" cy="706.05" r="8.09"/>
		<path class="st3" d="M1618.39,725.99v13.7c-0.01,3.79-2.13,7.26-5.51,9v15.22c0.14,4.07-3.05,7.49-7.12,7.63s-7.49-3.05-7.63-7.12
			c-0.01-0.17-0.01-0.34,0-0.5V748.7c-3.38-1.74-5.5-5.21-5.52-9.01v-13.7c0.02-5.58,4.55-10.09,10.12-10.11h5.52
			C1613.85,715.9,1618.37,720.41,1618.39,725.99z"/>
		<circle class="st3" cx="1605.51" cy="799.55" r="8.09"/>
		<path class="st3" d="M1618.39,819.49v13.7c-0.01,3.79-2.13,7.26-5.51,9v15.22c0.14,4.07-3.05,7.49-7.12,7.63
			c-4.07,0.14-7.49-3.05-7.63-7.12c-0.01-0.17-0.01-0.34,0-0.5V842.2c-3.38-1.74-5.5-5.21-5.52-9.01v-13.7
			c0.02-5.58,4.55-10.09,10.12-10.11h5.52C1613.85,809.4,1618.37,813.92,1618.39,819.49z"/>
		<circle class="st3" cx="1605.51" cy="893.05" r="8.09"/>
		<path class="st3" d="M1618.39,912.99v13.7c-0.01,3.79-2.13,7.26-5.51,9v15.22c0.14,4.07-3.05,7.49-7.12,7.63s-7.49-3.05-7.63-7.12
			c-0.01-0.17-0.01-0.34,0-0.5V935.7c-3.38-1.74-5.5-5.21-5.52-9.01v-13.7c0.02-5.58,4.55-10.09,10.12-10.11h5.52
			C1613.85,902.9,1618.37,907.42,1618.39,912.99z"/>
		<circle class="st3" cx="1605.51" cy="986.55" r="8.09"/>
		<path class="st3" d="M1618.39,1006.5v13.7c-0.01,3.79-2.13,7.26-5.51,9v15.22c0.14,4.07-3.05,7.49-7.12,7.63
			c-4.07,0.14-7.49-3.05-7.63-7.12c-0.01-0.17-0.01-0.34,0-0.5v-15.21c-3.38-1.74-5.5-5.21-5.52-9.01v-13.7
			c0.02-5.58,4.55-10.09,10.12-10.11h5.52C1613.85,996.4,1618.37,1000.92,1618.39,1006.5z"/>
		<circle class="st3" cx="1605.51" cy="1080.05" r="8.09"/>
		<path class="st3" d="M1618.39,1100v13.7c-0.01,3.79-2.13,7.26-5.51,9v15.22c0.14,4.07-3.05,7.49-7.12,7.63s-7.49-3.05-7.63-7.12
			c-0.01-0.17-0.01-0.34,0-0.5v-15.21c-3.38-1.74-5.5-5.21-5.52-9.01V1100c0.02-5.58,4.55-10.09,10.12-10.11h5.52
			C1613.85,1089.9,1618.37,1094.42,1618.39,1100z"/>
		<circle class="st2" cx="1702.51" cy="238.54" r="8.09"/>
		<path class="st2" d="M1715.39,258.49v13.7c-0.01,3.79-2.13,7.26-5.51,9v15.22c0.14,4.07-3.05,7.49-7.12,7.63
			c-4.07,0.14-7.49-3.05-7.63-7.12c-0.01-0.17-0.01-0.34,0-0.5V281.2c-3.38-1.74-5.5-5.21-5.52-9.01v-13.7
			c0.02-5.58,4.55-10.09,10.12-10.11h5.52C1710.85,248.4,1715.37,252.91,1715.39,258.49z"/>
		<circle class="st2" cx="1702.51" cy="332.04" r="8.09"/>
		<path class="st2" d="M1715.39,351.99v13.7c-0.01,3.79-2.13,7.26-5.51,9v15.22c0.14,4.07-3.05,7.49-7.12,7.63
			c-4.07,0.14-7.49-3.05-7.63-7.12c-0.01-0.17-0.01-0.34,0-0.5V374.7c-3.38-1.74-5.5-5.21-5.52-9.01v-13.7
			c0.02-5.58,4.55-10.09,10.12-10.11h5.52C1710.85,341.9,1715.37,346.41,1715.39,351.99z"/>
		<circle class="st2" cx="1702.51" cy="425.55" r="8.09"/>
		<path class="st2" d="M1715.39,445.49v13.7c-0.01,3.79-2.13,7.26-5.51,9v15.22c0.14,4.07-3.05,7.49-7.12,7.63
			c-4.07,0.14-7.49-3.05-7.63-7.12c-0.01-0.17-0.01-0.34,0-0.5V468.2c-3.38-1.74-5.5-5.21-5.52-9.01v-13.7
			c0.02-5.58,4.55-10.09,10.12-10.11h5.52C1710.85,435.4,1715.37,439.91,1715.39,445.49z"/>
		<circle class="st2" cx="1702.51" cy="519.05" r="8.09"/>
		<path class="st2" d="M1715.39,538.99v13.7c-0.01,3.79-2.13,7.26-5.51,9v15.22c0.14,4.07-3.05,7.49-7.12,7.63
			c-4.07,0.14-7.49-3.05-7.63-7.12c-0.01-0.17-0.01-0.34,0-0.5V561.7c-3.38-1.74-5.5-5.21-5.52-9.01v-13.7
			c0.02-5.58,4.55-10.09,10.12-10.11h5.52C1710.85,528.9,1715.37,533.41,1715.39,538.99z"/>
		<circle class="st2" cx="1702.51" cy="612.55" r="8.09"/>
		<path class="st2" d="M1715.39,632.49v13.7c-0.01,3.79-2.13,7.26-5.51,9v15.22c0.14,4.07-3.05,7.49-7.12,7.63
			c-4.07,0.14-7.49-3.05-7.63-7.12c-0.01-0.17-0.01-0.34,0-0.5V655.2c-3.38-1.74-5.5-5.21-5.52-9.01v-13.7
			c0.02-5.58,4.55-10.09,10.12-10.11h5.52C1710.85,622.4,1715.37,626.91,1715.39,632.49z"/>
		<circle class="st3" cx="1702.51" cy="706.05" r="8.09"/>
		<path class="st3" d="M1715.39,725.99v13.7c-0.01,3.79-2.13,7.26-5.51,9v15.22c0.14,4.07-3.05,7.49-7.12,7.63
			c-4.07,0.14-7.49-3.05-7.63-7.12c-0.01-0.17-0.01-0.34,0-0.5V748.7c-3.38-1.74-5.5-5.21-5.52-9.01v-13.7
			c0.02-5.58,4.55-10.09,10.12-10.11h5.52C1710.85,715.9,1715.37,720.41,1715.39,725.99z"/>
		<circle class="st3" cx="1702.51" cy="799.55" r="8.09"/>
		<path class="st3" d="M1715.39,819.49v13.7c-0.01,3.79-2.13,7.26-5.51,9v15.22c0.14,4.07-3.05,7.49-7.12,7.63
			c-4.07,0.14-7.49-3.05-7.63-7.12c-0.01-0.17-0.01-0.34,0-0.5V842.2c-3.38-1.74-5.5-5.21-5.52-9.01v-13.7
			c0.02-5.58,4.55-10.09,10.12-10.11h5.52C1710.85,809.4,1715.37,813.92,1715.39,819.49z"/>
		<circle class="st3" cx="1702.51" cy="893.05" r="8.09"/>
		<path class="st3" d="M1715.39,912.99v13.7c-0.01,3.79-2.13,7.26-5.51,9v15.22c0.14,4.07-3.05,7.49-7.12,7.63
			c-4.07,0.14-7.49-3.05-7.63-7.12c-0.01-0.17-0.01-0.34,0-0.5V935.7c-3.38-1.74-5.5-5.21-5.52-9.01v-13.7
			c0.02-5.58,4.55-10.09,10.12-10.11h5.52C1710.85,902.9,1715.37,907.42,1715.39,912.99z"/>
		<circle class="st3" cx="1702.51" cy="986.55" r="8.09"/>
		<path class="st3" d="M1715.39,1006.5v13.7c-0.01,3.79-2.13,7.26-5.51,9v15.22c0.14,4.07-3.05,7.49-7.12,7.63
			c-4.07,0.14-7.49-3.05-7.63-7.12c-0.01-0.17-0.01-0.34,0-0.5v-15.21c-3.38-1.74-5.5-5.21-5.52-9.01v-13.7
			c0.02-5.58,4.55-10.09,10.12-10.11h5.52C1710.85,996.4,1715.37,1000.92,1715.39,1006.5z"/>
		<circle class="st3" cx="1702.51" cy="1080.05" r="8.09"/>
		<path class="st3" d="M1715.39,1100v13.7c-0.01,3.79-2.13,7.26-5.51,9v15.22c0.14,4.07-3.05,7.49-7.12,7.63
			c-4.07,0.14-7.49-3.05-7.63-7.12c-0.01-0.17-0.01-0.34,0-0.5v-15.21c-3.38-1.74-5.5-5.21-5.52-9.01V1100
			c0.02-5.58,4.55-10.09,10.12-10.11h5.52C1710.85,1089.9,1715.37,1094.42,1715.39,1100z"/>
		<circle class="st2" cx="1799.51" cy="238.54" r="8.09"/>
		<path class="st2" d="M1812.4,258.49v13.7c-0.01,3.79-2.13,7.26-5.51,9v15.22c0.14,4.07-3.05,7.49-7.12,7.63
			c-4.07,0.14-7.49-3.05-7.63-7.12c-0.01-0.17-0.01-0.34,0-0.5V281.2c-3.38-1.74-5.5-5.21-5.52-9.01v-13.7
			c0.02-5.58,4.55-10.09,10.12-10.11h5.52C1807.85,248.4,1812.37,252.91,1812.4,258.49z"/>
		<circle class="st2" cx="1799.51" cy="332.04" r="8.09"/>
		<path class="st2" d="M1812.4,351.99v13.7c-0.01,3.79-2.13,7.26-5.51,9v15.22c0.14,4.07-3.05,7.49-7.12,7.63
			c-4.07,0.14-7.49-3.05-7.63-7.12c-0.01-0.17-0.01-0.34,0-0.5V374.7c-3.38-1.74-5.5-5.21-5.52-9.01v-13.7
			c0.02-5.58,4.55-10.09,10.12-10.11h5.52C1807.85,341.9,1812.37,346.41,1812.4,351.99z"/>
		<circle class="st2" cx="1799.51" cy="425.55" r="8.09"/>
		<path class="st2" d="M1812.4,445.49v13.7c-0.01,3.79-2.13,7.26-5.51,9v15.22c0.14,4.07-3.05,7.49-7.12,7.63
			c-4.07,0.14-7.49-3.05-7.63-7.12c-0.01-0.17-0.01-0.34,0-0.5V468.2c-3.38-1.74-5.5-5.21-5.52-9.01v-13.7
			c0.02-5.58,4.55-10.09,10.12-10.11h5.52C1807.85,435.4,1812.37,439.91,1812.4,445.49z"/>
		<circle class="st2" cx="1799.51" cy="519.05" r="8.09"/>
		<path class="st2" d="M1812.4,538.99v13.7c-0.01,3.79-2.13,7.26-5.51,9v15.22c0.14,4.07-3.05,7.49-7.12,7.63s-7.49-3.05-7.63-7.12
			c-0.01-0.17-0.01-0.34,0-0.5V561.7c-3.38-1.74-5.5-5.21-5.52-9.01v-13.7c0.02-5.58,4.55-10.09,10.12-10.11h5.52
			C1807.85,528.9,1812.37,533.41,1812.4,538.99z"/>
		<circle class="st3" cx="1799.51" cy="612.55" r="8.09"/>
		<path class="st3" d="M1812.4,632.49v13.7c-0.01,3.79-2.13,7.26-5.51,9v15.22c0.14,4.07-3.05,7.49-7.12,7.63s-7.49-3.05-7.63-7.12
			c-0.01-0.17-0.01-0.34,0-0.5V655.2c-3.38-1.74-5.5-5.21-5.52-9.01v-13.7c0.02-5.58,4.55-10.09,10.12-10.11h5.52
			C1807.85,622.4,1812.37,626.91,1812.4,632.49z"/>
		<circle class="st3" cx="1799.51" cy="706.05" r="8.09"/>
		<path class="st3" d="M1812.4,725.99v13.7c-0.01,3.79-2.13,7.26-5.51,9v15.22c0.14,4.07-3.05,7.49-7.12,7.63s-7.49-3.05-7.63-7.12
			c-0.01-0.17-0.01-0.34,0-0.5V748.7c-3.38-1.74-5.5-5.21-5.52-9.01v-13.7c0.02-5.58,4.55-10.09,10.12-10.11h5.52
			C1807.85,715.9,1812.37,720.41,1812.4,725.99z"/>
		<circle class="st3" cx="1799.51" cy="799.55" r="8.09"/>
		<path class="st3" d="M1812.4,819.49v13.7c-0.01,3.79-2.13,7.26-5.51,9v15.22c0.14,4.07-3.05,7.49-7.12,7.63
			c-4.07,0.14-7.49-3.05-7.63-7.12c-0.01-0.17-0.01-0.34,0-0.5V842.2c-3.38-1.74-5.5-5.21-5.52-9.01v-13.7
			c0.02-5.58,4.55-10.09,10.12-10.11h5.52C1807.85,809.4,1812.37,813.92,1812.4,819.49z"/>
		<circle class="st3" cx="1799.51" cy="893.05" r="8.09"/>
		<path class="st3" d="M1812.4,912.99v13.7c-0.01,3.79-2.13,7.26-5.51,9v15.22c0.14,4.07-3.05,7.49-7.12,7.63s-7.49-3.05-7.63-7.12
			c-0.01-0.17-0.01-0.34,0-0.5V935.7c-3.38-1.74-5.5-5.21-5.52-9.01v-13.7c0.02-5.58,4.55-10.09,10.12-10.11h5.52
			C1807.85,902.9,1812.37,907.42,1812.4,912.99z"/>
		<circle class="st3" cx="1799.51" cy="986.55" r="8.09"/>
		<path class="st3" d="M1812.4,1006.5v13.7c-0.01,3.79-2.13,7.26-5.51,9v15.22c0.14,4.07-3.05,7.49-7.12,7.63
			c-4.07,0.14-7.49-3.05-7.63-7.12c-0.01-0.17-0.01-0.34,0-0.5v-15.21c-3.38-1.74-5.5-5.21-5.52-9.01v-13.7
			c0.02-5.58,4.55-10.09,10.12-10.11h5.52C1807.85,996.4,1812.37,1000.92,1812.4,1006.5z"/>
		<circle class="st3" cx="1799.51" cy="1080.05" r="8.09"/>
		<path class="st3" d="M1812.4,1100v13.7c-0.01,3.79-2.13,7.26-5.51,9v15.22c0.14,4.07-3.05,7.49-7.12,7.63s-7.49-3.05-7.63-7.12
			c-0.01-0.17-0.01-0.34,0-0.5v-15.21c-3.38-1.74-5.5-5.21-5.52-9.01V1100c0.02-5.58,4.55-10.09,10.12-10.11h5.52
			C1807.85,1089.9,1812.37,1094.42,1812.4,1100z"/>
		<path class="st2" d="M1909.4,258.49v13.7c-0.01,3.79-2.13,7.26-5.51,9v15.22c0.14,4.07-3.05,7.49-7.12,7.63
			c-4.07,0.14-7.49-3.05-7.63-7.12c-0.01-0.17-0.01-0.34,0-0.5V281.2c-3.38-1.74-5.5-5.21-5.52-9.01v-13.7
			c0.02-5.58,4.55-10.09,10.12-10.11h5.52C1904.86,248.4,1909.38,252.91,1909.4,258.49z"/>
		<path class="st2" d="M1909.4,351.99v13.7c-0.01,3.79-2.13,7.26-5.51,9v15.22c0.14,4.07-3.05,7.49-7.12,7.63
			c-4.07,0.14-7.49-3.05-7.63-7.12c-0.01-0.17-0.01-0.34,0-0.5V374.7c-3.38-1.74-5.5-5.21-5.52-9.01v-13.7
			c0.02-5.58,4.55-10.09,10.12-10.11h5.52C1904.86,341.9,1909.38,346.41,1909.4,351.99z"/>
		<path class="st2" d="M1909.4,445.49v13.7c-0.01,3.79-2.13,7.26-5.51,9v15.22c0.14,4.07-3.05,7.49-7.12,7.63
			c-4.07,0.14-7.49-3.05-7.63-7.12c-0.01-0.17-0.01-0.34,0-0.5V468.2c-3.38-1.74-5.5-5.21-5.52-9.01v-13.7
			c0.02-5.58,4.55-10.09,10.12-10.11h5.52C1904.86,435.4,1909.38,439.91,1909.4,445.49z"/>
		<path class="st2" d="M1909.4,538.99v13.7c-0.01,3.79-2.13,7.26-5.51,9v15.22c0.14,4.07-3.05,7.49-7.12,7.63s-7.49-3.05-7.63-7.12
			c-0.01-0.17-0.01-0.34,0-0.5V561.7c-3.38-1.74-5.5-5.21-5.52-9.01v-13.7c0.02-5.58,4.55-10.09,10.12-10.11h5.52
			C1904.86,528.9,1909.38,533.41,1909.4,538.99z"/>
		<path class="st3" d="M1909.4,632.49v13.7c-0.01,3.79-2.13,7.26-5.51,9v15.22c0.14,4.07-3.05,7.49-7.12,7.63s-7.49-3.05-7.63-7.12
			c-0.01-0.17-0.01-0.34,0-0.5V655.2c-3.38-1.74-5.5-5.21-5.52-9.01v-13.7c0.02-5.58,4.55-10.09,10.12-10.11h5.52
			C1904.86,622.4,1909.38,626.91,1909.4,632.49z"/>
		<path class="st3" d="M1909.4,725.99v13.7c-0.01,3.79-2.13,7.26-5.51,9v15.22c0.14,4.07-3.05,7.49-7.12,7.63s-7.49-3.05-7.63-7.12
			c-0.01-0.17-0.01-0.34,0-0.5V748.7c-3.38-1.74-5.5-5.21-5.52-9.01v-13.7c0.02-5.58,4.55-10.09,10.12-10.11h5.52
			C1904.86,715.9,1909.38,720.41,1909.4,725.99z"/>
		<path class="st3" d="M1909.4,819.49v13.7c-0.01,3.79-2.13,7.26-5.51,9v15.22c0.14,4.07-3.05,7.49-7.12,7.63
			c-4.07,0.14-7.49-3.05-7.63-7.12c-0.01-0.17-0.01-0.34,0-0.5V842.2c-3.38-1.74-5.5-5.21-5.52-9.01v-13.7
			c0.02-5.58,4.55-10.09,10.12-10.11h5.52C1904.86,809.4,1909.38,813.92,1909.4,819.49z"/>
		<path class="st3" d="M1909.4,912.99v13.7c-0.01,3.79-2.13,7.26-5.51,9v15.22c0.14,4.07-3.05,7.49-7.12,7.63s-7.49-3.05-7.63-7.12
			c-0.01-0.17-0.01-0.34,0-0.5V935.7c-3.38-1.74-5.5-5.21-5.52-9.01v-13.7c0.02-5.58,4.55-10.09,10.12-10.11h5.52
			C1904.86,902.9,1909.38,907.42,1909.4,912.99z"/>
		<path class="st3" d="M1909.4,1006.5v13.7c-0.01,3.79-2.13,7.26-5.51,9v15.22c0.14,4.07-3.05,7.49-7.12,7.63
			c-4.07,0.14-7.49-3.05-7.63-7.12c-0.01-0.17-0.01-0.34,0-0.5v-15.21c-3.38-1.74-5.5-5.21-5.52-9.01v-13.7
			c0.02-5.58,4.55-10.09,10.12-10.11h5.52C1904.86,996.4,1909.38,1000.92,1909.4,1006.5z"/>
		<path class="st3" d="M1909.4,1100v13.7c-0.01,3.79-2.13,7.26-5.51,9v15.22c0.14,4.07-3.05,7.49-7.12,7.63s-7.49-3.05-7.63-7.12
			c-0.01-0.17-0.01-0.34,0-0.5v-15.21c-3.38-1.74-5.5-5.21-5.52-9.01V1100c0.02-5.58,4.55-10.09,10.12-10.11h5.52
			C1904.86,1089.9,1909.38,1094.42,1909.4,1100z"/>
	</g>
	<g>
		<path class="st2" d="M2070.5,439.17c0-16.54-13.46-30-30-30c-16.54,0-30,13.46-30,30c0,15.53,11.86,28.34,27,29.85v16.48h-10.75
			c-1.66,0-3,1.34-3,3s1.34,3,3,3h10.75v10.33c0,1.66,1.34,3,3,3s3-1.34,3-3V491.5h11.25c1.66,0,3-1.34,3-3s-1.34-3-3-3h-11.25
			v-16.48C2058.64,467.51,2070.5,454.7,2070.5,439.17z M2040.5,463.17c-13.23,0-24-10.77-24-24c0-13.23,10.77-24,24-24
			c13.23,0,24,10.77,24,24C2064.5,452.4,2053.73,463.17,2040.5,463.17z"/>
		<g>
			<g>
				<path class="st1" d="M2145.8,430.96h7.98v28.77h7.91v7.07h-7.91v10.08h-8.19V466.8h-23.03v-6.23L2145.8,430.96z M2146.01,443.21
					l-13.65,17.36h13.65V443.21z"/>
				<path class="st1" d="M2185.28,477.86c-3.9,0-7.28-0.58-10.15-1.73c-2.87-1.16-5.09-2.73-6.67-4.72c-1.57-2-2.36-4.25-2.36-6.77
					c0-2.15,0.57-3.98,1.71-5.49c1.14-1.52,2.71-2.68,4.69-3.5c1.98-0.82,4.21-1.23,6.68-1.23c0.98,0,1.89,0.08,2.73,0.25
					c0.84,0.16,1.82,0.38,2.94,0.67v2.03c-1.98,0-3.75,0.29-5.29,0.88c-1.54,0.58-2.75,1.37-3.62,2.34s-1.31,2.05-1.31,3.22
					c0,1.35,0.48,2.51,1.44,3.48c0.96,0.97,2.24,1.71,3.85,2.24c1.61,0.53,3.39,0.79,5.36,0.79c3.64,0,6.33-0.47,8.08-1.42
					s2.63-2.15,2.63-3.62c0-1.17-0.43-2.16-1.28-2.99s-2.04-1.54-3.55-2.12l-12.95-4.97c-1.56-0.61-3.16-1.45-4.78-2.52
					c-1.62-1.07-2.99-2.42-4.11-4.02c-1.12-1.61-1.68-3.51-1.68-5.71c0-2.52,0.69-4.71,2.08-6.56c1.39-1.86,3.39-3.29,6.02-4.3
					c2.63-1.02,5.8-1.52,9.54-1.52c3.31,0,6.3,0.56,8.96,1.68c2.66,1.12,4.77,2.66,6.34,4.62c1.56,1.96,2.34,4.2,2.34,6.72
					c0,1.75-0.48,3.37-1.43,4.86c-0.96,1.49-2.35,2.7-4.17,3.62s-4.01,1.38-6.58,1.38c-0.89,0-1.7-0.08-2.45-0.23
					c-0.75-0.15-1.61-0.38-2.59-0.68v-2.38c1.54,0,2.97-0.25,4.29-0.75s2.38-1.2,3.19-2.1c0.8-0.9,1.21-1.95,1.21-3.17
					c0-1.24-0.38-2.31-1.16-3.22c-0.77-0.91-1.84-1.62-3.2-2.12c-1.37-0.5-2.95-0.75-4.74-0.75c-1.71,0-3.24,0.23-4.62,0.68
					s-2.47,1.08-3.27,1.87c-0.81,0.79-1.21,1.69-1.21,2.7c0,1.14,0.4,2.08,1.19,2.82c0.79,0.74,1.94,1.41,3.43,2.01l13.37,5.18
					c3.34,1.28,5.9,2.77,7.68,4.46s2.68,4.05,2.68,7.09c0,2.52-0.75,4.76-2.26,6.72c-1.51,1.96-3.69,3.5-6.56,4.62
					C2192.84,477.3,2189.36,477.86,2185.28,477.86z"/>
			</g>
		</g>
	</g>
	<g>
		<path class="st3" d="M2064,843.53l20.45-20.45v14.9c0,1,0.41,1.91,1.06,2.56s1.56,1.06,2.56,1.06c2,0,3.62-1.62,3.62-3.62v-23.64
			c0-0.47-0.09-0.95-0.28-1.39c-0.01-0.02-0.02-0.03-0.03-0.05c-0.18-0.4-0.42-0.78-0.75-1.12c-0.33-0.33-0.71-0.57-1.12-0.75
			c-0.02-0.01-0.03-0.02-0.05-0.03c-0.45-0.18-0.92-0.28-1.4-0.28h-23.64c-2,0-3.62,1.62-3.62,3.62c0,1,0.41,1.91,1.06,2.56
			c0.65,0.66,1.56,1.06,2.56,1.06l14.9,0l-20.45,20.45c-12.16-9.61-29.9-8.83-41.12,2.39c-12.09,12.09-12.09,31.76,0,43.85
			c12.09,12.09,31.76,12.09,43.85,0C2072.83,873.43,2073.61,855.69,2064,843.53z M2022.87,879.53c-9.27-9.27-9.27-24.34,0-33.61
			c9.26-9.26,24.34-9.26,33.61,0c9.26,9.27,9.26,24.34,0,33.61C2047.21,888.8,2032.14,888.79,2022.87,879.53z"/>
		<g>
			<g>
				<path class="st1" d="M2145.53,881.04c-3.27,0-6.15-0.57-8.64-1.7c-2.5-1.13-4.46-2.78-5.9-4.95c-1.43-2.17-2.19-4.81-2.26-7.91
					h8.4c0,2.33,0.81,4.08,2.42,5.25s3.61,1.75,5.98,1.75c2.54,0,4.63-0.82,6.25-2.47c1.62-1.64,2.43-3.67,2.43-6.07
					c0-4.67-3.13-7-9.38-7h-13.86l2.1-23.31h27.23v7.56h-20.58l1.61-2.38l-1.33,13.51l-0.7-0.77c1.12-0.26,2.45-0.45,3.99-0.58
					c1.54-0.13,2.87-0.19,3.99-0.19c4.69,0,8.43,1.14,11.22,3.41c2.79,2.28,4.18,5.53,4.18,9.75c0,3.01-0.71,5.73-2.13,8.17
					c-1.42,2.44-3.42,4.37-5.98,5.79C2151.99,880.33,2148.98,881.04,2145.53,881.04z"/>
				<path class="st1" d="M2169.68,880.06v-7.77c0-2.54,0.38-4.7,1.15-6.47s1.92-3.27,3.45-4.5c1.53-1.22,3.45-2.28,5.76-3.17
					l9.31-3.57c2.03-0.82,3.53-1.82,4.5-3.01c0.97-1.19,1.45-2.66,1.45-4.41s-0.64-3.23-1.91-4.43s-3.09-1.8-5.44-1.8
					c-2.26,0-4.16,0.57-5.69,1.7c-1.53,1.13-2.41,2.78-2.64,4.95h-9.17c0.07-3.1,0.88-5.68,2.41-7.74c1.54-2.05,3.61-3.59,6.2-4.6
					c2.59-1.02,5.51-1.52,8.75-1.52c3.06,0,5.82,0.58,8.29,1.73s4.44,2.76,5.9,4.83c1.46,2.07,2.19,4.47,2.19,7.23
					c0,2.33-0.43,4.39-1.28,6.16c-0.85,1.77-2.14,3.32-3.87,4.65c-1.73,1.33-3.91,2.51-6.55,3.54l-9.38,3.64
					c-1.82,0.7-3.14,1.48-3.96,2.33c-0.82,0.85-1.22,1.97-1.22,3.34v1.33h25.97v7.56H2169.68z"/>
			</g>
		</g>
	</g>
	<g>
		<g>
			<circle class="st2" cx="450" cy="408.92" r="11.57"/>
			<path class="st2" d="M468.44,437.47v19.6c-0.02,5.43-3.05,10.4-7.88,12.88v21.78c0.2,5.83-4.36,10.72-10.19,10.92
				c-5.83,0.2-10.72-4.36-10.92-10.19c-0.01-0.24-0.01-0.48,0-0.72v-21.77c-4.83-2.49-7.88-7.46-7.89-12.9v-19.6
				c0.03-7.98,6.51-14.44,14.49-14.47h7.91C461.94,423.02,468.41,429.48,468.44,437.47z"/>
		</g>
		<g>
			<defs>
				<path id="SVGID_17_" d="M577,450c0,70.14-56.86,127-127,127s-127-56.86-127-127s56.86-127,127-127S577,379.86,577,450z
					 M450,366.46c-46.14,0-83.54,37.4-83.54,83.54s37.4,83.54,83.54,83.54s83.54-37.4,83.54-83.54S496.14,366.46,450,366.46z"/>
			</defs>
			<clipPath id="SVGID_2_">
				<use xlink:href="#SVGID_17_"  style="overflow:visible;"/>
			</clipPath>
			<g>
				<g class="st4">
					<g>
						<g>
							<path class="st5" d="M455.1,439.14l-15.47,295.18c-163.02-8.54-288.26-147.63-279.71-310.65
								c8.2-156.5,138.46-280.12,295.18-280.12V439.14z"/>
						</g>
					</g>
					<g>
						<g>
							<path class="st2" d="M455.1,439.14V143.56c163.25,0,295.59,132.34,295.59,295.59S618.35,734.73,455.1,734.73
								c-6.53,0-8.95-0.06-15.47-0.41L455.1,439.14z"/>
						</g>
					</g>
				</g>
				<g class="st4">
					<g>
					</g>
					<g>
					</g>
				</g>
			</g>
		</g>
	</g>
	<g>
		<ellipse class="st3" cx="453" cy="797.95" rx="11.57" ry="12.05"/>
		<path class="st3" d="M471.44,827.67v20.41c-0.02,5.65-3.05,10.83-7.88,13.41v22.67c0.2,6.07-4.36,11.16-10.19,11.37
			c-5.83,0.21-10.72-4.54-10.92-10.61c-0.01-0.25-0.01-0.5,0-0.75v-22.66c-4.83-2.59-7.88-7.77-7.89-13.43v-20.41
			c0.03-8.31,6.51-15.04,14.49-15.06h7.91C464.94,812.64,471.41,819.36,471.44,827.67z"/>
	</g>
	<g>
		<defs>
			<path id="SVGID_19_" d="M577,840c0,70.14-56.86,127-127,127s-127-56.86-127-127s56.86-127,127-127S577,769.86,577,840z
				 M450,756.46c-46.14,0-83.54,37.4-83.54,83.54s37.4,83.54,83.54,83.54s83.54-37.4,83.54-83.54S496.14,756.46,450,756.46z"/>
		</defs>
		<clipPath id="SVGID_4_">
			<use xlink:href="#SVGID_19_"  style="overflow:visible;"/>
		</clipPath>
		<g>
			<g class="st6">
				<g>
					<g>
						<path class="st8" d="M447.76,853.32l20.62,294.87c-162.85,11.39-304.1-111.4-315.49-274.25
							c-11.39-162.85,111.4-304.1,274.25-315.49c6.51-0.46,14.09-0.72,20.62-0.72V853.32z"/>
					</g>
				</g>
				<g>
					<g>
						<path class="st3" d="M447.76,853.32V557.73c163.25,0,295.59,132.34,295.59,295.59c0,156.72-118.63,283.93-274.97,294.87
							L447.76,853.32z"/>
					</g>
				</g>
			</g>
			<g class="st6">
				<g>
				</g>
				<g>
				</g>
			</g>
		</g>
	</g>
	<g>
		<g>
			<path class="st1" d="M412.49,991.89h6.34v22.61h6.29v5.55h-6.29v7.92h-6.51v-7.92h-18.31v-4.89L412.49,991.89z M412.66,1001.52
				l-10.85,13.64h10.85V1001.52z"/>
			<path class="st1" d="M442.43,1028.74c-2.49,0-4.72-0.48-6.71-1.44c-1.99-0.96-3.56-2.29-4.73-3.99c-1.17-1.7-1.75-3.66-1.75-5.9
				h6.85c0.07,1.65,0.68,2.96,1.82,3.93c1.14,0.97,2.57,1.46,4.3,1.46c2.02,0,3.65-0.57,4.9-1.72c1.24-1.15,2.15-2.75,2.71-4.83
				s0.85-4.49,0.85-7.26c0-0.55-0.01-1.09-0.04-1.61c-0.03-0.52-0.09-1.07-0.18-1.64c-0.35,2.02-1.02,3.64-2,4.88
				s-2.17,2.14-3.58,2.7s-2.92,0.84-4.55,0.84c-2.25,0-4.23-0.48-5.94-1.44c-1.72-0.96-3.07-2.29-4.05-3.99
				c-0.98-1.7-1.48-3.64-1.48-5.84c0-2.27,0.55-4.26,1.66-5.97c1.1-1.71,2.63-3.03,4.59-3.96c1.96-0.93,4.22-1.4,6.78-1.4
				c2.15,0,4.16,0.43,6.02,1.29s3.49,2.09,4.88,3.67c1.39,1.59,2.48,3.48,3.27,5.68c0.79,2.2,1.18,4.65,1.18,7.34
				c0,3.91-0.55,7.3-1.64,10.17c-1.09,2.88-2.74,5.1-4.92,6.67C448.48,1027.96,445.73,1028.74,442.43,1028.74z M441.93,1008.83
				c1.13,0,2.17-0.24,3.13-0.71c0.96-0.48,1.72-1.14,2.3-1.98c0.57-0.84,0.86-1.82,0.86-2.92c0-1.76-0.63-3.15-1.88-4.18
				c-1.25-1.03-2.74-1.54-4.47-1.54s-3.2,0.51-4.41,1.54s-1.82,2.42-1.82,4.18s0.61,3.13,1.84,4.13S440.19,1008.83,441.93,1008.83z"
				/>
			<path class="st1" d="M470.81,1008.23c-1.34,0-2.58-0.31-3.73-0.92c-1.15-0.61-2.08-1.54-2.78-2.78
				c-0.71-1.24-1.06-2.79-1.06-4.66c0-1.85,0.35-3.39,1.06-4.62s1.63-2.15,2.78-2.76c1.15-0.61,2.39-0.92,3.73-0.92
				c1.37,0,2.64,0.31,3.81,0.92c1.17,0.61,2.1,1.54,2.81,2.76c0.7,1.23,1.06,2.77,1.06,4.62c0,1.87-0.35,3.42-1.06,4.66
				c-0.71,1.24-1.64,2.16-2.81,2.78C473.46,1007.92,472.19,1008.23,470.81,1008.23z M465.75,1027.97l24.49-35.7h6.62l-24.43,35.7
				H465.75z M470.81,1004.1c0.8,0,1.45-0.32,1.96-0.96c0.51-0.64,0.77-1.73,0.77-3.27c0-1.52-0.25-2.6-0.77-3.23
				s-1.16-0.95-1.96-0.95c-0.8,0-1.44,0.32-1.93,0.95c-0.49,0.63-0.74,1.71-0.74,3.23c0,1.54,0.25,2.63,0.74,3.27
				C469.37,1003.78,470.01,1004.1,470.81,1004.1z M491.85,1028.58c-1.34,0-2.58-0.31-3.73-0.92c-1.15-0.61-2.08-1.54-2.78-2.78
				c-0.71-1.24-1.06-2.79-1.06-4.66s0.35-3.42,1.06-4.66c0.7-1.24,1.63-2.16,2.78-2.78s2.39-0.92,3.73-0.92
				c1.37,0,2.64,0.31,3.81,0.92c1.17,0.61,2.11,1.54,2.81,2.78c0.71,1.24,1.06,2.79,1.06,4.66s-0.35,3.42-1.06,4.66
				s-1.64,2.16-2.81,2.78C494.49,1028.27,493.22,1028.58,491.85,1028.58z M491.85,1024.4c0.82,0,1.47-0.31,1.98-0.93
				s0.75-1.71,0.75-3.25c0-1.52-0.25-2.61-0.75-3.26s-1.16-0.98-1.98-0.98c-0.8,0-1.44,0.33-1.93,0.98
				c-0.49,0.65-0.74,1.74-0.74,3.26c0,1.54,0.25,2.62,0.74,3.25C490.41,1024.09,491.05,1024.4,491.85,1024.4z"/>
		</g>
	</g>
	<g>
		<g>
			<path class="st1" d="M422.14,640.01c-2.6,0-4.89-0.45-6.87-1.33s-3.55-2.19-4.69-3.89c-1.14-1.71-1.74-3.78-1.79-6.21h6.68
				c0,1.83,0.64,3.21,1.92,4.13c1.28,0.92,2.87,1.38,4.76,1.38c2.02,0,3.68-0.65,4.97-1.94c1.29-1.29,1.93-2.88,1.93-4.77
				c0-3.67-2.49-5.5-7.46-5.5h-11.02l1.67-18.31h21.65v5.94h-16.36l1.28-1.87l-1.06,10.62l-0.56-0.61c0.89-0.2,1.95-0.35,3.17-0.45
				c1.22-0.1,2.28-0.15,3.17-0.15c3.73,0,6.7,0.89,8.92,2.68c2.22,1.79,3.33,4.34,3.33,7.66c0,2.37-0.57,4.51-1.7,6.42
				c-1.13,1.92-2.72,3.43-4.76,4.55C427.28,639.45,424.89,640.01,422.14,640.01z"/>
			<path class="st1" d="M447.69,603.32h4.95v35.92h-6.57v-28.16c-0.98,0.44-1.95,0.78-2.89,1.02c-0.95,0.24-1.89,0.36-2.84,0.36
				v-6.21c1.26-0.13,2.49-0.42,3.67-0.87C445.2,604.92,446.42,604.24,447.69,603.32z"/>
			<path class="st1" d="M468.8,619.49c-1.34,0-2.58-0.31-3.73-0.92c-1.15-0.61-2.08-1.54-2.78-2.78c-0.71-1.24-1.06-2.79-1.06-4.66
				c0-1.85,0.35-3.39,1.06-4.62c0.71-1.23,1.63-2.15,2.78-2.76c1.15-0.61,2.39-0.92,3.73-0.92c1.37,0,2.64,0.31,3.81,0.92
				c1.17,0.62,2.11,1.54,2.81,2.76c0.7,1.23,1.06,2.77,1.06,4.62c0,1.87-0.35,3.42-1.06,4.66c-0.71,1.24-1.64,2.16-2.81,2.78
				C471.45,619.18,470.18,619.49,468.8,619.49z M463.74,639.24l24.49-35.69h6.62l-24.43,35.69H463.74z M468.8,615.37
				c0.8,0,1.45-0.32,1.96-0.96c0.51-0.64,0.77-1.73,0.77-3.27c0-1.52-0.25-2.6-0.77-3.23c-0.51-0.63-1.16-0.95-1.96-0.95
				s-1.44,0.32-1.93,0.95c-0.49,0.63-0.74,1.71-0.74,3.23c0,1.54,0.25,2.63,0.74,3.27C467.36,615.04,468.01,615.37,468.8,615.37z
				 M489.84,639.84c-1.34,0-2.58-0.31-3.73-0.92c-1.15-0.61-2.08-1.54-2.78-2.78s-1.06-2.79-1.06-4.66s0.35-3.42,1.06-4.66
				s1.63-2.16,2.78-2.78c1.15-0.61,2.39-0.92,3.73-0.92c1.37,0,2.64,0.31,3.81,0.92c1.17,0.62,2.11,1.54,2.81,2.78
				c0.7,1.24,1.06,2.79,1.06,4.66s-0.35,3.42-1.06,4.66c-0.71,1.24-1.64,2.16-2.81,2.78C492.49,639.53,491.21,639.84,489.84,639.84z
				 M489.84,635.66c0.82,0,1.47-0.31,1.98-0.93s0.75-1.71,0.75-3.25c0-1.52-0.25-2.61-0.75-3.26c-0.5-0.65-1.16-0.98-1.98-0.98
				c-0.8,0-1.44,0.33-1.93,0.98c-0.49,0.65-0.74,1.74-0.74,3.26c0,1.54,0.25,2.62,0.74,3.25
				C488.4,635.35,489.04,635.66,489.84,635.66z"/>
		</g>
	</g>
	<g>
		<g>
			<path class="st1" d="M188.11,179.71v-29.85h10.53c3.36,0,5.98,0.83,7.85,2.48s2.82,4,2.82,7.04c0,3-0.94,5.34-2.82,6.99
				c-1.88,1.66-4.5,2.48-7.85,2.48h-5.06v10.86H188.11z M193.58,164.11h5.06c1.69,0,2.96-0.44,3.82-1.33
				c0.86-0.89,1.29-2.02,1.29-3.4c0-1.41-0.43-2.57-1.29-3.47c-0.86-0.9-2.13-1.36-3.82-1.36h-5.06V164.11z"/>
			<path class="st1" d="M223.73,180.35c-2.04,0-3.88-0.44-5.53-1.31s-2.96-2.18-3.92-3.92c-0.97-1.74-1.45-3.92-1.45-6.54
				c0-2.67,0.48-4.88,1.45-6.62c0.97-1.75,2.27-3.05,3.92-3.91s3.49-1.29,5.53-1.29c2.01,0,3.83,0.43,5.46,1.29s2.93,2.16,3.9,3.91
				s1.45,3.96,1.45,6.62c0,2.62-0.48,4.8-1.45,6.54s-2.27,3.05-3.9,3.92S225.74,180.35,223.73,180.35z M223.55,175.61
				c1.07,0,2.03-0.26,2.86-0.79s1.5-1.31,1.98-2.36c0.48-1.04,0.72-2.34,0.72-3.89c0-2.36-0.46-4.14-1.39-5.34
				c-0.93-1.2-2.2-1.79-3.81-1.79c-1.09,0-2.05,0.27-2.9,0.79c-0.84,0.53-1.51,1.32-1.99,2.38c-0.48,1.06-0.72,2.38-0.72,3.96
				c0,2.33,0.47,4.09,1.42,5.27C220.66,175.02,221.94,175.61,223.55,175.61z"/>
			<path class="st1" d="M240.98,179.71v-22.4h5.43v22.4H240.98z M245.08,169.91c0-2.93,0.33-5.35,0.99-7.27
				c0.66-1.92,1.54-3.34,2.66-4.27c1.11-0.93,2.35-1.39,3.71-1.39c0.37,0,0.72,0.02,1.05,0.07c0.33,0.05,0.66,0.12,0.98,0.21
				l-0.09,5.43c-0.4-0.09-0.83-0.17-1.29-0.23s-0.87-0.09-1.24-0.09c-1.2,0-2.2,0.29-3,0.86c-0.81,0.58-1.41,1.42-1.82,2.54
				c-0.41,1.12-0.61,2.5-0.61,4.14H245.08z"/>
			<path class="st1" d="M267.5,180.35c-1.87,0-3.61-0.49-5.21-1.46s-2.9-2.35-3.89-4.12s-1.48-3.85-1.48-6.25
				c0-2.53,0.49-4.67,1.48-6.43s2.28-3.09,3.89-3.99s3.34-1.36,5.21-1.36c1.46,0,2.74,0.23,3.85,0.7c1.11,0.47,2.06,1.1,2.84,1.89
				c0.78,0.79,1.4,1.67,1.84,2.63c0.44,0.97,0.73,1.94,0.85,2.92l-5.47,0.14c-0.25-0.98-0.7-1.79-1.37-2.44
				c-0.67-0.64-1.53-0.97-2.59-0.97c-0.87,0-1.69,0.24-2.46,0.72c-0.77,0.48-1.39,1.23-1.88,2.24c-0.48,1.01-0.72,2.32-0.72,3.93
				c0,1.53,0.23,2.81,0.68,3.83s1.06,1.79,1.83,2.3s1.62,0.77,2.55,0.77c1.38,0,2.38-0.33,3.01-1s0.94-1.56,0.94-2.68h5.47
				c0,1.58-0.36,3.02-1.08,4.32s-1.78,2.34-3.17,3.12C271.23,179.96,269.52,180.35,267.5,180.35z"/>
			<path class="st1" d="M291.72,180.35c-1.9,0-3.64-0.49-5.22-1.47s-2.84-2.36-3.79-4.13c-0.95-1.77-1.43-3.85-1.43-6.22
				c0-2.45,0.47-4.56,1.41-6.32c0.94-1.76,2.2-3.11,3.78-4.05c1.58-0.94,3.33-1.4,5.24-1.4c1.78,0,3.32,0.36,4.61,1.07
				c1.29,0.71,2.34,1.68,3.13,2.9c0.79,1.22,1.32,2.59,1.6,4.13c0.28,1.53,0.29,3.11,0.05,4.74h-15.5v-2.94h11.66l-1.06,0.69
				c0.05-0.72,0.01-1.45-0.1-2.19c-0.12-0.74-0.33-1.41-0.66-2.02s-0.78-1.11-1.37-1.48c-0.59-0.38-1.35-0.56-2.27-0.56
				c-1.1,0-2.04,0.28-2.81,0.83c-0.77,0.55-1.35,1.3-1.75,2.25c-0.4,0.95-0.6,2.02-0.6,3.22v2.16c0,1.26,0.19,2.37,0.56,3.33
				s0.94,1.72,1.68,2.28c0.74,0.55,1.68,0.83,2.82,0.83c1.06,0,1.95-0.25,2.67-0.74c0.72-0.49,1.18-1.23,1.38-2.21h5.47
				c-0.23,1.44-0.77,2.71-1.62,3.81c-0.85,1.1-1.95,1.95-3.3,2.58C294.97,180.04,293.44,180.35,291.72,180.35z"/>
			<path class="st1" d="M307.77,179.71V157.4h4.74l0.69,4.42v17.89H307.77z M323.09,179.71v-13.06c0-1.66-0.4-2.91-1.2-3.75
				c-0.8-0.84-1.84-1.26-3.13-1.26c-1.09,0-2.05,0.3-2.89,0.9c-0.84,0.6-1.49,1.5-1.97,2.7s-0.71,2.7-0.71,4.5h-1.79
				c0-2.9,0.36-5.31,1.08-7.23c0.72-1.92,1.74-3.36,3.06-4.31c1.32-0.95,2.87-1.43,4.65-1.43c1.84,0,3.38,0.41,4.61,1.23
				s2.16,1.97,2.78,3.46c0.62,1.49,0.93,3.22,0.93,5.2v13.06H323.09z"/>
			<path class="st1" d="M333.62,160.98v-3.59h14.63v3.59H333.62z M343.97,180.35c-1.32,0-2.53-0.25-3.62-0.74
				c-1.1-0.49-1.97-1.24-2.62-2.25c-0.65-1.01-0.98-2.3-0.98-3.86v-22.03h5.43v21.85c0,1.84,0.87,2.76,2.62,2.76
				c0.54,0,1.07-0.06,1.61-0.18c0.54-0.12,1.15-0.31,1.84-0.55l0.78,3.82c-0.86,0.34-1.69,0.62-2.51,0.85
				S344.86,180.35,343.97,180.35z"/>
			<path class="st1" d="M361.48,180.35c-1.92,0-3.52-0.33-4.79-1c-1.28-0.67-2.24-1.54-2.89-2.63c-0.64-1.09-0.97-2.27-0.97-3.54
				c0-1.41,0.37-2.59,1.12-3.55c0.74-0.96,1.8-1.68,3.16-2.16c1.37-0.48,2.97-0.72,4.83-0.72c1.21,0,2.36,0.09,3.44,0.28
				s2.16,0.43,3.23,0.74v3.17c-0.84-0.28-1.76-0.49-2.76-0.64c-1-0.15-1.93-0.23-2.81-0.23c-1.29,0-2.35,0.24-3.17,0.71
				c-0.83,0.47-1.24,1.28-1.24,2.41c0,0.83,0.34,1.54,1.01,2.14c0.67,0.6,1.75,0.9,3.22,0.9c1.12,0,2.07-0.25,2.85-0.74
				c0.78-0.49,1.38-1.1,1.78-1.84c0.41-0.74,0.61-1.47,0.61-2.21h1.29c0,1.61-0.3,3.09-0.9,4.45c-0.6,1.36-1.48,2.44-2.66,3.25
				C364.66,179.94,363.21,180.35,361.48,180.35z M368.79,179.71l-0.69-5.43v-8.97c0-1.56-0.32-2.72-0.95-3.47
				c-0.64-0.75-1.71-1.13-3.23-1.13c-0.87,0-1.63,0.13-2.28,0.39c-0.64,0.26-1.14,0.63-1.48,1.12c-0.34,0.48-0.52,1.07-0.52,1.76
				h-5.93c0-1.69,0.41-3.06,1.22-4.13s1.98-1.85,3.51-2.35c1.53-0.5,3.35-0.75,5.49-0.75c1.93,0,3.62,0.31,5.06,0.93
				s2.56,1.58,3.36,2.86c0.8,1.29,1.2,2.94,1.2,4.95v14.21H368.79z"/>
			<path class="st1" d="M380.15,191.25c-1.2,0-2.3-0.13-3.32-0.39c-1.02-0.26-2.06-0.61-3.12-1.04l0.09-4.69
				c0.78,0.38,1.61,0.71,2.47,0.98c0.87,0.27,1.71,0.4,2.54,0.4c1.12,0,1.97-0.32,2.56-0.97c0.59-0.64,0.88-1.73,0.88-3.27V157.3
				h5.43v25.07c0,3.19-0.66,5.47-1.99,6.83S382.53,191.25,380.15,191.25z M384.94,153.3c-1.03,0-1.84-0.28-2.45-0.84
				c-0.61-0.56-0.91-1.34-0.91-2.33c0-0.97,0.3-1.74,0.91-2.31c0.61-0.57,1.42-0.86,2.45-0.86c1.04,0,1.86,0.29,2.46,0.86
				c0.6,0.58,0.9,1.35,0.9,2.31c0,1-0.3,1.77-0.9,2.33C386.8,153.02,385.98,153.3,384.94,153.3z"/>
			<path class="st1" d="M405.22,180.35c-1.9,0-3.64-0.49-5.22-1.47s-2.84-2.36-3.79-4.13c-0.95-1.77-1.43-3.85-1.43-6.22
				c0-2.45,0.47-4.56,1.41-6.32c0.94-1.76,2.2-3.11,3.78-4.05c1.58-0.94,3.33-1.4,5.24-1.4c1.78,0,3.32,0.36,4.61,1.07
				c1.29,0.71,2.34,1.68,3.13,2.9c0.79,1.22,1.32,2.59,1.6,4.13c0.28,1.53,0.29,3.11,0.05,4.74h-15.5v-2.94h11.66l-1.06,0.69
				c0.05-0.72,0.01-1.45-0.1-2.19c-0.12-0.74-0.33-1.41-0.66-2.02s-0.78-1.11-1.37-1.48c-0.59-0.38-1.35-0.56-2.27-0.56
				c-1.1,0-2.04,0.28-2.81,0.83c-0.77,0.55-1.35,1.3-1.75,2.25c-0.4,0.95-0.6,2.02-0.6,3.22v2.16c0,1.26,0.19,2.37,0.56,3.33
				s0.94,1.72,1.68,2.28c0.74,0.55,1.68,0.83,2.82,0.83c1.06,0,1.95-0.25,2.67-0.74c0.72-0.49,1.18-1.23,1.38-2.21h5.47
				c-0.23,1.44-0.77,2.71-1.62,3.81c-0.85,1.1-1.95,1.95-3.3,2.58C408.47,180.04,406.94,180.35,405.22,180.35z"/>
			<path class="st1" d="M430.11,160.98v-3.59h14.63v3.59H430.11z M440.46,180.35c-1.32,0-2.53-0.25-3.62-0.74
				c-1.1-0.49-1.97-1.24-2.62-2.25c-0.65-1.01-0.98-2.3-0.98-3.86v-22.03h5.43v21.85c0,1.84,0.87,2.76,2.62,2.76
				c0.54,0,1.07-0.06,1.61-0.18c0.54-0.12,1.15-0.31,1.84-0.55l0.78,3.82c-0.86,0.34-1.69,0.62-2.51,0.85
				S441.35,180.35,440.46,180.35z"/>
			<path class="st1" d="M459.85,180.35c-2.04,0-3.88-0.44-5.53-1.31s-2.96-2.18-3.92-3.92c-0.97-1.74-1.45-3.92-1.45-6.54
				c0-2.67,0.48-4.88,1.45-6.62c0.97-1.75,2.27-3.05,3.92-3.91s3.49-1.29,5.53-1.29c2.01,0,3.83,0.43,5.46,1.29s2.93,2.16,3.9,3.91
				s1.45,3.96,1.45,6.62c0,2.62-0.48,4.8-1.45,6.54s-2.27,3.05-3.9,3.92S461.85,180.35,459.85,180.35z M459.66,175.61
				c1.07,0,2.03-0.26,2.86-0.79s1.5-1.31,1.98-2.36c0.48-1.04,0.72-2.34,0.72-3.89c0-2.36-0.46-4.14-1.39-5.34
				c-0.93-1.2-2.2-1.79-3.81-1.79c-1.09,0-2.05,0.27-2.9,0.79c-0.84,0.53-1.51,1.32-1.99,2.38c-0.48,1.06-0.72,2.38-0.72,3.96
				c0,2.33,0.47,4.09,1.42,5.27C456.77,175.02,458.05,175.61,459.66,175.61z"/>
			<path class="st1" d="M474.29,160.98v-3.59h14.63v3.59H474.29z M484.64,180.35c-1.32,0-2.53-0.25-3.62-0.74
				c-1.1-0.49-1.97-1.24-2.62-2.25c-0.65-1.01-0.98-2.3-0.98-3.86v-22.03h5.43v21.85c0,1.84,0.87,2.76,2.62,2.76
				c0.54,0,1.07-0.06,1.61-0.18c0.54-0.12,1.15-0.31,1.84-0.55l0.78,3.82c-0.86,0.34-1.69,0.62-2.51,0.85
				S485.53,180.35,484.64,180.35z"/>
			<path class="st1" d="M502.14,180.35c-1.92,0-3.52-0.33-4.79-1c-1.28-0.67-2.24-1.54-2.89-2.63c-0.64-1.09-0.97-2.27-0.97-3.54
				c0-1.41,0.37-2.59,1.12-3.55c0.74-0.96,1.8-1.68,3.16-2.16c1.37-0.48,2.97-0.72,4.83-0.72c1.21,0,2.36,0.09,3.44,0.28
				s2.16,0.43,3.23,0.74v3.17c-0.84-0.28-1.76-0.49-2.76-0.64c-1-0.15-1.93-0.23-2.81-0.23c-1.29,0-2.35,0.24-3.17,0.71
				c-0.83,0.47-1.24,1.28-1.24,2.41c0,0.83,0.34,1.54,1.01,2.14c0.67,0.6,1.75,0.9,3.22,0.9c1.12,0,2.07-0.25,2.85-0.74
				c0.78-0.49,1.38-1.1,1.78-1.84c0.41-0.74,0.61-1.47,0.61-2.21h1.29c0,1.61-0.3,3.09-0.9,4.45c-0.6,1.36-1.48,2.44-2.66,3.25
				C505.33,179.94,503.87,180.35,502.14,180.35z M509.46,179.71l-0.69-5.43v-8.97c0-1.56-0.32-2.72-0.95-3.47
				c-0.64-0.75-1.71-1.13-3.23-1.13c-0.87,0-1.63,0.13-2.28,0.39c-0.64,0.26-1.14,0.63-1.48,1.12c-0.34,0.48-0.52,1.07-0.52,1.76
				h-5.93c0-1.69,0.41-3.06,1.22-4.13s1.98-1.85,3.51-2.35c1.53-0.5,3.35-0.75,5.49-0.75c1.93,0,3.62,0.31,5.06,0.93
				s2.56,1.58,3.36,2.86c0.8,1.29,1.2,2.94,1.2,4.95v14.21H509.46z"/>
			<path class="st1" d="M522.15,179.71v-31.56h5.43v31.56H522.15z"/>
			<path class="st1" d="M547.8,190.61V157.4h4.46l0.97,5.52v27.69H547.8z M558.97,180.35c-1.64,0-3.04-0.35-4.19-1.06
				c-1.15-0.71-2.03-1.77-2.63-3.21c-0.61-1.43-0.91-3.23-0.91-5.39h1.98c0,1,0.23,1.85,0.69,2.55c0.46,0.71,1.07,1.25,1.83,1.62
				c0.76,0.38,1.58,0.56,2.45,0.56c0.9,0,1.8-0.25,2.68-0.75c0.88-0.5,1.61-1.26,2.2-2.28c0.58-1.02,0.87-2.31,0.87-3.88
				c0-1.43-0.25-2.66-0.74-3.69c-0.49-1.03-1.16-1.83-2.01-2.38c-0.85-0.55-1.82-0.83-2.91-0.83c-0.92,0-1.76,0.21-2.53,0.62
				c-0.77,0.41-1.38,1.02-1.84,1.81c-0.46,0.79-0.69,1.74-0.69,2.86h-1.98c0-2.35,0.36-4.27,1.08-5.76c0.72-1.49,1.69-2.6,2.9-3.32
				c1.21-0.72,2.54-1.08,3.98-1.08c1.76,0,3.42,0.47,4.98,1.4c1.56,0.93,2.82,2.28,3.78,4.04s1.45,3.87,1.45,6.34
				c0,2.48-0.49,4.61-1.47,6.37c-0.98,1.76-2.27,3.11-3.85,4.05S560.8,180.35,558.97,180.35z"/>
			<path class="st1" d="M584.18,180.35c-1.9,0-3.64-0.49-5.22-1.47s-2.84-2.36-3.79-4.13c-0.95-1.77-1.43-3.85-1.43-6.22
				c0-2.45,0.47-4.56,1.41-6.32c0.94-1.76,2.2-3.11,3.78-4.05c1.58-0.94,3.33-1.4,5.24-1.4c1.78,0,3.32,0.36,4.61,1.07
				c1.29,0.71,2.34,1.68,3.13,2.9c0.79,1.22,1.32,2.59,1.6,4.13c0.28,1.53,0.29,3.11,0.05,4.74h-15.5v-2.94h11.66l-1.06,0.69
				c0.05-0.72,0.01-1.45-0.1-2.19c-0.12-0.74-0.33-1.41-0.66-2.02s-0.78-1.11-1.37-1.48c-0.59-0.38-1.35-0.56-2.27-0.56
				c-1.1,0-2.04,0.28-2.81,0.83c-0.77,0.55-1.35,1.3-1.75,2.25c-0.4,0.95-0.6,2.02-0.6,3.22v2.16c0,1.26,0.19,2.37,0.56,3.33
				s0.94,1.72,1.68,2.28c0.74,0.55,1.68,0.83,2.82,0.83c1.06,0,1.95-0.25,2.67-0.74c0.72-0.49,1.18-1.23,1.38-2.21h5.47
				c-0.23,1.44-0.77,2.71-1.62,3.81c-0.85,1.1-1.95,1.95-3.3,2.58C587.43,180.04,585.9,180.35,584.18,180.35z"/>
			<path class="st1" d="M600.24,179.71v-22.4h5.43v22.4H600.24z M604.33,169.91c0-2.93,0.33-5.35,0.99-7.27
				c0.66-1.92,1.54-3.34,2.66-4.27c1.11-0.93,2.35-1.39,3.71-1.39c0.37,0,0.72,0.02,1.05,0.07c0.33,0.05,0.66,0.12,0.98,0.21
				l-0.09,5.43c-0.4-0.09-0.83-0.17-1.29-0.23s-0.87-0.09-1.24-0.09c-1.2,0-2.2,0.29-3,0.86c-0.81,0.58-1.41,1.42-1.82,2.54
				c-0.41,1.12-0.61,2.5-0.61,4.14H604.33z"/>
			<path class="st1" d="M626.62,180.35c-2.15,0-3.99-0.29-5.53-0.88s-2.73-1.44-3.55-2.55c-0.83-1.11-1.25-2.45-1.26-4.01h5.01
				c0.05,1.1,0.48,1.91,1.31,2.41s1.96,0.76,3.38,0.76c0.78,0,1.48-0.12,2.08-0.35c0.61-0.23,1.08-0.54,1.42-0.94
				c0.34-0.4,0.51-0.84,0.51-1.33c0-0.63-0.23-1.12-0.68-1.48s-1.18-0.69-2.17-1l-4.88-1.75c-1.75-0.63-3.09-1.46-4.03-2.48
				s-1.4-2.25-1.4-3.68c0-1.89,0.85-3.41,2.56-4.57c1.71-1.16,4-1.74,6.87-1.74c2.85,0,5.06,0.63,6.61,1.88
				c1.56,1.25,2.36,2.83,2.4,4.75h-5.11c-0.08-0.74-0.43-1.32-1.06-1.75c-0.63-0.43-1.58-0.64-2.85-0.64c-1.15,0-2.05,0.23-2.7,0.7
				s-0.98,1.02-0.98,1.64c0,1.06,0.91,1.86,2.71,2.39l5.29,1.98c1.72,0.58,3.05,1.33,4,2.25c0.95,0.92,1.43,2.08,1.43,3.5
				c0,1.18-0.4,2.3-1.18,3.35c-0.79,1.05-1.89,1.91-3.3,2.56C630.1,180.02,628.47,180.35,626.62,180.35z"/>
			<path class="st1" d="M651.34,180.35c-2.04,0-3.88-0.44-5.53-1.31s-2.96-2.18-3.92-3.92c-0.97-1.74-1.45-3.92-1.45-6.54
				c0-2.67,0.48-4.88,1.45-6.62c0.97-1.75,2.27-3.05,3.92-3.91s3.49-1.29,5.53-1.29c2.01,0,3.83,0.43,5.46,1.29s2.93,2.16,3.9,3.91
				s1.45,3.96,1.45,6.62c0,2.62-0.48,4.8-1.45,6.54s-2.27,3.05-3.9,3.92S653.35,180.35,651.34,180.35z M651.16,175.61
				c1.07,0,2.03-0.26,2.86-0.79s1.5-1.31,1.98-2.36c0.48-1.04,0.72-2.34,0.72-3.89c0-2.36-0.46-4.14-1.39-5.34
				c-0.93-1.2-2.2-1.79-3.81-1.79c-1.09,0-2.05,0.27-2.9,0.79c-0.84,0.53-1.51,1.32-1.99,2.38c-0.48,1.06-0.72,2.38-0.72,3.96
				c0,2.33,0.47,4.09,1.42,5.27C648.27,175.02,649.55,175.61,651.16,175.61z"/>
			<path class="st1" d="M668.59,179.71V157.4h4.74l0.69,4.42v17.89H668.59z M683.91,179.71v-13.06c0-1.66-0.4-2.91-1.2-3.75
				c-0.8-0.84-1.84-1.26-3.13-1.26c-1.09,0-2.05,0.3-2.89,0.9c-0.84,0.6-1.49,1.5-1.97,2.7s-0.71,2.7-0.71,4.5h-1.79
				c0-2.9,0.36-5.31,1.08-7.23c0.72-1.92,1.74-3.36,3.06-4.31c1.32-0.95,2.87-1.43,4.65-1.43c1.84,0,3.38,0.41,4.61,1.23
				s2.16,1.97,2.78,3.46c0.62,1.49,0.93,3.22,0.93,5.2v13.06H683.91z"/>
			<path class="st1" d="M704.15,180.35c-1.92,0-3.52-0.33-4.79-1c-1.28-0.67-2.24-1.54-2.89-2.63c-0.64-1.09-0.97-2.27-0.97-3.54
				c0-1.41,0.37-2.59,1.12-3.55c0.74-0.96,1.8-1.68,3.16-2.16c1.37-0.48,2.97-0.72,4.83-0.72c1.21,0,2.36,0.09,3.44,0.28
				s2.16,0.43,3.23,0.74v3.17c-0.84-0.28-1.76-0.49-2.76-0.64c-1-0.15-1.93-0.23-2.81-0.23c-1.29,0-2.35,0.24-3.17,0.71
				c-0.83,0.47-1.24,1.28-1.24,2.41c0,0.83,0.34,1.54,1.01,2.14c0.67,0.6,1.75,0.9,3.22,0.9c1.12,0,2.07-0.25,2.85-0.74
				c0.78-0.49,1.38-1.1,1.78-1.84c0.41-0.74,0.61-1.47,0.61-2.21h1.29c0,1.61-0.3,3.09-0.9,4.45c-0.6,1.36-1.48,2.44-2.66,3.25
				C707.33,179.94,705.88,180.35,704.15,180.35z M711.46,179.71l-0.69-5.43v-8.97c0-1.56-0.32-2.72-0.95-3.47
				c-0.64-0.75-1.71-1.13-3.23-1.13c-0.87,0-1.63,0.13-2.28,0.39c-0.64,0.26-1.14,0.63-1.48,1.12c-0.34,0.48-0.52,1.07-0.52,1.76
				h-5.93c0-1.69,0.41-3.06,1.22-4.13s1.98-1.85,3.51-2.35c1.53-0.5,3.35-0.75,5.49-0.75c1.93,0,3.62,0.31,5.06,0.93
				s2.56,1.58,3.36,2.86c0.8,1.29,1.2,2.94,1.2,4.95v14.21H711.46z"/>
			<path class="st1" d="M732.48,180.35c-2.15,0-3.99-0.29-5.53-0.88s-2.73-1.44-3.55-2.55c-0.83-1.11-1.25-2.45-1.26-4.01h5.01
				c0.05,1.1,0.48,1.91,1.31,2.41s1.96,0.76,3.38,0.76c0.78,0,1.48-0.12,2.08-0.35c0.61-0.23,1.08-0.54,1.42-0.94
				c0.34-0.4,0.51-0.84,0.51-1.33c0-0.63-0.23-1.12-0.68-1.48s-1.18-0.69-2.17-1l-4.88-1.75c-1.75-0.63-3.09-1.46-4.03-2.48
				s-1.4-2.25-1.4-3.68c0-1.89,0.85-3.41,2.56-4.57c1.71-1.16,4-1.74,6.87-1.74c2.85,0,5.06,0.63,6.61,1.88
				c1.56,1.25,2.36,2.83,2.4,4.75h-5.11c-0.08-0.74-0.43-1.32-1.06-1.75c-0.63-0.43-1.58-0.64-2.85-0.64c-1.15,0-2.05,0.23-2.7,0.7
				s-0.98,1.02-0.98,1.64c0,1.06,0.91,1.86,2.71,2.39l5.29,1.98c1.72,0.58,3.05,1.33,4,2.25c0.95,0.92,1.43,2.08,1.43,3.5
				c0,1.18-0.4,2.3-1.18,3.35c-0.79,1.05-1.89,1.91-3.3,2.56C735.97,180.02,734.34,180.35,732.48,180.35z"/>
		</g>
	</g>
	<g>
		<g>
			<path class="st1" d="M1216.69,179.71v-29.85h10.53c3.36,0,5.98,0.83,7.85,2.48s2.82,4,2.82,7.04c0,3-0.94,5.34-2.82,6.99
				c-1.88,1.66-4.5,2.48-7.85,2.48h-5.06v10.86H1216.69z M1222.17,164.11h5.06c1.69,0,2.96-0.44,3.82-1.33
				c0.86-0.89,1.29-2.02,1.29-3.4c0-1.41-0.43-2.57-1.29-3.47c-0.86-0.9-2.13-1.36-3.82-1.36h-5.06V164.11z"/>
			<path class="st1" d="M1251.86,180.35c-1.9,0-3.64-0.49-5.22-1.47s-2.84-2.36-3.79-4.13c-0.95-1.77-1.43-3.85-1.43-6.22
				c0-2.45,0.47-4.56,1.41-6.32c0.94-1.76,2.2-3.11,3.78-4.05c1.58-0.94,3.33-1.4,5.24-1.4c1.78,0,3.32,0.36,4.61,1.07
				c1.29,0.71,2.34,1.68,3.13,2.9c0.79,1.22,1.32,2.59,1.6,4.13c0.28,1.53,0.29,3.11,0.05,4.74h-15.5v-2.94h11.66l-1.06,0.69
				c0.05-0.72,0.01-1.45-0.1-2.19c-0.12-0.74-0.33-1.41-0.66-2.02s-0.78-1.11-1.37-1.48c-0.59-0.38-1.35-0.56-2.27-0.56
				c-1.1,0-2.04,0.28-2.81,0.83c-0.77,0.55-1.35,1.3-1.75,2.25c-0.4,0.95-0.6,2.02-0.6,3.22v2.16c0,1.26,0.19,2.37,0.56,3.33
				s0.94,1.72,1.68,2.28c0.74,0.55,1.68,0.83,2.82,0.83c1.06,0,1.95-0.25,2.67-0.74c0.72-0.49,1.18-1.23,1.38-2.21h5.47
				c-0.23,1.44-0.77,2.71-1.62,3.81c-0.85,1.1-1.95,1.95-3.3,2.58C1255.11,180.04,1253.57,180.35,1251.86,180.35z"/>
			<path class="st1" d="M1267.91,179.71v-22.4h5.43v22.4H1267.91z M1272,169.91c0-2.93,0.33-5.35,0.99-7.27
				c0.66-1.92,1.54-3.34,2.66-4.27c1.11-0.93,2.35-1.39,3.71-1.39c0.37,0,0.72,0.02,1.05,0.07c0.33,0.05,0.66,0.12,0.98,0.21
				l-0.09,5.43c-0.4-0.09-0.83-0.17-1.29-0.23s-0.87-0.09-1.24-0.09c-1.2,0-2.2,0.29-3,0.86c-0.81,0.58-1.41,1.42-1.82,2.54
				c-0.41,1.12-0.61,2.5-0.61,4.14H1272z"/>
			<path class="st1" d="M1294.29,180.35c-2.15,0-3.99-0.29-5.53-0.88s-2.73-1.44-3.55-2.55c-0.83-1.11-1.25-2.45-1.26-4.01h5.01
				c0.05,1.1,0.48,1.91,1.31,2.41s1.96,0.76,3.38,0.76c0.78,0,1.48-0.12,2.08-0.35c0.61-0.23,1.08-0.54,1.42-0.94
				c0.34-0.4,0.51-0.84,0.51-1.33c0-0.63-0.23-1.12-0.68-1.48s-1.18-0.69-2.17-1l-4.88-1.75c-1.75-0.63-3.09-1.46-4.03-2.48
				s-1.4-2.25-1.4-3.68c0-1.89,0.85-3.41,2.56-4.57c1.71-1.16,4-1.74,6.87-1.74c2.85,0,5.06,0.63,6.61,1.88
				c1.56,1.25,2.36,2.83,2.4,4.75h-5.11c-0.08-0.74-0.43-1.32-1.06-1.75c-0.63-0.43-1.58-0.64-2.85-0.64c-1.15,0-2.05,0.23-2.7,0.7
				s-0.98,1.02-0.98,1.64c0,1.06,0.91,1.86,2.71,2.39l5.29,1.98c1.72,0.58,3.05,1.33,4,2.25c0.95,0.92,1.43,2.08,1.43,3.5
				c0,1.18-0.4,2.3-1.18,3.35c-0.79,1.05-1.89,1.91-3.3,2.56C1297.78,180.02,1296.15,180.35,1294.29,180.35z"/>
			<path class="st1" d="M1319.02,180.35c-2.04,0-3.88-0.44-5.53-1.31s-2.96-2.18-3.92-3.92c-0.97-1.74-1.45-3.92-1.45-6.54
				c0-2.67,0.48-4.88,1.45-6.62c0.97-1.75,2.27-3.05,3.92-3.91s3.49-1.29,5.53-1.29c2.01,0,3.83,0.43,5.46,1.29s2.93,2.16,3.9,3.91
				s1.45,3.96,1.45,6.62c0,2.62-0.48,4.8-1.45,6.54s-2.27,3.05-3.9,3.92S1321.02,180.35,1319.02,180.35z M1318.83,175.61
				c1.07,0,2.03-0.26,2.86-0.79s1.5-1.31,1.98-2.36c0.48-1.04,0.72-2.34,0.72-3.89c0-2.36-0.46-4.14-1.39-5.34
				c-0.93-1.2-2.2-1.79-3.81-1.79c-1.09,0-2.05,0.27-2.9,0.79c-0.84,0.53-1.51,1.32-1.99,2.38c-0.48,1.06-0.72,2.38-0.72,3.96
				c0,2.33,0.47,4.09,1.42,5.27C1315.95,175.02,1317.22,175.61,1318.83,175.61z"/>
			<path class="st1" d="M1336.27,179.71V157.4h4.74l0.69,4.42v17.89H1336.27z M1351.58,179.71v-13.06c0-1.66-0.4-2.91-1.2-3.75
				c-0.8-0.84-1.84-1.26-3.13-1.26c-1.09,0-2.05,0.3-2.89,0.9c-0.84,0.6-1.49,1.5-1.97,2.7s-0.71,2.7-0.71,4.5h-1.79
				c0-2.9,0.36-5.31,1.08-7.23c0.72-1.92,1.74-3.36,3.06-4.31c1.32-0.95,2.87-1.43,4.65-1.43c1.84,0,3.38,0.41,4.61,1.23
				s2.16,1.97,2.78,3.46c0.62,1.49,0.93,3.22,0.93,5.2v13.06H1351.58z"/>
			<path class="st1" d="M1371.82,180.35c-1.92,0-3.52-0.33-4.79-1c-1.28-0.67-2.24-1.54-2.89-2.63c-0.64-1.09-0.97-2.27-0.97-3.54
				c0-1.41,0.37-2.59,1.12-3.55c0.74-0.96,1.8-1.68,3.16-2.16c1.37-0.48,2.97-0.72,4.83-0.72c1.21,0,2.36,0.09,3.44,0.28
				s2.16,0.43,3.23,0.74v3.17c-0.84-0.28-1.76-0.49-2.76-0.64c-1-0.15-1.93-0.23-2.81-0.23c-1.29,0-2.35,0.24-3.17,0.71
				c-0.83,0.47-1.24,1.28-1.24,2.41c0,0.83,0.34,1.54,1.01,2.14c0.67,0.6,1.75,0.9,3.22,0.9c1.12,0,2.07-0.25,2.85-0.74
				c0.78-0.49,1.38-1.1,1.78-1.84c0.41-0.74,0.61-1.47,0.61-2.21h1.29c0,1.61-0.3,3.09-0.9,4.45c-0.6,1.36-1.48,2.44-2.66,3.25
				C1375.01,179.94,1373.56,180.35,1371.82,180.35z M1379.14,179.71l-0.69-5.43v-8.97c0-1.56-0.32-2.72-0.95-3.47
				c-0.64-0.75-1.71-1.13-3.23-1.13c-0.87,0-1.63,0.13-2.28,0.39c-0.64,0.26-1.14,0.63-1.48,1.12c-0.34,0.48-0.52,1.07-0.52,1.76
				h-5.93c0-1.69,0.41-3.06,1.22-4.13s1.98-1.85,3.51-2.35c1.53-0.5,3.35-0.75,5.49-0.75c1.93,0,3.62,0.31,5.06,0.93
				s2.56,1.58,3.36,2.86c0.8,1.29,1.2,2.94,1.2,4.95v14.21H1379.14z"/>
			<path class="st1" d="M1400.16,180.35c-2.15,0-3.99-0.29-5.53-0.88s-2.73-1.44-3.55-2.55c-0.83-1.11-1.25-2.45-1.26-4.01h5.01
				c0.05,1.1,0.48,1.91,1.31,2.41s1.96,0.76,3.38,0.76c0.78,0,1.48-0.12,2.08-0.35c0.61-0.23,1.08-0.54,1.42-0.94
				c0.34-0.4,0.51-0.84,0.51-1.33c0-0.63-0.23-1.12-0.68-1.48s-1.18-0.69-2.17-1l-4.88-1.75c-1.75-0.63-3.09-1.46-4.03-2.48
				s-1.4-2.25-1.4-3.68c0-1.89,0.85-3.41,2.56-4.57c1.71-1.16,4-1.74,6.87-1.74c2.85,0,5.06,0.63,6.61,1.88
				c1.56,1.25,2.36,2.83,2.4,4.75h-5.11c-0.08-0.74-0.43-1.32-1.06-1.75c-0.63-0.43-1.58-0.64-2.85-0.64c-1.15,0-2.05,0.23-2.7,0.7
				s-0.98,1.02-0.98,1.64c0,1.06,0.91,1.86,2.71,2.39l5.29,1.98c1.72,0.58,3.05,1.33,4,2.25c0.95,0.92,1.43,2.08,1.43,3.5
				c0,1.18-0.4,2.3-1.18,3.35c-0.79,1.05-1.89,1.91-3.3,2.56C1403.65,180.02,1402.01,180.35,1400.16,180.35z"/>
			<path class="st1" d="M1424.93,160.98v-3.59h14.63v3.59H1424.93z M1435.28,180.35c-1.32,0-2.53-0.25-3.62-0.74
				c-1.1-0.49-1.97-1.24-2.62-2.25c-0.65-1.01-0.98-2.3-0.98-3.86v-22.03h5.43v21.85c0,1.84,0.87,2.76,2.62,2.76
				c0.54,0,1.07-0.06,1.61-0.18c0.54-0.12,1.15-0.31,1.84-0.55l0.78,3.82c-0.86,0.34-1.69,0.62-2.51,0.85
				S1436.17,180.35,1435.28,180.35z"/>
			<path class="st1" d="M1445.88,179.71v-22.4h5.43v22.4H1445.88z M1449.98,169.91c0-2.93,0.33-5.35,0.99-7.27
				c0.66-1.92,1.54-3.34,2.66-4.27c1.11-0.93,2.35-1.39,3.71-1.39c0.37,0,0.72,0.02,1.05,0.07c0.33,0.05,0.66,0.12,0.98,0.21
				l-0.09,5.43c-0.4-0.09-0.83-0.17-1.29-0.23s-0.87-0.09-1.24-0.09c-1.2,0-2.2,0.29-3,0.86c-0.81,0.58-1.41,1.42-1.82,2.54
				c-0.41,1.12-0.61,2.5-0.61,4.14H1449.98z"/>
			<path class="st1" d="M1470.84,180.35c-1.92,0-3.52-0.33-4.79-1c-1.28-0.67-2.24-1.54-2.89-2.63c-0.64-1.09-0.97-2.27-0.97-3.54
				c0-1.41,0.37-2.59,1.12-3.55c0.74-0.96,1.8-1.68,3.16-2.16c1.37-0.48,2.97-0.72,4.83-0.72c1.21,0,2.36,0.09,3.44,0.28
				s2.16,0.43,3.23,0.74v3.17c-0.84-0.28-1.76-0.49-2.76-0.64c-1-0.15-1.93-0.23-2.81-0.23c-1.29,0-2.35,0.24-3.17,0.71
				c-0.83,0.47-1.24,1.28-1.24,2.41c0,0.83,0.34,1.54,1.01,2.14c0.67,0.6,1.75,0.9,3.22,0.9c1.12,0,2.07-0.25,2.85-0.74
				c0.78-0.49,1.38-1.1,1.78-1.84c0.41-0.74,0.61-1.47,0.61-2.21h1.29c0,1.61-0.3,3.09-0.9,4.45c-0.6,1.36-1.48,2.44-2.66,3.25
				C1474.02,179.94,1472.57,180.35,1470.84,180.35z M1478.15,179.71l-0.69-5.43v-8.97c0-1.56-0.32-2.72-0.95-3.47
				c-0.64-0.75-1.71-1.13-3.23-1.13c-0.87,0-1.63,0.13-2.28,0.39c-0.64,0.26-1.14,0.63-1.48,1.12c-0.34,0.48-0.52,1.07-0.52,1.76
				h-5.93c0-1.69,0.41-3.06,1.22-4.13s1.98-1.85,3.51-2.35c1.53-0.5,3.35-0.75,5.49-0.75c1.93,0,3.62,0.31,5.06,0.93
				s2.56,1.58,3.36,2.86c0.8,1.29,1.2,2.94,1.2,4.95v14.21H1478.15z"/>
			<path class="st1" d="M1490.85,179.71v-31.56h5.43v26.04l-1.89,5.52H1490.85z M1502.25,180.35c-1.39,0-2.67-0.39-3.83-1.17
				c-1.16-0.78-2.08-1.95-2.77-3.51s-1.04-3.51-1.04-5.85h1.66c0,1.12,0.25,2.1,0.76,2.94c0.51,0.84,1.16,1.5,1.96,1.97
				c0.8,0.47,1.63,0.7,2.48,0.7c1.06,0,2-0.29,2.83-0.87c0.83-0.58,1.48-1.4,1.97-2.44c0.48-1.04,0.72-2.27,0.72-3.68
				c0-1.36-0.24-2.56-0.71-3.58s-1.13-1.81-1.97-2.38c-0.84-0.57-1.8-0.85-2.89-0.85c-0.91,0-1.75,0.22-2.53,0.66
				c-0.78,0.44-1.42,1.07-1.9,1.89c-0.48,0.82-0.72,1.81-0.72,2.98h-1.66c0-2.25,0.33-4.16,0.98-5.71c0.65-1.55,1.58-2.72,2.78-3.51
				c1.2-0.79,2.63-1.18,4.29-1.18c1.81,0,3.45,0.48,4.93,1.44c1.48,0.96,2.66,2.32,3.54,4.07s1.32,3.81,1.32,6.17
				c0,2.39-0.46,4.48-1.37,6.27c-0.91,1.79-2.14,3.17-3.69,4.16C1505.86,179.86,1504.14,180.35,1502.25,180.35z"/>
			<path class="st1" d="M1525.99,180.35c-1.92,0-3.52-0.33-4.79-1c-1.28-0.67-2.24-1.54-2.89-2.63c-0.64-1.09-0.97-2.27-0.97-3.54
				c0-1.41,0.37-2.59,1.12-3.55c0.74-0.96,1.8-1.68,3.16-2.16c1.37-0.48,2.97-0.72,4.83-0.72c1.21,0,2.36,0.09,3.44,0.28
				s2.16,0.43,3.23,0.74v3.17c-0.84-0.28-1.76-0.49-2.76-0.64c-1-0.15-1.93-0.23-2.81-0.23c-1.29,0-2.35,0.24-3.17,0.71
				c-0.83,0.47-1.24,1.28-1.24,2.41c0,0.83,0.34,1.54,1.01,2.14c0.67,0.6,1.75,0.9,3.22,0.9c1.12,0,2.07-0.25,2.85-0.74
				c0.78-0.49,1.38-1.1,1.78-1.84c0.41-0.74,0.61-1.47,0.61-2.21h1.29c0,1.61-0.3,3.09-0.9,4.45c-0.6,1.36-1.48,2.44-2.66,3.25
				C1529.17,179.94,1527.72,180.35,1525.99,180.35z M1533.3,179.71l-0.69-5.43v-8.97c0-1.56-0.32-2.72-0.95-3.47
				c-0.64-0.75-1.71-1.13-3.23-1.13c-0.87,0-1.63,0.13-2.28,0.39c-0.64,0.26-1.14,0.63-1.48,1.12c-0.34,0.48-0.52,1.07-0.52,1.76
				h-5.93c0-1.69,0.41-3.06,1.22-4.13s1.98-1.85,3.51-2.35c1.53-0.5,3.35-0.75,5.49-0.75c1.93,0,3.62,0.31,5.06,0.93
				s2.56,1.58,3.36,2.86c0.8,1.29,1.2,2.94,1.2,4.95v14.21H1533.3z"/>
			<path class="st1" d="M1544.67,191.25c-1.2,0-2.3-0.13-3.32-0.39c-1.02-0.26-2.06-0.61-3.12-1.04l0.09-4.69
				c0.78,0.38,1.61,0.71,2.47,0.98c0.87,0.27,1.71,0.4,2.54,0.4c1.12,0,1.97-0.32,2.56-0.97c0.59-0.64,0.88-1.73,0.88-3.27V157.3
				h5.43v25.07c0,3.19-0.66,5.47-1.99,6.83S1547.04,191.25,1544.67,191.25z M1549.45,153.3c-1.03,0-1.84-0.28-2.45-0.84
				c-0.61-0.56-0.91-1.34-0.91-2.33c0-0.97,0.3-1.74,0.91-2.31c0.61-0.57,1.42-0.86,2.45-0.86c1.04,0,1.86,0.29,2.46,0.86
				c0.6,0.58,0.9,1.35,0.9,2.31c0,1-0.3,1.77-0.9,2.33C1551.31,153.02,1550.49,153.3,1549.45,153.3z"/>
			<path class="st1" d="M1568.31,180.35c-1.92,0-3.52-0.33-4.79-1c-1.28-0.67-2.24-1.54-2.89-2.63c-0.64-1.09-0.97-2.27-0.97-3.54
				c0-1.41,0.37-2.59,1.12-3.55c0.74-0.96,1.8-1.68,3.16-2.16c1.37-0.48,2.97-0.72,4.83-0.72c1.21,0,2.36,0.09,3.44,0.28
				s2.16,0.43,3.23,0.74v3.17c-0.84-0.28-1.76-0.49-2.76-0.64c-1-0.15-1.93-0.23-2.81-0.23c-1.29,0-2.35,0.24-3.17,0.71
				c-0.83,0.47-1.24,1.28-1.24,2.41c0,0.83,0.34,1.54,1.01,2.14c0.67,0.6,1.75,0.9,3.22,0.9c1.12,0,2.07-0.25,2.85-0.74
				c0.78-0.49,1.38-1.1,1.78-1.84c0.41-0.74,0.61-1.47,0.61-2.21h1.29c0,1.61-0.3,3.09-0.9,4.45c-0.6,1.36-1.48,2.44-2.66,3.25
				C1571.49,179.94,1570.04,180.35,1568.31,180.35z M1575.62,179.71l-0.69-5.43v-8.97c0-1.56-0.32-2.72-0.95-3.47
				c-0.64-0.75-1.71-1.13-3.23-1.13c-0.87,0-1.63,0.13-2.28,0.39c-0.64,0.26-1.14,0.63-1.48,1.12c-0.34,0.48-0.52,1.07-0.52,1.76
				h-5.93c0-1.69,0.41-3.06,1.22-4.13s1.98-1.85,3.51-2.35c1.53-0.5,3.35-0.75,5.49-0.75c1.93,0,3.62,0.31,5.06,0.93
				s2.56,1.58,3.36,2.86c0.8,1.29,1.2,2.94,1.2,4.95v14.21H1575.62z"/>
			<path class="st1" d="M1596.55,180.35c-1.87,0-3.58-0.49-5.12-1.48c-1.54-0.99-2.77-2.38-3.68-4.16
				c-0.91-1.79-1.37-3.88-1.37-6.27c0-2.36,0.44-4.42,1.32-6.17c0.88-1.76,2.06-3.11,3.54-4.07c1.48-0.96,3.12-1.44,4.93-1.44
				c1.66,0,3.09,0.39,4.3,1.18c1.21,0.79,2.14,1.96,2.78,3.51c0.64,1.55,0.97,3.45,0.97,5.71h-1.7c0-1.17-0.24-2.16-0.71-2.98
				c-0.48-0.82-1.1-1.45-1.88-1.89c-0.77-0.44-1.61-0.66-2.52-0.66c-1.09,0-2.05,0.28-2.89,0.85c-0.83,0.57-1.49,1.36-1.97,2.38
				c-0.48,1.02-0.71,2.21-0.71,3.58c0,1.41,0.24,2.64,0.71,3.68c0.47,1.04,1.13,1.86,1.97,2.44c0.84,0.58,1.78,0.87,2.84,0.87
				c0.86,0,1.68-0.23,2.47-0.7c0.79-0.47,1.43-1.12,1.93-1.97c0.5-0.84,0.75-1.82,0.75-2.94h1.7c0,2.35-0.35,4.3-1.05,5.85
				c-0.7,1.56-1.63,2.72-2.79,3.51C1599.23,179.96,1597.95,180.35,1596.55,180.35z M1603.54,179.71l-1.01-5.52v-26.04h5.47v31.56
				H1603.54z"/>
			<path class="st1" d="M1625.35,180.35c-2.04,0-3.88-0.44-5.53-1.31s-2.96-2.18-3.92-3.92c-0.97-1.74-1.45-3.92-1.45-6.54
				c0-2.67,0.48-4.88,1.45-6.62c0.97-1.75,2.27-3.05,3.92-3.91s3.49-1.29,5.53-1.29c2.01,0,3.83,0.43,5.46,1.29s2.93,2.16,3.9,3.91
				s1.45,3.96,1.45,6.62c0,2.62-0.48,4.8-1.45,6.54s-2.27,3.05-3.9,3.92S1627.36,180.35,1625.35,180.35z M1625.16,175.61
				c1.07,0,2.03-0.26,2.86-0.79s1.5-1.31,1.98-2.36c0.48-1.04,0.72-2.34,0.72-3.89c0-2.36-0.46-4.14-1.39-5.34
				c-0.93-1.2-2.2-1.79-3.81-1.79c-1.09,0-2.05,0.27-2.9,0.79c-0.84,0.53-1.51,1.32-1.99,2.38c-0.48,1.06-0.72,2.38-0.72,3.96
				c0,2.33,0.47,4.09,1.42,5.27C1622.28,175.02,1623.55,175.61,1625.16,175.61z"/>
			<path class="st1" d="M1642.6,179.71v-22.4h5.43v22.4H1642.6z M1646.69,169.91c0-2.93,0.33-5.35,0.99-7.27
				c0.66-1.92,1.54-3.34,2.66-4.27c1.11-0.93,2.35-1.39,3.71-1.39c0.37,0,0.72,0.02,1.05,0.07c0.33,0.05,0.66,0.12,0.98,0.21
				l-0.09,5.43c-0.4-0.09-0.83-0.17-1.29-0.23s-0.87-0.09-1.24-0.09c-1.2,0-2.2,0.29-3,0.86c-0.81,0.58-1.41,1.42-1.82,2.54
				c-0.41,1.12-0.61,2.5-0.61,4.14H1646.69z"/>
			<path class="st1" d="M1667.55,180.35c-1.92,0-3.52-0.33-4.79-1c-1.28-0.67-2.24-1.54-2.89-2.63c-0.64-1.09-0.97-2.27-0.97-3.54
				c0-1.41,0.37-2.59,1.12-3.55c0.74-0.96,1.8-1.68,3.16-2.16c1.37-0.48,2.97-0.72,4.83-0.72c1.21,0,2.36,0.09,3.44,0.28
				s2.16,0.43,3.23,0.74v3.17c-0.84-0.28-1.76-0.49-2.76-0.64c-1-0.15-1.93-0.23-2.81-0.23c-1.29,0-2.35,0.24-3.17,0.71
				c-0.83,0.47-1.24,1.28-1.24,2.41c0,0.83,0.34,1.54,1.01,2.14c0.67,0.6,1.75,0.9,3.22,0.9c1.12,0,2.07-0.25,2.85-0.74
				c0.78-0.49,1.38-1.1,1.78-1.84c0.41-0.74,0.61-1.47,0.61-2.21h1.29c0,1.61-0.3,3.09-0.9,4.45c-0.6,1.36-1.48,2.44-2.66,3.25
				C1670.74,179.94,1669.28,180.35,1667.55,180.35z M1674.87,179.71l-0.69-5.43v-8.97c0-1.56-0.32-2.72-0.95-3.47
				c-0.64-0.75-1.71-1.13-3.23-1.13c-0.87,0-1.63,0.13-2.28,0.39c-0.64,0.26-1.14,0.63-1.48,1.12c-0.34,0.48-0.52,1.07-0.52,1.76
				h-5.93c0-1.69,0.41-3.06,1.22-4.13s1.98-1.85,3.51-2.35c1.53-0.5,3.35-0.75,5.49-0.75c1.93,0,3.62,0.31,5.06,0.93
				s2.56,1.58,3.36,2.86c0.8,1.29,1.2,2.94,1.2,4.95v14.21H1674.87z"/>
			<path class="st1" d="M1695.89,180.35c-2.15,0-3.99-0.29-5.53-0.88s-2.73-1.44-3.55-2.55c-0.83-1.11-1.25-2.45-1.26-4.01h5.01
				c0.05,1.1,0.48,1.91,1.31,2.41s1.96,0.76,3.38,0.76c0.78,0,1.48-0.12,2.08-0.35c0.61-0.23,1.08-0.54,1.42-0.94
				c0.34-0.4,0.51-0.84,0.51-1.33c0-0.63-0.23-1.12-0.68-1.48s-1.18-0.69-2.17-1l-4.88-1.75c-1.75-0.63-3.09-1.46-4.03-2.48
				s-1.4-2.25-1.4-3.68c0-1.89,0.85-3.41,2.56-4.57c1.71-1.16,4-1.74,6.87-1.74c2.85,0,5.06,0.63,6.61,1.88
				c1.56,1.25,2.36,2.83,2.4,4.75h-5.11c-0.08-0.74-0.43-1.32-1.06-1.75c-0.63-0.43-1.58-0.64-2.85-0.64c-1.15,0-2.05,0.23-2.7,0.7
				s-0.98,1.02-0.98,1.64c0,1.06,0.91,1.86,2.71,2.39l5.29,1.98c1.72,0.58,3.05,1.33,4,2.25c0.95,0.92,1.43,2.08,1.43,3.5
				c0,1.18-0.4,2.3-1.18,3.35c-0.79,1.05-1.89,1.91-3.3,2.56C1699.38,180.02,1697.74,180.35,1695.89,180.35z"/>
		</g>
	</g>
</g>
</svg>
