<?xml version="1.0" encoding="utf-8"?>
<!-- Generator: Adobe Illustrator 24.0.2, SVG Export Plug-In . SVG Version: 6.00 Build 0)  -->
<svg version="1.1" id="Capa_1" xmlns="http://www.w3.org/2000/svg" xmlns:xlink="http://www.w3.org/1999/xlink" x="0px" y="0px"
	 viewBox="0 0 990 1043" style="enable-background:new 0 0 990 1043;" xml:space="preserve">
<style type="text/css">
	.st0{fill:#252525;}
	.st1{fill:#49ADA4;}
	.st2{fill:#B3E6E0;}
	.st3{fill:#FFFFFF;}
</style>
<rect x="79" y="960" class="st0" width="825" height="72"/>
<g>
	<circle class="st1" cx="59.68" cy="34.88" r="8.09"/>
	<path class="st1" d="M72.56,54.82v13.7c-0.01,3.79-2.13,7.26-5.51,9v15.22c0.14,4.07-3.05,7.49-7.12,7.63s-7.49-3.05-7.63-7.12
		c-0.01-0.17-0.01-0.34,0-0.5V77.53c-3.38-1.74-5.5-5.21-5.52-9.01v-13.7c0.02-5.58,4.55-10.09,10.12-10.11h5.52
		C68.02,44.73,72.54,49.24,72.56,54.82z"/>
	<circle class="st1" cx="59.68" cy="128.38" r="8.09"/>
	<path class="st1" d="M72.56,148.32v13.7c-0.01,3.79-2.13,7.26-5.51,9v15.22c0.14,4.07-3.05,7.49-7.12,7.63
		c-4.07,0.14-7.49-3.05-7.63-7.12c-0.01-0.17-0.01-0.34,0-0.5v-15.21c-3.38-1.74-5.5-5.21-5.52-9.01v-13.7
		c0.02-5.58,4.55-10.09,10.12-10.11h5.52C68.02,138.23,72.54,142.74,72.56,148.32z"/>
	<circle class="st1" cx="59.68" cy="221.88" r="8.09"/>
	<path class="st1" d="M72.56,241.82v13.7c-0.01,3.79-2.13,7.26-5.51,9v15.22c0.14,4.07-3.05,7.49-7.12,7.63
		c-4.07,0.14-7.49-3.05-7.63-7.12c-0.01-0.17-0.01-0.34,0-0.5v-15.21c-3.38-1.74-5.5-5.21-5.52-9.01v-13.7
		c0.02-5.58,4.55-10.09,10.12-10.11h5.52C68.02,231.73,72.54,236.25,72.56,241.82z"/>
	<circle class="st1" cx="59.68" cy="315.38" r="8.09"/>
	<path class="st1" d="M72.56,335.32v13.7c-0.01,3.79-2.13,7.26-5.51,9v15.22c0.14,4.07-3.05,7.49-7.12,7.63
		c-4.07,0.14-7.49-3.05-7.63-7.12c-0.01-0.17-0.01-0.34,0-0.5v-15.21c-3.38-1.74-5.5-5.21-5.52-9.01v-13.7
		c0.02-5.58,4.55-10.09,10.12-10.11h5.52C68.02,325.23,72.54,329.75,72.56,335.32z"/>
	<circle class="st1" cx="59.68" cy="408.88" r="8.09"/>
	<path class="st1" d="M72.56,428.83v13.7c-0.01,3.79-2.13,7.26-5.51,9v15.22c0.14,4.07-3.05,7.49-7.12,7.63
		c-4.07,0.14-7.49-3.05-7.63-7.12c-0.01-0.17-0.01-0.34,0-0.5v-15.21c-3.38-1.74-5.5-5.21-5.52-9.01v-13.7
		c0.02-5.58,4.55-10.09,10.12-10.11h5.52C68.02,418.73,72.54,423.25,72.56,428.83z"/>
	<circle class="st1" cx="59.68" cy="502.38" r="8.09"/>
	<path class="st1" d="M72.56,522.33v13.7c-0.01,3.79-2.13,7.26-5.51,9v15.22c0.14,4.07-3.05,7.49-7.12,7.63
		c-4.07,0.14-7.49-3.05-7.63-7.12c-0.01-0.17-0.01-0.34,0-0.5v-15.21c-3.38-1.74-5.5-5.21-5.52-9.01v-13.7
		c0.02-5.58,4.55-10.09,10.12-10.11h5.52C68.02,512.23,72.54,516.75,72.56,522.33z"/>
	<circle class="st2" cx="59.68" cy="595.88" r="8.09"/>
	<path class="st2" d="M72.56,615.83v13.7c-0.01,3.79-2.13,7.26-5.51,9v15.22c0.14,4.07-3.05,7.49-7.12,7.63s-7.49-3.05-7.63-7.12
		c-0.01-0.17-0.01-0.34,0-0.5v-15.21c-3.38-1.74-5.5-5.21-5.52-9.01v-13.7c0.02-5.58,4.55-10.09,10.12-10.11h5.52
		C68.02,605.73,72.54,610.25,72.56,615.83z"/>
	<circle class="st2" cx="59.68" cy="689.38" r="8.09"/>
	<path class="st2" d="M72.56,709.33v13.7c-0.01,3.79-2.13,7.26-5.51,9v15.22c0.14,4.07-3.05,7.49-7.12,7.63
		c-4.07,0.14-7.49-3.05-7.63-7.12c-0.01-0.17-0.01-0.34,0-0.5v-15.21c-3.38-1.74-5.5-5.21-5.52-9.01v-13.7
		c0.02-5.58,4.55-10.09,10.12-10.11h5.52C68.02,699.24,72.54,703.75,72.56,709.33z"/>
	<circle class="st2" cx="59.68" cy="782.88" r="8.09"/>
	<path class="st2" d="M72.56,802.83v13.7c-0.01,3.79-2.13,7.26-5.51,9v15.22c0.14,4.07-3.05,7.49-7.12,7.63s-7.49-3.05-7.63-7.12
		c-0.01-0.17-0.01-0.34,0-0.5v-15.21c-3.38-1.74-5.5-5.21-5.52-9.01v-13.7c0.02-5.58,4.55-10.09,10.12-10.11h5.52
		C68.02,792.74,72.54,797.25,72.56,802.83z"/>
	<circle class="st2" cx="59.68" cy="876.38" r="8.09"/>
	<path class="st2" d="M72.56,896.33v13.7c-0.01,3.79-2.13,7.26-5.51,9v15.22c0.14,4.07-3.05,7.49-7.12,7.63
		c-4.07,0.14-7.49-3.05-7.63-7.12c-0.01-0.17-0.01-0.34,0-0.5v-15.21c-3.38-1.74-5.5-5.21-5.52-9.01v-13.7
		c0.02-5.58,4.55-10.09,10.12-10.11h5.52C68.02,886.24,72.54,890.75,72.56,896.33z"/>
</g>
<g>
	<circle class="st1" cx="156.68" cy="34.88" r="8.09"/>
	<path class="st1" d="M169.57,54.82v13.7c-0.01,3.79-2.13,7.26-5.51,9v15.22c0.14,4.07-3.05,7.49-7.12,7.63
		c-4.07,0.14-7.49-3.05-7.63-7.12c-0.01-0.17-0.01-0.34,0-0.5V77.53c-3.38-1.74-5.5-5.21-5.52-9.01v-13.7
		c0.02-5.58,4.55-10.09,10.12-10.11h5.52C165.02,44.73,169.54,49.24,169.57,54.82z"/>
	<circle class="st1" cx="156.68" cy="128.38" r="8.09"/>
	<path class="st1" d="M169.57,148.32v13.7c-0.01,3.79-2.13,7.26-5.51,9v15.22c0.14,4.07-3.05,7.49-7.12,7.63
		c-4.07,0.14-7.49-3.05-7.63-7.12c-0.01-0.17-0.01-0.34,0-0.5v-15.21c-3.38-1.74-5.5-5.21-5.52-9.01v-13.7
		c0.02-5.58,4.55-10.09,10.12-10.11h5.52C165.02,138.23,169.54,142.74,169.57,148.32z"/>
	<circle class="st1" cx="156.68" cy="221.88" r="8.09"/>
	<path class="st1" d="M169.57,241.82v13.7c-0.01,3.79-2.13,7.26-5.51,9v15.22c0.14,4.07-3.05,7.49-7.12,7.63
		c-4.07,0.14-7.49-3.05-7.63-7.12c-0.01-0.17-0.01-0.34,0-0.5v-15.21c-3.38-1.74-5.5-5.21-5.52-9.01v-13.7
		c0.02-5.58,4.55-10.09,10.12-10.11h5.52C165.02,231.73,169.54,236.25,169.57,241.82z"/>
	<circle class="st1" cx="156.68" cy="315.38" r="8.09"/>
	<path class="st1" d="M169.57,335.32v13.7c-0.01,3.79-2.13,7.26-5.51,9v15.22c0.14,4.07-3.05,7.49-7.12,7.63
		c-4.07,0.14-7.49-3.05-7.63-7.12c-0.01-0.17-0.01-0.34,0-0.5v-15.21c-3.38-1.74-5.5-5.21-5.52-9.01v-13.7
		c0.02-5.58,4.55-10.09,10.12-10.11h5.52C165.02,325.23,169.54,329.75,169.57,335.32z"/>
	<circle class="st1" cx="156.68" cy="408.88" r="8.09"/>
	<path class="st1" d="M169.57,428.83v13.7c-0.01,3.79-2.13,7.26-5.51,9v15.22c0.14,4.07-3.05,7.49-7.12,7.63
		c-4.07,0.14-7.49-3.05-7.63-7.12c-0.01-0.17-0.01-0.34,0-0.5v-15.21c-3.38-1.74-5.5-5.21-5.52-9.01v-13.7
		c0.02-5.58,4.55-10.09,10.12-10.11h5.52C165.02,418.73,169.54,423.25,169.57,428.83z"/>
	<circle class="st1" cx="156.68" cy="502.38" r="8.09"/>
	<path class="st1" d="M169.57,522.33v13.7c-0.01,3.79-2.13,7.26-5.51,9v15.22c0.14,4.07-3.05,7.49-7.12,7.63
		c-4.07,0.14-7.49-3.05-7.63-7.12c-0.01-0.17-0.01-0.34,0-0.5v-15.21c-3.38-1.74-5.5-5.21-5.52-9.01v-13.7
		c0.02-5.58,4.55-10.09,10.12-10.11h5.52C165.02,512.23,169.54,516.75,169.57,522.33z"/>
	<circle class="st2" cx="156.68" cy="595.88" r="8.09"/>
	<path class="st2" d="M169.57,615.83v13.7c-0.01,3.79-2.13,7.26-5.51,9v15.22c0.14,4.07-3.05,7.49-7.12,7.63
		c-4.07,0.14-7.49-3.05-7.63-7.12c-0.01-0.17-0.01-0.34,0-0.5v-15.21c-3.38-1.74-5.5-5.21-5.52-9.01v-13.7
		c0.02-5.58,4.55-10.09,10.12-10.11h5.52C165.02,605.73,169.54,610.25,169.57,615.83z"/>
	<circle class="st2" cx="156.68" cy="689.38" r="8.09"/>
	<path class="st2" d="M169.57,709.33v13.7c-0.01,3.79-2.13,7.26-5.51,9v15.22c0.14,4.07-3.05,7.49-7.12,7.63
		c-4.07,0.14-7.49-3.05-7.63-7.12c-0.01-0.17-0.01-0.34,0-0.5v-15.21c-3.38-1.74-5.5-5.21-5.52-9.01v-13.7
		c0.02-5.58,4.55-10.09,10.12-10.11h5.52C165.02,699.24,169.54,703.75,169.57,709.33z"/>
	<circle class="st2" cx="156.68" cy="782.88" r="8.09"/>
	<path class="st2" d="M169.57,802.83v13.7c-0.01,3.79-2.13,7.26-5.51,9v15.22c0.14,4.07-3.05,7.49-7.12,7.63
		c-4.07,0.14-7.49-3.05-7.63-7.12c-0.01-0.17-0.01-0.34,0-0.5v-15.21c-3.38-1.74-5.5-5.21-5.52-9.01v-13.7
		c0.02-5.58,4.55-10.09,10.12-10.11h5.52C165.02,792.74,169.54,797.25,169.57,802.83z"/>
	<circle class="st2" cx="156.68" cy="876.38" r="8.09"/>
	<path class="st2" d="M169.57,896.33v13.7c-0.01,3.79-2.13,7.26-5.51,9v15.22c0.14,4.07-3.05,7.49-7.12,7.63
		c-4.07,0.14-7.49-3.05-7.63-7.12c-0.01-0.17-0.01-0.34,0-0.5v-15.21c-3.38-1.74-5.5-5.21-5.52-9.01v-13.7
		c0.02-5.58,4.55-10.09,10.12-10.11h5.52C165.02,886.24,169.54,890.75,169.57,896.33z"/>
</g>
<g>
	<circle class="st1" cx="253.68" cy="34.88" r="8.09"/>
	<path class="st1" d="M266.57,54.82v13.7c-0.01,3.79-2.13,7.26-5.51,9v15.22c0.14,4.07-3.05,7.49-7.12,7.63
		c-4.07,0.14-7.49-3.05-7.63-7.12c-0.01-0.17-0.01-0.34,0-0.5V77.53c-3.38-1.74-5.5-5.21-5.52-9.01v-13.7
		c0.02-5.58,4.55-10.09,10.12-10.11h5.52C262.02,44.73,266.55,49.24,266.57,54.82z"/>
	<circle class="st1" cx="253.68" cy="128.38" r="8.09"/>
	<path class="st1" d="M266.57,148.32v13.7c-0.01,3.79-2.13,7.26-5.51,9v15.22c0.14,4.07-3.05,7.49-7.12,7.63
		c-4.07,0.14-7.49-3.05-7.63-7.12c-0.01-0.17-0.01-0.34,0-0.5v-15.21c-3.38-1.74-5.5-5.21-5.52-9.01v-13.7
		c0.02-5.58,4.55-10.09,10.12-10.11h5.52C262.02,138.23,266.55,142.74,266.57,148.32z"/>
	<circle class="st1" cx="253.68" cy="221.88" r="8.09"/>
	<path class="st1" d="M266.57,241.82v13.7c-0.01,3.79-2.13,7.26-5.51,9v15.22c0.14,4.07-3.05,7.49-7.12,7.63
		c-4.07,0.14-7.49-3.05-7.63-7.12c-0.01-0.17-0.01-0.34,0-0.5v-15.21c-3.38-1.74-5.5-5.21-5.52-9.01v-13.7
		c0.02-5.58,4.55-10.09,10.12-10.11h5.52C262.02,231.73,266.55,236.25,266.57,241.82z"/>
	<circle class="st1" cx="253.68" cy="315.38" r="8.09"/>
	<path class="st1" d="M266.57,335.32v13.7c-0.01,3.79-2.13,7.26-5.51,9v15.22c0.14,4.07-3.05,7.49-7.12,7.63
		c-4.07,0.14-7.49-3.05-7.63-7.12c-0.01-0.17-0.01-0.34,0-0.5v-15.21c-3.38-1.74-5.5-5.21-5.52-9.01v-13.7
		c0.02-5.58,4.55-10.09,10.12-10.11h5.52C262.02,325.23,266.55,329.75,266.57,335.32z"/>
	<circle class="st1" cx="253.68" cy="408.88" r="8.09"/>
	<path class="st1" d="M266.57,428.83v13.7c-0.01,3.79-2.13,7.26-5.51,9v15.22c0.14,4.07-3.05,7.49-7.12,7.63
		c-4.07,0.14-7.49-3.05-7.63-7.12c-0.01-0.17-0.01-0.34,0-0.5v-15.21c-3.38-1.74-5.5-5.21-5.52-9.01v-13.7
		c0.02-5.58,4.55-10.09,10.12-10.11h5.52C262.02,418.73,266.55,423.25,266.57,428.83z"/>
	<circle class="st1" cx="253.68" cy="502.38" r="8.09"/>
	<path class="st1" d="M266.57,522.33v13.7c-0.01,3.79-2.13,7.26-5.51,9v15.22c0.14,4.07-3.05,7.49-7.12,7.63
		c-4.07,0.14-7.49-3.05-7.63-7.12c-0.01-0.17-0.01-0.34,0-0.5v-15.21c-3.38-1.74-5.5-5.21-5.52-9.01v-13.7
		c0.02-5.58,4.55-10.09,10.12-10.11h5.52C262.02,512.23,266.55,516.75,266.57,522.33z"/>
	<circle class="st2" cx="253.68" cy="595.88" r="8.09"/>
	<path class="st2" d="M266.57,615.83v13.7c-0.01,3.79-2.13,7.26-5.51,9v15.22c0.14,4.07-3.05,7.49-7.12,7.63
		c-4.07,0.14-7.49-3.05-7.63-7.12c-0.01-0.17-0.01-0.34,0-0.5v-15.21c-3.38-1.74-5.5-5.21-5.52-9.01v-13.7
		c0.02-5.58,4.55-10.09,10.12-10.11h5.52C262.02,605.73,266.55,610.25,266.57,615.83z"/>
	<circle class="st2" cx="253.68" cy="689.38" r="8.09"/>
	<path class="st2" d="M266.57,709.33v13.7c-0.01,3.79-2.13,7.26-5.51,9v15.22c0.14,4.07-3.05,7.49-7.12,7.63
		c-4.07,0.14-7.49-3.05-7.63-7.12c-0.01-0.17-0.01-0.34,0-0.5v-15.21c-3.38-1.74-5.5-5.21-5.52-9.01v-13.7
		c0.02-5.58,4.55-10.09,10.12-10.11h5.52C262.02,699.24,266.55,703.75,266.57,709.33z"/>
	<circle class="st2" cx="253.68" cy="782.88" r="8.09"/>
	<path class="st2" d="M266.57,802.83v13.7c-0.01,3.79-2.13,7.26-5.51,9v15.22c0.14,4.07-3.05,7.49-7.12,7.63
		c-4.07,0.14-7.49-3.05-7.63-7.12c-0.01-0.17-0.01-0.34,0-0.5v-15.21c-3.38-1.74-5.5-5.21-5.52-9.01v-13.7
		c0.02-5.58,4.55-10.09,10.12-10.11h5.52C262.02,792.74,266.55,797.25,266.57,802.83z"/>
	<circle class="st2" cx="253.68" cy="876.38" r="8.09"/>
	<path class="st2" d="M266.57,896.33v13.7c-0.01,3.79-2.13,7.26-5.51,9v15.22c0.14,4.07-3.05,7.49-7.12,7.63
		c-4.07,0.14-7.49-3.05-7.63-7.12c-0.01-0.17-0.01-0.34,0-0.5v-15.21c-3.38-1.74-5.5-5.21-5.52-9.01v-13.7
		c0.02-5.58,4.55-10.09,10.12-10.11h5.52C262.02,886.24,266.55,890.75,266.57,896.33z"/>
</g>
<g>
	<circle class="st1" cx="350.69" cy="34.88" r="8.09"/>
	<path class="st1" d="M363.57,54.82v13.7c-0.01,3.79-2.13,7.26-5.51,9v15.22c0.14,4.07-3.05,7.49-7.12,7.63
		c-4.07,0.14-7.49-3.05-7.63-7.12c-0.01-0.17-0.01-0.34,0-0.5V77.53c-3.38-1.74-5.5-5.21-5.52-9.01v-13.7
		c0.02-5.58,4.55-10.09,10.12-10.11h5.52C359.03,44.73,363.55,49.24,363.57,54.82z"/>
	<circle class="st1" cx="350.69" cy="128.38" r="8.09"/>
	<path class="st1" d="M363.57,148.32v13.7c-0.01,3.79-2.13,7.26-5.51,9v15.22c0.14,4.07-3.05,7.49-7.12,7.63
		c-4.07,0.14-7.49-3.05-7.63-7.12c-0.01-0.17-0.01-0.34,0-0.5v-15.21c-3.38-1.74-5.5-5.21-5.52-9.01v-13.7
		c0.02-5.58,4.55-10.09,10.12-10.11h5.52C359.03,138.23,363.55,142.74,363.57,148.32z"/>
	<circle class="st1" cx="350.69" cy="221.88" r="8.09"/>
	<path class="st1" d="M363.57,241.82v13.7c-0.01,3.79-2.13,7.26-5.51,9v15.22c0.14,4.07-3.05,7.49-7.12,7.63
		c-4.07,0.14-7.49-3.05-7.63-7.12c-0.01-0.17-0.01-0.34,0-0.5v-15.21c-3.38-1.74-5.5-5.21-5.52-9.01v-13.7
		c0.02-5.58,4.55-10.09,10.12-10.11h5.52C359.03,231.73,363.55,236.25,363.57,241.82z"/>
	<circle class="st1" cx="350.69" cy="315.38" r="8.09"/>
	<path class="st1" d="M363.57,335.32v13.7c-0.01,3.79-2.13,7.26-5.51,9v15.22c0.14,4.07-3.05,7.49-7.12,7.63
		c-4.07,0.14-7.49-3.05-7.63-7.12c-0.01-0.17-0.01-0.34,0-0.5v-15.21c-3.38-1.74-5.5-5.21-5.52-9.01v-13.7
		c0.02-5.58,4.55-10.09,10.12-10.11h5.52C359.03,325.23,363.55,329.75,363.57,335.32z"/>
	<circle class="st1" cx="350.69" cy="408.88" r="8.09"/>
	<path class="st1" d="M363.57,428.83v13.7c-0.01,3.79-2.13,7.26-5.51,9v15.22c0.14,4.07-3.05,7.49-7.12,7.63
		c-4.07,0.14-7.49-3.05-7.63-7.12c-0.01-0.17-0.01-0.34,0-0.5v-15.21c-3.38-1.74-5.5-5.21-5.52-9.01v-13.7
		c0.02-5.58,4.55-10.09,10.12-10.11h5.52C359.03,418.73,363.55,423.25,363.57,428.83z"/>
	<circle class="st1" cx="350.69" cy="502.38" r="8.09"/>
	<path class="st1" d="M363.57,522.33v13.7c-0.01,3.79-2.13,7.26-5.51,9v15.22c0.14,4.07-3.05,7.49-7.12,7.63
		c-4.07,0.14-7.49-3.05-7.63-7.12c-0.01-0.17-0.01-0.34,0-0.5v-15.21c-3.38-1.74-5.5-5.21-5.52-9.01v-13.7
		c0.02-5.58,4.55-10.09,10.12-10.11h5.52C359.03,512.23,363.55,516.75,363.57,522.33z"/>
	<circle class="st2" cx="350.69" cy="595.88" r="8.09"/>
	<path class="st2" d="M363.57,615.83v13.7c-0.01,3.79-2.13,7.26-5.51,9v15.22c0.14,4.07-3.05,7.49-7.12,7.63
		c-4.07,0.14-7.49-3.05-7.63-7.12c-0.01-0.17-0.01-0.34,0-0.5v-15.21c-3.38-1.74-5.5-5.21-5.52-9.01v-13.7
		c0.02-5.58,4.55-10.09,10.12-10.11h5.52C359.03,605.73,363.55,610.25,363.57,615.83z"/>
	<circle class="st2" cx="350.69" cy="689.38" r="8.09"/>
	<path class="st2" d="M363.57,709.33v13.7c-0.01,3.79-2.13,7.26-5.51,9v15.22c0.14,4.07-3.05,7.49-7.12,7.63
		c-4.07,0.14-7.49-3.05-7.63-7.12c-0.01-0.17-0.01-0.34,0-0.5v-15.21c-3.38-1.74-5.5-5.21-5.52-9.01v-13.7
		c0.02-5.58,4.55-10.09,10.12-10.11h5.52C359.03,699.24,363.55,703.75,363.57,709.33z"/>
	<circle class="st2" cx="350.69" cy="782.88" r="8.09"/>
	<path class="st2" d="M363.57,802.83v13.7c-0.01,3.79-2.13,7.26-5.51,9v15.22c0.14,4.07-3.05,7.49-7.12,7.63
		c-4.07,0.14-7.49-3.05-7.63-7.12c-0.01-0.17-0.01-0.34,0-0.5v-15.21c-3.38-1.74-5.5-5.21-5.52-9.01v-13.7
		c0.02-5.58,4.55-10.09,10.12-10.11h5.52C359.03,792.74,363.55,797.25,363.57,802.83z"/>
	<circle class="st2" cx="350.69" cy="876.38" r="8.09"/>
	<path class="st2" d="M363.57,896.33v13.7c-0.01,3.79-2.13,7.26-5.51,9v15.22c0.14,4.07-3.05,7.49-7.12,7.63
		c-4.07,0.14-7.49-3.05-7.63-7.12c-0.01-0.17-0.01-0.34,0-0.5v-15.21c-3.38-1.74-5.5-5.21-5.52-9.01v-13.7
		c0.02-5.58,4.55-10.09,10.12-10.11h5.52C359.03,886.24,363.55,890.75,363.57,896.33z"/>
</g>
<g>
	<circle class="st1" cx="447.69" cy="34.88" r="8.09"/>
	<path class="st1" d="M460.58,54.82v13.7c-0.01,3.79-2.13,7.26-5.51,9v15.22c0.14,4.07-3.05,7.49-7.12,7.63
		c-4.07,0.14-7.49-3.05-7.63-7.12c-0.01-0.17-0.01-0.34,0-0.5V77.53c-3.38-1.74-5.5-5.21-5.52-9.01v-13.7
		c0.02-5.58,4.55-10.09,10.12-10.11h5.52C456.03,44.73,460.55,49.24,460.58,54.82z"/>
	<circle class="st1" cx="447.69" cy="128.38" r="8.09"/>
	<path class="st1" d="M460.58,148.32v13.7c-0.01,3.79-2.13,7.26-5.51,9v15.22c0.14,4.07-3.05,7.49-7.12,7.63
		c-4.07,0.14-7.49-3.05-7.63-7.12c-0.01-0.17-0.01-0.34,0-0.5v-15.21c-3.38-1.74-5.5-5.21-5.52-9.01v-13.7
		c0.02-5.58,4.55-10.09,10.12-10.11h5.52C456.03,138.23,460.55,142.74,460.58,148.32z"/>
	<circle class="st1" cx="447.69" cy="221.88" r="8.09"/>
	<path class="st1" d="M460.58,241.82v13.7c-0.01,3.79-2.13,7.26-5.51,9v15.22c0.14,4.07-3.05,7.49-7.12,7.63
		c-4.07,0.14-7.49-3.05-7.63-7.12c-0.01-0.17-0.01-0.34,0-0.5v-15.21c-3.38-1.74-5.5-5.21-5.52-9.01v-13.7
		c0.02-5.58,4.55-10.09,10.12-10.11h5.52C456.03,231.73,460.55,236.25,460.58,241.82z"/>
	<circle class="st1" cx="447.69" cy="315.38" r="8.09"/>
	<path class="st1" d="M460.58,335.32v13.7c-0.01,3.79-2.13,7.26-5.51,9v15.22c0.14,4.07-3.05,7.49-7.12,7.63
		c-4.07,0.14-7.49-3.05-7.63-7.12c-0.01-0.17-0.01-0.34,0-0.5v-15.21c-3.38-1.74-5.5-5.21-5.52-9.01v-13.7
		c0.02-5.58,4.55-10.09,10.12-10.11h5.52C456.03,325.23,460.55,329.75,460.58,335.32z"/>
	<circle class="st1" cx="447.69" cy="408.88" r="8.09"/>
	<path class="st1" d="M460.58,428.83v13.7c-0.01,3.79-2.13,7.26-5.51,9v15.22c0.14,4.07-3.05,7.49-7.12,7.63
		c-4.07,0.14-7.49-3.05-7.63-7.12c-0.01-0.17-0.01-0.34,0-0.5v-15.21c-3.38-1.74-5.5-5.21-5.52-9.01v-13.7
		c0.02-5.58,4.55-10.09,10.12-10.11h5.52C456.03,418.73,460.55,423.25,460.58,428.83z"/>
	<circle class="st1" cx="447.69" cy="502.38" r="8.09"/>
	<path class="st1" d="M460.58,522.33v13.7c-0.01,3.79-2.13,7.26-5.51,9v15.22c0.14,4.07-3.05,7.49-7.12,7.63
		c-4.07,0.14-7.49-3.05-7.63-7.12c-0.01-0.17-0.01-0.34,0-0.5v-15.21c-3.38-1.74-5.5-5.21-5.52-9.01v-13.7
		c0.02-5.58,4.55-10.09,10.12-10.11h5.52C456.03,512.23,460.55,516.75,460.58,522.33z"/>
	<circle class="st2" cx="447.69" cy="595.88" r="8.09"/>
	<path class="st2" d="M460.58,615.83v13.7c-0.01,3.79-2.13,7.26-5.51,9v15.22c0.14,4.07-3.05,7.49-7.12,7.63
		c-4.07,0.14-7.49-3.05-7.63-7.12c-0.01-0.17-0.01-0.34,0-0.5v-15.21c-3.38-1.74-5.5-5.21-5.52-9.01v-13.7
		c0.02-5.58,4.55-10.09,10.12-10.11h5.52C456.03,605.73,460.55,610.25,460.58,615.83z"/>
	<circle class="st2" cx="447.69" cy="689.38" r="8.09"/>
	<path class="st2" d="M460.58,709.33v13.7c-0.01,3.79-2.13,7.26-5.51,9v15.22c0.14,4.07-3.05,7.49-7.12,7.63
		c-4.07,0.14-7.49-3.05-7.63-7.12c-0.01-0.17-0.01-0.34,0-0.5v-15.21c-3.38-1.74-5.5-5.21-5.52-9.01v-13.7
		c0.02-5.58,4.55-10.09,10.12-10.11h5.52C456.03,699.24,460.55,703.75,460.58,709.33z"/>
	<circle class="st2" cx="447.69" cy="782.88" r="8.09"/>
	<path class="st2" d="M460.58,802.83v13.7c-0.01,3.79-2.13,7.26-5.51,9v15.22c0.14,4.07-3.05,7.49-7.12,7.63
		c-4.07,0.14-7.49-3.05-7.63-7.12c-0.01-0.17-0.01-0.34,0-0.5v-15.21c-3.38-1.74-5.5-5.21-5.52-9.01v-13.7
		c0.02-5.58,4.55-10.09,10.12-10.11h5.52C456.03,792.74,460.55,797.25,460.58,802.83z"/>
	<circle class="st2" cx="447.69" cy="876.38" r="8.09"/>
	<path class="st2" d="M460.58,896.33v13.7c-0.01,3.79-2.13,7.26-5.51,9v15.22c0.14,4.07-3.05,7.49-7.12,7.63
		c-4.07,0.14-7.49-3.05-7.63-7.12c-0.01-0.17-0.01-0.34,0-0.5v-15.21c-3.38-1.74-5.5-5.21-5.52-9.01v-13.7
		c0.02-5.58,4.55-10.09,10.12-10.11h5.52C456.03,886.24,460.55,890.75,460.58,896.33z"/>
</g>
<g>
	<circle class="st1" cx="544.69" cy="34.88" r="8.09"/>
	<path class="st1" d="M557.58,54.82v13.7c-0.01,3.79-2.13,7.26-5.51,9v15.22c0.14,4.07-3.05,7.49-7.12,7.63s-7.49-3.05-7.63-7.12
		c-0.01-0.17-0.01-0.34,0-0.5V77.53c-3.38-1.74-5.5-5.21-5.52-9.01v-13.7c0.02-5.58,4.55-10.09,10.12-10.11h5.52
		C553.04,44.73,557.56,49.24,557.58,54.82z"/>
	<circle class="st1" cx="544.69" cy="128.38" r="8.09"/>
	<path class="st1" d="M557.58,148.32v13.7c-0.01,3.79-2.13,7.26-5.51,9v15.22c0.14,4.07-3.05,7.49-7.12,7.63
		c-4.07,0.14-7.49-3.05-7.63-7.12c-0.01-0.17-0.01-0.34,0-0.5v-15.21c-3.38-1.74-5.5-5.21-5.52-9.01v-13.7
		c0.02-5.58,4.55-10.09,10.12-10.11h5.52C553.04,138.23,557.56,142.74,557.58,148.32z"/>
	<circle class="st1" cx="544.69" cy="221.88" r="8.09"/>
	<path class="st1" d="M557.58,241.82v13.7c-0.01,3.79-2.13,7.26-5.51,9v15.22c0.14,4.07-3.05,7.49-7.12,7.63
		c-4.07,0.14-7.49-3.05-7.63-7.12c-0.01-0.17-0.01-0.34,0-0.5v-15.21c-3.38-1.74-5.5-5.21-5.52-9.01v-13.7
		c0.02-5.58,4.55-10.09,10.12-10.11h5.52C553.04,231.73,557.56,236.25,557.58,241.82z"/>
	<circle class="st1" cx="544.69" cy="315.38" r="8.09"/>
	<path class="st1" d="M557.58,335.32v13.7c-0.01,3.79-2.13,7.26-5.51,9v15.22c0.14,4.07-3.05,7.49-7.12,7.63
		c-4.07,0.14-7.49-3.05-7.63-7.12c-0.01-0.17-0.01-0.34,0-0.5v-15.21c-3.38-1.74-5.5-5.21-5.52-9.01v-13.7
		c0.02-5.58,4.55-10.09,10.12-10.11h5.52C553.04,325.23,557.56,329.75,557.58,335.32z"/>
	<circle class="st1" cx="544.69" cy="408.88" r="8.09"/>
	<path class="st1" d="M557.58,428.83v13.7c-0.01,3.79-2.13,7.26-5.51,9v15.22c0.14,4.07-3.05,7.49-7.12,7.63
		c-4.07,0.14-7.49-3.05-7.63-7.12c-0.01-0.17-0.01-0.34,0-0.5v-15.21c-3.38-1.74-5.5-5.21-5.52-9.01v-13.7
		c0.02-5.58,4.55-10.09,10.12-10.11h5.52C553.04,418.73,557.56,423.25,557.58,428.83z"/>
	<circle class="st1" cx="544.69" cy="502.38" r="8.09"/>
	<path class="st1" d="M557.58,522.33v13.7c-0.01,3.79-2.13,7.26-5.51,9v15.22c0.14,4.07-3.05,7.49-7.12,7.63
		c-4.07,0.14-7.49-3.05-7.63-7.12c-0.01-0.17-0.01-0.34,0-0.5v-15.21c-3.38-1.74-5.5-5.21-5.52-9.01v-13.7
		c0.02-5.58,4.55-10.09,10.12-10.11h5.52C553.04,512.23,557.56,516.75,557.58,522.33z"/>
	<circle class="st2" cx="544.69" cy="595.88" r="8.09"/>
	<path class="st2" d="M557.58,615.83v13.7c-0.01,3.79-2.13,7.26-5.51,9v15.22c0.14,4.07-3.05,7.49-7.12,7.63s-7.49-3.05-7.63-7.12
		c-0.01-0.17-0.01-0.34,0-0.5v-15.21c-3.38-1.74-5.5-5.21-5.52-9.01v-13.7c0.02-5.58,4.55-10.09,10.12-10.11h5.52
		C553.04,605.73,557.56,610.25,557.58,615.83z"/>
	<circle class="st2" cx="544.69" cy="689.38" r="8.09"/>
	<path class="st2" d="M557.58,709.33v13.7c-0.01,3.79-2.13,7.26-5.51,9v15.22c0.14,4.07-3.05,7.49-7.12,7.63
		c-4.07,0.14-7.49-3.05-7.63-7.12c-0.01-0.17-0.01-0.34,0-0.5v-15.21c-3.38-1.74-5.5-5.21-5.52-9.01v-13.7
		c0.02-5.58,4.55-10.09,10.12-10.11h5.52C553.04,699.24,557.56,703.75,557.58,709.33z"/>
	<circle class="st2" cx="544.69" cy="782.88" r="8.09"/>
	<path class="st2" d="M557.58,802.83v13.7c-0.01,3.79-2.13,7.26-5.51,9v15.22c0.14,4.07-3.05,7.49-7.12,7.63s-7.49-3.05-7.63-7.12
		c-0.01-0.17-0.01-0.34,0-0.5v-15.21c-3.38-1.74-5.5-5.21-5.52-9.01v-13.7c0.02-5.58,4.55-10.09,10.12-10.11h5.52
		C553.04,792.74,557.56,797.25,557.58,802.83z"/>
	<circle class="st2" cx="544.69" cy="876.38" r="8.09"/>
	<path class="st2" d="M557.58,896.33v13.7c-0.01,3.79-2.13,7.26-5.51,9v15.22c0.14,4.07-3.05,7.49-7.12,7.63
		c-4.07,0.14-7.49-3.05-7.63-7.12c-0.01-0.17-0.01-0.34,0-0.5v-15.21c-3.38-1.74-5.5-5.21-5.52-9.01v-13.7
		c0.02-5.58,4.55-10.09,10.12-10.11h5.52C553.04,886.24,557.56,890.75,557.58,896.33z"/>
</g>
<g>
	<circle class="st1" cx="641.7" cy="34.88" r="8.09"/>
	<path class="st1" d="M654.58,54.82v13.7c-0.01,3.79-2.13,7.26-5.51,9v15.22c0.14,4.07-3.05,7.49-7.12,7.63
		c-4.07,0.14-7.49-3.05-7.63-7.12c-0.01-0.17-0.01-0.34,0-0.5V77.53c-3.38-1.74-5.5-5.21-5.52-9.01v-13.7
		c0.02-5.58,4.55-10.09,10.12-10.11h5.52C650.04,44.73,654.56,49.24,654.58,54.82z"/>
	<circle class="st1" cx="641.7" cy="128.38" r="8.09"/>
	<path class="st1" d="M654.58,148.32v13.7c-0.01,3.79-2.13,7.26-5.51,9v15.22c0.14,4.07-3.05,7.49-7.12,7.63
		c-4.07,0.14-7.49-3.05-7.63-7.12c-0.01-0.17-0.01-0.34,0-0.5v-15.21c-3.38-1.74-5.5-5.21-5.52-9.01v-13.7
		c0.02-5.58,4.55-10.09,10.12-10.11h5.52C650.04,138.23,654.56,142.74,654.58,148.32z"/>
	<circle class="st1" cx="641.7" cy="221.88" r="8.09"/>
	<path class="st1" d="M654.58,241.82v13.7c-0.01,3.79-2.13,7.26-5.51,9v15.22c0.14,4.07-3.05,7.49-7.12,7.63
		c-4.07,0.14-7.49-3.05-7.63-7.12c-0.01-0.17-0.01-0.34,0-0.5v-15.21c-3.38-1.74-5.5-5.21-5.52-9.01v-13.7
		c0.02-5.58,4.55-10.09,10.12-10.11h5.52C650.04,231.73,654.56,236.25,654.58,241.82z"/>
	<circle class="st1" cx="641.7" cy="315.38" r="8.09"/>
	<path class="st1" d="M654.58,335.32v13.7c-0.01,3.79-2.13,7.26-5.51,9v15.22c0.14,4.07-3.05,7.49-7.12,7.63
		c-4.07,0.14-7.49-3.05-7.63-7.12c-0.01-0.17-0.01-0.34,0-0.5v-15.21c-3.38-1.74-5.5-5.21-5.52-9.01v-13.7
		c0.02-5.58,4.55-10.09,10.12-10.11h5.52C650.04,325.23,654.56,329.75,654.58,335.32z"/>
	<circle class="st1" cx="641.7" cy="408.88" r="8.09"/>
	<path class="st1" d="M654.58,428.83v13.7c-0.01,3.79-2.13,7.26-5.51,9v15.22c0.14,4.07-3.05,7.49-7.12,7.63
		c-4.07,0.14-7.49-3.05-7.63-7.12c-0.01-0.17-0.01-0.34,0-0.5v-15.21c-3.38-1.74-5.5-5.21-5.52-9.01v-13.7
		c0.02-5.58,4.55-10.09,10.12-10.11h5.52C650.04,418.73,654.56,423.25,654.58,428.83z"/>
	<circle class="st2" cx="641.7" cy="502.38" r="8.09"/>
	<path class="st2" d="M654.58,522.33v13.7c-0.01,3.79-2.13,7.26-5.51,9v15.22c0.14,4.07-3.05,7.49-7.12,7.63
		c-4.07,0.14-7.49-3.05-7.63-7.12c-0.01-0.17-0.01-0.34,0-0.5v-15.21c-3.38-1.74-5.5-5.21-5.52-9.01v-13.7
		c0.02-5.58,4.55-10.09,10.12-10.11h5.52C650.04,512.23,654.56,516.75,654.58,522.33z"/>
	<circle class="st2" cx="641.7" cy="595.88" r="8.09"/>
	<path class="st2" d="M654.58,615.83v13.7c-0.01,3.79-2.13,7.26-5.51,9v15.22c0.14,4.07-3.05,7.49-7.12,7.63
		c-4.07,0.14-7.49-3.05-7.63-7.12c-0.01-0.17-0.01-0.34,0-0.5v-15.21c-3.38-1.74-5.5-5.21-5.52-9.01v-13.7
		c0.02-5.58,4.55-10.09,10.12-10.11h5.52C650.04,605.73,654.56,610.25,654.58,615.83z"/>
	<circle class="st2" cx="641.7" cy="689.38" r="8.09"/>
	<path class="st2" d="M654.58,709.33v13.7c-0.01,3.79-2.13,7.26-5.51,9v15.22c0.14,4.07-3.05,7.49-7.12,7.63
		c-4.07,0.14-7.49-3.05-7.63-7.12c-0.01-0.17-0.01-0.34,0-0.5v-15.21c-3.38-1.74-5.5-5.21-5.52-9.01v-13.7
		c0.02-5.58,4.55-10.09,10.12-10.11h5.52C650.04,699.24,654.56,703.75,654.58,709.33z"/>
	<circle class="st2" cx="641.7" cy="782.88" r="8.09"/>
	<path class="st2" d="M654.58,802.83v13.7c-0.01,3.79-2.13,7.26-5.51,9v15.22c0.14,4.07-3.05,7.49-7.12,7.63
		c-4.07,0.14-7.49-3.05-7.63-7.12c-0.01-0.17-0.01-0.34,0-0.5v-15.21c-3.38-1.74-5.5-5.21-5.52-9.01v-13.7
		c0.02-5.58,4.55-10.09,10.12-10.11h5.52C650.04,792.74,654.56,797.25,654.58,802.83z"/>
	<circle class="st2" cx="641.7" cy="876.38" r="8.09"/>
	<path class="st2" d="M654.58,896.33v13.7c-0.01,3.79-2.13,7.26-5.51,9v15.22c0.14,4.07-3.05,7.49-7.12,7.63
		c-4.07,0.14-7.49-3.05-7.63-7.12c-0.01-0.17-0.01-0.34,0-0.5v-15.21c-3.38-1.74-5.5-5.21-5.52-9.01v-13.7
		c0.02-5.58,4.55-10.09,10.12-10.11h5.52C650.04,886.24,654.56,890.75,654.58,896.33z"/>
</g>
<g>
	<circle class="st1" cx="738.7" cy="34.88" r="8.09"/>
	<path class="st1" d="M751.59,54.82v13.7c-0.01,3.79-2.13,7.26-5.51,9v15.22c0.14,4.07-3.05,7.49-7.12,7.63s-7.49-3.05-7.63-7.12
		c-0.01-0.17-0.01-0.34,0-0.5V77.53c-3.38-1.74-5.5-5.21-5.52-9.01v-13.7c0.02-5.58,4.55-10.09,10.12-10.11h5.52
		C747.04,44.73,751.56,49.24,751.59,54.82z"/>
	<circle class="st1" cx="738.7" cy="128.38" r="8.09"/>
	<path class="st1" d="M751.59,148.32v13.7c-0.01,3.79-2.13,7.26-5.51,9v15.22c0.14,4.07-3.05,7.49-7.12,7.63
		c-4.07,0.14-7.49-3.05-7.63-7.12c-0.01-0.17-0.01-0.34,0-0.5v-15.21c-3.38-1.74-5.5-5.21-5.52-9.01v-13.7
		c0.02-5.58,4.55-10.09,10.12-10.11h5.52C747.04,138.23,751.56,142.74,751.59,148.32z"/>
	<circle class="st1" cx="738.7" cy="221.88" r="8.09"/>
	<path class="st1" d="M751.59,241.82v13.7c-0.01,3.79-2.13,7.26-5.51,9v15.22c0.14,4.07-3.05,7.49-7.12,7.63
		c-4.07,0.14-7.49-3.05-7.63-7.12c-0.01-0.17-0.01-0.34,0-0.5v-15.21c-3.38-1.74-5.5-5.21-5.52-9.01v-13.7
		c0.02-5.58,4.55-10.09,10.12-10.11h5.52C747.04,231.73,751.56,236.25,751.59,241.82z"/>
	<circle class="st1" cx="738.7" cy="315.38" r="8.09"/>
	<path class="st1" d="M751.59,335.32v13.7c-0.01,3.79-2.13,7.26-5.51,9v15.22c0.14,4.07-3.05,7.49-7.12,7.63
		c-4.07,0.14-7.49-3.05-7.63-7.12c-0.01-0.17-0.01-0.34,0-0.5v-15.21c-3.38-1.74-5.5-5.21-5.52-9.01v-13.7
		c0.02-5.58,4.55-10.09,10.12-10.11h5.52C747.04,325.23,751.56,329.75,751.59,335.32z"/>
	<circle class="st1" cx="738.7" cy="408.88" r="8.09"/>
	<path class="st1" d="M751.59,428.83v13.7c-0.01,3.79-2.13,7.26-5.51,9v15.22c0.14,4.07-3.05,7.49-7.12,7.63
		c-4.07,0.14-7.49-3.05-7.63-7.12c-0.01-0.17-0.01-0.34,0-0.5v-15.21c-3.38-1.74-5.5-5.21-5.52-9.01v-13.7
		c0.02-5.58,4.55-10.09,10.12-10.11h5.52C747.04,418.73,751.56,423.25,751.59,428.83z"/>
	<circle class="st2" cx="738.7" cy="502.38" r="8.09"/>
	<path class="st2" d="M751.59,522.33v13.7c-0.01,3.79-2.13,7.26-5.51,9v15.22c0.14,4.07-3.05,7.49-7.12,7.63
		c-4.07,0.14-7.49-3.05-7.63-7.12c-0.01-0.17-0.01-0.34,0-0.5v-15.21c-3.38-1.74-5.5-5.21-5.52-9.01v-13.7
		c0.02-5.58,4.55-10.09,10.12-10.11h5.52C747.04,512.23,751.56,516.75,751.59,522.33z"/>
	<circle class="st2" cx="738.7" cy="595.88" r="8.09"/>
	<path class="st2" d="M751.59,615.83v13.7c-0.01,3.79-2.13,7.26-5.51,9v15.22c0.14,4.07-3.05,7.49-7.12,7.63s-7.49-3.05-7.63-7.12
		c-0.01-0.17-0.01-0.34,0-0.5v-15.21c-3.38-1.74-5.5-5.21-5.52-9.01v-13.7c0.02-5.58,4.55-10.09,10.12-10.11h5.52
		C747.04,605.73,751.56,610.25,751.59,615.83z"/>
	<circle class="st2" cx="738.7" cy="689.38" r="8.09"/>
	<path class="st2" d="M751.59,709.33v13.7c-0.01,3.79-2.13,7.26-5.51,9v15.22c0.14,4.07-3.05,7.49-7.12,7.63
		c-4.07,0.14-7.49-3.05-7.63-7.12c-0.01-0.17-0.01-0.34,0-0.5v-15.21c-3.38-1.74-5.5-5.21-5.52-9.01v-13.7
		c0.02-5.58,4.55-10.09,10.12-10.11h5.52C747.04,699.24,751.56,703.75,751.59,709.33z"/>
	<circle class="st2" cx="738.7" cy="782.88" r="8.09"/>
	<path class="st2" d="M751.59,802.83v13.7c-0.01,3.79-2.13,7.26-5.51,9v15.22c0.14,4.07-3.05,7.49-7.12,7.63s-7.49-3.05-7.63-7.12
		c-0.01-0.17-0.01-0.34,0-0.5v-15.21c-3.38-1.74-5.5-5.21-5.52-9.01v-13.7c0.02-5.58,4.55-10.09,10.12-10.11h5.52
		C747.04,792.74,751.56,797.25,751.59,802.83z"/>
	<circle class="st2" cx="738.7" cy="876.38" r="8.09"/>
	<path class="st2" d="M751.59,896.33v13.7c-0.01,3.79-2.13,7.26-5.51,9v15.22c0.14,4.07-3.05,7.49-7.12,7.63
		c-4.07,0.14-7.49-3.05-7.63-7.12c-0.01-0.17-0.01-0.34,0-0.5v-15.21c-3.38-1.74-5.5-5.21-5.52-9.01v-13.7
		c0.02-5.58,4.55-10.09,10.12-10.11h5.52C747.04,886.24,751.56,890.75,751.59,896.33z"/>
</g>
<g>
	<circle class="st1" cx="835.71" cy="34.88" r="8.09"/>
	<path class="st1" d="M848.59,54.82v13.7c-0.01,3.79-2.13,7.26-5.51,9v15.22c0.14,4.07-3.05,7.49-7.12,7.63s-7.49-3.05-7.63-7.12
		c-0.01-0.17-0.01-0.34,0-0.5V77.53c-3.38-1.74-5.5-5.21-5.52-9.01v-13.7c0.02-5.58,4.55-10.09,10.12-10.11h5.52
		C844.05,44.73,848.57,49.24,848.59,54.82z"/>
	<circle class="st1" cx="835.71" cy="128.38" r="8.09"/>
	<path class="st1" d="M848.59,148.32v13.7c-0.01,3.79-2.13,7.26-5.51,9v15.22c0.14,4.07-3.05,7.49-7.12,7.63
		c-4.07,0.14-7.49-3.05-7.63-7.12c-0.01-0.17-0.01-0.34,0-0.5v-15.21c-3.38-1.74-5.5-5.21-5.52-9.01v-13.7
		c0.02-5.58,4.55-10.09,10.12-10.11h5.52C844.05,138.23,848.57,142.74,848.59,148.32z"/>
	<circle class="st1" cx="835.71" cy="221.88" r="8.09"/>
	<path class="st1" d="M848.59,241.82v13.7c-0.01,3.79-2.13,7.26-5.51,9v15.22c0.14,4.07-3.05,7.49-7.12,7.63
		c-4.07,0.14-7.49-3.05-7.63-7.12c-0.01-0.17-0.01-0.34,0-0.5v-15.21c-3.38-1.74-5.5-5.21-5.52-9.01v-13.7
		c0.02-5.58,4.55-10.09,10.12-10.11h5.52C844.05,231.73,848.57,236.25,848.59,241.82z"/>
	<circle class="st1" cx="835.71" cy="315.38" r="8.09"/>
	<path class="st1" d="M848.59,335.32v13.7c-0.01,3.79-2.13,7.26-5.51,9v15.22c0.14,4.07-3.05,7.49-7.12,7.63
		c-4.07,0.14-7.49-3.05-7.63-7.12c-0.01-0.17-0.01-0.34,0-0.5v-15.21c-3.38-1.74-5.5-5.21-5.52-9.01v-13.7
		c0.02-5.58,4.55-10.09,10.12-10.11h5.52C844.05,325.23,848.57,329.75,848.59,335.32z"/>
	<circle class="st1" cx="835.71" cy="408.88" r="8.09"/>
	<path class="st1" d="M848.59,428.83v13.7c-0.01,3.79-2.13,7.26-5.51,9v15.22c0.14,4.07-3.05,7.49-7.12,7.63
		c-4.07,0.14-7.49-3.05-7.63-7.12c-0.01-0.17-0.01-0.34,0-0.5v-15.21c-3.38-1.74-5.5-5.21-5.52-9.01v-13.7
		c0.02-5.58,4.55-10.09,10.12-10.11h5.52C844.05,418.73,848.57,423.25,848.59,428.83z"/>
	<circle class="st2" cx="835.71" cy="502.38" r="8.09"/>
	<path class="st2" d="M848.59,522.33v13.7c-0.01,3.79-2.13,7.26-5.51,9v15.22c0.14,4.07-3.05,7.49-7.12,7.63
		c-4.07,0.14-7.49-3.05-7.63-7.12c-0.01-0.17-0.01-0.34,0-0.5v-15.21c-3.38-1.74-5.5-5.21-5.52-9.01v-13.7
		c0.02-5.58,4.55-10.09,10.12-10.11h5.52C844.05,512.23,848.57,516.75,848.59,522.33z"/>
	<circle class="st2" cx="835.71" cy="595.88" r="8.09"/>
	<path class="st2" d="M848.59,615.83v13.7c-0.01,3.79-2.13,7.26-5.51,9v15.22c0.14,4.07-3.05,7.49-7.12,7.63s-7.49-3.05-7.63-7.12
		c-0.01-0.17-0.01-0.34,0-0.5v-15.21c-3.38-1.74-5.5-5.21-5.52-9.01v-13.7c0.02-5.58,4.55-10.09,10.12-10.11h5.52
		C844.05,605.73,848.57,610.25,848.59,615.83z"/>
	<circle class="st2" cx="835.71" cy="689.38" r="8.09"/>
	<path class="st2" d="M848.59,709.33v13.7c-0.01,3.79-2.13,7.26-5.51,9v15.22c0.14,4.07-3.05,7.49-7.12,7.63
		c-4.07,0.14-7.49-3.05-7.63-7.12c-0.01-0.17-0.01-0.34,0-0.5v-15.21c-3.38-1.74-5.5-5.21-5.52-9.01v-13.7
		c0.02-5.58,4.55-10.09,10.12-10.11h5.52C844.05,699.24,848.57,703.75,848.59,709.33z"/>
	<circle class="st2" cx="835.71" cy="782.88" r="8.09"/>
	<path class="st2" d="M848.59,802.83v13.7c-0.01,3.79-2.13,7.26-5.51,9v15.22c0.14,4.07-3.05,7.49-7.12,7.63s-7.49-3.05-7.63-7.12
		c-0.01-0.17-0.01-0.34,0-0.5v-15.21c-3.38-1.74-5.5-5.21-5.52-9.01v-13.7c0.02-5.58,4.55-10.09,10.12-10.11h5.52
		C844.05,792.74,848.57,797.25,848.59,802.83z"/>
	<circle class="st2" cx="835.71" cy="876.38" r="8.09"/>
	<path class="st2" d="M848.59,896.33v13.7c-0.01,3.79-2.13,7.26-5.51,9v15.22c0.14,4.07-3.05,7.49-7.12,7.63
		c-4.07,0.14-7.49-3.05-7.63-7.12c-0.01-0.17-0.01-0.34,0-0.5v-15.21c-3.38-1.74-5.5-5.21-5.52-9.01v-13.7
		c0.02-5.58,4.55-10.09,10.12-10.11h5.52C844.05,886.24,848.57,890.75,848.59,896.33z"/>
</g>
<g>
	<circle class="st1" cx="932.71" cy="34.88" r="8.09"/>
	<path class="st1" d="M945.59,54.82v13.7c-0.01,3.79-2.13,7.26-5.51,9v15.22c0.14,4.07-3.05,7.49-7.12,7.63s-7.49-3.05-7.63-7.12
		c-0.01-0.17-0.01-0.34,0-0.5V77.53c-3.38-1.74-5.5-5.21-5.52-9.01v-13.7c0.02-5.58,4.55-10.09,10.12-10.11h5.52
		C941.05,44.73,945.57,49.24,945.59,54.82z"/>
	<circle class="st1" cx="932.71" cy="128.38" r="8.09"/>
	<path class="st1" d="M945.59,148.32v13.7c-0.01,3.79-2.13,7.26-5.51,9v15.22c0.14,4.07-3.05,7.49-7.12,7.63
		c-4.07,0.14-7.49-3.05-7.63-7.12c-0.01-0.17-0.01-0.34,0-0.5v-15.21c-3.38-1.74-5.5-5.21-5.52-9.01v-13.7
		c0.02-5.58,4.55-10.09,10.12-10.11h5.52C941.05,138.23,945.57,142.74,945.59,148.32z"/>
	<circle class="st1" cx="932.71" cy="221.88" r="8.09"/>
	<path class="st1" d="M945.59,241.82v13.7c-0.01,3.79-2.13,7.26-5.51,9v15.22c0.14,4.07-3.05,7.49-7.12,7.63
		c-4.07,0.14-7.49-3.05-7.63-7.12c-0.01-0.17-0.01-0.34,0-0.5v-15.21c-3.38-1.74-5.5-5.21-5.52-9.01v-13.7
		c0.02-5.58,4.55-10.09,10.12-10.11h5.52C941.05,231.73,945.57,236.25,945.59,241.82z"/>
	<circle class="st1" cx="932.71" cy="315.38" r="8.09"/>
	<path class="st1" d="M945.59,335.32v13.7c-0.01,3.79-2.13,7.26-5.51,9v15.22c0.14,4.07-3.05,7.49-7.12,7.63
		c-4.07,0.14-7.49-3.05-7.63-7.12c-0.01-0.17-0.01-0.34,0-0.5v-15.21c-3.38-1.74-5.5-5.21-5.52-9.01v-13.7
		c0.02-5.58,4.55-10.09,10.12-10.11h5.52C941.05,325.23,945.57,329.75,945.59,335.32z"/>
	<circle class="st1" cx="932.71" cy="408.88" r="8.09"/>
	<path class="st1" d="M945.59,428.83v13.7c-0.01,3.79-2.13,7.26-5.51,9v15.22c0.14,4.07-3.05,7.49-7.12,7.63
		c-4.07,0.14-7.49-3.05-7.63-7.12c-0.01-0.17-0.01-0.34,0-0.5v-15.21c-3.38-1.74-5.5-5.21-5.52-9.01v-13.7
		c0.02-5.58,4.55-10.09,10.12-10.11h5.52C941.05,418.73,945.57,423.25,945.59,428.83z"/>
	<circle class="st2" cx="932.71" cy="502.38" r="8.09"/>
	<path class="st2" d="M945.59,522.33v13.7c-0.01,3.79-2.13,7.26-5.51,9v15.22c0.14,4.07-3.05,7.49-7.12,7.63
		c-4.07,0.14-7.49-3.05-7.63-7.12c-0.01-0.17-0.01-0.34,0-0.5v-15.21c-3.38-1.74-5.5-5.21-5.52-9.01v-13.7
		c0.02-5.58,4.55-10.09,10.12-10.11h5.52C941.05,512.23,945.57,516.75,945.59,522.33z"/>
	<circle class="st2" cx="932.71" cy="595.88" r="8.09"/>
	<path class="st2" d="M945.59,615.83v13.7c-0.01,3.79-2.13,7.26-5.51,9v15.22c0.14,4.07-3.05,7.49-7.12,7.63s-7.49-3.05-7.63-7.12
		c-0.01-0.17-0.01-0.34,0-0.5v-15.21c-3.38-1.74-5.5-5.21-5.52-9.01v-13.7c0.02-5.58,4.55-10.09,10.12-10.11h5.52
		C941.05,605.73,945.57,610.25,945.59,615.83z"/>
	<circle class="st2" cx="932.71" cy="689.38" r="8.09"/>
	<path class="st2" d="M945.59,709.33v13.7c-0.01,3.79-2.13,7.26-5.51,9v15.22c0.14,4.07-3.05,7.49-7.12,7.63
		c-4.07,0.14-7.49-3.05-7.63-7.12c-0.01-0.17-0.01-0.34,0-0.5v-15.21c-3.38-1.74-5.5-5.21-5.52-9.01v-13.7
		c0.02-5.58,4.55-10.09,10.12-10.11h5.52C941.05,699.24,945.57,703.75,945.59,709.33z"/>
	<circle class="st2" cx="932.71" cy="782.88" r="8.09"/>
	<path class="st2" d="M945.59,802.83v13.7c-0.01,3.79-2.13,7.26-5.51,9v15.22c0.14,4.07-3.05,7.49-7.12,7.63s-7.49-3.05-7.63-7.12
		c-0.01-0.17-0.01-0.34,0-0.5v-15.21c-3.38-1.74-5.5-5.21-5.52-9.01v-13.7c0.02-5.58,4.55-10.09,10.12-10.11h5.52
		C941.05,792.74,945.57,797.25,945.59,802.83z"/>
	<circle class="st2" cx="932.71" cy="876.38" r="8.09"/>
	<path class="st2" d="M945.59,896.33v13.7c-0.01,3.79-2.13,7.26-5.51,9v15.22c0.14,4.07-3.05,7.49-7.12,7.63
		c-4.07,0.14-7.49-3.05-7.63-7.12c-0.01-0.17-0.01-0.34,0-0.5v-15.21c-3.38-1.74-5.5-5.21-5.52-9.01v-13.7
		c0.02-5.58,4.55-10.09,10.12-10.11h5.52C941.05,886.24,945.57,890.75,945.59,896.33z"/>
</g>
<g>
	<g>
		<path class="st3" d="M421.61,982.32v-4.08h20.8v4.08h-9.1l1.06-1.08v22.96h-4.72v-22.96l1.06,1.08H421.61z"/>
		<path class="st3" d="M453.59,1004.76c-1.65,0-3.17-0.43-4.54-1.28c-1.37-0.85-2.47-2.05-3.3-3.59c-0.83-1.54-1.24-3.34-1.24-5.41
			c0-2.13,0.41-3.97,1.23-5.5c0.82-1.53,1.92-2.71,3.29-3.52c1.37-0.81,2.89-1.22,4.56-1.22c1.55,0,2.88,0.31,4.01,0.93
			c1.13,0.62,2.03,1.46,2.72,2.52c0.69,1.06,1.15,2.26,1.39,3.59c0.24,1.33,0.25,2.71,0.04,4.12h-13.48v-2.56h10.14l-0.92,0.6
			c0.04-0.63,0.01-1.26-0.09-1.9c-0.1-0.64-0.29-1.23-0.57-1.76c-0.28-0.53-0.68-0.96-1.19-1.29c-0.51-0.33-1.17-0.49-1.97-0.49
			c-0.96,0-1.77,0.24-2.44,0.72c-0.67,0.48-1.17,1.13-1.52,1.96c-0.35,0.83-0.52,1.76-0.52,2.8v1.88c0,1.09,0.16,2.06,0.49,2.9
			c0.33,0.84,0.81,1.5,1.46,1.98c0.65,0.48,1.46,0.72,2.45,0.72c0.92,0,1.69-0.21,2.32-0.64c0.63-0.43,1.03-1.07,1.2-1.92h4.76
			c-0.2,1.25-0.67,2.36-1.41,3.31c-0.74,0.95-1.7,1.7-2.87,2.24S455.08,1004.76,453.59,1004.76z M451.95,981.92l-2.26-1.84
			l7.48-7.46l3.16,2.56L451.95,981.92z"/>
		<path class="st3" d="M474.91,1004.76c-1.63,0-3.14-0.42-4.53-1.27c-1.39-0.85-2.52-2.04-3.38-3.58s-1.29-3.35-1.29-5.43
			c0-2.2,0.43-4.06,1.29-5.59c0.86-1.53,1.99-2.68,3.38-3.47c1.39-0.79,2.9-1.18,4.53-1.18c1.27,0,2.38,0.2,3.35,0.61
			c0.97,0.41,1.79,0.95,2.47,1.64c0.68,0.69,1.21,1.45,1.6,2.29s0.63,1.69,0.74,2.54l-4.76,0.12c-0.21-0.85-0.61-1.56-1.19-2.12
			c-0.58-0.56-1.33-0.84-2.25-0.84c-0.76,0-1.47,0.21-2.14,0.63c-0.67,0.42-1.21,1.07-1.63,1.95s-0.63,2.02-0.63,3.42
			c0,1.33,0.2,2.44,0.59,3.33c0.39,0.89,0.92,1.55,1.59,2c0.67,0.45,1.41,0.67,2.22,0.67c1.2,0,2.07-0.29,2.62-0.87
			c0.55-0.58,0.82-1.36,0.82-2.33h4.76c0,1.37-0.31,2.63-0.94,3.76c-0.63,1.13-1.55,2.04-2.76,2.71
			C478.16,1004.42,476.67,1004.76,474.91,1004.76z"/>
		<path class="st3" d="M488.73,1004.2v-19.4h4.12l0.6,3.84v15.56H488.73z M502.05,1004.2v-11.36c0-1.44-0.35-2.53-1.04-3.26
			s-1.6-1.1-2.72-1.1c-0.95,0-1.78,0.26-2.51,0.78c-0.73,0.52-1.3,1.3-1.71,2.35c-0.41,1.05-0.62,2.35-0.62,3.91h-1.56
			c0-2.52,0.31-4.62,0.94-6.29c0.63-1.67,1.51-2.92,2.66-3.75c1.15-0.83,2.49-1.24,4.04-1.24c1.6,0,2.94,0.36,4.01,1.07
			c1.07,0.71,1.88,1.72,2.42,3.01s0.81,2.8,0.81,4.52v11.36H502.05z"/>
		<path class="st3" d="M516.41,981.24c-0.92,0-1.64-0.24-2.15-0.73c-0.51-0.49-0.77-1.16-0.77-2.03c0-0.84,0.26-1.51,0.77-2.01
			s1.23-0.75,2.15-0.75c0.89,0,1.6,0.25,2.13,0.75s0.79,1.17,0.79,2.01c0,0.87-0.26,1.54-0.79,2.03
			C518.01,981,517.3,981.24,516.41,981.24z M514.05,1004.2v-19.48h4.72v19.48H514.05z"/>
		<path class="st3" d="M534.13,1004.76c-1.63,0-3.14-0.42-4.53-1.27c-1.39-0.85-2.52-2.04-3.38-3.58s-1.29-3.35-1.29-5.43
			c0-2.2,0.43-4.06,1.29-5.59c0.86-1.53,1.99-2.68,3.38-3.47c1.39-0.79,2.9-1.18,4.53-1.18c1.27,0,2.38,0.2,3.35,0.61
			c0.97,0.41,1.79,0.95,2.47,1.64c0.68,0.69,1.21,1.45,1.6,2.29s0.63,1.69,0.74,2.54l-4.76,0.12c-0.21-0.85-0.61-1.56-1.19-2.12
			c-0.58-0.56-1.33-0.84-2.25-0.84c-0.76,0-1.47,0.21-2.14,0.63c-0.67,0.42-1.21,1.07-1.63,1.95s-0.63,2.02-0.63,3.42
			c0,1.33,0.2,2.44,0.59,3.33c0.39,0.89,0.92,1.55,1.59,2c0.67,0.45,1.41,0.67,2.22,0.67c1.2,0,2.07-0.29,2.62-0.87
			c0.55-0.58,0.82-1.36,0.82-2.33h4.76c0,1.37-0.31,2.63-0.94,3.76c-0.63,1.13-1.55,2.04-2.76,2.71S535.89,1004.76,534.13,1004.76z"
			/>
		<path class="st3" d="M553.95,1004.76c-1.67,0-3.06-0.29-4.17-0.87c-1.11-0.58-1.95-1.34-2.51-2.29c-0.56-0.95-0.84-1.97-0.84-3.08
			c0-1.23,0.32-2.26,0.97-3.09c0.65-0.83,1.56-1.46,2.75-1.88s2.59-0.63,4.2-0.63c1.05,0,2.05,0.08,2.99,0.24
			c0.94,0.16,1.88,0.37,2.81,0.64v2.76c-0.73-0.24-1.53-0.43-2.4-0.56c-0.87-0.13-1.68-0.2-2.44-0.2c-1.12,0-2.04,0.21-2.76,0.62
			c-0.72,0.41-1.08,1.11-1.08,2.1c0,0.72,0.29,1.34,0.88,1.86c0.59,0.52,1.52,0.78,2.8,0.78c0.97,0,1.8-0.21,2.48-0.64
			c0.68-0.43,1.2-0.96,1.55-1.6c0.35-0.64,0.53-1.28,0.53-1.92h1.12c0,1.4-0.26,2.69-0.78,3.87c-0.52,1.18-1.29,2.12-2.31,2.83
			C556.72,1004.41,555.46,1004.76,553.95,1004.76z M560.31,1004.2l-0.6-4.72v-7.8c0-1.36-0.28-2.37-0.83-3.02
			c-0.55-0.65-1.49-0.98-2.81-0.98c-0.76,0-1.42,0.11-1.98,0.34c-0.56,0.23-0.99,0.55-1.29,0.97c-0.3,0.42-0.45,0.93-0.45,1.53
			h-5.16c0-1.47,0.35-2.66,1.06-3.59c0.71-0.93,1.72-1.61,3.05-2.04c1.33-0.43,2.92-0.65,4.77-0.65c1.68,0,3.15,0.27,4.4,0.81
			c1.25,0.54,2.23,1.37,2.92,2.49c0.69,1.12,1.04,2.55,1.04,4.3v12.36H560.31z"/>
	</g>
</g>
</svg>
