<?xml version="1.0" encoding="utf-8"?>
<!-- Generator: Adobe Illustrator 24.0.2, SVG Export Plug-In . SVG Version: 6.00 Build 0)  -->
<svg version="1.1" id="Capa_1" xmlns="http://www.w3.org/2000/svg" xmlns:xlink="http://www.w3.org/1999/xlink" x="0px" y="0px"
	 viewBox="0 0 957 334" style="enable-background:new 0 0 957 334;" xml:space="preserve">
<style type="text/css">
	.st0{fill:#7A7980;}
	.st1{fill:none;}
	.st2{fill:#FFFFFF;}
	.st3{fill:#7A7980;stroke:#7A7980;stroke-miterlimit:10;}
</style>
<g>
	<path class="st0" d="M844.12,320H63.88C39.09,320,19,299.91,19,275.12V75.88C19,51.09,39.09,31,63.88,31h780.24
		C868.91,31,889,51.09,889,75.88v199.24C889,299.91,868.91,320,844.12,320z"/>
</g>
<rect x="72.24" y="73.81" class="st1" width="764.56" height="208.86"/>
<g>
	<g>
		<path class="st2" d="M50.23,91.37v-3.2h19.58v3.2h-8.77l0.84-0.86v22.5h-3.71v-22.5l0.82,0.86H50.23z"/>
		<path class="st2" d="M73.83,113.01V94.19h3.7v18.82H73.83z M76.52,104.63c0-2.41,0.25-4.4,0.75-6c0.5-1.59,1.2-2.78,2.11-3.56
			c0.9-0.78,1.97-1.17,3.19-1.17c0.36,0,0.71,0.03,1.02,0.08c0.32,0.05,0.63,0.12,0.95,0.21l-0.14,3.69
			c-0.35-0.09-0.73-0.17-1.14-0.24c-0.41-0.07-0.78-0.11-1.12-0.11c-1.07,0-1.94,0.28-2.61,0.85c-0.68,0.57-1.18,1.38-1.5,2.44
			c-0.33,1.06-0.49,2.33-0.49,3.81H76.52z"/>
		<path class="st2" d="M93.91,113.52c-1.57,0-2.88-0.28-3.92-0.83c-1.04-0.55-1.82-1.28-2.33-2.17c-0.51-0.9-0.77-1.85-0.77-2.87
			c0-1.24,0.31-2.25,0.95-3.05c0.63-0.8,1.5-1.39,2.62-1.79c1.12-0.39,2.4-0.58,3.86-0.58c1,0,1.98,0.09,2.93,0.27
			c0.95,0.18,1.88,0.42,2.81,0.72v2.24c-0.75-0.27-1.59-0.49-2.51-0.65c-0.92-0.16-1.77-0.24-2.56-0.24c-1.18,0-2.17,0.23-2.96,0.7
			c-0.79,0.47-1.19,1.26-1.19,2.38c0,0.82,0.31,1.52,0.94,2.12c0.62,0.59,1.61,0.89,2.96,0.89c0.99,0,1.86-0.22,2.61-0.67
			s1.34-1.01,1.76-1.69c0.42-0.68,0.62-1.35,0.62-2.03h0.9c0,1.3-0.26,2.5-0.79,3.6s-1.29,1.98-2.29,2.65
			C96.54,113.18,95.33,113.52,93.91,113.52z M100.19,113.01l-0.47-4.31v-7.82c0-1.53-0.32-2.65-0.96-3.34
			c-0.64-0.7-1.65-1.04-3.02-1.04c-0.78,0-1.47,0.11-2.08,0.34c-0.6,0.23-1.08,0.57-1.42,1.02c-0.34,0.46-0.52,1.03-0.52,1.72h-4.1
			c0-1.38,0.34-2.5,1.01-3.35c0.68-0.86,1.62-1.48,2.84-1.88c1.22-0.4,2.64-0.59,4.26-0.59c1.52,0,2.86,0.25,4.02,0.75
			s2.06,1.28,2.7,2.35c0.64,1.07,0.97,2.44,0.97,4.13v12.03H100.19z"/>
		<path class="st2" d="M110.47,113.01V86.35h3.7v22.15l-1.19,4.5H110.47z M119.5,113.52c-1.22,0-2.33-0.33-3.32-0.98
			c-0.99-0.66-1.79-1.63-2.38-2.92c-0.59-1.29-0.89-2.87-0.89-4.74h1.27c0,1.09,0.24,2.03,0.71,2.83c0.47,0.79,1.08,1.4,1.82,1.82
			s1.51,0.63,2.32,0.63c0.96,0,1.83-0.27,2.6-0.8s1.39-1.3,1.85-2.29c0.46-0.99,0.69-2.17,0.69-3.52c0-1.34-0.23-2.49-0.68-3.46
			c-0.46-0.97-1.07-1.72-1.85-2.24c-0.78-0.53-1.66-0.79-2.65-0.79c-0.83,0-1.62,0.2-2.35,0.6s-1.33,1-1.78,1.78
			c-0.46,0.79-0.68,1.75-0.68,2.88h-1.27c0-1.83,0.29-3.39,0.86-4.66c0.57-1.27,1.37-2.25,2.39-2.92c1.02-0.67,2.22-1,3.6-1
			c1.49,0,2.86,0.4,4.1,1.2c1.24,0.8,2.24,1.93,2.98,3.4c0.75,1.47,1.12,3.21,1.12,5.21c0,2.01-0.38,3.77-1.15,5.25
			c-0.77,1.49-1.79,2.65-3.07,3.47C122.46,113.11,121.04,113.52,119.5,113.52z"/>
		<path class="st2" d="M139.41,113.52c-1.57,0-2.88-0.28-3.92-0.83c-1.04-0.55-1.82-1.28-2.33-2.17c-0.51-0.9-0.77-1.85-0.77-2.87
			c0-1.24,0.31-2.25,0.95-3.05c0.63-0.8,1.5-1.39,2.62-1.79c1.12-0.39,2.4-0.58,3.86-0.58c1,0,1.98,0.09,2.93,0.27
			c0.95,0.18,1.88,0.42,2.81,0.72v2.24c-0.75-0.27-1.59-0.49-2.51-0.65c-0.92-0.16-1.77-0.24-2.56-0.24c-1.18,0-2.17,0.23-2.96,0.7
			c-0.79,0.47-1.19,1.26-1.19,2.38c0,0.82,0.31,1.52,0.94,2.12c0.62,0.59,1.61,0.89,2.96,0.89c0.99,0,1.86-0.22,2.61-0.67
			s1.34-1.01,1.76-1.69c0.42-0.68,0.62-1.35,0.62-2.03h0.9c0,1.3-0.26,2.5-0.79,3.6s-1.29,1.98-2.29,2.65
			C142.03,113.18,140.82,113.52,139.41,113.52z M145.69,113.01l-0.47-4.31v-7.82c0-1.53-0.32-2.65-0.96-3.34
			c-0.64-0.7-1.65-1.04-3.02-1.04c-0.78,0-1.47,0.11-2.08,0.34c-0.6,0.23-1.08,0.57-1.42,1.02c-0.34,0.46-0.52,1.03-0.52,1.72h-4.1
			c0-1.38,0.34-2.5,1.01-3.35c0.68-0.86,1.62-1.48,2.84-1.88c1.22-0.4,2.64-0.59,4.26-0.59c1.52,0,2.86,0.25,4.02,0.75
			s2.06,1.28,2.7,2.35c0.64,1.07,0.97,2.44,0.97,4.13v12.03H145.69z"/>
		<path class="st2" d="M154.3,122.68c-0.95,0-1.85-0.11-2.7-0.34c-0.85-0.23-1.73-0.56-2.62-1l0.12-3.2
			c0.73,0.38,1.46,0.69,2.18,0.94s1.47,0.37,2.22,0.37c1.03,0,1.82-0.32,2.38-0.95c0.56-0.63,0.84-1.65,0.84-3.05V94.17h3.69v21.31
			c0,2.57-0.55,4.42-1.66,5.53C157.64,122.13,156.16,122.68,154.3,122.68z M158.54,90.26c-0.73,0-1.3-0.21-1.73-0.61
			c-0.42-0.41-0.63-0.97-0.63-1.67c0-0.68,0.21-1.21,0.63-1.61c0.42-0.4,1-0.59,1.73-0.59s1.31,0.2,1.74,0.59
			c0.43,0.4,0.64,0.93,0.64,1.61c0,0.7-0.21,1.26-0.64,1.67C159.84,90.05,159.26,90.26,158.54,90.26z"/>
		<path class="st2" d="M175.6,113.52c-1.7,0-3.23-0.37-4.57-1.11c-1.35-0.74-2.41-1.85-3.19-3.32c-0.78-1.47-1.17-3.28-1.17-5.44
			c0-2.2,0.39-4.03,1.17-5.49c0.78-1.46,1.84-2.56,3.19-3.3c1.35-0.74,2.87-1.11,4.57-1.11c1.68,0,3.19,0.37,4.52,1.11
			c1.34,0.74,2.4,1.84,3.17,3.3c0.77,1.46,1.16,3.29,1.16,5.49c0,2.16-0.39,3.97-1.16,5.44c-0.77,1.47-1.83,2.57-3.17,3.32
			C178.78,113.15,177.27,113.52,175.6,113.52z M175.48,110.28c1.08,0,2.01-0.26,2.8-0.78c0.79-0.52,1.39-1.28,1.81-2.27
			c0.42-1,0.63-2.19,0.63-3.58c0-2.13-0.43-3.78-1.3-4.95c-0.86-1.17-2.11-1.76-3.73-1.76c-1.09,0-2.03,0.26-2.82,0.79
			s-1.39,1.29-1.81,2.28c-0.42,0.99-0.63,2.21-0.63,3.64c0,2.09,0.44,3.72,1.31,4.88C172.61,109.7,173.85,110.28,175.48,110.28z"/>
		<path class="st2" d="M206.43,113.52c-1.61,0-3.07-0.42-4.37-1.25c-1.3-0.83-2.33-1.99-3.09-3.47c-0.76-1.48-1.14-3.2-1.14-5.15
			c0-2.07,0.38-3.84,1.13-5.31c0.75-1.48,1.78-2.61,3.08-3.4c1.3-0.79,2.76-1.19,4.39-1.19c1.46,0,2.7,0.3,3.74,0.89
			c1.04,0.59,1.88,1.38,2.52,2.38c0.64,0.99,1.08,2.12,1.32,3.38c0.24,1.26,0.28,2.56,0.13,3.9h-13.34v-2.14h10.8l-0.9,0.58
			c0.04-0.7,0-1.4-0.11-2.11c-0.11-0.7-0.32-1.35-0.63-1.94s-0.75-1.07-1.32-1.42s-1.28-0.54-2.15-0.54c-1.09,0-2.01,0.27-2.74,0.82
			c-0.73,0.54-1.29,1.28-1.67,2.19c-0.38,0.92-0.57,1.92-0.57,3.01v1.5c0,1.21,0.18,2.28,0.55,3.22c0.36,0.94,0.91,1.67,1.63,2.21
			c0.72,0.54,1.63,0.81,2.74,0.81c1.08,0,1.97-0.25,2.68-0.76c0.71-0.51,1.15-1.27,1.32-2.28h3.78c-0.19,1.22-0.64,2.29-1.35,3.2
			c-0.7,0.91-1.6,1.62-2.7,2.12S207.82,113.52,206.43,113.52z"/>
		<path class="st2" d="M220,113.01V94.25h3.22l0.49,4.06v14.7H220z M233.14,113.01v-11c0-1.63-0.39-2.86-1.16-3.7
			s-1.82-1.26-3.13-1.26c-1.04,0-1.95,0.28-2.72,0.85s-1.37,1.39-1.79,2.48c-0.42,1.09-0.63,2.41-0.63,3.97h-1.33
			c0-2.3,0.3-4.24,0.89-5.81c0.59-1.57,1.44-2.77,2.54-3.58c1.1-0.81,2.43-1.22,3.98-1.22c1.51,0,2.79,0.34,3.83,1.01
			c1.05,0.68,1.84,1.63,2.39,2.88s0.82,2.7,0.82,4.38v11H233.14z"/>
		<path class="st2" d="M252.91,94.19h3.71v11.62c0,1.42,0.35,2.49,1.04,3.22c0.7,0.73,1.67,1.09,2.94,1.09c1.07,0,2-0.28,2.82-0.84
			c0.81-0.56,1.45-1.35,1.91-2.38s0.69-2.24,0.69-3.65h1.19c0,2.2-0.3,4.04-0.9,5.54c-0.6,1.5-1.44,2.63-2.52,3.4
			s-2.34,1.16-3.78,1.16c-1.38,0-2.6-0.25-3.68-0.76c-1.07-0.51-1.91-1.29-2.52-2.35c-0.6-1.06-0.91-2.43-0.91-4.1V94.19z
			 M266.02,94.19h3.72v18.82h-3.72V94.19z"/>
		<path class="st2" d="M277.35,113.01V94.25h3.22l0.49,4.06v14.7H277.35z M290.49,113.01v-11c0-1.63-0.39-2.86-1.16-3.7
			s-1.82-1.26-3.13-1.26c-1.04,0-1.95,0.28-2.72,0.85s-1.37,1.39-1.79,2.48c-0.42,1.09-0.63,2.41-0.63,3.97h-1.33
			c0-2.3,0.3-4.24,0.89-5.81c0.59-1.57,1.44-2.77,2.54-3.58c1.1-0.81,2.43-1.22,3.98-1.22c1.51,0,2.79,0.34,3.83,1.01
			c1.05,0.68,1.84,1.63,2.39,2.88s0.82,2.7,0.82,4.38v11H290.49z"/>
		<path class="st2" d="M306.69,113.52c-1.57,0-2.88-0.28-3.92-0.83c-1.04-0.55-1.82-1.28-2.33-2.17c-0.51-0.9-0.77-1.85-0.77-2.87
			c0-1.24,0.31-2.25,0.95-3.05c0.63-0.8,1.5-1.39,2.62-1.79c1.12-0.39,2.4-0.58,3.86-0.58c1,0,1.98,0.09,2.93,0.27
			c0.95,0.18,1.88,0.42,2.81,0.72v2.24c-0.75-0.27-1.59-0.49-2.51-0.65c-0.92-0.16-1.77-0.24-2.56-0.24c-1.18,0-2.17,0.23-2.96,0.7
			c-0.79,0.47-1.19,1.26-1.19,2.38c0,0.82,0.31,1.52,0.94,2.12c0.62,0.59,1.61,0.89,2.96,0.89c0.99,0,1.86-0.22,2.61-0.67
			s1.34-1.01,1.76-1.69c0.42-0.68,0.62-1.35,0.62-2.03h0.9c0,1.3-0.26,2.5-0.79,3.6s-1.29,1.98-2.29,2.65
			C309.32,113.18,308.11,113.52,306.69,113.52z M312.97,113.01l-0.47-4.31v-7.82c0-1.53-0.32-2.65-0.96-3.34
			c-0.64-0.7-1.65-1.04-3.02-1.04c-0.78,0-1.47,0.11-2.08,0.34c-0.6,0.23-1.08,0.57-1.42,1.02c-0.34,0.46-0.52,1.03-0.52,1.72h-4.1
			c0-1.38,0.34-2.5,1.01-3.35c0.68-0.86,1.62-1.48,2.84-1.88c1.22-0.4,2.64-0.59,4.26-0.59c1.52,0,2.86,0.25,4.02,0.75
			s2.06,1.28,2.7,2.35c0.64,1.07,0.97,2.44,0.97,4.13v12.03H312.97z"/>
		<path class="st2" d="M339.49,113.52c-1.61,0-3.07-0.42-4.37-1.25c-1.3-0.83-2.33-1.99-3.09-3.47c-0.76-1.48-1.14-3.2-1.14-5.15
			c0-2.07,0.38-3.84,1.13-5.31c0.75-1.48,1.78-2.61,3.08-3.4c1.3-0.79,2.76-1.19,4.39-1.19c1.46,0,2.7,0.3,3.74,0.89
			c1.04,0.59,1.88,1.38,2.52,2.38c0.64,0.99,1.08,2.12,1.32,3.38c0.24,1.26,0.28,2.56,0.13,3.9h-13.34v-2.14h10.8l-0.9,0.58
			c0.04-0.7,0-1.4-0.11-2.11c-0.11-0.7-0.32-1.35-0.63-1.94s-0.75-1.07-1.32-1.42s-1.28-0.54-2.15-0.54c-1.09,0-2.01,0.27-2.74,0.82
			c-0.73,0.54-1.29,1.28-1.67,2.19c-0.38,0.92-0.57,1.92-0.57,3.01v1.5c0,1.21,0.18,2.28,0.55,3.22c0.36,0.94,0.91,1.67,1.63,2.21
			c0.72,0.54,1.63,0.81,2.74,0.81c1.08,0,1.97-0.25,2.68-0.76c0.71-0.51,1.15-1.27,1.32-2.28h3.78c-0.19,1.22-0.64,2.29-1.35,3.2
			c-0.7,0.91-1.6,1.62-2.7,2.12S340.88,113.52,339.49,113.52z"/>
		<path class="st2" d="M353.06,113.01V94.25h3.22l0.41,3.53c0.6-1.31,1.42-2.31,2.47-3c1.05-0.69,2.28-1.03,3.69-1.03
			c1.51,0,2.79,0.34,3.83,1.01c1.05,0.68,1.84,1.63,2.39,2.88s0.82,2.7,0.82,4.38v11h-3.69v-11c0-1.63-0.39-2.86-1.16-3.7
			s-1.82-1.26-3.13-1.26c-1.04,0-1.95,0.28-2.72,0.85s-1.37,1.39-1.79,2.48c-0.42,1.09-0.63,2.41-0.63,3.97v8.66H353.06z
			 M379.06,113.01v-11c0-1.63-0.39-2.86-1.16-3.7s-1.81-1.26-3.11-1.26c-1.56,0-2.77,0.61-3.62,1.83s-1.28,2.98-1.28,5.26h-1.62
			c0-1.81,0.18-3.37,0.53-4.68c0.35-1.31,0.85-2.39,1.51-3.24c0.66-0.84,1.44-1.47,2.36-1.88c0.92-0.41,1.94-0.61,3.07-0.61
			c1.51,0,2.79,0.34,3.83,1.01c1.05,0.68,1.84,1.63,2.39,2.88c0.55,1.24,0.82,2.7,0.82,4.38v11H379.06z"/>
		<path class="st2" d="M389.76,122.22V94.25h3.06l0.64,4.5v23.46H389.76z M398.65,113.52c-1.36,0-2.55-0.31-3.55-0.93
			c-1-0.62-1.76-1.53-2.29-2.73c-0.53-1.2-0.79-2.69-0.79-4.48h1.44c0,1.03,0.22,1.9,0.66,2.6c0.44,0.71,1.02,1.25,1.75,1.62
			c0.72,0.37,1.49,0.55,2.31,0.55c0.86,0,1.69-0.24,2.51-0.73c0.81-0.49,1.48-1.22,2-2.19c0.52-0.98,0.78-2.18,0.78-3.63
			c0-1.38-0.23-2.55-0.69-3.53c-0.46-0.97-1.09-1.72-1.88-2.24s-1.68-0.78-2.67-0.78c-0.83,0-1.61,0.2-2.34,0.59
			c-0.73,0.4-1.31,0.98-1.75,1.74c-0.44,0.76-0.66,1.69-0.66,2.78h-1.44c0-1.88,0.3-3.45,0.91-4.7c0.6-1.25,1.42-2.18,2.45-2.8
			c1.03-0.62,2.16-0.93,3.41-0.93c1.47,0,2.85,0.39,4.13,1.18c1.29,0.79,2.33,1.91,3.13,3.38s1.2,3.24,1.2,5.3
			c0,2.07-0.4,3.84-1.21,5.32c-0.81,1.48-1.86,2.62-3.17,3.4C401.57,113.13,400.16,113.52,398.65,113.52z"/>
		<path class="st2" d="M412.99,113.01V94.19h3.7v18.82H412.99z M415.68,104.63c0-2.41,0.25-4.4,0.75-6c0.5-1.59,1.2-2.78,2.11-3.56
			c0.9-0.78,1.97-1.17,3.19-1.17c0.36,0,0.71,0.03,1.02,0.08c0.32,0.05,0.63,0.12,0.95,0.21l-0.14,3.69
			c-0.35-0.09-0.73-0.17-1.14-0.24c-0.41-0.07-0.78-0.11-1.12-0.11c-1.07,0-1.94,0.28-2.61,0.85c-0.68,0.57-1.18,1.38-1.5,2.44
			c-0.33,1.06-0.49,2.33-0.49,3.81H415.68z"/>
		<path class="st2" d="M434.32,113.52c-1.61,0-3.07-0.42-4.37-1.25c-1.3-0.83-2.33-1.99-3.09-3.47c-0.76-1.48-1.14-3.2-1.14-5.15
			c0-2.07,0.38-3.84,1.13-5.31c0.75-1.48,1.78-2.61,3.08-3.4c1.3-0.79,2.76-1.19,4.39-1.19c1.46,0,2.7,0.3,3.74,0.89
			c1.04,0.59,1.88,1.38,2.52,2.38c0.64,0.99,1.08,2.12,1.32,3.38c0.24,1.26,0.28,2.56,0.13,3.9h-13.34v-2.14h10.8l-0.9,0.58
			c0.04-0.7,0-1.4-0.11-2.11c-0.11-0.7-0.32-1.35-0.63-1.94s-0.75-1.07-1.32-1.42s-1.28-0.54-2.15-0.54c-1.09,0-2.01,0.27-2.74,0.82
			c-0.73,0.54-1.29,1.28-1.67,2.19c-0.38,0.92-0.57,1.92-0.57,3.01v1.5c0,1.21,0.18,2.28,0.55,3.22c0.36,0.94,0.91,1.67,1.63,2.21
			c0.72,0.54,1.63,0.81,2.74,0.81c1.08,0,1.97-0.25,2.68-0.76c0.71-0.51,1.15-1.27,1.32-2.28h3.78c-0.19,1.22-0.64,2.29-1.35,3.2
			c-0.7,0.91-1.6,1.62-2.7,2.12S435.71,113.52,434.32,113.52z"/>
		<path class="st2" d="M454.76,113.52c-1.82,0-3.35-0.26-4.6-0.77s-2.2-1.23-2.86-2.14c-0.66-0.92-1-1.99-1.02-3.23h3.49
			c0.05,1.08,0.48,1.88,1.3,2.4c0.81,0.52,1.91,0.78,3.31,0.78c0.74,0,1.41-0.12,2.02-0.35c0.6-0.23,1.08-0.55,1.44-0.96
			c0.36-0.4,0.54-0.86,0.54-1.37c0-0.64-0.23-1.14-0.7-1.51c-0.47-0.37-1.22-0.7-2.26-0.99l-3.84-1.31
			c-1.53-0.52-2.71-1.21-3.53-2.08c-0.82-0.86-1.23-1.9-1.23-3.11c0-1.55,0.69-2.79,2.07-3.73s3.2-1.41,5.48-1.41
			c2.35,0,4.17,0.5,5.45,1.49c1.28,0.99,1.95,2.24,2,3.73h-3.57c-0.09-0.74-0.46-1.31-1.1-1.71s-1.57-0.59-2.78-0.59
			c-1.13,0-2.02,0.25-2.66,0.74s-0.97,1.05-0.97,1.68c0,1.12,0.96,1.95,2.89,2.5l4.04,1.42c1.53,0.49,2.72,1.13,3.55,1.91
			c0.83,0.78,1.25,1.77,1.25,2.96c0,0.96-0.32,1.87-0.96,2.73c-0.64,0.86-1.53,1.56-2.68,2.1
			C457.65,113.25,456.3,113.52,454.76,113.52z"/>
		<path class="st2" d="M473.9,113.52c-1.57,0-2.88-0.28-3.92-0.83c-1.04-0.55-1.82-1.28-2.33-2.17c-0.51-0.9-0.77-1.85-0.77-2.87
			c0-1.24,0.31-2.25,0.95-3.05c0.63-0.8,1.5-1.39,2.62-1.79c1.12-0.39,2.4-0.58,3.86-0.58c1,0,1.98,0.09,2.93,0.27
			c0.95,0.18,1.88,0.42,2.81,0.72v2.24c-0.75-0.27-1.59-0.49-2.51-0.65c-0.92-0.16-1.77-0.24-2.56-0.24c-1.18,0-2.17,0.23-2.96,0.7
			c-0.79,0.47-1.19,1.26-1.19,2.38c0,0.82,0.31,1.52,0.94,2.12c0.62,0.59,1.61,0.89,2.96,0.89c0.99,0,1.86-0.22,2.61-0.67
			s1.34-1.01,1.76-1.69c0.42-0.68,0.62-1.35,0.62-2.03h0.9c0,1.3-0.26,2.5-0.79,3.6s-1.29,1.98-2.29,2.65
			C476.53,113.18,475.32,113.52,473.9,113.52z M480.18,113.01l-0.47-4.31v-7.82c0-1.53-0.32-2.65-0.96-3.34
			c-0.64-0.7-1.65-1.04-3.02-1.04c-0.78,0-1.47,0.11-2.08,0.34c-0.6,0.23-1.08,0.57-1.42,1.02c-0.34,0.46-0.52,1.03-0.52,1.72h-4.1
			c0-1.38,0.34-2.5,1.01-3.35c0.68-0.86,1.62-1.48,2.84-1.88c1.22-0.4,2.64-0.59,4.26-0.59c1.52,0,2.86,0.25,4.02,0.75
			s2.06,1.28,2.7,2.35c0.64,1.07,0.97,2.44,0.97,4.13v12.03H480.18z"/>
		<path class="st2" d="M506.8,113.52c-1.53,0-2.96-0.41-4.29-1.23c-1.33-0.82-2.39-1.97-3.2-3.45c-0.81-1.48-1.21-3.22-1.21-5.23
			c0-2.11,0.4-3.89,1.21-5.35c0.81-1.46,1.87-2.58,3.2-3.35c1.33-0.77,2.76-1.16,4.29-1.16c1.13,0,2.14,0.18,3.02,0.54
			c0.88,0.36,1.64,0.84,2.28,1.44c0.64,0.6,1.15,1.28,1.55,2.04c0.4,0.75,0.67,1.53,0.83,2.34l-3.76,0.2
			c-0.27-0.98-0.75-1.76-1.43-2.35c-0.68-0.59-1.52-0.89-2.53-0.89c-0.85,0-1.64,0.24-2.39,0.71s-1.35,1.2-1.81,2.17
			s-0.69,2.19-0.69,3.68c0,1.38,0.21,2.55,0.64,3.53c0.43,0.97,1.01,1.72,1.75,2.24c0.74,0.52,1.57,0.78,2.5,0.78
			c1.33,0,2.32-0.32,2.97-0.96c0.66-0.64,0.98-1.53,0.98-2.66h3.76c0,1.31-0.31,2.5-0.92,3.55c-0.61,1.05-1.49,1.89-2.64,2.5
			C509.77,113.21,508.4,113.52,506.8,113.52z"/>
		<path class="st2" d="M527.37,113.52c-1.7,0-3.23-0.37-4.57-1.11c-1.35-0.74-2.41-1.85-3.19-3.32c-0.78-1.47-1.17-3.28-1.17-5.44
			c0-2.2,0.39-4.03,1.17-5.49c0.78-1.46,1.84-2.56,3.19-3.3c1.35-0.74,2.87-1.11,4.57-1.11c1.68,0,3.19,0.37,4.52,1.11
			c1.34,0.74,2.4,1.84,3.17,3.3c0.77,1.46,1.16,3.29,1.16,5.49c0,2.16-0.39,3.97-1.16,5.44c-0.77,1.47-1.83,2.57-3.17,3.32
			C530.56,113.15,529.05,113.52,527.37,113.52z M527.26,110.28c1.08,0,2.01-0.26,2.8-0.78c0.79-0.52,1.39-1.28,1.81-2.27
			c0.42-1,0.63-2.19,0.63-3.58c0-2.13-0.43-3.78-1.3-4.95c-0.86-1.17-2.11-1.76-3.73-1.76c-1.09,0-2.03,0.26-2.82,0.79
			s-1.39,1.29-1.81,2.28c-0.42,0.99-0.63,2.21-0.63,3.64c0,2.09,0.44,3.72,1.31,4.88C524.38,109.7,525.63,110.28,527.26,110.28z"/>
		<path class="st2" d="M541.96,113.01V94.25h3.22l0.49,4.06v14.7H541.96z M555.1,113.01v-11c0-1.63-0.39-2.86-1.16-3.7
			s-1.82-1.26-3.13-1.26c-1.04,0-1.95,0.28-2.72,0.85s-1.37,1.39-1.79,2.48c-0.42,1.09-0.63,2.41-0.63,3.97h-1.33
			c0-2.3,0.3-4.24,0.89-5.81c0.59-1.57,1.44-2.77,2.54-3.58c1.1-0.81,2.43-1.22,3.98-1.22c1.51,0,2.79,0.34,3.83,1.01
			c1.05,0.68,1.84,1.63,2.39,2.88s0.82,2.7,0.82,4.38v11H555.1z"/>
		<path class="st2" d="M574.87,94.19h3.71v11.62c0,1.42,0.35,2.49,1.04,3.22c0.7,0.73,1.67,1.09,2.94,1.09c1.07,0,2-0.28,2.82-0.84
			c0.81-0.56,1.45-1.35,1.91-2.38s0.69-2.24,0.69-3.65h1.19c0,2.2-0.3,4.04-0.9,5.54c-0.6,1.5-1.44,2.63-2.52,3.4
			s-2.34,1.16-3.78,1.16c-1.38,0-2.6-0.25-3.68-0.76c-1.07-0.51-1.91-1.29-2.52-2.35c-0.6-1.06-0.91-2.43-0.91-4.1V94.19z
			 M587.98,94.19h3.72v18.82h-3.72V94.19z"/>
		<path class="st2" d="M599.31,113.01V94.25h3.22l0.49,4.06v14.7H599.31z M612.45,113.01v-11c0-1.63-0.39-2.86-1.16-3.7
			s-1.82-1.26-3.13-1.26c-1.04,0-1.95,0.28-2.72,0.85s-1.37,1.39-1.79,2.48c-0.42,1.09-0.63,2.41-0.63,3.97h-1.33
			c0-2.3,0.3-4.24,0.89-5.81c0.59-1.57,1.44-2.77,2.54-3.58c1.1-0.81,2.43-1.22,3.98-1.22c1.51,0,2.79,0.34,3.83,1.01
			c1.05,0.68,1.84,1.63,2.39,2.88s0.82,2.7,0.82,4.38v11H612.45z"/>
		<path class="st2" d="M639.52,113.52c-1.53,0-2.96-0.41-4.29-1.23c-1.33-0.82-2.39-1.97-3.2-3.45c-0.81-1.48-1.21-3.22-1.21-5.23
			c0-2.11,0.4-3.89,1.21-5.35c0.81-1.46,1.87-2.58,3.2-3.35c1.33-0.77,2.76-1.16,4.29-1.16c1.13,0,2.14,0.18,3.02,0.54
			c0.88,0.36,1.64,0.84,2.28,1.44c0.64,0.6,1.15,1.28,1.55,2.04c0.4,0.75,0.67,1.53,0.83,2.34l-3.76,0.2
			c-0.27-0.98-0.75-1.76-1.43-2.35c-0.68-0.59-1.52-0.89-2.53-0.89c-0.85,0-1.64,0.24-2.39,0.71s-1.35,1.2-1.81,2.17
			s-0.69,2.19-0.69,3.68c0,1.38,0.21,2.55,0.64,3.53c0.43,0.97,1.01,1.72,1.75,2.24c0.74,0.52,1.57,0.78,2.5,0.78
			c1.33,0,2.32-0.32,2.97-0.96c0.66-0.64,0.98-1.53,0.98-2.66h3.76c0,1.31-0.31,2.5-0.92,3.55c-0.61,1.05-1.49,1.89-2.64,2.5
			C642.49,113.21,641.11,113.52,639.52,113.52z"/>
		<path class="st2" d="M660.09,113.52c-1.7,0-3.23-0.37-4.57-1.11c-1.35-0.74-2.41-1.85-3.19-3.32c-0.78-1.47-1.17-3.28-1.17-5.44
			c0-2.2,0.39-4.03,1.17-5.49c0.78-1.46,1.84-2.56,3.19-3.3c1.35-0.74,2.87-1.11,4.57-1.11c1.68,0,3.19,0.37,4.52,1.11
			c1.34,0.74,2.4,1.84,3.17,3.3c0.77,1.46,1.16,3.29,1.16,5.49c0,2.16-0.39,3.97-1.16,5.44c-0.77,1.47-1.83,2.57-3.17,3.32
			C663.27,113.15,661.77,113.52,660.09,113.52z M659.97,110.28c1.08,0,2.01-0.26,2.8-0.78c0.79-0.52,1.39-1.28,1.81-2.27
			c0.42-1,0.63-2.19,0.63-3.58c0-2.13-0.43-3.78-1.3-4.95c-0.86-1.17-2.11-1.76-3.73-1.76c-1.09,0-2.03,0.26-2.82,0.79
			s-1.39,1.29-1.81,2.28c-0.42,0.99-0.63,2.21-0.63,3.64c0,2.09,0.44,3.72,1.31,4.88C657.1,109.7,658.35,110.28,659.97,110.28z"/>
		<path class="st2" d="M674.67,113.01V94.25h3.22l0.41,3.53c0.6-1.31,1.42-2.31,2.47-3c1.05-0.69,2.28-1.03,3.69-1.03
			c1.51,0,2.79,0.34,3.83,1.01c1.05,0.68,1.84,1.63,2.39,2.88s0.82,2.7,0.82,4.38v11h-3.69v-11c0-1.63-0.39-2.86-1.16-3.7
			s-1.82-1.26-3.13-1.26c-1.04,0-1.95,0.28-2.72,0.85s-1.37,1.39-1.79,2.48c-0.42,1.09-0.63,2.41-0.63,3.97v8.66H674.67z
			 M700.67,113.01v-11c0-1.63-0.39-2.86-1.16-3.7s-1.81-1.26-3.11-1.26c-1.56,0-2.77,0.61-3.62,1.83s-1.28,2.98-1.28,5.26h-1.62
			c0-1.81,0.18-3.37,0.53-4.68c0.35-1.31,0.85-2.39,1.51-3.24c0.66-0.84,1.44-1.47,2.36-1.88c0.92-0.41,1.94-0.61,3.07-0.61
			c1.51,0,2.79,0.34,3.83,1.01c1.05,0.68,1.84,1.63,2.39,2.88c0.55,1.24,0.82,2.7,0.82,4.38v11H700.67z"/>
		<path class="st2" d="M711.37,122.22V94.25h3.06l0.64,4.5v23.46H711.37z M720.26,113.52c-1.36,0-2.55-0.31-3.55-0.93
			c-1-0.62-1.76-1.53-2.29-2.73c-0.53-1.2-0.79-2.69-0.79-4.48h1.44c0,1.03,0.22,1.9,0.66,2.6c0.44,0.71,1.02,1.25,1.75,1.62
			c0.72,0.37,1.49,0.55,2.31,0.55c0.86,0,1.69-0.24,2.51-0.73c0.81-0.49,1.48-1.22,2-2.19c0.52-0.98,0.78-2.18,0.78-3.63
			c0-1.38-0.23-2.55-0.69-3.53c-0.46-0.97-1.09-1.72-1.88-2.24s-1.68-0.78-2.67-0.78c-0.83,0-1.61,0.2-2.34,0.59
			c-0.73,0.4-1.31,0.98-1.75,1.74c-0.44,0.76-0.66,1.69-0.66,2.78h-1.44c0-1.88,0.3-3.45,0.91-4.7c0.6-1.25,1.42-2.18,2.45-2.8
			c1.03-0.62,2.16-0.93,3.41-0.93c1.47,0,2.85,0.39,4.13,1.18c1.29,0.79,2.33,1.91,3.13,3.38s1.2,3.24,1.2,5.3
			c0,2.07-0.4,3.84-1.21,5.32c-0.81,1.48-1.86,2.62-3.17,3.4C723.18,113.13,721.77,113.52,720.26,113.52z"/>
		<path class="st2" d="M740.08,113.52c-1.57,0-2.88-0.28-3.92-0.83c-1.04-0.55-1.82-1.28-2.33-2.17c-0.51-0.9-0.77-1.85-0.77-2.87
			c0-1.24,0.31-2.25,0.95-3.05c0.63-0.8,1.5-1.39,2.62-1.79c1.12-0.39,2.4-0.58,3.86-0.58c1,0,1.98,0.09,2.93,0.27
			c0.95,0.18,1.88,0.42,2.81,0.72v2.24c-0.75-0.27-1.59-0.49-2.51-0.65c-0.92-0.16-1.77-0.24-2.56-0.24c-1.18,0-2.17,0.23-2.96,0.7
			c-0.79,0.47-1.19,1.26-1.19,2.38c0,0.82,0.31,1.52,0.94,2.12c0.62,0.59,1.61,0.89,2.96,0.89c0.99,0,1.86-0.22,2.61-0.67
			s1.34-1.01,1.76-1.69c0.42-0.68,0.62-1.35,0.62-2.03h0.9c0,1.3-0.26,2.5-0.79,3.6s-1.29,1.98-2.29,2.65
			C742.7,113.18,741.49,113.52,740.08,113.52z M746.35,113.01l-0.47-4.31v-7.82c0-1.53-0.32-2.65-0.96-3.34
			c-0.64-0.7-1.65-1.04-3.02-1.04c-0.78,0-1.47,0.11-2.08,0.34c-0.6,0.23-1.08,0.57-1.42,1.02c-0.34,0.46-0.52,1.03-0.52,1.72h-4.1
			c0-1.38,0.34-2.5,1.01-3.35c0.68-0.86,1.62-1.48,2.84-1.88c1.22-0.4,2.64-0.59,4.26-0.59c1.52,0,2.86,0.25,4.02,0.75
			s2.06,1.28,2.7,2.35c0.64,1.07,0.97,2.44,0.97,4.13v12.03H746.35z"/>
		<path class="st2" d="M756.63,113.01V94.25h3.22l0.49,4.06v14.7H756.63z M760.28,91.04l-1.5-0.94c0.31-1.42,0.8-2.51,1.45-3.28
			c0.66-0.77,1.43-1.15,2.31-1.15c0.36,0,0.74,0.06,1.12,0.19c0.38,0.13,0.96,0.4,1.73,0.8c0.75,0.38,1.29,0.63,1.61,0.77
			c0.32,0.14,0.63,0.2,0.93,0.2c0.38,0,0.75-0.16,1.11-0.48c0.36-0.32,0.68-0.82,0.96-1.49l1.58,1.05
			c-0.18,0.87-0.46,1.63-0.84,2.27s-0.8,1.14-1.28,1.5s-0.95,0.54-1.43,0.54c-0.43,0-0.86-0.08-1.31-0.25s-1.07-0.46-1.87-0.88
			c-0.68-0.35-1.16-0.58-1.45-0.7c-0.29-0.12-0.58-0.18-0.85-0.18c-0.4,0-0.79,0.14-1.17,0.43
			C760.99,89.74,760.63,90.27,760.28,91.04z M769.77,113.01v-11c0-1.63-0.39-2.86-1.16-3.7s-1.82-1.26-3.13-1.26
			c-1.04,0-1.95,0.28-2.72,0.85s-1.37,1.39-1.79,2.48c-0.42,1.09-0.63,2.41-0.63,3.97h-1.33c0-2.3,0.3-4.24,0.89-5.81
			c0.59-1.57,1.44-2.77,2.54-3.58c1.1-0.81,2.43-1.22,3.98-1.22c1.51,0,2.79,0.34,3.83,1.01c1.05,0.68,1.84,1.63,2.39,2.88
			s0.82,2.7,0.82,4.38v11H769.77z"/>
		<path class="st2" d="M787.23,113.52c-1.61,0-3.07-0.42-4.37-1.25c-1.3-0.83-2.33-1.99-3.09-3.47c-0.76-1.48-1.14-3.2-1.14-5.15
			c0-2.07,0.38-3.84,1.13-5.31c0.75-1.48,1.78-2.61,3.08-3.4c1.3-0.79,2.76-1.19,4.39-1.19c1.46,0,2.7,0.3,3.74,0.89
			c1.04,0.59,1.88,1.38,2.52,2.38c0.64,0.99,1.08,2.12,1.32,3.38c0.24,1.26,0.28,2.56,0.13,3.9h-13.34v-2.14h10.8l-0.9,0.58
			c0.04-0.7,0-1.4-0.11-2.11c-0.11-0.7-0.32-1.35-0.63-1.94s-0.75-1.07-1.32-1.42s-1.28-0.54-2.15-0.54c-1.09,0-2.01,0.27-2.74,0.82
			c-0.73,0.54-1.29,1.28-1.67,2.19c-0.38,0.92-0.57,1.92-0.57,3.01v1.5c0,1.21,0.18,2.28,0.55,3.22c0.36,0.94,0.91,1.67,1.63,2.21
			c0.72,0.54,1.63,0.81,2.74,0.81c1.08,0,1.97-0.25,2.68-0.76c0.71-0.51,1.15-1.27,1.32-2.28h3.78c-0.19,1.22-0.64,2.29-1.35,3.2
			c-0.7,0.91-1.6,1.62-2.7,2.12S788.62,113.52,787.23,113.52z"/>
		<path class="st2" d="M800.8,113.01V94.19h3.7v18.82H800.8z M803.49,104.63c0-2.41,0.25-4.4,0.75-6c0.5-1.59,1.2-2.78,2.11-3.56
			c0.9-0.78,1.97-1.17,3.19-1.17c0.36,0,0.71,0.03,1.02,0.08c0.32,0.05,0.63,0.12,0.95,0.21l-0.14,3.69
			c-0.35-0.09-0.73-0.17-1.14-0.24c-0.41-0.07-0.78-0.11-1.12-0.11c-1.07,0-1.94,0.28-2.61,0.85c-0.68,0.57-1.18,1.38-1.5,2.44
			c-0.33,1.06-0.49,2.33-0.49,3.81H803.49z"/>
		<path class="st2" d="M822.46,113.52c-1.7,0-3.23-0.37-4.57-1.11c-1.35-0.74-2.41-1.85-3.19-3.32c-0.78-1.47-1.17-3.28-1.17-5.44
			c0-2.2,0.39-4.03,1.17-5.49c0.78-1.46,1.84-2.56,3.19-3.3c1.35-0.74,2.87-1.11,4.57-1.11c1.68,0,3.19,0.37,4.52,1.11
			c1.34,0.74,2.4,1.84,3.17,3.3c0.77,1.46,1.16,3.29,1.16,5.49c0,2.16-0.39,3.97-1.16,5.44c-0.77,1.47-1.83,2.57-3.17,3.32
			C825.65,113.15,824.14,113.52,822.46,113.52z M822.35,110.28c1.08,0,2.01-0.26,2.8-0.78c0.79-0.52,1.39-1.28,1.81-2.27
			c0.42-1,0.63-2.19,0.63-3.58c0-2.13-0.43-3.78-1.3-4.95c-0.86-1.17-2.11-1.76-3.73-1.76c-1.09,0-2.03,0.26-2.82,0.79
			s-1.39,1.29-1.81,2.28c-0.42,0.99-0.63,2.21-0.63,3.64c0,2.09,0.44,3.72,1.31,4.88C819.47,109.7,820.72,110.28,822.35,110.28z"/>
		<path class="st2" d="M60.61,160.32c-1.53,0-2.94-0.41-4.23-1.24c-1.29-0.83-2.31-1.98-3.07-3.47c-0.76-1.49-1.14-3.24-1.14-5.26
			c0-2,0.37-3.74,1.12-5.21c0.75-1.47,1.74-2.6,2.97-3.4c1.24-0.8,2.61-1.2,4.11-1.2c1.38,0,2.58,0.34,3.61,1s1.82,1.64,2.39,2.92
			c0.57,1.27,0.85,2.83,0.85,4.66h-1.29c0-1.13-0.23-2.09-0.68-2.88c-0.46-0.79-1.05-1.38-1.77-1.79c-0.73-0.4-1.51-0.6-2.34-0.6
			c-0.97,0-1.86,0.26-2.64,0.79c-0.79,0.53-1.41,1.27-1.87,2.24s-0.69,2.12-0.69,3.46c0,1.35,0.23,2.53,0.69,3.52
			c0.46,1,1.09,1.76,1.87,2.29c0.79,0.53,1.66,0.8,2.62,0.8c0.79,0,1.56-0.21,2.29-0.63c0.73-0.42,1.34-1.03,1.81-1.82
			s0.71-1.74,0.71-2.83h1.29c0,1.87-0.3,3.45-0.89,4.74c-0.59,1.29-1.39,2.26-2.39,2.92S61.83,160.32,60.61,160.32z M66.58,159.81
			l-0.64-4.5v-22.15h3.72v26.66H66.58z"/>
		<path class="st2" d="M83.99,160.32c-1.61,0-3.07-0.42-4.37-1.25c-1.3-0.83-2.33-1.99-3.09-3.47c-0.76-1.48-1.14-3.2-1.14-5.15
			c0-2.07,0.38-3.84,1.13-5.31s1.78-2.61,3.08-3.4c1.3-0.79,2.76-1.19,4.39-1.19c1.46,0,2.7,0.3,3.74,0.89
			c1.04,0.59,1.88,1.38,2.52,2.38c0.64,0.99,1.08,2.12,1.32,3.38c0.24,1.26,0.28,2.56,0.13,3.9H78.35v-2.15h10.8l-0.9,0.58
			c0.04-0.7,0-1.4-0.11-2.11c-0.11-0.7-0.32-1.35-0.63-1.94c-0.31-0.59-0.75-1.07-1.32-1.42s-1.28-0.54-2.15-0.54
			c-1.09,0-2.01,0.27-2.74,0.82c-0.73,0.55-1.29,1.28-1.67,2.19c-0.38,0.92-0.57,1.92-0.57,3.01v1.5c0,1.21,0.18,2.28,0.55,3.22
			c0.36,0.94,0.91,1.67,1.63,2.21c0.72,0.54,1.63,0.81,2.74,0.81c1.08,0,1.97-0.25,2.68-0.76c0.71-0.51,1.15-1.27,1.32-2.28h3.78
			c-0.19,1.22-0.64,2.29-1.35,3.2c-0.7,0.91-1.6,1.62-2.7,2.12C86.62,160.07,85.38,160.32,83.99,160.32z"/>
		<path class="st2" d="M107.08,159.81v-26.66h3.7v26.66H107.08z"/>
		<path class="st2" d="M123.88,160.32c-1.57,0-2.88-0.28-3.92-0.83c-1.04-0.55-1.82-1.28-2.33-2.17c-0.51-0.9-0.77-1.85-0.77-2.87
			c0-1.23,0.31-2.25,0.95-3.05c0.63-0.8,1.5-1.39,2.62-1.78c1.12-0.39,2.4-0.59,3.86-0.59c1,0,1.98,0.09,2.93,0.27
			c0.95,0.18,1.88,0.42,2.81,0.72v2.24c-0.75-0.27-1.59-0.49-2.51-0.65c-0.92-0.16-1.77-0.24-2.56-0.24c-1.18,0-2.17,0.23-2.96,0.7
			c-0.79,0.47-1.19,1.26-1.19,2.38c0,0.82,0.31,1.52,0.94,2.12s1.61,0.89,2.96,0.89c0.99,0,1.86-0.22,2.61-0.67
			c0.75-0.45,1.34-1.01,1.76-1.69c0.42-0.68,0.62-1.35,0.62-2.03h0.9c0,1.3-0.26,2.5-0.79,3.6c-0.53,1.1-1.29,1.98-2.29,2.65
			C126.51,159.98,125.3,160.32,123.88,160.32z M130.16,159.81l-0.47-4.31v-7.82c0-1.53-0.32-2.65-0.96-3.34
			c-0.64-0.7-1.65-1.04-3.02-1.04c-0.78,0-1.47,0.11-2.08,0.34c-0.6,0.23-1.08,0.57-1.42,1.02c-0.34,0.46-0.52,1.03-0.52,1.72h-4.1
			c0-1.38,0.34-2.5,1.01-3.35c0.68-0.86,1.62-1.48,2.84-1.88c1.22-0.4,2.64-0.6,4.26-0.6c1.52,0,2.86,0.25,4.02,0.75
			c1.16,0.5,2.06,1.28,2.7,2.35c0.64,1.07,0.97,2.44,0.97,4.13v12.03H130.16z"/>
		<path class="st2" d="M149.49,140.99h3.71v11.62c0,1.42,0.35,2.49,1.04,3.22c0.7,0.73,1.67,1.09,2.94,1.09c1.07,0,2-0.28,2.82-0.84
			c0.81-0.56,1.45-1.35,1.91-2.38c0.46-1.03,0.69-2.24,0.69-3.65h1.19c0,2.2-0.3,4.04-0.9,5.54c-0.6,1.5-1.44,2.63-2.52,3.4
			s-2.34,1.16-3.78,1.16c-1.38,0-2.6-0.25-3.68-0.76c-1.07-0.51-1.91-1.29-2.52-2.35c-0.6-1.06-0.91-2.43-0.91-4.11V140.99z
			 M162.59,140.99h3.72v18.82h-3.72V140.99z"/>
		<path class="st2" d="M173.92,159.81v-18.76h3.22l0.49,4.06v14.7H173.92z M187.06,159.81v-11c0-1.63-0.39-2.86-1.16-3.7
			s-1.82-1.26-3.13-1.26c-1.04,0-1.95,0.28-2.72,0.85c-0.77,0.57-1.37,1.39-1.79,2.48s-0.63,2.41-0.63,3.97h-1.33
			c0-2.3,0.3-4.24,0.89-5.81c0.59-1.57,1.44-2.77,2.54-3.58c1.1-0.81,2.43-1.22,3.98-1.22c1.51,0,2.79,0.34,3.83,1.01
			c1.05,0.68,1.84,1.63,2.39,2.88c0.55,1.24,0.82,2.7,0.82,4.38v11H187.06z"/>
		<path class="st2" d="M199.93,137.05c-0.74,0-1.32-0.21-1.75-0.61c-0.42-0.41-0.63-0.97-0.63-1.67c0-0.68,0.21-1.21,0.63-1.61
			c0.42-0.4,1-0.59,1.75-0.59c0.73,0,1.3,0.2,1.73,0.59c0.42,0.4,0.63,0.93,0.63,1.61c0,0.7-0.21,1.26-0.63,1.67
			C201.24,136.85,200.66,137.05,199.93,137.05z M198.08,159.81v-18.82h3.7v18.82H198.08z"/>
		<path class="st2" d="M206.72,141.05h4.25l5.28,15.58h-0.39l5.28-15.58h4.25l-7.29,18.76h-4.11L206.72,141.05z"/>
		<path class="st2" d="M236.51,160.32c-1.61,0-3.07-0.42-4.37-1.25c-1.3-0.83-2.33-1.99-3.09-3.47c-0.76-1.48-1.14-3.2-1.14-5.15
			c0-2.07,0.38-3.84,1.13-5.31s1.78-2.61,3.08-3.4c1.3-0.79,2.76-1.19,4.39-1.19c1.46,0,2.7,0.3,3.74,0.89
			c1.04,0.59,1.88,1.38,2.52,2.38c0.64,0.99,1.08,2.12,1.32,3.38c0.24,1.26,0.28,2.56,0.13,3.9h-13.34v-2.15h10.8l-0.9,0.58
			c0.04-0.7,0-1.4-0.11-2.11c-0.11-0.7-0.32-1.35-0.63-1.94c-0.31-0.59-0.75-1.07-1.32-1.42s-1.28-0.54-2.15-0.54
			c-1.09,0-2.01,0.27-2.74,0.82c-0.73,0.55-1.29,1.28-1.67,2.19c-0.38,0.92-0.57,1.92-0.57,3.01v1.5c0,1.21,0.18,2.28,0.55,3.22
			c0.36,0.94,0.91,1.67,1.63,2.21c0.72,0.54,1.63,0.81,2.74,0.81c1.08,0,1.97-0.25,2.68-0.76c0.71-0.51,1.15-1.27,1.32-2.28h3.78
			c-0.19,1.22-0.64,2.29-1.35,3.2c-0.7,0.91-1.6,1.62-2.7,2.12C239.15,160.07,237.91,160.32,236.51,160.32z"/>
		<path class="st2" d="M250.09,159.81v-18.82h3.7v18.82H250.09z M252.78,151.43c0-2.41,0.25-4.4,0.75-6c0.5-1.59,1.2-2.78,2.11-3.56
			c0.9-0.78,1.97-1.17,3.19-1.17c0.36,0,0.71,0.03,1.02,0.08c0.32,0.05,0.63,0.12,0.95,0.21l-0.14,3.69
			c-0.35-0.09-0.73-0.17-1.14-0.24c-0.41-0.07-0.78-0.11-1.12-0.11c-1.07,0-1.94,0.28-2.61,0.85c-0.68,0.57-1.18,1.38-1.5,2.44
			c-0.33,1.06-0.49,2.33-0.49,3.81H252.78z"/>
		<path class="st2" d="M271.56,160.32c-1.82,0-3.35-0.26-4.6-0.77c-1.25-0.51-2.2-1.23-2.86-2.15c-0.66-0.92-1-1.99-1.02-3.23h3.49
			c0.05,1.08,0.48,1.88,1.3,2.4c0.81,0.52,1.91,0.78,3.31,0.78c0.74,0,1.41-0.12,2.02-0.35c0.6-0.23,1.08-0.55,1.44-0.96
			c0.36-0.4,0.54-0.86,0.54-1.36c0-0.64-0.23-1.14-0.7-1.51c-0.47-0.37-1.22-0.7-2.26-0.98l-3.84-1.31
			c-1.53-0.52-2.71-1.21-3.53-2.08s-1.23-1.9-1.23-3.11c0-1.55,0.69-2.79,2.07-3.73c1.38-0.94,3.2-1.41,5.48-1.41
			c2.35,0,4.17,0.5,5.45,1.49s1.95,2.24,2,3.73h-3.57c-0.09-0.74-0.46-1.31-1.1-1.71s-1.57-0.59-2.78-0.59
			c-1.13,0-2.02,0.25-2.66,0.74c-0.64,0.49-0.97,1.05-0.97,1.68c0,1.12,0.96,1.95,2.89,2.5l4.04,1.42c1.53,0.49,2.72,1.13,3.55,1.91
			c0.83,0.78,1.25,1.77,1.25,2.96c0,0.96-0.32,1.87-0.96,2.73c-0.64,0.86-1.53,1.56-2.68,2.1
			C274.45,160.05,273.1,160.32,271.56,160.32z"/>
		<path class="st2" d="M287.37,137.05c-0.74,0-1.32-0.21-1.75-0.61c-0.42-0.41-0.63-0.97-0.63-1.67c0-0.68,0.21-1.21,0.63-1.61
			c0.42-0.4,1-0.59,1.75-0.59c0.73,0,1.3,0.2,1.73,0.59c0.42,0.4,0.63,0.93,0.63,1.61c0,0.7-0.21,1.26-0.63,1.67
			C288.67,136.85,288.1,137.05,287.37,137.05z M285.52,159.81v-18.82h3.7v18.82H285.52z"/>
		<path class="st2" d="M304.16,160.32c-1.53,0-2.94-0.41-4.23-1.24c-1.29-0.83-2.31-1.98-3.07-3.47c-0.76-1.49-1.14-3.24-1.14-5.26
			c0-2,0.37-3.74,1.12-5.21c0.75-1.47,1.74-2.6,2.97-3.4c1.24-0.8,2.61-1.2,4.11-1.2c1.38,0,2.58,0.34,3.61,1s1.82,1.64,2.39,2.92
			c0.57,1.27,0.85,2.83,0.85,4.66h-1.29c0-1.13-0.23-2.09-0.68-2.88c-0.46-0.79-1.05-1.38-1.77-1.79c-0.73-0.4-1.51-0.6-2.34-0.6
			c-0.97,0-1.86,0.26-2.64,0.79c-0.79,0.53-1.41,1.27-1.87,2.24s-0.69,2.12-0.69,3.46c0,1.35,0.23,2.53,0.69,3.52
			c0.46,1,1.09,1.76,1.87,2.29c0.79,0.53,1.66,0.8,2.62,0.8c0.79,0,1.56-0.21,2.29-0.63c0.73-0.42,1.34-1.03,1.81-1.82
			s0.71-1.74,0.71-2.83h1.29c0,1.87-0.3,3.45-0.89,4.74c-0.59,1.29-1.39,2.26-2.39,2.92S305.38,160.32,304.16,160.32z
			 M310.13,159.81l-0.64-4.5v-22.15h3.72v26.66H310.13z"/>
		<path class="st2" d="M326.29,160.32c-1.57,0-2.88-0.28-3.92-0.83c-1.04-0.55-1.82-1.28-2.33-2.17c-0.51-0.9-0.77-1.85-0.77-2.87
			c0-1.23,0.31-2.25,0.95-3.05c0.63-0.8,1.5-1.39,2.62-1.78c1.12-0.39,2.4-0.59,3.86-0.59c1,0,1.98,0.09,2.93,0.27
			c0.95,0.18,1.88,0.42,2.81,0.72v2.24c-0.75-0.27-1.59-0.49-2.51-0.65c-0.92-0.16-1.77-0.24-2.56-0.24c-1.18,0-2.17,0.23-2.96,0.7
			c-0.79,0.47-1.19,1.26-1.19,2.38c0,0.82,0.31,1.52,0.94,2.12s1.61,0.89,2.96,0.89c0.99,0,1.86-0.22,2.61-0.67
			c0.75-0.45,1.34-1.01,1.76-1.69c0.42-0.68,0.62-1.35,0.62-2.03h0.9c0,1.3-0.26,2.5-0.79,3.6c-0.53,1.1-1.29,1.98-2.29,2.65
			C328.92,159.98,327.71,160.32,326.29,160.32z M332.57,159.81l-0.47-4.31v-7.82c0-1.53-0.32-2.65-0.96-3.34
			c-0.64-0.7-1.65-1.04-3.02-1.04c-0.78,0-1.47,0.11-2.08,0.34c-0.6,0.23-1.08,0.57-1.42,1.02c-0.34,0.46-0.52,1.03-0.52,1.72h-4.1
			c0-1.38,0.34-2.5,1.01-3.35c0.68-0.86,1.62-1.48,2.84-1.88c1.22-0.4,2.64-0.6,4.26-0.6c1.52,0,2.86,0.25,4.02,0.75
			c1.16,0.5,2.06,1.28,2.7,2.35c0.64,1.07,0.97,2.44,0.97,4.13v12.03H332.57z"/>
		<path class="st2" d="M349.65,160.32c-1.53,0-2.94-0.41-4.23-1.24c-1.29-0.83-2.31-1.98-3.07-3.47c-0.76-1.49-1.14-3.24-1.14-5.26
			c0-2,0.37-3.74,1.12-5.21c0.75-1.47,1.74-2.6,2.97-3.4c1.24-0.8,2.61-1.2,4.11-1.2c1.38,0,2.58,0.34,3.61,1s1.82,1.64,2.39,2.92
			c0.57,1.27,0.85,2.83,0.85,4.66h-1.29c0-1.13-0.23-2.09-0.68-2.88c-0.46-0.79-1.05-1.38-1.77-1.79c-0.73-0.4-1.51-0.6-2.34-0.6
			c-0.97,0-1.86,0.26-2.64,0.79c-0.79,0.53-1.41,1.27-1.87,2.24s-0.69,2.12-0.69,3.46c0,1.35,0.23,2.53,0.69,3.52
			c0.46,1,1.09,1.76,1.87,2.29c0.79,0.53,1.66,0.8,2.62,0.8c0.79,0,1.56-0.21,2.29-0.63c0.73-0.42,1.34-1.03,1.81-1.82
			s0.71-1.74,0.71-2.83h1.29c0,1.87-0.3,3.45-0.89,4.74c-0.59,1.29-1.39,2.26-2.39,2.92S350.87,160.32,349.65,160.32z
			 M355.62,159.81l-0.64-4.5v-22.15h3.72v26.66H355.62z"/>
		<path class="st2" d="M363.57,157.63c0-0.73,0.25-1.34,0.75-1.85c0.5-0.51,1.13-0.76,1.9-0.76c0.77,0,1.42,0.25,1.95,0.76
			c0.53,0.51,0.8,1.12,0.8,1.85c0,0.72-0.27,1.32-0.8,1.8c-0.53,0.49-1.18,0.73-1.95,0.73c-0.77,0-1.4-0.25-1.9-0.74
			S363.57,158.33,363.57,157.63z"/>
		<path class="st2" d="M382.92,134.97h3.71v15.7c0,2.21,0.56,3.8,1.67,4.78c1.11,0.97,2.56,1.46,4.34,1.46
			c1.78,0,3.22-0.49,4.33-1.46s1.66-2.57,1.66-4.78v-15.7h3.7v15.7c0,2.08-0.39,3.84-1.17,5.28c-0.78,1.44-1.89,2.52-3.34,3.27
			s-3.18,1.11-5.18,1.11c-1.99,0-3.71-0.37-5.17-1.11s-2.58-1.83-3.36-3.27c-0.79-1.44-1.18-3.2-1.18-5.28V134.97z"/>
		<path class="st2" d="M409.48,159.81v-18.76h3.22l0.49,4.06v14.7H409.48z M422.62,159.81v-11c0-1.63-0.39-2.86-1.16-3.7
			s-1.82-1.26-3.13-1.26c-1.04,0-1.95,0.28-2.72,0.85c-0.77,0.57-1.37,1.39-1.79,2.48s-0.63,2.41-0.63,3.97h-1.33
			c0-2.3,0.3-4.24,0.89-5.81c0.59-1.57,1.44-2.77,2.54-3.58c1.1-0.81,2.43-1.22,3.98-1.22c1.51,0,2.79,0.34,3.83,1.01
			c1.05,0.68,1.84,1.63,2.39,2.88c0.55,1.24,0.82,2.7,0.82,4.38v11H422.62z"/>
		<path class="st2" d="M449.67,160.32c-1.53,0-2.94-0.41-4.23-1.24c-1.29-0.83-2.31-1.98-3.07-3.47c-0.76-1.49-1.14-3.24-1.14-5.26
			c0-2,0.37-3.74,1.12-5.21c0.75-1.47,1.74-2.6,2.97-3.4c1.24-0.8,2.61-1.2,4.11-1.2c1.38,0,2.58,0.34,3.61,1s1.82,1.64,2.39,2.92
			c0.57,1.27,0.85,2.83,0.85,4.66h-1.29c0-1.13-0.23-2.09-0.68-2.88c-0.46-0.79-1.05-1.38-1.77-1.79c-0.73-0.4-1.51-0.6-2.34-0.6
			c-0.97,0-1.86,0.26-2.64,0.79c-0.79,0.53-1.41,1.27-1.87,2.24s-0.69,2.12-0.69,3.46c0,1.35,0.23,2.53,0.69,3.52
			c0.46,1,1.09,1.76,1.87,2.29c0.79,0.53,1.66,0.8,2.62,0.8c0.79,0,1.56-0.21,2.29-0.63c0.73-0.42,1.34-1.03,1.81-1.82
			s0.71-1.74,0.71-2.83h1.29c0,1.87-0.3,3.45-0.89,4.74c-0.59,1.29-1.39,2.26-2.39,2.92S450.89,160.32,449.67,160.32z
			 M455.63,159.81l-0.64-4.5v-22.15h3.72v26.66H455.63z"/>
		<path class="st2" d="M467.25,138.05l-1.81-1.48l6.86-7.02l2.52,2.05L467.25,138.05z M466.61,159.81v-18.82h3.7v18.82H466.61z"/>
		<path class="st2" d="M483.93,160.32c-1.57,0-2.88-0.28-3.92-0.83c-1.04-0.55-1.82-1.28-2.33-2.17c-0.51-0.9-0.77-1.85-0.77-2.87
			c0-1.23,0.31-2.25,0.95-3.05c0.63-0.8,1.5-1.39,2.62-1.78c1.12-0.39,2.4-0.59,3.86-0.59c1,0,1.98,0.09,2.93,0.27
			c0.95,0.18,1.88,0.42,2.81,0.72v2.24c-0.75-0.27-1.59-0.49-2.51-0.65c-0.92-0.16-1.77-0.24-2.56-0.24c-1.18,0-2.17,0.23-2.96,0.7
			c-0.79,0.47-1.19,1.26-1.19,2.38c0,0.82,0.31,1.52,0.94,2.12s1.61,0.89,2.96,0.89c0.99,0,1.86-0.22,2.61-0.67
			c0.75-0.45,1.34-1.01,1.76-1.69c0.42-0.68,0.62-1.35,0.62-2.03h0.9c0,1.3-0.26,2.5-0.79,3.6c-0.53,1.1-1.29,1.98-2.29,2.65
			C486.55,159.98,485.34,160.32,483.93,160.32z M490.2,159.81l-0.47-4.31v-7.82c0-1.53-0.32-2.65-0.96-3.34
			c-0.64-0.7-1.65-1.04-3.02-1.04c-0.78,0-1.47,0.11-2.08,0.34c-0.6,0.23-1.08,0.57-1.42,1.02c-0.34,0.46-0.52,1.03-0.52,1.72h-4.1
			c0-1.38,0.34-2.5,1.01-3.35c0.68-0.86,1.62-1.48,2.84-1.88c1.22-0.4,2.64-0.6,4.26-0.6c1.52,0,2.86,0.25,4.02,0.75
			c1.16,0.5,2.06,1.28,2.7,2.35c0.64,1.07,0.97,2.44,0.97,4.13v12.03H490.2z"/>
		<path class="st2" d="M510,159.81v-18.76h3.22l0.41,3.53c0.6-1.31,1.42-2.31,2.47-3c1.05-0.69,2.28-1.03,3.69-1.03
			c1.51,0,2.79,0.34,3.83,1.01c1.05,0.68,1.84,1.63,2.39,2.88c0.55,1.24,0.82,2.7,0.82,4.38v11h-3.69v-11c0-1.63-0.39-2.86-1.16-3.7
			s-1.82-1.26-3.13-1.26c-1.04,0-1.95,0.28-2.72,0.85c-0.77,0.57-1.37,1.39-1.79,2.48s-0.63,2.41-0.63,3.97v8.66H510z
			 M535.99,159.81v-11c0-1.63-0.39-2.86-1.16-3.7s-1.81-1.26-3.11-1.26c-1.56,0-2.77,0.61-3.62,1.83c-0.85,1.22-1.28,2.98-1.28,5.27
			h-1.62c0-1.81,0.18-3.37,0.53-4.68c0.35-1.31,0.85-2.39,1.51-3.24c0.66-0.84,1.44-1.47,2.36-1.88c0.92-0.41,1.94-0.62,3.07-0.62
			c1.51,0,2.79,0.34,3.83,1.01c1.05,0.68,1.84,1.63,2.39,2.88c0.55,1.24,0.82,2.7,0.82,4.38v11H535.99z"/>
		<path class="st2" d="M553.42,160.32c-1.61,0-3.07-0.42-4.37-1.25c-1.3-0.83-2.33-1.99-3.09-3.47c-0.76-1.48-1.14-3.2-1.14-5.15
			c0-2.07,0.38-3.84,1.13-5.31s1.78-2.61,3.08-3.4c1.3-0.79,2.76-1.19,4.39-1.19c1.46,0,2.7,0.3,3.74,0.89
			c1.04,0.59,1.88,1.38,2.52,2.38c0.64,0.99,1.08,2.12,1.32,3.38c0.24,1.26,0.28,2.56,0.13,3.9h-13.34v-2.15h10.8l-0.9,0.58
			c0.04-0.7,0-1.4-0.11-2.11c-0.11-0.7-0.32-1.35-0.63-1.94c-0.31-0.59-0.75-1.07-1.32-1.42s-1.28-0.54-2.15-0.54
			c-1.09,0-2.01,0.27-2.74,0.82c-0.73,0.55-1.29,1.28-1.67,2.19c-0.38,0.92-0.57,1.92-0.57,3.01v1.5c0,1.21,0.18,2.28,0.55,3.22
			c0.36,0.94,0.91,1.67,1.63,2.21c0.72,0.54,1.63,0.81,2.74,0.81c1.08,0,1.97-0.25,2.68-0.76c0.71-0.51,1.15-1.27,1.32-2.28h3.78
			c-0.19,1.22-0.64,2.29-1.35,3.2c-0.7,0.91-1.6,1.62-2.7,2.12C556.06,160.07,554.81,160.32,553.42,160.32z"/>
		<path class="st2" d="M583.32,160.32c-1.53,0-2.94-0.41-4.23-1.24c-1.29-0.83-2.31-1.98-3.07-3.47c-0.76-1.49-1.14-3.24-1.14-5.26
			c0-2,0.37-3.74,1.12-5.21c0.75-1.47,1.74-2.6,2.97-3.4c1.24-0.8,2.61-1.2,4.11-1.2c1.38,0,2.58,0.34,3.61,1s1.82,1.64,2.39,2.92
			c0.57,1.27,0.85,2.83,0.85,4.66h-1.29c0-1.13-0.23-2.09-0.68-2.88c-0.46-0.79-1.05-1.38-1.77-1.79c-0.73-0.4-1.51-0.6-2.34-0.6
			c-0.97,0-1.86,0.26-2.64,0.79c-0.79,0.53-1.41,1.27-1.87,2.24s-0.69,2.12-0.69,3.46c0,1.35,0.23,2.53,0.69,3.52
			c0.46,1,1.09,1.76,1.87,2.29c0.79,0.53,1.66,0.8,2.62,0.8c0.79,0,1.56-0.21,2.29-0.63c0.73-0.42,1.34-1.03,1.81-1.82
			s0.71-1.74,0.71-2.83h1.29c0,1.87-0.3,3.45-0.89,4.74c-0.59,1.29-1.39,2.26-2.39,2.92S584.54,160.32,583.32,160.32z
			 M589.28,159.81l-0.64-4.5v-22.15h3.72v26.66H589.28z"/>
		<path class="st2" d="M602.11,137.05c-0.74,0-1.32-0.21-1.75-0.61c-0.42-0.41-0.63-0.97-0.63-1.67c0-0.68,0.21-1.21,0.63-1.61
			c0.42-0.4,1-0.59,1.75-0.59c0.73,0,1.3,0.2,1.73,0.59c0.42,0.4,0.63,0.93,0.63,1.61c0,0.7-0.21,1.26-0.63,1.67
			C603.42,136.85,602.84,137.05,602.11,137.05z M600.26,159.81v-18.82h3.7v18.82H600.26z"/>
		<path class="st2" d="M628.44,160.32c-1.53,0-2.96-0.41-4.29-1.23c-1.33-0.82-2.39-1.97-3.2-3.45c-0.81-1.48-1.21-3.22-1.21-5.23
			c0-2.11,0.4-3.89,1.21-5.35c0.81-1.46,1.87-2.58,3.2-3.35c1.33-0.77,2.76-1.16,4.29-1.16c1.13,0,2.14,0.18,3.02,0.54
			c0.88,0.36,1.64,0.84,2.28,1.44c0.64,0.6,1.15,1.28,1.55,2.04c0.4,0.75,0.67,1.53,0.83,2.34l-3.76,0.2
			c-0.27-0.97-0.75-1.76-1.43-2.35s-1.52-0.89-2.53-0.89c-0.85,0-1.64,0.24-2.39,0.71s-1.35,1.2-1.81,2.16
			c-0.46,0.97-0.69,2.19-0.69,3.68c0,1.38,0.21,2.55,0.64,3.53c0.43,0.98,1.01,1.72,1.75,2.24c0.74,0.52,1.57,0.78,2.5,0.78
			c1.33,0,2.32-0.32,2.97-0.96c0.66-0.64,0.98-1.53,0.98-2.66h3.76c0,1.31-0.31,2.5-0.92,3.55c-0.61,1.05-1.49,1.89-2.64,2.51
			C631.41,160.01,630.04,160.32,628.44,160.32z"/>
		<path class="st2" d="M641.48,140.99h3.71v11.62c0,1.42,0.35,2.49,1.04,3.22c0.7,0.73,1.67,1.09,2.94,1.09c1.07,0,2-0.28,2.82-0.84
			c0.81-0.56,1.45-1.35,1.91-2.38c0.46-1.03,0.69-2.24,0.69-3.65h1.19c0,2.2-0.3,4.04-0.9,5.54c-0.6,1.5-1.44,2.63-2.52,3.4
			s-2.34,1.16-3.78,1.16c-1.38,0-2.6-0.25-3.68-0.76c-1.07-0.51-1.91-1.29-2.52-2.35c-0.6-1.06-0.91-2.43-0.91-4.11V140.99z
			 M654.59,140.99h3.72v18.82h-3.72V140.99z"/>
		<path class="st2" d="M672.64,160.32c-1.61,0-3.07-0.42-4.37-1.25c-1.3-0.83-2.33-1.99-3.09-3.47c-0.76-1.48-1.14-3.2-1.14-5.15
			c0-2.07,0.38-3.84,1.13-5.31s1.78-2.61,3.08-3.4c1.3-0.79,2.76-1.19,4.39-1.19c1.46,0,2.7,0.3,3.74,0.89
			c1.04,0.59,1.88,1.38,2.52,2.38c0.64,0.99,1.08,2.12,1.32,3.38c0.24,1.26,0.28,2.56,0.13,3.9h-13.34v-2.15h10.8l-0.9,0.58
			c0.04-0.7,0-1.4-0.11-2.11c-0.11-0.7-0.32-1.35-0.63-1.94c-0.31-0.59-0.75-1.07-1.32-1.42s-1.28-0.54-2.15-0.54
			c-1.09,0-2.01,0.27-2.74,0.82c-0.73,0.55-1.29,1.28-1.67,2.19c-0.38,0.92-0.57,1.92-0.57,3.01v1.5c0,1.21,0.18,2.28,0.55,3.22
			c0.36,0.94,0.91,1.67,1.63,2.21c0.72,0.54,1.63,0.81,2.74,0.81c1.08,0,1.97-0.25,2.68-0.76c0.71-0.51,1.15-1.27,1.32-2.28h3.78
			c-0.19,1.22-0.64,2.29-1.35,3.2c-0.7,0.91-1.6,1.62-2.7,2.12C675.28,160.07,674.03,160.32,672.64,160.32z"/>
		<path class="st2" d="M686.21,159.81v-18.76h3.22l0.49,4.06v14.7H686.21z M699.36,159.81v-11c0-1.63-0.39-2.86-1.16-3.7
			s-1.82-1.26-3.13-1.26c-1.04,0-1.95,0.28-2.72,0.85c-0.77,0.57-1.37,1.39-1.79,2.48s-0.63,2.41-0.63,3.97h-1.33
			c0-2.3,0.3-4.24,0.89-5.81c0.59-1.57,1.44-2.77,2.54-3.58c1.1-0.81,2.43-1.22,3.98-1.22c1.51,0,2.79,0.34,3.83,1.01
			c1.05,0.68,1.84,1.63,2.39,2.88c0.55,1.24,0.82,2.7,0.82,4.38v11H699.36z"/>
		<path class="st2" d="M707.57,143.57v-2.52h12.11v2.52H707.57z M716.11,160.32c-1.07,0-2.03-0.2-2.89-0.6s-1.54-1.01-2.04-1.82
			s-0.75-1.84-0.75-3.07v-18.88h3.69v18.76c0,1.77,0.83,2.65,2.48,2.65c0.51,0,1-0.06,1.48-0.17c0.48-0.11,1.03-0.28,1.64-0.5
			l0.53,2.63c-0.69,0.29-1.37,0.52-2.04,0.71C717.53,160.22,716.84,160.32,716.11,160.32z"/>
		<path class="st2" d="M730.54,160.32c-1.57,0-2.88-0.28-3.92-0.83c-1.04-0.55-1.82-1.28-2.33-2.17c-0.51-0.9-0.77-1.85-0.77-2.87
			c0-1.23,0.31-2.25,0.95-3.05c0.63-0.8,1.5-1.39,2.62-1.78c1.12-0.39,2.4-0.59,3.86-0.59c1,0,1.98,0.09,2.93,0.27
			c0.95,0.18,1.88,0.42,2.81,0.72v2.24c-0.75-0.27-1.59-0.49-2.51-0.65c-0.92-0.16-1.77-0.24-2.56-0.24c-1.18,0-2.17,0.23-2.96,0.7
			c-0.79,0.47-1.19,1.26-1.19,2.38c0,0.82,0.31,1.52,0.94,2.12s1.61,0.89,2.96,0.89c0.99,0,1.86-0.22,2.61-0.67
			c0.75-0.45,1.34-1.01,1.76-1.69c0.42-0.68,0.62-1.35,0.62-2.03h0.9c0,1.3-0.26,2.5-0.79,3.6c-0.53,1.1-1.29,1.98-2.29,2.65
			C733.16,159.98,731.95,160.32,730.54,160.32z M736.82,159.81l-0.47-4.31v-7.82c0-1.53-0.32-2.65-0.96-3.34
			c-0.64-0.7-1.65-1.04-3.02-1.04c-0.78,0-1.47,0.11-2.08,0.34c-0.6,0.23-1.08,0.57-1.42,1.02c-0.34,0.46-0.52,1.03-0.52,1.72h-4.1
			c0-1.38,0.34-2.5,1.01-3.35c0.68-0.86,1.62-1.48,2.84-1.88c1.22-0.4,2.64-0.6,4.26-0.6c1.52,0,2.86,0.25,4.02,0.75
			c1.16,0.5,2.06,1.28,2.7,2.35c0.64,1.07,0.97,2.44,0.97,4.13v12.03H736.82z"/>
		<path class="st2" d="M763.34,160.32c-1.51,0-2.92-0.39-4.22-1.18c-1.31-0.79-2.36-1.92-3.17-3.4c-0.81-1.48-1.21-3.26-1.21-5.32
			c0-2.07,0.4-3.83,1.19-5.3c0.79-1.47,1.83-2.6,3.12-3.38c1.29-0.79,2.66-1.18,4.11-1.18c1.26,0,2.4,0.31,3.43,0.93
			c1.03,0.62,1.85,1.55,2.46,2.8c0.61,1.25,0.92,2.82,0.92,4.7h-1.48c0-1.09-0.22-2.02-0.66-2.78c-0.44-0.76-1.02-1.34-1.74-1.74
			s-1.5-0.59-2.34-0.59c-0.98,0-1.86,0.26-2.65,0.78c-0.79,0.52-1.42,1.27-1.89,2.24s-0.7,2.15-0.7,3.53c0,1.44,0.26,2.65,0.77,3.63
			c0.51,0.98,1.18,1.71,1.99,2.19s1.66,0.73,2.54,0.73c0.79,0,1.55-0.18,2.26-0.55c0.71-0.36,1.3-0.9,1.75-1.62
			c0.45-0.71,0.67-1.58,0.67-2.61h0.9c0,1.61-0.22,3.03-0.65,4.24c-0.44,1.22-1.1,2.17-2,2.86S764.7,160.32,763.34,160.32z
			 M773.77,169.48c-1.92-0.51-3.29-1.3-4.08-2.37c-0.8-1.07-1.2-2.58-1.2-4.51v-17.04l1.23-4.5h2.46v21.82
			c0,0.83,0.08,1.48,0.24,1.96c0.16,0.47,0.44,0.85,0.85,1.12c0.4,0.27,0.96,0.53,1.66,0.76L773.77,169.48z"/>
		<path class="st2" d="M779.36,140.99h3.71v11.62c0,1.42,0.35,2.49,1.04,3.22c0.7,0.73,1.67,1.09,2.94,1.09c1.07,0,2-0.28,2.82-0.84
			c0.81-0.56,1.45-1.35,1.91-2.38c0.46-1.03,0.69-2.24,0.69-3.65h1.19c0,2.2-0.3,4.04-0.9,5.54c-0.6,1.5-1.44,2.63-2.52,3.4
			s-2.34,1.16-3.78,1.16c-1.38,0-2.6-0.25-3.68-0.76c-1.07-0.51-1.91-1.29-2.52-2.35c-0.6-1.06-0.91-2.43-0.91-4.11V140.99z
			 M792.47,140.99h3.72v18.82h-3.72V140.99z"/>
		<path class="st2" d="M810.52,160.32c-1.61,0-3.07-0.42-4.37-1.25c-1.3-0.83-2.33-1.99-3.09-3.47c-0.76-1.48-1.14-3.2-1.14-5.15
			c0-2.07,0.38-3.84,1.13-5.31s1.78-2.61,3.08-3.4c1.3-0.79,2.76-1.19,4.39-1.19c1.46,0,2.7,0.3,3.74,0.89
			c1.04,0.59,1.88,1.38,2.52,2.38c0.64,0.99,1.08,2.12,1.32,3.38c0.24,1.26,0.28,2.56,0.13,3.9h-13.34v-2.15h10.8l-0.9,0.58
			c0.04-0.7,0-1.4-0.11-2.11c-0.11-0.7-0.32-1.35-0.63-1.94c-0.31-0.59-0.75-1.07-1.32-1.42s-1.28-0.54-2.15-0.54
			c-1.09,0-2.01,0.27-2.74,0.82c-0.73,0.55-1.29,1.28-1.67,2.19c-0.38,0.92-0.57,1.92-0.57,3.01v1.5c0,1.21,0.18,2.28,0.55,3.22
			c0.36,0.94,0.91,1.67,1.63,2.21c0.72,0.54,1.63,0.81,2.74,0.81c1.08,0,1.97-0.25,2.68-0.76c0.71-0.51,1.15-1.27,1.32-2.28h3.78
			c-0.19,1.22-0.64,2.29-1.35,3.2c-0.7,0.91-1.6,1.62-2.7,2.12C813.16,160.07,811.92,160.32,810.52,160.32z"/>
		<path class="st2" d="M59.28,207.12c-1.57,0-2.88-0.28-3.92-0.83s-1.82-1.28-2.33-2.17c-0.51-0.9-0.77-1.85-0.77-2.87
			c0-1.24,0.31-2.25,0.95-3.05c0.63-0.8,1.5-1.39,2.62-1.78c1.12-0.39,2.4-0.58,3.86-0.58c1,0,1.98,0.09,2.93,0.27
			c0.95,0.18,1.88,0.42,2.81,0.72v2.24c-0.75-0.27-1.59-0.49-2.51-0.65s-1.77-0.24-2.56-0.24c-1.18,0-2.17,0.23-2.96,0.7
			c-0.79,0.47-1.19,1.26-1.19,2.38c0,0.82,0.31,1.52,0.94,2.12s1.61,0.89,2.96,0.89c0.99,0,1.86-0.22,2.61-0.67
			c0.75-0.45,1.34-1.01,1.76-1.69c0.42-0.68,0.62-1.35,0.62-2.03h0.9c0,1.3-0.26,2.5-0.79,3.6c-0.53,1.1-1.29,1.98-2.29,2.65
			C61.91,206.78,60.7,207.12,59.28,207.12z M65.56,206.61l-0.47-4.31v-7.82c0-1.53-0.32-2.65-0.96-3.34
			c-0.64-0.7-1.65-1.04-3.02-1.04c-0.78,0-1.47,0.11-2.08,0.34s-1.08,0.57-1.42,1.02c-0.34,0.46-0.52,1.03-0.52,1.71H53
			c0-1.38,0.34-2.5,1.01-3.35c0.68-0.86,1.62-1.48,2.84-1.88c1.22-0.4,2.64-0.59,4.26-0.59c1.52,0,2.86,0.25,4.02,0.75
			s2.06,1.28,2.7,2.35c0.64,1.07,0.97,2.44,0.97,4.13v12.03H65.56z"/>
		<path class="st2" d="M85.35,215.82v-27.96h3.06l0.64,4.5v23.46H85.35z M94.24,207.12c-1.36,0-2.55-0.31-3.55-0.93
			c-1-0.62-1.76-1.53-2.29-2.73c-0.53-1.2-0.79-2.69-0.79-4.48h1.44c0,1.03,0.22,1.9,0.66,2.6c0.44,0.71,1.02,1.25,1.75,1.62
			c0.72,0.37,1.49,0.56,2.31,0.56c0.86,0,1.69-0.24,2.51-0.73c0.81-0.49,1.48-1.22,2-2.19s0.78-2.18,0.78-3.63
			c0-1.38-0.23-2.55-0.69-3.53c-0.46-0.97-1.09-1.72-1.88-2.24c-0.79-0.52-1.68-0.78-2.67-0.78c-0.83,0-1.61,0.2-2.34,0.6
			s-1.31,0.97-1.75,1.74s-0.66,1.69-0.66,2.78h-1.44c0-1.88,0.3-3.45,0.91-4.7s1.42-2.18,2.45-2.8c1.03-0.62,2.16-0.93,3.41-0.93
			c1.47,0,2.85,0.39,4.13,1.18c1.29,0.79,2.33,1.91,3.13,3.38c0.8,1.47,1.2,3.24,1.2,5.3s-0.4,3.84-1.21,5.32
			c-0.81,1.48-1.86,2.62-3.17,3.4C97.16,206.73,95.75,207.12,94.24,207.12z"/>
		<path class="st2" d="M115.3,207.12c-1.61,0-3.07-0.42-4.37-1.25c-1.3-0.83-2.33-1.99-3.09-3.47c-0.76-1.48-1.14-3.2-1.14-5.15
			c0-2.07,0.38-3.84,1.13-5.31c0.75-1.47,1.78-2.61,3.08-3.4c1.3-0.79,2.76-1.19,4.39-1.19c1.46,0,2.7,0.3,3.74,0.89
			c1.04,0.59,1.88,1.38,2.52,2.38c0.64,0.99,1.08,2.12,1.32,3.38c0.24,1.26,0.28,2.56,0.13,3.9h-13.34v-2.15h10.8l-0.9,0.59
			c0.04-0.7,0-1.4-0.11-2.11c-0.11-0.7-0.32-1.35-0.63-1.94s-0.75-1.07-1.32-1.42s-1.28-0.54-2.15-0.54c-1.09,0-2.01,0.27-2.74,0.82
			s-1.29,1.28-1.67,2.19c-0.38,0.92-0.57,1.92-0.57,3.01v1.5c0,1.21,0.18,2.28,0.55,3.22c0.36,0.94,0.91,1.67,1.63,2.21
			c0.72,0.54,1.63,0.81,2.74,0.81c1.08,0,1.97-0.25,2.68-0.76c0.71-0.51,1.15-1.27,1.32-2.28h3.78c-0.19,1.22-0.64,2.29-1.35,3.2
			c-0.7,0.91-1.6,1.62-2.7,2.12C117.94,206.87,116.7,207.12,115.3,207.12z"/>
		<path class="st2" d="M135.74,207.12c-1.82,0-3.35-0.26-4.6-0.77c-1.25-0.51-2.2-1.23-2.86-2.15c-0.66-0.92-1-1.99-1.02-3.23h3.49
			c0.05,1.08,0.48,1.88,1.3,2.4s1.91,0.78,3.31,0.78c0.74,0,1.41-0.12,2.02-0.35s1.08-0.55,1.44-0.96c0.36-0.4,0.54-0.86,0.54-1.36
			c0-0.64-0.23-1.14-0.7-1.51c-0.47-0.37-1.22-0.7-2.26-0.99l-3.84-1.31c-1.53-0.52-2.71-1.21-3.53-2.08
			c-0.82-0.86-1.23-1.9-1.23-3.11c0-1.55,0.69-2.79,2.07-3.73s3.2-1.41,5.48-1.41c2.35,0,4.17,0.5,5.45,1.49s1.95,2.24,2,3.73h-3.57
			c-0.09-0.74-0.46-1.31-1.1-1.71s-1.57-0.59-2.78-0.59c-1.13,0-2.02,0.25-2.66,0.74s-0.97,1.05-0.97,1.68
			c0,1.12,0.96,1.95,2.89,2.5l4.04,1.42c1.53,0.49,2.72,1.13,3.55,1.91c0.83,0.78,1.25,1.77,1.25,2.96c0,0.96-0.32,1.87-0.96,2.73
			c-0.64,0.86-1.53,1.56-2.68,2.1C138.64,206.85,137.29,207.12,135.74,207.12z"/>
		<path class="st2" d="M154.89,207.12c-1.57,0-2.88-0.28-3.92-0.83s-1.82-1.28-2.33-2.17c-0.51-0.9-0.77-1.85-0.77-2.87
			c0-1.24,0.31-2.25,0.95-3.05c0.63-0.8,1.5-1.39,2.62-1.78c1.12-0.39,2.4-0.58,3.86-0.58c1,0,1.98,0.09,2.93,0.27
			c0.95,0.18,1.88,0.42,2.81,0.72v2.24c-0.75-0.27-1.59-0.49-2.51-0.65s-1.77-0.24-2.56-0.24c-1.18,0-2.17,0.23-2.96,0.7
			c-0.79,0.47-1.19,1.26-1.19,2.38c0,0.82,0.31,1.52,0.94,2.12s1.61,0.89,2.96,0.89c0.99,0,1.86-0.22,2.61-0.67
			c0.75-0.45,1.34-1.01,1.76-1.69c0.42-0.68,0.62-1.35,0.62-2.03h0.9c0,1.3-0.26,2.5-0.79,3.6c-0.53,1.1-1.29,1.98-2.29,2.65
			C157.51,206.78,156.31,207.12,154.89,207.12z M161.17,206.61l-0.47-4.31v-7.82c0-1.53-0.32-2.65-0.96-3.34
			c-0.64-0.7-1.65-1.04-3.02-1.04c-0.78,0-1.47,0.11-2.08,0.34s-1.08,0.57-1.42,1.02c-0.34,0.46-0.52,1.03-0.52,1.71h-4.1
			c0-1.38,0.34-2.5,1.01-3.35c0.68-0.86,1.62-1.48,2.84-1.88c1.22-0.4,2.64-0.59,4.26-0.59c1.52,0,2.86,0.25,4.02,0.75
			s2.06,1.28,2.7,2.35c0.64,1.07,0.97,2.44,0.97,4.13v12.03H161.17z"/>
		<path class="st2" d="M171.44,206.61v-18.82h3.7v18.82H171.44z M174.14,198.23c0-2.4,0.25-4.4,0.75-6c0.5-1.59,1.2-2.78,2.11-3.56
			c0.9-0.78,1.97-1.17,3.19-1.17c0.36,0,0.71,0.03,1.02,0.08c0.32,0.05,0.63,0.12,0.95,0.21l-0.14,3.69
			c-0.35-0.09-0.73-0.17-1.14-0.24c-0.41-0.07-0.78-0.11-1.12-0.11c-1.07,0-1.94,0.28-2.61,0.85c-0.68,0.57-1.18,1.38-1.5,2.44
			c-0.33,1.06-0.49,2.33-0.49,3.81H174.14z"/>
		<path class="st2" d="M202.37,207.12c-1.53,0-2.94-0.41-4.23-1.24c-1.29-0.83-2.31-1.98-3.07-3.47c-0.76-1.49-1.14-3.24-1.14-5.26
			c0-2,0.37-3.74,1.12-5.21c0.75-1.47,1.74-2.6,2.97-3.4c1.24-0.8,2.61-1.2,4.11-1.2c1.38,0,2.58,0.33,3.61,1
			c1.03,0.67,1.82,1.64,2.39,2.92c0.57,1.27,0.85,2.83,0.85,4.66h-1.29c0-1.13-0.23-2.09-0.68-2.88s-1.05-1.38-1.77-1.78
			c-0.73-0.4-1.51-0.61-2.34-0.61c-0.97,0-1.86,0.26-2.64,0.79c-0.79,0.53-1.41,1.27-1.87,2.24s-0.69,2.12-0.69,3.46
			c0,1.35,0.23,2.53,0.69,3.52s1.09,1.76,1.87,2.29c0.79,0.53,1.66,0.8,2.62,0.8c0.79,0,1.56-0.21,2.29-0.63
			c0.73-0.42,1.34-1.03,1.81-1.82c0.47-0.79,0.71-1.74,0.71-2.83h1.29c0,1.87-0.3,3.45-0.89,4.74c-0.59,1.29-1.39,2.26-2.39,2.92
			C204.7,206.79,203.59,207.12,202.37,207.12z M208.34,206.61l-0.64-4.5v-22.15h3.72v26.66H208.34z"/>
		<path class="st2" d="M225.75,207.12c-1.61,0-3.07-0.42-4.37-1.25c-1.3-0.83-2.33-1.99-3.09-3.47c-0.76-1.48-1.14-3.2-1.14-5.15
			c0-2.07,0.38-3.84,1.13-5.31c0.75-1.47,1.78-2.61,3.08-3.4c1.3-0.79,2.76-1.19,4.39-1.19c1.46,0,2.7,0.3,3.74,0.89
			c1.04,0.59,1.88,1.38,2.52,2.38c0.64,0.99,1.08,2.12,1.32,3.38c0.24,1.26,0.28,2.56,0.13,3.9h-13.34v-2.15h10.8l-0.9,0.59
			c0.04-0.7,0-1.4-0.11-2.11c-0.11-0.7-0.32-1.35-0.63-1.94s-0.75-1.07-1.32-1.42s-1.28-0.54-2.15-0.54c-1.09,0-2.01,0.27-2.74,0.82
			s-1.29,1.28-1.67,2.19c-0.38,0.92-0.57,1.92-0.57,3.01v1.5c0,1.21,0.18,2.28,0.55,3.22c0.36,0.94,0.91,1.67,1.63,2.21
			c0.72,0.54,1.63,0.81,2.74,0.81c1.08,0,1.97-0.25,2.68-0.76c0.71-0.51,1.15-1.27,1.32-2.28h3.78c-0.19,1.22-0.64,2.29-1.35,3.2
			c-0.7,0.91-1.6,1.62-2.7,2.12C228.39,206.87,227.14,207.12,225.75,207.12z"/>
		<path class="st2" d="M246.32,190.37v-2.51h12.11v2.51H246.32z M254.86,207.12c-1.07,0-2.03-0.2-2.89-0.61
			c-0.86-0.4-1.54-1.01-2.04-1.82s-0.75-1.84-0.75-3.07v-18.88h3.69v18.76c0,1.77,0.83,2.65,2.48,2.65c0.51,0,1-0.05,1.48-0.17
			s1.03-0.28,1.64-0.5l0.53,2.63c-0.69,0.29-1.37,0.52-2.04,0.71C256.29,207.02,255.59,207.12,254.86,207.12z"/>
		<path class="st2" d="M263.81,206.61v-18.82h3.7v18.82H263.81z M266.5,198.23c0-2.4,0.25-4.4,0.75-6c0.5-1.59,1.2-2.78,2.11-3.56
			c0.9-0.78,1.97-1.17,3.19-1.17c0.36,0,0.71,0.03,1.02,0.08c0.32,0.05,0.63,0.12,0.95,0.21l-0.14,3.69
			c-0.35-0.09-0.73-0.17-1.14-0.24c-0.41-0.07-0.78-0.11-1.12-0.11c-1.07,0-1.94,0.28-2.61,0.85c-0.68,0.57-1.18,1.38-1.5,2.44
			c-0.33,1.06-0.49,2.33-0.49,3.81H266.5z"/>
		<path class="st2" d="M283.9,207.12c-1.57,0-2.88-0.28-3.92-0.83s-1.82-1.28-2.33-2.17c-0.51-0.9-0.77-1.85-0.77-2.87
			c0-1.24,0.31-2.25,0.95-3.05c0.63-0.8,1.5-1.39,2.62-1.78c1.12-0.39,2.4-0.58,3.86-0.58c1,0,1.98,0.09,2.93,0.27
			c0.95,0.18,1.88,0.42,2.81,0.72v2.24c-0.75-0.27-1.59-0.49-2.51-0.65s-1.77-0.24-2.56-0.24c-1.18,0-2.17,0.23-2.96,0.7
			c-0.79,0.47-1.19,1.26-1.19,2.38c0,0.82,0.31,1.52,0.94,2.12s1.61,0.89,2.96,0.89c0.99,0,1.86-0.22,2.61-0.67
			c0.75-0.45,1.34-1.01,1.76-1.69c0.42-0.68,0.62-1.35,0.62-2.03h0.9c0,1.3-0.26,2.5-0.79,3.6c-0.53,1.1-1.29,1.98-2.29,2.65
			C286.52,206.78,285.32,207.12,283.9,207.12z M290.18,206.61l-0.47-4.31v-7.82c0-1.53-0.32-2.65-0.96-3.34
			c-0.64-0.7-1.65-1.04-3.02-1.04c-0.78,0-1.47,0.11-2.08,0.34s-1.08,0.57-1.42,1.02c-0.34,0.46-0.52,1.03-0.52,1.71h-4.1
			c0-1.38,0.34-2.5,1.01-3.35c0.68-0.86,1.62-1.48,2.84-1.88c1.22-0.4,2.64-0.59,4.26-0.59c1.52,0,2.86,0.25,4.02,0.75
			s2.06,1.28,2.7,2.35c0.64,1.07,0.97,2.44,0.97,4.13v12.03H290.18z"/>
		<path class="st2" d="M300.45,206.61v-26.66h3.7v22.15l-1.19,4.5H300.45z M309.48,207.12c-1.22,0-2.33-0.33-3.32-0.98
			c-0.99-0.66-1.79-1.63-2.38-2.92c-0.59-1.29-0.89-2.87-0.89-4.74h1.27c0,1.09,0.24,2.04,0.71,2.83c0.47,0.79,1.08,1.4,1.82,1.82
			c0.74,0.42,1.51,0.63,2.32,0.63c0.96,0,1.83-0.27,2.6-0.8c0.77-0.53,1.39-1.3,1.85-2.29c0.46-0.99,0.69-2.17,0.69-3.52
			c0-1.34-0.23-2.49-0.68-3.46c-0.46-0.97-1.07-1.72-1.85-2.24c-0.78-0.53-1.66-0.79-2.65-0.79c-0.83,0-1.62,0.2-2.35,0.61
			c-0.73,0.4-1.33,1-1.78,1.78s-0.68,1.75-0.68,2.88h-1.27c0-1.83,0.29-3.39,0.86-4.66c0.57-1.27,1.37-2.25,2.39-2.92
			c1.02-0.67,2.22-1,3.6-1c1.49,0,2.86,0.4,4.1,1.2c1.24,0.8,2.24,1.93,2.98,3.4c0.75,1.47,1.12,3.21,1.12,5.21
			c0,2.02-0.38,3.77-1.15,5.26c-0.77,1.49-1.79,2.64-3.07,3.47C312.44,206.71,311.03,207.12,309.48,207.12z"/>
		<path class="st2" d="M329.39,207.12c-1.57,0-2.88-0.28-3.92-0.83s-1.82-1.28-2.33-2.17c-0.51-0.9-0.77-1.85-0.77-2.87
			c0-1.24,0.31-2.25,0.95-3.05c0.63-0.8,1.5-1.39,2.62-1.78c1.12-0.39,2.4-0.58,3.86-0.58c1,0,1.98,0.09,2.93,0.27
			c0.95,0.18,1.88,0.42,2.81,0.72v2.24c-0.75-0.27-1.59-0.49-2.51-0.65s-1.77-0.24-2.56-0.24c-1.18,0-2.17,0.23-2.96,0.7
			c-0.79,0.47-1.19,1.26-1.19,2.38c0,0.82,0.31,1.52,0.94,2.12s1.61,0.89,2.96,0.89c0.99,0,1.86-0.22,2.61-0.67
			c0.75-0.45,1.34-1.01,1.76-1.69c0.42-0.68,0.62-1.35,0.62-2.03h0.9c0,1.3-0.26,2.5-0.79,3.6c-0.53,1.1-1.29,1.98-2.29,2.65
			C332.02,206.78,330.81,207.12,329.39,207.12z M335.67,206.61l-0.47-4.31v-7.82c0-1.53-0.32-2.65-0.96-3.34
			c-0.64-0.7-1.65-1.04-3.02-1.04c-0.78,0-1.47,0.11-2.08,0.34s-1.08,0.57-1.42,1.02c-0.34,0.46-0.52,1.03-0.52,1.71h-4.1
			c0-1.38,0.34-2.5,1.01-3.35c0.68-0.86,1.62-1.48,2.84-1.88c1.22-0.4,2.64-0.59,4.26-0.59c1.52,0,2.86,0.25,4.02,0.75
			s2.06,1.28,2.7,2.35c0.64,1.07,0.97,2.44,0.97,4.13v12.03H335.67z"/>
		<path class="st2" d="M344.29,216.28c-0.95,0-1.85-0.11-2.7-0.34c-0.85-0.23-1.73-0.56-2.62-1l0.12-3.2
			c0.73,0.38,1.46,0.69,2.18,0.94c0.73,0.25,1.47,0.37,2.22,0.37c1.03,0,1.82-0.32,2.38-0.95c0.56-0.63,0.84-1.65,0.84-3.05v-21.27
			h3.69v21.31c0,2.57-0.55,4.42-1.66,5.53C347.63,215.73,346.15,216.28,344.29,216.28z M348.52,183.86c-0.73,0-1.3-0.21-1.73-0.61
			c-0.42-0.41-0.63-0.97-0.63-1.67c0-0.68,0.21-1.21,0.63-1.61c0.42-0.4,1-0.59,1.73-0.59s1.31,0.2,1.74,0.59
			c0.43,0.4,0.64,0.93,0.64,1.61c0,0.7-0.21,1.26-0.64,1.67C349.83,183.65,349.25,183.86,348.52,183.86z"/>
		<path class="st2" d="M364,207.12c-1.57,0-2.88-0.28-3.92-0.83s-1.82-1.28-2.33-2.17c-0.51-0.9-0.77-1.85-0.77-2.87
			c0-1.24,0.31-2.25,0.95-3.05c0.63-0.8,1.5-1.39,2.62-1.78c1.12-0.39,2.4-0.58,3.86-0.58c1,0,1.98,0.09,2.93,0.27
			c0.95,0.18,1.88,0.42,2.81,0.72v2.24c-0.75-0.27-1.59-0.49-2.51-0.65s-1.77-0.24-2.56-0.24c-1.18,0-2.17,0.23-2.96,0.7
			c-0.79,0.47-1.19,1.26-1.19,2.38c0,0.82,0.31,1.52,0.94,2.12s1.61,0.89,2.96,0.89c0.99,0,1.86-0.22,2.61-0.67
			c0.75-0.45,1.34-1.01,1.76-1.69c0.42-0.68,0.62-1.35,0.62-2.03h0.9c0,1.3-0.26,2.5-0.79,3.6c-0.53,1.1-1.29,1.98-2.29,2.65
			C366.63,206.78,365.42,207.12,364,207.12z M370.28,206.61l-0.47-4.31v-7.82c0-1.53-0.32-2.65-0.96-3.34
			c-0.64-0.7-1.65-1.04-3.02-1.04c-0.78,0-1.47,0.11-2.08,0.34s-1.08,0.57-1.42,1.02c-0.34,0.46-0.52,1.03-0.52,1.71h-4.1
			c0-1.38,0.34-2.5,1.01-3.35c0.68-0.86,1.62-1.48,2.84-1.88c1.22-0.4,2.64-0.59,4.26-0.59c1.52,0,2.86,0.25,4.02,0.75
			s2.06,1.28,2.7,2.35c0.64,1.07,0.97,2.44,0.97,4.13v12.03H370.28z"/>
		<path class="st2" d="M380.56,206.61v-18.82h3.7v18.82H380.56z M383.25,198.23c0-2.4,0.25-4.4,0.75-6c0.5-1.59,1.2-2.78,2.11-3.56
			c0.9-0.78,1.97-1.17,3.19-1.17c0.36,0,0.71,0.03,1.02,0.08c0.32,0.05,0.63,0.12,0.95,0.21l-0.14,3.69
			c-0.35-0.09-0.73-0.17-1.14-0.24c-0.41-0.07-0.78-0.11-1.12-0.11c-1.07,0-1.94,0.28-2.61,0.85c-0.68,0.57-1.18,1.38-1.5,2.44
			c-0.33,1.06-0.49,2.33-0.49,3.81H383.25z"/>
		<path class="st2" d="M411.41,207.12c-1.61,0-3.07-0.42-4.37-1.25c-1.3-0.83-2.33-1.99-3.09-3.47c-0.76-1.48-1.14-3.2-1.14-5.15
			c0-2.07,0.38-3.84,1.13-5.31c0.75-1.47,1.78-2.61,3.08-3.4c1.3-0.79,2.76-1.19,4.39-1.19c1.46,0,2.7,0.3,3.74,0.89
			c1.04,0.59,1.88,1.38,2.52,2.38c0.64,0.99,1.08,2.12,1.32,3.38c0.24,1.26,0.28,2.56,0.13,3.9h-13.34v-2.15h10.8l-0.9,0.59
			c0.04-0.7,0-1.4-0.11-2.11c-0.11-0.7-0.32-1.35-0.63-1.94s-0.75-1.07-1.32-1.42s-1.28-0.54-2.15-0.54c-1.09,0-2.01,0.27-2.74,0.82
			s-1.29,1.28-1.67,2.19c-0.38,0.92-0.57,1.92-0.57,3.01v1.5c0,1.21,0.18,2.28,0.55,3.22c0.36,0.94,0.91,1.67,1.63,2.21
			c0.72,0.54,1.63,0.81,2.74,0.81c1.08,0,1.97-0.25,2.68-0.76c0.71-0.51,1.15-1.27,1.32-2.28h3.78c-0.19,1.22-0.64,2.29-1.35,3.2
			c-0.7,0.91-1.6,1.62-2.7,2.12C414.04,206.87,412.8,207.12,411.41,207.12z"/>
		<path class="st2" d="M424.98,206.61v-18.76h3.22l0.49,4.05v14.7H424.98z M438.12,206.61v-11c0-1.63-0.39-2.86-1.16-3.7
			c-0.77-0.84-1.82-1.26-3.13-1.26c-1.04,0-1.95,0.28-2.72,0.85c-0.77,0.56-1.37,1.39-1.79,2.48c-0.42,1.09-0.63,2.41-0.63,3.97
			h-1.33c0-2.3,0.3-4.24,0.89-5.81c0.59-1.57,1.44-2.77,2.54-3.58s2.43-1.22,3.98-1.22c1.51,0,2.79,0.34,3.83,1.01
			c1.05,0.68,1.84,1.63,2.39,2.88c0.55,1.24,0.82,2.7,0.82,4.38v11H438.12z"/>
		<path class="st2" d="M458.36,206.61v-26.66h3.7v26.66H458.36z"/>
		<path class="st2" d="M476.75,207.12c-1.7,0-3.23-0.37-4.57-1.11c-1.35-0.74-2.41-1.85-3.19-3.32c-0.78-1.47-1.17-3.28-1.17-5.44
			c0-2.2,0.39-4.03,1.17-5.49c0.78-1.46,1.84-2.56,3.19-3.31c1.35-0.74,2.87-1.11,4.57-1.11c1.68,0,3.19,0.37,4.52,1.11
			c1.34,0.74,2.4,1.84,3.17,3.31s1.16,3.29,1.16,5.49c0,2.16-0.39,3.97-1.16,5.44c-0.77,1.47-1.83,2.57-3.17,3.32
			C479.94,206.75,478.43,207.12,476.75,207.12z M476.63,203.88c1.08,0,2.01-0.26,2.8-0.78c0.79-0.52,1.39-1.28,1.81-2.27
			c0.42-0.99,0.63-2.19,0.63-3.58c0-2.13-0.43-3.78-1.3-4.95c-0.86-1.17-2.11-1.75-3.73-1.75c-1.09,0-2.03,0.26-2.82,0.79
			c-0.79,0.53-1.39,1.29-1.81,2.28s-0.63,2.21-0.63,3.64c0,2.09,0.44,3.72,1.31,4.88C473.76,203.3,475.01,203.88,476.63,203.88z"/>
		<path class="st2" d="M500.85,206.61v-18.76h3.22l0.41,3.53c0.6-1.31,1.42-2.31,2.47-3c1.05-0.69,2.28-1.03,3.69-1.03
			c1.51,0,2.79,0.34,3.83,1.01c1.05,0.68,1.84,1.63,2.39,2.88c0.55,1.24,0.82,2.7,0.82,4.38v11H514v-11c0-1.63-0.39-2.86-1.16-3.7
			c-0.77-0.84-1.82-1.26-3.13-1.26c-1.04,0-1.95,0.28-2.72,0.85c-0.77,0.56-1.37,1.39-1.79,2.48c-0.42,1.09-0.63,2.41-0.63,3.97
			v8.66H500.85z M526.85,206.61v-11c0-1.63-0.39-2.86-1.16-3.7c-0.77-0.84-1.81-1.26-3.11-1.26c-1.56,0-2.77,0.61-3.62,1.83
			c-0.85,1.22-1.28,2.98-1.28,5.26h-1.62c0-1.81,0.18-3.37,0.53-4.68c0.35-1.31,0.85-2.39,1.51-3.24c0.66-0.84,1.44-1.47,2.36-1.88
			s1.94-0.61,3.07-0.61c1.51,0,2.79,0.34,3.83,1.01c1.05,0.68,1.84,1.63,2.39,2.88c0.55,1.24,0.82,2.7,0.82,4.38v11H526.85z"/>
		<path class="st2" d="M539.7,183.86c-0.74,0-1.32-0.21-1.75-0.61s-0.63-0.97-0.63-1.67c0-0.68,0.21-1.21,0.63-1.61
			s1-0.59,1.75-0.59c0.73,0,1.3,0.2,1.73,0.59c0.42,0.4,0.63,0.93,0.63,1.61c0,0.7-0.21,1.26-0.63,1.67
			C541,183.65,540.42,183.86,539.7,183.86z M537.84,206.61v-18.82h3.7v18.82H537.84z"/>
		<path class="st2" d="M556.54,207.12c-1.82,0-3.35-0.26-4.6-0.77c-1.25-0.51-2.2-1.23-2.86-2.15c-0.66-0.92-1-1.99-1.02-3.23h3.49
			c0.05,1.08,0.48,1.88,1.3,2.4s1.91,0.78,3.31,0.78c0.74,0,1.41-0.12,2.02-0.35s1.08-0.55,1.44-0.96c0.36-0.4,0.54-0.86,0.54-1.36
			c0-0.64-0.23-1.14-0.7-1.51c-0.47-0.37-1.22-0.7-2.26-0.99l-3.84-1.31c-1.53-0.52-2.71-1.21-3.53-2.08
			c-0.82-0.86-1.23-1.9-1.23-3.11c0-1.55,0.69-2.79,2.07-3.73s3.2-1.41,5.48-1.41c2.35,0,4.17,0.5,5.45,1.49s1.95,2.24,2,3.73h-3.57
			c-0.09-0.74-0.46-1.31-1.1-1.71s-1.57-0.59-2.78-0.59c-1.13,0-2.02,0.25-2.66,0.74s-0.97,1.05-0.97,1.68
			c0,1.12,0.96,1.95,2.89,2.5l4.04,1.42c1.53,0.49,2.72,1.13,3.55,1.91c0.83,0.78,1.25,1.77,1.25,2.96c0,0.96-0.32,1.87-0.96,2.73
			c-0.64,0.86-1.53,1.56-2.68,2.1C559.44,206.85,558.09,207.12,556.54,207.12z"/>
		<path class="st2" d="M570.21,206.61v-18.76h3.22l0.41,3.53c0.6-1.31,1.42-2.31,2.47-3c1.05-0.69,2.28-1.03,3.69-1.03
			c1.51,0,2.79,0.34,3.83,1.01c1.05,0.68,1.84,1.63,2.39,2.88c0.55,1.24,0.82,2.7,0.82,4.38v11h-3.69v-11c0-1.63-0.39-2.86-1.16-3.7
			c-0.77-0.84-1.82-1.26-3.13-1.26c-1.04,0-1.95,0.28-2.72,0.85c-0.77,0.56-1.37,1.39-1.79,2.48c-0.42,1.09-0.63,2.41-0.63,3.97
			v8.66H570.21z M596.21,206.61v-11c0-1.63-0.39-2.86-1.16-3.7c-0.77-0.84-1.81-1.26-3.11-1.26c-1.56,0-2.77,0.61-3.62,1.83
			c-0.85,1.22-1.28,2.98-1.28,5.26h-1.62c0-1.81,0.18-3.37,0.53-4.68c0.35-1.31,0.85-2.39,1.51-3.24c0.66-0.84,1.44-1.47,2.36-1.88
			s1.94-0.61,3.07-0.61c1.51,0,2.79,0.34,3.83,1.01c1.05,0.68,1.84,1.63,2.39,2.88c0.55,1.24,0.82,2.7,0.82,4.38v11H596.21z"/>
		<path class="st2" d="M613.97,207.12c-1.7,0-3.23-0.37-4.57-1.11c-1.35-0.74-2.41-1.85-3.19-3.32c-0.78-1.47-1.17-3.28-1.17-5.44
			c0-2.2,0.39-4.03,1.17-5.49c0.78-1.46,1.84-2.56,3.19-3.31c1.35-0.74,2.87-1.11,4.57-1.11c1.68,0,3.19,0.37,4.52,1.11
			c1.34,0.74,2.4,1.84,3.17,3.31s1.16,3.29,1.16,5.49c0,2.16-0.39,3.97-1.16,5.44c-0.77,1.47-1.83,2.57-3.17,3.32
			C617.16,206.75,615.65,207.12,613.97,207.12z M613.85,203.88c1.08,0,2.01-0.26,2.8-0.78c0.79-0.52,1.39-1.28,1.81-2.27
			c0.42-0.99,0.63-2.19,0.63-3.58c0-2.13-0.43-3.78-1.3-4.95c-0.86-1.17-2.11-1.75-3.73-1.75c-1.09,0-2.03,0.26-2.82,0.79
			c-0.79,0.53-1.39,1.29-1.81,2.28s-0.63,2.21-0.63,3.64c0,2.09,0.44,3.72,1.31,4.88C610.98,203.3,612.23,203.88,613.85,203.88z"/>
		<path class="st2" d="M628.59,211.31l-2.77-1.38c0.79-0.4,1.48-0.85,2.05-1.34c0.57-0.5,0.95-1.09,1.13-1.78
			c-0.62-0.09-1.16-0.33-1.6-0.72c-0.44-0.39-0.66-0.9-0.66-1.54c0-0.65,0.24-1.2,0.73-1.65c0.49-0.45,1.11-0.67,1.86-0.67
			c0.95,0,1.71,0.34,2.27,1.01c0.57,0.68,0.85,1.48,0.85,2.42c0,1.08-0.33,2.13-1,3.17C630.78,209.86,629.83,210.69,628.59,211.31z"
			/>
		<path class="st2" d="M653.67,207.12c-1.61,0-3.07-0.42-4.37-1.25c-1.3-0.83-2.33-1.99-3.09-3.47c-0.76-1.48-1.14-3.2-1.14-5.15
			c0-2.07,0.38-3.84,1.13-5.31c0.75-1.47,1.78-2.61,3.08-3.4c1.3-0.79,2.76-1.19,4.39-1.19c1.46,0,2.7,0.3,3.74,0.89
			c1.04,0.59,1.88,1.38,2.52,2.38c0.64,0.99,1.08,2.12,1.32,3.38c0.24,1.26,0.28,2.56,0.13,3.9h-13.34v-2.15h10.8l-0.9,0.59
			c0.04-0.7,0-1.4-0.11-2.11c-0.11-0.7-0.32-1.35-0.63-1.94s-0.75-1.07-1.32-1.42s-1.28-0.54-2.15-0.54c-1.09,0-2.01,0.27-2.74,0.82
			s-1.29,1.28-1.67,2.19c-0.38,0.92-0.57,1.92-0.57,3.01v1.5c0,1.21,0.18,2.28,0.55,3.22c0.36,0.94,0.91,1.67,1.63,2.21
			c0.72,0.54,1.63,0.81,2.74,0.81c1.08,0,1.97-0.25,2.68-0.76c0.71-0.51,1.15-1.27,1.32-2.28h3.78c-0.19,1.22-0.64,2.29-1.35,3.2
			c-0.7,0.91-1.6,1.62-2.7,2.12C656.31,206.87,655.06,207.12,653.67,207.12z M652.11,184.85l-1.81-1.48l6.86-7.02l2.52,2.05
			L652.11,184.85z"/>
		<path class="st2" d="M667.24,206.61v-26.66h3.7v26.66H667.24z"/>
		<path class="st2" d="M694.99,216.28c-2.03,0-3.77-0.28-5.24-0.84s-2.59-1.31-3.38-2.24c-0.79-0.94-1.19-1.96-1.19-3.06
			c0-1.4,0.51-2.48,1.54-3.23c1.03-0.75,2.33-1.12,3.92-1.12l2.4,1.13c-1.35,0-2.4,0.27-3.13,0.82c-0.73,0.55-1.1,1.29-1.1,2.22
			c0,0.98,0.53,1.78,1.6,2.41c1.07,0.63,2.59,0.95,4.58,0.95c1.44,0,2.71-0.21,3.8-0.63c1.09-0.42,1.94-0.97,2.54-1.66
			c0.6-0.68,0.9-1.41,0.9-2.19c0-0.53-0.19-0.99-0.58-1.36c-0.38-0.37-0.97-0.56-1.75-0.56h-6.86c-1.27,0-2.4-0.2-3.36-0.59
			s-1.73-0.92-2.27-1.57s-0.82-1.37-0.82-2.17c0-0.78,0.22-1.45,0.66-2.02c0.44-0.56,1.03-0.99,1.76-1.29
			c0.73-0.29,1.53-0.44,2.4-0.44l0.84,1.29c-0.38,0-0.75,0.08-1.13,0.24c-0.38,0.16-0.69,0.41-0.94,0.73
			c-0.25,0.32-0.37,0.73-0.37,1.21c0,0.56,0.24,1.02,0.71,1.39c0.47,0.37,1.32,0.55,2.52,0.55h6.86c1.87,0,3.34,0.37,4.41,1.11
			c1.07,0.74,1.6,1.82,1.6,3.24c0,1.29-0.44,2.52-1.33,3.69c-0.88,1.17-2.14,2.13-3.77,2.87
			C699.18,215.91,697.24,216.28,694.99,216.28z M695.4,200.98c-1.46,0-2.78-0.28-3.97-0.85c-1.19-0.57-2.14-1.36-2.84-2.38
			s-1.05-2.21-1.05-3.58c0-1.38,0.35-2.58,1.05-3.6s1.65-1.81,2.84-2.38c1.19-0.56,2.51-0.85,3.97-0.85c1.42,0,2.71,0.28,3.89,0.85
			c1.18,0.57,2.12,1.36,2.83,2.38s1.06,2.22,1.06,3.6c0,1.36-0.35,2.56-1.06,3.58s-1.65,1.81-2.83,2.38
			C698.11,200.69,696.82,200.98,695.4,200.98z M695.4,198.36c1.34,0,2.36-0.4,3.07-1.2s1.06-1.8,1.06-2.99
			c0-1.25-0.35-2.25-1.06-3.02s-1.73-1.15-3.07-1.15c-1.31,0-2.34,0.38-3.07,1.15c-0.73,0.77-1.1,1.77-1.1,3.02
			c0,1.2,0.37,2.19,1.1,2.99C693.06,197.96,694.09,198.36,695.4,198.36z M701.78,190.35l-1.74-0.84c0-1.12,0.23-2.09,0.7-2.92
			s1.12-1.48,1.95-1.95c0.83-0.47,1.79-0.7,2.87-0.7l-0.23,3.61c-1.16,0-2.04,0.23-2.64,0.68
			C702.08,188.68,701.78,189.39,701.78,190.35z"/>
		<path class="st2" d="M715.88,207.12c-1.57,0-2.88-0.28-3.92-0.83s-1.82-1.28-2.33-2.17c-0.51-0.9-0.77-1.85-0.77-2.87
			c0-1.24,0.31-2.25,0.95-3.05c0.63-0.8,1.5-1.39,2.62-1.78c1.12-0.39,2.4-0.58,3.86-0.58c1,0,1.98,0.09,2.93,0.27
			c0.95,0.18,1.88,0.42,2.81,0.72v2.24c-0.75-0.27-1.59-0.49-2.51-0.65s-1.77-0.24-2.56-0.24c-1.18,0-2.17,0.23-2.96,0.7
			c-0.79,0.47-1.19,1.26-1.19,2.38c0,0.82,0.31,1.52,0.94,2.12s1.61,0.89,2.96,0.89c0.99,0,1.86-0.22,2.61-0.67
			c0.75-0.45,1.34-1.01,1.76-1.69c0.42-0.68,0.62-1.35,0.62-2.03h0.9c0,1.3-0.26,2.5-0.79,3.6c-0.53,1.1-1.29,1.98-2.29,2.65
			C718.5,206.78,717.29,207.12,715.88,207.12z M722.15,206.61l-0.47-4.31v-7.82c0-1.53-0.32-2.65-0.96-3.34
			c-0.64-0.7-1.65-1.04-3.02-1.04c-0.78,0-1.47,0.11-2.08,0.34s-1.08,0.57-1.42,1.02c-0.34,0.46-0.52,1.03-0.52,1.71h-4.1
			c0-1.38,0.34-2.5,1.01-3.35c0.68-0.86,1.62-1.48,2.84-1.88c1.22-0.4,2.64-0.59,4.26-0.59c1.52,0,2.86,0.25,4.02,0.75
			s2.06,1.28,2.7,2.35c0.64,1.07,0.97,2.44,0.97,4.13v12.03H722.15z"/>
		<path class="st2" d="M732.43,206.61v-18.76h3.22l0.49,4.05v14.7H732.43z M745.57,206.61v-11c0-1.63-0.39-2.86-1.16-3.7
			c-0.77-0.84-1.82-1.26-3.13-1.26c-1.04,0-1.95,0.28-2.72,0.85c-0.77,0.56-1.37,1.39-1.79,2.48c-0.42,1.09-0.63,2.41-0.63,3.97
			h-1.33c0-2.3,0.3-4.24,0.89-5.81c0.59-1.57,1.44-2.77,2.54-3.58s2.43-1.22,3.98-1.22c1.51,0,2.79,0.34,3.83,1.01
			c1.05,0.68,1.84,1.63,2.39,2.88c0.55,1.24,0.82,2.7,0.82,4.38v11H745.57z"/>
		<path class="st2" d="M761.78,207.12c-1.57,0-2.88-0.28-3.92-0.83s-1.82-1.28-2.33-2.17c-0.51-0.9-0.77-1.85-0.77-2.87
			c0-1.24,0.31-2.25,0.95-3.05c0.63-0.8,1.5-1.39,2.62-1.78c1.12-0.39,2.4-0.58,3.86-0.58c1,0,1.98,0.09,2.93,0.27
			c0.95,0.18,1.88,0.42,2.81,0.72v2.24c-0.75-0.27-1.59-0.49-2.51-0.65s-1.77-0.24-2.56-0.24c-1.18,0-2.17,0.23-2.96,0.7
			c-0.79,0.47-1.19,1.26-1.19,2.38c0,0.82,0.31,1.52,0.94,2.12s1.61,0.89,2.96,0.89c0.99,0,1.86-0.22,2.61-0.67
			c0.75-0.45,1.34-1.01,1.76-1.69c0.42-0.68,0.62-1.35,0.62-2.03h0.9c0,1.3-0.26,2.5-0.79,3.6c-0.53,1.1-1.29,1.98-2.29,2.65
			C764.4,206.78,763.19,207.12,761.78,207.12z M768.06,206.61l-0.47-4.31v-7.82c0-1.53-0.32-2.65-0.96-3.34
			c-0.64-0.7-1.65-1.04-3.02-1.04c-0.78,0-1.47,0.11-2.08,0.34s-1.08,0.57-1.42,1.02c-0.34,0.46-0.52,1.03-0.52,1.71h-4.1
			c0-1.38,0.34-2.5,1.01-3.35c0.68-0.86,1.62-1.48,2.84-1.88c1.22-0.4,2.64-0.59,4.26-0.59c1.52,0,2.86,0.25,4.02,0.75
			s2.06,1.28,2.7,2.35c0.64,1.07,0.97,2.44,0.97,4.13v12.03H768.06z"/>
		<path class="st2" d="M778.33,206.61v-26.66h3.7v22.15l-1.19,4.5H778.33z M787.36,207.12c-1.22,0-2.33-0.33-3.32-0.98
			c-0.99-0.66-1.79-1.63-2.38-2.92c-0.59-1.29-0.89-2.87-0.89-4.74h1.27c0,1.09,0.24,2.04,0.71,2.83c0.47,0.79,1.08,1.4,1.82,1.82
			c0.74,0.42,1.51,0.63,2.32,0.63c0.96,0,1.83-0.27,2.6-0.8c0.77-0.53,1.39-1.3,1.85-2.29c0.46-0.99,0.69-2.17,0.69-3.52
			c0-1.34-0.23-2.49-0.68-3.46c-0.46-0.97-1.07-1.72-1.85-2.24c-0.78-0.53-1.66-0.79-2.65-0.79c-0.83,0-1.62,0.2-2.35,0.61
			c-0.73,0.4-1.33,1-1.78,1.78s-0.68,1.75-0.68,2.88h-1.27c0-1.83,0.29-3.39,0.86-4.66c0.57-1.27,1.37-2.25,2.39-2.92
			c1.02-0.67,2.22-1,3.6-1c1.49,0,2.86,0.4,4.1,1.2c1.24,0.8,2.24,1.93,2.98,3.4c0.75,1.47,1.12,3.21,1.12,5.21
			c0,2.02-0.38,3.77-1.15,5.26c-0.77,1.49-1.79,2.64-3.07,3.47C790.32,206.71,788.91,207.12,787.36,207.12z"/>
		<path class="st2" d="M807.27,207.12c-1.57,0-2.88-0.28-3.92-0.83s-1.82-1.28-2.33-2.17c-0.51-0.9-0.77-1.85-0.77-2.87
			c0-1.24,0.31-2.25,0.95-3.05c0.63-0.8,1.5-1.39,2.62-1.78c1.12-0.39,2.4-0.58,3.86-0.58c1,0,1.98,0.09,2.93,0.27
			c0.95,0.18,1.88,0.42,2.81,0.72v2.24c-0.75-0.27-1.59-0.49-2.51-0.65s-1.77-0.24-2.56-0.24c-1.18,0-2.17,0.23-2.96,0.7
			c-0.79,0.47-1.19,1.26-1.19,2.38c0,0.82,0.31,1.52,0.94,2.12s1.61,0.89,2.96,0.89c0.99,0,1.86-0.22,2.61-0.67
			c0.75-0.45,1.34-1.01,1.76-1.69c0.42-0.68,0.62-1.35,0.62-2.03h0.9c0,1.3-0.26,2.5-0.79,3.6c-0.53,1.1-1.29,1.98-2.29,2.65
			C809.9,206.78,808.69,207.12,807.27,207.12z M813.55,206.61l-0.47-4.31v-7.82c0-1.53-0.32-2.65-0.96-3.34
			c-0.64-0.7-1.65-1.04-3.02-1.04c-0.78,0-1.47,0.11-2.08,0.34s-1.08,0.57-1.42,1.02c-0.34,0.46-0.52,1.03-0.52,1.71h-4.1
			c0-1.38,0.34-2.5,1.01-3.35c0.68-0.86,1.62-1.48,2.84-1.88c1.22-0.4,2.64-0.59,4.26-0.59c1.52,0,2.86,0.25,4.02,0.75
			s2.06,1.28,2.7,2.35c0.64,1.07,0.97,2.44,0.97,4.13v12.03H813.55z"/>
		<path class="st2" d="M63.83,228.26h3.53v16.18h4.31v3.16h-4.31v5.81h-3.67v-5.81H50.96v-2.83L63.83,228.26z M63.85,233.91
			l-8.5,10.86h8.5V233.91z"/>
		<path class="st2" d="M84.3,253.92c-1.99,0-3.73-0.47-5.24-1.42s-2.67-2.38-3.5-4.29c-0.83-1.91-1.25-4.32-1.25-7.21
			c0-2.89,0.42-5.29,1.25-7.2c0.83-1.91,2-3.33,3.5-4.27c1.5-0.94,3.25-1.4,5.24-1.4c1.98,0,3.71,0.47,5.21,1.4
			c1.49,0.94,2.66,2.36,3.5,4.27c0.84,1.91,1.26,4.31,1.26,7.2c0,2.9-0.42,5.3-1.26,7.21c-0.84,1.91-2.01,3.34-3.5,4.29
			C88.01,253.44,86.28,253.92,84.3,253.92z M84.3,250.51c1.98,0,3.49-0.82,4.55-2.47s1.59-3.99,1.59-7.05
			c0-3.04-0.53-5.39-1.59-7.04c-1.06-1.65-2.58-2.48-4.55-2.48s-3.49,0.83-4.55,2.48c-1.06,1.65-1.59,4-1.59,7.04
			c0,3.05,0.53,5.4,1.59,7.05C80.81,249.68,82.32,250.51,84.3,250.51z"/>
		<path class="st2" d="M108.09,253.92c-1.99,0-3.73-0.47-5.24-1.42s-2.67-2.38-3.5-4.29c-0.83-1.91-1.25-4.32-1.25-7.21
			c0-2.89,0.42-5.29,1.25-7.2c0.83-1.91,2-3.33,3.5-4.27c1.5-0.94,3.25-1.4,5.24-1.4c1.98,0,3.71,0.47,5.21,1.4
			c1.49,0.94,2.66,2.36,3.5,4.27c0.84,1.91,1.26,4.31,1.26,7.2c0,2.9-0.42,5.3-1.26,7.21c-0.84,1.91-2.01,3.34-3.5,4.29
			C111.8,253.44,110.07,253.92,108.09,253.92z M108.09,250.51c1.98,0,3.49-0.82,4.55-2.47s1.59-3.99,1.59-7.05
			c0-3.04-0.53-5.39-1.59-7.04c-1.06-1.65-2.58-2.48-4.55-2.48s-3.49,0.83-4.55,2.48c-1.06,1.65-1.59,4-1.59,7.04
			c0,3.05,0.53,5.4,1.59,7.05C104.6,249.68,106.11,250.51,108.09,250.51z"/>
		<path class="st2" d="M133.28,253.41v-26.66h3.7v26.66H133.28z"/>
		<path class="st2" d="M144.14,234.59h3.71v11.62c0,1.42,0.35,2.49,1.04,3.22s1.67,1.09,2.94,1.09c1.07,0,2-0.28,2.82-0.84
			c0.81-0.56,1.45-1.35,1.91-2.38s0.69-2.24,0.69-3.65h1.19c0,2.2-0.3,4.04-0.9,5.54c-0.6,1.5-1.44,2.63-2.52,3.4
			s-2.34,1.16-3.78,1.16c-1.38,0-2.6-0.25-3.68-0.76c-1.07-0.51-1.91-1.29-2.52-2.35s-0.91-2.43-0.91-4.1V234.59z M157.25,234.59
			h3.72v18.82h-3.72V234.59z"/>
		<path class="st2" d="M175.4,253.92c-1.53,0-2.96-0.41-4.29-1.23c-1.33-0.82-2.39-1.97-3.2-3.45c-0.81-1.48-1.21-3.22-1.21-5.23
			c0-2.11,0.4-3.89,1.21-5.35c0.81-1.46,1.87-2.58,3.2-3.35c1.33-0.77,2.76-1.16,4.29-1.16c1.13,0,2.14,0.18,3.02,0.54
			c0.88,0.36,1.64,0.84,2.28,1.44c0.64,0.6,1.15,1.28,1.55,2.04c0.4,0.75,0.67,1.54,0.83,2.34l-3.76,0.2
			c-0.27-0.97-0.75-1.76-1.43-2.35s-1.52-0.89-2.53-0.89c-0.85,0-1.64,0.24-2.39,0.71s-1.35,1.2-1.81,2.17
			c-0.46,0.97-0.69,2.19-0.69,3.68c0,1.38,0.21,2.55,0.64,3.53c0.43,0.98,1.01,1.72,1.75,2.24c0.74,0.52,1.57,0.78,2.5,0.78
			c1.33,0,2.32-0.32,2.97-0.96c0.66-0.64,0.98-1.53,0.98-2.66h3.76c0,1.31-0.31,2.5-0.92,3.55c-0.61,1.05-1.49,1.89-2.64,2.51
			C178.38,253.61,177,253.92,175.4,253.92z"/>
		<path class="st2" d="M194.4,253.92c-1.57,0-2.88-0.28-3.92-0.83s-1.82-1.28-2.33-2.17c-0.51-0.9-0.77-1.85-0.77-2.87
			c0-1.23,0.31-2.25,0.95-3.05c0.63-0.8,1.5-1.39,2.62-1.79c1.12-0.39,2.4-0.58,3.86-0.58c1,0,1.98,0.09,2.93,0.27
			c0.95,0.18,1.88,0.42,2.81,0.72v2.24c-0.75-0.27-1.59-0.49-2.51-0.65s-1.77-0.24-2.56-0.24c-1.18,0-2.17,0.23-2.96,0.7
			c-0.79,0.47-1.19,1.26-1.19,2.38c0,0.82,0.31,1.52,0.94,2.12c0.62,0.59,1.61,0.89,2.96,0.89c0.99,0,1.86-0.22,2.61-0.67
			c0.75-0.45,1.34-1.01,1.76-1.69c0.42-0.68,0.62-1.35,0.62-2.03h0.9c0,1.3-0.26,2.5-0.79,3.6c-0.53,1.1-1.29,1.98-2.29,2.65
			C197.02,253.58,195.81,253.92,194.4,253.92z M200.67,253.41l-0.47-4.31v-7.82c0-1.53-0.32-2.65-0.96-3.34
			c-0.64-0.7-1.65-1.04-3.02-1.04c-0.78,0-1.47,0.12-2.08,0.34c-0.6,0.23-1.08,0.57-1.42,1.02c-0.34,0.46-0.52,1.03-0.52,1.72h-4.1
			c0-1.38,0.34-2.5,1.01-3.35c0.68-0.86,1.62-1.49,2.84-1.88c1.22-0.4,2.64-0.59,4.26-0.59c1.52,0,2.86,0.25,4.02,0.75
			s2.06,1.28,2.7,2.35c0.64,1.07,0.97,2.44,0.97,4.13v12.03H200.67z"/>
		<path class="st2" d="M217.81,253.92c-1.82,0-3.35-0.26-4.6-0.77s-2.2-1.23-2.86-2.14c-0.66-0.92-1-1.99-1.02-3.23h3.49
			c0.05,1.08,0.48,1.88,1.3,2.4s1.91,0.78,3.31,0.78c0.74,0,1.41-0.12,2.02-0.35s1.08-0.55,1.44-0.96c0.36-0.4,0.54-0.86,0.54-1.37
			c0-0.64-0.23-1.14-0.7-1.51c-0.47-0.37-1.22-0.7-2.26-0.98l-3.84-1.31c-1.53-0.52-2.71-1.21-3.53-2.08
			c-0.82-0.87-1.23-1.9-1.23-3.11c0-1.55,0.69-2.79,2.07-3.73s3.2-1.41,5.48-1.41c2.35,0,4.17,0.5,5.45,1.49
			c1.28,1,1.95,2.24,2,3.73h-3.57c-0.09-0.74-0.46-1.31-1.1-1.71s-1.57-0.6-2.78-0.6c-1.13,0-2.02,0.25-2.66,0.74
			c-0.64,0.49-0.97,1.05-0.97,1.68c0,1.12,0.96,1.95,2.89,2.5l4.04,1.42c1.53,0.49,2.72,1.13,3.55,1.91
			c0.83,0.78,1.25,1.77,1.25,2.96c0,0.96-0.32,1.87-0.96,2.73c-0.64,0.86-1.53,1.56-2.68,2.1
			C220.71,253.65,219.36,253.92,217.81,253.92z"/>
		<path class="st2" d="M241,253.41v-18.76h3.22l0.41,3.53c0.6-1.31,1.42-2.31,2.47-3c1.05-0.69,2.28-1.03,3.69-1.03
			c1.51,0,2.79,0.34,3.83,1.01c1.05,0.68,1.84,1.63,2.39,2.88c0.55,1.24,0.82,2.7,0.82,4.38v11h-3.69v-11c0-1.63-0.39-2.86-1.16-3.7
			c-0.77-0.84-1.82-1.26-3.13-1.26c-1.04,0-1.95,0.28-2.72,0.85c-0.77,0.57-1.37,1.39-1.79,2.48c-0.42,1.09-0.63,2.41-0.63,3.97
			v8.66H241z M266.99,253.41v-11c0-1.63-0.39-2.86-1.16-3.7c-0.77-0.84-1.81-1.26-3.11-1.26c-1.56,0-2.77,0.61-3.62,1.83
			c-0.85,1.22-1.28,2.98-1.28,5.27h-1.62c0-1.81,0.18-3.37,0.53-4.68s0.85-2.39,1.51-3.24c0.66-0.84,1.44-1.47,2.36-1.88
			c0.92-0.41,1.94-0.61,3.07-0.61c1.51,0,2.79,0.34,3.83,1.01c1.05,0.68,1.84,1.63,2.39,2.88c0.55,1.24,0.82,2.7,0.82,4.38v11
			H266.99z"/>
		<path class="st2" d="M283.18,253.92c-1.57,0-2.88-0.28-3.92-0.83s-1.82-1.28-2.33-2.17c-0.51-0.9-0.77-1.85-0.77-2.87
			c0-1.23,0.31-2.25,0.95-3.05c0.63-0.8,1.5-1.39,2.62-1.79c1.12-0.39,2.4-0.58,3.86-0.58c1,0,1.98,0.09,2.93,0.27
			c0.95,0.18,1.88,0.42,2.81,0.72v2.24c-0.75-0.27-1.59-0.49-2.51-0.65s-1.77-0.24-2.56-0.24c-1.18,0-2.17,0.23-2.96,0.7
			c-0.79,0.47-1.19,1.26-1.19,2.38c0,0.82,0.31,1.52,0.94,2.12c0.62,0.59,1.61,0.89,2.96,0.89c0.99,0,1.86-0.22,2.61-0.67
			c0.75-0.45,1.34-1.01,1.76-1.69c0.42-0.68,0.62-1.35,0.62-2.03h0.9c0,1.3-0.26,2.5-0.79,3.6c-0.53,1.1-1.29,1.98-2.29,2.65
			C285.8,253.58,284.59,253.92,283.18,253.92z M289.46,253.41l-0.47-4.31v-7.82c0-1.53-0.32-2.65-0.96-3.34
			c-0.64-0.7-1.65-1.04-3.02-1.04c-0.78,0-1.47,0.12-2.08,0.34c-0.6,0.23-1.08,0.57-1.42,1.02c-0.34,0.46-0.52,1.03-0.52,1.72h-4.1
			c0-1.38,0.34-2.5,1.01-3.35c0.68-0.86,1.62-1.49,2.84-1.88c1.22-0.4,2.64-0.59,4.26-0.59c1.52,0,2.86,0.25,4.02,0.75
			s2.06,1.28,2.7,2.35c0.64,1.07,0.97,2.44,0.97,4.13v12.03H289.46z M283.72,231.65l-1.81-1.48l6.86-7.02l2.52,2.05L283.72,231.65z"
			/>
		<path class="st2" d="M306.6,253.92c-1.82,0-3.35-0.26-4.6-0.77s-2.2-1.23-2.86-2.14c-0.66-0.92-1-1.99-1.02-3.23h3.49
			c0.05,1.08,0.48,1.88,1.3,2.4s1.91,0.78,3.31,0.78c0.74,0,1.41-0.12,2.02-0.35s1.08-0.55,1.44-0.96c0.36-0.4,0.54-0.86,0.54-1.37
			c0-0.64-0.23-1.14-0.7-1.51c-0.47-0.37-1.22-0.7-2.26-0.98l-3.84-1.31c-1.53-0.52-2.71-1.21-3.53-2.08
			c-0.82-0.87-1.23-1.9-1.23-3.11c0-1.55,0.69-2.79,2.07-3.73s3.2-1.41,5.48-1.41c2.35,0,4.17,0.5,5.45,1.49
			c1.28,1,1.95,2.24,2,3.73h-3.57c-0.09-0.74-0.46-1.31-1.1-1.71s-1.57-0.6-2.78-0.6c-1.13,0-2.02,0.25-2.66,0.74
			c-0.64,0.49-0.97,1.05-0.97,1.68c0,1.12,0.96,1.95,2.89,2.5l4.04,1.42c1.53,0.49,2.72,1.13,3.55,1.91
			c0.83,0.78,1.25,1.77,1.25,2.96c0,0.96-0.32,1.87-0.96,2.73c-0.64,0.86-1.53,1.56-2.68,2.1
			C309.49,253.65,308.14,253.92,306.6,253.92z"/>
		<path class="st2" d="M336.51,253.92c-1.51,0-2.92-0.39-4.22-1.18c-1.31-0.79-2.36-1.92-3.17-3.4c-0.81-1.48-1.21-3.26-1.21-5.32
			s0.4-3.83,1.19-5.3c0.79-1.47,1.83-2.6,3.12-3.38c1.29-0.79,2.66-1.18,4.11-1.18c1.26,0,2.4,0.31,3.43,0.93
			c1.03,0.62,1.85,1.55,2.46,2.8c0.61,1.25,0.92,2.82,0.92,4.7h-1.48c0-1.09-0.22-2.02-0.66-2.78c-0.44-0.76-1.02-1.34-1.74-1.74
			c-0.71-0.4-1.5-0.59-2.34-0.59c-0.98,0-1.86,0.26-2.65,0.78c-0.79,0.52-1.42,1.27-1.89,2.24c-0.47,0.98-0.7,2.15-0.7,3.53
			c0,1.44,0.26,2.65,0.77,3.63c0.51,0.98,1.18,1.71,1.99,2.19c0.81,0.49,1.66,0.73,2.54,0.73c0.79,0,1.55-0.18,2.26-0.55
			s1.3-0.9,1.75-1.62c0.45-0.71,0.67-1.59,0.67-2.61h0.9c0,1.61-0.22,3.03-0.65,4.24c-0.44,1.22-1.1,2.17-2,2.86
			C339,253.57,337.87,253.92,336.51,253.92z M346.94,263.08c-1.92-0.51-3.29-1.3-4.08-2.37c-0.8-1.07-1.2-2.58-1.2-4.51v-17.04
			l1.23-4.5h2.46v21.82c0,0.83,0.08,1.49,0.24,1.96c0.16,0.47,0.44,0.85,0.85,1.12c0.4,0.27,0.96,0.53,1.66,0.76L346.94,263.08z"/>
		<path class="st2" d="M352.54,234.59h3.71v11.62c0,1.42,0.35,2.49,1.04,3.22s1.67,1.09,2.94,1.09c1.07,0,2-0.28,2.82-0.84
			c0.81-0.56,1.45-1.35,1.91-2.38s0.69-2.24,0.69-3.65h1.19c0,2.2-0.3,4.04-0.9,5.54c-0.6,1.5-1.44,2.63-2.52,3.4
			s-2.34,1.16-3.78,1.16c-1.38,0-2.6-0.25-3.68-0.76c-1.07-0.51-1.91-1.29-2.52-2.35s-0.91-2.43-0.91-4.1V234.59z M365.64,234.59
			h3.72v18.82h-3.72V234.59z"/>
		<path class="st2" d="M383.7,253.92c-1.61,0-3.07-0.42-4.37-1.25c-1.3-0.83-2.33-1.99-3.09-3.47c-0.76-1.48-1.14-3.2-1.14-5.15
			c0-2.07,0.38-3.84,1.13-5.31c0.75-1.48,1.78-2.61,3.08-3.4c1.3-0.79,2.76-1.19,4.39-1.19c1.46,0,2.7,0.3,3.74,0.89
			s1.88,1.38,2.52,2.38c0.64,0.99,1.08,2.12,1.32,3.38c0.24,1.26,0.28,2.56,0.13,3.9h-13.34v-2.14h10.8l-0.9,0.58
			c0.04-0.7,0-1.4-0.11-2.11c-0.11-0.7-0.32-1.35-0.63-1.94c-0.31-0.59-0.75-1.07-1.32-1.42s-1.28-0.54-2.15-0.54
			c-1.09,0-2.01,0.27-2.74,0.82s-1.29,1.28-1.67,2.19c-0.38,0.92-0.57,1.92-0.57,3.01v1.5c0,1.21,0.18,2.28,0.55,3.22
			c0.36,0.94,0.91,1.67,1.63,2.21c0.72,0.54,1.63,0.81,2.74,0.81c1.08,0,1.97-0.25,2.68-0.76c0.71-0.51,1.15-1.27,1.32-2.28h3.78
			c-0.19,1.22-0.64,2.29-1.35,3.2c-0.7,0.91-1.6,1.62-2.7,2.12S385.09,253.92,383.7,253.92z"/>
		<path class="st2" d="M403.8,234.65h4.15l5.65,15.52h-0.76l4.54-15.52h3.78l-7.12,22.37c-0.65,2.03-1.49,3.54-2.51,4.55
			c-1.02,1.01-2.3,1.51-3.83,1.51c-0.86,0-1.68-0.11-2.47-0.33c-0.79-0.22-1.59-0.55-2.41-0.97v-3.33c0.7,0.49,1.38,0.85,2.03,1.07
			c0.65,0.22,1.33,0.33,2.03,0.33s1.3-0.21,1.8-0.63c0.5-0.42,0.92-0.98,1.27-1.68c0.34-0.7,0.64-1.45,0.89-2.27l0.57-1.85
			L403.8,234.65z"/>
		<path class="st2" d="M432.62,253.92c-1.7,0-3.23-0.37-4.57-1.11c-1.35-0.74-2.41-1.85-3.19-3.31c-0.78-1.47-1.17-3.28-1.17-5.44
			c0-2.2,0.39-4.03,1.17-5.49c0.78-1.46,1.84-2.56,3.19-3.3c1.35-0.74,2.87-1.11,4.57-1.11c1.68,0,3.19,0.37,4.52,1.11
			c1.34,0.74,2.4,1.84,3.17,3.3s1.16,3.29,1.16,5.49c0,2.16-0.39,3.97-1.16,5.44s-1.83,2.57-3.17,3.31
			C435.81,253.55,434.3,253.92,432.62,253.92z M432.51,250.68c1.08,0,2.01-0.26,2.8-0.78c0.79-0.52,1.39-1.28,1.81-2.27
			c0.42-1,0.63-2.19,0.63-3.58c0-2.13-0.43-3.78-1.3-4.95c-0.86-1.17-2.11-1.75-3.73-1.75c-1.09,0-2.03,0.26-2.82,0.79
			c-0.79,0.53-1.39,1.29-1.81,2.28c-0.42,0.99-0.63,2.21-0.63,3.64c0,2.09,0.44,3.72,1.31,4.88
			C429.63,250.1,430.88,250.68,432.51,250.68z"/>
		<path class="st2" d="M444.48,251.23c0-0.73,0.25-1.34,0.75-1.85c0.5-0.51,1.13-0.76,1.9-0.76c0.77,0,1.42,0.25,1.95,0.76
			c0.53,0.51,0.8,1.13,0.8,1.85c0,0.72-0.27,1.32-0.8,1.8c-0.53,0.49-1.18,0.73-1.95,0.73c-0.77,0-1.4-0.25-1.9-0.74
			S444.48,251.93,444.48,251.23z"/>
	</g>
</g>
<path class="st0" d="M877.13,202c-0.71,27-1.42,54-2.13,81c11.21-8.34,23.93-17.03,38.27-25.77c8.74-5.33,17.35-10.23,25.73-14.73
	c-7.31-4.57-14.65-9.23-22.02-13.99C903.22,219.62,889.94,210.78,877.13,202z"/>
</svg>
