<?xml version="1.0" encoding="utf-8"?>
<!-- Generator: Adobe Illustrator 24.0.2, SVG Export Plug-In . SVG Version: 6.00 Build 0)  -->
<svg version="1.1" id="Capa_1" xmlns="http://www.w3.org/2000/svg" xmlns:xlink="http://www.w3.org/1999/xlink" x="0px" y="0px"
	 viewBox="0 0 944 319" style="enable-background:new 0 0 944 319;" xml:space="preserve">
<style type="text/css">
	.st0{fill:#7A7980;}
	.st1{fill:#FFFFFF;}
	.st2{fill:#7A7980;stroke:#7A7980;stroke-miterlimit:10;}
	.st3{fill:none;}
</style>
<g>
	<path class="st0" d="M838.12,302H57.88C33.09,302,13,281.91,13,257.12V57.88C13,33.09,33.09,13,57.88,13h780.24
		C862.91,13,883,33.09,883,57.88v199.24C883,281.91,862.91,302,838.12,302z"/>
</g>
<rect x="66.24" y="55.81" class="st3" width="764.56" height="208.86"/>
<g>
	<g>
		<path class="st1" d="M60.38,86.22c-1.73,0-3.33-0.31-4.78-0.93s-2.62-1.54-3.51-2.77c-0.89-1.23-1.35-2.76-1.39-4.6h3.72
			c0,1.11,0.27,2.01,0.81,2.72c0.54,0.71,1.26,1.23,2.15,1.57c0.89,0.34,1.88,0.51,2.96,0.51c1.09,0,2.06-0.17,2.9-0.5
			c0.84-0.33,1.49-0.78,1.95-1.34c0.46-0.56,0.69-1.2,0.69-1.92c0-0.97-0.3-1.76-0.9-2.35c-0.6-0.59-1.51-1.1-2.74-1.51l-4.74-1.76
			c-2.04-0.76-3.59-1.64-4.66-2.63c-1.07-0.99-1.6-2.38-1.6-4.15c0-2.01,0.79-3.65,2.36-4.91c1.57-1.26,3.79-1.89,6.64-1.89
			c2.71,0,4.81,0.63,6.31,1.88c1.5,1.25,2.36,2.96,2.57,5.12h-3.74c-0.19-1.09-0.7-1.96-1.53-2.6c-0.83-0.64-2.04-0.96-3.61-0.96
			c-1.52,0-2.71,0.33-3.56,0.99c-0.85,0.66-1.28,1.49-1.28,2.49c0,0.83,0.27,1.49,0.81,1.98c0.54,0.49,1.38,0.94,2.53,1.34l5.4,1.98
			c1.85,0.65,3.3,1.53,4.34,2.64c1.04,1.11,1.56,2.51,1.56,4.22c0,1.44-0.37,2.71-1.12,3.82c-0.75,1.11-1.84,1.98-3.28,2.61
			C64.2,85.9,62.45,86.22,60.38,86.22z"/>
		<path class="st1" d="M78.84,62.36c-0.76,0-1.36-0.21-1.79-0.63c-0.43-0.42-0.65-0.99-0.65-1.71c0-0.69,0.22-1.24,0.65-1.65
			c0.43-0.41,1.03-0.61,1.79-0.61c0.75,0,1.34,0.2,1.77,0.61c0.43,0.41,0.65,0.96,0.65,1.65c0,0.72-0.22,1.29-0.65,1.71
			C80.18,62.15,79.59,62.36,78.84,62.36z M76.94,85.7V66.4h3.8v19.3H76.94z"/>
		<path class="st1" d="M95.98,86.22c-1.65,0-3.15-0.43-4.48-1.28c-1.33-0.85-2.39-2.04-3.17-3.56c-0.78-1.52-1.17-3.28-1.17-5.28
			c0-2.12,0.39-3.94,1.16-5.45c0.77-1.51,1.83-2.68,3.16-3.49c1.33-0.81,2.83-1.22,4.5-1.22c1.49,0,2.77,0.3,3.84,0.91
			c1.07,0.61,1.93,1.42,2.58,2.44c0.65,1.02,1.1,2.18,1.35,3.47c0.25,1.29,0.29,2.63,0.13,4H90.2v-2.2h11.08l-0.92,0.6
			c0.04-0.72,0-1.44-0.11-2.16c-0.11-0.72-0.33-1.38-0.65-1.99c-0.32-0.61-0.77-1.09-1.35-1.46S96.93,69,96.04,69
			c-1.12,0-2.06,0.28-2.81,0.84s-1.32,1.31-1.71,2.25s-0.58,1.97-0.58,3.09v1.54c0,1.24,0.19,2.34,0.56,3.3
			c0.37,0.96,0.93,1.72,1.67,2.27c0.74,0.55,1.68,0.83,2.81,0.83c1.11,0,2.02-0.26,2.75-0.78c0.73-0.52,1.18-1.3,1.35-2.34h3.88
			c-0.2,1.25-0.66,2.35-1.38,3.28c-0.72,0.93-1.64,1.66-2.77,2.17C98.68,85.96,97.41,86.22,95.98,86.22z"/>
		<path class="st1" d="M109.9,85.7V66.46h3.3l0.42,3.62c0.61-1.35,1.46-2.37,2.53-3.08c1.07-0.71,2.34-1.06,3.79-1.06
			c1.55,0,2.86,0.35,3.93,1.04c1.07,0.69,1.89,1.68,2.45,2.95c0.56,1.27,0.84,2.77,0.84,4.49V85.7h-3.78V74.42
			c0-1.67-0.4-2.93-1.19-3.79c-0.79-0.86-1.86-1.29-3.21-1.29c-1.07,0-2,0.29-2.79,0.87c-0.79,0.58-1.41,1.43-1.84,2.54
			c-0.43,1.11-0.65,2.47-0.65,4.07v8.88H109.9z M136.56,85.7V74.42c0-1.67-0.4-2.93-1.19-3.79c-0.79-0.86-1.86-1.29-3.19-1.29
			c-1.6,0-2.84,0.63-3.71,1.88c-0.87,1.25-1.31,3.05-1.31,5.4h-1.66c0-1.85,0.18-3.45,0.54-4.8c0.36-1.35,0.88-2.45,1.55-3.32
			c0.67-0.87,1.48-1.51,2.42-1.93c0.94-0.42,1.99-0.63,3.15-0.63c1.55,0,2.86,0.35,3.93,1.04c1.07,0.69,1.89,1.68,2.45,2.95
			c0.56,1.27,0.84,2.77,0.84,4.49V85.7H136.56z"/>
		<path class="st1" d="M147.54,95.14V66.46h3.14l0.66,4.62v24.06H147.54z M156.66,86.22c-1.4,0-2.61-0.32-3.64-0.95
			c-1.03-0.63-1.81-1.57-2.35-2.8c-0.54-1.23-0.81-2.76-0.81-4.59h1.48c0,1.05,0.23,1.94,0.68,2.67s1.05,1.28,1.79,1.66
			c0.74,0.38,1.53,0.57,2.37,0.57c0.88,0,1.74-0.25,2.57-0.75s1.52-1.25,2.05-2.25s0.8-2.24,0.8-3.72c0-1.41-0.24-2.62-0.71-3.62
			c-0.47-1-1.12-1.77-1.93-2.3c-0.81-0.53-1.73-0.8-2.74-0.8c-0.85,0-1.65,0.2-2.4,0.61s-1.35,1-1.8,1.78
			c-0.45,0.78-0.68,1.73-0.68,2.85h-1.48c0-1.93,0.31-3.54,0.93-4.82c0.62-1.28,1.46-2.24,2.51-2.87s2.22-0.95,3.5-0.95
			c1.51,0,2.92,0.4,4.24,1.21s2.39,1.96,3.21,3.47c0.82,1.51,1.23,3.32,1.23,5.44c0,2.12-0.41,3.94-1.24,5.46
			c-0.83,1.52-1.91,2.68-3.25,3.49C159.65,85.81,158.21,86.22,156.66,86.22z"/>
		<path class="st1" d="M171.36,85.7V66.4h3.8v19.3H171.36z M174.12,77.1c0-2.47,0.26-4.52,0.77-6.15s1.23-2.85,2.16-3.65
			c0.93-0.8,2.02-1.2,3.27-1.2c0.37,0,0.72,0.03,1.05,0.08c0.33,0.05,0.65,0.13,0.97,0.22l-0.14,3.78
			c-0.36-0.09-0.75-0.18-1.17-0.25s-0.8-0.11-1.15-0.11c-1.09,0-1.99,0.29-2.68,0.87c-0.69,0.58-1.21,1.41-1.54,2.5
			c-0.33,1.09-0.5,2.39-0.5,3.91H174.12z"/>
		<path class="st1" d="M193.24,86.22c-1.65,0-3.15-0.43-4.48-1.28c-1.33-0.85-2.39-2.04-3.17-3.56c-0.78-1.52-1.17-3.28-1.17-5.28
			c0-2.12,0.39-3.94,1.16-5.45c0.77-1.51,1.83-2.68,3.16-3.49c1.33-0.81,2.83-1.22,4.5-1.22c1.49,0,2.77,0.3,3.84,0.91
			c1.07,0.61,1.93,1.42,2.58,2.44s1.1,2.18,1.35,3.47c0.25,1.29,0.29,2.63,0.13,4h-13.68v-2.2h11.08l-0.92,0.6
			c0.04-0.72,0-1.44-0.11-2.16c-0.11-0.72-0.33-1.38-0.65-1.99c-0.32-0.61-0.77-1.09-1.35-1.46c-0.58-0.37-1.32-0.55-2.21-0.55
			c-1.12,0-2.06,0.28-2.81,0.84c-0.75,0.56-1.32,1.31-1.71,2.25s-0.58,1.97-0.58,3.09v1.54c0,1.24,0.19,2.34,0.56,3.3
			c0.37,0.96,0.93,1.72,1.67,2.27c0.74,0.55,1.68,0.83,2.81,0.83c1.11,0,2.02-0.26,2.75-0.78c0.73-0.52,1.18-1.3,1.35-2.34h3.88
			c-0.2,1.25-0.66,2.35-1.38,3.28c-0.72,0.93-1.64,1.66-2.77,2.17S194.67,86.22,193.24,86.22z"/>
		<path class="st1" d="M214.98,69.04v-2.58h10.62v2.58H214.98z M218,85.7V63.76c0-1.33,0.26-2.42,0.77-3.25
			c0.51-0.83,1.2-1.45,2.05-1.85s1.79-0.6,2.82-0.6c0.59,0,1.19,0.04,1.81,0.12c0.62,0.08,1.23,0.2,1.83,0.36l-0.72,2.96
			c-0.37-0.13-0.75-0.24-1.13-0.32s-0.74-0.12-1.09-0.12c-0.41,0-0.81,0.08-1.2,0.23c-0.39,0.15-0.7,0.43-0.95,0.83
			s-0.37,0.97-0.37,1.7V85.7H218z"/>
		<path class="st1" d="M230.56,66.4h3.8v11.92c0,1.45,0.36,2.55,1.07,3.3c0.71,0.75,1.72,1.12,3.01,1.12c1.09,0,2.06-0.29,2.89-0.86
			c0.83-0.57,1.49-1.39,1.96-2.44c0.47-1.05,0.71-2.3,0.71-3.74h1.22c0,2.25-0.31,4.15-0.92,5.68s-1.47,2.7-2.58,3.49
			c-1.11,0.79-2.4,1.19-3.88,1.19c-1.41,0-2.67-0.26-3.77-0.78s-1.96-1.32-2.58-2.41c-0.62-1.09-0.93-2.49-0.93-4.21V66.4z
			 M244,66.4h3.82v19.3H244V66.4z"/>
		<path class="st1" d="M257.82,62.36c-0.76,0-1.36-0.21-1.79-0.63c-0.43-0.42-0.65-0.99-0.65-1.71c0-0.69,0.22-1.24,0.65-1.65
			c0.43-0.41,1.03-0.61,1.79-0.61c0.75,0,1.34,0.2,1.77,0.61c0.43,0.41,0.65,0.96,0.65,1.65c0,0.72-0.22,1.29-0.65,1.71
			C259.15,62.15,258.56,62.36,257.82,62.36z M255.92,85.7V66.4h3.8v19.3H255.92z"/>
		<path class="st1" d="M277.82,85.7V58.36h3.8v22.72l-1.22,4.62H277.82z M287.08,86.22c-1.25,0-2.39-0.34-3.41-1.01
			s-1.83-1.67-2.44-2.99c-0.61-1.32-0.91-2.94-0.91-4.86h1.3c0,1.12,0.24,2.09,0.73,2.9c0.49,0.81,1.11,1.44,1.87,1.87
			c0.76,0.43,1.55,0.65,2.38,0.65c0.99,0,1.88-0.27,2.67-0.82c0.79-0.55,1.43-1.33,1.9-2.35c0.47-1.02,0.71-2.22,0.71-3.61
			c0-1.37-0.23-2.56-0.7-3.55c-0.47-0.99-1.1-1.76-1.9-2.3c-0.8-0.54-1.71-0.81-2.72-0.81c-0.85,0-1.66,0.21-2.41,0.62
			c-0.75,0.41-1.36,1.02-1.83,1.83c-0.47,0.81-0.7,1.79-0.7,2.95h-1.3c0-1.88,0.29-3.47,0.88-4.78c0.59-1.31,1.4-2.3,2.45-2.99
			c1.05-0.69,2.28-1.03,3.69-1.03c1.53,0,2.94,0.41,4.21,1.23c1.27,0.82,2.29,1.98,3.06,3.49c0.77,1.51,1.15,3.29,1.15,5.34
			c0,2.07-0.39,3.86-1.18,5.39c-0.79,1.53-1.84,2.71-3.15,3.56S288.66,86.22,287.08,86.22z"/>
		<path class="st1" d="M301.4,66.4h3.8v11.92c0,1.45,0.36,2.55,1.07,3.3c0.71,0.75,1.72,1.12,3.01,1.12c1.09,0,2.06-0.29,2.89-0.86
			c0.83-0.57,1.49-1.39,1.96-2.44c0.47-1.05,0.71-2.3,0.71-3.74h1.22c0,2.25-0.31,4.15-0.92,5.68s-1.47,2.7-2.58,3.49
			c-1.11,0.79-2.4,1.19-3.88,1.19c-1.41,0-2.67-0.26-3.77-0.78s-1.96-1.32-2.58-2.41c-0.62-1.09-0.93-2.49-0.93-4.21V66.4z
			 M314.84,66.4h3.82v19.3h-3.82V66.4z"/>
		<path class="st1" d="M333.36,86.22c-1.65,0-3.15-0.43-4.48-1.28c-1.33-0.85-2.39-2.04-3.17-3.56c-0.78-1.52-1.17-3.28-1.17-5.28
			c0-2.12,0.39-3.94,1.16-5.45c0.77-1.51,1.83-2.68,3.16-3.49c1.33-0.81,2.83-1.22,4.5-1.22c1.49,0,2.77,0.3,3.84,0.91
			c1.07,0.61,1.93,1.42,2.58,2.44s1.1,2.18,1.35,3.47c0.25,1.29,0.29,2.63,0.13,4h-13.68v-2.2h11.08l-0.92,0.6
			c0.04-0.72,0-1.44-0.11-2.16c-0.11-0.72-0.33-1.38-0.65-1.99c-0.32-0.61-0.77-1.09-1.35-1.46c-0.58-0.37-1.32-0.55-2.21-0.55
			c-1.12,0-2.06,0.28-2.81,0.84c-0.75,0.56-1.32,1.31-1.71,2.25s-0.58,1.97-0.58,3.09v1.54c0,1.24,0.19,2.34,0.56,3.3
			c0.37,0.96,0.93,1.72,1.67,2.27c0.74,0.55,1.68,0.83,2.81,0.83c1.11,0,2.02-0.26,2.75-0.78c0.73-0.52,1.18-1.3,1.35-2.34h3.88
			c-0.2,1.25-0.66,2.35-1.38,3.28c-0.72,0.93-1.64,1.66-2.77,2.17S334.78,86.22,333.36,86.22z"/>
		<path class="st1" d="M347.28,85.7V66.46h3.3l0.5,4.16V85.7H347.28z M360.76,85.7V74.42c0-1.67-0.4-2.93-1.19-3.79
			c-0.79-0.86-1.86-1.29-3.21-1.29c-1.07,0-2,0.29-2.79,0.87c-0.79,0.58-1.41,1.43-1.84,2.54c-0.43,1.11-0.65,2.47-0.65,4.07h-1.36
			c0-2.36,0.3-4.35,0.91-5.96s1.48-2.84,2.61-3.67c1.13-0.83,2.49-1.25,4.08-1.25c1.55,0,2.86,0.35,3.93,1.04
			c1.07,0.69,1.89,1.68,2.45,2.95c0.56,1.27,0.84,2.77,0.84,4.49V85.7H360.76z"/>
		<path class="st1" d="M377.38,86.22c-1.61,0-2.95-0.28-4.02-0.85s-1.86-1.31-2.39-2.23s-0.79-1.9-0.79-2.94
			c0-1.27,0.32-2.31,0.97-3.13c0.65-0.82,1.54-1.43,2.69-1.83s2.47-0.6,3.96-0.6c1.03,0,2.03,0.09,3,0.28
			c0.97,0.19,1.93,0.43,2.88,0.74v2.3c-0.77-0.28-1.63-0.5-2.57-0.67c-0.94-0.17-1.82-0.25-2.63-0.25c-1.21,0-2.23,0.24-3.04,0.72
			c-0.81,0.48-1.22,1.29-1.22,2.44c0,0.84,0.32,1.56,0.96,2.17c0.64,0.61,1.65,0.91,3.04,0.91c1.01,0,1.91-0.23,2.68-0.69
			c0.77-0.46,1.37-1.04,1.8-1.73c0.43-0.69,0.64-1.39,0.64-2.08h0.92c0,1.33-0.27,2.56-0.81,3.69c-0.54,1.13-1.32,2.03-2.35,2.72
			S378.83,86.22,377.38,86.22z M383.82,85.7l-0.48-4.42v-8.02c0-1.57-0.33-2.72-0.98-3.43c-0.65-0.71-1.69-1.07-3.1-1.07
			c-0.8,0-1.51,0.12-2.13,0.35s-1.11,0.58-1.46,1.05c-0.35,0.47-0.53,1.05-0.53,1.76h-4.2c0-1.41,0.35-2.56,1.04-3.44
			c0.69-0.88,1.66-1.52,2.91-1.93s2.7-0.61,4.37-0.61c1.56,0,2.93,0.26,4.12,0.77c1.19,0.51,2.11,1.32,2.77,2.41
			c0.66,1.09,0.99,2.51,0.99,4.24V85.7H383.82z"/>
		<path class="st1" d="M411.01,86.22c-1.65,0-3.15-0.43-4.48-1.28c-1.33-0.85-2.39-2.04-3.17-3.56c-0.78-1.52-1.17-3.28-1.17-5.28
			c0-2.12,0.39-3.94,1.16-5.45c0.77-1.51,1.83-2.68,3.16-3.49c1.33-0.81,2.83-1.22,4.5-1.22c1.49,0,2.77,0.3,3.84,0.91
			c1.07,0.61,1.93,1.42,2.58,2.44c0.65,1.02,1.1,2.18,1.35,3.47c0.25,1.29,0.29,2.63,0.13,4h-13.68v-2.2h11.08l-0.92,0.6
			c0.04-0.72,0-1.44-0.11-2.16c-0.11-0.72-0.33-1.38-0.65-1.99c-0.32-0.61-0.77-1.09-1.35-1.46S411.97,69,411.07,69
			c-1.12,0-2.06,0.28-2.81,0.84s-1.32,1.31-1.71,2.25s-0.58,1.97-0.58,3.09v1.54c0,1.24,0.19,2.34,0.56,3.3
			c0.37,0.96,0.93,1.72,1.67,2.27c0.74,0.55,1.68,0.83,2.81,0.83c1.11,0,2.02-0.26,2.75-0.78c0.73-0.52,1.18-1.3,1.35-2.34h3.88
			c-0.2,1.25-0.66,2.35-1.38,3.28c-0.72,0.93-1.64,1.66-2.77,2.17C413.72,85.96,412.44,86.22,411.01,86.22z"/>
		<path class="st1" d="M424.93,85.7V66.46h3.3l0.5,4.16V85.7H424.93z M438.41,85.7V74.42c0-1.67-0.4-2.93-1.19-3.79
			c-0.79-0.86-1.86-1.29-3.21-1.29c-1.07,0-2,0.29-2.79,0.87c-0.79,0.58-1.41,1.43-1.84,2.54c-0.43,1.11-0.65,2.47-0.65,4.07h-1.36
			c0-2.36,0.3-4.35,0.91-5.96c0.61-1.61,1.48-2.84,2.61-3.67c1.13-0.83,2.49-1.25,4.08-1.25c1.55,0,2.86,0.35,3.93,1.04
			c1.07,0.69,1.89,1.68,2.45,2.95c0.56,1.27,0.84,2.77,0.84,4.49V85.7H438.41z"/>
		<path class="st1" d="M459.17,85.7V58.36h3.8V85.7H459.17z"/>
		<path class="st1" d="M476.41,86.22c-1.61,0-2.95-0.28-4.02-0.85s-1.86-1.31-2.39-2.23c-0.53-0.92-0.79-1.9-0.79-2.94
			c0-1.27,0.32-2.31,0.97-3.13c0.65-0.82,1.54-1.43,2.69-1.83c1.15-0.4,2.47-0.6,3.96-0.6c1.03,0,2.03,0.09,3,0.28
			c0.97,0.19,1.93,0.43,2.88,0.74v2.3c-0.77-0.28-1.63-0.5-2.57-0.67c-0.94-0.17-1.82-0.25-2.63-0.25c-1.21,0-2.23,0.24-3.04,0.72
			c-0.81,0.48-1.22,1.29-1.22,2.44c0,0.84,0.32,1.56,0.96,2.17c0.64,0.61,1.65,0.91,3.04,0.91c1.01,0,1.91-0.23,2.68-0.69
			c0.77-0.46,1.37-1.04,1.8-1.73s0.64-1.39,0.64-2.08h0.92c0,1.33-0.27,2.56-0.81,3.69s-1.32,2.03-2.35,2.72
			C479.11,85.87,477.87,86.22,476.41,86.22z M482.85,85.7l-0.48-4.42v-8.02c0-1.57-0.33-2.72-0.98-3.43
			c-0.65-0.71-1.69-1.07-3.1-1.07c-0.8,0-1.51,0.12-2.13,0.35c-0.62,0.23-1.11,0.58-1.46,1.05c-0.35,0.47-0.53,1.05-0.53,1.76h-4.2
			c0-1.41,0.35-2.56,1.04-3.44c0.69-0.88,1.66-1.52,2.91-1.93c1.25-0.41,2.7-0.61,4.37-0.61c1.56,0,2.93,0.26,4.12,0.77
			c1.19,0.51,2.11,1.32,2.77,2.41c0.66,1.09,0.99,2.51,0.99,4.24V85.7H482.85z"/>
		<path class="st1" d="M500.43,86.22c-1.87,0-3.44-0.26-4.72-0.79c-1.28-0.53-2.26-1.26-2.93-2.2c-0.67-0.94-1.02-2.04-1.05-3.31
			h3.58c0.05,1.11,0.5,1.93,1.33,2.46c0.83,0.53,1.96,0.8,3.39,0.8c0.76,0,1.45-0.12,2.07-0.36c0.62-0.24,1.11-0.57,1.48-0.98
			c0.37-0.41,0.55-0.88,0.55-1.4c0-0.65-0.24-1.17-0.72-1.55c-0.48-0.38-1.25-0.72-2.32-1.01l-3.94-1.34
			c-1.57-0.53-2.78-1.24-3.62-2.13s-1.26-1.95-1.26-3.19c0-1.59,0.71-2.86,2.12-3.83c1.41-0.97,3.29-1.45,5.62-1.45
			c2.41,0,4.28,0.51,5.59,1.53c1.31,1.02,2,2.3,2.05,3.83h-3.66c-0.09-0.76-0.47-1.34-1.13-1.75c-0.66-0.41-1.61-0.61-2.85-0.61
			c-1.16,0-2.07,0.25-2.73,0.76c-0.66,0.51-0.99,1.08-0.99,1.72c0,1.15,0.99,2,2.96,2.56l4.14,1.46c1.57,0.51,2.79,1.16,3.64,1.96
			c0.85,0.8,1.28,1.81,1.28,3.04c0,0.99-0.33,1.92-0.98,2.8s-1.57,1.6-2.75,2.15C503.4,85.94,502.02,86.22,500.43,86.22z"/>
		<path class="st1" d="M524.21,85.7V66.46h3.3l0.42,3.62c0.61-1.35,1.46-2.37,2.53-3.08c1.07-0.71,2.34-1.06,3.79-1.06
			c1.55,0,2.86,0.35,3.93,1.04c1.07,0.69,1.89,1.68,2.45,2.95c0.56,1.27,0.84,2.77,0.84,4.49V85.7h-3.78V74.42
			c0-1.67-0.4-2.93-1.19-3.79c-0.79-0.86-1.86-1.29-3.21-1.29c-1.07,0-2,0.29-2.79,0.87c-0.79,0.58-1.41,1.43-1.84,2.54
			c-0.43,1.11-0.65,2.47-0.65,4.07v8.88H524.21z M550.87,85.7V74.42c0-1.67-0.4-2.93-1.19-3.79c-0.79-0.86-1.86-1.29-3.19-1.29
			c-1.6,0-2.84,0.63-3.71,1.88c-0.87,1.25-1.31,3.05-1.31,5.4h-1.66c0-1.85,0.18-3.45,0.54-4.8s0.88-2.45,1.55-3.32
			c0.67-0.87,1.48-1.51,2.42-1.93s1.99-0.63,3.15-0.63c1.55,0,2.86,0.35,3.93,1.04c1.07,0.69,1.89,1.68,2.45,2.95
			c0.56,1.27,0.84,2.77,0.84,4.49V85.7H550.87z"/>
		<path class="st1" d="M567.47,86.22c-1.61,0-2.95-0.28-4.02-0.85s-1.86-1.31-2.39-2.23c-0.53-0.92-0.79-1.9-0.79-2.94
			c0-1.27,0.32-2.31,0.97-3.13c0.65-0.82,1.54-1.43,2.69-1.83c1.15-0.4,2.47-0.6,3.96-0.6c1.03,0,2.03,0.09,3,0.28
			c0.97,0.19,1.93,0.43,2.88,0.74v2.3c-0.77-0.28-1.63-0.5-2.57-0.67c-0.94-0.17-1.82-0.25-2.63-0.25c-1.21,0-2.23,0.24-3.04,0.72
			c-0.81,0.48-1.22,1.29-1.22,2.44c0,0.84,0.32,1.56,0.96,2.17c0.64,0.61,1.65,0.91,3.04,0.91c1.01,0,1.91-0.23,2.68-0.69
			c0.77-0.46,1.37-1.04,1.8-1.73s0.64-1.39,0.64-2.08h0.92c0,1.33-0.27,2.56-0.81,3.69s-1.32,2.03-2.35,2.72
			C570.17,85.87,568.93,86.22,567.47,86.22z M573.91,85.7l-0.48-4.42v-8.02c0-1.57-0.33-2.72-0.98-3.43
			c-0.65-0.71-1.69-1.07-3.1-1.07c-0.8,0-1.51,0.12-2.13,0.35c-0.62,0.23-1.11,0.58-1.46,1.05c-0.35,0.47-0.53,1.05-0.53,1.76h-4.2
			c0-1.41,0.35-2.56,1.04-3.44c0.69-0.88,1.66-1.52,2.91-1.93c1.25-0.41,2.7-0.61,4.37-0.61c1.56,0,2.93,0.26,4.12,0.77
			c1.19,0.51,2.11,1.32,2.77,2.41c0.66,1.09,0.99,2.51,0.99,4.24V85.7H573.91z"/>
		<path class="st1" d="M581.87,69.04v-2.58h12.42v2.58H581.87z M590.63,86.22c-1.09,0-2.08-0.21-2.96-0.62
			c-0.88-0.41-1.58-1.04-2.09-1.87c-0.51-0.83-0.77-1.88-0.77-3.15V61.22h3.78v19.24c0,1.81,0.85,2.72,2.54,2.72
			c0.52,0,1.03-0.06,1.52-0.17c0.49-0.11,1.05-0.28,1.68-0.51l0.54,2.7c-0.71,0.29-1.4,0.54-2.09,0.73
			C592.1,86.12,591.38,86.22,590.63,86.22z"/>
		<path class="st1" d="M606.71,86.22c-1.65,0-3.15-0.43-4.48-1.28c-1.33-0.85-2.39-2.04-3.17-3.56c-0.78-1.52-1.17-3.28-1.17-5.28
			c0-2.12,0.39-3.94,1.16-5.45c0.77-1.51,1.83-2.68,3.16-3.49c1.33-0.81,2.83-1.22,4.5-1.22c1.49,0,2.77,0.3,3.84,0.91
			c1.07,0.61,1.93,1.42,2.58,2.44c0.65,1.02,1.1,2.18,1.35,3.47c0.25,1.29,0.29,2.63,0.13,4h-13.68v-2.2h11.08l-0.92,0.6
			c0.04-0.72,0-1.44-0.11-2.16c-0.11-0.72-0.33-1.38-0.65-1.99c-0.32-0.61-0.77-1.09-1.35-1.46S607.67,69,606.77,69
			c-1.12,0-2.06,0.28-2.81,0.84s-1.32,1.31-1.71,2.25s-0.58,1.97-0.58,3.09v1.54c0,1.24,0.19,2.34,0.56,3.3
			c0.37,0.96,0.93,1.72,1.67,2.27c0.74,0.55,1.68,0.83,2.81,0.83c1.11,0,2.02-0.26,2.75-0.78c0.73-0.52,1.18-1.3,1.35-2.34h3.88
			c-0.2,1.25-0.66,2.35-1.38,3.28c-0.72,0.93-1.64,1.66-2.77,2.17C609.42,85.96,608.14,86.22,606.71,86.22z"/>
		<path class="st1" d="M620.63,85.7V66.46h3.3l0.42,3.62c0.61-1.35,1.46-2.37,2.53-3.08c1.07-0.71,2.34-1.06,3.79-1.06
			c1.55,0,2.86,0.35,3.93,1.04c1.07,0.69,1.89,1.68,2.45,2.95c0.56,1.27,0.84,2.77,0.84,4.49V85.7h-3.78V74.42
			c0-1.67-0.4-2.93-1.19-3.79c-0.79-0.86-1.86-1.29-3.21-1.29c-1.07,0-2,0.29-2.79,0.87c-0.79,0.58-1.41,1.43-1.84,2.54
			c-0.43,1.11-0.65,2.47-0.65,4.07v8.88H620.63z M647.29,85.7V74.42c0-1.67-0.4-2.93-1.19-3.79c-0.79-0.86-1.86-1.29-3.19-1.29
			c-1.6,0-2.84,0.63-3.71,1.88c-0.87,1.25-1.31,3.05-1.31,5.4h-1.66c0-1.85,0.18-3.45,0.54-4.8c0.36-1.35,0.88-2.45,1.55-3.32
			c0.67-0.87,1.48-1.51,2.42-1.93c0.94-0.42,1.99-0.63,3.15-0.63c1.55,0,2.86,0.35,3.93,1.04c1.07,0.69,1.89,1.68,2.45,2.95
			c0.56,1.27,0.84,2.77,0.84,4.49V85.7H647.29z"/>
		<path class="st1" d="M663.89,86.22c-1.61,0-2.95-0.28-4.02-0.85s-1.86-1.31-2.39-2.23s-0.79-1.9-0.79-2.94
			c0-1.27,0.32-2.31,0.97-3.13c0.65-0.82,1.54-1.43,2.69-1.83s2.47-0.6,3.96-0.6c1.03,0,2.03,0.09,3,0.28
			c0.97,0.19,1.93,0.43,2.88,0.74v2.3c-0.77-0.28-1.63-0.5-2.57-0.67c-0.94-0.17-1.82-0.25-2.63-0.25c-1.21,0-2.23,0.24-3.04,0.72
			c-0.81,0.48-1.22,1.29-1.22,2.44c0,0.84,0.32,1.56,0.96,2.17c0.64,0.61,1.65,0.91,3.04,0.91c1.01,0,1.91-0.23,2.68-0.69
			c0.77-0.46,1.37-1.04,1.8-1.73c0.43-0.69,0.64-1.39,0.64-2.08h0.92c0,1.33-0.27,2.56-0.81,3.69c-0.54,1.13-1.32,2.03-2.35,2.72
			S665.34,86.22,663.89,86.22z M670.33,85.7l-0.48-4.42v-8.02c0-1.57-0.33-2.72-0.98-3.43c-0.65-0.71-1.69-1.07-3.1-1.07
			c-0.8,0-1.51,0.12-2.13,0.35s-1.11,0.58-1.46,1.05c-0.35,0.47-0.53,1.05-0.53,1.76h-4.2c0-1.41,0.35-2.56,1.04-3.44
			c0.69-0.88,1.66-1.52,2.91-1.93s2.7-0.61,4.37-0.61c1.56,0,2.93,0.26,4.12,0.77c1.19,0.51,2.11,1.32,2.77,2.41
			c0.66,1.09,0.99,2.51,0.99,4.24V85.7H670.33z M664.45,63.38l-1.86-1.52l7.04-7.2l2.58,2.1L664.45,63.38z"/>
		<path class="st1" d="M678.29,69.04v-2.58h12.42v2.58H678.29z M687.05,86.22c-1.09,0-2.08-0.21-2.96-0.62
			c-0.88-0.41-1.58-1.04-2.09-1.87c-0.51-0.83-0.77-1.88-0.77-3.15V61.22h3.78v19.24c0,1.81,0.85,2.72,2.54,2.72
			c0.52,0,1.03-0.06,1.52-0.17s1.05-0.28,1.68-0.51l0.54,2.7c-0.71,0.29-1.4,0.54-2.09,0.73C688.51,86.12,687.8,86.22,687.05,86.22z
			"/>
		<path class="st1" d="M698.43,62.36c-0.76,0-1.36-0.21-1.79-0.63c-0.43-0.42-0.65-0.99-0.65-1.71c0-0.69,0.22-1.24,0.65-1.65
			c0.43-0.41,1.03-0.61,1.79-0.61c0.75,0,1.34,0.2,1.77,0.61c0.43,0.41,0.65,0.96,0.65,1.65c0,0.72-0.22,1.29-0.65,1.71
			C699.77,62.15,699.18,62.36,698.43,62.36z M696.53,85.7V66.4h3.8v19.3H696.53z"/>
		<path class="st1" d="M715.67,86.22c-1.57,0-3.04-0.42-4.4-1.26c-1.36-0.84-2.45-2.02-3.28-3.54c-0.83-1.52-1.24-3.31-1.24-5.36
			c0-2.16,0.41-3.99,1.24-5.49c0.83-1.5,1.92-2.65,3.28-3.44c1.36-0.79,2.83-1.19,4.4-1.19c1.16,0,2.19,0.18,3.1,0.55
			c0.91,0.37,1.69,0.86,2.34,1.48c0.65,0.62,1.18,1.32,1.59,2.09c0.41,0.77,0.69,1.57,0.85,2.4l-3.86,0.2
			c-0.28-1-0.77-1.8-1.47-2.41c-0.7-0.61-1.56-0.91-2.59-0.91c-0.87,0-1.68,0.24-2.45,0.73c-0.77,0.49-1.39,1.23-1.86,2.22
			c-0.47,0.99-0.71,2.25-0.71,3.77c0,1.41,0.22,2.62,0.66,3.62c0.44,1,1.04,1.77,1.8,2.3s1.61,0.8,2.56,0.8
			c1.36,0,2.38-0.33,3.05-0.99c0.67-0.66,1.01-1.57,1.01-2.73h3.86c0,1.35-0.31,2.56-0.94,3.64s-1.53,1.94-2.71,2.57
			C718.72,85.9,717.31,86.22,715.67,86.22z"/>
		<path class="st1" d="M735.15,86.22c-1.61,0-2.95-0.28-4.02-0.85c-1.07-0.57-1.86-1.31-2.39-2.23c-0.53-0.92-0.79-1.9-0.79-2.94
			c0-1.27,0.32-2.31,0.97-3.13c0.65-0.82,1.54-1.43,2.69-1.83s2.47-0.6,3.96-0.6c1.03,0,2.03,0.09,3,0.28
			c0.97,0.19,1.93,0.43,2.88,0.74v2.3c-0.77-0.28-1.63-0.5-2.57-0.67c-0.94-0.17-1.82-0.25-2.63-0.25c-1.21,0-2.23,0.24-3.04,0.72
			s-1.22,1.29-1.22,2.44c0,0.84,0.32,1.56,0.96,2.17c0.64,0.61,1.65,0.91,3.04,0.91c1.01,0,1.91-0.23,2.68-0.69
			c0.77-0.46,1.37-1.04,1.8-1.73s0.64-1.39,0.64-2.08h0.92c0,1.33-0.27,2.56-0.81,3.69s-1.32,2.03-2.35,2.72
			C737.84,85.87,736.6,86.22,735.15,86.22z M741.59,85.7l-0.48-4.42v-8.02c0-1.57-0.33-2.72-0.98-3.43
			c-0.65-0.71-1.69-1.07-3.1-1.07c-0.8,0-1.51,0.12-2.13,0.35c-0.62,0.23-1.11,0.58-1.46,1.05c-0.35,0.47-0.53,1.05-0.53,1.76h-4.2
			c0-1.41,0.35-2.56,1.04-3.44c0.69-0.88,1.66-1.52,2.91-1.93c1.25-0.41,2.7-0.61,4.37-0.61c1.56,0,2.93,0.26,4.12,0.77
			c1.19,0.51,2.11,1.32,2.77,2.41c0.66,1.09,0.99,2.51,0.99,4.24V85.7H741.59z"/>
		<path class="st1" d="M759.17,86.22c-1.87,0-3.44-0.26-4.72-0.79c-1.28-0.53-2.26-1.26-2.93-2.2c-0.67-0.94-1.02-2.04-1.05-3.31
			h3.58c0.05,1.11,0.5,1.93,1.33,2.46c0.83,0.53,1.96,0.8,3.39,0.8c0.76,0,1.45-0.12,2.07-0.36c0.62-0.24,1.11-0.57,1.48-0.98
			c0.37-0.41,0.55-0.88,0.55-1.4c0-0.65-0.24-1.17-0.72-1.55c-0.48-0.38-1.25-0.72-2.32-1.01l-3.94-1.34
			c-1.57-0.53-2.78-1.24-3.62-2.13s-1.26-1.95-1.26-3.19c0-1.59,0.71-2.86,2.12-3.83c1.41-0.97,3.29-1.45,5.62-1.45
			c2.41,0,4.28,0.51,5.59,1.53c1.31,1.02,2,2.3,2.05,3.83h-3.66c-0.09-0.76-0.47-1.34-1.13-1.75s-1.61-0.61-2.85-0.61
			c-1.16,0-2.07,0.25-2.73,0.76c-0.66,0.51-0.99,1.08-0.99,1.72c0,1.15,0.99,2,2.96,2.56l4.14,1.46c1.57,0.51,2.79,1.16,3.64,1.96
			c0.85,0.8,1.28,1.81,1.28,3.04c0,0.99-0.33,1.92-0.98,2.8s-1.57,1.6-2.75,2.15C762.14,85.94,760.76,86.22,759.17,86.22z"/>
		<path class="st1" d="M773.23,90.52l-2.84-1.42c0.81-0.41,1.51-0.87,2.1-1.38c0.59-0.51,0.97-1.11,1.16-1.82
			c-0.64-0.09-1.19-0.34-1.64-0.74c-0.45-0.4-0.68-0.93-0.68-1.58c0-0.67,0.25-1.23,0.75-1.69c0.5-0.46,1.14-0.69,1.91-0.69
			c0.97,0,1.75,0.35,2.33,1.04c0.58,0.69,0.87,1.52,0.87,2.48c0,1.11-0.34,2.19-1.03,3.25C775.47,89.03,774.5,89.88,773.23,90.52z"
			/>
		<path class="st1" d="M788.99,66.46h4.26l5.8,15.92h-0.78l4.66-15.92h3.88l-7.3,22.94c-0.67,2.08-1.52,3.64-2.57,4.67
			c-1.05,1.03-2.36,1.55-3.93,1.55c-0.88,0-1.72-0.11-2.53-0.34c-0.81-0.23-1.63-0.56-2.47-1v-3.42c0.72,0.51,1.41,0.87,2.08,1.1
			c0.67,0.23,1.36,0.34,2.08,0.34c0.72,0,1.34-0.22,1.85-0.65c0.51-0.43,0.95-1.01,1.3-1.72c0.35-0.71,0.66-1.49,0.91-2.33l0.58-1.9
			L788.99,66.46z"/>
		<path class="st1" d="M58.8,134.22c-1.55,0-2.99-0.4-4.33-1.21c-1.34-0.81-2.42-1.97-3.25-3.49c-0.83-1.52-1.24-3.34-1.24-5.46
			c0-2.12,0.41-3.93,1.22-5.44s1.88-2.66,3.2-3.47s2.73-1.21,4.22-1.21c1.29,0,2.47,0.32,3.52,0.95c1.05,0.63,1.89,1.59,2.52,2.87
			c0.63,1.28,0.94,2.89,0.94,4.82h-1.52c0-1.12-0.23-2.07-0.68-2.85c-0.45-0.78-1.05-1.37-1.78-1.78s-1.53-0.61-2.4-0.61
			c-1,0-1.91,0.27-2.72,0.8c-0.81,0.53-1.46,1.3-1.94,2.3c-0.48,1-0.72,2.21-0.72,3.62c0,1.48,0.26,2.72,0.79,3.72
			s1.21,1.75,2.04,2.25c0.83,0.5,1.7,0.75,2.61,0.75c0.81,0,1.59-0.19,2.32-0.56c0.73-0.37,1.33-0.93,1.79-1.66
			c0.46-0.73,0.69-1.63,0.69-2.68H65c0,1.65-0.22,3.1-0.67,4.35c-0.45,1.25-1.13,2.22-2.05,2.93
			C61.36,133.86,60.2,134.22,58.8,134.22z M69.5,143.62c-1.97-0.52-3.37-1.33-4.19-2.43c-0.82-1.1-1.23-2.64-1.23-4.63v-17.48
			l1.26-4.62h2.52v22.38c0,0.85,0.08,1.52,0.25,2.01c0.17,0.49,0.46,0.87,0.87,1.15c0.41,0.28,0.98,0.54,1.7,0.78L69.5,143.62z"/>
		<path class="st1" d="M75.24,114.4h3.8v11.92c0,1.45,0.36,2.55,1.07,3.3s1.72,1.12,3.01,1.12c1.09,0,2.06-0.29,2.89-0.86
			c0.83-0.57,1.49-1.39,1.96-2.44c0.47-1.05,0.71-2.3,0.71-3.74h1.22c0,2.25-0.31,4.15-0.92,5.68c-0.61,1.53-1.47,2.7-2.58,3.49
			c-1.11,0.79-2.4,1.19-3.88,1.19c-1.41,0-2.67-0.26-3.77-0.78c-1.1-0.52-1.96-1.32-2.58-2.41c-0.62-1.09-0.93-2.49-0.93-4.21V114.4
			z M88.68,114.4h3.82v19.3h-3.82V114.4z"/>
		<path class="st1" d="M107.2,134.22c-1.65,0-3.15-0.43-4.48-1.28c-1.33-0.85-2.39-2.04-3.17-3.56c-0.78-1.52-1.17-3.28-1.17-5.28
			c0-2.12,0.39-3.94,1.16-5.45s1.83-2.68,3.16-3.49c1.33-0.81,2.83-1.22,4.5-1.22c1.49,0,2.77,0.3,3.84,0.91
			c1.07,0.61,1.93,1.42,2.58,2.44c0.65,1.02,1.1,2.18,1.35,3.47c0.25,1.29,0.29,2.63,0.13,4h-13.68v-2.2h11.08l-0.92,0.6
			c0.04-0.72,0-1.44-0.11-2.16c-0.11-0.72-0.33-1.38-0.65-1.99c-0.32-0.61-0.77-1.09-1.35-1.46c-0.58-0.37-1.32-0.55-2.21-0.55
			c-1.12,0-2.06,0.28-2.81,0.84c-0.75,0.56-1.32,1.31-1.71,2.25c-0.39,0.94-0.58,1.97-0.58,3.09v1.54c0,1.24,0.19,2.34,0.56,3.3
			c0.37,0.96,0.93,1.72,1.67,2.27c0.74,0.55,1.68,0.83,2.81,0.83c1.11,0,2.02-0.26,2.75-0.78c0.73-0.52,1.18-1.3,1.35-2.34h3.88
			c-0.2,1.25-0.66,2.35-1.38,3.28c-0.72,0.93-1.64,1.66-2.77,2.17C109.9,133.96,108.63,134.22,107.2,134.22z"/>
		<path class="st1" d="M121.12,133.7v-19.3h3.8v19.3H121.12z M123.88,125.1c0-2.47,0.26-4.52,0.77-6.15s1.23-2.85,2.16-3.65
			c0.93-0.8,2.02-1.2,3.27-1.2c0.37,0,0.72,0.03,1.05,0.08c0.33,0.05,0.65,0.13,0.97,0.22l-0.14,3.78
			c-0.36-0.09-0.75-0.18-1.17-0.25c-0.42-0.07-0.8-0.11-1.15-0.11c-1.09,0-1.99,0.29-2.68,0.87c-0.69,0.58-1.21,1.41-1.54,2.5
			s-0.5,2.39-0.5,3.91H123.88z"/>
		<path class="st1" d="M137.06,111.38l-1.86-1.52l7.04-7.2l2.58,2.1L137.06,111.38z M136.4,133.7v-19.3h3.8v19.3H136.4z"/>
		<path class="st1" d="M154.16,134.22c-1.61,0-2.95-0.28-4.02-0.85c-1.07-0.57-1.86-1.31-2.39-2.23s-0.79-1.9-0.79-2.94
			c0-1.27,0.32-2.31,0.97-3.13s1.54-1.43,2.69-1.83c1.15-0.4,2.47-0.6,3.96-0.6c1.03,0,2.03,0.09,3,0.28
			c0.97,0.19,1.93,0.43,2.88,0.74v2.3c-0.77-0.28-1.63-0.5-2.57-0.67c-0.94-0.17-1.82-0.25-2.63-0.25c-1.21,0-2.23,0.24-3.04,0.72
			c-0.81,0.48-1.22,1.29-1.22,2.44c0,0.84,0.32,1.56,0.96,2.17s1.65,0.91,3.04,0.91c1.01,0,1.91-0.23,2.68-0.69
			c0.77-0.46,1.37-1.04,1.8-1.73c0.43-0.69,0.64-1.39,0.64-2.08h0.92c0,1.33-0.27,2.56-0.81,3.69c-0.54,1.13-1.32,2.03-2.35,2.72
			C156.85,133.87,155.61,134.22,154.16,134.22z M160.6,133.7l-0.48-4.42v-8.02c0-1.57-0.33-2.72-0.98-3.43
			c-0.65-0.71-1.69-1.07-3.1-1.07c-0.8,0-1.51,0.12-2.13,0.35s-1.11,0.58-1.46,1.05c-0.35,0.47-0.53,1.05-0.53,1.76h-4.2
			c0-1.41,0.35-2.56,1.04-3.44c0.69-0.88,1.66-1.52,2.91-1.93c1.25-0.41,2.7-0.61,4.37-0.61c1.56,0,2.93,0.26,4.12,0.77
			c1.19,0.51,2.11,1.32,2.77,2.41c0.66,1.09,0.99,2.51,0.99,4.24v12.34H160.6z"/>
		<path class="st1" d="M187.8,134.22c-1.65,0-3.15-0.43-4.48-1.28c-1.33-0.85-2.39-2.04-3.17-3.56c-0.78-1.52-1.17-3.28-1.17-5.28
			c0-2.12,0.39-3.94,1.16-5.45s1.83-2.68,3.16-3.49c1.33-0.81,2.83-1.22,4.5-1.22c1.49,0,2.77,0.3,3.84,0.91
			c1.07,0.61,1.93,1.42,2.58,2.44s1.1,2.18,1.35,3.47c0.25,1.29,0.29,2.63,0.13,4h-13.68v-2.2h11.08l-0.92,0.6
			c0.04-0.72,0-1.44-0.11-2.16c-0.11-0.72-0.33-1.38-0.65-1.99c-0.32-0.61-0.77-1.09-1.35-1.46c-0.58-0.37-1.32-0.55-2.21-0.55
			c-1.12,0-2.06,0.28-2.81,0.84c-0.75,0.56-1.32,1.31-1.71,2.25c-0.39,0.94-0.58,1.97-0.58,3.09v1.54c0,1.24,0.19,2.34,0.56,3.3
			c0.37,0.96,0.93,1.72,1.67,2.27c0.74,0.55,1.68,0.83,2.81,0.83c1.11,0,2.02-0.26,2.75-0.78c0.73-0.52,1.18-1.3,1.35-2.34h3.88
			c-0.2,1.25-0.66,2.35-1.38,3.28c-0.72,0.93-1.64,1.66-2.77,2.17S189.22,134.22,187.8,134.22z"/>
		<path class="st1" d="M208.76,134.22c-1.87,0-3.44-0.26-4.72-0.79c-1.28-0.53-2.26-1.26-2.93-2.2c-0.67-0.94-1.02-2.04-1.05-3.31
			h3.58c0.05,1.11,0.5,1.93,1.33,2.46c0.83,0.53,1.96,0.8,3.39,0.8c0.76,0,1.45-0.12,2.07-0.36s1.11-0.57,1.48-0.98
			c0.37-0.41,0.55-0.88,0.55-1.4c0-0.65-0.24-1.17-0.72-1.55c-0.48-0.38-1.25-0.72-2.32-1.01l-3.94-1.34
			c-1.57-0.53-2.78-1.24-3.62-2.13s-1.26-1.95-1.26-3.19c0-1.59,0.71-2.86,2.12-3.83c1.41-0.97,3.29-1.45,5.62-1.45
			c2.41,0,4.28,0.51,5.59,1.53c1.31,1.02,2,2.3,2.05,3.83h-3.66c-0.09-0.76-0.47-1.34-1.13-1.75c-0.66-0.41-1.61-0.61-2.85-0.61
			c-1.16,0-2.07,0.25-2.73,0.76s-0.99,1.08-0.99,1.72c0,1.15,0.99,2,2.96,2.56l4.14,1.46c1.57,0.51,2.79,1.16,3.64,1.96
			c0.85,0.8,1.28,1.81,1.28,3.04c0,0.99-0.33,1.92-0.98,2.8c-0.65,0.88-1.57,1.6-2.75,2.15
			C211.73,133.94,210.34,134.22,208.76,134.22z"/>
		<path class="st1" d="M220.2,117.04v-2.58h12.42v2.58H220.2z M228.96,134.22c-1.09,0-2.08-0.21-2.96-0.62
			c-0.88-0.41-1.58-1.04-2.09-1.87c-0.51-0.83-0.77-1.88-0.77-3.15v-19.36h3.78v19.24c0,1.81,0.85,2.72,2.54,2.72
			c0.52,0,1.03-0.06,1.52-0.17c0.49-0.11,1.05-0.28,1.68-0.51l0.54,2.7c-0.71,0.29-1.4,0.54-2.09,0.73S229.7,134.22,228.96,134.22z"
			/>
		<path class="st1" d="M237.66,114.4h3.8v11.92c0,1.45,0.36,2.55,1.07,3.3s1.72,1.12,3.01,1.12c1.09,0,2.06-0.29,2.89-0.86
			c0.83-0.57,1.49-1.39,1.96-2.44s0.71-2.3,0.71-3.74h1.22c0,2.25-0.31,4.15-0.92,5.68c-0.61,1.53-1.47,2.7-2.58,3.49
			c-1.11,0.79-2.4,1.19-3.88,1.19c-1.41,0-2.67-0.26-3.77-0.78s-1.96-1.32-2.58-2.41s-0.93-2.49-0.93-4.21V114.4z M251.1,114.4h3.82
			v19.3h-3.82V114.4z"/>
		<path class="st1" d="M269.7,134.22c-1.57,0-3.02-0.42-4.34-1.27s-2.37-2.03-3.15-3.56c-0.78-1.53-1.17-3.32-1.17-5.39
			c0-2.05,0.38-3.83,1.15-5.34c0.77-1.51,1.78-2.67,3.05-3.49s2.67-1.23,4.22-1.23c1.41,0,2.65,0.34,3.7,1.03
			c1.05,0.69,1.87,1.68,2.45,2.99c0.58,1.31,0.87,2.9,0.87,4.78h-1.32c0-1.16-0.23-2.14-0.7-2.95c-0.47-0.81-1.07-1.42-1.82-1.83
			c-0.75-0.41-1.55-0.62-2.4-0.62c-1,0-1.9,0.27-2.71,0.81s-1.45,1.31-1.92,2.3c-0.47,0.99-0.71,2.18-0.71,3.55
			c0,1.39,0.24,2.59,0.71,3.61c0.47,1.02,1.11,1.8,1.92,2.35c0.81,0.55,1.7,0.82,2.69,0.82c0.81,0,1.6-0.22,2.35-0.65
			c0.75-0.43,1.37-1.06,1.86-1.87c0.49-0.81,0.73-1.78,0.73-2.9h1.32c0,1.92-0.3,3.54-0.91,4.86c-0.61,1.32-1.42,2.32-2.45,2.99
			S270.95,134.22,269.7,134.22z M275.82,133.7l-0.66-4.62v-22.72h3.82v27.34H275.82z"/>
		<path class="st1" d="M288.97,110.36c-0.76,0-1.36-0.21-1.79-0.63c-0.43-0.42-0.65-0.99-0.65-1.71c0-0.69,0.22-1.24,0.65-1.65
			c0.43-0.41,1.03-0.61,1.79-0.61c0.75,0,1.34,0.2,1.77,0.61c0.43,0.41,0.65,0.96,0.65,1.65c0,0.72-0.22,1.29-0.65,1.71
			C290.31,110.15,289.72,110.36,288.97,110.36z M287.08,133.7v-19.3h3.8v19.3H287.08z"/>
		<path class="st1" d="M304.83,134.22c-1.61,0-2.95-0.28-4.02-0.85s-1.86-1.31-2.39-2.23c-0.53-0.92-0.79-1.9-0.79-2.94
			c0-1.27,0.32-2.31,0.97-3.13c0.65-0.82,1.54-1.43,2.69-1.83c1.15-0.4,2.47-0.6,3.96-0.6c1.03,0,2.03,0.09,3,0.28
			c0.97,0.19,1.93,0.43,2.88,0.74v2.3c-0.77-0.28-1.63-0.5-2.57-0.67s-1.82-0.25-2.63-0.25c-1.21,0-2.23,0.24-3.04,0.72
			c-0.81,0.48-1.22,1.29-1.22,2.44c0,0.84,0.32,1.56,0.96,2.17c0.64,0.61,1.65,0.91,3.04,0.91c1.01,0,1.91-0.23,2.68-0.69
			c0.77-0.46,1.37-1.04,1.8-1.73s0.64-1.39,0.64-2.08h0.92c0,1.33-0.27,2.56-0.81,3.69s-1.32,2.03-2.35,2.72
			C307.53,133.87,306.29,134.22,304.83,134.22z M311.27,133.7l-0.48-4.42v-8.02c0-1.57-0.33-2.72-0.98-3.43s-1.69-1.07-3.1-1.07
			c-0.8,0-1.51,0.12-2.13,0.35c-0.62,0.23-1.11,0.58-1.46,1.05c-0.35,0.47-0.53,1.05-0.53,1.76h-4.2c0-1.41,0.35-2.56,1.04-3.44
			c0.69-0.88,1.66-1.52,2.91-1.93c1.25-0.41,2.7-0.61,4.37-0.61c1.56,0,2.93,0.26,4.12,0.77c1.19,0.51,2.11,1.32,2.77,2.41
			c0.66,1.09,0.99,2.51,0.99,4.24v12.34H311.27z"/>
		<path class="st1" d="M321.81,133.7v-19.3h3.8v19.3H321.81z M324.57,125.1c0-2.47,0.26-4.52,0.77-6.15s1.23-2.85,2.16-3.65
			c0.93-0.8,2.02-1.2,3.27-1.2c0.37,0,0.72,0.03,1.05,0.08c0.33,0.05,0.65,0.13,0.97,0.22l-0.14,3.78
			c-0.36-0.09-0.75-0.18-1.17-0.25c-0.42-0.07-0.8-0.11-1.15-0.11c-1.09,0-1.99,0.29-2.68,0.87c-0.69,0.58-1.21,1.41-1.54,2.5
			s-0.5,2.39-0.5,3.91H324.57z"/>
		<path class="st1" d="M348.75,110.36c-0.76,0-1.36-0.21-1.79-0.63s-0.65-0.99-0.65-1.71c0-0.69,0.22-1.24,0.65-1.65
			c0.43-0.41,1.03-0.61,1.79-0.61c0.75,0,1.34,0.2,1.77,0.61c0.43,0.41,0.65,0.96,0.65,1.65c0,0.72-0.22,1.29-0.65,1.71
			S349.5,110.36,348.75,110.36z M346.85,133.7v-19.3h3.8v19.3H346.85z"/>
		<path class="st1" d="M358.99,133.7v-19.24h3.3l0.5,4.16v15.08H358.99z M372.47,133.7v-11.28c0-1.67-0.4-2.93-1.19-3.79
			c-0.79-0.86-1.86-1.29-3.21-1.29c-1.07,0-2,0.29-2.79,0.87c-0.79,0.58-1.41,1.43-1.84,2.54c-0.43,1.11-0.65,2.47-0.65,4.07h-1.36
			c0-2.36,0.3-4.35,0.91-5.96s1.48-2.84,2.61-3.67c1.13-0.83,2.49-1.25,4.08-1.25c1.55,0,2.86,0.35,3.93,1.04
			c1.07,0.69,1.89,1.68,2.45,2.95c0.56,1.27,0.84,2.77,0.84,4.49v11.28H372.47z"/>
		<path class="st1" d="M390.55,143.62c-2.08,0-3.87-0.29-5.37-0.86c-1.5-0.57-2.66-1.34-3.47-2.3c-0.81-0.96-1.22-2.01-1.22-3.14
			c0-1.44,0.53-2.54,1.58-3.31c1.05-0.77,2.39-1.15,4.02-1.15l2.46,1.16c-1.39,0-2.46,0.28-3.21,0.84s-1.13,1.32-1.13,2.28
			c0,1,0.55,1.82,1.64,2.47c1.09,0.65,2.66,0.97,4.7,0.97c1.48,0,2.78-0.22,3.9-0.65c1.12-0.43,1.99-1,2.6-1.7
			c0.61-0.7,0.92-1.45,0.92-2.25c0-0.55-0.2-1.01-0.59-1.39c-0.39-0.38-0.99-0.57-1.79-0.57h-7.04c-1.31,0-2.46-0.2-3.45-0.61
			s-1.77-0.94-2.33-1.61c-0.56-0.67-0.84-1.41-0.84-2.22c0-0.8,0.23-1.49,0.68-2.07c0.45-0.58,1.05-1.02,1.8-1.32
			c0.75-0.3,1.57-0.45,2.46-0.45l0.86,1.32c-0.39,0-0.77,0.08-1.16,0.25c-0.39,0.17-0.71,0.42-0.96,0.75
			c-0.25,0.33-0.38,0.75-0.38,1.24c0,0.57,0.24,1.05,0.73,1.43c0.49,0.38,1.35,0.57,2.59,0.57h7.04c1.92,0,3.43,0.38,4.52,1.14
			c1.09,0.76,1.64,1.87,1.64,3.32c0,1.32-0.45,2.58-1.36,3.78s-2.2,2.18-3.87,2.94C394.85,143.24,392.86,143.62,390.55,143.62z
			 M390.97,127.92c-1.49,0-2.85-0.29-4.07-0.87c-1.22-0.58-2.19-1.39-2.91-2.44c-0.72-1.05-1.08-2.27-1.08-3.67
			c0-1.41,0.36-2.64,1.08-3.69c0.72-1.05,1.69-1.86,2.91-2.44c1.22-0.58,2.58-0.87,4.07-0.87c1.45,0,2.78,0.29,3.99,0.87
			s2.17,1.39,2.9,2.44c0.73,1.05,1.09,2.28,1.09,3.69c0,1.4-0.36,2.62-1.09,3.67c-0.73,1.05-1.69,1.86-2.9,2.44
			S392.43,127.92,390.97,127.92z M390.97,125.24c1.37,0,2.42-0.41,3.15-1.23c0.73-0.82,1.09-1.84,1.09-3.07
			c0-1.28-0.36-2.31-1.09-3.1c-0.73-0.79-1.78-1.18-3.15-1.18c-1.35,0-2.4,0.39-3.15,1.18c-0.75,0.79-1.13,1.82-1.13,3.1
			c0,1.23,0.38,2.25,1.13,3.07C388.58,124.83,389.63,125.24,390.97,125.24z M397.51,117.02l-1.78-0.86c0-1.15,0.24-2.15,0.72-3
			c0.48-0.85,1.15-1.52,2-2c0.85-0.48,1.83-0.72,2.94-0.72l-0.24,3.7c-1.19,0-2.09,0.23-2.71,0.7
			C397.82,115.3,397.51,116.03,397.51,117.02z"/>
		<path class="st1" d="M413.25,134.22c-1.65,0-3.15-0.43-4.48-1.28c-1.33-0.85-2.39-2.04-3.17-3.56c-0.78-1.52-1.17-3.28-1.17-5.28
			c0-2.12,0.39-3.94,1.16-5.45s1.83-2.68,3.16-3.49c1.33-0.81,2.83-1.22,4.5-1.22c1.49,0,2.77,0.3,3.84,0.91
			c1.07,0.61,1.93,1.42,2.58,2.44s1.1,2.18,1.35,3.47c0.25,1.29,0.29,2.63,0.13,4h-13.68v-2.2h11.08l-0.92,0.6
			c0.04-0.72,0-1.44-0.11-2.16c-0.11-0.72-0.33-1.38-0.65-1.99c-0.32-0.61-0.77-1.09-1.35-1.46c-0.58-0.37-1.32-0.55-2.21-0.55
			c-1.12,0-2.06,0.28-2.81,0.84c-0.75,0.56-1.32,1.31-1.71,2.25c-0.39,0.94-0.58,1.97-0.58,3.09v1.54c0,1.24,0.19,2.34,0.56,3.3
			c0.37,0.96,0.93,1.72,1.67,2.27c0.74,0.55,1.68,0.83,2.81,0.83c1.11,0,2.02-0.26,2.75-0.78c0.73-0.52,1.18-1.3,1.35-2.34h3.88
			c-0.2,1.25-0.66,2.35-1.38,3.28c-0.72,0.93-1.64,1.66-2.77,2.17S414.68,134.22,413.25,134.22z"/>
		<path class="st1" d="M427.17,133.7v-19.24h3.3l0.5,4.16v15.08H427.17z M440.65,133.7v-11.28c0-1.67-0.4-2.93-1.19-3.79
			c-0.79-0.86-1.86-1.29-3.21-1.29c-1.07,0-2,0.29-2.79,0.87c-0.79,0.58-1.41,1.43-1.84,2.54c-0.43,1.11-0.65,2.47-0.65,4.07h-1.36
			c0-2.36,0.3-4.35,0.91-5.96c0.61-1.61,1.48-2.84,2.61-3.67s2.49-1.25,4.08-1.25c1.55,0,2.86,0.35,3.93,1.04
			c1.07,0.69,1.89,1.68,2.45,2.95c0.56,1.27,0.84,2.77,0.84,4.49v11.28H440.65z"/>
		<path class="st1" d="M453.85,110.36c-0.76,0-1.36-0.21-1.79-0.63c-0.43-0.42-0.65-0.99-0.65-1.71c0-0.69,0.22-1.24,0.65-1.65
			c0.43-0.41,1.03-0.61,1.79-0.61c0.75,0,1.34,0.2,1.77,0.61c0.43,0.41,0.65,0.96,0.65,1.65c0,0.72-0.22,1.29-0.65,1.71
			C455.19,110.15,454.6,110.36,453.85,110.36z M451.95,133.7v-19.3h3.8v19.3H451.95z"/>
		<path class="st1" d="M470.99,134.22c-1.65,0-3.15-0.43-4.48-1.28c-1.33-0.85-2.39-2.04-3.17-3.56c-0.78-1.52-1.17-3.28-1.17-5.28
			c0-2.12,0.39-3.94,1.16-5.45c0.77-1.51,1.83-2.68,3.16-3.49c1.33-0.81,2.83-1.22,4.5-1.22c1.49,0,2.77,0.3,3.84,0.91
			c1.07,0.61,1.93,1.42,2.58,2.44c0.65,1.02,1.1,2.18,1.35,3.47c0.25,1.29,0.29,2.63,0.13,4h-13.68v-2.2h11.08l-0.92,0.6
			c0.04-0.72,0-1.44-0.11-2.16c-0.11-0.72-0.33-1.38-0.65-1.99c-0.32-0.61-0.77-1.09-1.35-1.46c-0.58-0.37-1.32-0.55-2.21-0.55
			c-1.12,0-2.06,0.28-2.81,0.84c-0.75,0.56-1.32,1.31-1.71,2.25c-0.39,0.94-0.58,1.97-0.58,3.09v1.54c0,1.24,0.19,2.34,0.56,3.3
			c0.37,0.96,0.93,1.72,1.67,2.27c0.74,0.55,1.68,0.83,2.81,0.83c1.11,0,2.02-0.26,2.75-0.78c0.73-0.52,1.18-1.3,1.35-2.34h3.88
			c-0.2,1.25-0.66,2.35-1.38,3.28c-0.72,0.93-1.64,1.66-2.77,2.17C473.69,133.96,472.42,134.22,470.99,134.22z"/>
		<path class="st1" d="M484.91,133.7v-19.3h3.8v19.3H484.91z M487.67,125.1c0-2.47,0.26-4.52,0.77-6.15s1.23-2.85,2.16-3.65
			c0.93-0.8,2.02-1.2,3.27-1.2c0.37,0,0.72,0.03,1.05,0.08c0.33,0.05,0.65,0.13,0.97,0.22l-0.14,3.78
			c-0.36-0.09-0.75-0.18-1.17-0.25c-0.42-0.07-0.8-0.11-1.15-0.11c-1.09,0-1.99,0.29-2.68,0.87c-0.69,0.58-1.21,1.41-1.54,2.5
			c-0.33,1.09-0.5,2.39-0.5,3.91H487.67z"/>
		<path class="st1" d="M500.85,111.38l-1.86-1.52l7.04-7.2l2.58,2.1L500.85,111.38z M500.19,133.7v-19.3h3.8v19.3H500.19z"/>
		<path class="st1" d="M517.95,134.22c-1.61,0-2.95-0.28-4.02-0.85c-1.07-0.57-1.86-1.31-2.39-2.23c-0.53-0.92-0.79-1.9-0.79-2.94
			c0-1.27,0.32-2.31,0.97-3.13s1.54-1.43,2.69-1.83s2.47-0.6,3.96-0.6c1.03,0,2.03,0.09,3,0.28c0.97,0.19,1.93,0.43,2.88,0.74v2.3
			c-0.77-0.28-1.63-0.5-2.57-0.67s-1.82-0.25-2.63-0.25c-1.21,0-2.23,0.24-3.04,0.72c-0.81,0.48-1.22,1.29-1.22,2.44
			c0,0.84,0.32,1.56,0.96,2.17c0.64,0.61,1.65,0.91,3.04,0.91c1.01,0,1.91-0.23,2.68-0.69c0.77-0.46,1.37-1.04,1.8-1.73
			s0.64-1.39,0.64-2.08h0.92c0,1.33-0.27,2.56-0.81,3.69s-1.32,2.03-2.35,2.72C520.64,133.87,519.4,134.22,517.95,134.22z
			 M524.39,133.7l-0.48-4.42v-8.02c0-1.57-0.33-2.72-0.98-3.43s-1.69-1.07-3.1-1.07c-0.8,0-1.51,0.12-2.13,0.35
			c-0.62,0.23-1.11,0.58-1.46,1.05s-0.53,1.05-0.53,1.76h-4.2c0-1.41,0.35-2.56,1.04-3.44c0.69-0.88,1.66-1.52,2.91-1.93
			c1.25-0.41,2.7-0.61,4.37-0.61c1.56,0,2.93,0.26,4.12,0.77c1.19,0.51,2.11,1.32,2.77,2.41c0.66,1.09,0.99,2.51,0.99,4.24v12.34
			H524.39z"/>
		<path class="st1" d="M534.97,138.52l-2.84-1.42c0.81-0.41,1.51-0.87,2.1-1.38c0.59-0.51,0.97-1.11,1.16-1.82
			c-0.64-0.09-1.19-0.34-1.64-0.74s-0.68-0.93-0.68-1.58c0-0.67,0.25-1.23,0.75-1.69c0.5-0.46,1.14-0.69,1.91-0.69
			c0.97,0,1.75,0.35,2.33,1.04s0.87,1.52,0.87,2.48c0,1.11-0.34,2.19-1.03,3.25C537.21,137.03,536.24,137.88,534.97,138.52z"/>
		<path class="st1" d="M553.79,143.14v-28.68h3.14l0.66,4.62v24.06H553.79z M562.91,134.22c-1.4,0-2.61-0.32-3.64-0.95
			c-1.03-0.63-1.81-1.57-2.35-2.8c-0.54-1.23-0.81-2.76-0.81-4.59h1.48c0,1.05,0.23,1.94,0.68,2.67s1.05,1.28,1.79,1.66
			c0.74,0.38,1.53,0.57,2.37,0.57c0.88,0,1.74-0.25,2.57-0.75c0.83-0.5,1.52-1.25,2.05-2.25c0.53-1,0.8-2.24,0.8-3.72
			c0-1.41-0.24-2.62-0.71-3.62s-1.12-1.77-1.93-2.3c-0.81-0.53-1.73-0.8-2.74-0.8c-0.85,0-1.65,0.2-2.4,0.61
			c-0.75,0.41-1.35,1-1.8,1.78c-0.45,0.78-0.68,1.73-0.68,2.85h-1.48c0-1.93,0.31-3.54,0.93-4.82c0.62-1.28,1.46-2.24,2.51-2.87
			c1.05-0.63,2.22-0.95,3.5-0.95c1.51,0,2.92,0.4,4.24,1.21c1.32,0.81,2.39,1.96,3.21,3.47s1.23,3.32,1.23,5.44
			c0,2.12-0.41,3.94-1.24,5.46c-0.83,1.52-1.91,2.68-3.25,3.49C565.9,133.81,564.46,134.22,562.91,134.22z"/>
		<path class="st1" d="M584.51,134.22c-1.65,0-3.15-0.43-4.48-1.28c-1.33-0.85-2.39-2.04-3.17-3.56c-0.78-1.52-1.17-3.28-1.17-5.28
			c0-2.12,0.39-3.94,1.16-5.45c0.77-1.51,1.83-2.68,3.16-3.49c1.33-0.81,2.83-1.22,4.5-1.22c1.49,0,2.77,0.3,3.84,0.91
			c1.07,0.61,1.93,1.42,2.58,2.44c0.65,1.02,1.1,2.18,1.35,3.47c0.25,1.29,0.29,2.63,0.13,4h-13.68v-2.2h11.08l-0.92,0.6
			c0.04-0.72,0-1.44-0.11-2.16c-0.11-0.72-0.33-1.38-0.65-1.99c-0.32-0.61-0.77-1.09-1.35-1.46c-0.58-0.37-1.32-0.55-2.21-0.55
			c-1.12,0-2.06,0.28-2.81,0.84c-0.75,0.56-1.32,1.31-1.71,2.25c-0.39,0.94-0.58,1.97-0.58,3.09v1.54c0,1.24,0.19,2.34,0.56,3.3
			c0.37,0.96,0.93,1.72,1.67,2.27c0.74,0.55,1.68,0.83,2.81,0.83c1.11,0,2.02-0.26,2.75-0.78c0.73-0.52,1.18-1.3,1.35-2.34h3.88
			c-0.2,1.25-0.66,2.35-1.38,3.28c-0.72,0.93-1.64,1.66-2.77,2.17C587.21,133.96,585.94,134.22,584.51,134.22z"/>
		<path class="st1" d="M598.43,133.7v-19.3h3.8v19.3H598.43z M601.19,125.1c0-2.47,0.26-4.52,0.77-6.15s1.23-2.85,2.16-3.65
			c0.93-0.8,2.02-1.2,3.27-1.2c0.37,0,0.72,0.03,1.05,0.08c0.33,0.05,0.65,0.13,0.97,0.22l-0.14,3.78
			c-0.36-0.09-0.75-0.18-1.17-0.25c-0.42-0.07-0.8-0.11-1.15-0.11c-1.09,0-1.99,0.29-2.68,0.87c-0.69,0.58-1.21,1.41-1.54,2.5
			c-0.33,1.09-0.5,2.39-0.5,3.91H601.19z"/>
		<path class="st1" d="M620.65,134.22c-1.75,0-3.31-0.38-4.69-1.14c-1.38-0.76-2.47-1.89-3.27-3.4c-0.8-1.51-1.2-3.37-1.2-5.58
			c0-2.25,0.4-4.13,1.2-5.63c0.8-1.5,1.89-2.63,3.27-3.39c1.38-0.76,2.94-1.14,4.69-1.14c1.72,0,3.27,0.38,4.64,1.14
			s2.46,1.89,3.25,3.39c0.79,1.5,1.19,3.38,1.19,5.63c0,2.21-0.4,4.07-1.19,5.58c-0.79,1.51-1.88,2.64-3.25,3.4
			S622.37,134.22,620.65,134.22z M620.53,130.9c1.11,0,2.06-0.27,2.87-0.8c0.81-0.53,1.43-1.31,1.86-2.33
			c0.43-1.02,0.65-2.24,0.65-3.67c0-2.19-0.44-3.88-1.33-5.08c-0.89-1.2-2.16-1.8-3.83-1.8c-1.12,0-2.08,0.27-2.89,0.81
			c-0.81,0.54-1.43,1.32-1.86,2.34c-0.43,1.02-0.65,2.26-0.65,3.73c0,2.15,0.45,3.82,1.34,5.01
			C617.58,130.3,618.86,130.9,620.53,130.9z"/>
		<path class="st1" d="M645.37,133.7v-19.24h3.3l0.42,3.62c0.61-1.35,1.46-2.37,2.53-3.08c1.07-0.71,2.34-1.06,3.79-1.06
			c1.55,0,2.86,0.35,3.93,1.04c1.07,0.69,1.89,1.68,2.45,2.95c0.56,1.27,0.84,2.77,0.84,4.49v11.28h-3.78v-11.28
			c0-1.67-0.4-2.93-1.19-3.79c-0.79-0.86-1.86-1.29-3.21-1.29c-1.07,0-2,0.29-2.79,0.87c-0.79,0.58-1.41,1.43-1.84,2.54
			c-0.43,1.11-0.65,2.47-0.65,4.07v8.88H645.37z M672.03,133.7v-11.28c0-1.67-0.4-2.93-1.19-3.79c-0.79-0.86-1.86-1.29-3.19-1.29
			c-1.6,0-2.84,0.63-3.71,1.88c-0.87,1.25-1.31,3.05-1.31,5.4h-1.66c0-1.85,0.18-3.45,0.54-4.8s0.88-2.45,1.55-3.32
			c0.67-0.87,1.48-1.51,2.42-1.93s1.99-0.63,3.15-0.63c1.55,0,2.86,0.35,3.93,1.04s1.89,1.68,2.45,2.95
			c0.56,1.27,0.84,2.77,0.84,4.49v11.28H672.03z"/>
		<path class="st1" d="M682.53,114.4h3.8v11.92c0,1.45,0.36,2.55,1.07,3.3c0.71,0.75,1.72,1.12,3.01,1.12
			c1.09,0,2.06-0.29,2.89-0.86c0.83-0.57,1.49-1.39,1.96-2.44c0.47-1.05,0.71-2.3,0.71-3.74h1.22c0,2.25-0.31,4.15-0.92,5.68
			s-1.47,2.7-2.58,3.49c-1.11,0.79-2.4,1.19-3.88,1.19c-1.41,0-2.67-0.26-3.77-0.78s-1.96-1.32-2.58-2.41
			c-0.62-1.09-0.93-2.49-0.93-4.21V114.4z M695.97,114.4h3.82v19.3h-3.82V114.4z"/>
		<path class="st1" d="M714.59,134.22c-1.57,0-3.04-0.42-4.4-1.26c-1.36-0.84-2.45-2.02-3.28-3.54c-0.83-1.52-1.24-3.31-1.24-5.36
			c0-2.16,0.41-3.99,1.24-5.49c0.83-1.5,1.92-2.65,3.28-3.44c1.36-0.79,2.83-1.19,4.4-1.19c1.16,0,2.19,0.18,3.1,0.55
			c0.91,0.37,1.69,0.86,2.34,1.48c0.65,0.62,1.18,1.32,1.59,2.09c0.41,0.77,0.69,1.57,0.85,2.4l-3.86,0.2
			c-0.28-1-0.77-1.8-1.47-2.41c-0.7-0.61-1.56-0.91-2.59-0.91c-0.87,0-1.68,0.24-2.45,0.73c-0.77,0.49-1.39,1.23-1.86,2.22
			c-0.47,0.99-0.71,2.25-0.71,3.77c0,1.41,0.22,2.62,0.66,3.62c0.44,1,1.04,1.77,1.8,2.3c0.76,0.53,1.61,0.8,2.56,0.8
			c1.36,0,2.38-0.33,3.05-0.99c0.67-0.66,1.01-1.57,1.01-2.73h3.86c0,1.35-0.31,2.56-0.94,3.64s-1.53,1.94-2.71,2.57
			C717.64,133.9,716.23,134.22,714.59,134.22z"/>
		<path class="st1" d="M728.45,133.7v-27.34h3.8v27.34H728.45z M741.93,133.7v-11.28c0-1.67-0.4-2.93-1.19-3.79
			c-0.79-0.86-1.86-1.29-3.21-1.29c-1.07,0-2,0.29-2.79,0.87c-0.79,0.58-1.41,1.43-1.84,2.54s-0.65,2.47-0.65,4.07h-1.36
			c0-2.36,0.3-4.35,0.91-5.96c0.61-1.61,1.48-2.84,2.61-3.67c1.13-0.83,2.49-1.25,4.08-1.25c1.55,0,2.86,0.35,3.93,1.04
			s1.89,1.68,2.45,2.95c0.56,1.27,0.84,2.77,0.84,4.49v11.28H741.93z"/>
		<path class="st1" d="M758.55,134.22c-1.61,0-2.95-0.28-4.02-0.85c-1.07-0.57-1.86-1.31-2.39-2.23s-0.79-1.9-0.79-2.94
			c0-1.27,0.32-2.31,0.97-3.13s1.54-1.43,2.69-1.83c1.15-0.4,2.47-0.6,3.96-0.6c1.03,0,2.03,0.09,3,0.28
			c0.97,0.19,1.93,0.43,2.88,0.74v2.3c-0.77-0.28-1.63-0.5-2.57-0.67c-0.94-0.17-1.82-0.25-2.63-0.25c-1.21,0-2.23,0.24-3.04,0.72
			c-0.81,0.48-1.22,1.29-1.22,2.44c0,0.84,0.32,1.56,0.96,2.17s1.65,0.91,3.04,0.91c1.01,0,1.91-0.23,2.68-0.69
			c0.77-0.46,1.37-1.04,1.8-1.73c0.43-0.69,0.64-1.39,0.64-2.08h0.92c0,1.33-0.27,2.56-0.81,3.69c-0.54,1.13-1.32,2.03-2.35,2.72
			C761.24,133.87,760,134.22,758.55,134.22z M764.99,133.7l-0.48-4.42v-8.02c0-1.57-0.33-2.72-0.98-3.43
			c-0.65-0.71-1.69-1.07-3.1-1.07c-0.8,0-1.51,0.12-2.13,0.35s-1.11,0.58-1.46,1.05c-0.35,0.47-0.53,1.05-0.53,1.76h-4.2
			c0-1.41,0.35-2.56,1.04-3.44c0.69-0.88,1.66-1.52,2.91-1.93c1.25-0.41,2.7-0.61,4.37-0.61c1.56,0,2.93,0.26,4.12,0.77
			c1.19,0.51,2.11,1.32,2.77,2.41c0.66,1.09,0.99,2.51,0.99,4.24v12.34H764.99z"/>
		<path class="st1" d="M58.98,191.62c-2.08,0-3.87-0.29-5.37-0.86c-1.5-0.57-2.66-1.34-3.47-2.3c-0.81-0.96-1.22-2.01-1.22-3.14
			c0-1.44,0.53-2.54,1.58-3.31c1.05-0.77,2.39-1.15,4.02-1.15l2.46,1.16c-1.39,0-2.46,0.28-3.21,0.84
			c-0.75,0.56-1.13,1.32-1.13,2.28c0,1,0.55,1.82,1.64,2.47c1.09,0.65,2.66,0.97,4.7,0.97c1.48,0,2.78-0.22,3.9-0.65s1.99-1,2.6-1.7
			c0.61-0.7,0.92-1.45,0.92-2.25c0-0.55-0.2-1.01-0.59-1.39c-0.39-0.38-0.99-0.57-1.79-0.57h-7.04c-1.31,0-2.46-0.2-3.45-0.61
			c-0.99-0.41-1.77-0.94-2.33-1.61c-0.56-0.67-0.84-1.41-0.84-2.22c0-0.8,0.23-1.49,0.68-2.07c0.45-0.58,1.05-1.02,1.8-1.32
			s1.57-0.45,2.46-0.45l0.86,1.32c-0.39,0-0.77,0.08-1.16,0.25c-0.39,0.17-0.71,0.42-0.96,0.75c-0.25,0.33-0.38,0.75-0.38,1.24
			c0,0.57,0.24,1.05,0.73,1.43c0.49,0.38,1.35,0.57,2.59,0.57h7.04c1.92,0,3.43,0.38,4.52,1.14c1.09,0.76,1.64,1.87,1.64,3.32
			c0,1.32-0.45,2.58-1.36,3.78c-0.91,1.2-2.2,2.18-3.87,2.94C63.28,191.24,61.29,191.62,58.98,191.62z M59.4,175.92
			c-1.49,0-2.85-0.29-4.07-0.87c-1.22-0.58-2.19-1.39-2.91-2.44c-0.72-1.05-1.08-2.27-1.08-3.67c0-1.41,0.36-2.64,1.08-3.69
			c0.72-1.05,1.69-1.86,2.91-2.44c1.22-0.58,2.58-0.87,4.07-0.87c1.45,0,2.78,0.29,3.99,0.87c1.21,0.58,2.17,1.39,2.9,2.44
			c0.73,1.05,1.09,2.28,1.09,3.69c0,1.4-0.36,2.62-1.09,3.67c-0.73,1.05-1.69,1.86-2.9,2.44C62.18,175.63,60.85,175.92,59.4,175.92z
			 M59.4,173.24c1.37,0,2.42-0.41,3.15-1.23c0.73-0.82,1.09-1.84,1.09-3.07c0-1.28-0.36-2.31-1.09-3.1
			c-0.73-0.79-1.78-1.18-3.15-1.18c-1.35,0-2.4,0.39-3.15,1.18c-0.75,0.79-1.13,1.82-1.13,3.1c0,1.23,0.38,2.25,1.13,3.07
			C57,172.83,58.05,173.24,59.4,173.24z M65.94,165.02l-1.78-0.86c0-1.15,0.24-2.15,0.72-3s1.15-1.52,2-2
			c0.85-0.48,1.83-0.72,2.94-0.72l-0.24,3.7c-1.19,0-2.09,0.23-2.71,0.7S65.94,164.03,65.94,165.02z"/>
		<path class="st1" d="M81.68,182.22c-1.65,0-3.15-0.43-4.48-1.28c-1.33-0.85-2.39-2.04-3.17-3.56c-0.78-1.52-1.17-3.28-1.17-5.28
			c0-2.12,0.39-3.94,1.16-5.45s1.83-2.68,3.16-3.49c1.33-0.81,2.83-1.22,4.5-1.22c1.49,0,2.77,0.3,3.84,0.91
			c1.07,0.61,1.93,1.42,2.58,2.44s1.1,2.18,1.35,3.47c0.25,1.29,0.29,2.63,0.13,4H75.9v-2.2h11.08l-0.92,0.6
			c0.04-0.72,0-1.44-0.11-2.16c-0.11-0.72-0.33-1.38-0.65-1.99c-0.32-0.61-0.77-1.09-1.35-1.46c-0.58-0.37-1.32-0.55-2.21-0.55
			c-1.12,0-2.06,0.28-2.81,0.84c-0.75,0.56-1.32,1.31-1.71,2.25c-0.39,0.94-0.58,1.97-0.58,3.09v1.54c0,1.24,0.19,2.34,0.56,3.3
			c0.37,0.96,0.93,1.72,1.67,2.27c0.74,0.55,1.68,0.83,2.81,0.83c1.11,0,2.02-0.26,2.75-0.78c0.73-0.52,1.18-1.3,1.35-2.34h3.88
			c-0.2,1.25-0.66,2.35-1.38,3.28c-0.72,0.93-1.64,1.66-2.77,2.17S83.11,182.22,81.68,182.22z"/>
		<path class="st1" d="M95.6,181.7v-19.24h3.3l0.5,4.16v15.08H95.6z M109.08,181.7v-11.28c0-1.67-0.4-2.93-1.19-3.79
			c-0.79-0.86-1.86-1.29-3.21-1.29c-1.07,0-2,0.29-2.79,0.87c-0.79,0.58-1.41,1.43-1.84,2.54c-0.43,1.11-0.65,2.47-0.65,4.07h-1.36
			c0-2.36,0.3-4.35,0.91-5.96c0.61-1.61,1.48-2.84,2.61-3.67s2.49-1.25,4.08-1.25c1.55,0,2.86,0.35,3.93,1.04
			c1.07,0.69,1.89,1.68,2.45,2.95c0.56,1.27,0.84,2.77,0.84,4.49v11.28H109.08z"/>
		<path class="st1" d="M117.5,165.04v-2.58h12.42v2.58H117.5z M126.26,182.22c-1.09,0-2.08-0.21-2.96-0.62
			c-0.88-0.41-1.58-1.04-2.09-1.87c-0.51-0.83-0.77-1.88-0.77-3.15v-19.36h3.78v19.24c0,1.81,0.85,2.72,2.54,2.72
			c0.52,0,1.03-0.06,1.52-0.17c0.49-0.11,1.05-0.28,1.68-0.51l0.54,2.7c-0.71,0.29-1.4,0.54-2.09,0.73
			C127.72,182.12,127.01,182.22,126.26,182.22z"/>
		<path class="st1" d="M142.34,182.22c-1.65,0-3.15-0.43-4.48-1.28c-1.33-0.85-2.39-2.04-3.17-3.56c-0.78-1.52-1.17-3.28-1.17-5.28
			c0-2.12,0.39-3.94,1.16-5.45c0.77-1.51,1.83-2.68,3.16-3.49c1.33-0.81,2.83-1.22,4.5-1.22c1.49,0,2.77,0.3,3.84,0.91
			c1.07,0.61,1.93,1.42,2.58,2.44c0.65,1.02,1.1,2.18,1.35,3.47c0.25,1.29,0.29,2.63,0.13,4h-13.68v-2.2h11.08l-0.92,0.6
			c0.04-0.72,0-1.44-0.11-2.16c-0.11-0.72-0.33-1.38-0.65-1.99c-0.32-0.61-0.77-1.09-1.35-1.46c-0.58-0.37-1.32-0.55-2.21-0.55
			c-1.12,0-2.06,0.28-2.81,0.84c-0.75,0.56-1.32,1.31-1.71,2.25c-0.39,0.94-0.58,1.97-0.58,3.09v1.54c0,1.24,0.19,2.34,0.56,3.3
			c0.37,0.96,0.93,1.72,1.67,2.27c0.74,0.55,1.68,0.83,2.81,0.83c1.11,0,2.02-0.26,2.75-0.78c0.73-0.52,1.18-1.3,1.35-2.34h3.88
			c-0.2,1.25-0.66,2.35-1.38,3.28c-0.72,0.93-1.64,1.66-2.77,2.17C145.04,181.96,143.77,182.22,142.34,182.22z"/>
		<path class="st1" d="M166.02,181.7v-19.24h3.3l0.42,3.62c0.61-1.35,1.46-2.37,2.53-3.08c1.07-0.71,2.34-1.06,3.79-1.06
			c1.55,0,2.86,0.35,3.93,1.04c1.07,0.69,1.89,1.68,2.45,2.95c0.56,1.27,0.84,2.77,0.84,4.49v11.28h-3.78v-11.28
			c0-1.67-0.4-2.93-1.19-3.79c-0.79-0.86-1.86-1.29-3.21-1.29c-1.07,0-2,0.29-2.79,0.87c-0.79,0.58-1.41,1.43-1.84,2.54
			c-0.43,1.11-0.65,2.47-0.65,4.07v8.88H166.02z M192.68,181.7v-11.28c0-1.67-0.4-2.93-1.19-3.79c-0.79-0.86-1.86-1.29-3.19-1.29
			c-1.6,0-2.84,0.63-3.71,1.88c-0.87,1.25-1.31,3.05-1.31,5.4h-1.66c0-1.85,0.18-3.45,0.54-4.8s0.88-2.45,1.55-3.32
			c0.67-0.87,1.48-1.51,2.42-1.93s1.99-0.63,3.15-0.63c1.55,0,2.86,0.35,3.93,1.04s1.89,1.68,2.45,2.95
			c0.56,1.27,0.84,2.77,0.84,4.49v11.28H192.68z"/>
		<path class="st1" d="M210.56,182.22c-1.65,0-3.15-0.43-4.48-1.28c-1.33-0.85-2.39-2.04-3.17-3.56c-0.78-1.52-1.17-3.28-1.17-5.28
			c0-2.12,0.39-3.94,1.16-5.45c0.77-1.51,1.83-2.68,3.16-3.49c1.33-0.81,2.83-1.22,4.5-1.22c1.49,0,2.77,0.3,3.84,0.91
			c1.07,0.61,1.93,1.42,2.58,2.44c0.65,1.02,1.1,2.18,1.35,3.47c0.25,1.29,0.29,2.63,0.13,4h-13.68v-2.2h11.08l-0.92,0.6
			c0.04-0.72,0-1.44-0.11-2.16c-0.11-0.72-0.33-1.38-0.65-1.99c-0.32-0.61-0.77-1.09-1.35-1.46c-0.58-0.37-1.32-0.55-2.21-0.55
			c-1.12,0-2.06,0.28-2.81,0.84c-0.75,0.56-1.32,1.31-1.71,2.25c-0.39,0.94-0.58,1.97-0.58,3.09v1.54c0,1.24,0.19,2.34,0.56,3.3
			c0.37,0.96,0.93,1.72,1.67,2.27c0.74,0.55,1.68,0.83,2.81,0.83c1.11,0,2.02-0.26,2.75-0.78c0.73-0.52,1.18-1.3,1.35-2.34h3.88
			c-0.2,1.25-0.66,2.35-1.38,3.28c-0.72,0.93-1.64,1.66-2.77,2.17C213.26,181.96,211.98,182.22,210.56,182.22z"/>
		<path class="st1" d="M241.22,182.22c-1.57,0-3.02-0.42-4.34-1.27s-2.37-2.03-3.15-3.56c-0.78-1.53-1.17-3.32-1.17-5.39
			c0-2.05,0.38-3.83,1.15-5.34c0.77-1.51,1.78-2.67,3.05-3.49s2.67-1.23,4.22-1.23c1.41,0,2.65,0.34,3.7,1.03
			c1.05,0.69,1.87,1.68,2.45,2.99c0.58,1.31,0.87,2.9,0.87,4.78h-1.32c0-1.16-0.23-2.14-0.7-2.95c-0.47-0.81-1.07-1.42-1.82-1.83
			c-0.75-0.41-1.55-0.62-2.4-0.62c-1,0-1.9,0.27-2.71,0.81s-1.45,1.31-1.92,2.3c-0.47,0.99-0.71,2.18-0.71,3.55
			c0,1.39,0.24,2.59,0.71,3.61c0.47,1.02,1.11,1.8,1.92,2.35c0.81,0.55,1.7,0.82,2.69,0.82c0.81,0,1.6-0.22,2.35-0.65
			c0.75-0.43,1.37-1.06,1.86-1.87c0.49-0.81,0.73-1.78,0.73-2.9H248c0,1.92-0.3,3.54-0.91,4.86c-0.61,1.32-1.42,2.32-2.45,2.99
			S242.47,182.22,241.22,182.22z M247.34,181.7l-0.66-4.62v-22.72h3.82v27.34H247.34z"/>
		<path class="st1" d="M260.5,158.36c-0.76,0-1.36-0.21-1.79-0.63c-0.43-0.42-0.65-0.99-0.65-1.71c0-0.69,0.22-1.24,0.65-1.65
			c0.43-0.41,1.03-0.61,1.79-0.61c0.75,0,1.34,0.2,1.77,0.61c0.43,0.41,0.65,0.96,0.65,1.65c0,0.72-0.22,1.29-0.65,1.71
			C261.83,158.15,261.24,158.36,260.5,158.36z M258.6,181.7v-19.3h3.8v19.3H258.6z"/>
		<path class="st1" d="M269.04,191.62c-0.97,0-1.9-0.12-2.77-0.35c-0.87-0.23-1.77-0.58-2.69-1.03l0.12-3.28
			c0.75,0.39,1.49,0.71,2.24,0.96c0.75,0.25,1.51,0.38,2.28,0.38c1.05,0,1.87-0.32,2.44-0.97c0.57-0.65,0.86-1.69,0.86-3.13v-21.82
			h3.78v21.86c0,2.64-0.57,4.53-1.7,5.67S270.94,191.62,269.04,191.62z M273.38,158.36c-0.75,0-1.34-0.21-1.77-0.63
			s-0.65-0.99-0.65-1.71c0-0.69,0.22-1.24,0.65-1.65c0.43-0.41,1.02-0.61,1.77-0.61s1.34,0.2,1.78,0.61
			c0.44,0.41,0.66,0.96,0.66,1.65c0,0.72-0.22,1.29-0.66,1.71C274.72,158.15,274.12,158.36,273.38,158.36z"/>
		<path class="st1" d="M290.88,182.22c-1.75,0-3.31-0.38-4.69-1.14c-1.38-0.76-2.47-1.89-3.27-3.4c-0.8-1.51-1.2-3.37-1.2-5.58
			c0-2.25,0.4-4.13,1.2-5.63c0.8-1.5,1.89-2.63,3.27-3.39c1.38-0.76,2.94-1.14,4.69-1.14c1.72,0,3.27,0.38,4.64,1.14
			s2.46,1.89,3.25,3.39s1.19,3.38,1.19,5.63c0,2.21-0.4,4.07-1.19,5.58c-0.79,1.51-1.88,2.64-3.25,3.4S292.6,182.22,290.88,182.22z
			 M290.76,178.9c1.11,0,2.06-0.27,2.87-0.8c0.81-0.53,1.43-1.31,1.86-2.33c0.43-1.02,0.65-2.24,0.65-3.67
			c0-2.19-0.44-3.88-1.33-5.08c-0.89-1.2-2.16-1.8-3.83-1.8c-1.12,0-2.08,0.27-2.89,0.81s-1.43,1.32-1.86,2.34
			c-0.43,1.02-0.65,2.26-0.65,3.73c0,2.15,0.45,3.82,1.34,5.01C287.81,178.3,289.09,178.9,290.76,178.9z"/>
		<path class="st1" d="M322.5,182.22c-1.55,0-2.99-0.4-4.33-1.21c-1.34-0.81-2.42-1.97-3.25-3.49c-0.83-1.52-1.24-3.34-1.24-5.46
			c0-2.12,0.41-3.93,1.22-5.44s1.88-2.66,3.2-3.47s2.73-1.21,4.22-1.21c1.29,0,2.47,0.32,3.52,0.95c1.05,0.63,1.89,1.59,2.52,2.87
			c0.63,1.28,0.94,2.89,0.94,4.82h-1.52c0-1.12-0.23-2.07-0.68-2.85c-0.45-0.78-1.05-1.37-1.78-1.78s-1.53-0.61-2.4-0.61
			c-1,0-1.91,0.27-2.72,0.8c-0.81,0.53-1.46,1.3-1.94,2.3c-0.48,1-0.72,2.21-0.72,3.62c0,1.48,0.26,2.72,0.79,3.72
			s1.21,1.75,2.04,2.25c0.83,0.5,1.7,0.75,2.61,0.75c0.81,0,1.59-0.19,2.32-0.56c0.73-0.37,1.33-0.93,1.79-1.66
			c0.46-0.73,0.69-1.63,0.69-2.68h0.92c0,1.65-0.22,3.1-0.67,4.35c-0.45,1.25-1.13,2.22-2.05,2.93
			C325.05,181.86,323.9,182.22,322.5,182.22z M333.2,191.62c-1.97-0.52-3.37-1.33-4.19-2.43c-0.82-1.1-1.23-2.64-1.23-4.63v-17.48
			l1.26-4.62h2.52v22.38c0,0.85,0.08,1.52,0.25,2.01c0.17,0.49,0.46,0.87,0.87,1.15c0.41,0.28,0.98,0.54,1.7,0.78L333.2,191.62z"/>
		<path class="st1" d="M338.93,162.4h3.8v11.92c0,1.45,0.36,2.55,1.07,3.3s1.72,1.12,3.01,1.12c1.09,0,2.06-0.29,2.89-0.86
			c0.83-0.57,1.49-1.39,1.96-2.44c0.47-1.05,0.71-2.3,0.71-3.74h1.22c0,2.25-0.31,4.15-0.92,5.68c-0.61,1.53-1.47,2.7-2.58,3.49
			c-1.11,0.79-2.4,1.19-3.88,1.19c-1.41,0-2.67-0.26-3.77-0.78c-1.1-0.52-1.96-1.32-2.58-2.41c-0.62-1.09-0.93-2.49-0.93-4.21V162.4
			z M352.38,162.4h3.82v19.3h-3.82V162.4z"/>
		<path class="st1" d="M370.89,182.22c-1.65,0-3.15-0.43-4.48-1.28c-1.33-0.85-2.39-2.04-3.17-3.56c-0.78-1.52-1.17-3.28-1.17-5.28
			c0-2.12,0.39-3.94,1.16-5.45s1.83-2.68,3.16-3.49c1.33-0.81,2.83-1.22,4.5-1.22c1.49,0,2.77,0.3,3.84,0.91
			c1.07,0.61,1.93,1.42,2.58,2.44c0.65,1.02,1.1,2.18,1.35,3.47c0.25,1.29,0.29,2.63,0.13,4h-13.68v-2.2h11.08l-0.92,0.6
			c0.04-0.72,0-1.44-0.11-2.16c-0.11-0.72-0.33-1.38-0.65-1.99c-0.32-0.61-0.77-1.09-1.35-1.46c-0.58-0.37-1.32-0.55-2.21-0.55
			c-1.12,0-2.06,0.28-2.81,0.84c-0.75,0.56-1.32,1.31-1.71,2.25c-0.39,0.94-0.58,1.97-0.58,3.09v1.54c0,1.24,0.19,2.34,0.56,3.3
			c0.37,0.96,0.93,1.72,1.67,2.27c0.74,0.55,1.68,0.83,2.81,0.83c1.11,0,2.02-0.26,2.75-0.78c0.73-0.52,1.18-1.3,1.35-2.34h3.88
			c-0.2,1.25-0.66,2.35-1.38,3.28c-0.72,0.93-1.64,1.66-2.77,2.17C373.6,181.96,372.32,182.22,370.89,182.22z"/>
		<path class="st1" d="M394.57,181.7v-19.24h3.3l0.5,4.16v15.08H394.57z M408.05,181.7v-11.28c0-1.67-0.4-2.93-1.19-3.79
			c-0.79-0.86-1.86-1.29-3.21-1.29c-1.07,0-2,0.29-2.79,0.87c-0.79,0.58-1.41,1.43-1.84,2.54s-0.65,2.47-0.65,4.07h-1.36
			c0-2.36,0.3-4.35,0.91-5.96c0.61-1.61,1.48-2.84,2.61-3.67c1.13-0.83,2.49-1.25,4.08-1.25c1.55,0,2.86,0.35,3.93,1.04
			s1.89,1.68,2.45,2.95c0.56,1.27,0.84,2.77,0.84,4.49v11.28H408.05z"/>
		<path class="st1" d="M426.29,182.22c-1.75,0-3.31-0.38-4.69-1.14c-1.38-0.76-2.47-1.89-3.27-3.4c-0.8-1.51-1.2-3.37-1.2-5.58
			c0-2.25,0.4-4.13,1.2-5.63c0.8-1.5,1.89-2.63,3.27-3.39c1.38-0.76,2.94-1.14,4.69-1.14c1.72,0,3.27,0.38,4.64,1.14
			s2.46,1.89,3.25,3.39s1.19,3.38,1.19,5.63c0,2.21-0.4,4.07-1.19,5.58c-0.79,1.51-1.88,2.64-3.25,3.4S428.01,182.22,426.29,182.22z
			 M426.17,178.9c1.11,0,2.06-0.27,2.87-0.8c0.81-0.53,1.43-1.31,1.86-2.33c0.43-1.02,0.65-2.24,0.65-3.67
			c0-2.19-0.44-3.88-1.33-5.08c-0.89-1.2-2.16-1.8-3.83-1.8c-1.12,0-2.08,0.27-2.89,0.81s-1.43,1.32-1.86,2.34
			c-0.43,1.02-0.65,2.26-0.65,3.73c0,2.15,0.45,3.82,1.34,5.01C423.23,178.3,424.51,178.9,426.17,178.9z"/>
		<path class="st1" d="M451.01,181.7v-27.34h3.8v27.34H451.01z"/>
		<path class="st1" d="M468.25,182.22c-1.61,0-2.95-0.28-4.02-0.85c-1.07-0.57-1.86-1.31-2.39-2.23c-0.53-0.92-0.79-1.9-0.79-2.94
			c0-1.27,0.32-2.31,0.97-3.13s1.54-1.43,2.69-1.83s2.47-0.6,3.96-0.6c1.03,0,2.03,0.09,3,0.28c0.97,0.19,1.93,0.43,2.88,0.74v2.3
			c-0.77-0.28-1.63-0.5-2.57-0.67s-1.82-0.25-2.63-0.25c-1.21,0-2.23,0.24-3.04,0.72c-0.81,0.48-1.22,1.29-1.22,2.44
			c0,0.84,0.32,1.56,0.96,2.17c0.64,0.61,1.65,0.91,3.04,0.91c1.01,0,1.91-0.23,2.68-0.69c0.77-0.46,1.37-1.04,1.8-1.73
			s0.64-1.39,0.64-2.08h0.92c0,1.33-0.27,2.56-0.81,3.69s-1.32,2.03-2.35,2.72C470.95,181.87,469.71,182.22,468.25,182.22z
			 M474.69,181.7l-0.48-4.42v-8.02c0-1.57-0.33-2.72-0.98-3.43s-1.69-1.07-3.1-1.07c-0.8,0-1.51,0.12-2.13,0.35
			c-0.62,0.23-1.11,0.58-1.46,1.05s-0.53,1.05-0.53,1.76h-4.2c0-1.41,0.35-2.56,1.04-3.44c0.69-0.88,1.66-1.52,2.91-1.93
			c1.25-0.41,2.7-0.61,4.37-0.61c1.56,0,2.93,0.26,4.12,0.77c1.19,0.51,2.11,1.32,2.77,2.41c0.66,1.09,0.99,2.51,0.99,4.24v12.34
			H474.69z"/>
		<path class="st1" d="M501.89,182.22c-1.65,0-3.15-0.43-4.48-1.28c-1.33-0.85-2.39-2.04-3.17-3.56c-0.78-1.52-1.17-3.28-1.17-5.28
			c0-2.12,0.39-3.94,1.16-5.45s1.83-2.68,3.16-3.49c1.33-0.81,2.83-1.22,4.5-1.22c1.49,0,2.77,0.3,3.84,0.91
			c1.07,0.61,1.93,1.42,2.58,2.44s1.1,2.18,1.35,3.47c0.25,1.29,0.29,2.63,0.13,4h-13.68v-2.2h11.08l-0.92,0.6
			c0.04-0.72,0-1.44-0.11-2.16c-0.11-0.72-0.33-1.38-0.65-1.99c-0.32-0.61-0.77-1.09-1.35-1.46c-0.58-0.37-1.32-0.55-2.21-0.55
			c-1.12,0-2.06,0.28-2.81,0.84c-0.75,0.56-1.32,1.31-1.71,2.25c-0.39,0.94-0.58,1.97-0.58,3.09v1.54c0,1.24,0.19,2.34,0.56,3.3
			c0.37,0.96,0.93,1.72,1.67,2.27c0.74,0.55,1.68,0.83,2.81,0.83c1.11,0,2.02-0.26,2.75-0.78c0.73-0.52,1.18-1.3,1.35-2.34h3.88
			c-0.2,1.25-0.66,2.35-1.38,3.28c-0.72,0.93-1.64,1.66-2.77,2.17S503.32,182.22,501.89,182.22z"/>
		<path class="st1" d="M522.85,182.22c-1.87,0-3.44-0.26-4.72-0.79c-1.28-0.53-2.26-1.26-2.93-2.2c-0.67-0.94-1.02-2.04-1.05-3.31
			h3.58c0.05,1.11,0.5,1.93,1.33,2.46c0.83,0.53,1.96,0.8,3.39,0.8c0.76,0,1.45-0.12,2.07-0.36s1.11-0.57,1.48-0.98
			c0.37-0.41,0.55-0.88,0.55-1.4c0-0.65-0.24-1.17-0.72-1.55c-0.48-0.38-1.25-0.72-2.32-1.01l-3.94-1.34
			c-1.57-0.53-2.78-1.24-3.62-2.13s-1.26-1.95-1.26-3.19c0-1.59,0.71-2.86,2.12-3.83c1.41-0.97,3.29-1.45,5.62-1.45
			c2.41,0,4.28,0.51,5.59,1.53c1.31,1.02,2,2.3,2.05,3.83h-3.66c-0.09-0.76-0.47-1.34-1.13-1.75c-0.66-0.41-1.61-0.61-2.85-0.61
			c-1.16,0-2.07,0.25-2.73,0.76s-0.99,1.08-0.99,1.72c0,1.15,0.99,2,2.96,2.56l4.14,1.46c1.57,0.51,2.79,1.16,3.64,1.96
			c0.85,0.8,1.28,1.81,1.28,3.04c0,0.99-0.33,1.92-0.98,2.8c-0.65,0.88-1.57,1.6-2.75,2.15
			C525.82,181.94,524.44,182.22,522.85,182.22z"/>
		<path class="st1" d="M534.29,165.04v-2.58h12.42v2.58H534.29z M543.05,182.22c-1.09,0-2.08-0.21-2.96-0.62
			c-0.88-0.41-1.58-1.04-2.09-1.87c-0.51-0.83-0.77-1.88-0.77-3.15v-19.36h3.78v19.24c0,1.81,0.85,2.72,2.54,2.72
			c0.52,0,1.03-0.06,1.52-0.17c0.49-0.11,1.05-0.28,1.68-0.51l0.54,2.7c-0.71,0.29-1.4,0.54-2.09,0.73S543.8,182.22,543.05,182.22z"
			/>
		<path class="st1" d="M551.75,162.4h3.8v11.92c0,1.45,0.36,2.55,1.07,3.3s1.72,1.12,3.01,1.12c1.09,0,2.06-0.29,2.89-0.86
			c0.83-0.57,1.49-1.39,1.96-2.44s0.71-2.3,0.71-3.74h1.22c0,2.25-0.31,4.15-0.92,5.68c-0.61,1.53-1.47,2.7-2.58,3.49
			c-1.11,0.79-2.4,1.19-3.88,1.19c-1.41,0-2.67-0.26-3.77-0.78s-1.96-1.32-2.58-2.41s-0.93-2.49-0.93-4.21V162.4z M565.19,162.4
			h3.82v19.3h-3.82V162.4z"/>
		<path class="st1" d="M583.79,182.22c-1.57,0-3.02-0.42-4.34-1.27s-2.37-2.03-3.15-3.56c-0.78-1.53-1.17-3.32-1.17-5.39
			c0-2.05,0.38-3.83,1.15-5.34c0.77-1.51,1.78-2.67,3.05-3.49s2.67-1.23,4.22-1.23c1.41,0,2.65,0.34,3.7,1.03
			c1.05,0.69,1.87,1.68,2.45,2.99c0.58,1.31,0.87,2.9,0.87,4.78h-1.32c0-1.16-0.23-2.14-0.7-2.95c-0.47-0.81-1.07-1.42-1.82-1.83
			c-0.75-0.41-1.55-0.62-2.4-0.62c-1,0-1.9,0.27-2.71,0.81s-1.45,1.31-1.92,2.3c-0.47,0.99-0.71,2.18-0.71,3.55
			c0,1.39,0.24,2.59,0.71,3.61c0.47,1.02,1.11,1.8,1.92,2.35c0.81,0.55,1.7,0.82,2.69,0.82c0.81,0,1.6-0.22,2.35-0.65
			c0.75-0.43,1.37-1.06,1.86-1.87c0.49-0.81,0.73-1.78,0.73-2.9h1.32c0,1.92-0.3,3.54-0.91,4.86c-0.61,1.32-1.42,2.32-2.45,2.99
			S585.04,182.22,583.79,182.22z M589.91,181.7l-0.66-4.62v-22.72h3.82v27.34H589.91z"/>
		<path class="st1" d="M603.07,158.36c-0.76,0-1.36-0.21-1.79-0.63c-0.43-0.42-0.65-0.99-0.65-1.71c0-0.69,0.22-1.24,0.65-1.65
			c0.43-0.41,1.03-0.61,1.79-0.61c0.75,0,1.34,0.2,1.77,0.61c0.43,0.41,0.65,0.96,0.65,1.65c0,0.72-0.22,1.29-0.65,1.71
			C604.41,158.15,603.82,158.36,603.07,158.36z M601.17,181.7v-19.3h3.8v19.3H601.17z"/>
		<path class="st1" d="M618.93,182.22c-1.61,0-2.95-0.28-4.02-0.85s-1.86-1.31-2.39-2.23c-0.53-0.92-0.79-1.9-0.79-2.94
			c0-1.27,0.32-2.31,0.97-3.13c0.65-0.82,1.54-1.43,2.69-1.83c1.15-0.4,2.47-0.6,3.96-0.6c1.03,0,2.03,0.09,3,0.28
			c0.97,0.19,1.93,0.43,2.88,0.74v2.3c-0.77-0.28-1.63-0.5-2.57-0.67s-1.82-0.25-2.63-0.25c-1.21,0-2.23,0.24-3.04,0.72
			c-0.81,0.48-1.22,1.29-1.22,2.44c0,0.84,0.32,1.56,0.96,2.17c0.64,0.61,1.65,0.91,3.04,0.91c1.01,0,1.91-0.23,2.68-0.69
			c0.77-0.46,1.37-1.04,1.8-1.73s0.64-1.39,0.64-2.08h0.92c0,1.33-0.27,2.56-0.81,3.69s-1.32,2.03-2.35,2.72
			C621.62,181.87,620.38,182.22,618.93,182.22z M625.37,181.7l-0.48-4.42v-8.02c0-1.57-0.33-2.72-0.98-3.43s-1.69-1.07-3.1-1.07
			c-0.8,0-1.51,0.12-2.13,0.35c-0.62,0.23-1.11,0.58-1.46,1.05c-0.35,0.47-0.53,1.05-0.53,1.76h-4.2c0-1.41,0.35-2.56,1.04-3.44
			c0.69-0.88,1.66-1.52,2.91-1.93c1.25-0.41,2.7-0.61,4.37-0.61c1.56,0,2.93,0.26,4.12,0.77c1.19,0.51,2.11,1.32,2.77,2.41
			c0.66,1.09,0.99,2.51,0.99,4.24v12.34H625.37z"/>
		<path class="st1" d="M635.91,181.7v-19.3h3.8v19.3H635.91z M638.67,173.1c0-2.47,0.26-4.52,0.77-6.15s1.23-2.85,2.16-3.65
			c0.93-0.8,2.02-1.2,3.27-1.2c0.37,0,0.72,0.03,1.05,0.08c0.33,0.05,0.65,0.13,0.97,0.22l-0.14,3.78
			c-0.36-0.09-0.75-0.18-1.17-0.25c-0.42-0.07-0.8-0.11-1.15-0.11c-1.09,0-1.99,0.29-2.68,0.87c-0.69,0.58-1.21,1.41-1.54,2.5
			s-0.5,2.39-0.5,3.91H638.67z"/>
		<path class="st1" d="M656.51,182.22c-1.61,0-2.95-0.28-4.02-0.85c-1.07-0.57-1.86-1.31-2.39-2.23s-0.79-1.9-0.79-2.94
			c0-1.27,0.32-2.31,0.97-3.13s1.54-1.43,2.69-1.83c1.15-0.4,2.47-0.6,3.96-0.6c1.03,0,2.03,0.09,3,0.28
			c0.97,0.19,1.93,0.43,2.88,0.74v2.3c-0.77-0.28-1.63-0.5-2.57-0.67c-0.94-0.17-1.82-0.25-2.63-0.25c-1.21,0-2.23,0.24-3.04,0.72
			c-0.81,0.48-1.22,1.29-1.22,2.44c0,0.84,0.32,1.56,0.96,2.17s1.65,0.91,3.04,0.91c1.01,0,1.91-0.23,2.68-0.69
			c0.77-0.46,1.37-1.04,1.8-1.73c0.43-0.69,0.64-1.39,0.64-2.08h0.92c0,1.33-0.27,2.56-0.81,3.69c-0.54,1.13-1.32,2.03-2.35,2.72
			C659.2,181.87,657.96,182.22,656.51,182.22z M662.95,181.7l-0.48-4.42v-8.02c0-1.57-0.33-2.72-0.98-3.43
			c-0.65-0.71-1.69-1.07-3.1-1.07c-0.8,0-1.51,0.12-2.13,0.35s-1.11,0.58-1.46,1.05c-0.35,0.47-0.53,1.05-0.53,1.76h-4.2
			c0-1.41,0.35-2.56,1.04-3.44c0.69-0.88,1.66-1.52,2.91-1.93c1.25-0.41,2.7-0.61,4.37-0.61c1.56,0,2.93,0.26,4.12,0.77
			c1.19,0.51,2.11,1.32,2.77,2.41c0.66,1.09,0.99,2.51,0.99,4.24v12.34H662.95z"/>
		<path class="st1" d="M683.25,191.14v-28.68h3.14l0.66,4.62v24.06H683.25z M692.37,182.22c-1.4,0-2.61-0.32-3.64-0.95
			c-1.03-0.63-1.81-1.57-2.35-2.8c-0.54-1.23-0.81-2.76-0.81-4.59h1.48c0,1.05,0.23,1.94,0.68,2.67s1.05,1.28,1.79,1.66
			c0.74,0.38,1.53,0.57,2.37,0.57c0.88,0,1.74-0.25,2.57-0.75c0.83-0.5,1.52-1.25,2.05-2.25c0.53-1,0.8-2.24,0.8-3.72
			c0-1.41-0.24-2.62-0.71-3.62s-1.12-1.77-1.93-2.3c-0.81-0.53-1.73-0.8-2.74-0.8c-0.85,0-1.65,0.2-2.4,0.61
			c-0.75,0.41-1.35,1-1.8,1.78c-0.45,0.78-0.68,1.73-0.68,2.85h-1.48c0-1.93,0.31-3.54,0.93-4.82c0.62-1.28,1.46-2.24,2.51-2.87
			c1.05-0.63,2.22-0.95,3.5-0.95c1.51,0,2.92,0.4,4.24,1.21c1.32,0.81,2.39,1.96,3.21,3.47s1.23,3.32,1.23,5.44
			c0,2.12-0.41,3.94-1.24,5.46c-0.83,1.52-1.91,2.68-3.25,3.49C695.36,181.81,693.92,182.22,692.37,182.22z"/>
		<path class="st1" d="M714.31,182.22c-1.75,0-3.31-0.38-4.69-1.14s-2.47-1.89-3.27-3.4c-0.8-1.51-1.2-3.37-1.2-5.58
			c0-2.25,0.4-4.13,1.2-5.63c0.8-1.5,1.89-2.63,3.27-3.39s2.94-1.14,4.69-1.14c1.72,0,3.27,0.38,4.64,1.14
			c1.37,0.76,2.46,1.89,3.25,3.39c0.79,1.5,1.19,3.38,1.19,5.63c0,2.21-0.4,4.07-1.19,5.58c-0.79,1.51-1.88,2.64-3.25,3.4
			C717.57,181.84,716.03,182.22,714.31,182.22z M714.19,178.9c1.11,0,2.06-0.27,2.87-0.8c0.81-0.53,1.43-1.31,1.86-2.33
			c0.43-1.02,0.65-2.24,0.65-3.67c0-2.19-0.44-3.88-1.33-5.08c-0.89-1.2-2.16-1.8-3.83-1.8c-1.12,0-2.08,0.27-2.89,0.81
			s-1.43,1.32-1.86,2.34s-0.65,2.26-0.65,3.73c0,2.15,0.45,3.82,1.34,5.01C711.24,178.3,712.52,178.9,714.19,178.9z"/>
		<path class="st1" d="M729.27,181.7v-19.3h3.8v19.3H729.27z M732.03,173.1c0-2.47,0.26-4.52,0.77-6.15
			c0.51-1.63,1.23-2.85,2.16-3.65c0.93-0.8,2.02-1.2,3.27-1.2c0.37,0,0.72,0.03,1.05,0.08c0.33,0.05,0.65,0.13,0.97,0.22l-0.14,3.78
			c-0.36-0.09-0.75-0.18-1.17-0.25c-0.42-0.07-0.8-0.11-1.15-0.11c-1.09,0-1.99,0.29-2.68,0.87c-0.69,0.58-1.21,1.41-1.54,2.5
			c-0.33,1.09-0.5,2.39-0.5,3.91H732.03z"/>
		<path class="st1" d="M751.15,182.22c-1.55,0-2.99-0.4-4.33-1.21c-1.34-0.81-2.42-1.97-3.25-3.49c-0.83-1.52-1.24-3.34-1.24-5.46
			c0-2.12,0.41-3.93,1.22-5.44s1.88-2.66,3.2-3.47s2.73-1.21,4.22-1.21c1.29,0,2.47,0.32,3.52,0.95c1.05,0.63,1.89,1.59,2.52,2.87
			c0.63,1.28,0.94,2.89,0.94,4.82h-1.52c0-1.12-0.23-2.07-0.68-2.85c-0.45-0.78-1.05-1.37-1.78-1.78s-1.53-0.61-2.4-0.61
			c-1,0-1.91,0.27-2.72,0.8c-0.81,0.53-1.46,1.3-1.94,2.3c-0.48,1-0.72,2.21-0.72,3.62c0,1.48,0.26,2.72,0.79,3.72
			s1.21,1.75,2.04,2.25c0.83,0.5,1.7,0.75,2.61,0.75c0.81,0,1.59-0.19,2.32-0.56c0.73-0.37,1.33-0.93,1.79-1.66
			c0.46-0.73,0.69-1.63,0.69-2.68h0.92c0,1.65-0.22,3.1-0.67,4.35c-0.45,1.25-1.13,2.22-2.05,2.93
			C753.71,181.86,752.55,182.22,751.15,182.22z M761.85,191.62c-1.97-0.52-3.37-1.33-4.19-2.43c-0.82-1.1-1.23-2.64-1.23-4.63
			v-17.48l1.26-4.62h2.52v22.38c0,0.85,0.08,1.52,0.25,2.01c0.17,0.49,0.46,0.87,0.87,1.15c0.41,0.28,0.98,0.54,1.7,0.78
			L761.85,191.62z"/>
		<path class="st1" d="M767.59,162.4h3.8v11.92c0,1.45,0.36,2.55,1.07,3.3s1.72,1.12,3.01,1.12c1.09,0,2.06-0.29,2.89-0.86
			c0.83-0.57,1.49-1.39,1.96-2.44c0.47-1.05,0.71-2.3,0.71-3.74h1.22c0,2.25-0.31,4.15-0.92,5.68c-0.61,1.53-1.47,2.7-2.58,3.49
			c-1.11,0.79-2.4,1.19-3.88,1.19c-1.41,0-2.67-0.26-3.77-0.78c-1.1-0.52-1.96-1.32-2.58-2.41c-0.62-1.09-0.93-2.49-0.93-4.21V162.4
			z M781.03,162.4h3.82v19.3h-3.82V162.4z"/>
		<path class="st1" d="M799.55,182.22c-1.65,0-3.15-0.43-4.48-1.28c-1.33-0.85-2.39-2.04-3.17-3.56c-0.78-1.52-1.17-3.28-1.17-5.28
			c0-2.12,0.39-3.94,1.16-5.45s1.83-2.68,3.16-3.49c1.33-0.81,2.83-1.22,4.5-1.22c1.49,0,2.77,0.3,3.84,0.91
			c1.07,0.61,1.93,1.42,2.58,2.44c0.65,1.02,1.1,2.18,1.35,3.47c0.25,1.29,0.29,2.63,0.13,4h-13.68v-2.2h11.08l-0.92,0.6
			c0.04-0.72,0-1.44-0.11-2.16c-0.11-0.72-0.33-1.38-0.65-1.99c-0.32-0.61-0.77-1.09-1.35-1.46c-0.58-0.37-1.32-0.55-2.21-0.55
			c-1.12,0-2.06,0.28-2.81,0.84c-0.75,0.56-1.32,1.31-1.71,2.25c-0.39,0.94-0.58,1.97-0.58,3.09v1.54c0,1.24,0.19,2.34,0.56,3.3
			c0.37,0.96,0.93,1.72,1.67,2.27c0.74,0.55,1.68,0.83,2.81,0.83c1.11,0,2.02-0.26,2.75-0.78c0.73-0.52,1.18-1.3,1.35-2.34h3.88
			c-0.2,1.25-0.66,2.35-1.38,3.28c-0.72,0.93-1.64,1.66-2.77,2.17C802.25,181.96,800.97,182.22,799.55,182.22z"/>
		<path class="st1" d="M58.8,230.22c-1.65,0-3.15-0.43-4.48-1.28c-1.33-0.85-2.39-2.04-3.17-3.56c-0.78-1.52-1.17-3.28-1.17-5.28
			c0-2.12,0.39-3.94,1.16-5.45c0.77-1.51,1.83-2.68,3.16-3.49c1.33-0.81,2.83-1.22,4.5-1.22c1.49,0,2.77,0.3,3.84,0.91
			c1.07,0.61,1.93,1.42,2.58,2.44c0.65,1.02,1.1,2.18,1.35,3.47c0.25,1.29,0.29,2.63,0.13,4H53.02v-2.2H64.1l-0.92,0.6
			c0.04-0.72,0-1.44-0.11-2.16c-0.11-0.72-0.33-1.38-0.65-1.99c-0.32-0.61-0.77-1.09-1.35-1.46c-0.58-0.37-1.32-0.55-2.21-0.55
			c-1.12,0-2.06,0.28-2.81,0.84c-0.75,0.56-1.32,1.31-1.71,2.25c-0.39,0.94-0.58,1.97-0.58,3.09v1.54c0,1.24,0.19,2.34,0.56,3.3
			c0.37,0.96,0.93,1.72,1.67,2.27c0.74,0.55,1.68,0.83,2.81,0.83c1.11,0,2.02-0.26,2.75-0.78c0.73-0.52,1.18-1.3,1.35-2.34h3.88
			c-0.2,1.25-0.66,2.35-1.38,3.28c-0.72,0.93-1.64,1.66-2.77,2.17C61.5,229.96,60.23,230.22,58.8,230.22z"/>
		<path class="st1" d="M79.76,230.22c-1.87,0-3.44-0.26-4.72-0.79c-1.28-0.53-2.26-1.26-2.93-2.2c-0.67-0.94-1.02-2.04-1.05-3.31
			h3.58c0.05,1.11,0.5,1.93,1.33,2.46s1.96,0.8,3.39,0.8c0.76,0,1.45-0.12,2.07-0.36c0.62-0.24,1.11-0.57,1.48-0.98
			c0.37-0.41,0.55-0.88,0.55-1.4c0-0.65-0.24-1.17-0.72-1.55c-0.48-0.38-1.25-0.72-2.32-1.01l-3.94-1.34
			c-1.57-0.53-2.78-1.24-3.62-2.13s-1.26-1.95-1.26-3.19c0-1.59,0.71-2.86,2.12-3.83s3.29-1.45,5.62-1.45
			c2.41,0,4.28,0.51,5.59,1.53c1.31,1.02,2,2.3,2.05,3.83h-3.66c-0.09-0.76-0.47-1.34-1.13-1.75c-0.66-0.41-1.61-0.61-2.85-0.61
			c-1.16,0-2.07,0.25-2.73,0.76s-0.99,1.08-0.99,1.72c0,1.15,0.99,2,2.96,2.56l4.14,1.46c1.57,0.51,2.79,1.16,3.64,1.96
			c0.85,0.8,1.28,1.81,1.28,3.04c0,0.99-0.33,1.92-0.98,2.8c-0.65,0.88-1.57,1.6-2.75,2.15C82.73,229.94,81.35,230.22,79.76,230.22z
			"/>
		<path class="st1" d="M103.06,210.4h3.8v11.92c0,1.45,0.36,2.55,1.07,3.3c0.71,0.75,1.72,1.12,3.01,1.12
			c1.09,0,2.06-0.29,2.89-0.86c0.83-0.57,1.49-1.39,1.96-2.44c0.47-1.05,0.71-2.3,0.71-3.74h1.22c0,2.25-0.31,4.15-0.92,5.68
			s-1.47,2.7-2.58,3.49c-1.11,0.79-2.4,1.19-3.88,1.19c-1.41,0-2.67-0.26-3.77-0.78s-1.96-1.32-2.58-2.41
			c-0.62-1.09-0.93-2.49-0.93-4.21V210.4z M116.5,210.4h3.82v19.3h-3.82V210.4z"/>
		<path class="st1" d="M128.12,229.7v-19.24h3.3l0.5,4.16v15.08H128.12z M141.6,229.7v-11.28c0-1.67-0.4-2.93-1.19-3.79
			c-0.79-0.86-1.86-1.29-3.21-1.29c-1.07,0-2,0.29-2.79,0.87c-0.79,0.58-1.41,1.43-1.84,2.54s-0.65,2.47-0.65,4.07h-1.36
			c0-2.36,0.3-4.35,0.91-5.96c0.61-1.61,1.48-2.84,2.61-3.67s2.49-1.25,4.08-1.25c1.55,0,2.86,0.35,3.93,1.04
			c1.07,0.69,1.89,1.68,2.45,2.95c0.56,1.27,0.84,2.77,0.84,4.49v11.28H141.6z"/>
		<path class="st1" d="M158.22,230.22c-1.61,0-2.95-0.28-4.02-0.85c-1.07-0.57-1.86-1.31-2.39-2.23c-0.53-0.92-0.79-1.9-0.79-2.94
			c0-1.27,0.32-2.31,0.97-3.13s1.54-1.43,2.69-1.83s2.47-0.6,3.96-0.6c1.03,0,2.03,0.09,3,0.28c0.97,0.19,1.93,0.43,2.88,0.74v2.3
			c-0.77-0.28-1.63-0.5-2.57-0.67s-1.82-0.25-2.63-0.25c-1.21,0-2.23,0.24-3.04,0.72c-0.81,0.48-1.22,1.29-1.22,2.44
			c0,0.84,0.32,1.56,0.96,2.17c0.64,0.61,1.65,0.91,3.04,0.91c1.01,0,1.91-0.23,2.68-0.69c0.77-0.46,1.37-1.04,1.8-1.73
			s0.64-1.39,0.64-2.08h0.92c0,1.33-0.27,2.56-0.81,3.69s-1.32,2.03-2.35,2.72C160.91,229.87,159.67,230.22,158.22,230.22z
			 M164.66,229.7l-0.48-4.42v-8.02c0-1.57-0.33-2.72-0.98-3.43s-1.69-1.07-3.1-1.07c-0.8,0-1.51,0.12-2.13,0.35
			c-0.62,0.23-1.11,0.58-1.46,1.05s-0.53,1.05-0.53,1.76h-4.2c0-1.41,0.35-2.56,1.04-3.44c0.69-0.88,1.66-1.52,2.91-1.93
			c1.25-0.41,2.7-0.61,4.37-0.61c1.56,0,2.93,0.26,4.12,0.77c1.19,0.51,2.11,1.32,2.77,2.41c0.66,1.09,0.99,2.51,0.99,4.24v12.34
			H164.66z"/>
		<path class="st1" d="M191.96,230.22c-1.57,0-3.04-0.42-4.4-1.26c-1.36-0.84-2.45-2.02-3.28-3.54c-0.83-1.52-1.24-3.31-1.24-5.36
			c0-2.16,0.41-3.99,1.24-5.49s1.92-2.65,3.28-3.44c1.36-0.79,2.83-1.19,4.4-1.19c1.16,0,2.19,0.18,3.1,0.55s1.69,0.86,2.34,1.48
			c0.65,0.62,1.18,1.32,1.59,2.09c0.41,0.77,0.69,1.57,0.85,2.4l-3.86,0.2c-0.28-1-0.77-1.8-1.47-2.41
			c-0.7-0.61-1.56-0.91-2.59-0.91c-0.87,0-1.68,0.24-2.45,0.73s-1.39,1.23-1.86,2.22s-0.71,2.25-0.71,3.77
			c0,1.41,0.22,2.62,0.66,3.62s1.04,1.77,1.8,2.3s1.61,0.8,2.56,0.8c1.36,0,2.38-0.33,3.05-0.99c0.67-0.66,1.01-1.57,1.01-2.73h3.86
			c0,1.35-0.31,2.56-0.94,3.64s-1.53,1.94-2.71,2.57C195.01,229.9,193.6,230.22,191.96,230.22z"/>
		<path class="st1" d="M211.44,230.22c-1.61,0-2.95-0.28-4.02-0.85c-1.07-0.57-1.86-1.31-2.39-2.23s-0.79-1.9-0.79-2.94
			c0-1.27,0.32-2.31,0.97-3.13s1.54-1.43,2.69-1.83c1.15-0.4,2.47-0.6,3.96-0.6c1.03,0,2.03,0.09,3,0.28
			c0.97,0.19,1.93,0.43,2.88,0.74v2.3c-0.77-0.28-1.63-0.5-2.57-0.67c-0.94-0.17-1.82-0.25-2.63-0.25c-1.21,0-2.23,0.24-3.04,0.72
			c-0.81,0.48-1.22,1.29-1.22,2.44c0,0.84,0.32,1.56,0.96,2.17s1.65,0.91,3.04,0.91c1.01,0,1.91-0.23,2.68-0.69
			c0.77-0.46,1.37-1.04,1.8-1.73c0.43-0.69,0.64-1.39,0.64-2.08h0.92c0,1.33-0.27,2.56-0.81,3.69c-0.54,1.13-1.32,2.03-2.35,2.72
			C214.13,229.87,212.89,230.22,211.44,230.22z M217.88,229.7l-0.48-4.42v-8.02c0-1.57-0.33-2.72-0.98-3.43
			c-0.65-0.71-1.69-1.07-3.1-1.07c-0.8,0-1.51,0.12-2.13,0.35s-1.11,0.58-1.46,1.05c-0.35,0.47-0.53,1.05-0.53,1.76H205
			c0-1.41,0.35-2.56,1.04-3.44c0.69-0.88,1.66-1.52,2.91-1.93c1.25-0.41,2.7-0.61,4.37-0.61c1.56,0,2.93,0.26,4.12,0.77
			c1.19,0.51,2.11,1.32,2.77,2.41c0.66,1.09,0.99,2.51,0.99,4.24v12.34H217.88z"/>
		<path class="st1" d="M228.42,229.7v-19.3h3.8v19.3H228.42z M231.18,221.1c0-2.47,0.26-4.52,0.77-6.15s1.23-2.85,2.16-3.65
			c0.93-0.8,2.02-1.2,3.27-1.2c0.37,0,0.72,0.03,1.05,0.08c0.33,0.05,0.65,0.13,0.97,0.22l-0.14,3.78
			c-0.36-0.09-0.75-0.18-1.17-0.25c-0.42-0.07-0.8-0.11-1.15-0.11c-1.09,0-1.99,0.29-2.68,0.87c-0.69,0.58-1.21,1.41-1.54,2.5
			c-0.33,1.09-0.5,2.39-0.5,3.91H231.18z"/>
		<path class="st1" d="M243.4,229.7v-19.3h3.8v19.3H243.4z M246.16,221.1c0-2.47,0.26-4.52,0.77-6.15c0.51-1.63,1.23-2.85,2.16-3.65
			c0.93-0.8,2.02-1.2,3.27-1.2c0.37,0,0.72,0.03,1.05,0.08c0.33,0.05,0.65,0.13,0.97,0.22l-0.14,3.78
			c-0.36-0.09-0.75-0.18-1.17-0.25c-0.42-0.07-0.8-0.11-1.15-0.11c-1.09,0-1.99,0.29-2.68,0.87c-0.69,0.58-1.21,1.41-1.54,2.5
			c-0.33,1.09-0.5,2.39-0.5,3.91H246.16z"/>
		<path class="st1" d="M265.28,230.22c-1.65,0-3.15-0.43-4.48-1.28c-1.33-0.85-2.39-2.04-3.17-3.56c-0.78-1.52-1.17-3.28-1.17-5.28
			c0-2.12,0.39-3.94,1.16-5.45s1.83-2.68,3.16-3.49c1.33-0.81,2.83-1.22,4.5-1.22c1.49,0,2.77,0.3,3.84,0.91
			c1.07,0.61,1.93,1.42,2.58,2.44c0.65,1.02,1.1,2.18,1.35,3.47c0.25,1.29,0.29,2.63,0.13,4H259.5v-2.2h11.08l-0.92,0.6
			c0.04-0.72,0-1.44-0.11-2.16c-0.11-0.72-0.33-1.38-0.65-1.99c-0.32-0.61-0.77-1.09-1.35-1.46c-0.58-0.37-1.32-0.55-2.21-0.55
			c-1.12,0-2.06,0.28-2.81,0.84c-0.75,0.56-1.32,1.31-1.71,2.25c-0.39,0.94-0.58,1.97-0.58,3.09v1.54c0,1.24,0.19,2.34,0.56,3.3
			c0.37,0.96,0.93,1.72,1.67,2.27c0.74,0.55,1.68,0.83,2.81,0.83c1.11,0,2.02-0.26,2.75-0.78c0.73-0.52,1.18-1.3,1.35-2.34h3.88
			c-0.2,1.25-0.66,2.35-1.38,3.28c-0.72,0.93-1.64,1.66-2.77,2.17C267.98,229.96,266.7,230.22,265.28,230.22z"/>
		<path class="st1" d="M279.2,229.7v-19.3h3.8v19.3H279.2z M281.96,221.1c0-2.47,0.26-4.52,0.77-6.15s1.23-2.85,2.16-3.65
			c0.93-0.8,2.02-1.2,3.27-1.2c0.37,0,0.72,0.03,1.05,0.08c0.33,0.05,0.65,0.13,0.97,0.22l-0.14,3.78
			c-0.36-0.09-0.75-0.18-1.17-0.25c-0.42-0.07-0.8-0.11-1.15-0.11c-1.09,0-1.99,0.29-2.68,0.87c-0.69,0.58-1.21,1.41-1.54,2.5
			s-0.5,2.39-0.5,3.91H281.96z"/>
		<path class="st1" d="M299.8,230.22c-1.61,0-2.95-0.28-4.02-0.85c-1.07-0.57-1.86-1.31-2.39-2.23s-0.79-1.9-0.79-2.94
			c0-1.27,0.32-2.31,0.97-3.13s1.54-1.43,2.69-1.83c1.15-0.4,2.47-0.6,3.96-0.6c1.03,0,2.03,0.09,3,0.28
			c0.97,0.19,1.93,0.43,2.88,0.74v2.3c-0.77-0.28-1.63-0.5-2.57-0.67c-0.94-0.17-1.82-0.25-2.63-0.25c-1.21,0-2.23,0.24-3.04,0.72
			c-0.81,0.48-1.22,1.29-1.22,2.44c0,0.84,0.32,1.56,0.96,2.17s1.65,0.91,3.04,0.91c1.01,0,1.91-0.23,2.68-0.69
			c0.77-0.46,1.37-1.04,1.8-1.73c0.43-0.69,0.64-1.39,0.64-2.08h0.92c0,1.33-0.27,2.56-0.81,3.69c-0.54,1.13-1.32,2.03-2.35,2.72
			C302.49,229.87,301.25,230.22,299.8,230.22z M306.24,229.7l-0.48-4.42v-8.02c0-1.57-0.33-2.72-0.98-3.43
			c-0.65-0.71-1.69-1.07-3.1-1.07c-0.8,0-1.51,0.12-2.13,0.35s-1.11,0.58-1.46,1.05c-0.35,0.47-0.53,1.05-0.53,1.76h-4.2
			c0-1.41,0.35-2.56,1.04-3.44c0.69-0.88,1.66-1.52,2.91-1.93c1.25-0.41,2.7-0.61,4.37-0.61c1.56,0,2.93,0.26,4.12,0.77
			c1.19,0.51,2.11,1.32,2.77,2.41c0.66,1.09,0.99,2.51,0.99,4.24v12.34H306.24z"/>
		<path class="st1" d="M326.54,239.14v-28.68h3.14l0.66,4.62v24.06H326.54z M335.66,230.22c-1.4,0-2.61-0.32-3.64-0.95
			c-1.03-0.63-1.81-1.57-2.35-2.8c-0.54-1.23-0.81-2.76-0.81-4.59h1.48c0,1.05,0.23,1.94,0.68,2.67s1.05,1.28,1.79,1.66
			c0.74,0.38,1.53,0.57,2.37,0.57c0.88,0,1.74-0.25,2.57-0.75c0.83-0.5,1.52-1.25,2.05-2.25c0.53-1,0.8-2.24,0.8-3.72
			c0-1.41-0.24-2.62-0.71-3.62s-1.12-1.77-1.93-2.3c-0.81-0.53-1.73-0.8-2.74-0.8c-0.85,0-1.65,0.2-2.4,0.61
			c-0.75,0.41-1.35,1-1.8,1.78c-0.45,0.78-0.68,1.73-0.68,2.85h-1.48c0-1.93,0.31-3.54,0.93-4.82c0.62-1.28,1.46-2.24,2.51-2.87
			c1.05-0.63,2.22-0.95,3.5-0.95c1.51,0,2.92,0.4,4.24,1.21c1.32,0.81,2.39,1.96,3.21,3.47s1.23,3.32,1.23,5.44
			c0,2.12-0.41,3.94-1.24,5.46c-0.83,1.52-1.91,2.68-3.25,3.49C338.65,229.81,337.2,230.22,335.66,230.22z"/>
		<path class="st1" d="M355.97,230.22c-1.61,0-2.95-0.28-4.02-0.85s-1.86-1.31-2.39-2.23c-0.53-0.92-0.79-1.9-0.79-2.94
			c0-1.27,0.32-2.31,0.97-3.13c0.65-0.82,1.54-1.43,2.69-1.83c1.15-0.4,2.47-0.6,3.96-0.6c1.03,0,2.03,0.09,3,0.28
			c0.97,0.19,1.93,0.43,2.88,0.74v2.3c-0.77-0.28-1.63-0.5-2.57-0.67s-1.82-0.25-2.63-0.25c-1.21,0-2.23,0.24-3.04,0.72
			c-0.81,0.48-1.22,1.29-1.22,2.44c0,0.84,0.32,1.56,0.96,2.17c0.64,0.61,1.65,0.91,3.04,0.91c1.01,0,1.91-0.23,2.68-0.69
			c0.77-0.46,1.37-1.04,1.8-1.73s0.64-1.39,0.64-2.08h0.92c0,1.33-0.27,2.56-0.81,3.69s-1.32,2.03-2.35,2.72
			C358.67,229.87,357.43,230.22,355.97,230.22z M362.42,229.7l-0.48-4.42v-8.02c0-1.57-0.33-2.72-0.98-3.43s-1.69-1.07-3.1-1.07
			c-0.8,0-1.51,0.12-2.13,0.35c-0.62,0.23-1.11,0.58-1.46,1.05c-0.35,0.47-0.53,1.05-0.53,1.76h-4.2c0-1.41,0.35-2.56,1.04-3.44
			c0.69-0.88,1.66-1.52,2.91-1.93c1.25-0.41,2.7-0.61,4.37-0.61c1.56,0,2.93,0.26,4.12,0.77c1.19,0.51,2.11,1.32,2.77,2.41
			c0.66,1.09,0.99,2.51,0.99,4.24v12.34H362.42z"/>
		<path class="st1" d="M372.96,229.7v-19.3h3.8v19.3H372.96z M375.71,221.1c0-2.47,0.26-4.52,0.77-6.15s1.23-2.85,2.16-3.65
			c0.93-0.8,2.02-1.2,3.27-1.2c0.37,0,0.72,0.03,1.05,0.08c0.33,0.05,0.65,0.13,0.97,0.22l-0.14,3.78
			c-0.36-0.09-0.75-0.18-1.17-0.25c-0.42-0.07-0.8-0.11-1.15-0.11c-1.09,0-1.99,0.29-2.68,0.87c-0.69,0.58-1.21,1.41-1.54,2.5
			s-0.5,2.39-0.5,3.91H375.71z"/>
		<path class="st1" d="M393.55,230.22c-1.61,0-2.95-0.28-4.02-0.85c-1.07-0.57-1.86-1.31-2.39-2.23s-0.79-1.9-0.79-2.94
			c0-1.27,0.32-2.31,0.97-3.13s1.54-1.43,2.69-1.83c1.15-0.4,2.47-0.6,3.96-0.6c1.03,0,2.03,0.09,3,0.28
			c0.97,0.19,1.93,0.43,2.88,0.74v2.3c-0.77-0.28-1.63-0.5-2.57-0.67c-0.94-0.17-1.82-0.25-2.63-0.25c-1.21,0-2.23,0.24-3.04,0.72
			c-0.81,0.48-1.22,1.29-1.22,2.44c0,0.84,0.32,1.56,0.96,2.17s1.65,0.91,3.04,0.91c1.01,0,1.91-0.23,2.68-0.69
			c0.77-0.46,1.37-1.04,1.8-1.73c0.43-0.69,0.64-1.39,0.64-2.08h0.92c0,1.33-0.27,2.56-0.81,3.69c-0.54,1.13-1.32,2.03-2.35,2.72
			C396.25,229.87,395.01,230.22,393.55,230.22z M399.99,229.7l-0.48-4.42v-8.02c0-1.57-0.33-2.72-0.98-3.43
			c-0.65-0.71-1.69-1.07-3.1-1.07c-0.8,0-1.51,0.12-2.13,0.35s-1.11,0.58-1.46,1.05c-0.35,0.47-0.53,1.05-0.53,1.76h-4.2
			c0-1.41,0.35-2.56,1.04-3.44c0.69-0.88,1.66-1.52,2.91-1.93c1.25-0.41,2.7-0.61,4.37-0.61c1.56,0,2.93,0.26,4.12,0.77
			c1.19,0.51,2.11,1.32,2.77,2.41c0.66,1.09,0.99,2.51,0.99,4.24v12.34H399.99z"/>
		<path class="st1" d="M420.29,229.7v-27.34h3.8v27.34H420.29z M433.77,229.7v-11.28c0-1.67-0.4-2.93-1.19-3.79
			c-0.79-0.86-1.86-1.29-3.21-1.29c-1.07,0-2,0.29-2.79,0.87c-0.79,0.58-1.41,1.43-1.84,2.54c-0.43,1.11-0.65,2.47-0.65,4.07h-1.36
			c0-2.36,0.3-4.35,0.91-5.96s1.48-2.84,2.61-3.67c1.13-0.83,2.49-1.25,4.08-1.25c1.55,0,2.86,0.35,3.93,1.04
			c1.07,0.69,1.89,1.68,2.45,2.95c0.56,1.27,0.84,2.77,0.84,4.49v11.28H433.77z"/>
		<path class="st1" d="M452.01,230.22c-1.75,0-3.31-0.38-4.69-1.14c-1.38-0.76-2.47-1.89-3.27-3.4c-0.8-1.51-1.2-3.37-1.2-5.58
			c0-2.25,0.4-4.13,1.2-5.63s1.89-2.63,3.27-3.39c1.38-0.76,2.94-1.14,4.69-1.14c1.72,0,3.27,0.38,4.64,1.14
			c1.37,0.76,2.46,1.89,3.25,3.39s1.19,3.38,1.19,5.63c0,2.21-0.4,4.07-1.19,5.58c-0.79,1.51-1.88,2.64-3.25,3.4
			C455.28,229.84,453.73,230.22,452.01,230.22z M451.89,226.9c1.11,0,2.06-0.27,2.87-0.8c0.81-0.53,1.43-1.31,1.86-2.33
			c0.43-1.02,0.65-2.24,0.65-3.67c0-2.19-0.44-3.88-1.33-5.08c-0.89-1.2-2.16-1.8-3.83-1.8c-1.12,0-2.08,0.27-2.89,0.81
			c-0.81,0.54-1.43,1.32-1.86,2.34s-0.65,2.26-0.65,3.73c0,2.15,0.45,3.82,1.34,5.01S450.23,226.9,451.89,226.9z"/>
		<path class="st1" d="M466.97,229.7v-19.24h3.3l0.42,3.62c0.61-1.35,1.46-2.37,2.53-3.08c1.07-0.71,2.34-1.06,3.79-1.06
			c1.55,0,2.86,0.35,3.93,1.04c1.07,0.69,1.89,1.68,2.45,2.95c0.56,1.27,0.84,2.77,0.84,4.49v11.28h-3.78v-11.28
			c0-1.67-0.4-2.93-1.19-3.79c-0.79-0.86-1.86-1.29-3.21-1.29c-1.07,0-2,0.29-2.79,0.87c-0.79,0.58-1.41,1.43-1.84,2.54
			c-0.43,1.11-0.65,2.47-0.65,4.07v8.88H466.97z M493.63,229.7v-11.28c0-1.67-0.4-2.93-1.19-3.79c-0.79-0.86-1.86-1.29-3.19-1.29
			c-1.6,0-2.84,0.63-3.71,1.88c-0.87,1.25-1.31,3.05-1.31,5.4h-1.66c0-1.85,0.18-3.45,0.54-4.8s0.88-2.45,1.55-3.32
			c0.67-0.87,1.48-1.51,2.42-1.93s1.99-0.63,3.15-0.63c1.55,0,2.86,0.35,3.93,1.04s1.89,1.68,2.45,2.95
			c0.56,1.27,0.84,2.77,0.84,4.49v11.28H493.63z"/>
		<path class="st1" d="M504.61,229.7v-27.34h3.8v22.72l-1.22,4.62H504.61z M513.87,230.22c-1.25,0-2.39-0.34-3.41-1.01
			s-1.83-1.67-2.44-2.99c-0.61-1.32-0.91-2.94-0.91-4.86h1.3c0,1.12,0.24,2.09,0.73,2.9c0.49,0.81,1.11,1.44,1.87,1.87
			c0.76,0.43,1.55,0.65,2.38,0.65c0.99,0,1.88-0.27,2.67-0.82c0.79-0.55,1.43-1.33,1.9-2.35c0.47-1.02,0.71-2.22,0.71-3.61
			c0-1.37-0.23-2.56-0.7-3.55s-1.1-1.76-1.9-2.3c-0.8-0.54-1.71-0.81-2.72-0.81c-0.85,0-1.66,0.21-2.41,0.62
			c-0.75,0.41-1.36,1.02-1.83,1.83c-0.47,0.81-0.7,1.79-0.7,2.95h-1.3c0-1.88,0.29-3.47,0.88-4.78c0.59-1.31,1.4-2.3,2.45-2.99
			c1.05-0.69,2.28-1.03,3.69-1.03c1.53,0,2.94,0.41,4.21,1.23s2.29,1.98,3.06,3.49c0.77,1.51,1.15,3.29,1.15,5.34
			c0,2.07-0.39,3.86-1.18,5.39c-0.79,1.53-1.84,2.71-3.15,3.56C516.91,229.79,515.46,230.22,513.87,230.22z"/>
		<path class="st1" d="M528.67,229.7v-19.3h3.8v19.3H528.67z M531.43,221.1c0-2.47,0.26-4.52,0.77-6.15
			c0.51-1.63,1.23-2.85,2.16-3.65c0.93-0.8,2.02-1.2,3.27-1.2c0.37,0,0.72,0.03,1.05,0.08c0.33,0.05,0.65,0.13,0.97,0.22l-0.14,3.78
			c-0.36-0.09-0.75-0.18-1.17-0.25c-0.42-0.07-0.8-0.11-1.15-0.11c-1.09,0-1.99,0.29-2.68,0.87c-0.69,0.58-1.21,1.41-1.54,2.5
			c-0.33,1.09-0.5,2.39-0.5,3.91H531.43z"/>
		<path class="st1" d="M550.55,230.22c-1.65,0-3.15-0.43-4.48-1.28c-1.33-0.85-2.39-2.04-3.17-3.56c-0.78-1.52-1.17-3.28-1.17-5.28
			c0-2.12,0.39-3.94,1.16-5.45s1.83-2.68,3.16-3.49c1.33-0.81,2.83-1.22,4.5-1.22c1.49,0,2.77,0.3,3.84,0.91
			c1.07,0.61,1.93,1.42,2.58,2.44c0.65,1.02,1.1,2.18,1.35,3.47c0.25,1.29,0.29,2.63,0.13,4h-13.68v-2.2h11.08l-0.92,0.6
			c0.04-0.72,0-1.44-0.11-2.16c-0.11-0.72-0.33-1.38-0.65-1.99c-0.32-0.61-0.77-1.09-1.35-1.46c-0.58-0.37-1.32-0.55-2.21-0.55
			c-1.12,0-2.06,0.28-2.81,0.84c-0.75,0.56-1.32,1.31-1.71,2.25c-0.39,0.94-0.58,1.97-0.58,3.09v1.54c0,1.24,0.19,2.34,0.56,3.3
			c0.37,0.96,0.93,1.72,1.67,2.27c0.74,0.55,1.68,0.83,2.81,0.83c1.11,0,2.02-0.26,2.75-0.78c0.73-0.52,1.18-1.3,1.35-2.34h3.88
			c-0.2,1.25-0.66,2.35-1.38,3.28c-0.72,0.93-1.64,1.66-2.77,2.17C553.26,229.96,551.98,230.22,550.55,230.22z"/>
		<path class="st1" d="M571.51,230.22c-1.87,0-3.44-0.26-4.72-0.79c-1.28-0.53-2.26-1.26-2.93-2.2c-0.67-0.94-1.02-2.04-1.05-3.31
			h3.58c0.05,1.11,0.5,1.93,1.33,2.46c0.83,0.53,1.96,0.8,3.39,0.8c0.76,0,1.45-0.12,2.07-0.36c0.62-0.24,1.11-0.57,1.48-0.98
			c0.37-0.41,0.55-0.88,0.55-1.4c0-0.65-0.24-1.17-0.72-1.55c-0.48-0.38-1.25-0.72-2.32-1.01l-3.94-1.34
			c-1.57-0.53-2.78-1.24-3.62-2.13s-1.26-1.95-1.26-3.19c0-1.59,0.71-2.86,2.12-3.83c1.41-0.97,3.29-1.45,5.62-1.45
			c2.41,0,4.28,0.51,5.59,1.53c1.31,1.02,2,2.3,2.05,3.83h-3.66c-0.09-0.76-0.47-1.34-1.13-1.75c-0.66-0.41-1.61-0.61-2.85-0.61
			c-1.16,0-2.07,0.25-2.73,0.76s-0.99,1.08-0.99,1.72c0,1.15,0.99,2,2.96,2.56l4.14,1.46c1.57,0.51,2.79,1.16,3.64,1.96
			c0.85,0.8,1.28,1.81,1.28,3.04c0,0.99-0.33,1.92-0.98,2.8s-1.57,1.6-2.75,2.15C574.48,229.94,573.1,230.22,571.51,230.22z"/>
		<path class="st1" d="M582.73,227.46c0-0.75,0.26-1.38,0.77-1.9c0.51-0.52,1.16-0.78,1.95-0.78c0.79,0,1.45,0.26,2,0.78
			c0.55,0.52,0.82,1.15,0.82,1.9c0,0.73-0.27,1.35-0.82,1.85s-1.21,0.75-2,0.75c-0.79,0-1.44-0.25-1.95-0.76
			C582.99,228.79,582.73,228.18,582.73,227.46z"/>
	</g>
</g>
<path class="st0" d="M871.13,184c-0.71,27-1.42,54-2.13,81c11.21-8.34,23.93-17.03,38.27-25.77c8.74-5.33,17.35-10.23,25.73-14.73
	c-7.31-4.57-14.65-9.23-22.02-13.99C897.22,201.62,883.94,192.78,871.13,184z"/>
</svg>
