<?xml version="1.0" encoding="utf-8"?>
<!-- Generator: Adobe Illustrator 24.0.2, SVG Export Plug-In . SVG Version: 6.00 Build 0)  -->
<svg version="1.1" id="Capa_1" xmlns="http://www.w3.org/2000/svg" xmlns:xlink="http://www.w3.org/1999/xlink" x="0px" y="0px"
	 viewBox="0 0 949 214" style="enable-background:new 0 0 949 214;" xml:space="preserve">
<style type="text/css">
	.st0{fill:#7A7980;}
	.st1{fill:#FFFFFF;}
	.st2{fill:#7A7980;stroke:#7A7980;stroke-miterlimit:10;}
	.st3{fill:none;}
</style>
<g>
	<path class="st0" d="M852.12,198H71.88C47.09,198,27,177.91,27,153.12V56.88C27,32.09,47.09,12,71.88,12h780.24
		C876.91,12,897,32.09,897,56.88v96.24C897,177.91,876.91,198,852.12,198z"/>
</g>
<rect x="80.24" y="54.81" class="st3" width="764.56" height="208.86"/>
<g>
	<g>
		<path class="st1" d="M52.86,84.7V59.22h16v3.28h-12.2v7.76h11.48v3.28H56.66v7.84h12.2v3.32H52.86z"/>
		<path class="st1" d="M75.8,84.7V57.36h3.8V84.7H75.8z"/>
		<path class="st1" d="M93.9,65.46h4.36l5.42,15.98h-0.4l5.42-15.98h4.36l-7.48,19.24h-4.22L93.9,65.46z"/>
		<path class="st1" d="M124.46,85.22c-1.65,0-3.15-0.43-4.48-1.28c-1.33-0.85-2.39-2.04-3.17-3.56c-0.78-1.52-1.17-3.28-1.17-5.28
			c0-2.12,0.39-3.94,1.16-5.45s1.83-2.68,3.16-3.49c1.33-0.81,2.83-1.22,4.5-1.22c1.49,0,2.77,0.3,3.84,0.91
			c1.07,0.61,1.93,1.42,2.58,2.44s1.1,2.18,1.35,3.47c0.25,1.29,0.29,2.63,0.13,4h-13.68v-2.2h11.08l-0.92,0.6
			c0.04-0.72,0-1.44-0.11-2.16c-0.11-0.72-0.33-1.38-0.65-1.99c-0.32-0.61-0.77-1.09-1.35-1.46c-0.58-0.37-1.32-0.55-2.21-0.55
			c-1.12,0-2.06,0.28-2.81,0.84s-1.32,1.31-1.71,2.25s-0.58,1.97-0.58,3.09v1.54c0,1.24,0.19,2.34,0.56,3.3
			c0.37,0.96,0.93,1.72,1.67,2.27c0.74,0.55,1.68,0.83,2.81,0.83c1.11,0,2.02-0.26,2.75-0.78c0.73-0.52,1.18-1.3,1.35-2.34h3.88
			c-0.2,1.25-0.66,2.35-1.38,3.28c-0.72,0.93-1.64,1.66-2.77,2.17S125.89,85.22,124.46,85.22z"/>
		<path class="st1" d="M138.38,84.7V65.4h3.8v19.3H138.38z M141.14,76.1c0-2.47,0.26-4.52,0.77-6.15c0.51-1.63,1.23-2.85,2.16-3.65
			c0.93-0.8,2.02-1.2,3.27-1.2c0.37,0,0.72,0.03,1.05,0.08s0.65,0.13,0.97,0.22l-0.14,3.78c-0.36-0.09-0.75-0.18-1.17-0.25
			s-0.8-0.11-1.15-0.11c-1.09,0-1.99,0.29-2.68,0.87c-0.69,0.58-1.21,1.41-1.54,2.5c-0.33,1.09-0.5,2.39-0.5,3.91H141.14z"/>
		<path class="st1" d="M158.98,85.22c-1.61,0-2.95-0.28-4.02-0.85s-1.86-1.31-2.39-2.23c-0.53-0.92-0.79-1.9-0.79-2.94
			c0-1.27,0.32-2.31,0.97-3.13c0.65-0.82,1.54-1.43,2.69-1.83c1.15-0.4,2.47-0.6,3.96-0.6c1.03,0,2.03,0.09,3,0.28
			c0.97,0.19,1.93,0.43,2.88,0.74v2.3c-0.77-0.28-1.63-0.5-2.57-0.67c-0.94-0.17-1.82-0.25-2.63-0.25c-1.21,0-2.23,0.24-3.04,0.72
			c-0.81,0.48-1.22,1.29-1.22,2.44c0,0.84,0.32,1.56,0.96,2.17c0.64,0.61,1.65,0.91,3.04,0.91c1.01,0,1.91-0.23,2.68-0.69
			c0.77-0.46,1.37-1.04,1.8-1.73s0.64-1.39,0.64-2.08h0.92c0,1.33-0.27,2.56-0.81,3.69s-1.32,2.03-2.35,2.72
			C161.67,84.87,160.43,85.22,158.98,85.22z M165.42,84.7l-0.48-4.42v-8.02c0-1.57-0.33-2.72-0.98-3.43
			c-0.65-0.71-1.69-1.07-3.1-1.07c-0.8,0-1.51,0.12-2.13,0.35c-0.62,0.23-1.11,0.58-1.46,1.05c-0.35,0.47-0.53,1.05-0.53,1.76h-4.2
			c0-1.41,0.35-2.56,1.04-3.44c0.69-0.88,1.66-1.52,2.91-1.93c1.25-0.41,2.7-0.61,4.37-0.61c1.56,0,2.93,0.26,4.12,0.77
			c1.19,0.51,2.11,1.32,2.77,2.41c0.66,1.09,0.99,2.51,0.99,4.24V84.7H165.42z"/>
		<path class="st1" d="M175.96,84.7V65.46h3.3l0.5,4.16V84.7H175.96z M189.44,84.7V73.42c0-1.67-0.4-2.93-1.19-3.79
			c-0.79-0.86-1.86-1.29-3.21-1.29c-1.07,0-2,0.29-2.79,0.87c-0.79,0.58-1.41,1.43-1.84,2.54c-0.43,1.11-0.65,2.47-0.65,4.07h-1.36
			c0-2.36,0.3-4.35,0.91-5.96c0.61-1.61,1.48-2.84,2.61-3.67c1.13-0.83,2.49-1.25,4.08-1.25c1.55,0,2.86,0.35,3.93,1.04
			c1.07,0.69,1.89,1.68,2.45,2.95c0.56,1.27,0.84,2.77,0.84,4.49V84.7H189.44z"/>
		<path class="st1" d="M207.68,85.22c-1.75,0-3.31-0.38-4.69-1.14c-1.38-0.76-2.47-1.89-3.27-3.4c-0.8-1.51-1.2-3.37-1.2-5.58
			c0-2.25,0.4-4.13,1.2-5.63c0.8-1.5,1.89-2.63,3.27-3.39c1.38-0.76,2.94-1.14,4.69-1.14c1.72,0,3.27,0.38,4.64,1.14
			c1.37,0.76,2.46,1.89,3.25,3.39s1.19,3.38,1.19,5.63c0,2.21-0.4,4.07-1.19,5.58c-0.79,1.51-1.88,2.64-3.25,3.4
			S209.4,85.22,207.68,85.22z M207.56,81.9c1.11,0,2.06-0.27,2.87-0.8c0.81-0.53,1.43-1.31,1.86-2.33c0.43-1.02,0.65-2.24,0.65-3.67
			c0-2.19-0.44-3.88-1.33-5.08c-0.89-1.2-2.16-1.8-3.83-1.8c-1.12,0-2.08,0.27-2.89,0.81s-1.43,1.32-1.86,2.34
			c-0.43,1.02-0.65,2.26-0.65,3.73c0,2.15,0.45,3.82,1.34,5.01C204.61,81.3,205.89,81.9,207.56,81.9z"/>
		<path class="st1" d="M232.4,94.14V65.46h3.14l0.66,4.62v24.06H232.4z M241.52,85.22c-1.4,0-2.61-0.32-3.64-0.95
			c-1.03-0.63-1.81-1.57-2.35-2.8c-0.54-1.23-0.81-2.76-0.81-4.59h1.48c0,1.05,0.23,1.94,0.68,2.67s1.05,1.28,1.79,1.66
			s1.53,0.57,2.37,0.57c0.88,0,1.74-0.25,2.57-0.75c0.83-0.5,1.52-1.25,2.05-2.25s0.8-2.24,0.8-3.72c0-1.41-0.24-2.62-0.71-3.62
			c-0.47-1-1.12-1.77-1.93-2.3c-0.81-0.53-1.73-0.8-2.74-0.8c-0.85,0-1.65,0.2-2.4,0.61c-0.75,0.41-1.35,1-1.8,1.78
			c-0.45,0.78-0.68,1.73-0.68,2.85h-1.48c0-1.93,0.31-3.54,0.93-4.82c0.62-1.28,1.46-2.24,2.51-2.87c1.05-0.63,2.22-0.95,3.5-0.95
			c1.51,0,2.92,0.4,4.24,1.21s2.39,1.96,3.21,3.47c0.82,1.51,1.23,3.32,1.23,5.44c0,2.12-0.41,3.94-1.24,5.46
			c-0.83,1.52-1.91,2.68-3.25,3.49S243.06,85.22,241.52,85.22z"/>
		<path class="st1" d="M261.84,85.22c-1.61,0-2.95-0.28-4.02-0.85c-1.07-0.57-1.86-1.31-2.39-2.23c-0.53-0.92-0.79-1.9-0.79-2.94
			c0-1.27,0.32-2.31,0.97-3.13c0.65-0.82,1.54-1.43,2.69-1.83s2.47-0.6,3.96-0.6c1.03,0,2.03,0.09,3,0.28
			c0.97,0.19,1.93,0.43,2.88,0.74v2.3c-0.77-0.28-1.63-0.5-2.57-0.67c-0.94-0.17-1.82-0.25-2.63-0.25c-1.21,0-2.23,0.24-3.04,0.72
			s-1.22,1.29-1.22,2.44c0,0.84,0.32,1.56,0.96,2.17c0.64,0.61,1.65,0.91,3.04,0.91c1.01,0,1.91-0.23,2.68-0.69
			c0.77-0.46,1.37-1.04,1.8-1.73s0.64-1.39,0.64-2.08h0.92c0,1.33-0.27,2.56-0.81,3.69s-1.32,2.03-2.35,2.72
			C264.53,84.87,263.29,85.22,261.84,85.22z M268.28,84.7l-0.48-4.42v-8.02c0-1.57-0.33-2.72-0.98-3.43
			c-0.65-0.71-1.69-1.07-3.1-1.07c-0.8,0-1.51,0.12-2.13,0.35c-0.62,0.23-1.11,0.58-1.46,1.05c-0.35,0.47-0.53,1.05-0.53,1.76h-4.2
			c0-1.41,0.35-2.56,1.04-3.44c0.69-0.88,1.66-1.52,2.91-1.93c1.25-0.41,2.7-0.61,4.37-0.61c1.56,0,2.93,0.26,4.12,0.77
			c1.19,0.51,2.11,1.32,2.77,2.41c0.66,1.09,0.99,2.51,0.99,4.24V84.7H268.28z"/>
		<path class="st1" d="M285.86,85.22c-1.87,0-3.44-0.26-4.72-0.79c-1.28-0.53-2.26-1.26-2.93-2.2c-0.67-0.94-1.02-2.04-1.05-3.31
			h3.58c0.05,1.11,0.5,1.93,1.33,2.46c0.83,0.53,1.96,0.8,3.39,0.8c0.76,0,1.45-0.12,2.07-0.36c0.62-0.24,1.11-0.57,1.48-0.98
			c0.37-0.41,0.55-0.88,0.55-1.4c0-0.65-0.24-1.17-0.72-1.55c-0.48-0.38-1.25-0.72-2.32-1.01l-3.94-1.34
			c-1.57-0.53-2.78-1.24-3.62-2.13s-1.26-1.95-1.26-3.19c0-1.59,0.71-2.86,2.12-3.83c1.41-0.97,3.29-1.45,5.62-1.45
			c2.41,0,4.28,0.51,5.59,1.53c1.31,1.02,2,2.3,2.05,3.83h-3.66c-0.09-0.76-0.47-1.34-1.13-1.75s-1.61-0.61-2.85-0.61
			c-1.16,0-2.07,0.25-2.73,0.76c-0.66,0.51-0.99,1.08-0.99,1.72c0,1.15,0.99,2,2.96,2.56l4.14,1.46c1.57,0.51,2.79,1.16,3.64,1.96
			c0.85,0.8,1.28,1.81,1.28,3.04c0,0.99-0.33,1.92-0.98,2.8s-1.57,1.6-2.75,2.15C288.83,84.94,287.44,85.22,285.86,85.22z"/>
		<path class="st1" d="M305.5,85.22c-1.61,0-2.95-0.28-4.02-0.85s-1.86-1.31-2.39-2.23c-0.53-0.92-0.79-1.9-0.79-2.94
			c0-1.27,0.32-2.31,0.97-3.13c0.65-0.82,1.54-1.43,2.69-1.83c1.15-0.4,2.47-0.6,3.96-0.6c1.03,0,2.03,0.09,3,0.28
			c0.97,0.19,1.93,0.43,2.88,0.74v2.3c-0.77-0.28-1.63-0.5-2.57-0.67c-0.94-0.17-1.82-0.25-2.63-0.25c-1.21,0-2.23,0.24-3.04,0.72
			c-0.81,0.48-1.22,1.29-1.22,2.44c0,0.84,0.32,1.56,0.96,2.17c0.64,0.61,1.65,0.91,3.04,0.91c1.01,0,1.91-0.23,2.68-0.69
			c0.77-0.46,1.37-1.04,1.8-1.73s0.64-1.39,0.64-2.08h0.92c0,1.33-0.27,2.56-0.81,3.69s-1.32,2.03-2.35,2.72
			C308.19,84.87,306.95,85.22,305.5,85.22z M311.94,84.7l-0.48-4.42v-8.02c0-1.57-0.33-2.72-0.98-3.43
			c-0.65-0.71-1.69-1.07-3.1-1.07c-0.8,0-1.51,0.12-2.13,0.35c-0.62,0.23-1.11,0.58-1.46,1.05c-0.35,0.47-0.53,1.05-0.53,1.76h-4.2
			c0-1.41,0.35-2.56,1.04-3.44c0.69-0.88,1.66-1.52,2.91-1.93c1.25-0.41,2.7-0.61,4.37-0.61c1.56,0,2.93,0.26,4.12,0.77
			c1.19,0.51,2.11,1.32,2.77,2.41c0.66,1.09,0.99,2.51,0.99,4.24V84.7H311.94z"/>
		<path class="st1" d="M329.46,85.22c-1.57,0-3.02-0.42-4.34-1.27s-2.37-2.03-3.15-3.56c-0.78-1.53-1.17-3.32-1.17-5.39
			c0-2.05,0.38-3.83,1.15-5.34c0.77-1.51,1.78-2.67,3.05-3.49c1.27-0.82,2.67-1.23,4.22-1.23c1.41,0,2.65,0.34,3.7,1.03
			c1.05,0.69,1.87,1.68,2.45,2.99c0.58,1.31,0.87,2.9,0.87,4.78h-1.32c0-1.16-0.23-2.14-0.7-2.95c-0.47-0.81-1.07-1.42-1.82-1.83
			c-0.75-0.41-1.55-0.62-2.4-0.62c-1,0-1.9,0.27-2.71,0.81s-1.45,1.31-1.92,2.3c-0.47,0.99-0.71,2.18-0.71,3.55
			c0,1.39,0.24,2.59,0.71,3.61c0.47,1.02,1.11,1.8,1.92,2.35c0.81,0.55,1.7,0.82,2.69,0.82c0.81,0,1.6-0.22,2.35-0.65
			c0.75-0.43,1.37-1.06,1.86-1.87c0.49-0.81,0.73-1.78,0.73-2.9h1.32c0,1.92-0.3,3.54-0.91,4.86c-0.61,1.32-1.42,2.32-2.45,2.99
			S330.71,85.22,329.46,85.22z M335.58,84.7l-0.66-4.62V57.36h3.82V84.7H335.58z"/>
		<path class="st1" d="M353.78,85.22c-1.75,0-3.31-0.38-4.69-1.14c-1.38-0.76-2.47-1.89-3.27-3.4c-0.8-1.51-1.2-3.37-1.2-5.58
			c0-2.25,0.4-4.13,1.2-5.63c0.8-1.5,1.89-2.63,3.27-3.39c1.38-0.76,2.94-1.14,4.69-1.14c1.72,0,3.27,0.38,4.64,1.14
			c1.37,0.76,2.46,1.89,3.25,3.39c0.79,1.5,1.19,3.38,1.19,5.63c0,2.21-0.4,4.07-1.19,5.58c-0.79,1.51-1.88,2.64-3.25,3.4
			S355.5,85.22,353.78,85.22z M353.66,81.9c1.11,0,2.06-0.27,2.87-0.8c0.81-0.53,1.43-1.31,1.86-2.33c0.43-1.02,0.65-2.24,0.65-3.67
			c0-2.19-0.44-3.88-1.33-5.08c-0.89-1.2-2.16-1.8-3.83-1.8c-1.12,0-2.08,0.27-2.89,0.81c-0.81,0.54-1.43,1.32-1.86,2.34
			c-0.43,1.02-0.65,2.26-0.65,3.73c0,2.15,0.45,3.82,1.34,5.01C350.71,81.3,351.99,81.9,353.66,81.9z"/>
		<path class="st1" d="M376.55,68.04v-2.58h10.62v2.58H376.55z M379.57,84.7V62.76c0-1.33,0.26-2.42,0.77-3.25
			c0.51-0.83,1.2-1.45,2.05-1.85s1.79-0.6,2.82-0.6c0.59,0,1.19,0.04,1.81,0.12c0.62,0.08,1.23,0.2,1.83,0.36l-0.72,2.96
			c-0.37-0.13-0.75-0.24-1.13-0.32s-0.74-0.12-1.09-0.12c-0.41,0-0.81,0.08-1.2,0.23c-0.39,0.15-0.7,0.43-0.95,0.83
			s-0.37,0.97-0.37,1.7V84.7H379.57z"/>
		<path class="st1" d="M392.13,65.4h3.8v11.92c0,1.45,0.36,2.55,1.07,3.3c0.71,0.75,1.72,1.12,3.01,1.12c1.09,0,2.06-0.29,2.89-0.86
			c0.83-0.57,1.49-1.39,1.96-2.44c0.47-1.05,0.71-2.3,0.71-3.74h1.22c0,2.25-0.31,4.15-0.92,5.68s-1.47,2.7-2.58,3.49
			c-1.11,0.79-2.4,1.19-3.88,1.19c-1.41,0-2.67-0.26-3.77-0.78s-1.96-1.32-2.58-2.41c-0.62-1.09-0.93-2.49-0.93-4.21V65.4z
			 M405.57,65.4h3.82v19.3h-3.82V65.4z"/>
		<path class="st1" d="M419.39,61.36c-0.76,0-1.36-0.21-1.79-0.63c-0.43-0.42-0.65-0.99-0.65-1.71c0-0.69,0.22-1.24,0.65-1.65
			c0.43-0.41,1.03-0.61,1.79-0.61c0.75,0,1.34,0.2,1.77,0.61c0.43,0.41,0.65,0.96,0.65,1.65c0,0.72-0.22,1.29-0.65,1.71
			C420.73,61.15,420.14,61.36,419.39,61.36z M417.49,84.7V65.4h3.8v19.3H417.49z"/>
		<path class="st1" d="M445.01,85.22c-1.61,0-2.95-0.28-4.02-0.85c-1.07-0.57-1.86-1.31-2.39-2.23c-0.53-0.92-0.79-1.9-0.79-2.94
			c0-1.27,0.32-2.31,0.97-3.13c0.65-0.82,1.54-1.43,2.69-1.83s2.47-0.6,3.96-0.6c1.03,0,2.03,0.09,3,0.28
			c0.97,0.19,1.93,0.43,2.88,0.74v2.3c-0.77-0.28-1.63-0.5-2.57-0.67c-0.94-0.17-1.82-0.25-2.63-0.25c-1.21,0-2.23,0.24-3.04,0.72
			s-1.22,1.29-1.22,2.44c0,0.84,0.32,1.56,0.96,2.17c0.64,0.61,1.65,0.91,3.04,0.91c1.01,0,1.91-0.23,2.68-0.69
			c0.77-0.46,1.37-1.04,1.8-1.73s0.64-1.39,0.64-2.08h0.92c0,1.33-0.27,2.56-0.81,3.69s-1.32,2.03-2.35,2.72
			C447.71,84.87,446.47,85.22,445.01,85.22z M451.45,84.7l-0.48-4.42v-8.02c0-1.57-0.33-2.72-0.98-3.43
			c-0.65-0.71-1.69-1.07-3.1-1.07c-0.8,0-1.51,0.12-2.13,0.35c-0.62,0.23-1.11,0.58-1.46,1.05c-0.35,0.47-0.53,1.05-0.53,1.76h-4.2
			c0-1.41,0.35-2.56,1.04-3.44c0.69-0.88,1.66-1.52,2.91-1.93c1.25-0.41,2.7-0.61,4.37-0.61c1.56,0,2.93,0.26,4.12,0.77
			c1.19,0.51,2.11,1.32,2.77,2.41c0.66,1.09,0.99,2.51,0.99,4.24V84.7H451.45z"/>
		<path class="st1" d="M469.17,68.04v-2.58h12.42v2.58H469.17z M477.93,85.22c-1.09,0-2.08-0.21-2.96-0.62
			c-0.88-0.41-1.58-1.04-2.09-1.87c-0.51-0.83-0.77-1.88-0.77-3.15V60.22h3.78v19.24c0,1.81,0.85,2.72,2.54,2.72
			c0.52,0,1.03-0.06,1.52-0.17c0.49-0.11,1.05-0.28,1.68-0.51l0.54,2.7c-0.71,0.29-1.4,0.54-2.09,0.73
			C479.4,85.12,478.68,85.22,477.93,85.22z"/>
		<path class="st1" d="M487.11,84.7V65.4h3.8v19.3H487.11z M489.87,76.1c0-2.47,0.26-4.52,0.77-6.15c0.51-1.63,1.23-2.85,2.16-3.65
			c0.93-0.8,2.02-1.2,3.27-1.2c0.37,0,0.72,0.03,1.05,0.08c0.33,0.05,0.65,0.13,0.97,0.22l-0.14,3.78
			c-0.36-0.09-0.75-0.18-1.17-0.25c-0.42-0.07-0.8-0.11-1.15-0.11c-1.09,0-1.99,0.29-2.68,0.87c-0.69,0.58-1.21,1.41-1.54,2.5
			c-0.33,1.09-0.5,2.39-0.5,3.91H489.87z"/>
		<path class="st1" d="M507.71,85.22c-1.61,0-2.95-0.28-4.02-0.85s-1.86-1.31-2.39-2.23s-0.79-1.9-0.79-2.94
			c0-1.27,0.32-2.31,0.97-3.13c0.65-0.82,1.54-1.43,2.69-1.83s2.47-0.6,3.96-0.6c1.03,0,2.03,0.09,3,0.28
			c0.97,0.19,1.93,0.43,2.88,0.74v2.3c-0.77-0.28-1.63-0.5-2.57-0.67c-0.94-0.17-1.82-0.25-2.63-0.25c-1.21,0-2.23,0.24-3.04,0.72
			c-0.81,0.48-1.22,1.29-1.22,2.44c0,0.84,0.32,1.56,0.96,2.17c0.64,0.61,1.65,0.91,3.04,0.91c1.01,0,1.91-0.23,2.68-0.69
			c0.77-0.46,1.37-1.04,1.8-1.73c0.43-0.69,0.64-1.39,0.64-2.08h0.92c0,1.33-0.27,2.56-0.81,3.69c-0.54,1.13-1.32,2.03-2.35,2.72
			S509.17,85.22,507.71,85.22z M514.15,84.7l-0.48-4.42v-8.02c0-1.57-0.33-2.72-0.98-3.43c-0.65-0.71-1.69-1.07-3.1-1.07
			c-0.8,0-1.51,0.12-2.13,0.35s-1.11,0.58-1.46,1.05c-0.35,0.47-0.53,1.05-0.53,1.76h-4.2c0-1.41,0.35-2.56,1.04-3.44
			c0.69-0.88,1.66-1.52,2.91-1.93s2.7-0.61,4.37-0.61c1.56,0,2.93,0.26,4.12,0.77c1.19,0.51,2.11,1.32,2.77,2.41
			c0.66,1.09,0.99,2.51,0.99,4.24V84.7H514.15z"/>
		<path class="st1" d="M524.69,84.7V57.36h3.8v22.72l-1.22,4.62H524.69z M533.95,85.22c-1.25,0-2.39-0.34-3.41-1.01
			c-1.02-0.67-1.83-1.67-2.44-2.99c-0.61-1.32-0.91-2.94-0.91-4.86h1.3c0,1.12,0.24,2.09,0.73,2.9c0.49,0.81,1.11,1.44,1.87,1.87
			c0.76,0.43,1.55,0.65,2.38,0.65c0.99,0,1.88-0.27,2.67-0.82c0.79-0.55,1.43-1.33,1.9-2.35c0.47-1.02,0.71-2.22,0.71-3.61
			c0-1.37-0.23-2.56-0.7-3.55c-0.47-0.99-1.1-1.76-1.9-2.3s-1.71-0.81-2.72-0.81c-0.85,0-1.66,0.21-2.41,0.62
			c-0.75,0.41-1.36,1.02-1.83,1.83c-0.47,0.81-0.7,1.79-0.7,2.95h-1.3c0-1.88,0.29-3.47,0.88-4.78c0.59-1.31,1.4-2.3,2.45-2.99
			c1.05-0.69,2.28-1.03,3.69-1.03c1.53,0,2.94,0.41,4.21,1.23c1.27,0.82,2.29,1.98,3.06,3.49c0.77,1.51,1.15,3.29,1.15,5.34
			c0,2.07-0.39,3.86-1.18,5.39c-0.79,1.53-1.84,2.71-3.15,3.56C536.99,84.79,535.54,85.22,533.95,85.22z"/>
		<path class="st1" d="M554.37,85.22c-1.61,0-2.95-0.28-4.02-0.85c-1.07-0.57-1.86-1.31-2.39-2.23s-0.79-1.9-0.79-2.94
			c0-1.27,0.32-2.31,0.97-3.13c0.65-0.82,1.54-1.43,2.69-1.83c1.15-0.4,2.47-0.6,3.96-0.6c1.03,0,2.03,0.09,3,0.28
			c0.97,0.19,1.93,0.43,2.88,0.74v2.3c-0.77-0.28-1.63-0.5-2.57-0.67c-0.94-0.17-1.82-0.25-2.63-0.25c-1.21,0-2.23,0.24-3.04,0.72
			c-0.81,0.48-1.22,1.29-1.22,2.44c0,0.84,0.32,1.56,0.96,2.17s1.65,0.91,3.04,0.91c1.01,0,1.91-0.23,2.68-0.69
			c0.77-0.46,1.37-1.04,1.8-1.73c0.43-0.69,0.64-1.39,0.64-2.08h0.92c0,1.33-0.27,2.56-0.81,3.69c-0.54,1.13-1.32,2.03-2.35,2.72
			C557.06,84.87,555.82,85.22,554.37,85.22z M560.81,84.7l-0.48-4.42v-8.02c0-1.57-0.33-2.72-0.98-3.43
			c-0.65-0.71-1.69-1.07-3.1-1.07c-0.8,0-1.51,0.12-2.13,0.35s-1.11,0.58-1.46,1.05c-0.35,0.47-0.53,1.05-0.53,1.76h-4.2
			c0-1.41,0.35-2.56,1.04-3.44c0.69-0.88,1.66-1.52,2.91-1.93s2.7-0.61,4.37-0.61c1.56,0,2.93,0.26,4.12,0.77
			c1.19,0.51,2.11,1.32,2.77,2.41c0.66,1.09,0.99,2.51,0.99,4.24V84.7H560.81z"/>
		<path class="st1" d="M569.65,94.62c-0.97,0-1.9-0.12-2.77-0.35c-0.87-0.23-1.77-0.58-2.69-1.03l0.12-3.28
			c0.75,0.39,1.49,0.71,2.24,0.96c0.75,0.25,1.51,0.38,2.28,0.38c1.05,0,1.87-0.32,2.44-0.97s0.86-1.69,0.86-3.13V65.38h3.78v21.86
			c0,2.64-0.57,4.53-1.7,5.67C573.08,94.05,571.56,94.62,569.65,94.62z M573.99,61.36c-0.75,0-1.34-0.21-1.77-0.63
			c-0.43-0.42-0.65-0.99-0.65-1.71c0-0.69,0.22-1.24,0.65-1.65c0.43-0.41,1.02-0.61,1.77-0.61c0.75,0,1.34,0.2,1.78,0.61
			c0.44,0.41,0.66,0.96,0.66,1.65c0,0.72-0.22,1.29-0.66,1.71C575.33,61.15,574.74,61.36,573.99,61.36z"/>
		<path class="st1" d="M589.87,85.22c-1.61,0-2.95-0.28-4.02-0.85c-1.07-0.57-1.86-1.31-2.39-2.23c-0.53-0.92-0.79-1.9-0.79-2.94
			c0-1.27,0.32-2.31,0.97-3.13c0.65-0.82,1.54-1.43,2.69-1.83s2.47-0.6,3.96-0.6c1.03,0,2.03,0.09,3,0.28
			c0.97,0.19,1.93,0.43,2.88,0.74v2.3c-0.77-0.28-1.63-0.5-2.57-0.67c-0.94-0.17-1.82-0.25-2.63-0.25c-1.21,0-2.23,0.24-3.04,0.72
			s-1.22,1.29-1.22,2.44c0,0.84,0.32,1.56,0.96,2.17c0.64,0.61,1.65,0.91,3.04,0.91c1.01,0,1.91-0.23,2.68-0.69
			c0.77-0.46,1.37-1.04,1.8-1.73s0.64-1.39,0.64-2.08h0.92c0,1.33-0.27,2.56-0.81,3.69s-1.32,2.03-2.35,2.72
			C592.56,84.87,591.32,85.22,589.87,85.22z M596.31,84.7l-0.48-4.42v-8.02c0-1.57-0.33-2.72-0.98-3.43
			c-0.65-0.71-1.69-1.07-3.1-1.07c-0.8,0-1.51,0.12-2.13,0.35c-0.62,0.23-1.11,0.58-1.46,1.05c-0.35,0.47-0.53,1.05-0.53,1.76h-4.2
			c0-1.41,0.35-2.56,1.04-3.44c0.69-0.88,1.66-1.52,2.91-1.93c1.25-0.41,2.7-0.61,4.37-0.61c1.56,0,2.93,0.26,4.12,0.77
			c1.19,0.51,2.11,1.32,2.77,2.41c0.66,1.09,0.99,2.51,0.99,4.24V84.7H596.31z"/>
		<path class="st1" d="M606.85,84.7V65.4h3.8v19.3H606.85z M609.61,76.1c0-2.47,0.26-4.52,0.77-6.15c0.51-1.63,1.23-2.85,2.16-3.65
			c0.93-0.8,2.02-1.2,3.27-1.2c0.37,0,0.72,0.03,1.05,0.08c0.33,0.05,0.65,0.13,0.97,0.22l-0.14,3.78
			c-0.36-0.09-0.75-0.18-1.17-0.25c-0.42-0.07-0.8-0.11-1.15-0.11c-1.09,0-1.99,0.29-2.68,0.87c-0.69,0.58-1.21,1.41-1.54,2.5
			c-0.33,1.09-0.5,2.39-0.5,3.91H609.61z"/>
		<path class="st1" d="M637.21,85.22c-1.61,0-2.95-0.28-4.02-0.85s-1.86-1.31-2.39-2.23c-0.53-0.92-0.79-1.9-0.79-2.94
			c0-1.27,0.32-2.31,0.97-3.13c0.65-0.82,1.54-1.43,2.69-1.83c1.15-0.4,2.47-0.6,3.96-0.6c1.03,0,2.03,0.09,3,0.28
			c0.97,0.19,1.93,0.43,2.88,0.74v2.3c-0.77-0.28-1.63-0.5-2.57-0.67c-0.94-0.17-1.82-0.25-2.63-0.25c-1.21,0-2.23,0.24-3.04,0.72
			c-0.81,0.48-1.22,1.29-1.22,2.44c0,0.84,0.32,1.56,0.96,2.17c0.64,0.61,1.65,0.91,3.04,0.91c1.01,0,1.91-0.23,2.68-0.69
			c0.77-0.46,1.37-1.04,1.8-1.73s0.64-1.39,0.64-2.08h0.92c0,1.33-0.27,2.56-0.81,3.69s-1.32,2.03-2.35,2.72
			C639.9,84.87,638.66,85.22,637.21,85.22z M643.65,84.7l-0.48-4.42v-8.02c0-1.57-0.33-2.72-0.98-3.43
			c-0.65-0.71-1.69-1.07-3.1-1.07c-0.8,0-1.51,0.12-2.13,0.35c-0.62,0.23-1.11,0.58-1.46,1.05c-0.35,0.47-0.53,1.05-0.53,1.76h-4.2
			c0-1.41,0.35-2.56,1.04-3.44c0.69-0.88,1.66-1.52,2.91-1.93c1.25-0.41,2.7-0.61,4.37-0.61c1.56,0,2.93,0.26,4.12,0.77
			c1.19,0.51,2.11,1.32,2.77,2.41c0.66,1.09,0.99,2.51,0.99,4.24V84.7H643.65z"/>
		<path class="st1" d="M663.95,84.7V57.36h3.8V84.7H663.95z"/>
		<path class="st1" d="M681.19,85.22c-1.61,0-2.95-0.28-4.02-0.85c-1.07-0.57-1.86-1.31-2.39-2.23c-0.53-0.92-0.79-1.9-0.79-2.94
			c0-1.27,0.32-2.31,0.97-3.13c0.65-0.82,1.54-1.43,2.69-1.83s2.47-0.6,3.96-0.6c1.03,0,2.03,0.09,3,0.28
			c0.97,0.19,1.93,0.43,2.88,0.74v2.3c-0.77-0.28-1.63-0.5-2.57-0.67c-0.94-0.17-1.82-0.25-2.63-0.25c-1.21,0-2.23,0.24-3.04,0.72
			s-1.22,1.29-1.22,2.44c0,0.84,0.32,1.56,0.96,2.17c0.64,0.61,1.65,0.91,3.04,0.91c1.01,0,1.91-0.23,2.68-0.69
			c0.77-0.46,1.37-1.04,1.8-1.73s0.64-1.39,0.64-2.08h0.92c0,1.33-0.27,2.56-0.81,3.69s-1.32,2.03-2.35,2.72
			C683.88,84.87,682.64,85.22,681.19,85.22z M687.63,84.7l-0.48-4.42v-8.02c0-1.57-0.33-2.72-0.98-3.43
			c-0.65-0.71-1.69-1.07-3.1-1.07c-0.8,0-1.51,0.12-2.13,0.35c-0.62,0.23-1.11,0.58-1.46,1.05c-0.35,0.47-0.53,1.05-0.53,1.76h-4.2
			c0-1.41,0.35-2.56,1.04-3.44c0.69-0.88,1.66-1.52,2.91-1.93c1.25-0.41,2.7-0.61,4.37-0.61c1.56,0,2.93,0.26,4.12,0.77
			c1.19,0.51,2.11,1.32,2.77,2.41c0.66,1.09,0.99,2.51,0.99,4.24V84.7H687.63z"/>
		<path class="st1" d="M714.93,85.22c-1.57,0-3.04-0.42-4.4-1.26c-1.36-0.84-2.45-2.02-3.28-3.54c-0.83-1.52-1.24-3.31-1.24-5.36
			c0-2.16,0.41-3.99,1.24-5.49s1.92-2.65,3.28-3.44s2.83-1.19,4.4-1.19c1.16,0,2.19,0.18,3.1,0.55s1.69,0.86,2.34,1.48
			s1.18,1.32,1.59,2.09c0.41,0.77,0.69,1.57,0.85,2.4l-3.86,0.2c-0.28-1-0.77-1.8-1.47-2.41c-0.7-0.61-1.56-0.91-2.59-0.91
			c-0.87,0-1.68,0.24-2.45,0.73s-1.39,1.23-1.86,2.22c-0.47,0.99-0.71,2.25-0.71,3.77c0,1.41,0.22,2.62,0.66,3.62
			c0.44,1,1.04,1.77,1.8,2.3s1.61,0.8,2.56,0.8c1.36,0,2.38-0.33,3.05-0.99c0.67-0.66,1.01-1.57,1.01-2.73h3.86
			c0,1.35-0.31,2.56-0.94,3.64s-1.53,1.94-2.71,2.57C717.98,84.9,716.57,85.22,714.93,85.22z"/>
		<path class="st1" d="M736.03,85.22c-1.75,0-3.31-0.38-4.69-1.14c-1.38-0.76-2.47-1.89-3.27-3.4c-0.8-1.51-1.2-3.37-1.2-5.58
			c0-2.25,0.4-4.13,1.2-5.63c0.8-1.5,1.89-2.63,3.27-3.39c1.38-0.76,2.94-1.14,4.69-1.14c1.72,0,3.27,0.38,4.64,1.14
			c1.37,0.76,2.46,1.89,3.25,3.39s1.19,3.38,1.19,5.63c0,2.21-0.4,4.07-1.19,5.58c-0.79,1.51-1.88,2.64-3.25,3.4
			S737.75,85.22,736.03,85.22z M735.91,81.9c1.11,0,2.06-0.27,2.87-0.8c0.81-0.53,1.43-1.31,1.86-2.33
			c0.43-1.02,0.65-2.24,0.65-3.67c0-2.19-0.44-3.88-1.33-5.08c-0.89-1.2-2.16-1.8-3.83-1.8c-1.12,0-2.08,0.27-2.89,0.81
			s-1.43,1.32-1.86,2.34c-0.43,1.02-0.65,2.26-0.65,3.73c0,2.15,0.45,3.82,1.34,5.01C732.96,81.3,734.24,81.9,735.91,81.9z"/>
		<path class="st1" d="M758.03,85.22c-1.87,0-3.44-0.26-4.72-0.79c-1.28-0.53-2.26-1.26-2.93-2.2c-0.67-0.94-1.02-2.04-1.05-3.31
			h3.58c0.05,1.11,0.5,1.93,1.33,2.46c0.83,0.53,1.96,0.8,3.39,0.8c0.76,0,1.45-0.12,2.07-0.36c0.62-0.24,1.11-0.57,1.48-0.98
			c0.37-0.41,0.55-0.88,0.55-1.4c0-0.65-0.24-1.17-0.72-1.55c-0.48-0.38-1.25-0.72-2.32-1.01l-3.94-1.34
			c-1.57-0.53-2.78-1.24-3.62-2.13s-1.26-1.95-1.26-3.19c0-1.59,0.71-2.86,2.12-3.83c1.41-0.97,3.29-1.45,5.62-1.45
			c2.41,0,4.28,0.51,5.59,1.53c1.31,1.02,2,2.3,2.05,3.83h-3.66c-0.09-0.76-0.47-1.34-1.13-1.75c-0.66-0.41-1.61-0.61-2.85-0.61
			c-1.16,0-2.07,0.25-2.73,0.76c-0.66,0.51-0.99,1.08-0.99,1.72c0,1.15,0.99,2,2.96,2.56l4.14,1.46c1.57,0.51,2.79,1.16,3.64,1.96
			c0.85,0.8,1.28,1.81,1.28,3.04c0,0.99-0.33,1.92-0.98,2.8s-1.57,1.6-2.75,2.15C761,84.94,759.61,85.22,758.03,85.22z"/>
		<path class="st1" d="M778.95,85.22c-1.65,0-3.15-0.43-4.48-1.28c-1.33-0.85-2.39-2.04-3.17-3.56c-0.78-1.52-1.17-3.28-1.17-5.28
			c0-2.12,0.39-3.94,1.16-5.45s1.83-2.68,3.16-3.49c1.33-0.81,2.83-1.22,4.5-1.22c1.49,0,2.77,0.3,3.84,0.91
			c1.07,0.61,1.93,1.42,2.58,2.44s1.1,2.18,1.35,3.47c0.25,1.29,0.29,2.63,0.13,4h-13.68v-2.2h11.08l-0.92,0.6
			c0.04-0.72,0-1.44-0.11-2.16c-0.11-0.72-0.33-1.38-0.65-1.99c-0.32-0.61-0.77-1.09-1.35-1.46c-0.58-0.37-1.32-0.55-2.21-0.55
			c-1.12,0-2.06,0.28-2.81,0.84s-1.32,1.31-1.71,2.25s-0.58,1.97-0.58,3.09v1.54c0,1.24,0.19,2.34,0.56,3.3
			c0.37,0.96,0.93,1.72,1.67,2.27c0.74,0.55,1.68,0.83,2.81,0.83c1.11,0,2.02-0.26,2.75-0.78c0.73-0.52,1.18-1.3,1.35-2.34h3.88
			c-0.2,1.25-0.66,2.35-1.38,3.28c-0.72,0.93-1.64,1.66-2.77,2.17S780.37,85.22,778.95,85.22z"/>
		<path class="st1" d="M799.87,85.22c-1.57,0-3.04-0.42-4.4-1.26c-1.36-0.84-2.45-2.02-3.28-3.54c-0.83-1.52-1.24-3.31-1.24-5.36
			c0-2.16,0.41-3.99,1.24-5.49c0.83-1.5,1.92-2.65,3.28-3.44c1.36-0.79,2.83-1.19,4.4-1.19c1.16,0,2.19,0.18,3.1,0.55
			c0.91,0.37,1.69,0.86,2.34,1.48c0.65,0.62,1.18,1.32,1.59,2.09c0.41,0.77,0.69,1.57,0.85,2.4l-3.86,0.2
			c-0.28-1-0.77-1.8-1.47-2.41c-0.7-0.61-1.56-0.91-2.59-0.91c-0.87,0-1.68,0.24-2.45,0.73c-0.77,0.49-1.39,1.23-1.86,2.22
			c-0.47,0.99-0.71,2.25-0.71,3.77c0,1.41,0.22,2.62,0.66,3.62c0.44,1,1.04,1.77,1.8,2.3s1.61,0.8,2.56,0.8
			c1.36,0,2.38-0.33,3.05-0.99c0.67-0.66,1.01-1.57,1.01-2.73h3.86c0,1.35-0.31,2.56-0.94,3.64s-1.53,1.94-2.71,2.57
			C802.92,84.9,801.51,85.22,799.87,85.22z"/>
		<path class="st1" d="M813.73,84.7V57.36h3.8V84.7H813.73z M827.21,84.7V73.42c0-1.67-0.4-2.93-1.19-3.79
			c-0.79-0.86-1.86-1.29-3.21-1.29c-1.07,0-2,0.29-2.79,0.87c-0.79,0.58-1.41,1.43-1.84,2.54c-0.43,1.11-0.65,2.47-0.65,4.07h-1.36
			c0-2.36,0.3-4.35,0.91-5.96s1.48-2.84,2.61-3.67c1.13-0.83,2.49-1.25,4.08-1.25c1.55,0,2.86,0.35,3.93,1.04
			c1.07,0.69,1.89,1.68,2.45,2.95c0.56,1.27,0.84,2.77,0.84,4.49V84.7H827.21z"/>
		<path class="st1" d="M843.83,85.22c-1.61,0-2.95-0.28-4.02-0.85s-1.86-1.31-2.39-2.23c-0.53-0.92-0.79-1.9-0.79-2.94
			c0-1.27,0.32-2.31,0.97-3.13c0.65-0.82,1.54-1.43,2.69-1.83s2.47-0.6,3.96-0.6c1.03,0,2.03,0.09,3,0.28
			c0.97,0.19,1.93,0.43,2.88,0.74v2.3c-0.77-0.28-1.63-0.5-2.57-0.67c-0.94-0.17-1.82-0.25-2.63-0.25c-1.21,0-2.23,0.24-3.04,0.72
			c-0.81,0.48-1.22,1.29-1.22,2.44c0,0.84,0.32,1.56,0.96,2.17s1.65,0.91,3.04,0.91c1.01,0,1.91-0.23,2.68-0.69
			c0.77-0.46,1.37-1.04,1.8-1.73c0.43-0.69,0.64-1.39,0.64-2.08h0.92c0,1.33-0.27,2.56-0.81,3.69c-0.54,1.13-1.32,2.03-2.35,2.72
			S845.28,85.22,843.83,85.22z M850.27,84.7l-0.48-4.42v-8.02c0-1.57-0.33-2.72-0.98-3.43c-0.65-0.71-1.69-1.07-3.1-1.07
			c-0.8,0-1.51,0.12-2.13,0.35c-0.62,0.23-1.11,0.58-1.46,1.05c-0.35,0.47-0.53,1.05-0.53,1.76h-4.2c0-1.41,0.35-2.56,1.04-3.44
			c0.69-0.88,1.66-1.52,2.91-1.93c1.25-0.41,2.7-0.61,4.37-0.61c1.56,0,2.93,0.26,4.12,0.77c1.19,0.51,2.11,1.32,2.77,2.41
			c0.66,1.09,0.99,2.51,0.99,4.24V84.7H850.27z"/>
		<path class="st1" d="M59.88,133.22c-1.57,0-3.02-0.42-4.34-1.27s-2.37-2.03-3.15-3.56c-0.78-1.53-1.17-3.32-1.17-5.39
			c0-2.05,0.38-3.83,1.15-5.34c0.77-1.51,1.78-2.67,3.05-3.49s2.67-1.23,4.22-1.23c1.41,0,2.65,0.34,3.7,1.03
			c1.05,0.69,1.87,1.68,2.45,2.99c0.58,1.31,0.87,2.9,0.87,4.78h-1.32c0-1.16-0.23-2.14-0.7-2.95c-0.47-0.81-1.07-1.42-1.82-1.83
			c-0.75-0.41-1.55-0.62-2.4-0.62c-1,0-1.9,0.27-2.71,0.81s-1.45,1.31-1.92,2.3s-0.71,2.18-0.71,3.55c0,1.39,0.24,2.59,0.71,3.61
			s1.11,1.8,1.92,2.35c0.81,0.55,1.7,0.82,2.69,0.82c0.81,0,1.6-0.22,2.35-0.65c0.75-0.43,1.37-1.06,1.86-1.87
			c0.49-0.81,0.73-1.78,0.73-2.9h1.32c0,1.92-0.3,3.54-0.91,4.86c-0.61,1.32-1.42,2.32-2.45,2.99S61.13,133.22,59.88,133.22z
			 M66,132.7l-0.66-4.62v-22.72h3.82v27.34H66z"/>
		<path class="st1" d="M83.86,133.22c-1.65,0-3.15-0.43-4.48-1.28c-1.33-0.85-2.39-2.04-3.17-3.56c-0.78-1.52-1.17-3.28-1.17-5.28
			c0-2.12,0.39-3.94,1.16-5.45s1.83-2.68,3.16-3.49c1.33-0.81,2.83-1.22,4.5-1.22c1.49,0,2.77,0.3,3.84,0.91
			c1.07,0.61,1.93,1.42,2.58,2.44s1.1,2.18,1.35,3.47c0.25,1.29,0.29,2.63,0.13,4H78.08v-2.2h11.08l-0.92,0.6
			c0.04-0.72,0-1.44-0.11-2.16c-0.11-0.72-0.33-1.38-0.65-1.99c-0.32-0.61-0.77-1.09-1.35-1.46c-0.58-0.37-1.32-0.55-2.21-0.55
			c-1.12,0-2.06,0.28-2.81,0.84c-0.75,0.56-1.32,1.31-1.71,2.25c-0.39,0.94-0.58,1.97-0.58,3.09v1.54c0,1.24,0.19,2.34,0.56,3.3
			c0.37,0.96,0.93,1.72,1.67,2.27c0.74,0.55,1.68,0.83,2.81,0.83c1.11,0,2.02-0.26,2.75-0.78c0.73-0.52,1.18-1.3,1.35-2.34h3.88
			c-0.2,1.25-0.66,2.35-1.38,3.28c-0.72,0.93-1.64,1.66-2.77,2.17S85.29,133.22,83.86,133.22z"/>
		<path class="st1" d="M114.54,133.22c-1.57,0-3.04-0.42-4.4-1.26c-1.36-0.84-2.45-2.02-3.28-3.54c-0.83-1.52-1.24-3.31-1.24-5.36
			c0-2.16,0.41-3.99,1.24-5.49c0.83-1.5,1.92-2.65,3.28-3.44c1.36-0.79,2.83-1.19,4.4-1.19c1.16,0,2.19,0.18,3.1,0.55
			s1.69,0.86,2.34,1.48c0.65,0.62,1.18,1.32,1.59,2.09s0.69,1.57,0.85,2.4l-3.86,0.2c-0.28-1-0.77-1.8-1.47-2.41
			c-0.7-0.61-1.56-0.91-2.59-0.91c-0.87,0-1.68,0.24-2.45,0.73c-0.77,0.49-1.39,1.23-1.86,2.22s-0.71,2.25-0.71,3.77
			c0,1.41,0.22,2.62,0.66,3.62s1.04,1.77,1.8,2.3c0.76,0.53,1.61,0.8,2.56,0.8c1.36,0,2.38-0.33,3.05-0.99
			c0.67-0.66,1.01-1.57,1.01-2.73h3.86c0,1.35-0.31,2.56-0.94,3.64s-1.53,1.94-2.71,2.57C117.59,132.9,116.18,133.22,114.54,133.22z
			"/>
		<path class="st1" d="M135.3,133.22c-1.65,0-3.15-0.43-4.48-1.28c-1.33-0.85-2.39-2.04-3.17-3.56c-0.78-1.52-1.17-3.28-1.17-5.28
			c0-2.12,0.39-3.94,1.16-5.45s1.83-2.68,3.16-3.49c1.33-0.81,2.83-1.22,4.5-1.22c1.49,0,2.77,0.3,3.84,0.91
			c1.07,0.61,1.93,1.42,2.58,2.44c0.65,1.02,1.1,2.18,1.35,3.47c0.25,1.29,0.29,2.63,0.13,4h-13.68v-2.2h11.08l-0.92,0.6
			c0.04-0.72,0-1.44-0.11-2.16c-0.11-0.72-0.33-1.38-0.65-1.99c-0.32-0.61-0.77-1.09-1.35-1.46c-0.58-0.37-1.32-0.55-2.21-0.55
			c-1.12,0-2.06,0.28-2.81,0.84c-0.75,0.56-1.32,1.31-1.71,2.25c-0.39,0.94-0.58,1.97-0.58,3.09v1.54c0,1.24,0.19,2.34,0.56,3.3
			c0.37,0.96,0.93,1.72,1.67,2.27c0.74,0.55,1.68,0.83,2.81,0.83c1.11,0,2.02-0.26,2.75-0.78c0.73-0.52,1.18-1.3,1.35-2.34h3.88
			c-0.2,1.25-0.66,2.35-1.38,3.28c-0.72,0.93-1.64,1.66-2.77,2.17C138,132.96,136.72,133.22,135.3,133.22z"/>
		<path class="st1" d="M149.22,132.7v-19.3h3.8v19.3H149.22z M151.98,124.1c0-2.47,0.26-4.52,0.77-6.15s1.23-2.85,2.16-3.65
			c0.93-0.8,2.02-1.2,3.27-1.2c0.37,0,0.72,0.03,1.05,0.08c0.33,0.05,0.65,0.13,0.97,0.22l-0.14,3.78
			c-0.36-0.09-0.75-0.18-1.17-0.25c-0.42-0.07-0.8-0.11-1.15-0.11c-1.09,0-1.99,0.29-2.68,0.87c-0.69,0.58-1.21,1.41-1.54,2.5
			s-0.5,2.39-0.5,3.91H151.98z"/>
		<path class="st1" d="M171.1,133.22c-1.65,0-3.15-0.43-4.48-1.28c-1.33-0.85-2.39-2.04-3.17-3.56c-0.78-1.52-1.17-3.28-1.17-5.28
			c0-2.12,0.39-3.94,1.16-5.45c0.77-1.51,1.83-2.68,3.16-3.49c1.33-0.81,2.83-1.22,4.5-1.22c1.49,0,2.77,0.3,3.84,0.91
			c1.07,0.61,1.93,1.42,2.58,2.44s1.1,2.18,1.35,3.47c0.25,1.29,0.29,2.63,0.13,4h-13.68v-2.2h11.08l-0.92,0.6
			c0.04-0.72,0-1.44-0.11-2.16c-0.11-0.72-0.33-1.38-0.65-1.99c-0.32-0.61-0.77-1.09-1.35-1.46c-0.58-0.37-1.32-0.55-2.21-0.55
			c-1.12,0-2.06,0.28-2.81,0.84c-0.75,0.56-1.32,1.31-1.71,2.25c-0.39,0.94-0.58,1.97-0.58,3.09v1.54c0,1.24,0.19,2.34,0.56,3.3
			c0.37,0.96,0.93,1.72,1.67,2.27c0.74,0.55,1.68,0.83,2.81,0.83c1.11,0,2.02-0.26,2.75-0.78c0.73-0.52,1.18-1.3,1.35-2.34h3.88
			c-0.2,1.25-0.66,2.35-1.38,3.28c-0.72,0.93-1.64,1.66-2.77,2.17S172.53,133.22,171.1,133.22z"/>
		<path class="st1" d="M183.3,132.7v-3.08l10.78-13.1H183.3v-3.06h15.02v3.06l-10.54,13.1h10.54v3.08H183.3z"/>
		<path class="st1" d="M209.96,133.22c-1.61,0-2.95-0.28-4.02-0.85s-1.86-1.31-2.39-2.23c-0.53-0.92-0.79-1.9-0.79-2.94
			c0-1.27,0.32-2.31,0.97-3.13c0.65-0.82,1.54-1.43,2.69-1.83c1.15-0.4,2.47-0.6,3.96-0.6c1.03,0,2.03,0.09,3,0.28
			c0.97,0.19,1.93,0.43,2.88,0.74v2.3c-0.77-0.28-1.63-0.5-2.57-0.67s-1.82-0.25-2.63-0.25c-1.21,0-2.23,0.24-3.04,0.72
			c-0.81,0.48-1.22,1.29-1.22,2.44c0,0.84,0.32,1.56,0.96,2.17c0.64,0.61,1.65,0.91,3.04,0.91c1.01,0,1.91-0.23,2.68-0.69
			c0.77-0.46,1.37-1.04,1.8-1.73s0.64-1.39,0.64-2.08h0.92c0,1.33-0.27,2.56-0.81,3.69s-1.32,2.03-2.35,2.72
			C212.65,132.87,211.41,133.22,209.96,133.22z M216.4,132.7l-0.48-4.42v-8.02c0-1.57-0.33-2.72-0.98-3.43s-1.69-1.07-3.1-1.07
			c-0.8,0-1.51,0.12-2.13,0.35c-0.62,0.23-1.11,0.58-1.46,1.05c-0.35,0.47-0.53,1.05-0.53,1.76h-4.2c0-1.41,0.35-2.56,1.04-3.44
			c0.69-0.88,1.66-1.52,2.91-1.93c1.25-0.41,2.7-0.61,4.37-0.61c1.56,0,2.93,0.26,4.12,0.77c1.19,0.51,2.11,1.32,2.77,2.41
			c0.66,1.09,0.99,2.51,0.99,4.24v12.34H216.4z"/>
		<path class="st1" d="M233.98,133.22c-1.87,0-3.44-0.26-4.72-0.79c-1.28-0.53-2.26-1.26-2.93-2.2c-0.67-0.94-1.02-2.04-1.05-3.31
			h3.58c0.05,1.11,0.5,1.93,1.33,2.46c0.83,0.53,1.96,0.8,3.39,0.8c0.76,0,1.45-0.12,2.07-0.36c0.62-0.24,1.11-0.57,1.48-0.98
			c0.37-0.41,0.55-0.88,0.55-1.4c0-0.65-0.24-1.17-0.72-1.55c-0.48-0.38-1.25-0.72-2.32-1.01l-3.94-1.34
			c-1.57-0.53-2.78-1.24-3.62-2.13s-1.26-1.95-1.26-3.19c0-1.59,0.71-2.86,2.12-3.83c1.41-0.97,3.29-1.45,5.62-1.45
			c2.41,0,4.28,0.51,5.59,1.53c1.31,1.02,2,2.3,2.05,3.83h-3.66c-0.09-0.76-0.47-1.34-1.13-1.75c-0.66-0.41-1.61-0.61-2.85-0.61
			c-1.16,0-2.07,0.25-2.73,0.76s-0.99,1.08-0.99,1.72c0,1.15,0.99,2,2.96,2.56l4.14,1.46c1.57,0.51,2.79,1.16,3.64,1.96
			c0.85,0.8,1.28,1.81,1.28,3.04c0,0.99-0.33,1.92-0.98,2.8s-1.57,1.6-2.75,2.15C236.95,132.94,235.56,133.22,233.98,133.22z"/>
		<path class="st1" d="M254.7,113.46h4.26l5.8,15.92h-0.78l4.66-15.92h3.88l-7.3,22.94c-0.67,2.08-1.52,3.64-2.57,4.67
			s-2.36,1.55-3.93,1.55c-0.88,0-1.72-0.11-2.53-0.34c-0.81-0.23-1.63-0.56-2.47-1v-3.42c0.72,0.51,1.41,0.87,2.08,1.1
			c0.67,0.23,1.36,0.34,2.08,0.34c0.72,0,1.34-0.22,1.85-0.65s0.95-1.01,1.3-1.72c0.35-0.71,0.66-1.49,0.91-2.33l0.58-1.9
			L254.7,113.46z"/>
		<path class="st1" d="M286.78,132.7v-19.24h3.3l0.5,4.16v15.08H286.78z M300.26,132.7v-11.28c0-1.67-0.4-2.93-1.19-3.79
			c-0.79-0.86-1.86-1.29-3.21-1.29c-1.07,0-2,0.29-2.79,0.87c-0.79,0.58-1.41,1.43-1.84,2.54c-0.43,1.11-0.65,2.47-0.65,4.07h-1.36
			c0-2.36,0.3-4.35,0.91-5.96s1.48-2.84,2.61-3.67c1.13-0.83,2.49-1.25,4.08-1.25c1.55,0,2.86,0.35,3.93,1.04
			c1.07,0.69,1.89,1.68,2.45,2.95c0.56,1.27,0.84,2.77,0.84,4.49v11.28H300.26z"/>
		<path class="st1" d="M318.5,133.22c-1.75,0-3.31-0.38-4.69-1.14c-1.38-0.76-2.47-1.89-3.27-3.4c-0.8-1.51-1.2-3.37-1.2-5.58
			c0-2.25,0.4-4.13,1.2-5.63s1.89-2.63,3.27-3.39c1.38-0.76,2.94-1.14,4.69-1.14c1.72,0,3.27,0.38,4.64,1.14
			c1.37,0.76,2.46,1.89,3.25,3.39s1.19,3.38,1.19,5.63c0,2.21-0.4,4.07-1.19,5.58c-0.79,1.51-1.88,2.64-3.25,3.4
			C321.76,132.84,320.22,133.22,318.5,133.22z M318.38,129.9c1.11,0,2.06-0.27,2.87-0.8c0.81-0.53,1.43-1.31,1.86-2.33
			c0.43-1.02,0.65-2.24,0.65-3.67c0-2.19-0.44-3.88-1.33-5.08c-0.89-1.2-2.16-1.8-3.83-1.8c-1.12,0-2.08,0.27-2.89,0.81
			c-0.81,0.54-1.43,1.32-1.86,2.34s-0.65,2.26-0.65,3.73c0,2.15,0.45,3.82,1.34,5.01S316.71,129.9,318.38,129.9z"/>
		<path class="st1" d="M350.12,133.22c-1.65,0-3.15-0.43-4.48-1.28c-1.33-0.85-2.39-2.04-3.17-3.56c-0.78-1.52-1.17-3.28-1.17-5.28
			c0-2.12,0.39-3.94,1.16-5.45s1.83-2.68,3.16-3.49c1.33-0.81,2.83-1.22,4.5-1.22c1.49,0,2.77,0.3,3.84,0.91
			c1.07,0.61,1.93,1.42,2.58,2.44s1.1,2.18,1.35,3.47c0.25,1.29,0.29,2.63,0.13,4h-13.68v-2.2h11.08l-0.92,0.6
			c0.04-0.72,0-1.44-0.11-2.16c-0.11-0.72-0.33-1.38-0.65-1.99c-0.32-0.61-0.77-1.09-1.35-1.46c-0.58-0.37-1.32-0.55-2.21-0.55
			c-1.12,0-2.06,0.28-2.81,0.84c-0.75,0.56-1.32,1.31-1.71,2.25c-0.39,0.94-0.58,1.97-0.58,3.09v1.54c0,1.24,0.19,2.34,0.56,3.3
			c0.37,0.96,0.93,1.72,1.67,2.27c0.74,0.55,1.68,0.83,2.81,0.83c1.11,0,2.02-0.26,2.75-0.78c0.73-0.52,1.18-1.3,1.35-2.34h3.88
			c-0.2,1.25-0.66,2.35-1.38,3.28c-0.72,0.93-1.64,1.66-2.77,2.17S351.54,133.22,350.12,133.22z"/>
		<path class="st1" d="M371.08,133.22c-1.87,0-3.44-0.26-4.72-0.79c-1.28-0.53-2.26-1.26-2.93-2.2c-0.67-0.94-1.02-2.04-1.05-3.31
			h3.58c0.05,1.11,0.5,1.93,1.33,2.46c0.83,0.53,1.96,0.8,3.39,0.8c0.76,0,1.45-0.12,2.07-0.36s1.11-0.57,1.48-0.98
			c0.37-0.41,0.55-0.88,0.55-1.4c0-0.65-0.24-1.17-0.72-1.55c-0.48-0.38-1.25-0.72-2.32-1.01l-3.94-1.34
			c-1.57-0.53-2.78-1.24-3.62-2.13s-1.26-1.95-1.26-3.19c0-1.59,0.71-2.86,2.12-3.83c1.41-0.97,3.29-1.45,5.62-1.45
			c2.41,0,4.28,0.51,5.59,1.53c1.31,1.02,2,2.3,2.05,3.83h-3.66c-0.09-0.76-0.47-1.34-1.13-1.75c-0.66-0.41-1.61-0.61-2.85-0.61
			c-1.16,0-2.07,0.25-2.73,0.76s-0.99,1.08-0.99,1.72c0,1.15,0.99,2,2.96,2.56l4.14,1.46c1.57,0.51,2.79,1.16,3.64,1.96
			c0.85,0.8,1.28,1.81,1.28,3.04c0,0.99-0.33,1.92-0.98,2.8c-0.65,0.88-1.57,1.6-2.75,2.15
			C374.04,132.94,372.66,133.22,371.08,133.22z"/>
		<path class="st1" d="M382.51,116.04v-2.58h12.42v2.58H382.51z M391.28,133.22c-1.09,0-2.08-0.21-2.96-0.62
			c-0.88-0.41-1.58-1.04-2.09-1.87c-0.51-0.83-0.77-1.88-0.77-3.15v-19.36h3.78v19.24c0,1.81,0.85,2.72,2.54,2.72
			c0.52,0,1.03-0.06,1.52-0.17c0.49-0.11,1.05-0.28,1.68-0.51l0.54,2.7c-0.71,0.29-1.4,0.54-2.09,0.73S392.02,133.22,391.28,133.22z
			"/>
		<path class="st1" d="M406.07,133.22c-1.61,0-2.95-0.28-4.02-0.85c-1.07-0.57-1.86-1.31-2.39-2.23s-0.79-1.9-0.79-2.94
			c0-1.27,0.32-2.31,0.97-3.13s1.54-1.43,2.69-1.83c1.15-0.4,2.47-0.6,3.96-0.6c1.03,0,2.03,0.09,3,0.28
			c0.97,0.19,1.93,0.43,2.88,0.74v2.3c-0.77-0.28-1.63-0.5-2.57-0.67c-0.94-0.17-1.82-0.25-2.63-0.25c-1.21,0-2.23,0.24-3.04,0.72
			c-0.81,0.48-1.22,1.29-1.22,2.44c0,0.84,0.32,1.56,0.96,2.17s1.65,0.91,3.04,0.91c1.01,0,1.91-0.23,2.68-0.69
			c0.77-0.46,1.37-1.04,1.8-1.73c0.43-0.69,0.64-1.39,0.64-2.08h0.92c0,1.33-0.27,2.56-0.81,3.69c-0.54,1.13-1.32,2.03-2.35,2.72
			C408.77,132.87,407.53,133.22,406.07,133.22z M412.51,132.7l-0.48-4.42v-8.02c0-1.57-0.33-2.72-0.98-3.43
			c-0.65-0.71-1.69-1.07-3.1-1.07c-0.8,0-1.51,0.12-2.13,0.35s-1.11,0.58-1.46,1.05c-0.35,0.47-0.53,1.05-0.53,1.76h-4.2
			c0-1.41,0.35-2.56,1.04-3.44c0.69-0.88,1.66-1.52,2.91-1.93c1.25-0.41,2.7-0.61,4.37-0.61c1.56,0,2.93,0.26,4.12,0.77
			c1.19,0.51,2.11,1.32,2.77,2.41c0.66,1.09,0.99,2.51,0.99,4.24v12.34H412.51z"/>
		<path class="st1" d="M423.05,132.7v-27.34h3.8v22.72l-1.22,4.62H423.05z M432.31,133.22c-1.25,0-2.39-0.34-3.41-1.01
			c-1.02-0.67-1.83-1.67-2.44-2.99c-0.61-1.32-0.91-2.94-0.91-4.86h1.3c0,1.12,0.24,2.09,0.73,2.9c0.49,0.81,1.11,1.44,1.87,1.87
			c0.76,0.43,1.55,0.65,2.38,0.65c0.99,0,1.88-0.27,2.67-0.82c0.79-0.55,1.43-1.33,1.9-2.35c0.47-1.02,0.71-2.22,0.71-3.61
			c0-1.37-0.23-2.56-0.7-3.55s-1.1-1.76-1.9-2.3c-0.8-0.54-1.71-0.81-2.72-0.81c-0.85,0-1.66,0.21-2.41,0.62s-1.36,1.02-1.83,1.83
			c-0.47,0.81-0.7,1.79-0.7,2.95h-1.3c0-1.88,0.29-3.47,0.88-4.78c0.59-1.31,1.4-2.3,2.45-2.99c1.05-0.69,2.28-1.03,3.69-1.03
			c1.53,0,2.94,0.41,4.21,1.23s2.29,1.98,3.06,3.49c0.77,1.51,1.15,3.29,1.15,5.34c0,2.07-0.39,3.86-1.18,5.39
			c-0.79,1.53-1.84,2.71-3.15,3.56C435.35,132.79,433.9,133.22,432.31,133.22z"/>
		<path class="st1" d="M452.73,133.22c-1.61,0-2.95-0.28-4.02-0.85s-1.86-1.31-2.39-2.23s-0.79-1.9-0.79-2.94
			c0-1.27,0.32-2.31,0.97-3.13c0.65-0.82,1.54-1.43,2.69-1.83s2.47-0.6,3.96-0.6c1.03,0,2.03,0.09,3,0.28
			c0.97,0.19,1.93,0.43,2.88,0.74v2.3c-0.77-0.28-1.63-0.5-2.57-0.67c-0.94-0.17-1.82-0.25-2.63-0.25c-1.21,0-2.23,0.24-3.04,0.72
			c-0.81,0.48-1.22,1.29-1.22,2.44c0,0.84,0.32,1.56,0.96,2.17c0.64,0.61,1.65,0.91,3.04,0.91c1.01,0,1.91-0.23,2.68-0.69
			c0.77-0.46,1.37-1.04,1.8-1.73c0.43-0.69,0.64-1.39,0.64-2.08h0.92c0,1.33-0.27,2.56-0.81,3.69c-0.54,1.13-1.32,2.03-2.35,2.72
			S454.19,133.22,452.73,133.22z M459.17,132.7l-0.48-4.42v-8.02c0-1.57-0.33-2.72-0.98-3.43c-0.65-0.71-1.69-1.07-3.1-1.07
			c-0.8,0-1.51,0.12-2.13,0.35s-1.11,0.58-1.46,1.05s-0.53,1.05-0.53,1.76h-4.2c0-1.41,0.35-2.56,1.04-3.44
			c0.69-0.88,1.66-1.52,2.91-1.93c1.25-0.41,2.7-0.61,4.37-0.61c1.56,0,2.93,0.26,4.12,0.77c1.19,0.51,2.11,1.32,2.77,2.41
			c0.66,1.09,0.99,2.51,0.99,4.24v12.34H459.17z"/>
		<path class="st1" d="M469.71,132.7v-19.24h3.3l0.5,4.16v15.08H469.71z M483.19,132.7v-11.28c0-1.67-0.4-2.93-1.19-3.79
			c-0.79-0.86-1.86-1.29-3.21-1.29c-1.07,0-2,0.29-2.79,0.87c-0.79,0.58-1.41,1.43-1.84,2.54c-0.43,1.11-0.65,2.47-0.65,4.07h-1.36
			c0-2.36,0.3-4.35,0.91-5.96c0.61-1.61,1.48-2.84,2.61-3.67s2.49-1.25,4.08-1.25c1.55,0,2.86,0.35,3.93,1.04
			c1.07,0.69,1.89,1.68,2.45,2.95c0.56,1.27,0.84,2.77,0.84,4.49v11.28H483.19z"/>
		<path class="st1" d="M509.57,133.22c-1.61,0-2.95-0.28-4.02-0.85s-1.86-1.31-2.39-2.23c-0.53-0.92-0.79-1.9-0.79-2.94
			c0-1.27,0.32-2.31,0.97-3.13c0.65-0.82,1.54-1.43,2.69-1.83c1.15-0.4,2.47-0.6,3.96-0.6c1.03,0,2.03,0.09,3,0.28
			c0.97,0.19,1.93,0.43,2.88,0.74v2.3c-0.77-0.28-1.63-0.5-2.57-0.67s-1.82-0.25-2.63-0.25c-1.21,0-2.23,0.24-3.04,0.72
			c-0.81,0.48-1.22,1.29-1.22,2.44c0,0.84,0.32,1.56,0.96,2.17c0.64,0.61,1.65,0.91,3.04,0.91c1.01,0,1.91-0.23,2.68-0.69
			c0.77-0.46,1.37-1.04,1.8-1.73s0.64-1.39,0.64-2.08h0.92c0,1.33-0.27,2.56-0.81,3.69s-1.32,2.03-2.35,2.72
			C512.27,132.87,511.03,133.22,509.57,133.22z M516.01,132.7l-0.48-4.42v-8.02c0-1.57-0.33-2.72-0.98-3.43s-1.69-1.07-3.1-1.07
			c-0.8,0-1.51,0.12-2.13,0.35c-0.62,0.23-1.11,0.58-1.46,1.05c-0.35,0.47-0.53,1.05-0.53,1.76h-4.2c0-1.41,0.35-2.56,1.04-3.44
			c0.69-0.88,1.66-1.52,2.91-1.93c1.25-0.41,2.7-0.61,4.37-0.61c1.56,0,2.93,0.26,4.12,0.77c1.19,0.51,2.11,1.32,2.77,2.41
			c0.66,1.09,0.99,2.51,0.99,4.24v12.34H516.01z"/>
		<path class="st1" d="M533.55,133.22c-1.57,0-3.04-0.42-4.4-1.26c-1.36-0.84-2.45-2.02-3.28-3.54c-0.83-1.52-1.24-3.31-1.24-5.36
			c0-2.16,0.41-3.99,1.24-5.49c0.83-1.5,1.92-2.65,3.28-3.44c1.36-0.79,2.83-1.19,4.4-1.19c1.16,0,2.19,0.18,3.1,0.55
			s1.69,0.86,2.34,1.48c0.65,0.62,1.18,1.32,1.59,2.09s0.69,1.57,0.85,2.4l-3.86,0.2c-0.28-1-0.77-1.8-1.47-2.41
			c-0.7-0.61-1.56-0.91-2.59-0.91c-0.87,0-1.68,0.24-2.45,0.73c-0.77,0.49-1.39,1.23-1.86,2.22s-0.71,2.25-0.71,3.77
			c0,1.41,0.22,2.62,0.66,3.62s1.04,1.77,1.8,2.3c0.76,0.53,1.61,0.8,2.56,0.8c1.36,0,2.38-0.33,3.05-0.99
			c0.67-0.66,1.01-1.57,1.01-2.73h3.86c0,1.35-0.31,2.56-0.94,3.64s-1.53,1.94-2.71,2.57C536.6,132.9,535.19,133.22,533.55,133.22z"
			/>
		<path class="st1" d="M554.31,133.22c-1.65,0-3.15-0.43-4.48-1.28c-1.33-0.85-2.39-2.04-3.17-3.56c-0.78-1.52-1.17-3.28-1.17-5.28
			c0-2.12,0.39-3.94,1.16-5.45s1.83-2.68,3.16-3.49c1.33-0.81,2.83-1.22,4.5-1.22c1.49,0,2.77,0.3,3.84,0.91
			c1.07,0.61,1.93,1.42,2.58,2.44c0.65,1.02,1.1,2.18,1.35,3.47c0.25,1.29,0.29,2.63,0.13,4h-13.68v-2.2h11.08l-0.92,0.6
			c0.04-0.72,0-1.44-0.11-2.16c-0.11-0.72-0.33-1.38-0.65-1.99c-0.32-0.61-0.77-1.09-1.35-1.46c-0.58-0.37-1.32-0.55-2.21-0.55
			c-1.12,0-2.06,0.28-2.81,0.84c-0.75,0.56-1.32,1.31-1.71,2.25c-0.39,0.94-0.58,1.97-0.58,3.09v1.54c0,1.24,0.19,2.34,0.56,3.3
			c0.37,0.96,0.93,1.72,1.67,2.27c0.74,0.55,1.68,0.83,2.81,0.83c1.11,0,2.02-0.26,2.75-0.78c0.73-0.52,1.18-1.3,1.35-2.34h3.88
			c-0.2,1.25-0.66,2.35-1.38,3.28c-0.72,0.93-1.64,1.66-2.77,2.17C557.02,132.96,555.74,133.22,554.31,133.22z"/>
		<path class="st1" d="M568.23,142.14v-28.68h3.14l0.66,4.62v24.06H568.23z M577.35,133.22c-1.4,0-2.61-0.32-3.64-0.95
			c-1.03-0.63-1.81-1.57-2.35-2.8c-0.54-1.23-0.81-2.76-0.81-4.59h1.48c0,1.05,0.23,1.94,0.68,2.67s1.05,1.28,1.79,1.66
			s1.53,0.57,2.37,0.57c0.88,0,1.74-0.25,2.57-0.75c0.83-0.5,1.52-1.25,2.05-2.25s0.8-2.24,0.8-3.72c0-1.41-0.24-2.62-0.71-3.62
			c-0.47-1-1.12-1.77-1.93-2.3c-0.81-0.53-1.73-0.8-2.74-0.8c-0.85,0-1.65,0.2-2.4,0.61c-0.75,0.41-1.35,1-1.8,1.78
			c-0.45,0.78-0.68,1.73-0.68,2.85h-1.48c0-1.93,0.31-3.54,0.93-4.82c0.62-1.28,1.46-2.24,2.51-2.87c1.05-0.63,2.22-0.95,3.5-0.95
			c1.51,0,2.92,0.4,4.24,1.21s2.39,1.96,3.21,3.47c0.82,1.51,1.23,3.32,1.23,5.44c0,2.12-0.41,3.94-1.24,5.46
			c-0.83,1.52-1.91,2.68-3.25,3.49S578.9,133.22,577.35,133.22z"/>
		<path class="st1" d="M589.47,116.04v-2.58h12.42v2.58H589.47z M598.23,133.22c-1.09,0-2.08-0.21-2.96-0.62
			c-0.88-0.41-1.58-1.04-2.09-1.87c-0.51-0.83-0.77-1.88-0.77-3.15v-19.36h3.78v19.24c0,1.81,0.85,2.72,2.54,2.72
			c0.52,0,1.03-0.06,1.52-0.17c0.49-0.11,1.05-0.28,1.68-0.51l0.54,2.7c-0.71,0.29-1.4,0.54-2.09,0.73
			C599.69,133.12,598.98,133.22,598.23,133.22z"/>
		<path class="st1" d="M613.03,133.22c-1.61,0-2.95-0.28-4.02-0.85c-1.07-0.57-1.86-1.31-2.39-2.23c-0.53-0.92-0.79-1.9-0.79-2.94
			c0-1.27,0.32-2.31,0.97-3.13s1.54-1.43,2.69-1.83s2.47-0.6,3.96-0.6c1.03,0,2.03,0.09,3,0.28c0.97,0.19,1.93,0.43,2.88,0.74v2.3
			c-0.77-0.28-1.63-0.5-2.57-0.67s-1.82-0.25-2.63-0.25c-1.21,0-2.23,0.24-3.04,0.72c-0.81,0.48-1.22,1.29-1.22,2.44
			c0,0.84,0.32,1.56,0.96,2.17c0.64,0.61,1.65,0.91,3.04,0.91c1.01,0,1.91-0.23,2.68-0.69c0.77-0.46,1.37-1.04,1.8-1.73
			s0.64-1.39,0.64-2.08h0.92c0,1.33-0.27,2.56-0.81,3.69s-1.32,2.03-2.35,2.72C615.72,132.87,614.48,133.22,613.03,133.22z
			 M619.47,132.7l-0.48-4.42v-8.02c0-1.57-0.33-2.72-0.98-3.43s-1.69-1.07-3.1-1.07c-0.8,0-1.51,0.12-2.13,0.35
			c-0.62,0.23-1.11,0.58-1.46,1.05s-0.53,1.05-0.53,1.76h-4.2c0-1.41,0.35-2.56,1.04-3.44c0.69-0.88,1.66-1.52,2.91-1.93
			c1.25-0.41,2.7-0.61,4.37-0.61c1.56,0,2.93,0.26,4.12,0.77c1.19,0.51,2.11,1.32,2.77,2.41c0.66,1.09,0.99,2.51,0.99,4.24v12.34
			H619.47z"/>
		<path class="st1" d="M630.01,132.7v-19.24h3.3l0.5,4.16v15.08H630.01z M643.49,132.7v-11.28c0-1.67-0.4-2.93-1.19-3.79
			c-0.79-0.86-1.86-1.29-3.21-1.29c-1.07,0-2,0.29-2.79,0.87c-0.79,0.58-1.41,1.43-1.84,2.54c-0.43,1.11-0.65,2.47-0.65,4.07h-1.36
			c0-2.36,0.3-4.35,0.91-5.96s1.48-2.84,2.61-3.67c1.13-0.83,2.49-1.25,4.08-1.25c1.55,0,2.86,0.35,3.93,1.04
			c1.07,0.69,1.89,1.68,2.45,2.95c0.56,1.27,0.84,2.77,0.84,4.49v11.28H643.49z"/>
		<path class="st1" d="M661.47,133.22c-1.57,0-3.02-0.42-4.34-1.27c-1.32-0.85-2.37-2.03-3.15-3.56c-0.78-1.53-1.17-3.32-1.17-5.39
			c0-2.05,0.38-3.83,1.15-5.34c0.77-1.51,1.78-2.67,3.05-3.49c1.27-0.82,2.67-1.23,4.22-1.23c1.41,0,2.65,0.34,3.7,1.03
			c1.05,0.69,1.87,1.68,2.45,2.99c0.58,1.31,0.87,2.9,0.87,4.78h-1.32c0-1.16-0.23-2.14-0.7-2.95c-0.47-0.81-1.07-1.42-1.82-1.83
			s-1.55-0.62-2.4-0.62c-1,0-1.9,0.27-2.71,0.81s-1.45,1.31-1.92,2.3c-0.47,0.99-0.71,2.18-0.71,3.55c0,1.39,0.24,2.59,0.71,3.61
			c0.47,1.02,1.11,1.8,1.92,2.35c0.81,0.55,1.7,0.82,2.69,0.82c0.81,0,1.6-0.22,2.35-0.65c0.75-0.43,1.37-1.06,1.86-1.87
			c0.49-0.81,0.73-1.78,0.73-2.9h1.32c0,1.92-0.3,3.54-0.91,4.86c-0.61,1.32-1.42,2.32-2.45,2.99
			C663.86,132.88,662.72,133.22,661.47,133.22z M667.59,132.7l-0.66-4.62v-22.72h3.82v27.34H667.59z"/>
		<path class="st1" d="M685.79,133.22c-1.75,0-3.31-0.38-4.69-1.14c-1.38-0.76-2.47-1.89-3.27-3.4c-0.8-1.51-1.2-3.37-1.2-5.58
			c0-2.25,0.4-4.13,1.2-5.63c0.8-1.5,1.89-2.63,3.27-3.39c1.38-0.76,2.94-1.14,4.69-1.14c1.72,0,3.27,0.38,4.64,1.14
			s2.46,1.89,3.25,3.39s1.19,3.38,1.19,5.63c0,2.21-0.4,4.07-1.19,5.58c-0.79,1.51-1.88,2.64-3.25,3.4S687.51,133.22,685.79,133.22z
			 M685.67,129.9c1.11,0,2.06-0.27,2.87-0.8c0.81-0.53,1.43-1.31,1.86-2.33c0.43-1.02,0.65-2.24,0.65-3.67
			c0-2.19-0.44-3.88-1.33-5.08c-0.89-1.2-2.16-1.8-3.83-1.8c-1.12,0-2.08,0.27-2.89,0.81s-1.43,1.32-1.86,2.34
			c-0.43,1.02-0.65,2.26-0.65,3.73c0,2.15,0.45,3.82,1.34,5.01C682.72,129.3,684,129.9,685.67,129.9z"/>
		<path class="st1" d="M710.51,132.7v-19.24h3.3l0.42,3.62c0.61-1.35,1.46-2.37,2.53-3.08c1.07-0.71,2.34-1.06,3.79-1.06
			c1.55,0,2.86,0.35,3.93,1.04s1.89,1.68,2.45,2.95c0.56,1.27,0.84,2.77,0.84,4.49v11.28h-3.78v-11.28c0-1.67-0.4-2.93-1.19-3.79
			c-0.79-0.86-1.86-1.29-3.21-1.29c-1.07,0-2,0.29-2.79,0.87c-0.79,0.58-1.41,1.43-1.84,2.54s-0.65,2.47-0.65,4.07v8.88H710.51z
			 M737.17,132.7v-11.28c0-1.67-0.4-2.93-1.19-3.79c-0.79-0.86-1.86-1.29-3.19-1.29c-1.6,0-2.84,0.63-3.71,1.88
			c-0.87,1.25-1.31,3.05-1.31,5.4h-1.66c0-1.85,0.18-3.45,0.54-4.8s0.88-2.45,1.55-3.32c0.67-0.87,1.48-1.51,2.42-1.93
			c0.94-0.42,1.99-0.63,3.15-0.63c1.55,0,2.86,0.35,3.93,1.04s1.89,1.68,2.45,2.95c0.56,1.27,0.84,2.77,0.84,4.49v11.28H737.17z"/>
		<path class="st1" d="M747.67,113.4h3.8v11.92c0,1.45,0.36,2.55,1.07,3.3s1.72,1.12,3.01,1.12c1.09,0,2.06-0.29,2.89-0.86
			c0.83-0.57,1.49-1.39,1.96-2.44c0.47-1.05,0.71-2.3,0.71-3.74h1.22c0,2.25-0.31,4.15-0.92,5.68c-0.61,1.53-1.47,2.7-2.58,3.49
			c-1.11,0.79-2.4,1.19-3.88,1.19c-1.41,0-2.67-0.26-3.77-0.78c-1.1-0.52-1.96-1.32-2.58-2.41c-0.62-1.09-0.93-2.49-0.93-4.21V113.4
			z M761.11,113.4h3.82v19.3h-3.82V113.4z"/>
		<path class="st1" d="M771.03,142.62c-0.97,0-1.9-0.12-2.77-0.35c-0.87-0.23-1.77-0.58-2.69-1.03l0.12-3.28
			c0.75,0.39,1.49,0.71,2.24,0.96c0.75,0.25,1.51,0.38,2.28,0.38c1.05,0,1.87-0.32,2.44-0.97s0.86-1.69,0.86-3.13v-21.82h3.78v21.86
			c0,2.64-0.57,4.53-1.7,5.67C774.46,142.05,772.94,142.62,771.03,142.62z M775.37,109.36c-0.75,0-1.34-0.21-1.77-0.63
			c-0.43-0.42-0.65-0.99-0.65-1.71c0-0.69,0.22-1.24,0.65-1.65c0.43-0.41,1.02-0.61,1.77-0.61c0.75,0,1.34,0.2,1.78,0.61
			c0.44,0.41,0.66,0.96,0.66,1.65c0,0.72-0.22,1.29-0.66,1.71S776.12,109.36,775.37,109.36z"/>
		<path class="st1" d="M792.53,133.22c-1.65,0-3.15-0.43-4.48-1.28c-1.33-0.85-2.39-2.04-3.17-3.56c-0.78-1.52-1.17-3.28-1.17-5.28
			c0-2.12,0.39-3.94,1.16-5.45c0.77-1.51,1.83-2.68,3.16-3.49c1.33-0.81,2.83-1.22,4.5-1.22c1.49,0,2.77,0.3,3.84,0.91
			c1.07,0.61,1.93,1.42,2.58,2.44c0.65,1.02,1.1,2.18,1.35,3.47c0.25,1.29,0.29,2.63,0.13,4h-13.68v-2.2h11.08l-0.92,0.6
			c0.04-0.72,0-1.44-0.11-2.16c-0.11-0.72-0.33-1.38-0.65-1.99c-0.32-0.61-0.77-1.09-1.35-1.46c-0.58-0.37-1.32-0.55-2.21-0.55
			c-1.12,0-2.06,0.28-2.81,0.84c-0.75,0.56-1.32,1.31-1.71,2.25c-0.39,0.94-0.58,1.97-0.58,3.09v1.54c0,1.24,0.19,2.34,0.56,3.3
			c0.37,0.96,0.93,1.72,1.67,2.27c0.74,0.55,1.68,0.83,2.81,0.83c1.11,0,2.02-0.26,2.75-0.78c0.73-0.52,1.18-1.3,1.35-2.34h3.88
			c-0.2,1.25-0.66,2.35-1.38,3.28c-0.72,0.93-1.64,1.66-2.77,2.17C795.23,132.96,793.96,133.22,792.53,133.22z"/>
		<path class="st1" d="M806.45,132.7v-19.3h3.8v19.3H806.45z M809.21,124.1c0-2.47,0.26-4.52,0.77-6.15s1.23-2.85,2.16-3.65
			c0.93-0.8,2.02-1.2,3.27-1.2c0.37,0,0.72,0.03,1.05,0.08c0.33,0.05,0.65,0.13,0.97,0.22l-0.14,3.78
			c-0.36-0.09-0.75-0.18-1.17-0.25c-0.42-0.07-0.8-0.11-1.15-0.11c-1.09,0-1.99,0.29-2.68,0.87c-0.69,0.58-1.21,1.41-1.54,2.5
			c-0.33,1.09-0.5,2.39-0.5,3.91H809.21z"/>
		<path class="st1" d="M828.33,133.22c-1.65,0-3.15-0.43-4.48-1.28c-1.33-0.85-2.39-2.04-3.17-3.56c-0.78-1.52-1.17-3.28-1.17-5.28
			c0-2.12,0.39-3.94,1.16-5.45s1.83-2.68,3.16-3.49c1.33-0.81,2.83-1.22,4.5-1.22c1.49,0,2.77,0.3,3.84,0.91
			c1.07,0.61,1.93,1.42,2.58,2.44s1.1,2.18,1.35,3.47c0.25,1.29,0.29,2.63,0.13,4h-13.68v-2.2h11.08l-0.92,0.6
			c0.04-0.72,0-1.44-0.11-2.16c-0.11-0.72-0.33-1.38-0.65-1.99c-0.32-0.61-0.77-1.09-1.35-1.46c-0.58-0.37-1.32-0.55-2.21-0.55
			c-1.12,0-2.06,0.28-2.81,0.84c-0.75,0.56-1.32,1.31-1.71,2.25c-0.39,0.94-0.58,1.97-0.58,3.09v1.54c0,1.24,0.19,2.34,0.56,3.3
			c0.37,0.96,0.93,1.72,1.67,2.27c0.74,0.55,1.68,0.83,2.81,0.83c1.11,0,2.02-0.26,2.75-0.78c0.73-0.52,1.18-1.3,1.35-2.34h3.88
			c-0.2,1.25-0.66,2.35-1.38,3.28c-0.72,0.93-1.64,1.66-2.77,2.17S829.75,133.22,828.33,133.22z"/>
		<path class="st1" d="M849.29,133.22c-1.87,0-3.44-0.26-4.72-0.79c-1.28-0.53-2.26-1.26-2.93-2.2c-0.67-0.94-1.02-2.04-1.05-3.31
			h3.58c0.05,1.11,0.5,1.93,1.33,2.46c0.83,0.53,1.96,0.8,3.39,0.8c0.76,0,1.45-0.12,2.07-0.36s1.11-0.57,1.48-0.98
			c0.37-0.41,0.55-0.88,0.55-1.4c0-0.65-0.24-1.17-0.72-1.55c-0.48-0.38-1.25-0.72-2.32-1.01l-3.94-1.34
			c-1.57-0.53-2.78-1.24-3.62-2.13s-1.26-1.95-1.26-3.19c0-1.59,0.71-2.86,2.12-3.83c1.41-0.97,3.29-1.45,5.62-1.45
			c2.41,0,4.28,0.51,5.59,1.53c1.31,1.02,2,2.3,2.05,3.83h-3.66c-0.09-0.76-0.47-1.34-1.13-1.75c-0.66-0.41-1.61-0.61-2.85-0.61
			c-1.16,0-2.07,0.25-2.73,0.76s-0.99,1.08-0.99,1.72c0,1.15,0.99,2,2.96,2.56l4.14,1.46c1.57,0.51,2.79,1.16,3.64,1.96
			c0.85,0.8,1.28,1.81,1.28,3.04c0,0.99-0.33,1.92-0.98,2.8s-1.57,1.6-2.75,2.15C852.26,132.94,850.87,133.22,849.29,133.22z"/>
		<path class="st1" d="M860.51,130.46c0-0.75,0.26-1.38,0.77-1.9c0.51-0.52,1.16-0.78,1.95-0.78c0.79,0,1.45,0.26,2,0.78
			c0.55,0.52,0.82,1.15,0.82,1.9c0,0.73-0.27,1.35-0.82,1.85c-0.55,0.5-1.21,0.75-2,0.75c-0.79,0-1.44-0.25-1.95-0.76
			C860.76,131.79,860.51,131.18,860.51,130.46z"/>
	</g>
</g>
<path class="st0" d="M888.53,119c-0.51,19.41-1.02,38.81-1.53,58.22c8.06-5.99,17.2-12.24,27.51-18.52
	c6.28-3.83,12.47-7.35,18.49-10.59c-5.25-3.28-10.53-6.64-15.83-10.06C907.28,131.67,897.74,125.31,888.53,119z"/>
</svg>
