<?xml version="1.0" encoding="utf-8"?>
<!-- Generator: Adobe Illustrator 24.0.2, SVG Export Plug-In . SVG Version: 6.00 Build 0)  -->
<svg version="1.1" id="Capa_1" xmlns="http://www.w3.org/2000/svg" xmlns:xlink="http://www.w3.org/1999/xlink" x="0px" y="0px"
	 viewBox="0 0 1078 413" style="enable-background:new 0 0 1078 413;" xml:space="preserve">
<style type="text/css">
	.st0{fill:#7A7980;}
	.st1{fill:none;}
	.st2{fill:#FFFFFF;}
</style>
<g>
	<g>
		<path class="st0" d="M875.12,357H94.88C70.09,357,50,336.91,50,312.12V112.88C50,88.09,70.09,68,94.88,68h780.24
			C899.91,68,920,88.09,920,112.88v199.24C920,336.91,899.91,357,875.12,357z"/>
	</g>
	<g>
		<path class="st0" d="M911.53,246.78c2.8,9.65,11.07,17.34,20.53,22.25c9.46,4.91,20.13,7.42,30.65,9.88
			c13.76,3.21,27.51,6.42,41.27,9.64c2.55,0.6,5.37,1.37,6.71,3.45c1.48,2.3,0.55,5.22-0.41,7.74c-3.46,9.06-7.28,18.61-15.45,24.6
			c-4.81,3.52-10.74,5.49-16.7,6.87c-21.89,5.07-47.56,1.86-62.77-13.48"/>
		<g>
			<path class="st0" d="M910.08,247.18c4.32,14.5,18.48,23.03,31.96,27.69c8.11,2.81,16.54,4.61,24.88,6.56
				c8.9,2.08,17.8,4.16,26.7,6.24c4.17,0.97,8.53,1.68,12.59,3.04c1.43,0.48,2.99,1.25,3.54,2.76c0.63,1.76-0.17,3.83-0.78,5.49
				c-2.45,6.64-5.17,13.55-9.71,19.07c-5.1,6.21-12.19,9.39-19.83,11.32c-6.88,1.74-13.97,2.61-21.07,2.59
				c-13.42-0.05-27.58-3.34-38.21-11.9c-1.31-1.05-2.55-2.18-3.73-3.36c-1.37-1.37-3.49,0.75-2.12,2.12
				c10.09,10.09,24.18,14.84,38.17,15.91c7.22,0.55,14.51,0.11,21.63-1.15c7.8-1.38,15.92-3.6,22.27-8.52
				c5.95-4.61,9.72-11.25,12.63-18.07c0.71-1.66,1.38-3.34,2.03-5.03c0.7-1.81,1.48-3.62,1.78-5.55c0.61-3.92-1.37-6.82-4.95-8.26
				c-1.82-0.73-3.77-1.09-5.67-1.54c-2.35-0.55-4.69-1.1-7.04-1.64c-4.61-1.08-9.22-2.15-13.84-3.23
				c-9.04-2.11-18.11-4.1-27.11-6.39c-14.82-3.77-31.76-9.73-39.32-24.2c-0.79-1.52-1.42-3.1-1.91-4.74
				C912.42,244.54,909.53,245.33,910.08,247.18L910.08,247.18z"/>
		</g>
	</g>
	<rect x="103.24" y="110.81" class="st1" width="764.56" height="208.86"/>
</g>
<g>
	<g>
		<path class="st2" d="M79.51,115.17v21.61h10.71v3.24H75.8v-24.84H79.51z"/>
		<path class="st2" d="M101.54,140.52c-1.7,0-3.23-0.37-4.57-1.11c-1.35-0.74-2.41-1.85-3.19-3.32c-0.78-1.47-1.17-3.28-1.17-5.44
			c0-2.2,0.39-4.03,1.17-5.49c0.78-1.46,1.84-2.56,3.19-3.31c1.35-0.74,2.87-1.11,4.57-1.11c1.68,0,3.19,0.37,4.52,1.11
			c1.34,0.74,2.4,1.84,3.17,3.31s1.16,3.29,1.16,5.49c0,2.16-0.39,3.97-1.16,5.44c-0.77,1.47-1.83,2.57-3.17,3.32
			C104.73,140.15,103.22,140.52,101.54,140.52z M101.43,137.28c1.08,0,2.01-0.26,2.8-0.78c0.79-0.52,1.39-1.28,1.81-2.27
			c0.42-1,0.63-2.19,0.63-3.58c0-2.13-0.43-3.78-1.3-4.95c-0.86-1.17-2.11-1.75-3.73-1.75c-1.09,0-2.03,0.26-2.82,0.79
			s-1.39,1.29-1.81,2.28c-0.42,0.99-0.63,2.21-0.63,3.64c0,2.09,0.44,3.72,1.31,4.89C98.55,136.7,99.8,137.28,101.43,137.28z"/>
		<path class="st2" d="M116.13,140.01v-18.82h3.7v18.82H116.13z M118.82,131.63c0-2.41,0.25-4.4,0.75-6c0.5-1.59,1.2-2.78,2.11-3.56
			c0.9-0.78,1.97-1.17,3.19-1.17c0.36,0,0.71,0.03,1.02,0.08c0.32,0.05,0.63,0.12,0.95,0.21l-0.14,3.69
			c-0.35-0.09-0.73-0.17-1.14-0.24c-0.41-0.07-0.78-0.11-1.12-0.11c-1.07,0-1.94,0.28-2.61,0.85c-0.68,0.57-1.18,1.38-1.5,2.44
			c-0.33,1.06-0.49,2.33-0.49,3.81H118.82z"/>
		<path class="st2" d="M137.46,140.52c-1.61,0-3.07-0.42-4.37-1.25c-1.3-0.83-2.33-1.99-3.09-3.47c-0.76-1.48-1.14-3.2-1.14-5.15
			c0-2.07,0.38-3.84,1.13-5.31c0.75-1.48,1.78-2.61,3.08-3.4c1.3-0.79,2.76-1.19,4.39-1.19c1.46,0,2.7,0.3,3.74,0.89
			c1.04,0.59,1.88,1.38,2.52,2.38c0.64,0.99,1.08,2.12,1.32,3.38c0.24,1.26,0.28,2.56,0.13,3.9h-13.34v-2.15h10.8l-0.9,0.58
			c0.04-0.7,0-1.4-0.11-2.11c-0.11-0.7-0.32-1.35-0.63-1.94c-0.31-0.59-0.75-1.07-1.32-1.42s-1.28-0.54-2.15-0.54
			c-1.09,0-2.01,0.27-2.74,0.82s-1.29,1.28-1.67,2.19c-0.38,0.92-0.57,1.92-0.57,3.01v1.5c0,1.21,0.18,2.28,0.55,3.22
			c0.36,0.94,0.91,1.67,1.63,2.21c0.72,0.54,1.63,0.81,2.74,0.81c1.08,0,1.97-0.25,2.68-0.76c0.71-0.51,1.15-1.27,1.32-2.28h3.78
			c-0.19,1.22-0.64,2.29-1.35,3.2c-0.7,0.91-1.6,1.62-2.7,2.12S138.85,140.52,137.46,140.52z"/>
		<path class="st2" d="M151.03,140.01v-18.76h3.22l0.41,3.53c0.6-1.31,1.42-2.31,2.47-3c1.05-0.69,2.28-1.03,3.69-1.03
			c1.51,0,2.79,0.34,3.83,1.01c1.05,0.68,1.84,1.63,2.39,2.88c0.55,1.24,0.82,2.7,0.82,4.38v11h-3.69v-11c0-1.63-0.39-2.86-1.16-3.7
			s-1.82-1.26-3.13-1.26c-1.04,0-1.95,0.28-2.72,0.85c-0.77,0.57-1.37,1.39-1.79,2.48c-0.42,1.09-0.63,2.41-0.63,3.97v8.66H151.03z
			 M177.03,140.01v-11c0-1.63-0.39-2.86-1.16-3.7s-1.81-1.26-3.11-1.26c-1.56,0-2.77,0.61-3.62,1.83c-0.85,1.22-1.28,2.98-1.28,5.27
			h-1.62c0-1.81,0.18-3.37,0.53-4.68c0.35-1.31,0.85-2.39,1.51-3.24c0.66-0.84,1.44-1.47,2.36-1.88c0.92-0.41,1.94-0.61,3.07-0.61
			c1.51,0,2.79,0.34,3.83,1.01c1.05,0.68,1.84,1.63,2.39,2.88c0.55,1.24,0.82,2.7,0.82,4.38v11H177.03z"/>
		<path class="st2" d="M199.39,117.26c-0.74,0-1.32-0.21-1.75-0.61c-0.42-0.41-0.63-0.97-0.63-1.67c0-0.68,0.21-1.21,0.63-1.61
			c0.42-0.4,1-0.59,1.75-0.59c0.73,0,1.3,0.2,1.73,0.59c0.42,0.4,0.63,0.93,0.63,1.61c0,0.7-0.21,1.26-0.63,1.67
			C200.69,117.05,200.12,117.26,199.39,117.26z M197.54,140.01v-18.82h3.7v18.82H197.54z"/>
		<path class="st2" d="M209.38,149.22v-27.96h3.06l0.64,4.5v23.46H209.38z M218.27,140.52c-1.36,0-2.55-0.31-3.55-0.93
			c-1-0.62-1.76-1.53-2.29-2.73c-0.53-1.2-0.79-2.69-0.79-4.48h1.44c0,1.03,0.22,1.9,0.66,2.6c0.44,0.71,1.02,1.25,1.75,1.62
			c0.72,0.37,1.49,0.55,2.31,0.55c0.86,0,1.69-0.24,2.51-0.73c0.81-0.49,1.48-1.22,2-2.19c0.52-0.98,0.78-2.18,0.78-3.63
			c0-1.38-0.23-2.55-0.69-3.53c-0.46-0.97-1.09-1.72-1.88-2.24s-1.68-0.78-2.67-0.78c-0.83,0-1.61,0.2-2.34,0.59
			c-0.73,0.4-1.31,0.98-1.75,1.74c-0.44,0.76-0.66,1.69-0.66,2.78h-1.44c0-1.88,0.3-3.45,0.91-4.7s1.42-2.18,2.45-2.8
			c1.03-0.62,2.16-0.93,3.41-0.93c1.47,0,2.85,0.39,4.13,1.18c1.29,0.79,2.33,1.91,3.13,3.38c0.8,1.47,1.2,3.24,1.2,5.3
			s-0.4,3.84-1.21,5.32c-0.81,1.48-1.86,2.62-3.17,3.4C221.18,140.13,219.78,140.52,218.27,140.52z"/>
		<path class="st2" d="M239.46,140.52c-1.82,0-3.35-0.26-4.6-0.77s-2.2-1.23-2.86-2.14c-0.66-0.92-1-1.99-1.02-3.23h3.49
			c0.05,1.08,0.48,1.88,1.3,2.4c0.81,0.52,1.91,0.78,3.31,0.78c0.74,0,1.41-0.12,2.02-0.35c0.6-0.23,1.08-0.55,1.44-0.96
			c0.36-0.4,0.54-0.86,0.54-1.37c0-0.64-0.23-1.14-0.7-1.51c-0.47-0.37-1.22-0.7-2.26-0.98l-3.84-1.31
			c-1.53-0.52-2.71-1.21-3.53-2.08c-0.82-0.86-1.23-1.9-1.23-3.11c0-1.55,0.69-2.79,2.07-3.73s3.2-1.41,5.48-1.41
			c2.35,0,4.17,0.5,5.45,1.49c1.28,0.99,1.95,2.24,2,3.73h-3.57c-0.09-0.74-0.46-1.31-1.1-1.71s-1.57-0.59-2.78-0.59
			c-1.13,0-2.02,0.25-2.66,0.74c-0.64,0.49-0.97,1.05-0.97,1.68c0,1.12,0.96,1.95,2.89,2.5l4.04,1.42c1.53,0.49,2.72,1.13,3.55,1.91
			c0.83,0.78,1.25,1.77,1.25,2.96c0,0.96-0.32,1.87-0.96,2.73c-0.64,0.86-1.53,1.56-2.68,2.1
			C242.36,140.25,241.01,140.52,239.46,140.52z"/>
		<path class="st2" d="M252.66,121.19h3.71v11.62c0,1.42,0.35,2.49,1.04,3.22c0.7,0.73,1.67,1.09,2.94,1.09c1.07,0,2-0.28,2.82-0.84
			c0.81-0.56,1.45-1.35,1.91-2.38c0.46-1.03,0.69-2.24,0.69-3.65h1.19c0,2.2-0.3,4.04-0.9,5.54c-0.6,1.5-1.44,2.63-2.52,3.4
			s-2.34,1.16-3.78,1.16c-1.38,0-2.6-0.25-3.68-0.76c-1.07-0.51-1.91-1.29-2.52-2.35c-0.6-1.06-0.91-2.43-0.91-4.1V121.19z
			 M265.77,121.19h3.72v18.82h-3.72V121.19z"/>
		<path class="st2" d="M277.1,140.01v-18.76h3.22l0.41,3.53c0.6-1.31,1.42-2.31,2.47-3c1.05-0.69,2.28-1.03,3.69-1.03
			c1.51,0,2.79,0.34,3.83,1.01c1.05,0.68,1.84,1.63,2.39,2.88c0.55,1.24,0.82,2.7,0.82,4.38v11h-3.69v-11c0-1.63-0.39-2.86-1.16-3.7
			s-1.82-1.26-3.13-1.26c-1.04,0-1.95,0.28-2.72,0.85c-0.77,0.57-1.37,1.39-1.79,2.48c-0.42,1.09-0.63,2.41-0.63,3.97v8.66H277.1z
			 M303.09,140.01v-11c0-1.63-0.39-2.86-1.16-3.7s-1.81-1.26-3.11-1.26c-1.56,0-2.77,0.61-3.62,1.83c-0.85,1.22-1.28,2.98-1.28,5.27
			h-1.62c0-1.81,0.18-3.37,0.53-4.68c0.35-1.31,0.85-2.39,1.51-3.24c0.66-0.84,1.44-1.47,2.36-1.88c0.92-0.41,1.94-0.61,3.07-0.61
			c1.51,0,2.79,0.34,3.83,1.01c1.05,0.68,1.84,1.63,2.39,2.88c0.55,1.24,0.82,2.7,0.82,4.38v11H303.09z"/>
		<path class="st2" d="M330.12,140.52c-1.53,0-2.94-0.41-4.23-1.24s-2.31-1.98-3.07-3.47c-0.76-1.49-1.14-3.24-1.14-5.26
			c0-2,0.37-3.74,1.12-5.21c0.75-1.47,1.74-2.6,2.97-3.4c1.24-0.8,2.61-1.2,4.11-1.2c1.38,0,2.58,0.33,3.61,1s1.82,1.64,2.39,2.92
			c0.57,1.27,0.85,2.83,0.85,4.66h-1.29c0-1.13-0.23-2.09-0.68-2.88s-1.05-1.38-1.77-1.78c-0.73-0.4-1.51-0.6-2.34-0.6
			c-0.97,0-1.86,0.26-2.64,0.79c-0.79,0.53-1.41,1.27-1.87,2.24c-0.46,0.97-0.69,2.12-0.69,3.46c0,1.35,0.23,2.53,0.69,3.52
			c0.46,0.99,1.09,1.76,1.87,2.29s1.66,0.8,2.62,0.8c0.79,0,1.56-0.21,2.29-0.63s1.34-1.03,1.81-1.82c0.47-0.79,0.71-1.73,0.71-2.83
			h1.29c0,1.87-0.3,3.45-0.89,4.74c-0.59,1.29-1.39,2.26-2.39,2.92C332.45,140.19,331.34,140.52,330.12,140.52z M336.08,140.01
			l-0.64-4.5v-22.15h3.72v26.66H336.08z"/>
		<path class="st2" d="M353.83,140.52c-1.7,0-3.23-0.37-4.57-1.11c-1.35-0.74-2.41-1.85-3.19-3.32c-0.78-1.47-1.17-3.28-1.17-5.44
			c0-2.2,0.39-4.03,1.17-5.49c0.78-1.46,1.84-2.56,3.19-3.31c1.35-0.74,2.87-1.11,4.57-1.11c1.68,0,3.19,0.37,4.52,1.11
			c1.34,0.74,2.4,1.84,3.17,3.31s1.16,3.29,1.16,5.49c0,2.16-0.39,3.97-1.16,5.44c-0.77,1.47-1.83,2.57-3.17,3.32
			C357.01,140.15,355.51,140.52,353.83,140.52z M353.71,137.28c1.08,0,2.01-0.26,2.8-0.78c0.79-0.52,1.39-1.28,1.81-2.27
			c0.42-1,0.63-2.19,0.63-3.58c0-2.13-0.43-3.78-1.3-4.95c-0.86-1.17-2.11-1.75-3.73-1.75c-1.09,0-2.03,0.26-2.82,0.79
			s-1.39,1.29-1.81,2.28c-0.42,0.99-0.63,2.21-0.63,3.64c0,2.09,0.44,3.72,1.31,4.89C350.84,136.7,352.09,137.28,353.71,137.28z"/>
		<path class="st2" d="M368.41,140.01v-26.66h3.7v26.66H368.41z"/>
		<path class="st2" d="M386.8,140.52c-1.7,0-3.23-0.37-4.57-1.11c-1.35-0.74-2.41-1.85-3.19-3.32c-0.78-1.47-1.17-3.28-1.17-5.44
			c0-2.2,0.39-4.03,1.17-5.49c0.78-1.46,1.84-2.56,3.19-3.31c1.35-0.74,2.87-1.11,4.57-1.11c1.68,0,3.19,0.37,4.52,1.11
			c1.34,0.74,2.4,1.84,3.17,3.31s1.16,3.29,1.16,5.49c0,2.16-0.39,3.97-1.16,5.44c-0.77,1.47-1.83,2.57-3.17,3.32
			C389.99,140.15,388.48,140.52,386.8,140.52z M386.69,137.28c1.08,0,2.01-0.26,2.8-0.78c0.79-0.52,1.39-1.28,1.81-2.27
			c0.42-1,0.63-2.19,0.63-3.58c0-2.13-0.43-3.78-1.3-4.95c-0.86-1.17-2.11-1.75-3.73-1.75c-1.09,0-2.03,0.26-2.82,0.79
			s-1.39,1.29-1.81,2.28c-0.42,0.99-0.63,2.21-0.63,3.64c0,2.09,0.44,3.72,1.31,4.89C383.81,136.7,385.06,137.28,386.69,137.28z"/>
		<path class="st2" d="M401.39,140.01v-18.82h3.7v18.82H401.39z M404.08,131.63c0-2.41,0.25-4.4,0.75-6c0.5-1.59,1.2-2.78,2.11-3.56
			c0.9-0.78,1.97-1.17,3.19-1.17c0.36,0,0.71,0.03,1.02,0.08c0.32,0.05,0.63,0.12,0.95,0.21l-0.14,3.69
			c-0.35-0.09-0.73-0.17-1.14-0.24c-0.41-0.07-0.78-0.11-1.12-0.11c-1.07,0-1.94,0.28-2.61,0.85c-0.68,0.57-1.18,1.38-1.5,2.44
			c-0.33,1.06-0.49,2.33-0.49,3.81H404.08z"/>
		<path class="st2" d="M432.37,140.52c-1.82,0-3.35-0.26-4.6-0.77s-2.2-1.23-2.86-2.14c-0.66-0.92-1-1.99-1.02-3.23h3.49
			c0.05,1.08,0.48,1.88,1.3,2.4c0.81,0.52,1.91,0.78,3.31,0.78c0.74,0,1.41-0.12,2.02-0.35c0.6-0.23,1.08-0.55,1.44-0.96
			c0.36-0.4,0.54-0.86,0.54-1.37c0-0.64-0.23-1.14-0.7-1.51c-0.47-0.37-1.22-0.7-2.26-0.98l-3.84-1.31
			c-1.53-0.52-2.71-1.21-3.53-2.08c-0.82-0.86-1.23-1.9-1.23-3.11c0-1.55,0.69-2.79,2.07-3.73s3.2-1.41,5.48-1.41
			c2.35,0,4.17,0.5,5.45,1.49c1.28,0.99,1.95,2.24,2,3.73h-3.57c-0.09-0.74-0.46-1.31-1.1-1.71s-1.57-0.59-2.78-0.59
			c-1.13,0-2.02,0.25-2.66,0.74c-0.64,0.49-0.97,1.05-0.97,1.68c0,1.12,0.96,1.95,2.89,2.5l4.04,1.42c1.53,0.49,2.72,1.13,3.55,1.91
			c0.83,0.78,1.25,1.77,1.25,2.96c0,0.96-0.32,1.87-0.96,2.73c-0.64,0.86-1.53,1.56-2.68,2.1
			C435.27,140.25,433.92,140.52,432.37,140.52z"/>
		<path class="st2" d="M448.19,117.26c-0.74,0-1.32-0.21-1.75-0.61c-0.42-0.41-0.63-0.97-0.63-1.67c0-0.68,0.21-1.21,0.63-1.61
			c0.42-0.4,1-0.59,1.75-0.59c0.73,0,1.3,0.2,1.73,0.59c0.42,0.4,0.63,0.93,0.63,1.61c0,0.7-0.21,1.26-0.63,1.67
			C449.49,117.05,448.92,117.26,448.19,117.26z M446.34,140.01v-18.82h3.7v18.82H446.34z"/>
		<path class="st2" d="M455.66,123.77v-2.52h12.11v2.52H455.66z M464.2,140.52c-1.07,0-2.03-0.2-2.89-0.6s-1.54-1.01-2.04-1.82
			c-0.5-0.81-0.75-1.84-0.75-3.07v-18.88h3.69v18.76c0,1.77,0.83,2.65,2.48,2.65c0.51,0,1-0.05,1.48-0.17
			c0.48-0.11,1.03-0.28,1.64-0.5l0.53,2.63c-0.69,0.29-1.37,0.52-2.04,0.71C465.62,140.42,464.92,140.52,464.2,140.52z"/>
		<path class="st2" d="M488.14,140.52c-1.57,0-2.88-0.28-3.92-0.83c-1.04-0.55-1.82-1.28-2.33-2.17c-0.51-0.9-0.77-1.85-0.77-2.87
			c0-1.23,0.31-2.25,0.95-3.05c0.63-0.8,1.5-1.39,2.62-1.78c1.12-0.39,2.4-0.58,3.86-0.58c1,0,1.98,0.09,2.93,0.27
			c0.95,0.18,1.88,0.42,2.81,0.72v2.24c-0.75-0.27-1.59-0.49-2.51-0.65s-1.77-0.24-2.56-0.24c-1.18,0-2.17,0.23-2.96,0.7
			c-0.79,0.47-1.19,1.26-1.19,2.38c0,0.82,0.31,1.52,0.94,2.12c0.62,0.59,1.61,0.89,2.96,0.89c0.99,0,1.86-0.22,2.61-0.67
			s1.34-1.01,1.76-1.69c0.42-0.68,0.62-1.35,0.62-2.03h0.9c0,1.3-0.26,2.5-0.79,3.6s-1.29,1.98-2.29,2.65
			C490.77,140.18,489.56,140.52,488.14,140.52z M494.42,140.01l-0.47-4.31v-7.82c0-1.53-0.32-2.65-0.96-3.34
			c-0.64-0.7-1.65-1.04-3.02-1.04c-0.78,0-1.47,0.11-2.08,0.34c-0.6,0.23-1.08,0.57-1.42,1.02c-0.34,0.46-0.52,1.03-0.52,1.72h-4.1
			c0-1.38,0.34-2.5,1.01-3.35c0.68-0.86,1.62-1.48,2.84-1.88c1.22-0.4,2.64-0.59,4.26-0.59c1.52,0,2.86,0.25,4.02,0.75
			s2.06,1.28,2.7,2.35c0.64,1.07,0.97,2.44,0.97,4.13v12.03H494.42z"/>
		<path class="st2" d="M504.7,140.01v-18.76h3.22l0.41,3.53c0.6-1.31,1.42-2.31,2.47-3c1.05-0.69,2.28-1.03,3.69-1.03
			c1.51,0,2.79,0.34,3.83,1.01c1.05,0.68,1.84,1.63,2.39,2.88c0.55,1.24,0.82,2.7,0.82,4.38v11h-3.69v-11c0-1.63-0.39-2.86-1.16-3.7
			s-1.82-1.26-3.13-1.26c-1.04,0-1.95,0.28-2.72,0.85c-0.77,0.57-1.37,1.39-1.79,2.48c-0.42,1.09-0.63,2.41-0.63,3.97v8.66H504.7z
			 M530.69,140.01v-11c0-1.63-0.39-2.86-1.16-3.7s-1.81-1.26-3.11-1.26c-1.56,0-2.77,0.61-3.62,1.83c-0.85,1.22-1.28,2.98-1.28,5.27
			h-1.62c0-1.81,0.18-3.37,0.53-4.68c0.35-1.31,0.85-2.39,1.51-3.24c0.66-0.84,1.44-1.47,2.36-1.88c0.92-0.41,1.94-0.61,3.07-0.61
			c1.51,0,2.79,0.34,3.83,1.01c1.05,0.68,1.84,1.63,2.39,2.88c0.55,1.24,0.82,2.7,0.82,4.38v11H530.69z"/>
		<path class="st2" d="M548.12,140.52c-1.61,0-3.07-0.42-4.37-1.25c-1.3-0.83-2.33-1.99-3.09-3.47c-0.76-1.48-1.14-3.2-1.14-5.15
			c0-2.07,0.38-3.84,1.13-5.31c0.75-1.48,1.78-2.61,3.08-3.4c1.3-0.79,2.76-1.19,4.39-1.19c1.46,0,2.7,0.3,3.74,0.89
			c1.04,0.59,1.88,1.38,2.52,2.38c0.64,0.99,1.08,2.12,1.32,3.38c0.24,1.26,0.28,2.56,0.13,3.9h-13.34v-2.15h10.8l-0.9,0.58
			c0.04-0.7,0-1.4-0.11-2.11c-0.11-0.7-0.32-1.35-0.63-1.94c-0.31-0.59-0.75-1.07-1.32-1.42s-1.28-0.54-2.15-0.54
			c-1.09,0-2.01,0.27-2.74,0.82s-1.29,1.28-1.67,2.19c-0.38,0.92-0.57,1.92-0.57,3.01v1.5c0,1.21,0.18,2.28,0.55,3.22
			c0.36,0.94,0.91,1.67,1.63,2.21c0.72,0.54,1.63,0.81,2.74,0.81c1.08,0,1.97-0.25,2.68-0.76c0.71-0.51,1.15-1.27,1.32-2.28h3.78
			c-0.19,1.22-0.64,2.29-1.35,3.2c-0.7,0.91-1.6,1.62-2.7,2.12S549.51,140.52,548.12,140.52z"/>
		<path class="st2" d="M559.18,123.77v-2.52h12.11v2.52H559.18z M567.72,140.52c-1.07,0-2.03-0.2-2.89-0.6s-1.54-1.01-2.04-1.82
			c-0.5-0.81-0.75-1.84-0.75-3.07v-18.88h3.69v18.76c0,1.77,0.83,2.65,2.48,2.65c0.51,0,1-0.05,1.48-0.17
			c0.48-0.11,1.03-0.28,1.64-0.5l0.53,2.63c-0.69,0.29-1.37,0.52-2.04,0.71C569.15,140.42,568.45,140.52,567.72,140.52z"/>
		<path class="st2" d="M576.71,144.71l-2.77-1.38c0.79-0.4,1.48-0.85,2.05-1.34c0.57-0.5,0.95-1.09,1.13-1.77
			c-0.62-0.09-1.16-0.33-1.6-0.72s-0.66-0.9-0.66-1.54c0-0.65,0.24-1.2,0.73-1.65c0.49-0.45,1.11-0.67,1.86-0.67
			c0.95,0,1.71,0.34,2.27,1.01c0.57,0.68,0.85,1.48,0.85,2.42c0,1.08-0.33,2.13-1,3.17C578.9,143.26,577.94,144.09,576.71,144.71z"
			/>
		<path class="st2" d="M601.88,140.52c-1.53,0-2.96-0.41-4.29-1.23c-1.33-0.82-2.39-1.97-3.2-3.45c-0.81-1.48-1.21-3.22-1.21-5.23
			c0-2.11,0.4-3.89,1.21-5.35c0.81-1.46,1.87-2.58,3.2-3.35c1.33-0.77,2.76-1.16,4.29-1.16c1.13,0,2.14,0.18,3.02,0.54
			c0.88,0.36,1.64,0.84,2.28,1.44c0.64,0.6,1.15,1.28,1.55,2.04c0.4,0.75,0.67,1.53,0.83,2.34l-3.76,0.2
			c-0.27-0.98-0.75-1.76-1.43-2.35c-0.68-0.59-1.52-0.89-2.53-0.89c-0.85,0-1.64,0.24-2.39,0.71s-1.35,1.2-1.81,2.16
			c-0.46,0.97-0.69,2.19-0.69,3.68c0,1.38,0.21,2.55,0.64,3.53c0.43,0.97,1.01,1.72,1.75,2.24c0.74,0.52,1.57,0.78,2.5,0.78
			c1.33,0,2.32-0.32,2.97-0.96c0.66-0.64,0.98-1.53,0.98-2.66h3.76c0,1.31-0.31,2.5-0.92,3.55c-0.61,1.05-1.49,1.89-2.64,2.5
			C604.86,140.21,603.48,140.52,601.88,140.52z"/>
		<path class="st2" d="M622.46,140.52c-1.7,0-3.23-0.37-4.57-1.11c-1.35-0.74-2.41-1.85-3.19-3.32c-0.78-1.47-1.17-3.28-1.17-5.44
			c0-2.2,0.39-4.03,1.17-5.49c0.78-1.46,1.84-2.56,3.19-3.31c1.35-0.74,2.87-1.11,4.57-1.11c1.68,0,3.19,0.37,4.52,1.11
			c1.34,0.74,2.4,1.84,3.17,3.31s1.16,3.29,1.16,5.49c0,2.16-0.39,3.97-1.16,5.44c-0.77,1.47-1.83,2.57-3.17,3.32
			C625.64,140.15,624.13,140.52,622.46,140.52z M622.34,137.28c1.08,0,2.01-0.26,2.8-0.78c0.79-0.52,1.39-1.28,1.81-2.27
			c0.42-1,0.63-2.19,0.63-3.58c0-2.13-0.43-3.78-1.3-4.95c-0.86-1.17-2.11-1.75-3.73-1.75c-1.09,0-2.03,0.26-2.82,0.79
			s-1.39,1.29-1.81,2.28c-0.42,0.99-0.63,2.21-0.63,3.64c0,2.09,0.44,3.72,1.31,4.89C619.47,136.7,620.71,137.28,622.34,137.28z"/>
		<path class="st2" d="M637.04,140.01v-18.76h3.22l0.49,4.06v14.7H637.04z M650.18,140.01v-11c0-1.63-0.39-2.86-1.16-3.7
			s-1.82-1.26-3.13-1.26c-1.04,0-1.95,0.28-2.72,0.85c-0.77,0.57-1.37,1.39-1.79,2.48c-0.42,1.09-0.63,2.41-0.63,3.97h-1.33
			c0-2.3,0.3-4.24,0.89-5.81c0.59-1.57,1.44-2.77,2.54-3.58c1.1-0.81,2.43-1.22,3.98-1.22c1.51,0,2.79,0.34,3.83,1.01
			c1.05,0.68,1.84,1.63,2.39,2.88c0.55,1.24,0.82,2.7,0.82,4.38v11H650.18z"/>
		<path class="st2" d="M667.77,140.52c-1.82,0-3.35-0.26-4.6-0.77s-2.2-1.23-2.86-2.14c-0.66-0.92-1-1.99-1.02-3.23h3.49
			c0.05,1.08,0.48,1.88,1.3,2.4c0.81,0.52,1.91,0.78,3.31,0.78c0.74,0,1.41-0.12,2.02-0.35c0.6-0.23,1.08-0.55,1.44-0.96
			c0.36-0.4,0.54-0.86,0.54-1.37c0-0.64-0.23-1.14-0.7-1.51c-0.47-0.37-1.22-0.7-2.26-0.98l-3.84-1.31
			c-1.53-0.52-2.71-1.21-3.53-2.08c-0.82-0.86-1.23-1.9-1.23-3.11c0-1.55,0.69-2.79,2.07-3.73s3.2-1.41,5.48-1.41
			c2.35,0,4.17,0.5,5.45,1.49c1.28,0.99,1.95,2.24,2,3.73h-3.57c-0.09-0.74-0.46-1.31-1.1-1.71s-1.57-0.59-2.78-0.59
			c-1.13,0-2.02,0.25-2.66,0.74c-0.64,0.49-0.97,1.05-0.97,1.68c0,1.12,0.96,1.95,2.89,2.5l4.04,1.42c1.53,0.49,2.72,1.13,3.55,1.91
			c0.83,0.78,1.25,1.77,1.25,2.96c0,0.96-0.32,1.87-0.96,2.73c-0.64,0.86-1.53,1.56-2.68,2.1
			C670.67,140.25,669.32,140.52,667.77,140.52z"/>
		<path class="st2" d="M688.17,140.52c-1.61,0-3.07-0.42-4.37-1.25c-1.3-0.83-2.33-1.99-3.09-3.47c-0.76-1.48-1.14-3.2-1.14-5.15
			c0-2.07,0.38-3.84,1.13-5.31c0.75-1.48,1.78-2.61,3.08-3.4c1.3-0.79,2.76-1.19,4.39-1.19c1.46,0,2.7,0.3,3.74,0.89
			c1.04,0.59,1.88,1.38,2.52,2.38c0.64,0.99,1.08,2.12,1.32,3.38c0.24,1.26,0.28,2.56,0.13,3.9h-13.34v-2.15h10.8l-0.9,0.58
			c0.04-0.7,0-1.4-0.11-2.11c-0.11-0.7-0.32-1.35-0.63-1.94c-0.31-0.59-0.75-1.07-1.32-1.42s-1.28-0.54-2.15-0.54
			c-1.09,0-2.01,0.27-2.74,0.82s-1.29,1.28-1.67,2.19c-0.38,0.92-0.57,1.92-0.57,3.01v1.5c0,1.21,0.18,2.28,0.55,3.22
			c0.36,0.94,0.91,1.67,1.63,2.21c0.72,0.54,1.63,0.81,2.74,0.81c1.08,0,1.97-0.25,2.68-0.76c0.71-0.51,1.15-1.27,1.32-2.28h3.78
			c-0.19,1.22-0.64,2.29-1.35,3.2c-0.7,0.91-1.6,1.62-2.7,2.12S689.56,140.52,688.17,140.52z"/>
		<path class="st2" d="M708.57,140.52c-1.53,0-2.96-0.41-4.29-1.23c-1.33-0.82-2.39-1.97-3.2-3.45c-0.81-1.48-1.21-3.22-1.21-5.23
			c0-2.11,0.4-3.89,1.21-5.35c0.81-1.46,1.87-2.58,3.2-3.35c1.33-0.77,2.76-1.16,4.29-1.16c1.13,0,2.14,0.18,3.02,0.54
			c0.88,0.36,1.64,0.84,2.28,1.44c0.64,0.6,1.15,1.28,1.55,2.04c0.4,0.75,0.67,1.53,0.83,2.34l-3.76,0.2
			c-0.27-0.98-0.75-1.76-1.43-2.35c-0.68-0.59-1.52-0.89-2.53-0.89c-0.85,0-1.64,0.24-2.39,0.71s-1.35,1.2-1.81,2.16
			c-0.46,0.97-0.69,2.19-0.69,3.68c0,1.38,0.21,2.55,0.64,3.53c0.43,0.97,1.01,1.72,1.75,2.24c0.74,0.52,1.57,0.78,2.5,0.78
			c1.33,0,2.32-0.32,2.97-0.96c0.66-0.64,0.98-1.53,0.98-2.66h3.76c0,1.31-0.31,2.5-0.92,3.55c-0.61,1.05-1.49,1.89-2.64,2.5
			C711.54,140.21,710.17,140.52,708.57,140.52z"/>
		<path class="st2" d="M719.56,123.77v-2.52h12.11v2.52H719.56z M728.11,140.52c-1.07,0-2.03-0.2-2.89-0.6s-1.54-1.01-2.04-1.82
			c-0.5-0.81-0.75-1.84-0.75-3.07v-18.88h3.69v18.76c0,1.77,0.83,2.65,2.48,2.65c0.51,0,1-0.05,1.48-0.17
			c0.48-0.11,1.03-0.28,1.64-0.5l0.53,2.63c-0.69,0.29-1.37,0.52-2.04,0.71C729.53,140.42,728.83,140.52,728.11,140.52z"/>
		<path class="st2" d="M743.78,140.52c-1.61,0-3.07-0.42-4.37-1.25c-1.3-0.83-2.33-1.99-3.09-3.47c-0.76-1.48-1.14-3.2-1.14-5.15
			c0-2.07,0.38-3.84,1.13-5.31c0.75-1.48,1.78-2.61,3.08-3.4c1.3-0.79,2.76-1.19,4.39-1.19c1.46,0,2.7,0.3,3.74,0.89
			c1.04,0.59,1.88,1.38,2.52,2.38c0.64,0.99,1.08,2.12,1.32,3.38c0.24,1.26,0.28,2.56,0.13,3.9h-13.34v-2.15h10.8l-0.9,0.58
			c0.04-0.7,0-1.4-0.11-2.11c-0.11-0.7-0.32-1.35-0.63-1.94c-0.31-0.59-0.75-1.07-1.32-1.42s-1.28-0.54-2.15-0.54
			c-1.09,0-2.01,0.27-2.74,0.82s-1.29,1.28-1.67,2.19c-0.38,0.92-0.57,1.92-0.57,3.01v1.5c0,1.21,0.18,2.28,0.55,3.22
			c0.36,0.94,0.91,1.67,1.63,2.21c0.72,0.54,1.63,0.81,2.74,0.81c1.08,0,1.97-0.25,2.68-0.76c0.71-0.51,1.15-1.27,1.32-2.28h3.78
			c-0.19,1.22-0.64,2.29-1.35,3.2c-0.7,0.91-1.6,1.62-2.7,2.12S745.17,140.52,743.78,140.52z"/>
		<path class="st2" d="M754.84,123.77v-2.52h12.11v2.52H754.84z M763.38,140.52c-1.07,0-2.03-0.2-2.89-0.6s-1.54-1.01-2.04-1.82
			c-0.5-0.81-0.75-1.84-0.75-3.07v-18.88h3.69v18.76c0,1.77,0.83,2.65,2.48,2.65c0.51,0,1-0.05,1.48-0.17
			c0.48-0.11,1.03-0.28,1.64-0.5l0.53,2.63c-0.69,0.29-1.37,0.52-2.04,0.71C764.81,140.42,764.11,140.52,763.38,140.52z"/>
		<path class="st2" d="M771.86,121.19h3.71v11.62c0,1.42,0.35,2.49,1.04,3.22c0.7,0.73,1.67,1.09,2.94,1.09c1.07,0,2-0.28,2.82-0.84
			c0.81-0.56,1.45-1.35,1.91-2.38c0.46-1.03,0.69-2.24,0.69-3.65h1.19c0,2.2-0.3,4.04-0.9,5.54c-0.6,1.5-1.44,2.63-2.52,3.4
			s-2.34,1.16-3.78,1.16c-1.38,0-2.6-0.25-3.68-0.76c-1.07-0.51-1.91-1.29-2.52-2.35c-0.6-1.06-0.91-2.43-0.91-4.1V121.19z
			 M784.97,121.19h3.72v18.82h-3.72V121.19z"/>
		<path class="st2" d="M803.02,140.52c-1.61,0-3.07-0.42-4.37-1.25c-1.3-0.83-2.33-1.99-3.09-3.47c-0.76-1.48-1.14-3.2-1.14-5.15
			c0-2.07,0.38-3.84,1.13-5.31c0.75-1.48,1.78-2.61,3.08-3.4c1.3-0.79,2.76-1.19,4.39-1.19c1.46,0,2.7,0.3,3.74,0.89
			c1.04,0.59,1.88,1.38,2.52,2.38c0.64,0.99,1.08,2.12,1.32,3.38c0.24,1.26,0.28,2.56,0.13,3.9h-13.34v-2.15h10.8l-0.9,0.58
			c0.04-0.7,0-1.4-0.11-2.11c-0.11-0.7-0.32-1.35-0.63-1.94c-0.31-0.59-0.75-1.07-1.32-1.42s-1.28-0.54-2.15-0.54
			c-1.09,0-2.01,0.27-2.74,0.82s-1.29,1.28-1.67,2.19c-0.38,0.92-0.57,1.92-0.57,3.01v1.5c0,1.21,0.18,2.28,0.55,3.22
			c0.36,0.94,0.91,1.67,1.63,2.21c0.72,0.54,1.63,0.81,2.74,0.81c1.08,0,1.97-0.25,2.68-0.76c0.71-0.51,1.15-1.27,1.32-2.28h3.78
			c-0.19,1.22-0.64,2.29-1.35,3.2c-0.7,0.91-1.6,1.62-2.7,2.12S804.41,140.52,803.02,140.52z"/>
		<path class="st2" d="M816.6,140.01v-18.82h3.7v18.82H816.6z M819.29,131.63c0-2.41,0.25-4.4,0.75-6c0.5-1.59,1.2-2.78,2.11-3.56
			c0.9-0.78,1.97-1.17,3.19-1.17c0.36,0,0.71,0.03,1.02,0.08c0.32,0.05,0.63,0.12,0.95,0.21l-0.14,3.69
			c-0.35-0.09-0.73-0.17-1.14-0.24c-0.41-0.07-0.78-0.11-1.12-0.11c-1.07,0-1.94,0.28-2.61,0.85c-0.68,0.57-1.18,1.38-1.5,2.44
			c-0.33,1.06-0.49,2.33-0.49,3.81H819.29z"/>
		<path class="st2" d="M81.28,187.32c-1.57,0-2.88-0.28-3.92-0.83c-1.04-0.55-1.82-1.28-2.33-2.17c-0.51-0.9-0.77-1.85-0.77-2.87
			c0-1.23,0.31-2.25,0.95-3.05c0.63-0.8,1.5-1.39,2.62-1.78c1.12-0.39,2.4-0.59,3.86-0.59c1,0,1.98,0.09,2.93,0.27
			c0.95,0.18,1.88,0.42,2.81,0.72v2.24c-0.75-0.27-1.59-0.49-2.51-0.65c-0.92-0.16-1.77-0.24-2.56-0.24c-1.18,0-2.17,0.23-2.96,0.7
			c-0.79,0.47-1.19,1.26-1.19,2.38c0,0.82,0.31,1.52,0.94,2.12s1.61,0.89,2.96,0.89c0.99,0,1.86-0.22,2.61-0.67
			c0.75-0.45,1.34-1.01,1.76-1.69c0.42-0.68,0.62-1.35,0.62-2.03h0.9c0,1.3-0.26,2.5-0.79,3.6c-0.53,1.1-1.29,1.98-2.29,2.65
			C83.91,186.98,82.7,187.32,81.28,187.32z M87.56,186.81l-0.47-4.31v-7.82c0-1.53-0.32-2.65-0.96-3.34
			c-0.64-0.7-1.65-1.04-3.02-1.04c-0.78,0-1.47,0.11-2.08,0.34c-0.6,0.23-1.08,0.57-1.42,1.02c-0.34,0.46-0.52,1.03-0.52,1.72H75
			c0-1.38,0.34-2.5,1.01-3.35c0.68-0.86,1.62-1.48,2.84-1.88c1.22-0.4,2.64-0.6,4.26-0.6c1.52,0,2.86,0.25,4.02,0.75
			c1.16,0.5,2.06,1.28,2.7,2.35c0.64,1.07,0.97,2.44,0.97,4.13v12.03H87.56z"/>
		<path class="st2" d="M104.64,187.32c-1.53,0-2.94-0.41-4.23-1.24c-1.29-0.83-2.31-1.98-3.07-3.47c-0.76-1.49-1.14-3.24-1.14-5.26
			c0-2,0.37-3.74,1.12-5.21c0.75-1.47,1.74-2.6,2.97-3.4c1.24-0.8,2.61-1.2,4.11-1.2c1.38,0,2.58,0.34,3.61,1s1.82,1.64,2.39,2.92
			c0.57,1.27,0.85,2.83,0.85,4.66h-1.29c0-1.13-0.23-2.09-0.68-2.88c-0.46-0.79-1.05-1.38-1.77-1.79c-0.73-0.4-1.51-0.6-2.34-0.6
			c-0.97,0-1.86,0.26-2.64,0.79c-0.79,0.53-1.41,1.27-1.87,2.24s-0.69,2.12-0.69,3.46c0,1.35,0.23,2.53,0.69,3.52
			c0.46,1,1.09,1.76,1.87,2.29c0.79,0.53,1.66,0.8,2.62,0.8c0.79,0,1.56-0.21,2.29-0.63c0.73-0.42,1.34-1.03,1.81-1.82
			s0.71-1.74,0.71-2.83h1.29c0,1.87-0.3,3.45-0.89,4.74c-0.59,1.29-1.39,2.26-2.39,2.92S105.86,187.32,104.64,187.32z
			 M110.61,186.81l-0.64-4.5v-22.15h3.72v26.66H110.61z"/>
		<path class="st2" d="M123.44,164.05c-0.74,0-1.32-0.21-1.75-0.61c-0.42-0.41-0.63-0.97-0.63-1.67c0-0.68,0.21-1.21,0.63-1.61
			c0.42-0.4,1-0.59,1.75-0.59c0.73,0,1.3,0.2,1.73,0.59c0.42,0.4,0.63,0.93,0.63,1.61c0,0.7-0.21,1.26-0.63,1.67
			C124.74,163.85,124.17,164.05,123.44,164.05z M121.59,186.81v-18.82h3.7v18.82H121.59z"/>
		<path class="st2" d="M133.42,196.02v-27.96h3.06l0.64,4.5v23.46H133.42z M142.32,187.32c-1.36,0-2.55-0.31-3.55-0.93
			s-1.76-1.53-2.29-2.73c-0.53-1.2-0.79-2.69-0.79-4.47h1.44c0,1.03,0.22,1.89,0.66,2.6c0.44,0.71,1.02,1.25,1.75,1.62
			c0.72,0.37,1.49,0.56,2.31,0.56c0.86,0,1.69-0.24,2.51-0.73c0.81-0.49,1.48-1.22,2-2.19c0.52-0.97,0.78-2.18,0.78-3.63
			c0-1.38-0.23-2.55-0.69-3.53c-0.46-0.97-1.09-1.72-1.88-2.24s-1.68-0.78-2.67-0.78c-0.83,0-1.61,0.2-2.34,0.59
			s-1.31,0.97-1.75,1.74c-0.44,0.76-0.66,1.69-0.66,2.78h-1.44c0-1.88,0.3-3.45,0.91-4.7s1.42-2.18,2.45-2.8
			c1.03-0.62,2.16-0.93,3.41-0.93c1.47,0,2.85,0.39,4.13,1.18c1.29,0.79,2.33,1.92,3.13,3.38c0.8,1.47,1.2,3.24,1.2,5.3
			c0,2.07-0.4,3.84-1.21,5.32s-1.86,2.62-3.17,3.4C145.23,186.93,143.82,187.32,142.32,187.32z"/>
		<path class="st2" d="M158.79,164.05c-0.74,0-1.32-0.21-1.75-0.61c-0.42-0.41-0.63-0.97-0.63-1.67c0-0.68,0.21-1.21,0.63-1.61
			c0.42-0.4,1-0.59,1.75-0.59c0.73,0,1.3,0.2,1.73,0.59c0.42,0.4,0.63,0.93,0.63,1.61c0,0.7-0.21,1.26-0.63,1.67
			C160.1,163.85,159.52,164.05,158.79,164.05z M156.94,186.81v-18.82h3.7v18.82H156.94z"/>
		<path class="st2" d="M175.64,187.32c-1.82,0-3.35-0.26-4.6-0.77c-1.25-0.51-2.2-1.23-2.86-2.15c-0.66-0.92-1-1.99-1.02-3.23h3.49
			c0.05,1.08,0.48,1.88,1.3,2.4c0.81,0.52,1.91,0.78,3.31,0.78c0.74,0,1.41-0.12,2.02-0.35c0.6-0.23,1.08-0.55,1.44-0.96
			c0.36-0.4,0.54-0.86,0.54-1.36c0-0.64-0.23-1.14-0.7-1.51c-0.47-0.37-1.22-0.7-2.26-0.98l-3.84-1.31
			c-1.53-0.52-2.71-1.21-3.53-2.08s-1.23-1.9-1.23-3.11c0-1.55,0.69-2.79,2.07-3.73c1.38-0.94,3.2-1.41,5.48-1.41
			c2.35,0,4.17,0.5,5.45,1.49s1.95,2.24,2,3.73h-3.57c-0.09-0.74-0.46-1.31-1.1-1.71s-1.57-0.59-2.78-0.59
			c-1.13,0-2.02,0.25-2.66,0.74c-0.64,0.49-0.97,1.05-0.97,1.68c0,1.12,0.96,1.95,2.89,2.5l4.04,1.42c1.53,0.49,2.72,1.13,3.55,1.91
			c0.83,0.78,1.25,1.77,1.25,2.96c0,0.96-0.32,1.87-0.96,2.73c-0.64,0.86-1.53,1.56-2.68,2.1
			C178.54,187.05,177.19,187.32,175.64,187.32z"/>
		<path class="st2" d="M196.13,187.32c-1.53,0-2.96-0.41-4.29-1.23c-1.33-0.82-2.39-1.97-3.2-3.45c-0.81-1.48-1.21-3.22-1.21-5.23
			c0-2.11,0.4-3.89,1.21-5.35c0.81-1.46,1.87-2.58,3.2-3.35c1.33-0.77,2.76-1.16,4.29-1.16c1.13,0,2.14,0.18,3.02,0.54
			c0.88,0.36,1.64,0.84,2.28,1.44c0.64,0.6,1.15,1.28,1.55,2.04c0.4,0.75,0.67,1.53,0.83,2.34l-3.76,0.2
			c-0.27-0.97-0.75-1.76-1.43-2.35s-1.52-0.89-2.53-0.89c-0.85,0-1.64,0.24-2.39,0.71s-1.35,1.2-1.81,2.16
			c-0.46,0.97-0.69,2.19-0.69,3.68c0,1.38,0.21,2.55,0.64,3.53c0.43,0.98,1.01,1.72,1.75,2.24c0.74,0.52,1.57,0.78,2.5,0.78
			c1.33,0,2.32-0.32,2.97-0.96c0.66-0.64,0.98-1.53,0.98-2.66h3.76c0,1.31-0.31,2.5-0.92,3.55c-0.61,1.05-1.49,1.89-2.64,2.51
			C199.11,187.01,197.73,187.32,196.13,187.32z"/>
		<path class="st2" d="M211.79,164.05c-0.74,0-1.32-0.21-1.75-0.61c-0.42-0.41-0.63-0.97-0.63-1.67c0-0.68,0.21-1.21,0.63-1.61
			c0.42-0.4,1-0.59,1.75-0.59c0.73,0,1.3,0.2,1.73,0.59c0.42,0.4,0.63,0.93,0.63,1.61c0,0.7-0.21,1.26-0.63,1.67
			C213.1,163.85,212.52,164.05,211.79,164.05z M209.94,186.81v-18.82h3.7v18.82H209.94z"/>
		<path class="st2" d="M221.78,186.81v-18.76h3.22l0.49,4.06v14.7H221.78z M234.92,186.81v-11c0-1.63-0.39-2.86-1.16-3.7
			s-1.82-1.26-3.13-1.26c-1.04,0-1.95,0.28-2.72,0.85c-0.77,0.57-1.37,1.39-1.79,2.48s-0.63,2.41-0.63,3.97h-1.33
			c0-2.3,0.3-4.24,0.89-5.81c0.59-1.57,1.44-2.77,2.54-3.58c1.1-0.81,2.43-1.22,3.98-1.22c1.51,0,2.79,0.34,3.83,1.01
			c1.05,0.68,1.84,1.63,2.39,2.88c0.55,1.24,0.82,2.7,0.82,4.38v11H234.92z"/>
		<path class="st2" d="M252.55,196.48c-2.03,0-3.77-0.28-5.24-0.84s-2.59-1.31-3.38-2.24s-1.19-1.96-1.19-3.06
			c0-1.4,0.51-2.48,1.54-3.23c1.03-0.75,2.33-1.12,3.92-1.12l2.4,1.13c-1.35,0-2.4,0.27-3.13,0.82c-0.73,0.55-1.1,1.29-1.1,2.22
			c0,0.97,0.53,1.78,1.6,2.41c1.07,0.63,2.59,0.95,4.58,0.95c1.44,0,2.71-0.21,3.8-0.63c1.09-0.42,1.94-0.98,2.54-1.66
			c0.6-0.68,0.9-1.41,0.9-2.19c0-0.53-0.19-0.99-0.58-1.36c-0.38-0.37-0.97-0.56-1.75-0.56h-6.86c-1.27,0-2.4-0.2-3.36-0.59
			s-1.73-0.92-2.27-1.57s-0.82-1.37-0.82-2.16c0-0.78,0.22-1.45,0.66-2.02s1.03-1,1.76-1.29c0.73-0.29,1.53-0.44,2.4-0.44l0.84,1.29
			c-0.38,0-0.75,0.08-1.13,0.24c-0.38,0.16-0.69,0.41-0.94,0.73c-0.25,0.33-0.37,0.73-0.37,1.21c0,0.56,0.24,1.02,0.71,1.39
			c0.47,0.37,1.32,0.56,2.52,0.56h6.86c1.87,0,3.34,0.37,4.41,1.11s1.6,1.82,1.6,3.24c0,1.29-0.44,2.52-1.33,3.69
			c-0.88,1.17-2.14,2.13-3.77,2.87C256.74,196.11,254.8,196.48,252.55,196.48z M252.96,181.18c-1.46,0-2.78-0.28-3.97-0.85
			c-1.19-0.57-2.14-1.36-2.84-2.38c-0.7-1.02-1.05-2.21-1.05-3.58c0-1.38,0.35-2.58,1.05-3.6c0.7-1.02,1.65-1.81,2.84-2.38
			c1.19-0.57,2.51-0.85,3.97-0.85c1.42,0,2.71,0.28,3.89,0.85c1.18,0.57,2.12,1.36,2.83,2.38c0.71,1.02,1.06,2.22,1.06,3.6
			c0,1.36-0.35,2.56-1.06,3.58c-0.71,1.02-1.65,1.81-2.83,2.38C255.67,180.89,254.37,181.18,252.96,181.18z M252.96,178.56
			c1.34,0,2.36-0.4,3.07-1.2c0.71-0.8,1.06-1.8,1.06-2.99c0-1.25-0.35-2.26-1.06-3.02c-0.71-0.77-1.73-1.15-3.07-1.15
			c-1.31,0-2.34,0.38-3.07,1.15c-0.73,0.77-1.1,1.78-1.1,3.02c0,1.2,0.37,2.19,1.1,2.99C250.62,178.16,251.64,178.56,252.96,178.56z
			 M259.33,170.55l-1.74-0.84c0-1.12,0.23-2.09,0.7-2.92s1.12-1.48,1.95-1.95c0.83-0.47,1.79-0.7,2.87-0.7l-0.23,3.61
			c-1.16,0-2.04,0.23-2.64,0.68C259.64,168.88,259.33,169.59,259.33,170.55z"/>
		<path class="st2" d="M284.19,187.32c-1.61,0-3.07-0.42-4.37-1.25c-1.3-0.83-2.33-1.99-3.09-3.47c-0.76-1.48-1.14-3.2-1.14-5.15
			c0-2.07,0.38-3.84,1.13-5.31s1.78-2.61,3.08-3.4c1.3-0.79,2.76-1.19,4.39-1.19c1.46,0,2.7,0.3,3.74,0.89
			c1.04,0.59,1.88,1.38,2.52,2.38c0.64,0.99,1.08,2.12,1.32,3.38c0.24,1.26,0.28,2.56,0.13,3.9h-13.34v-2.15h10.8l-0.9,0.58
			c0.04-0.7,0-1.4-0.11-2.11c-0.11-0.7-0.32-1.35-0.63-1.94c-0.31-0.59-0.75-1.07-1.32-1.42s-1.28-0.54-2.15-0.54
			c-1.09,0-2.01,0.27-2.74,0.82c-0.73,0.55-1.29,1.28-1.67,2.19c-0.38,0.92-0.57,1.92-0.57,3.01v1.5c0,1.21,0.18,2.28,0.55,3.22
			c0.36,0.94,0.91,1.67,1.63,2.21c0.72,0.54,1.63,0.81,2.74,0.81c1.08,0,1.97-0.25,2.68-0.76c0.71-0.51,1.15-1.27,1.32-2.28h3.78
			c-0.19,1.22-0.64,2.29-1.35,3.2c-0.7,0.91-1.6,1.62-2.7,2.12C286.83,187.07,285.59,187.32,284.19,187.32z"/>
		<path class="st2" d="M297.77,186.81v-26.66h3.7v26.66H297.77z"/>
		<path class="st2" d="M311.24,164.05c-0.74,0-1.32-0.21-1.75-0.61c-0.42-0.41-0.63-0.97-0.63-1.67c0-0.68,0.21-1.21,0.63-1.61
			c0.42-0.4,1-0.59,1.75-0.59c0.73,0,1.3,0.2,1.73,0.59c0.42,0.4,0.63,0.93,0.63,1.61c0,0.7-0.21,1.26-0.63,1.67
			C312.54,163.85,311.97,164.05,311.24,164.05z M309.39,186.81v-18.82h3.7v18.82H309.39z"/>
		<path class="st2" d="M318.71,170.57v-2.52h12.11v2.52H318.71z M327.25,187.32c-1.07,0-2.03-0.2-2.89-0.6s-1.54-1.01-2.04-1.82
			s-0.75-1.84-0.75-3.07v-18.88h3.69v18.76c0,1.77,0.83,2.65,2.48,2.65c0.51,0,1-0.06,1.48-0.17c0.48-0.11,1.03-0.28,1.64-0.5
			l0.53,2.63c-0.69,0.29-1.37,0.52-2.04,0.71C328.68,187.22,327.98,187.32,327.25,187.32z"/>
		<path class="st2" d="M336.24,191.51l-2.77-1.38c0.79-0.4,1.48-0.85,2.05-1.35c0.57-0.49,0.95-1.09,1.13-1.78
			c-0.62-0.09-1.16-0.33-1.6-0.72c-0.44-0.39-0.66-0.9-0.66-1.54c0-0.65,0.24-1.2,0.73-1.65s1.11-0.67,1.86-0.67
			c0.95,0,1.71,0.34,2.27,1.01c0.57,0.68,0.85,1.48,0.85,2.42c0,1.08-0.33,2.14-1,3.17C338.43,190.06,337.47,190.89,336.24,191.51z"
			/>
		<path class="st2" d="M361.45,187.32c-1.82,0-3.35-0.26-4.6-0.77c-1.25-0.51-2.2-1.23-2.86-2.15c-0.66-0.92-1-1.99-1.02-3.23h3.49
			c0.05,1.08,0.48,1.88,1.3,2.4c0.81,0.52,1.91,0.78,3.31,0.78c0.74,0,1.41-0.12,2.02-0.35c0.6-0.23,1.08-0.55,1.44-0.96
			c0.36-0.4,0.54-0.86,0.54-1.36c0-0.64-0.23-1.14-0.7-1.51c-0.47-0.37-1.22-0.7-2.26-0.98l-3.84-1.31
			c-1.53-0.52-2.71-1.21-3.53-2.08s-1.23-1.9-1.23-3.11c0-1.55,0.69-2.79,2.07-3.73c1.38-0.94,3.2-1.41,5.48-1.41
			c2.35,0,4.17,0.5,5.45,1.49s1.95,2.24,2,3.73h-3.57c-0.09-0.74-0.46-1.31-1.1-1.71s-1.57-0.59-2.78-0.59
			c-1.13,0-2.02,0.25-2.66,0.74c-0.64,0.49-0.97,1.05-0.97,1.68c0,1.12,0.96,1.95,2.89,2.5l4.04,1.42c1.53,0.49,2.72,1.13,3.55,1.91
			c0.83,0.78,1.25,1.77,1.25,2.96c0,0.96-0.32,1.87-0.96,2.73c-0.64,0.86-1.53,1.56-2.68,2.1
			C364.35,187.05,363,187.32,361.45,187.32z"/>
		<path class="st2" d="M381.85,187.32c-1.61,0-3.07-0.42-4.37-1.25c-1.3-0.83-2.33-1.99-3.09-3.47c-0.76-1.48-1.14-3.2-1.14-5.15
			c0-2.07,0.38-3.84,1.13-5.31s1.78-2.61,3.08-3.4c1.3-0.79,2.76-1.19,4.39-1.19c1.46,0,2.7,0.3,3.74,0.89
			c1.04,0.59,1.88,1.38,2.52,2.38c0.64,0.99,1.08,2.12,1.32,3.38c0.24,1.26,0.28,2.56,0.13,3.9h-13.34v-2.15h10.8l-0.9,0.58
			c0.04-0.7,0-1.4-0.11-2.11c-0.11-0.7-0.32-1.35-0.63-1.94c-0.31-0.59-0.75-1.07-1.32-1.42s-1.28-0.54-2.15-0.54
			c-1.09,0-2.01,0.27-2.74,0.82c-0.73,0.55-1.29,1.28-1.67,2.19c-0.38,0.92-0.57,1.92-0.57,3.01v1.5c0,1.21,0.18,2.28,0.55,3.22
			c0.36,0.94,0.91,1.67,1.63,2.21c0.72,0.54,1.63,0.81,2.74,0.81c1.08,0,1.97-0.25,2.68-0.76c0.71-0.51,1.15-1.27,1.32-2.28h3.78
			c-0.19,1.22-0.64,2.29-1.35,3.2c-0.7,0.91-1.6,1.62-2.7,2.12C384.48,187.07,383.24,187.32,381.85,187.32z"/>
		<path class="st2" d="M402.23,187.32c-1.53,0-2.94-0.41-4.23-1.24c-1.29-0.83-2.31-1.98-3.07-3.47c-0.76-1.49-1.14-3.24-1.14-5.26
			c0-2,0.37-3.74,1.12-5.21c0.75-1.47,1.74-2.6,2.97-3.4c1.24-0.8,2.61-1.2,4.11-1.2c1.38,0,2.58,0.34,3.61,1s1.82,1.64,2.39,2.92
			c0.57,1.27,0.85,2.83,0.85,4.66h-1.29c0-1.13-0.23-2.09-0.68-2.88c-0.46-0.79-1.05-1.38-1.77-1.79c-0.73-0.4-1.51-0.6-2.34-0.6
			c-0.97,0-1.86,0.26-2.64,0.79c-0.79,0.53-1.41,1.27-1.87,2.24s-0.69,2.12-0.69,3.46c0,1.35,0.23,2.53,0.69,3.52
			c0.46,1,1.09,1.76,1.87,2.29c0.79,0.53,1.66,0.8,2.62,0.8c0.79,0,1.56-0.21,2.29-0.63c0.73-0.42,1.34-1.03,1.81-1.82
			s0.71-1.74,0.71-2.83h1.29c0,1.87-0.3,3.45-0.89,4.74c-0.59,1.29-1.39,2.26-2.39,2.92S403.45,187.32,402.23,187.32z
			 M408.19,186.81l-0.64-4.5v-22.15h3.72v26.66H408.19z"/>
		<path class="st2" d="M435.2,187.32c-1.53,0-2.94-0.41-4.23-1.24c-1.29-0.83-2.31-1.98-3.07-3.47c-0.76-1.49-1.14-3.24-1.14-5.26
			c0-2,0.37-3.74,1.12-5.21c0.75-1.47,1.74-2.6,2.97-3.4c1.24-0.8,2.61-1.2,4.11-1.2c1.38,0,2.58,0.34,3.61,1s1.82,1.64,2.39,2.92
			c0.57,1.27,0.85,2.83,0.85,4.66h-1.29c0-1.13-0.23-2.09-0.68-2.88c-0.46-0.79-1.05-1.38-1.77-1.79c-0.73-0.4-1.51-0.6-2.34-0.6
			c-0.97,0-1.86,0.26-2.64,0.79c-0.79,0.53-1.41,1.27-1.87,2.24s-0.69,2.12-0.69,3.46c0,1.35,0.23,2.53,0.69,3.52
			c0.46,1,1.09,1.76,1.87,2.29c0.79,0.53,1.66,0.8,2.62,0.8c0.79,0,1.56-0.21,2.29-0.63c0.73-0.42,1.34-1.03,1.81-1.82
			s0.71-1.74,0.71-2.83h1.29c0,1.87-0.3,3.45-0.89,4.74c-0.59,1.29-1.39,2.26-2.39,2.92S436.42,187.32,435.2,187.32z M441.17,186.81
			l-0.64-4.5v-22.15h3.72v26.66H441.17z"/>
		<path class="st2" d="M454,164.05c-0.74,0-1.32-0.21-1.75-0.61c-0.42-0.41-0.63-0.97-0.63-1.67c0-0.68,0.21-1.21,0.63-1.61
			c0.42-0.4,1-0.59,1.75-0.59c0.73,0,1.3,0.2,1.73,0.59c0.42,0.4,0.63,0.93,0.63,1.61c0,0.7-0.21,1.26-0.63,1.67
			C455.3,163.85,454.73,164.05,454,164.05z M452.15,186.81v-18.82h3.7v18.82H452.15z"/>
		<path class="st2" d="M469.46,187.32c-1.57,0-2.88-0.28-3.92-0.83c-1.04-0.55-1.82-1.28-2.33-2.17c-0.51-0.9-0.77-1.85-0.77-2.87
			c0-1.23,0.31-2.25,0.95-3.05c0.63-0.8,1.5-1.39,2.62-1.78c1.12-0.39,2.4-0.59,3.86-0.59c1,0,1.98,0.09,2.93,0.27
			c0.95,0.18,1.88,0.42,2.81,0.72v2.24c-0.75-0.27-1.59-0.49-2.51-0.65c-0.92-0.16-1.77-0.24-2.56-0.24c-1.18,0-2.17,0.23-2.96,0.7
			c-0.79,0.47-1.19,1.26-1.19,2.38c0,0.82,0.31,1.52,0.94,2.12s1.61,0.89,2.96,0.89c0.99,0,1.86-0.22,2.61-0.67
			c0.75-0.45,1.34-1.01,1.76-1.69c0.42-0.68,0.62-1.35,0.62-2.03h0.9c0,1.3-0.26,2.5-0.79,3.6c-0.53,1.1-1.29,1.98-2.29,2.65
			C472.09,186.98,470.88,187.32,469.46,187.32z M475.74,186.81l-0.47-4.31v-7.82c0-1.53-0.32-2.65-0.96-3.34
			c-0.64-0.7-1.65-1.04-3.02-1.04c-0.78,0-1.47,0.11-2.08,0.34c-0.6,0.23-1.08,0.57-1.42,1.02c-0.34,0.46-0.52,1.03-0.52,1.72h-4.1
			c0-1.38,0.34-2.5,1.01-3.35c0.68-0.86,1.62-1.48,2.84-1.88c1.22-0.4,2.64-0.6,4.26-0.6c1.52,0,2.86,0.25,4.02,0.75
			c1.16,0.5,2.06,1.28,2.7,2.35c0.64,1.07,0.97,2.44,0.97,4.13v12.03H475.74z"/>
		<path class="st2" d="M486.02,186.81v-18.76h3.22l0.41,3.53c0.6-1.31,1.42-2.31,2.47-3c1.05-0.69,2.28-1.03,3.69-1.03
			c1.51,0,2.79,0.34,3.83,1.01c1.05,0.68,1.84,1.63,2.39,2.88c0.55,1.24,0.82,2.7,0.82,4.38v11h-3.69v-11c0-1.63-0.39-2.86-1.16-3.7
			s-1.82-1.26-3.13-1.26c-1.04,0-1.95,0.28-2.72,0.85c-0.77,0.57-1.37,1.39-1.79,2.48s-0.63,2.41-0.63,3.97v8.66H486.02z
			 M512.01,186.81v-11c0-1.63-0.39-2.86-1.16-3.7s-1.81-1.26-3.11-1.26c-1.56,0-2.77,0.61-3.62,1.83c-0.85,1.22-1.28,2.98-1.28,5.27
			h-1.62c0-1.81,0.18-3.37,0.53-4.68c0.35-1.31,0.85-2.39,1.51-3.24c0.66-0.84,1.44-1.47,2.36-1.88c0.92-0.41,1.94-0.62,3.07-0.62
			c1.51,0,2.79,0.34,3.83,1.01c1.05,0.68,1.84,1.63,2.39,2.88c0.55,1.24,0.82,2.7,0.82,4.38v11H512.01z"/>
		<path class="st2" d="M532.23,186.81v-18.76h3.22l0.49,4.06v14.7H532.23z M545.37,186.81v-11c0-1.63-0.39-2.86-1.16-3.7
			s-1.82-1.26-3.13-1.26c-1.04,0-1.95,0.28-2.72,0.85c-0.77,0.57-1.37,1.39-1.79,2.48s-0.63,2.41-0.63,3.97h-1.33
			c0-2.3,0.3-4.24,0.89-5.81c0.59-1.57,1.44-2.77,2.54-3.58c1.1-0.81,2.43-1.22,3.98-1.22c1.51,0,2.79,0.34,3.83,1.01
			c1.05,0.68,1.84,1.63,2.39,2.88c0.55,1.24,0.82,2.7,0.82,4.38v11H545.37z"/>
		<path class="st2" d="M563.16,187.32c-1.7,0-3.23-0.37-4.57-1.11c-1.35-0.74-2.41-1.85-3.19-3.31c-0.78-1.47-1.17-3.28-1.17-5.44
			c0-2.2,0.39-4.03,1.17-5.49c0.78-1.46,1.84-2.56,3.19-3.31c1.35-0.74,2.87-1.11,4.57-1.11c1.68,0,3.19,0.37,4.52,1.11
			c1.34,0.74,2.4,1.84,3.17,3.31c0.77,1.46,1.16,3.29,1.16,5.49c0,2.16-0.39,3.97-1.16,5.44s-1.83,2.57-3.17,3.31
			C566.34,186.95,564.83,187.32,563.16,187.32z M563.04,184.08c1.08,0,2.01-0.26,2.8-0.78c0.79-0.52,1.39-1.28,1.81-2.27
			c0.42-0.99,0.63-2.19,0.63-3.58c0-2.13-0.43-3.78-1.3-4.95c-0.86-1.17-2.11-1.75-3.73-1.75c-1.09,0-2.03,0.26-2.82,0.79
			s-1.39,1.29-1.81,2.28s-0.63,2.21-0.63,3.64c0,2.09,0.44,3.72,1.31,4.88C560.17,183.5,561.41,184.08,563.04,184.08z"/>
		<path class="st2" d="M577.74,186.81v-18.76h3.22l0.49,4.06v14.7H577.74z M590.89,186.81v-11c0-1.63-0.39-2.86-1.16-3.7
			s-1.82-1.26-3.13-1.26c-1.04,0-1.95,0.28-2.72,0.85c-0.77,0.57-1.37,1.39-1.79,2.48s-0.63,2.41-0.63,3.97h-1.33
			c0-2.3,0.3-4.24,0.89-5.81c0.59-1.57,1.44-2.77,2.54-3.58c1.1-0.81,2.43-1.22,3.98-1.22c1.51,0,2.79,0.34,3.83,1.01
			c1.05,0.68,1.84,1.63,2.39,2.88c0.55,1.24,0.82,2.7,0.82,4.38v11H590.89z"/>
		<path class="st2" d="M601.14,167.99h3.71v11.62c0,1.42,0.35,2.49,1.04,3.22c0.7,0.73,1.67,1.09,2.94,1.09c1.07,0,2-0.28,2.82-0.84
			c0.81-0.56,1.45-1.35,1.91-2.38c0.46-1.03,0.69-2.24,0.69-3.65h1.19c0,2.2-0.3,4.04-0.9,5.54c-0.6,1.5-1.44,2.63-2.52,3.4
			s-2.34,1.16-3.78,1.16c-1.38,0-2.6-0.25-3.68-0.76c-1.07-0.51-1.91-1.29-2.52-2.35c-0.6-1.06-0.91-2.43-0.91-4.11V167.99z
			 M614.25,167.99h3.72v18.82h-3.72V167.99z"/>
		<path class="st2" d="M625.58,186.81v-18.76h3.22l0.41,3.53c0.6-1.31,1.42-2.31,2.47-3c1.05-0.69,2.28-1.03,3.69-1.03
			c1.51,0,2.79,0.34,3.83,1.01c1.05,0.68,1.84,1.63,2.39,2.88c0.55,1.24,0.82,2.7,0.82,4.38v11h-3.69v-11c0-1.63-0.39-2.86-1.16-3.7
			s-1.82-1.26-3.13-1.26c-1.04,0-1.95,0.28-2.72,0.85c-0.77,0.57-1.37,1.39-1.79,2.48s-0.63,2.41-0.63,3.97v8.66H625.58z
			 M651.57,186.81v-11c0-1.63-0.39-2.86-1.16-3.7s-1.81-1.26-3.11-1.26c-1.56,0-2.77,0.61-3.62,1.83c-0.85,1.22-1.28,2.98-1.28,5.27
			h-1.62c0-1.81,0.18-3.37,0.53-4.68c0.35-1.31,0.85-2.39,1.51-3.24c0.66-0.84,1.44-1.47,2.36-1.88c0.92-0.41,1.94-0.62,3.07-0.62
			c1.51,0,2.79,0.34,3.83,1.01c1.05,0.68,1.84,1.63,2.39,2.88c0.55,1.24,0.82,2.7,0.82,4.38v11H651.57z"/>
		<path class="st2" d="M662.27,186.81v-18.76h3.22l0.41,3.53c0.6-1.31,1.42-2.31,2.47-3c1.05-0.69,2.28-1.03,3.69-1.03
			c1.51,0,2.79,0.34,3.83,1.01c1.05,0.68,1.84,1.63,2.39,2.88c0.55,1.24,0.82,2.7,0.82,4.38v11h-3.69v-11c0-1.63-0.39-2.86-1.16-3.7
			s-1.82-1.26-3.13-1.26c-1.04,0-1.95,0.28-2.72,0.85c-0.77,0.57-1.37,1.39-1.79,2.48s-0.63,2.41-0.63,3.97v8.66H662.27z
			 M688.27,186.81v-11c0-1.63-0.39-2.86-1.16-3.7s-1.81-1.26-3.11-1.26c-1.56,0-2.77,0.61-3.62,1.83c-0.85,1.22-1.28,2.98-1.28,5.27
			h-1.62c0-1.81,0.18-3.37,0.53-4.68c0.35-1.31,0.85-2.39,1.51-3.24c0.66-0.84,1.44-1.47,2.36-1.88c0.92-0.41,1.94-0.62,3.07-0.62
			c1.51,0,2.79,0.34,3.83,1.01c1.05,0.68,1.84,1.63,2.39,2.88c0.55,1.24,0.82,2.7,0.82,4.38v11H688.27z"/>
		<path class="st2" d="M695.99,168.05h4.15l5.65,15.52h-0.76l4.54-15.52h3.78l-7.12,22.37c-0.65,2.03-1.49,3.55-2.51,4.55
			c-1.02,1.01-2.3,1.51-3.83,1.51c-0.86,0-1.68-0.11-2.47-0.33c-0.79-0.22-1.59-0.55-2.41-0.97v-3.34c0.7,0.49,1.38,0.85,2.03,1.07
			c0.65,0.22,1.33,0.33,2.03,0.33s1.3-0.21,1.8-0.63c0.5-0.42,0.92-0.98,1.27-1.68c0.34-0.7,0.64-1.45,0.89-2.27l0.57-1.85
			L695.99,168.05z"/>
		<path class="st2" d="M727.27,186.81v-18.76h3.22l0.49,4.06v14.7H727.27z M740.41,186.81v-11c0-1.63-0.39-2.86-1.16-3.7
			s-1.82-1.26-3.13-1.26c-1.04,0-1.95,0.28-2.72,0.85c-0.77,0.57-1.37,1.39-1.79,2.48s-0.63,2.41-0.63,3.97h-1.33
			c0-2.3,0.3-4.24,0.89-5.81c0.59-1.57,1.44-2.77,2.54-3.58c1.1-0.81,2.43-1.22,3.98-1.22c1.51,0,2.79,0.34,3.83,1.01
			c1.05,0.68,1.84,1.63,2.39,2.88c0.55,1.24,0.82,2.7,0.82,4.38v11H740.41z"/>
		<path class="st2" d="M753.28,164.05c-0.74,0-1.32-0.21-1.75-0.61c-0.42-0.41-0.63-0.97-0.63-1.67c0-0.68,0.21-1.21,0.63-1.61
			c0.42-0.4,1-0.59,1.75-0.59c0.73,0,1.3,0.2,1.73,0.59c0.42,0.4,0.63,0.93,0.63,1.61c0,0.7-0.21,1.26-0.63,1.67
			C754.58,163.85,754.01,164.05,753.28,164.05z M751.43,186.81v-18.82h3.7v18.82H751.43z"/>
		<path class="st2" d="M763.26,186.81v-26.66h3.7v22.15l-1.19,4.5H763.26z M772.29,187.32c-1.22,0-2.33-0.33-3.32-0.98
			s-1.79-1.63-2.38-2.92c-0.59-1.29-0.89-2.87-0.89-4.74h1.27c0,1.09,0.24,2.04,0.71,2.83s1.08,1.4,1.82,1.82
			c0.74,0.42,1.51,0.63,2.32,0.63c0.96,0,1.83-0.27,2.6-0.8c0.77-0.53,1.39-1.3,1.85-2.29c0.46-0.99,0.69-2.17,0.69-3.52
			c0-1.34-0.23-2.49-0.68-3.46c-0.46-0.97-1.07-1.72-1.85-2.24c-0.78-0.53-1.66-0.79-2.65-0.79c-0.83,0-1.62,0.2-2.35,0.6
			c-0.73,0.4-1.33,1-1.78,1.79c-0.46,0.79-0.68,1.74-0.68,2.88h-1.27c0-1.83,0.29-3.39,0.86-4.66c0.57-1.27,1.37-2.25,2.39-2.92
			c1.02-0.67,2.22-1,3.6-1c1.49,0,2.86,0.4,4.1,1.2c1.24,0.8,2.24,1.93,2.98,3.4c0.75,1.47,1.12,3.2,1.12,5.21
			c0,2.02-0.38,3.77-1.15,5.26c-0.77,1.49-1.79,2.65-3.07,3.47C775.25,186.91,773.84,187.32,772.29,187.32z"/>
		<path class="st2" d="M786.72,186.81v-26.66h3.7v26.66H786.72z M799.86,186.81v-11c0-1.63-0.39-2.86-1.16-3.7s-1.82-1.26-3.13-1.26
			c-1.04,0-1.95,0.28-2.72,0.85c-0.77,0.57-1.37,1.39-1.79,2.48s-0.63,2.41-0.63,3.97h-1.33c0-2.3,0.3-4.24,0.89-5.81
			c0.59-1.57,1.44-2.77,2.54-3.58c1.1-0.81,2.43-1.22,3.98-1.22c1.51,0,2.79,0.34,3.83,1.01c1.05,0.68,1.84,1.63,2.39,2.88
			c0.55,1.24,0.82,2.7,0.82,4.38v11H799.86z"/>
		<path class="st2" d="M82.53,234.12c-1.61,0-3.07-0.42-4.37-1.25c-1.3-0.83-2.33-1.99-3.09-3.47c-0.76-1.48-1.14-3.2-1.14-5.15
			c0-2.07,0.38-3.84,1.13-5.31c0.75-1.47,1.78-2.61,3.08-3.4c1.3-0.79,2.76-1.19,4.39-1.19c1.46,0,2.7,0.3,3.74,0.89
			c1.04,0.59,1.88,1.38,2.52,2.38c0.64,0.99,1.08,2.12,1.32,3.38c0.24,1.26,0.28,2.56,0.13,3.9H76.89v-2.15h10.8l-0.9,0.59
			c0.04-0.7,0-1.4-0.11-2.11c-0.11-0.7-0.32-1.35-0.63-1.94s-0.75-1.07-1.32-1.42s-1.28-0.54-2.15-0.54c-1.09,0-2.01,0.27-2.74,0.82
			s-1.29,1.28-1.67,2.19c-0.38,0.92-0.57,1.92-0.57,3.01v1.5c0,1.21,0.18,2.28,0.55,3.22c0.36,0.94,0.91,1.67,1.63,2.21
			c0.72,0.54,1.63,0.81,2.74,0.81c1.08,0,1.97-0.25,2.68-0.76c0.71-0.51,1.15-1.27,1.32-2.28h3.78c-0.19,1.22-0.64,2.29-1.35,3.2
			c-0.7,0.91-1.6,1.62-2.7,2.12C85.17,233.87,83.92,234.12,82.53,234.12z"/>
		<path class="st2" d="M95.63,214.79h3.71v11.62c0,1.42,0.35,2.49,1.04,3.22s1.67,1.09,2.94,1.09c1.07,0,2-0.28,2.82-0.84
			c0.81-0.56,1.45-1.35,1.91-2.38c0.46-1.03,0.69-2.24,0.69-3.65h1.19c0,2.2-0.3,4.04-0.9,5.54c-0.6,1.49-1.44,2.63-2.52,3.4
			s-2.34,1.16-3.78,1.16c-1.38,0-2.6-0.25-3.68-0.76c-1.07-0.51-1.91-1.29-2.52-2.35s-0.91-2.43-0.91-4.1V214.79z M108.74,214.79
			h3.72v18.82h-3.72V214.79z"/>
		<path class="st2" d="M122.21,210.86c-0.74,0-1.32-0.21-1.75-0.61s-0.63-0.97-0.63-1.67c0-0.68,0.21-1.21,0.63-1.61
			s1-0.59,1.75-0.59c0.73,0,1.3,0.2,1.73,0.59c0.42,0.4,0.63,0.93,0.63,1.61c0,0.7-0.21,1.26-0.63,1.67
			C123.51,210.65,122.94,210.86,122.21,210.86z M120.36,233.61v-18.82h3.7v18.82H120.36z"/>
		<path class="st2" d="M139.06,234.12c-1.82,0-3.35-0.26-4.6-0.77c-1.25-0.51-2.2-1.23-2.86-2.15c-0.66-0.92-1-1.99-1.02-3.23h3.49
			c0.05,1.08,0.48,1.88,1.3,2.4s1.91,0.78,3.31,0.78c0.74,0,1.41-0.12,2.02-0.35s1.08-0.55,1.44-0.96c0.36-0.4,0.54-0.86,0.54-1.36
			c0-0.64-0.23-1.14-0.7-1.51c-0.47-0.37-1.22-0.7-2.26-0.99l-3.84-1.31c-1.53-0.52-2.71-1.21-3.53-2.08
			c-0.82-0.86-1.23-1.9-1.23-3.11c0-1.55,0.69-2.79,2.07-3.73s3.2-1.41,5.48-1.41c2.35,0,4.17,0.5,5.45,1.49s1.95,2.24,2,3.73h-3.57
			c-0.09-0.74-0.46-1.31-1.1-1.71s-1.57-0.59-2.78-0.59c-1.13,0-2.02,0.25-2.66,0.74s-0.97,1.05-0.97,1.68
			c0,1.12,0.96,1.95,2.89,2.5l4.04,1.42c1.53,0.49,2.72,1.13,3.55,1.91c0.83,0.78,1.25,1.77,1.25,2.96c0,0.96-0.32,1.87-0.96,2.73
			c-0.64,0.86-1.53,1.56-2.68,2.1C141.95,233.85,140.61,234.12,139.06,234.12z"/>
		<path class="st2" d="M152.73,233.61v-18.76h3.22l0.41,3.53c0.6-1.31,1.42-2.31,2.47-3c1.05-0.69,2.28-1.03,3.69-1.03
			c1.51,0,2.79,0.34,3.83,1.01c1.05,0.68,1.84,1.63,2.39,2.88c0.55,1.24,0.82,2.7,0.82,4.38v11h-3.69v-11c0-1.63-0.39-2.86-1.16-3.7
			c-0.77-0.84-1.82-1.26-3.13-1.26c-1.04,0-1.95,0.28-2.72,0.85c-0.77,0.56-1.37,1.39-1.79,2.48c-0.42,1.09-0.63,2.41-0.63,3.97
			v8.66H152.73z M178.72,233.61v-11c0-1.63-0.39-2.86-1.16-3.7c-0.77-0.84-1.81-1.26-3.11-1.26c-1.56,0-2.77,0.61-3.62,1.83
			c-0.85,1.22-1.28,2.98-1.28,5.26h-1.62c0-1.81,0.18-3.37,0.53-4.68c0.35-1.31,0.85-2.39,1.51-3.24c0.66-0.84,1.44-1.47,2.36-1.88
			s1.94-0.61,3.07-0.61c1.51,0,2.79,0.34,3.83,1.01c1.05,0.68,1.84,1.63,2.39,2.88c0.55,1.24,0.82,2.7,0.82,4.38v11H178.72z"/>
		<path class="st2" d="M196.49,234.12c-1.7,0-3.23-0.37-4.57-1.11c-1.35-0.74-2.41-1.85-3.19-3.32c-0.78-1.47-1.17-3.28-1.17-5.44
			c0-2.2,0.39-4.03,1.17-5.49c0.78-1.46,1.84-2.56,3.19-3.31c1.35-0.74,2.87-1.11,4.57-1.11c1.68,0,3.19,0.37,4.52,1.11
			c1.34,0.74,2.4,1.84,3.17,3.31s1.16,3.29,1.16,5.49c0,2.16-0.39,3.97-1.16,5.44c-0.77,1.47-1.83,2.57-3.17,3.32
			C199.67,233.75,198.16,234.12,196.49,234.12z M196.37,230.88c1.08,0,2.01-0.26,2.8-0.78c0.79-0.52,1.39-1.28,1.81-2.27
			c0.42-0.99,0.63-2.19,0.63-3.58c0-2.13-0.43-3.78-1.3-4.95c-0.86-1.17-2.11-1.75-3.73-1.75c-1.09,0-2.03,0.26-2.82,0.79
			c-0.79,0.53-1.39,1.29-1.81,2.28s-0.63,2.21-0.63,3.64c0,2.09,0.44,3.72,1.31,4.88C193.5,230.3,194.74,230.88,196.37,230.88z"/>
		<path class="st2" d="M217.88,234.12c-1.53,0-2.94-0.41-4.23-1.24c-1.29-0.83-2.31-1.98-3.07-3.47c-0.76-1.49-1.14-3.24-1.14-5.26
			c0-2,0.37-3.74,1.12-5.21c0.75-1.47,1.74-2.6,2.97-3.4c1.24-0.8,2.61-1.2,4.11-1.2c1.38,0,2.58,0.33,3.61,1
			c1.03,0.67,1.82,1.64,2.39,2.92c0.57,1.27,0.85,2.83,0.85,4.66h-1.29c0-1.13-0.23-2.09-0.68-2.88s-1.05-1.38-1.77-1.78
			c-0.73-0.4-1.51-0.61-2.34-0.61c-0.97,0-1.86,0.26-2.64,0.79c-0.79,0.53-1.41,1.27-1.87,2.24s-0.69,2.12-0.69,3.46
			c0,1.35,0.23,2.53,0.69,3.52s1.09,1.76,1.87,2.29c0.79,0.53,1.66,0.8,2.62,0.8c0.79,0,1.56-0.21,2.29-0.63
			c0.73-0.42,1.34-1.03,1.81-1.82c0.47-0.79,0.71-1.74,0.71-2.83h1.29c0,1.87-0.3,3.45-0.89,4.74c-0.59,1.29-1.39,2.26-2.39,2.92
			C220.21,233.79,219.1,234.12,217.88,234.12z M223.84,233.61l-0.64-4.5v-22.15h3.72v26.66H223.84z"/>
		<path class="st2" d="M241.53,217.37v-2.51h12.11v2.51H241.53z M250.07,234.12c-1.07,0-2.03-0.2-2.89-0.61
			c-0.86-0.4-1.54-1.01-2.04-1.82s-0.75-1.84-0.75-3.07v-18.88h3.69v18.76c0,1.77,0.83,2.65,2.48,2.65c0.51,0,1-0.05,1.48-0.17
			s1.03-0.28,1.64-0.5l0.53,2.63c-0.69,0.29-1.37,0.52-2.04,0.71C251.5,234.02,250.8,234.12,250.07,234.12z"/>
		<path class="st2" d="M261.17,210.86c-0.74,0-1.32-0.21-1.75-0.61s-0.63-0.97-0.63-1.67c0-0.68,0.21-1.21,0.63-1.61
			s1-0.59,1.75-0.59c0.73,0,1.3,0.2,1.73,0.59c0.42,0.4,0.63,0.93,0.63,1.61c0,0.7-0.21,1.26-0.63,1.67
			C262.47,210.65,261.89,210.86,261.17,210.86z M259.31,233.61v-18.82h3.7v18.82H259.31z"/>
		<path class="st2" d="M271.15,233.61v-18.76h3.22l0.49,4.05v14.7H271.15z M284.29,233.61v-11c0-1.63-0.39-2.86-1.16-3.7
			c-0.77-0.84-1.82-1.26-3.13-1.26c-1.04,0-1.95,0.28-2.72,0.85c-0.77,0.56-1.37,1.39-1.79,2.48c-0.42,1.09-0.63,2.41-0.63,3.97
			h-1.33c0-2.3,0.3-4.24,0.89-5.81c0.59-1.57,1.44-2.77,2.54-3.58s2.43-1.22,3.98-1.22c1.51,0,2.79,0.34,3.83,1.01
			c1.05,0.68,1.84,1.63,2.39,2.88c0.55,1.24,0.82,2.7,0.82,4.38v11H284.29z"/>
		<path class="st2" d="M301.84,234.12c-1.53,0-2.96-0.41-4.29-1.23c-1.33-0.82-2.39-1.97-3.2-3.45c-0.81-1.48-1.21-3.22-1.21-5.23
			c0-2.11,0.4-3.89,1.21-5.35c0.81-1.46,1.87-2.58,3.2-3.35c1.33-0.77,2.76-1.16,4.29-1.16c1.13,0,2.14,0.18,3.02,0.54
			c0.88,0.36,1.64,0.84,2.28,1.44c0.64,0.6,1.15,1.28,1.55,2.04c0.4,0.75,0.67,1.53,0.83,2.34l-3.76,0.2
			c-0.27-0.98-0.75-1.76-1.43-2.35c-0.68-0.59-1.52-0.89-2.53-0.89c-0.85,0-1.64,0.24-2.39,0.71s-1.35,1.2-1.81,2.16
			s-0.69,2.19-0.69,3.68c0,1.38,0.21,2.55,0.64,3.53c0.43,0.97,1.01,1.72,1.75,2.24c0.74,0.52,1.57,0.78,2.5,0.78
			c1.33,0,2.32-0.32,2.97-0.96c0.66-0.64,0.98-1.53,0.98-2.66h3.76c0,1.31-0.31,2.5-0.92,3.55c-0.61,1.05-1.49,1.89-2.64,2.5
			C304.82,233.81,303.44,234.12,301.84,234.12z"/>
		<path class="st2" d="M317.5,210.86c-0.74,0-1.32-0.21-1.75-0.61s-0.63-0.97-0.63-1.67c0-0.68,0.21-1.21,0.63-1.61
			s1-0.59,1.75-0.59c0.73,0,1.3,0.2,1.73,0.59c0.42,0.4,0.63,0.93,0.63,1.61c0,0.7-0.21,1.26-0.63,1.67
			C318.8,210.65,318.23,210.86,317.5,210.86z M315.65,233.61v-18.82h3.7v18.82H315.65z"/>
		<path class="st2" d="M334.29,234.12c-1.53,0-2.94-0.41-4.23-1.24c-1.29-0.83-2.31-1.98-3.07-3.47c-0.76-1.49-1.14-3.24-1.14-5.26
			c0-2,0.37-3.74,1.12-5.21c0.75-1.47,1.74-2.6,2.97-3.4c1.24-0.8,2.61-1.2,4.11-1.2c1.38,0,2.58,0.33,3.61,1
			c1.03,0.67,1.82,1.64,2.39,2.92c0.57,1.27,0.85,2.83,0.85,4.66h-1.29c0-1.13-0.23-2.09-0.68-2.88s-1.05-1.38-1.77-1.78
			c-0.73-0.4-1.51-0.61-2.34-0.61c-0.97,0-1.86,0.26-2.64,0.79c-0.79,0.53-1.41,1.27-1.87,2.24s-0.69,2.12-0.69,3.46
			c0,1.35,0.23,2.53,0.69,3.52s1.09,1.76,1.87,2.29c0.79,0.53,1.66,0.8,2.62,0.8c0.79,0,1.56-0.21,2.29-0.63
			c0.73-0.42,1.34-1.03,1.81-1.82c0.47-0.79,0.71-1.74,0.71-2.83h1.29c0,1.87-0.3,3.45-0.89,4.74c-0.59,1.29-1.39,2.26-2.39,2.92
			C336.62,233.79,335.51,234.12,334.29,234.12z M340.26,233.61l-0.64-4.5v-22.15h3.72v26.66H340.26z"/>
		<path class="st2" d="M350.47,214.79h3.71v11.62c0,1.42,0.35,2.49,1.04,3.22s1.67,1.09,2.94,1.09c1.07,0,2-0.28,2.82-0.84
			c0.81-0.56,1.45-1.35,1.91-2.38c0.46-1.03,0.69-2.24,0.69-3.65h1.19c0,2.2-0.3,4.04-0.9,5.54c-0.6,1.49-1.44,2.63-2.52,3.4
			s-2.34,1.16-3.78,1.16c-1.38,0-2.6-0.25-3.68-0.76c-1.07-0.51-1.91-1.29-2.52-2.35s-0.91-2.43-0.91-4.1V214.79z M363.58,214.79
			h3.72v18.82h-3.72V214.79z"/>
		<path class="st2" d="M374.91,233.61v-18.76h3.22l0.49,4.05v14.7H374.91z M388.05,233.61v-11c0-1.63-0.39-2.86-1.16-3.7
			c-0.77-0.84-1.82-1.26-3.13-1.26c-1.04,0-1.95,0.28-2.72,0.85c-0.77,0.56-1.37,1.39-1.79,2.48c-0.42,1.09-0.63,2.41-0.63,3.97
			h-1.33c0-2.3,0.3-4.24,0.89-5.81c0.59-1.57,1.44-2.77,2.54-3.58s2.43-1.22,3.98-1.22c1.51,0,2.79,0.34,3.83,1.01
			c1.05,0.68,1.84,1.63,2.39,2.88c0.55,1.24,0.82,2.7,0.82,4.38v11H388.05z"/>
		<path class="st2" d="M396.26,217.37v-2.51h12.11v2.51H396.26z M404.8,234.12c-1.07,0-2.03-0.2-2.89-0.61
			c-0.86-0.4-1.54-1.01-2.04-1.82s-0.75-1.84-0.75-3.07v-18.88h3.69v18.76c0,1.77,0.83,2.65,2.48,2.65c0.51,0,1-0.05,1.48-0.17
			s1.03-0.28,1.64-0.5l0.53,2.63c-0.69,0.29-1.37,0.52-2.04,0.71C406.23,234.02,405.53,234.12,404.8,234.12z"/>
		<path class="st2" d="M422.8,214.79h3.71v11.62c0,1.42,0.35,2.49,1.04,3.22s1.67,1.09,2.94,1.09c1.07,0,2-0.28,2.82-0.84
			c0.81-0.56,1.45-1.35,1.91-2.38c0.46-1.03,0.69-2.24,0.69-3.65h1.19c0,2.2-0.3,4.04-0.9,5.54c-0.6,1.49-1.44,2.63-2.52,3.4
			s-2.34,1.16-3.78,1.16c-1.38,0-2.6-0.25-3.68-0.76c-1.07-0.51-1.91-1.29-2.52-2.35s-0.91-2.43-0.91-4.1V214.79z M435.9,214.79
			h3.72v18.82h-3.72V214.79z"/>
		<path class="st2" d="M444.72,217.37v-2.51h12.11v2.51H444.72z M453.26,234.12c-1.07,0-2.03-0.2-2.89-0.61
			c-0.86-0.4-1.54-1.01-2.04-1.82s-0.75-1.84-0.75-3.07v-18.88h3.69v18.76c0,1.77,0.83,2.65,2.48,2.65c0.51,0,1-0.05,1.48-0.17
			s1.03-0.28,1.64-0.5l0.53,2.63c-0.69,0.29-1.37,0.52-2.04,0.71C454.68,234.02,453.98,234.12,453.26,234.12z"/>
		<path class="st2" d="M471.72,233.61v-26.66h3.7v26.66H471.72z"/>
		<path class="st2" d="M488.53,234.12c-1.57,0-2.88-0.28-3.92-0.83s-1.82-1.28-2.33-2.17c-0.51-0.9-0.77-1.85-0.77-2.87
			c0-1.24,0.31-2.25,0.95-3.05c0.63-0.8,1.5-1.39,2.62-1.78c1.12-0.39,2.4-0.58,3.86-0.58c1,0,1.98,0.09,2.93,0.27
			c0.95,0.18,1.88,0.42,2.81,0.72v2.24c-0.75-0.27-1.59-0.49-2.51-0.65s-1.77-0.24-2.56-0.24c-1.18,0-2.17,0.23-2.96,0.7
			c-0.79,0.47-1.19,1.26-1.19,2.38c0,0.82,0.31,1.52,0.94,2.12s1.61,0.89,2.96,0.89c0.99,0,1.86-0.22,2.61-0.67
			c0.75-0.45,1.34-1.01,1.76-1.69c0.42-0.68,0.62-1.35,0.62-2.03h0.9c0,1.3-0.26,2.5-0.79,3.6c-0.53,1.1-1.29,1.98-2.29,2.65
			C491.16,233.78,489.95,234.12,488.53,234.12z M494.81,233.61l-0.47-4.31v-7.82c0-1.53-0.32-2.65-0.96-3.34
			c-0.64-0.7-1.65-1.04-3.02-1.04c-0.78,0-1.47,0.11-2.08,0.34s-1.08,0.57-1.42,1.02c-0.34,0.46-0.52,1.03-0.52,1.71h-4.1
			c0-1.38,0.34-2.5,1.01-3.35c0.68-0.86,1.62-1.48,2.84-1.88c1.22-0.4,2.64-0.59,4.26-0.59c1.52,0,2.86,0.25,4.02,0.75
			s2.06,1.28,2.7,2.35c0.64,1.07,0.97,2.44,0.97,4.13v12.03H494.81z"/>
		<path class="st2" d="M512.15,234.12c-1.7,0-3.23-0.37-4.57-1.11c-1.35-0.74-2.41-1.85-3.19-3.32c-0.78-1.47-1.17-3.28-1.17-5.44
			c0-2.2,0.39-4.03,1.17-5.49c0.78-1.46,1.84-2.56,3.19-3.31c1.35-0.74,2.87-1.11,4.57-1.11c1.68,0,3.19,0.37,4.52,1.11
			c1.34,0.74,2.4,1.84,3.17,3.31s1.16,3.29,1.16,5.49c0,2.16-0.39,3.97-1.16,5.44c-0.77,1.47-1.83,2.57-3.17,3.32
			C515.33,233.75,513.82,234.12,512.15,234.12z M512.03,230.88c1.08,0,2.01-0.26,2.8-0.78c0.79-0.52,1.39-1.28,1.81-2.27
			c0.42-0.99,0.63-2.19,0.63-3.58c0-2.13-0.43-3.78-1.3-4.95c-0.86-1.17-2.11-1.75-3.73-1.75c-1.09,0-2.03,0.26-2.82,0.79
			c-0.79,0.53-1.39,1.29-1.81,2.28s-0.63,2.21-0.63,3.64c0,2.09,0.44,3.72,1.31,4.88C509.16,230.3,510.4,230.88,512.03,230.88z"/>
		<path class="st2" d="M526.73,233.61v-18.82h3.7v18.82H526.73z M529.42,225.23c0-2.4,0.25-4.4,0.75-6c0.5-1.59,1.2-2.78,2.11-3.56
			c0.9-0.78,1.97-1.17,3.19-1.17c0.36,0,0.71,0.03,1.02,0.08c0.32,0.05,0.63,0.12,0.95,0.21l-0.14,3.69
			c-0.35-0.09-0.73-0.17-1.14-0.24c-0.41-0.07-0.78-0.11-1.12-0.11c-1.07,0-1.94,0.28-2.61,0.85c-0.68,0.57-1.18,1.38-1.5,2.44
			c-0.33,1.06-0.49,2.33-0.49,3.81H529.42z"/>
		<path class="st2" d="M548.06,234.12c-1.61,0-3.07-0.42-4.37-1.25c-1.3-0.83-2.33-1.99-3.09-3.47c-0.76-1.48-1.14-3.2-1.14-5.15
			c0-2.07,0.38-3.84,1.13-5.31c0.75-1.47,1.78-2.61,3.08-3.4c1.3-0.79,2.76-1.19,4.39-1.19c1.46,0,2.7,0.3,3.74,0.89
			c1.04,0.59,1.88,1.38,2.52,2.38c0.64,0.99,1.08,2.12,1.32,3.38c0.24,1.26,0.28,2.56,0.13,3.9h-13.34v-2.15h10.8l-0.9,0.59
			c0.04-0.7,0-1.4-0.11-2.11c-0.11-0.7-0.32-1.35-0.63-1.94s-0.75-1.07-1.32-1.42s-1.28-0.54-2.15-0.54c-1.09,0-2.01,0.27-2.74,0.82
			s-1.29,1.28-1.67,2.19c-0.38,0.92-0.57,1.92-0.57,3.01v1.5c0,1.21,0.18,2.28,0.55,3.22c0.36,0.94,0.91,1.67,1.63,2.21
			c0.72,0.54,1.63,0.81,2.74,0.81c1.08,0,1.97-0.25,2.68-0.76c0.71-0.51,1.15-1.27,1.32-2.28h3.78c-0.19,1.22-0.64,2.29-1.35,3.2
			c-0.7,0.91-1.6,1.62-2.7,2.12C550.7,233.87,549.46,234.12,548.06,234.12z"/>
		<path class="st2" d="M568.36,234.12c-1.61,0-3.07-0.42-4.37-1.25c-1.3-0.83-2.33-1.99-3.09-3.47c-0.76-1.48-1.14-3.2-1.14-5.15
			c0-2.07,0.38-3.84,1.13-5.31c0.75-1.47,1.78-2.61,3.08-3.4c1.3-0.79,2.76-1.19,4.39-1.19c1.46,0,2.7,0.3,3.74,0.89
			c1.04,0.59,1.88,1.38,2.52,2.38c0.64,0.99,1.08,2.12,1.32,3.38c0.24,1.26,0.28,2.56,0.13,3.9h-13.34v-2.15h10.8l-0.9,0.59
			c0.04-0.7,0-1.4-0.11-2.11c-0.11-0.7-0.32-1.35-0.63-1.94s-0.75-1.07-1.32-1.42s-1.28-0.54-2.15-0.54c-1.09,0-2.01,0.27-2.74,0.82
			s-1.29,1.28-1.67,2.19c-0.38,0.92-0.57,1.92-0.57,3.01v1.5c0,1.21,0.18,2.28,0.55,3.22c0.36,0.94,0.91,1.67,1.63,2.21
			c0.72,0.54,1.63,0.81,2.74,0.81c1.08,0,1.97-0.25,2.68-0.76c0.71-0.51,1.15-1.27,1.32-2.28h3.78c-0.19,1.22-0.64,2.29-1.35,3.2
			c-0.7,0.91-1.6,1.62-2.7,2.12C571,233.87,569.75,234.12,568.36,234.12z"/>
		<path class="st2" d="M579.42,217.37v-2.51h12.11v2.51H579.42z M587.96,234.12c-1.07,0-2.03-0.2-2.89-0.61
			c-0.86-0.4-1.54-1.01-2.04-1.82s-0.75-1.84-0.75-3.07v-18.88h3.69v18.76c0,1.77,0.83,2.65,2.48,2.65c0.51,0,1-0.05,1.48-0.17
			s1.03-0.28,1.64-0.5l0.53,2.63c-0.69,0.29-1.37,0.52-2.04,0.71C589.39,234.02,588.69,234.12,587.96,234.12z"/>
		<path class="st2" d="M613.23,234.12c-1.53,0-2.94-0.41-4.23-1.24c-1.29-0.83-2.31-1.98-3.07-3.47c-0.76-1.49-1.14-3.24-1.14-5.26
			c0-2,0.37-3.74,1.12-5.21c0.75-1.47,1.74-2.6,2.97-3.4c1.24-0.8,2.61-1.2,4.11-1.2c1.38,0,2.58,0.33,3.61,1
			c1.03,0.67,1.82,1.64,2.39,2.92c0.57,1.27,0.85,2.83,0.85,4.66h-1.29c0-1.13-0.23-2.09-0.68-2.88s-1.05-1.38-1.77-1.78
			c-0.73-0.4-1.51-0.61-2.34-0.61c-0.97,0-1.86,0.26-2.64,0.79c-0.79,0.53-1.41,1.27-1.87,2.24s-0.69,2.12-0.69,3.46
			c0,1.35,0.23,2.53,0.69,3.52s1.09,1.76,1.87,2.29c0.79,0.53,1.66,0.8,2.62,0.8c0.79,0,1.56-0.21,2.29-0.63
			c0.73-0.42,1.34-1.03,1.81-1.82c0.47-0.79,0.71-1.74,0.71-2.83h1.29c0,1.87-0.3,3.45-0.89,4.74c-0.59,1.29-1.39,2.26-2.39,2.92
			C615.57,233.79,614.45,234.12,613.23,234.12z M619.2,233.61l-0.64-4.5v-22.15h3.72v26.66H619.2z"/>
		<path class="st2" d="M636.94,234.12c-1.7,0-3.23-0.37-4.57-1.11c-1.35-0.74-2.41-1.85-3.19-3.32c-0.78-1.47-1.17-3.28-1.17-5.44
			c0-2.2,0.39-4.03,1.17-5.49c0.78-1.46,1.84-2.56,3.19-3.31c1.35-0.74,2.87-1.11,4.57-1.11c1.68,0,3.19,0.37,4.52,1.11
			c1.34,0.74,2.4,1.84,3.17,3.31s1.16,3.29,1.16,5.49c0,2.16-0.39,3.97-1.16,5.44c-0.77,1.47-1.83,2.57-3.17,3.32
			C640.13,233.75,638.62,234.12,636.94,234.12z M636.83,230.88c1.08,0,2.01-0.26,2.8-0.78c0.79-0.52,1.39-1.28,1.81-2.27
			c0.42-0.99,0.63-2.19,0.63-3.58c0-2.13-0.43-3.78-1.3-4.95c-0.86-1.17-2.11-1.75-3.73-1.75c-1.09,0-2.03,0.26-2.82,0.79
			c-0.79,0.53-1.39,1.29-1.81,2.28s-0.63,2.21-0.63,3.64c0,2.09,0.44,3.72,1.31,4.88C633.95,230.3,635.2,230.88,636.83,230.88z"/>
		<path class="st2" d="M651.53,233.61v-26.66h3.7v26.66H651.53z"/>
		<path class="st2" d="M669.92,234.12c-1.7,0-3.23-0.37-4.57-1.11c-1.35-0.74-2.41-1.85-3.19-3.32c-0.78-1.47-1.17-3.28-1.17-5.44
			c0-2.2,0.39-4.03,1.17-5.49c0.78-1.46,1.84-2.56,3.19-3.31c1.35-0.74,2.87-1.11,4.57-1.11c1.68,0,3.19,0.37,4.52,1.11
			c1.34,0.74,2.4,1.84,3.17,3.31s1.16,3.29,1.16,5.49c0,2.16-0.39,3.97-1.16,5.44c-0.77,1.47-1.83,2.57-3.17,3.32
			C673.1,233.75,671.59,234.12,669.92,234.12z M669.8,230.88c1.08,0,2.01-0.26,2.8-0.78c0.79-0.52,1.39-1.28,1.81-2.27
			c0.42-0.99,0.63-2.19,0.63-3.58c0-2.13-0.43-3.78-1.3-4.95c-0.86-1.17-2.11-1.75-3.73-1.75c-1.09,0-2.03,0.26-2.82,0.79
			c-0.79,0.53-1.39,1.29-1.81,2.28s-0.63,2.21-0.63,3.64c0,2.09,0.44,3.72,1.31,4.88C666.93,230.3,668.18,230.88,669.8,230.88z"/>
		<path class="st2" d="M684.5,233.61v-18.82h3.7v18.82H684.5z M687.19,225.23c0-2.4,0.25-4.4,0.75-6c0.5-1.59,1.2-2.78,2.11-3.56
			c0.9-0.78,1.97-1.17,3.19-1.17c0.36,0,0.71,0.03,1.02,0.08c0.32,0.05,0.63,0.12,0.95,0.21l-0.14,3.69
			c-0.35-0.09-0.73-0.17-1.14-0.24c-0.41-0.07-0.78-0.11-1.12-0.11c-1.07,0-1.94,0.28-2.61,0.85c-0.68,0.57-1.18,1.38-1.5,2.44
			c-0.33,1.06-0.49,2.33-0.49,3.81H687.19z"/>
		<path class="st2" d="M705.84,234.12c-1.61,0-3.07-0.42-4.37-1.25c-1.3-0.83-2.33-1.99-3.09-3.47c-0.76-1.48-1.14-3.2-1.14-5.15
			c0-2.07,0.38-3.84,1.13-5.31c0.75-1.47,1.78-2.61,3.08-3.4c1.3-0.79,2.76-1.19,4.39-1.19c1.46,0,2.7,0.3,3.74,0.89
			c1.04,0.59,1.88,1.38,2.52,2.38c0.64,0.99,1.08,2.12,1.32,3.38c0.24,1.26,0.28,2.56,0.13,3.9H700.2v-2.15H711l-0.9,0.59
			c0.04-0.7,0-1.4-0.11-2.11c-0.11-0.7-0.32-1.35-0.63-1.94s-0.75-1.07-1.32-1.42s-1.28-0.54-2.15-0.54c-1.09,0-2.01,0.27-2.74,0.82
			s-1.29,1.28-1.67,2.19c-0.38,0.92-0.57,1.92-0.57,3.01v1.5c0,1.21,0.18,2.28,0.55,3.22c0.36,0.94,0.91,1.67,1.63,2.21
			c0.72,0.54,1.63,0.81,2.74,0.81c1.08,0,1.97-0.25,2.68-0.76c0.71-0.51,1.15-1.27,1.32-2.28h3.78c-0.19,1.22-0.64,2.29-1.35,3.2
			c-0.7,0.91-1.6,1.62-2.7,2.12C708.47,233.87,707.23,234.12,705.84,234.12z"/>
		<path class="st2" d="M728.92,233.61v-18.76h3.22l0.41,3.53c0.6-1.31,1.42-2.31,2.47-3c1.05-0.69,2.28-1.03,3.69-1.03
			c1.51,0,2.79,0.34,3.83,1.01c1.05,0.68,1.84,1.63,2.39,2.88c0.55,1.24,0.82,2.7,0.82,4.38v11h-3.69v-11c0-1.63-0.39-2.86-1.16-3.7
			c-0.77-0.84-1.82-1.26-3.13-1.26c-1.04,0-1.95,0.28-2.72,0.85c-0.77,0.56-1.37,1.39-1.79,2.48c-0.42,1.09-0.63,2.41-0.63,3.97
			v8.66H728.92z M754.92,233.61v-11c0-1.63-0.39-2.86-1.16-3.7c-0.77-0.84-1.81-1.26-3.11-1.26c-1.56,0-2.77,0.61-3.62,1.83
			c-0.85,1.22-1.28,2.98-1.28,5.26h-1.62c0-1.81,0.18-3.37,0.53-4.68c0.35-1.31,0.85-2.39,1.51-3.24c0.66-0.84,1.44-1.47,2.36-1.88
			s1.94-0.61,3.07-0.61c1.51,0,2.79,0.34,3.83,1.01c1.05,0.68,1.84,1.63,2.39,2.88c0.55,1.24,0.82,2.7,0.82,4.38v11H754.92z"/>
		<path class="st2" d="M771.1,234.12c-1.57,0-2.88-0.28-3.92-0.83s-1.82-1.28-2.33-2.17c-0.51-0.9-0.77-1.85-0.77-2.87
			c0-1.24,0.31-2.25,0.95-3.05c0.63-0.8,1.5-1.39,2.62-1.78c1.12-0.39,2.4-0.58,3.86-0.58c1,0,1.98,0.09,2.93,0.27
			c0.95,0.18,1.88,0.42,2.81,0.72v2.24c-0.75-0.27-1.59-0.49-2.51-0.65s-1.77-0.24-2.56-0.24c-1.18,0-2.17,0.23-2.96,0.7
			c-0.79,0.47-1.19,1.26-1.19,2.38c0,0.82,0.31,1.52,0.94,2.12s1.61,0.89,2.96,0.89c0.99,0,1.86-0.22,2.61-0.67
			c0.75-0.45,1.34-1.01,1.76-1.69c0.42-0.68,0.62-1.35,0.62-2.03h0.9c0,1.3-0.26,2.5-0.79,3.6c-0.53,1.1-1.29,1.98-2.29,2.65
			C773.73,233.78,772.52,234.12,771.1,234.12z M777.38,233.61l-0.47-4.31v-7.82c0-1.53-0.32-2.65-0.96-3.34
			c-0.64-0.7-1.65-1.04-3.02-1.04c-0.78,0-1.47,0.11-2.08,0.34s-1.08,0.57-1.42,1.02c-0.34,0.46-0.52,1.03-0.52,1.71h-4.1
			c0-1.38,0.34-2.5,1.01-3.35c0.68-0.86,1.62-1.48,2.84-1.88c1.22-0.4,2.64-0.59,4.26-0.59c1.52,0,2.86,0.25,4.02,0.75
			s2.06,1.28,2.7,2.35c0.64,1.07,0.97,2.44,0.97,4.13v12.03H777.38z"/>
		<path class="st2" d="M794.56,243.28c-2.03,0-3.77-0.28-5.24-0.84s-2.59-1.31-3.38-2.24c-0.79-0.94-1.19-1.96-1.19-3.06
			c0-1.4,0.51-2.48,1.54-3.23c1.03-0.75,2.33-1.12,3.92-1.12l2.4,1.13c-1.35,0-2.4,0.27-3.13,0.82c-0.73,0.55-1.1,1.29-1.1,2.22
			c0,0.98,0.53,1.78,1.6,2.41c1.07,0.63,2.59,0.95,4.58,0.95c1.44,0,2.71-0.21,3.8-0.63c1.09-0.42,1.94-0.97,2.54-1.66
			c0.6-0.68,0.9-1.41,0.9-2.19c0-0.53-0.19-0.99-0.58-1.36c-0.38-0.37-0.97-0.56-1.75-0.56h-6.86c-1.27,0-2.4-0.2-3.36-0.59
			s-1.73-0.92-2.27-1.57s-0.82-1.37-0.82-2.17c0-0.78,0.22-1.45,0.66-2.02c0.44-0.56,1.03-0.99,1.76-1.29
			c0.73-0.29,1.53-0.44,2.4-0.44l0.84,1.29c-0.38,0-0.75,0.08-1.13,0.24c-0.38,0.16-0.69,0.41-0.94,0.73
			c-0.25,0.32-0.37,0.73-0.37,1.21c0,0.56,0.24,1.02,0.71,1.39c0.47,0.37,1.32,0.55,2.52,0.55h6.86c1.87,0,3.34,0.37,4.41,1.11
			c1.07,0.74,1.6,1.82,1.6,3.24c0,1.29-0.44,2.52-1.33,3.69c-0.88,1.17-2.14,2.13-3.77,2.87
			C798.75,242.91,796.81,243.28,794.56,243.28z M794.97,227.98c-1.46,0-2.78-0.28-3.97-0.85c-1.19-0.57-2.14-1.36-2.84-2.38
			s-1.05-2.21-1.05-3.58c0-1.38,0.35-2.58,1.05-3.6s1.65-1.81,2.84-2.38c1.19-0.56,2.51-0.85,3.97-0.85c1.42,0,2.71,0.28,3.89,0.85
			c1.18,0.57,2.12,1.36,2.83,2.38s1.06,2.22,1.06,3.6c0,1.36-0.35,2.56-1.06,3.58s-1.65,1.81-2.83,2.38
			C797.68,227.69,796.39,227.98,794.97,227.98z M794.97,225.36c1.34,0,2.36-0.4,3.07-1.2s1.06-1.8,1.06-2.99
			c0-1.25-0.35-2.25-1.06-3.02s-1.73-1.15-3.07-1.15c-1.31,0-2.34,0.38-3.07,1.15c-0.73,0.77-1.1,1.77-1.1,3.02
			c0,1.2,0.37,2.19,1.1,2.99C792.63,224.96,793.66,225.36,794.97,225.36z M801.35,217.35l-1.74-0.84c0-1.12,0.23-2.09,0.7-2.92
			s1.12-1.48,1.95-1.95c0.83-0.47,1.79-0.7,2.87-0.7l-0.23,3.61c-1.16,0-2.04,0.23-2.64,0.68
			C801.65,215.68,801.35,216.39,801.35,217.35z"/>
		<path class="st2" d="M809.96,233.61v-18.76h3.22l0.49,4.05v14.7H809.96z M823.11,233.61v-11c0-1.63-0.39-2.86-1.16-3.7
			c-0.77-0.84-1.82-1.26-3.13-1.26c-1.04,0-1.95,0.28-2.72,0.85c-0.77,0.56-1.37,1.39-1.79,2.48c-0.42,1.09-0.63,2.41-0.63,3.97
			h-1.33c0-2.3,0.3-4.24,0.89-5.81c0.59-1.57,1.44-2.77,2.54-3.58s2.43-1.22,3.98-1.22c1.51,0,2.79,0.34,3.83,1.01
			c1.05,0.68,1.84,1.63,2.39,2.88c0.55,1.24,0.82,2.7,0.82,4.38v11H823.11z"/>
		<path class="st2" d="M839.31,234.12c-1.57,0-2.88-0.28-3.92-0.83s-1.82-1.28-2.33-2.17c-0.51-0.9-0.77-1.85-0.77-2.87
			c0-1.24,0.31-2.25,0.95-3.05c0.63-0.8,1.5-1.39,2.62-1.78c1.12-0.39,2.4-0.58,3.86-0.58c1,0,1.98,0.09,2.93,0.27
			c0.95,0.18,1.88,0.42,2.81,0.72v2.24c-0.75-0.27-1.59-0.49-2.51-0.65s-1.77-0.24-2.56-0.24c-1.18,0-2.17,0.23-2.96,0.7
			c-0.79,0.47-1.19,1.26-1.19,2.38c0,0.82,0.31,1.52,0.94,2.12s1.61,0.89,2.96,0.89c0.99,0,1.86-0.22,2.61-0.67
			c0.75-0.45,1.34-1.01,1.76-1.69c0.42-0.68,0.62-1.35,0.62-2.03h0.9c0,1.3-0.26,2.5-0.79,3.6c-0.53,1.1-1.29,1.98-2.29,2.65
			C841.94,233.78,840.73,234.12,839.31,234.12z M845.59,233.61l-0.47-4.31v-7.82c0-1.53-0.32-2.65-0.96-3.34
			c-0.64-0.7-1.65-1.04-3.02-1.04c-0.78,0-1.47,0.11-2.08,0.34s-1.08,0.57-1.42,1.02c-0.34,0.46-0.52,1.03-0.52,1.71h-4.1
			c0-1.38,0.34-2.5,1.01-3.35c0.68-0.86,1.62-1.48,2.84-1.88c1.22-0.4,2.64-0.59,4.26-0.59c1.52,0,2.86,0.25,4.02,0.75
			s2.06,1.28,2.7,2.35c0.64,1.07,0.97,2.44,0.97,4.13v12.03H845.59z"/>
		<path class="st2" d="M81.28,280.92c-1.57,0-2.88-0.28-3.92-0.83s-1.82-1.28-2.33-2.17c-0.51-0.9-0.77-1.85-0.77-2.87
			c0-1.23,0.31-2.25,0.95-3.05c0.63-0.8,1.5-1.39,2.62-1.79c1.12-0.39,2.4-0.58,3.86-0.58c1,0,1.98,0.09,2.93,0.27
			c0.95,0.18,1.88,0.42,2.81,0.72v2.24c-0.75-0.27-1.59-0.49-2.51-0.65s-1.77-0.24-2.56-0.24c-1.18,0-2.17,0.23-2.96,0.7
			c-0.79,0.47-1.19,1.26-1.19,2.38c0,0.82,0.31,1.52,0.94,2.12c0.62,0.59,1.61,0.89,2.96,0.89c0.99,0,1.86-0.22,2.61-0.67
			c0.75-0.45,1.34-1.01,1.76-1.69c0.42-0.68,0.62-1.35,0.62-2.03h0.9c0,1.3-0.26,2.5-0.79,3.6c-0.53,1.1-1.29,1.98-2.29,2.65
			C83.91,280.58,82.7,280.92,81.28,280.92z M87.56,280.41l-0.47-4.31v-7.82c0-1.53-0.32-2.65-0.96-3.34
			c-0.64-0.7-1.65-1.04-3.02-1.04c-0.78,0-1.47,0.12-2.08,0.34c-0.6,0.23-1.08,0.57-1.42,1.02c-0.34,0.46-0.52,1.03-0.52,1.72H75
			c0-1.38,0.34-2.5,1.01-3.35c0.68-0.86,1.62-1.49,2.84-1.88c1.22-0.4,2.64-0.59,4.26-0.59c1.52,0,2.86,0.25,4.02,0.75
			s2.06,1.28,2.7,2.35c0.64,1.07,0.97,2.44,0.97,4.13v12.03H87.56z"/>
		<path class="st2" d="M97.84,280.41v-26.66h3.7v26.66H97.84z"/>
		<path class="st2" d="M111.31,257.66c-0.74,0-1.32-0.21-1.75-0.61c-0.42-0.41-0.63-0.96-0.63-1.67c0-0.68,0.21-1.21,0.63-1.61
			c0.42-0.4,1-0.59,1.75-0.59c0.73,0,1.3,0.2,1.73,0.59c0.42,0.4,0.63,0.93,0.63,1.61c0,0.7-0.21,1.26-0.63,1.67
			C112.61,257.45,112.04,257.66,111.31,257.66z M109.46,280.41v-18.82h3.7v18.82H109.46z"/>
		<path class="st2" d="M128.02,280.92c-1.51,0-2.92-0.39-4.22-1.18c-1.31-0.79-2.36-1.92-3.17-3.4c-0.81-1.48-1.21-3.26-1.21-5.32
			s0.4-3.83,1.19-5.3c0.79-1.47,1.83-2.6,3.12-3.38c1.29-0.79,2.66-1.18,4.11-1.18c1.26,0,2.4,0.31,3.43,0.93
			c1.03,0.62,1.85,1.55,2.46,2.8c0.61,1.25,0.92,2.82,0.92,4.7h-1.48c0-1.09-0.22-2.02-0.66-2.78c-0.44-0.76-1.02-1.34-1.74-1.74
			c-0.71-0.4-1.5-0.59-2.34-0.59c-0.98,0-1.86,0.26-2.65,0.78c-0.79,0.52-1.42,1.27-1.89,2.24c-0.47,0.98-0.7,2.15-0.7,3.53
			c0,1.44,0.26,2.65,0.77,3.63c0.51,0.98,1.18,1.71,1.99,2.19c0.81,0.49,1.66,0.73,2.54,0.73c0.79,0,1.55-0.18,2.26-0.55
			s1.3-0.9,1.75-1.62c0.45-0.71,0.67-1.59,0.67-2.61h0.9c0,1.61-0.22,3.03-0.65,4.24c-0.44,1.22-1.1,2.17-2,2.86
			C130.52,280.57,129.39,280.92,128.02,280.92z M138.46,290.08c-1.92-0.51-3.29-1.3-4.08-2.37c-0.8-1.07-1.2-2.58-1.2-4.51v-17.04
			l1.23-4.5h2.46v21.82c0,0.83,0.08,1.49,0.24,1.96c0.16,0.47,0.44,0.85,0.85,1.12c0.4,0.27,0.96,0.53,1.66,0.76L138.46,290.08z"/>
		<path class="st2" d="M144.05,261.59h3.71v11.62c0,1.42,0.35,2.49,1.04,3.22s1.67,1.09,2.94,1.09c1.07,0,2-0.28,2.82-0.84
			c0.81-0.56,1.45-1.35,1.91-2.38s0.69-2.24,0.69-3.65h1.19c0,2.2-0.3,4.04-0.9,5.54c-0.6,1.5-1.44,2.63-2.52,3.4
			s-2.34,1.16-3.78,1.16c-1.38,0-2.6-0.25-3.68-0.76c-1.07-0.51-1.91-1.29-2.52-2.35s-0.91-2.43-0.91-4.1V261.59z M157.16,261.59
			h3.72v18.82h-3.72V261.59z"/>
		<path class="st2" d="M173.96,280.92c-1.57,0-2.88-0.28-3.92-0.83s-1.82-1.28-2.33-2.17c-0.51-0.9-0.77-1.85-0.77-2.87
			c0-1.23,0.31-2.25,0.95-3.05c0.63-0.8,1.5-1.39,2.62-1.79c1.12-0.39,2.4-0.58,3.86-0.58c1,0,1.98,0.09,2.93,0.27
			c0.95,0.18,1.88,0.42,2.81,0.72v2.24c-0.75-0.27-1.59-0.49-2.51-0.65s-1.77-0.24-2.56-0.24c-1.18,0-2.17,0.23-2.96,0.7
			c-0.79,0.47-1.19,1.26-1.19,2.38c0,0.82,0.31,1.52,0.94,2.12c0.62,0.59,1.61,0.89,2.96,0.89c0.99,0,1.86-0.22,2.61-0.67
			c0.75-0.45,1.34-1.01,1.76-1.69c0.42-0.68,0.62-1.35,0.62-2.03h0.9c0,1.3-0.26,2.5-0.79,3.6c-0.53,1.1-1.29,1.98-2.29,2.65
			C176.59,280.58,175.38,280.92,173.96,280.92z M180.24,280.41l-0.47-4.31v-7.82c0-1.53-0.32-2.65-0.96-3.34
			c-0.64-0.7-1.65-1.04-3.02-1.04c-0.78,0-1.47,0.12-2.08,0.34c-0.6,0.23-1.08,0.57-1.42,1.02c-0.34,0.46-0.52,1.03-0.52,1.72h-4.1
			c0-1.38,0.34-2.5,1.01-3.35c0.68-0.86,1.62-1.49,2.84-1.88c1.22-0.4,2.64-0.59,4.26-0.59c1.52,0,2.86,0.25,4.02,0.75
			s2.06,1.28,2.7,2.35c0.64,1.07,0.97,2.44,0.97,4.13v12.03H180.24z"/>
		<path class="st2" d="M190.52,280.41v-18.76h3.22l0.41,3.53c0.6-1.31,1.42-2.31,2.47-3c1.05-0.69,2.28-1.03,3.69-1.03
			c1.51,0,2.79,0.34,3.83,1.01c1.05,0.68,1.84,1.63,2.39,2.88c0.55,1.24,0.82,2.7,0.82,4.38v11h-3.69v-11c0-1.63-0.39-2.86-1.16-3.7
			c-0.77-0.84-1.82-1.26-3.13-1.26c-1.04,0-1.95,0.28-2.72,0.85c-0.77,0.57-1.37,1.39-1.79,2.48c-0.42,1.09-0.63,2.41-0.63,3.97
			v8.66H190.52z M216.51,280.41v-11c0-1.63-0.39-2.86-1.16-3.7c-0.77-0.84-1.81-1.26-3.11-1.26c-1.56,0-2.77,0.61-3.62,1.83
			c-0.85,1.22-1.28,2.98-1.28,5.27h-1.62c0-1.81,0.18-3.37,0.53-4.68s0.85-2.39,1.51-3.24c0.66-0.84,1.44-1.47,2.36-1.88
			c0.92-0.41,1.94-0.61,3.07-0.61c1.51,0,2.79,0.34,3.83,1.01c1.05,0.68,1.84,1.63,2.39,2.88c0.55,1.24,0.82,2.7,0.82,4.38v11
			H216.51z"/>
		<path class="st2" d="M243.46,280.92c-1.61,0-3.07-0.42-4.37-1.25c-1.3-0.83-2.33-1.99-3.09-3.47c-0.76-1.48-1.14-3.2-1.14-5.15
			c0-2.07,0.38-3.84,1.13-5.31c0.75-1.48,1.78-2.61,3.08-3.4c1.3-0.79,2.76-1.19,4.39-1.19c1.46,0,2.7,0.3,3.74,0.89
			s1.88,1.38,2.52,2.38c0.64,0.99,1.08,2.12,1.32,3.38c0.24,1.26,0.28,2.56,0.13,3.9h-13.34v-2.14h10.8l-0.9,0.58
			c0.04-0.7,0-1.4-0.11-2.11c-0.11-0.7-0.32-1.35-0.63-1.94c-0.31-0.59-0.75-1.07-1.32-1.42s-1.28-0.54-2.15-0.54
			c-1.09,0-2.01,0.27-2.74,0.82s-1.29,1.28-1.67,2.19c-0.38,0.92-0.57,1.92-0.57,3.01v1.5c0,1.21,0.18,2.28,0.55,3.22
			c0.36,0.94,0.91,1.67,1.63,2.21c0.72,0.54,1.63,0.81,2.74,0.81c1.08,0,1.97-0.25,2.68-0.76c0.71-0.51,1.15-1.27,1.32-2.28h3.78
			c-0.19,1.22-0.64,2.29-1.35,3.2c-0.7,0.91-1.6,1.62-2.7,2.12S244.85,280.92,243.46,280.92z"/>
		<path class="st2" d="M257.03,280.41v-18.82h3.7v18.82H257.03z M259.72,272.03c0-2.41,0.25-4.4,0.75-6s1.2-2.78,2.11-3.56
			s1.97-1.17,3.19-1.17c0.36,0,0.71,0.03,1.02,0.08c0.32,0.05,0.63,0.13,0.95,0.21l-0.14,3.69c-0.35-0.09-0.73-0.17-1.14-0.24
			c-0.41-0.07-0.78-0.11-1.12-0.11c-1.07,0-1.94,0.28-2.61,0.85c-0.68,0.56-1.18,1.38-1.5,2.44c-0.33,1.06-0.49,2.33-0.49,3.81
			H259.72z"/>
		<path class="st2" d="M277.12,280.92c-1.57,0-2.88-0.28-3.92-0.83s-1.82-1.28-2.33-2.17c-0.51-0.9-0.77-1.85-0.77-2.87
			c0-1.23,0.31-2.25,0.95-3.05c0.63-0.8,1.5-1.39,2.62-1.79c1.12-0.39,2.4-0.58,3.86-0.58c1,0,1.98,0.09,2.93,0.27
			c0.95,0.18,1.88,0.42,2.81,0.72v2.24c-0.75-0.27-1.59-0.49-2.51-0.65s-1.77-0.24-2.56-0.24c-1.18,0-2.17,0.23-2.96,0.7
			c-0.79,0.47-1.19,1.26-1.19,2.38c0,0.82,0.31,1.52,0.94,2.12c0.62,0.59,1.61,0.89,2.96,0.89c0.99,0,1.86-0.22,2.61-0.67
			c0.75-0.45,1.34-1.01,1.76-1.69c0.42-0.68,0.62-1.35,0.62-2.03h0.9c0,1.3-0.26,2.5-0.79,3.6c-0.53,1.1-1.29,1.98-2.29,2.65
			C279.74,280.58,278.53,280.92,277.12,280.92z M283.4,280.41l-0.47-4.31v-7.82c0-1.53-0.32-2.65-0.96-3.34
			c-0.64-0.7-1.65-1.04-3.02-1.04c-0.78,0-1.47,0.12-2.08,0.34c-0.6,0.23-1.08,0.57-1.42,1.02c-0.34,0.46-0.52,1.03-0.52,1.72h-4.1
			c0-1.38,0.34-2.5,1.01-3.35c0.68-0.86,1.62-1.49,2.84-1.88c1.22-0.4,2.64-0.59,4.26-0.59c1.52,0,2.86,0.25,4.02,0.75
			s2.06,1.28,2.7,2.35c0.64,1.07,0.97,2.44,0.97,4.13v12.03H283.4z"/>
		<path class="st2" d="M291.16,264.17v-2.52h12.11v2.52H291.16z M299.7,280.92c-1.07,0-2.03-0.2-2.89-0.6
			c-0.86-0.4-1.54-1.01-2.04-1.82c-0.5-0.81-0.75-1.84-0.75-3.07v-18.88h3.69v18.76c0,1.77,0.83,2.65,2.48,2.65
			c0.51,0,1-0.06,1.48-0.17s1.03-0.28,1.64-0.5l0.53,2.63c-0.69,0.29-1.37,0.52-2.04,0.71C301.12,280.82,300.43,280.92,299.7,280.92
			z"/>
		<path class="st2" d="M314.97,261.65h4.25l5.28,15.58h-0.39l5.28-15.58h4.25l-7.29,18.76h-4.11L314.97,261.65z"/>
		<path class="st2" d="M345.09,280.92c-1.7,0-3.23-0.37-4.57-1.11c-1.35-0.74-2.41-1.85-3.19-3.31c-0.78-1.47-1.17-3.28-1.17-5.44
			c0-2.2,0.39-4.03,1.17-5.49c0.78-1.46,1.84-2.56,3.19-3.3c1.35-0.74,2.87-1.11,4.57-1.11c1.68,0,3.19,0.37,4.52,1.11
			c1.34,0.74,2.4,1.84,3.17,3.3s1.16,3.29,1.16,5.49c0,2.16-0.39,3.97-1.16,5.44s-1.83,2.57-3.17,3.31
			C348.28,280.55,346.77,280.92,345.09,280.92z M344.98,277.68c1.08,0,2.01-0.26,2.8-0.78c0.79-0.52,1.39-1.28,1.81-2.27
			c0.42-1,0.63-2.19,0.63-3.58c0-2.13-0.43-3.78-1.3-4.95c-0.86-1.17-2.11-1.75-3.73-1.75c-1.09,0-2.03,0.26-2.82,0.79
			c-0.79,0.53-1.39,1.29-1.81,2.28c-0.42,0.99-0.63,2.21-0.63,3.64c0,2.09,0.44,3.72,1.31,4.88
			C342.1,277.1,343.35,277.68,344.98,277.68z"/>
		<path class="st2" d="M359.68,280.41v-26.66h3.7v26.66H359.68z"/>
		<path class="st2" d="M370.54,261.59h3.71v11.62c0,1.42,0.35,2.49,1.04,3.22s1.67,1.09,2.94,1.09c1.07,0,2-0.28,2.82-0.84
			c0.81-0.56,1.45-1.35,1.91-2.38s0.69-2.24,0.69-3.65h1.19c0,2.2-0.3,4.04-0.9,5.54c-0.6,1.5-1.44,2.63-2.52,3.4
			s-2.34,1.16-3.78,1.16c-1.38,0-2.6-0.25-3.68-0.76c-1.07-0.51-1.91-1.29-2.52-2.35s-0.91-2.43-0.91-4.1V261.59z M383.64,261.59
			h3.72v18.82h-3.72V261.59z"/>
		<path class="st2" d="M392.46,264.17v-2.52h12.11v2.52H392.46z M401,280.92c-1.07,0-2.03-0.2-2.89-0.6
			c-0.86-0.4-1.54-1.01-2.04-1.82c-0.5-0.81-0.75-1.84-0.75-3.07v-18.88h3.69v18.76c0,1.77,0.83,2.65,2.48,2.65
			c0.51,0,1-0.06,1.48-0.17s1.03-0.28,1.64-0.5l0.53,2.63c-0.69,0.29-1.37,0.52-2.04,0.71C402.42,280.82,401.73,280.92,401,280.92z"
			/>
		<path class="st2" d="M409.95,289.62v-27.96h3.06l0.64,4.5v23.46H409.95z M418.84,280.92c-1.36,0-2.55-0.31-3.55-0.93
			s-1.76-1.53-2.29-2.73c-0.53-1.2-0.79-2.69-0.79-4.47h1.44c0,1.03,0.22,1.89,0.66,2.6s1.02,1.25,1.75,1.62
			c0.72,0.37,1.49,0.56,2.31,0.56c0.86,0,1.69-0.24,2.51-0.73c0.81-0.49,1.48-1.22,2-2.19s0.78-2.18,0.78-3.63
			c0-1.38-0.23-2.55-0.69-3.53c-0.46-0.97-1.09-1.72-1.88-2.24c-0.79-0.52-1.68-0.78-2.67-0.78c-0.83,0-1.61,0.2-2.34,0.59
			c-0.73,0.4-1.31,0.98-1.75,1.74c-0.44,0.76-0.66,1.69-0.66,2.78h-1.44c0-1.88,0.3-3.45,0.91-4.7s1.42-2.18,2.45-2.8
			s2.16-0.93,3.41-0.93c1.47,0,2.85,0.39,4.13,1.18c1.29,0.79,2.33,1.92,3.13,3.38s1.2,3.24,1.2,5.3s-0.4,3.84-1.21,5.32
			s-1.86,2.62-3.17,3.4C421.76,280.53,420.35,280.92,418.84,280.92z"/>
		<path class="st2" d="M438.65,280.92c-1.57,0-2.88-0.28-3.92-0.83s-1.82-1.28-2.33-2.17c-0.51-0.9-0.77-1.85-0.77-2.87
			c0-1.23,0.31-2.25,0.95-3.05c0.63-0.8,1.5-1.39,2.62-1.79c1.12-0.39,2.4-0.58,3.86-0.58c1,0,1.98,0.09,2.93,0.27
			c0.95,0.18,1.88,0.42,2.81,0.72v2.24c-0.75-0.27-1.59-0.49-2.51-0.65s-1.77-0.24-2.56-0.24c-1.18,0-2.17,0.23-2.96,0.7
			c-0.79,0.47-1.19,1.26-1.19,2.38c0,0.82,0.31,1.52,0.94,2.12c0.62,0.59,1.61,0.89,2.96,0.89c0.99,0,1.86-0.22,2.61-0.67
			c0.75-0.45,1.34-1.01,1.76-1.69c0.42-0.68,0.62-1.35,0.62-2.03h0.9c0,1.3-0.26,2.5-0.79,3.6c-0.53,1.1-1.29,1.98-2.29,2.65
			C441.28,280.58,440.07,280.92,438.65,280.92z M444.93,280.41l-0.47-4.31v-7.82c0-1.53-0.32-2.65-0.96-3.34
			c-0.64-0.7-1.65-1.04-3.02-1.04c-0.78,0-1.47,0.12-2.08,0.34c-0.6,0.23-1.08,0.57-1.42,1.02c-0.34,0.46-0.52,1.03-0.52,1.72h-4.1
			c0-1.38,0.34-2.5,1.01-3.35c0.68-0.86,1.62-1.49,2.84-1.88c1.22-0.4,2.64-0.59,4.26-0.59c1.52,0,2.86,0.25,4.02,0.75
			s2.06,1.28,2.7,2.35c0.64,1.07,0.97,2.44,0.97,4.13v12.03H444.93z"/>
		<path class="st2" d="M452.69,264.17v-2.52h12.11v2.52H452.69z M461.23,280.92c-1.07,0-2.03-0.2-2.89-0.6
			c-0.86-0.4-1.54-1.01-2.04-1.82c-0.5-0.81-0.75-1.84-0.75-3.07v-18.88h3.69v18.76c0,1.77,0.83,2.65,2.48,2.65
			c0.51,0,1-0.06,1.48-0.17s1.03-0.28,1.64-0.5l0.53,2.63c-0.69,0.29-1.37,0.52-2.04,0.71
			C462.66,280.82,461.96,280.92,461.23,280.92z"/>
		<path class="st2" d="M467.45,278.23c0-0.73,0.25-1.34,0.75-1.85c0.5-0.51,1.13-0.76,1.9-0.76c0.77,0,1.42,0.25,1.95,0.76
			c0.53,0.51,0.8,1.13,0.8,1.85c0,0.72-0.27,1.32-0.8,1.8c-0.53,0.49-1.18,0.73-1.95,0.73c-0.77,0-1.4-0.25-1.9-0.74
			S467.45,278.93,467.45,278.23z"/>
		<path class="st2" d="M486.8,255.57h3.71v15.7c0,2.21,0.56,3.8,1.67,4.78c1.11,0.98,2.56,1.46,4.34,1.46
			c1.78,0,3.22-0.49,4.33-1.46c1.1-0.97,1.66-2.57,1.66-4.78v-15.7h3.7v15.7c0,2.08-0.39,3.84-1.17,5.28
			c-0.78,1.44-1.89,2.53-3.34,3.27c-1.45,0.74-3.18,1.11-5.18,1.11c-1.99,0-3.71-0.37-5.17-1.11c-1.46-0.74-2.58-1.83-3.36-3.27
			s-1.18-3.2-1.18-5.28V255.57z"/>
		<path class="st2" d="M510.84,264.17v-2.52h12.11v2.52H510.84z M519.38,280.92c-1.07,0-2.03-0.2-2.89-0.6
			c-0.86-0.4-1.54-1.01-2.04-1.82c-0.5-0.81-0.75-1.84-0.75-3.07v-18.88h3.69v18.76c0,1.77,0.83,2.65,2.48,2.65
			c0.51,0,1-0.06,1.48-0.17s1.03-0.28,1.64-0.5l0.53,2.63c-0.69,0.29-1.37,0.52-2.04,0.71
			C520.81,280.82,520.11,280.92,519.38,280.92z"/>
		<path class="st2" d="M534.65,261.65h3.86l4.47,15.05h-0.41l4.31-14.1h3.22l4.29,14.14h-0.39l4.47-15.09h3.71L556,280.41h-3.63
			l-4.25-13.26h0.57l-4.19,13.26h-3.63L534.65,261.65z"/>
		<path class="st2" d="M568.79,257.66c-0.74,0-1.32-0.21-1.75-0.61c-0.42-0.41-0.63-0.96-0.63-1.67c0-0.68,0.21-1.21,0.63-1.61
			c0.42-0.4,1-0.59,1.75-0.59c0.73,0,1.3,0.2,1.73,0.59c0.42,0.4,0.63,0.93,0.63,1.61c0,0.7-0.21,1.26-0.63,1.67
			C570.1,257.45,569.52,257.66,568.79,257.66z M566.94,280.41v-18.82h3.7v18.82H566.94z"/>
		<path class="st2" d="M585.64,280.92c-1.82,0-3.35-0.26-4.6-0.77s-2.2-1.23-2.86-2.14c-0.66-0.92-1-1.99-1.02-3.23h3.49
			c0.05,1.08,0.48,1.88,1.3,2.4s1.91,0.78,3.31,0.78c0.74,0,1.41-0.12,2.02-0.35s1.08-0.55,1.44-0.96c0.36-0.4,0.54-0.86,0.54-1.37
			c0-0.64-0.23-1.14-0.7-1.51c-0.47-0.37-1.22-0.7-2.26-0.98l-3.84-1.31c-1.53-0.52-2.71-1.21-3.53-2.08
			c-0.82-0.87-1.23-1.9-1.23-3.11c0-1.55,0.69-2.79,2.07-3.73s3.2-1.41,5.48-1.41c2.35,0,4.17,0.5,5.45,1.49
			c1.28,1,1.95,2.24,2,3.73h-3.57c-0.09-0.74-0.46-1.31-1.1-1.71s-1.57-0.6-2.78-0.6c-1.13,0-2.02,0.25-2.66,0.74
			c-0.64,0.49-0.97,1.05-0.97,1.68c0,1.12,0.96,1.95,2.89,2.5l4.04,1.42c1.53,0.49,2.72,1.13,3.55,1.91
			c0.83,0.78,1.25,1.77,1.25,2.96c0,0.96-0.32,1.87-0.96,2.73c-0.64,0.86-1.53,1.56-2.68,2.1
			C588.54,280.65,587.19,280.92,585.64,280.92z"/>
		<path class="st2" d="M601.45,257.66c-0.74,0-1.32-0.21-1.75-0.61c-0.42-0.41-0.63-0.96-0.63-1.67c0-0.68,0.21-1.21,0.63-1.61
			c0.42-0.4,1-0.59,1.75-0.59c0.73,0,1.3,0.2,1.73,0.59c0.42,0.4,0.63,0.93,0.63,1.61c0,0.7-0.21,1.26-0.63,1.67
			C602.76,257.45,602.18,257.66,601.45,257.66z M599.6,280.41v-18.82h3.7v18.82H599.6z"/>
		<path class="st2" d="M627.68,280.92c-1.61,0-3.07-0.42-4.37-1.25c-1.3-0.83-2.33-1.99-3.09-3.47c-0.76-1.48-1.14-3.2-1.14-5.15
			c0-2.07,0.38-3.84,1.13-5.31c0.75-1.48,1.78-2.61,3.08-3.4c1.3-0.79,2.76-1.19,4.39-1.19c1.46,0,2.7,0.3,3.74,0.89
			s1.88,1.38,2.52,2.38c0.64,0.99,1.08,2.12,1.32,3.38c0.24,1.26,0.28,2.56,0.13,3.9h-13.34v-2.14h10.8l-0.9,0.58
			c0.04-0.7,0-1.4-0.11-2.11c-0.11-0.7-0.32-1.35-0.63-1.94c-0.31-0.59-0.75-1.07-1.32-1.42s-1.28-0.54-2.15-0.54
			c-1.09,0-2.01,0.27-2.74,0.82s-1.29,1.28-1.67,2.19c-0.38,0.92-0.57,1.92-0.57,3.01v1.5c0,1.21,0.18,2.28,0.55,3.22
			c0.36,0.94,0.91,1.67,1.63,2.21c0.72,0.54,1.63,0.81,2.74,0.81c1.08,0,1.97-0.25,2.68-0.76c0.71-0.51,1.15-1.27,1.32-2.28h3.78
			c-0.19,1.22-0.64,2.29-1.35,3.2c-0.7,0.91-1.6,1.62-2.7,2.12S629.07,280.92,627.68,280.92z"/>
		<path class="st2" d="M641.25,280.41v-18.76h3.22l0.49,4.06v14.7H641.25z M654.4,280.41v-11c0-1.63-0.39-2.86-1.16-3.7
			c-0.77-0.84-1.82-1.26-3.13-1.26c-1.04,0-1.95,0.28-2.72,0.85c-0.77,0.57-1.37,1.39-1.79,2.48c-0.42,1.09-0.63,2.41-0.63,3.97
			h-1.33c0-2.3,0.3-4.24,0.89-5.81c0.59-1.57,1.44-2.77,2.54-3.58c1.1-0.81,2.43-1.22,3.98-1.22c1.51,0,2.79,0.34,3.83,1.01
			c1.05,0.68,1.84,1.63,2.39,2.88c0.55,1.24,0.82,2.7,0.82,4.38v11H654.4z"/>
		<path class="st2" d="M665.12,280.41v-26.66h3.7v22.15l-1.19,4.5H665.12z M674.15,280.92c-1.22,0-2.33-0.33-3.32-0.98
			s-1.79-1.63-2.38-2.92c-0.59-1.29-0.89-2.87-0.89-4.74h1.27c0,1.09,0.24,2.03,0.71,2.83s1.08,1.4,1.82,1.82
			c0.74,0.42,1.51,0.63,2.32,0.63c0.96,0,1.83-0.27,2.6-0.8s1.39-1.3,1.85-2.29c0.46-0.99,0.69-2.17,0.69-3.52
			c0-1.34-0.23-2.49-0.68-3.46c-0.46-0.97-1.07-1.71-1.85-2.24c-0.78-0.53-1.66-0.79-2.65-0.79c-0.83,0-1.62,0.2-2.35,0.6
			c-0.73,0.4-1.33,1-1.78,1.79s-0.68,1.75-0.68,2.88h-1.27c0-1.83,0.29-3.39,0.86-4.66c0.57-1.27,1.37-2.25,2.39-2.91
			c1.02-0.67,2.22-1,3.6-1c1.49,0,2.86,0.4,4.1,1.2c1.24,0.8,2.24,1.93,2.98,3.4c0.75,1.47,1.12,3.2,1.12,5.21
			c0,2.01-0.38,3.77-1.15,5.25c-0.77,1.49-1.79,2.65-3.07,3.47C677.11,280.51,675.7,280.92,674.15,280.92z"/>
		<path class="st2" d="M695.64,280.92c-1.7,0-3.23-0.37-4.57-1.11c-1.35-0.74-2.41-1.85-3.19-3.31c-0.78-1.47-1.17-3.28-1.17-5.44
			c0-2.2,0.39-4.03,1.17-5.49c0.78-1.46,1.84-2.56,3.19-3.3c1.35-0.74,2.87-1.11,4.57-1.11c1.68,0,3.19,0.37,4.52,1.11
			c1.34,0.74,2.4,1.84,3.17,3.3s1.16,3.29,1.16,5.49c0,2.16-0.39,3.97-1.16,5.44s-1.83,2.57-3.17,3.31
			C698.82,280.55,697.31,280.92,695.64,280.92z M695.52,277.68c1.08,0,2.01-0.26,2.8-0.78c0.79-0.52,1.39-1.28,1.81-2.27
			c0.42-1,0.63-2.19,0.63-3.58c0-2.13-0.43-3.78-1.3-4.95c-0.86-1.17-2.11-1.75-3.73-1.75c-1.09,0-2.03,0.26-2.82,0.79
			c-0.79,0.53-1.39,1.29-1.81,2.28c-0.42,0.99-0.63,2.21-0.63,3.64c0,2.09,0.44,3.72,1.31,4.88
			C692.65,277.1,693.9,277.68,695.52,277.68z"/>
		<path class="st2" d="M710.22,280.41v-18.82h3.7v18.82H710.22z M712.91,272.03c0-2.41,0.25-4.4,0.75-6s1.2-2.78,2.11-3.56
			s1.97-1.17,3.19-1.17c0.36,0,0.71,0.03,1.02,0.08c0.32,0.05,0.63,0.13,0.95,0.21l-0.14,3.69c-0.35-0.09-0.73-0.17-1.14-0.24
			c-0.41-0.07-0.78-0.11-1.12-0.11c-1.07,0-1.94,0.28-2.61,0.85c-0.68,0.56-1.18,1.38-1.5,2.44c-0.33,1.06-0.49,2.33-0.49,3.81
			H712.91z"/>
		<path class="st2" d="M722.31,264.17v-2.52h12.11v2.52H722.31z M730.85,280.92c-1.07,0-2.03-0.2-2.89-0.6
			c-0.86-0.4-1.54-1.01-2.04-1.82c-0.5-0.81-0.75-1.84-0.75-3.07v-18.88h3.69v18.76c0,1.77,0.83,2.65,2.48,2.65
			c0.51,0,1-0.06,1.48-0.17s1.03-0.28,1.64-0.5l0.53,2.63c-0.69,0.29-1.37,0.52-2.04,0.71
			C732.28,280.82,731.58,280.92,730.85,280.92z"/>
		<path class="st2" d="M741.95,257.66c-0.74,0-1.32-0.21-1.75-0.61c-0.42-0.41-0.63-0.96-0.63-1.67c0-0.68,0.21-1.21,0.63-1.61
			c0.42-0.4,1-0.59,1.75-0.59c0.73,0,1.3,0.2,1.73,0.59c0.42,0.4,0.63,0.93,0.63,1.61c0,0.7-0.21,1.26-0.63,1.67
			C743.25,257.45,742.68,257.66,741.95,257.66z M740.1,280.41v-18.82h3.7v18.82H740.1z"/>
		<path class="st2" d="M758.8,280.92c-1.82,0-3.35-0.26-4.6-0.77s-2.2-1.23-2.86-2.14c-0.66-0.92-1-1.99-1.02-3.23h3.49
			c0.05,1.08,0.48,1.88,1.3,2.4s1.91,0.78,3.31,0.78c0.74,0,1.41-0.12,2.02-0.35s1.08-0.55,1.44-0.96c0.36-0.4,0.54-0.86,0.54-1.37
			c0-0.64-0.23-1.14-0.7-1.51c-0.47-0.37-1.22-0.7-2.26-0.98l-3.84-1.31c-1.53-0.52-2.71-1.21-3.53-2.08
			c-0.82-0.87-1.23-1.9-1.23-3.11c0-1.55,0.69-2.79,2.07-3.73s3.2-1.41,5.48-1.41c2.35,0,4.17,0.5,5.45,1.49
			c1.28,1,1.95,2.24,2,3.73h-3.57c-0.09-0.74-0.46-1.31-1.1-1.71s-1.57-0.6-2.78-0.6c-1.13,0-2.02,0.25-2.66,0.74
			c-0.64,0.49-0.97,1.05-0.97,1.68c0,1.12,0.96,1.95,2.89,2.5l4.04,1.42c1.53,0.49,2.72,1.13,3.55,1.91
			c0.83,0.78,1.25,1.77,1.25,2.96c0,0.96-0.32,1.87-0.96,2.73c-0.64,0.86-1.53,1.56-2.68,2.1
			C761.69,280.65,760.34,280.92,758.8,280.92z"/>
		<path class="st2" d="M781.98,280.41v-18.76h3.22l0.49,4.06v14.7H781.98z M795.12,280.41v-11c0-1.63-0.39-2.86-1.16-3.7
			c-0.77-0.84-1.82-1.26-3.13-1.26c-1.04,0-1.95,0.28-2.72,0.85c-0.77,0.57-1.37,1.39-1.79,2.48c-0.42,1.09-0.63,2.41-0.63,3.97
			h-1.33c0-2.3,0.3-4.24,0.89-5.81c0.59-1.57,1.44-2.77,2.54-3.58c1.1-0.81,2.43-1.22,3.98-1.22c1.51,0,2.79,0.34,3.83,1.01
			c1.05,0.68,1.84,1.63,2.39,2.88c0.55,1.24,0.82,2.7,0.82,4.38v11H795.12z"/>
		<path class="st2" d="M807.99,257.66c-0.74,0-1.32-0.21-1.75-0.61c-0.42-0.41-0.63-0.96-0.63-1.67c0-0.68,0.21-1.21,0.63-1.61
			c0.42-0.4,1-0.59,1.75-0.59c0.73,0,1.3,0.2,1.73,0.59c0.42,0.4,0.63,0.93,0.63,1.61c0,0.7-0.21,1.26-0.63,1.67
			C809.3,257.45,808.72,257.66,807.99,257.66z M806.14,280.41v-18.82h3.7v18.82H806.14z"/>
		<path class="st2" d="M824.84,280.92c-1.82,0-3.35-0.26-4.6-0.77s-2.2-1.23-2.86-2.14c-0.66-0.92-1-1.99-1.02-3.23h3.49
			c0.05,1.08,0.48,1.88,1.3,2.4s1.91,0.78,3.31,0.78c0.74,0,1.41-0.12,2.02-0.35s1.08-0.55,1.44-0.96c0.36-0.4,0.54-0.86,0.54-1.37
			c0-0.64-0.23-1.14-0.7-1.51c-0.47-0.37-1.22-0.7-2.26-0.98l-3.84-1.31c-1.53-0.52-2.71-1.21-3.53-2.08
			c-0.82-0.87-1.23-1.9-1.23-3.11c0-1.55,0.69-2.79,2.07-3.73s3.2-1.41,5.48-1.41c2.35,0,4.17,0.5,5.45,1.49
			c1.28,1,1.95,2.24,2,3.73h-3.57c-0.09-0.74-0.46-1.31-1.1-1.71s-1.57-0.6-2.78-0.6c-1.13,0-2.02,0.25-2.66,0.74
			c-0.64,0.49-0.97,1.05-0.97,1.68c0,1.12,0.96,1.95,2.89,2.5l4.04,1.42c1.53,0.49,2.72,1.13,3.55,1.91
			c0.83,0.78,1.25,1.77,1.25,2.96c0,0.96-0.32,1.87-0.96,2.73c-0.64,0.86-1.53,1.56-2.68,2.1
			C827.74,280.65,826.39,280.92,824.84,280.92z"/>
		<path class="st2" d="M838.51,280.41v-26.66h3.7v26.66H838.51z"/>
	</g>
</g>
</svg>
