<svg id="Capa_1" data-name="Capa 1" xmlns="http://www.w3.org/2000/svg" viewBox="0 0 48 60"><defs><style>.cls-1{fill:#fff;}</style></defs><path class="cls-1" d="M4.31,22.89l1.19-.95V41.5A.5.5,0,0,0,6,42H42a.5.5,0,0,0,.5-.5V21.94l1.19.95A.51.51,0,0,0,44,23a.48.48,0,0,0,.39-.19.49.49,0,0,0-.08-.7l-20-16a.5.5,0,0,0-.63,0l-20,16a.5.5,0,0,0-.08.7A.51.51,0,0,0,4.31,22.89ZM27.5,41h-7V34h7ZM6.5,21.14,24,7.14l17.5,14V41h-13V33.5A.5.5,0,0,0,28,33H20a.5.5,0,0,0-.5.5V41H6.5Z"/><path class="cls-1" d="M20.06,26.06a3.38,3.38,0,0,0,.44.18V27a.5.5,0,0,0,.5.5h2a.5.5,0,0,0,.5-.5v-.76a4.07,4.07,0,0,0,.44-.18l.54.54a.5.5,0,0,0,.71,0l1.41-1.41a.51.51,0,0,0,.15-.35.47.47,0,0,0-.15-.35L26.06,24a3.38,3.38,0,0,0,.18-.44H27a.5.5,0,0,0,.5-.5V21a.5.5,0,0,0-.5-.5h-.76a4.07,4.07,0,0,0-.18-.44l.54-.54a.5.5,0,0,0,0-.71l-1.41-1.41a.5.5,0,0,0-.71,0l-.54.54a3.38,3.38,0,0,0-.44-.18V17a.5.5,0,0,0-.5-.5H21a.5.5,0,0,0-.5.5v.76a4.07,4.07,0,0,0-.44.18l-.54-.54a.5.5,0,0,0-.71,0L17.4,18.81a.5.5,0,0,0,0,.71l.54.54a3.38,3.38,0,0,0-.18.44H17a.5.5,0,0,0-.5.5v2a.5.5,0,0,0,.5.5h.76a4.07,4.07,0,0,0,.18.44l-.54.54a.51.51,0,0,0-.15.35.47.47,0,0,0,.15.35l1.41,1.41a.5.5,0,0,0,.71,0Zm-1.6-1.23.45-.45a.51.51,0,0,0,.08-.61,3.22,3.22,0,0,1-.37-.9.51.51,0,0,0-.48-.38H17.5v-1h.63a.48.48,0,0,0,.48-.38,3.56,3.56,0,0,1,.37-.9.5.5,0,0,0-.08-.61l-.45-.45.71-.71.45.45a.51.51,0,0,0,.61.08,3.22,3.22,0,0,1,.9-.37.51.51,0,0,0,.38-.48V17.5h1v.63a.48.48,0,0,0,.38.48,3.56,3.56,0,0,1,.9.37.5.5,0,0,0,.61-.08l.45-.45.71.71-.45.45a.51.51,0,0,0-.08.61,3.22,3.22,0,0,1,.37.9.51.51,0,0,0,.48.38h.63v1h-.63a.48.48,0,0,0-.48.38,3.56,3.56,0,0,1-.37.9.5.5,0,0,0,.08.61l.45.45-.71.71-.45-.45a.51.51,0,0,0-.61-.08,3.56,3.56,0,0,1-.9.37.51.51,0,0,0-.38.48v.63h-1v-.63a.48.48,0,0,0-.38-.48,3.56,3.56,0,0,1-.9-.37.49.49,0,0,0-.61.08l-.45.45Z"/><path class="cls-1" d="M22,24.5A2.5,2.5,0,1,0,19.5,22,2.5,2.5,0,0,0,22,24.5Zm0-4A1.5,1.5,0,1,1,20.5,22,1.5,1.5,0,0,1,22,20.5Z"/><path class="cls-1" d="M26.9,25l.54.54a3.38,3.38,0,0,0-.18.44H26.5a.5.5,0,0,0-.5.5v2a.5.5,0,0,0,.5.5h.76a4.07,4.07,0,0,0,.18.44L26.9,30a.51.51,0,0,0-.15.35.47.47,0,0,0,.15.35l1.41,1.41a.5.5,0,0,0,.71,0l.54-.54a3.38,3.38,0,0,0,.44.18v.76a.5.5,0,0,0,.5.5h2a.5.5,0,0,0,.5-.5v-.76a4.07,4.07,0,0,0,.44-.18l.54.54a.5.5,0,0,0,.71,0l1.41-1.41a.51.51,0,0,0,.15-.35A.47.47,0,0,0,36.1,30l-.54-.54a3.38,3.38,0,0,0,.18-.44h.76a.5.5,0,0,0,.5-.5v-2a.5.5,0,0,0-.5-.5h-.76a4.07,4.07,0,0,0-.18-.44L36.1,25a.5.5,0,0,0,0-.71L34.69,22.9a.5.5,0,0,0-.71,0l-.54.54a3.38,3.38,0,0,0-.44-.18V22.5a.5.5,0,0,0-.5-.5h-2a.5.5,0,0,0-.5.5v.76a4.07,4.07,0,0,0-.44.18L29,22.9a.5.5,0,0,0-.71,0L26.9,24.31A.51.51,0,0,0,26.9,25Zm1.21,1.6a3.56,3.56,0,0,1,.37-.9.5.5,0,0,0-.08-.61L28,24.66l.71-.71.45.45a.51.51,0,0,0,.61.08,3.22,3.22,0,0,1,.9-.37.51.51,0,0,0,.38-.48V23h1v.63a.48.48,0,0,0,.38.48,3.56,3.56,0,0,1,.9.37.5.5,0,0,0,.61-.08l.45-.45.71.71-.45.45a.51.51,0,0,0-.08.61,3.22,3.22,0,0,1,.37.9.51.51,0,0,0,.48.38H36v1h-.63a.48.48,0,0,0-.48.38,3.56,3.56,0,0,1-.37.9.5.5,0,0,0,.08.61l.45.45-.71.71-.45-.45a.51.51,0,0,0-.61-.08,3.22,3.22,0,0,1-.9.37.48.48,0,0,0-.38.48V32H31v-.63a.48.48,0,0,0-.38-.48,3.56,3.56,0,0,1-.9-.37.5.5,0,0,0-.61.08l-.45.45L28,30.34l.45-.45a.51.51,0,0,0,.08-.61,3.22,3.22,0,0,1-.37-.9.48.48,0,0,0-.48-.38H27V27h.63A.48.48,0,0,0,28.11,26.62Z"/><path class="cls-1" d="M31.5,30A2.5,2.5,0,1,0,29,27.5,2.5,2.5,0,0,0,31.5,30Zm0-4A1.5,1.5,0,1,1,30,27.5,1.5,1.5,0,0,1,31.5,26Z"/><path class="cls-1" d="M17,27H8a.5.5,0,0,0-.5.5v6A.5.5,0,0,0,8,34h9a.5.5,0,0,0,.5-.5v-6A.5.5,0,0,0,17,27Zm-.5,6h-8V28h8Z"/></svg>