<svg id="Capa_1" data-name="Capa 1" xmlns="http://www.w3.org/2000/svg" viewBox="0 0 100 125"><defs><style>.cls-1{fill:#fff;}</style></defs><path class="cls-1" d="M96.8,53.6a6.29,6.29,0,0,0-1.5-3.9L78.7,31a2.11,2.11,0,0,0-1.5-.7H60.1a6,6,0,0,0-6,6V50.2H9a6,6,0,0,0-6,6V69.6a6,6,0,0,0,6,6h2.3a10.4,10.4,0,0,0,20.6,0H69a10.5,10.5,0,0,0,20.7,0H91a6,6,0,0,0,6-6ZM21.6,80.5A6.5,6.5,0,1,1,28.1,74a6.5,6.5,0,0,1-6.5,6.5Zm57.8,0a6.5,6.5,0,1,1,6.4-6.6V74A6.5,6.5,0,0,1,79.4,80.5Zm13-9.5a2,2,0,0,1-1.4.6H89.6a10.6,10.6,0,0,0-10.2-8.1,10.4,10.4,0,0,0-10.2,8.1H31.8a10.5,10.5,0,0,0-20.4,0H9a2,2,0,0,1-2-2V56.2a2,2,0,0,1,2-2H56.1a1.9,1.9,0,0,0,2-1.79V36.3a2,2,0,0,1,2-2H76.3l16,18.1a2.06,2.06,0,0,1,.5,1.3L93,69.6A1.7,1.7,0,0,1,92.4,71Z"/><path class="cls-1" d="M74.5,39.3a2.37,2.37,0,0,0-1.6-.7H64.5a2,2,0,0,0-2,2V52.2a2,2,0,0,0,2,2H82.7A2.19,2.19,0,0,0,84.6,53a2,2,0,0,0-.3-2.1Zm-8,10.9V42.6H72l6.4,7.6Z"/><path class="cls-1" d="M45.1,46.3a2,2,0,0,0,2-2V17.5a2,2,0,0,0-2-2H14a2,2,0,0,0-2,2V44.3a2,2,0,0,0,2,2ZM26.6,19.5h5.9v4.6H26.6ZM16,19.5h6.6v6.6a2,2,0,0,0,2,2h9.9a2,2,0,0,0,2-2V19.5h6.6V42.3H16Z"/></svg>