<?xml version="1.0" encoding="utf-8"?>
<!-- Generator: Adobe Illustrator 24.0.2, SVG Export Plug-In . SVG Version: 6.00 Build 0)  -->
<svg version="1.1" id="Capa_1" xmlns="http://www.w3.org/2000/svg" xmlns:xlink="http://www.w3.org/1999/xlink" x="0px" y="0px"
	 viewBox="0 0 874 1043" style="enable-background:new 0 0 874 1043;" xml:space="preserve">
<style type="text/css">
	.st0{fill:#252525;}
	.st1{fill:#49ADA4;}
	.st2{fill:#B3E6E0;}
	.st3{fill:#FFFFFF;}
</style>
<rect x="21" y="960" class="st0" width="825" height="72"/>
<circle class="st1" cx="61.18" cy="43.88" r="8.09"/>
<path class="st1" d="M74.06,63.82v13.7c-0.01,3.79-2.13,7.26-5.51,9v15.22c0.14,4.07-3.05,7.49-7.12,7.63s-7.49-3.05-7.63-7.12
	c-0.01-0.17-0.01-0.34,0-0.5V86.53c-3.38-1.74-5.5-5.21-5.52-9.01v-13.7c0.02-5.58,4.55-10.09,10.12-10.11h5.52
	C69.52,53.73,74.04,58.24,74.06,63.82z"/>
<circle class="st1" cx="142.4" cy="43.88" r="8.09"/>
<path class="st1" d="M155.29,63.82v13.7c-0.01,3.79-2.13,7.26-5.51,9v15.22c0.14,4.07-3.05,7.49-7.12,7.63
	c-4.07,0.14-7.49-3.05-7.63-7.12c-0.01-0.17-0.01-0.34,0-0.5V86.53c-3.38-1.74-5.5-5.21-5.52-9.01v-13.7
	c0.02-5.58,4.55-10.09,10.12-10.11h5.52C150.74,53.73,155.27,58.24,155.29,63.82z"/>
<circle class="st1" cx="223.63" cy="43.88" r="8.09"/>
<path class="st1" d="M236.51,63.82v13.7c-0.01,3.79-2.13,7.26-5.51,9v15.22c0.14,4.07-3.05,7.49-7.12,7.63
	c-4.07,0.14-7.49-3.05-7.63-7.12c-0.01-0.17-0.01-0.34,0-0.5V86.53c-3.38-1.74-5.5-5.21-5.52-9.01v-13.7
	c0.02-5.58,4.55-10.09,10.12-10.11h5.52C231.97,53.73,236.49,58.24,236.51,63.82z"/>
<circle class="st1" cx="304.85" cy="43.88" r="8.09"/>
<path class="st1" d="M317.74,63.82v13.7c-0.01,3.79-2.13,7.26-5.51,9v15.22c0.14,4.07-3.05,7.49-7.12,7.63s-7.49-3.05-7.63-7.12
	c-0.01-0.17-0.01-0.34,0-0.5V86.53c-3.38-1.74-5.5-5.21-5.52-9.01v-13.7c0.02-5.58,4.55-10.09,10.12-10.11h5.52
	C313.2,53.73,317.72,58.24,317.74,63.82z"/>
<circle class="st1" cx="386.08" cy="43.88" r="8.09"/>
<path class="st1" d="M398.97,63.82v13.7c-0.01,3.79-2.13,7.26-5.51,9v15.22c0.14,4.07-3.05,7.49-7.12,7.63
	c-4.07,0.14-7.49-3.05-7.63-7.12c-0.01-0.17-0.01-0.34,0-0.5V86.53c-3.38-1.74-5.5-5.21-5.52-9.01v-13.7
	c0.02-5.58,4.55-10.09,10.12-10.11h5.52C394.42,53.73,398.94,58.24,398.97,63.82z"/>
<circle class="st1" cx="467.31" cy="43.88" r="8.09"/>
<path class="st1" d="M480.19,63.82v13.7c-0.01,3.79-2.13,7.26-5.51,9v15.22c0.14,4.07-3.05,7.49-7.12,7.63
	c-4.07,0.14-7.49-3.05-7.63-7.12c-0.01-0.17-0.01-0.34,0-0.5V86.53c-3.38-1.74-5.5-5.21-5.52-9.01v-13.7
	c0.02-5.58,4.55-10.09,10.12-10.11h5.52C475.65,53.73,480.17,58.24,480.19,63.82z"/>
<circle class="st1" cx="548.53" cy="43.88" r="8.09"/>
<path class="st1" d="M561.42,63.82v13.7c-0.01,3.79-2.13,7.26-5.51,9v15.22c0.14,4.07-3.05,7.49-7.12,7.63s-7.49-3.05-7.63-7.12
	c-0.01-0.17-0.01-0.34,0-0.5V86.53c-3.38-1.74-5.5-5.21-5.52-9.01v-13.7c0.02-5.58,4.55-10.09,10.12-10.11h5.52
	C556.87,53.73,561.39,58.24,561.42,63.82z"/>
<circle class="st1" cx="629.76" cy="43.88" r="8.09"/>
<path class="st1" d="M642.64,63.82v13.7c-0.01,3.79-2.13,7.26-5.51,9v15.22c0.14,4.07-3.05,7.49-7.12,7.63s-7.49-3.05-7.63-7.12
	c-0.01-0.17-0.01-0.34,0-0.5V86.53c-3.38-1.74-5.5-5.21-5.52-9.01v-13.7c0.02-5.58,4.55-10.09,10.12-10.11h5.52
	C638.1,53.73,642.62,58.24,642.64,63.82z"/>
<circle class="st1" cx="710.98" cy="43.88" r="8.09"/>
<path class="st1" d="M723.87,63.82v13.7c-0.01,3.79-2.13,7.26-5.51,9v15.22c0.14,4.07-3.05,7.49-7.12,7.63s-7.49-3.05-7.63-7.12
	c-0.01-0.17-0.01-0.34,0-0.5V86.53c-3.38-1.74-5.5-5.21-5.52-9.01v-13.7c0.02-5.58,4.55-10.09,10.12-10.11h5.52
	C719.32,53.73,723.85,58.24,723.87,63.82z"/>
<circle class="st1" cx="792.21" cy="43.88" r="8.09"/>
<path class="st1" d="M805.1,63.82v13.7c-0.01,3.79-2.13,7.26-5.51,9v15.22c0.14,4.07-3.05,7.49-7.12,7.63s-7.49-3.05-7.63-7.12
	c-0.01-0.17-0.01-0.34,0-0.5V86.53c-3.38-1.74-5.5-5.21-5.52-9.01v-13.7c0.02-5.58,4.55-10.09,10.12-10.11h5.52
	C800.55,53.73,805.07,58.24,805.1,63.82z"/>
<circle class="st1" cx="61.18" cy="137.38" r="8.09"/>
<path class="st1" d="M74.06,157.32v13.7c-0.01,3.79-2.13,7.26-5.51,9v15.22c0.14,4.07-3.05,7.49-7.12,7.63
	c-4.07,0.14-7.49-3.05-7.63-7.12c-0.01-0.17-0.01-0.34,0-0.5v-15.21c-3.38-1.74-5.5-5.21-5.52-9.01v-13.7
	c0.02-5.58,4.55-10.09,10.12-10.11h5.52C69.52,147.23,74.04,151.74,74.06,157.32z"/>
<circle class="st1" cx="142.4" cy="137.38" r="8.09"/>
<path class="st1" d="M155.29,157.32v13.7c-0.01,3.79-2.13,7.26-5.51,9v15.22c0.14,4.07-3.05,7.49-7.12,7.63
	c-4.07,0.14-7.49-3.05-7.63-7.12c-0.01-0.17-0.01-0.34,0-0.5v-15.21c-3.38-1.74-5.5-5.21-5.52-9.01v-13.7
	c0.02-5.58,4.55-10.09,10.12-10.11h5.52C150.74,147.23,155.27,151.74,155.29,157.32z"/>
<circle class="st1" cx="223.63" cy="137.38" r="8.09"/>
<path class="st1" d="M236.51,157.32v13.7c-0.01,3.79-2.13,7.26-5.51,9v15.22c0.14,4.07-3.05,7.49-7.12,7.63
	c-4.07,0.14-7.49-3.05-7.63-7.12c-0.01-0.17-0.01-0.34,0-0.5v-15.21c-3.38-1.74-5.5-5.21-5.52-9.01v-13.7
	c0.02-5.58,4.55-10.09,10.12-10.11h5.52C231.97,147.23,236.49,151.74,236.51,157.32z"/>
<circle class="st1" cx="304.85" cy="137.38" r="8.09"/>
<path class="st1" d="M317.74,157.32v13.7c-0.01,3.79-2.13,7.26-5.51,9v15.22c0.14,4.07-3.05,7.49-7.12,7.63
	c-4.07,0.14-7.49-3.05-7.63-7.12c-0.01-0.17-0.01-0.34,0-0.5v-15.21c-3.38-1.74-5.5-5.21-5.52-9.01v-13.7
	c0.02-5.58,4.55-10.09,10.12-10.11h5.52C313.2,147.23,317.72,151.74,317.74,157.32z"/>
<circle class="st1" cx="386.08" cy="137.38" r="8.09"/>
<path class="st1" d="M398.97,157.32v13.7c-0.01,3.79-2.13,7.26-5.51,9v15.22c0.14,4.07-3.05,7.49-7.12,7.63
	c-4.07,0.14-7.49-3.05-7.63-7.12c-0.01-0.17-0.01-0.34,0-0.5v-15.21c-3.38-1.74-5.5-5.21-5.52-9.01v-13.7
	c0.02-5.58,4.55-10.09,10.12-10.11h5.52C394.42,147.23,398.94,151.74,398.97,157.32z"/>
<circle class="st1" cx="467.31" cy="137.38" r="8.09"/>
<path class="st1" d="M480.19,157.32v13.7c-0.01,3.79-2.13,7.26-5.51,9v15.22c0.14,4.07-3.05,7.49-7.12,7.63
	c-4.07,0.14-7.49-3.05-7.63-7.12c-0.01-0.17-0.01-0.34,0-0.5v-15.21c-3.38-1.74-5.5-5.21-5.52-9.01v-13.7
	c0.02-5.58,4.55-10.09,10.12-10.11h5.52C475.65,147.23,480.17,151.74,480.19,157.32z"/>
<circle class="st1" cx="548.53" cy="137.38" r="8.09"/>
<path class="st1" d="M561.42,157.32v13.7c-0.01,3.79-2.13,7.26-5.51,9v15.22c0.14,4.07-3.05,7.49-7.12,7.63
	c-4.07,0.14-7.49-3.05-7.63-7.12c-0.01-0.17-0.01-0.34,0-0.5v-15.21c-3.38-1.74-5.5-5.21-5.52-9.01v-13.7
	c0.02-5.58,4.55-10.09,10.12-10.11h5.52C556.87,147.23,561.39,151.74,561.42,157.32z"/>
<circle class="st1" cx="629.76" cy="137.38" r="8.09"/>
<path class="st1" d="M642.64,157.32v13.7c-0.01,3.79-2.13,7.26-5.51,9v15.22c0.14,4.07-3.05,7.49-7.12,7.63
	c-4.07,0.14-7.49-3.05-7.63-7.12c-0.01-0.17-0.01-0.34,0-0.5v-15.21c-3.38-1.74-5.5-5.21-5.52-9.01v-13.7
	c0.02-5.58,4.55-10.09,10.12-10.11h5.52C638.1,147.23,642.62,151.74,642.64,157.32z"/>
<circle class="st1" cx="710.98" cy="137.38" r="8.09"/>
<path class="st1" d="M723.87,157.32v13.7c-0.01,3.79-2.13,7.26-5.51,9v15.22c0.14,4.07-3.05,7.49-7.12,7.63
	c-4.07,0.14-7.49-3.05-7.63-7.12c-0.01-0.17-0.01-0.34,0-0.5v-15.21c-3.38-1.74-5.5-5.21-5.52-9.01v-13.7
	c0.02-5.58,4.55-10.09,10.12-10.11h5.52C719.32,147.23,723.85,151.74,723.87,157.32z"/>
<circle class="st1" cx="792.21" cy="137.38" r="8.09"/>
<path class="st1" d="M805.1,157.32v13.7c-0.01,3.79-2.13,7.26-5.51,9v15.22c0.14,4.07-3.05,7.49-7.12,7.63
	c-4.07,0.14-7.49-3.05-7.63-7.12c-0.01-0.17-0.01-0.34,0-0.5v-15.21c-3.38-1.74-5.5-5.21-5.52-9.01v-13.7
	c0.02-5.58,4.55-10.09,10.12-10.11h5.52C800.55,147.23,805.07,151.74,805.1,157.32z"/>
<circle class="st1" cx="61.18" cy="230.88" r="8.09"/>
<path class="st1" d="M74.06,250.82v13.7c-0.01,3.79-2.13,7.26-5.51,9v15.22c0.14,4.07-3.05,7.49-7.12,7.63
	c-4.07,0.14-7.49-3.05-7.63-7.12c-0.01-0.17-0.01-0.34,0-0.5v-15.21c-3.38-1.74-5.5-5.21-5.52-9.01v-13.7
	c0.02-5.58,4.55-10.09,10.12-10.11h5.52C69.52,240.73,74.04,245.25,74.06,250.82z"/>
<circle class="st1" cx="142.4" cy="230.88" r="8.09"/>
<path class="st1" d="M155.29,250.82v13.7c-0.01,3.79-2.13,7.26-5.51,9v15.22c0.14,4.07-3.05,7.49-7.12,7.63
	c-4.07,0.14-7.49-3.05-7.63-7.12c-0.01-0.17-0.01-0.34,0-0.5v-15.21c-3.38-1.74-5.5-5.21-5.52-9.01v-13.7
	c0.02-5.58,4.55-10.09,10.12-10.11h5.52C150.74,240.73,155.27,245.25,155.29,250.82z"/>
<circle class="st1" cx="223.63" cy="230.88" r="8.09"/>
<path class="st1" d="M236.51,250.82v13.7c-0.01,3.79-2.13,7.26-5.51,9v15.22c0.14,4.07-3.05,7.49-7.12,7.63
	c-4.07,0.14-7.49-3.05-7.63-7.12c-0.01-0.17-0.01-0.34,0-0.5v-15.21c-3.38-1.74-5.5-5.21-5.52-9.01v-13.7
	c0.02-5.58,4.55-10.09,10.12-10.11h5.52C231.97,240.73,236.49,245.25,236.51,250.82z"/>
<circle class="st1" cx="304.85" cy="230.88" r="8.09"/>
<path class="st1" d="M317.74,250.82v13.7c-0.01,3.79-2.13,7.26-5.51,9v15.22c0.14,4.07-3.05,7.49-7.12,7.63
	c-4.07,0.14-7.49-3.05-7.63-7.12c-0.01-0.17-0.01-0.34,0-0.5v-15.21c-3.38-1.74-5.5-5.21-5.52-9.01v-13.7
	c0.02-5.58,4.55-10.09,10.12-10.11h5.52C313.2,240.73,317.72,245.25,317.74,250.82z"/>
<circle class="st1" cx="386.08" cy="230.88" r="8.09"/>
<path class="st1" d="M398.97,250.82v13.7c-0.01,3.79-2.13,7.26-5.51,9v15.22c0.14,4.07-3.05,7.49-7.12,7.63
	c-4.07,0.14-7.49-3.05-7.63-7.12c-0.01-0.17-0.01-0.34,0-0.5v-15.21c-3.38-1.74-5.5-5.21-5.52-9.01v-13.7
	c0.02-5.58,4.55-10.09,10.12-10.11h5.52C394.42,240.73,398.94,245.25,398.97,250.82z"/>
<circle class="st1" cx="467.31" cy="230.88" r="8.09"/>
<path class="st1" d="M480.19,250.82v13.7c-0.01,3.79-2.13,7.26-5.51,9v15.22c0.14,4.07-3.05,7.49-7.12,7.63
	c-4.07,0.14-7.49-3.05-7.63-7.12c-0.01-0.17-0.01-0.34,0-0.5v-15.21c-3.38-1.74-5.5-5.21-5.52-9.01v-13.7
	c0.02-5.58,4.55-10.09,10.12-10.11h5.52C475.65,240.73,480.17,245.25,480.19,250.82z"/>
<circle class="st1" cx="548.53" cy="230.88" r="8.09"/>
<path class="st1" d="M561.42,250.82v13.7c-0.01,3.79-2.13,7.26-5.51,9v15.22c0.14,4.07-3.05,7.49-7.12,7.63
	c-4.07,0.14-7.49-3.05-7.63-7.12c-0.01-0.17-0.01-0.34,0-0.5v-15.21c-3.38-1.74-5.5-5.21-5.52-9.01v-13.7
	c0.02-5.58,4.55-10.09,10.12-10.11h5.52C556.87,240.73,561.39,245.25,561.42,250.82z"/>
<circle class="st1" cx="629.76" cy="230.88" r="8.09"/>
<path class="st1" d="M642.64,250.82v13.7c-0.01,3.79-2.13,7.26-5.51,9v15.22c0.14,4.07-3.05,7.49-7.12,7.63
	c-4.07,0.14-7.49-3.05-7.63-7.12c-0.01-0.17-0.01-0.34,0-0.5v-15.21c-3.38-1.74-5.5-5.21-5.52-9.01v-13.7
	c0.02-5.58,4.55-10.09,10.12-10.11h5.52C638.1,240.73,642.62,245.25,642.64,250.82z"/>
<circle class="st1" cx="710.98" cy="230.88" r="8.09"/>
<path class="st1" d="M723.87,250.82v13.7c-0.01,3.79-2.13,7.26-5.51,9v15.22c0.14,4.07-3.05,7.49-7.12,7.63
	c-4.07,0.14-7.49-3.05-7.63-7.12c-0.01-0.17-0.01-0.34,0-0.5v-15.21c-3.38-1.74-5.5-5.21-5.52-9.01v-13.7
	c0.02-5.58,4.55-10.09,10.12-10.11h5.52C719.32,240.73,723.85,245.25,723.87,250.82z"/>
<circle class="st1" cx="792.21" cy="230.88" r="8.09"/>
<path class="st1" d="M805.1,250.82v13.7c-0.01,3.79-2.13,7.26-5.51,9v15.22c0.14,4.07-3.05,7.49-7.12,7.63
	c-4.07,0.14-7.49-3.05-7.63-7.12c-0.01-0.17-0.01-0.34,0-0.5v-15.21c-3.38-1.74-5.5-5.21-5.52-9.01v-13.7
	c0.02-5.58,4.55-10.09,10.12-10.11h5.52C800.55,240.73,805.07,245.25,805.1,250.82z"/>
<circle class="st1" cx="61.18" cy="324.38" r="8.09"/>
<path class="st1" d="M74.06,344.32v13.7c-0.01,3.79-2.13,7.26-5.51,9v15.22c0.14,4.07-3.05,7.49-7.12,7.63
	c-4.07,0.14-7.49-3.05-7.63-7.12c-0.01-0.17-0.01-0.34,0-0.5v-15.21c-3.38-1.74-5.5-5.21-5.52-9.01v-13.7
	c0.02-5.58,4.55-10.09,10.12-10.11h5.52C69.52,334.23,74.04,338.75,74.06,344.32z"/>
<circle class="st1" cx="142.4" cy="324.38" r="8.09"/>
<path class="st1" d="M155.29,344.32v13.7c-0.01,3.79-2.13,7.26-5.51,9v15.22c0.14,4.07-3.05,7.49-7.12,7.63
	c-4.07,0.14-7.49-3.05-7.63-7.12c-0.01-0.17-0.01-0.34,0-0.5v-15.21c-3.38-1.74-5.5-5.21-5.52-9.01v-13.7
	c0.02-5.58,4.55-10.09,10.12-10.11h5.52C150.74,334.23,155.27,338.75,155.29,344.32z"/>
<circle class="st1" cx="223.63" cy="324.38" r="8.09"/>
<path class="st1" d="M236.51,344.32v13.7c-0.01,3.79-2.13,7.26-5.51,9v15.22c0.14,4.07-3.05,7.49-7.12,7.63
	c-4.07,0.14-7.49-3.05-7.63-7.12c-0.01-0.17-0.01-0.34,0-0.5v-15.21c-3.38-1.74-5.5-5.21-5.52-9.01v-13.7
	c0.02-5.58,4.55-10.09,10.12-10.11h5.52C231.97,334.23,236.49,338.75,236.51,344.32z"/>
<circle class="st1" cx="304.85" cy="324.38" r="8.09"/>
<path class="st1" d="M317.74,344.32v13.7c-0.01,3.79-2.13,7.26-5.51,9v15.22c0.14,4.07-3.05,7.49-7.12,7.63
	c-4.07,0.14-7.49-3.05-7.63-7.12c-0.01-0.17-0.01-0.34,0-0.5v-15.21c-3.38-1.74-5.5-5.21-5.52-9.01v-13.7
	c0.02-5.58,4.55-10.09,10.12-10.11h5.52C313.2,334.23,317.72,338.75,317.74,344.32z"/>
<circle class="st1" cx="386.08" cy="324.38" r="8.09"/>
<path class="st1" d="M398.97,344.32v13.7c-0.01,3.79-2.13,7.26-5.51,9v15.22c0.14,4.07-3.05,7.49-7.12,7.63
	c-4.07,0.14-7.49-3.05-7.63-7.12c-0.01-0.17-0.01-0.34,0-0.5v-15.21c-3.38-1.74-5.5-5.21-5.52-9.01v-13.7
	c0.02-5.58,4.55-10.09,10.12-10.11h5.52C394.42,334.23,398.94,338.75,398.97,344.32z"/>
<circle class="st1" cx="467.31" cy="324.38" r="8.09"/>
<path class="st1" d="M480.19,344.32v13.7c-0.01,3.79-2.13,7.26-5.51,9v15.22c0.14,4.07-3.05,7.49-7.12,7.63
	c-4.07,0.14-7.49-3.05-7.63-7.12c-0.01-0.17-0.01-0.34,0-0.5v-15.21c-3.38-1.74-5.5-5.21-5.52-9.01v-13.7
	c0.02-5.58,4.55-10.09,10.12-10.11h5.52C475.65,334.23,480.17,338.75,480.19,344.32z"/>
<circle class="st1" cx="548.53" cy="324.38" r="8.09"/>
<path class="st1" d="M561.42,344.32v13.7c-0.01,3.79-2.13,7.26-5.51,9v15.22c0.14,4.07-3.05,7.49-7.12,7.63
	c-4.07,0.14-7.49-3.05-7.63-7.12c-0.01-0.17-0.01-0.34,0-0.5v-15.21c-3.38-1.74-5.5-5.21-5.52-9.01v-13.7
	c0.02-5.58,4.55-10.09,10.12-10.11h5.52C556.87,334.23,561.39,338.75,561.42,344.32z"/>
<circle class="st1" cx="629.76" cy="324.38" r="8.09"/>
<path class="st1" d="M642.64,344.32v13.7c-0.01,3.79-2.13,7.26-5.51,9v15.22c0.14,4.07-3.05,7.49-7.12,7.63
	c-4.07,0.14-7.49-3.05-7.63-7.12c-0.01-0.17-0.01-0.34,0-0.5v-15.21c-3.38-1.74-5.5-5.21-5.52-9.01v-13.7
	c0.02-5.58,4.55-10.09,10.12-10.11h5.52C638.1,334.23,642.62,338.75,642.64,344.32z"/>
<circle class="st1" cx="710.98" cy="324.38" r="8.09"/>
<path class="st1" d="M723.87,344.32v13.7c-0.01,3.79-2.13,7.26-5.51,9v15.22c0.14,4.07-3.05,7.49-7.12,7.63
	c-4.07,0.14-7.49-3.05-7.63-7.12c-0.01-0.17-0.01-0.34,0-0.5v-15.21c-3.38-1.74-5.5-5.21-5.52-9.01v-13.7
	c0.02-5.58,4.55-10.09,10.12-10.11h5.52C719.32,334.23,723.85,338.75,723.87,344.32z"/>
<circle class="st1" cx="792.21" cy="324.38" r="8.09"/>
<path class="st1" d="M805.1,344.32v13.7c-0.01,3.79-2.13,7.26-5.51,9v15.22c0.14,4.07-3.05,7.49-7.12,7.63
	c-4.07,0.14-7.49-3.05-7.63-7.12c-0.01-0.17-0.01-0.34,0-0.5v-15.21c-3.38-1.74-5.5-5.21-5.52-9.01v-13.7
	c0.02-5.58,4.55-10.09,10.12-10.11h5.52C800.55,334.23,805.07,338.75,805.1,344.32z"/>
<circle class="st1" cx="61.18" cy="417.88" r="8.09"/>
<path class="st1" d="M74.06,437.83v13.7c-0.01,3.79-2.13,7.26-5.51,9v15.22c0.14,4.07-3.05,7.49-7.12,7.63
	c-4.07,0.14-7.49-3.05-7.63-7.12c-0.01-0.17-0.01-0.34,0-0.5v-15.21c-3.38-1.74-5.5-5.21-5.52-9.01v-13.7
	c0.02-5.58,4.55-10.09,10.12-10.11h5.52C69.52,427.73,74.04,432.25,74.06,437.83z"/>
<circle class="st1" cx="142.4" cy="417.88" r="8.09"/>
<path class="st1" d="M155.29,437.83v13.7c-0.01,3.79-2.13,7.26-5.51,9v15.22c0.14,4.07-3.05,7.49-7.12,7.63
	c-4.07,0.14-7.49-3.05-7.63-7.12c-0.01-0.17-0.01-0.34,0-0.5v-15.21c-3.38-1.74-5.5-5.21-5.52-9.01v-13.7
	c0.02-5.58,4.55-10.09,10.12-10.11h5.52C150.74,427.73,155.27,432.25,155.29,437.83z"/>
<circle class="st1" cx="223.63" cy="417.88" r="8.09"/>
<path class="st1" d="M236.51,437.83v13.7c-0.01,3.79-2.13,7.26-5.51,9v15.22c0.14,4.07-3.05,7.49-7.12,7.63
	c-4.07,0.14-7.49-3.05-7.63-7.12c-0.01-0.17-0.01-0.34,0-0.5v-15.21c-3.38-1.74-5.5-5.21-5.52-9.01v-13.7
	c0.02-5.58,4.55-10.09,10.12-10.11h5.52C231.97,427.73,236.49,432.25,236.51,437.83z"/>
<circle class="st1" cx="304.85" cy="417.88" r="8.09"/>
<path class="st1" d="M317.74,437.83v13.7c-0.01,3.79-2.13,7.26-5.51,9v15.22c0.14,4.07-3.05,7.49-7.12,7.63
	c-4.07,0.14-7.49-3.05-7.63-7.12c-0.01-0.17-0.01-0.34,0-0.5v-15.21c-3.38-1.74-5.5-5.21-5.52-9.01v-13.7
	c0.02-5.58,4.55-10.09,10.12-10.11h5.52C313.2,427.73,317.72,432.25,317.74,437.83z"/>
<circle class="st1" cx="386.08" cy="417.88" r="8.09"/>
<path class="st1" d="M398.97,437.83v13.7c-0.01,3.79-2.13,7.26-5.51,9v15.22c0.14,4.07-3.05,7.49-7.12,7.63
	c-4.07,0.14-7.49-3.05-7.63-7.12c-0.01-0.17-0.01-0.34,0-0.5v-15.21c-3.38-1.74-5.5-5.21-5.52-9.01v-13.7
	c0.02-5.58,4.55-10.09,10.12-10.11h5.52C394.42,427.73,398.94,432.25,398.97,437.83z"/>
<circle class="st1" cx="467.31" cy="417.88" r="8.09"/>
<path class="st1" d="M480.19,437.83v13.7c-0.01,3.79-2.13,7.26-5.51,9v15.22c0.14,4.07-3.05,7.49-7.12,7.63
	c-4.07,0.14-7.49-3.05-7.63-7.12c-0.01-0.17-0.01-0.34,0-0.5v-15.21c-3.38-1.74-5.5-5.21-5.52-9.01v-13.7
	c0.02-5.58,4.55-10.09,10.12-10.11h5.52C475.65,427.73,480.17,432.25,480.19,437.83z"/>
<circle class="st1" cx="548.53" cy="417.88" r="8.09"/>
<path class="st1" d="M561.42,437.83v13.7c-0.01,3.79-2.13,7.26-5.51,9v15.22c0.14,4.07-3.05,7.49-7.12,7.63
	c-4.07,0.14-7.49-3.05-7.63-7.12c-0.01-0.17-0.01-0.34,0-0.5v-15.21c-3.38-1.74-5.5-5.21-5.52-9.01v-13.7
	c0.02-5.58,4.55-10.09,10.12-10.11h5.52C556.87,427.73,561.39,432.25,561.42,437.83z"/>
<circle class="st1" cx="629.76" cy="417.88" r="8.09"/>
<path class="st1" d="M642.64,437.83v13.7c-0.01,3.79-2.13,7.26-5.51,9v15.22c0.14,4.07-3.05,7.49-7.12,7.63
	c-4.07,0.14-7.49-3.05-7.63-7.12c-0.01-0.17-0.01-0.34,0-0.5v-15.21c-3.38-1.74-5.5-5.21-5.52-9.01v-13.7
	c0.02-5.58,4.55-10.09,10.12-10.11h5.52C638.1,427.73,642.62,432.25,642.64,437.83z"/>
<circle class="st1" cx="710.98" cy="417.88" r="8.09"/>
<path class="st1" d="M723.87,437.83v13.7c-0.01,3.79-2.13,7.26-5.51,9v15.22c0.14,4.07-3.05,7.49-7.12,7.63
	c-4.07,0.14-7.49-3.05-7.63-7.12c-0.01-0.17-0.01-0.34,0-0.5v-15.21c-3.38-1.74-5.5-5.21-5.52-9.01v-13.7
	c0.02-5.58,4.55-10.09,10.12-10.11h5.52C719.32,427.73,723.85,432.25,723.87,437.83z"/>
<circle class="st1" cx="792.21" cy="417.88" r="8.09"/>
<path class="st1" d="M805.1,437.83v13.7c-0.01,3.79-2.13,7.26-5.51,9v15.22c0.14,4.07-3.05,7.49-7.12,7.63
	c-4.07,0.14-7.49-3.05-7.63-7.12c-0.01-0.17-0.01-0.34,0-0.5v-15.21c-3.38-1.74-5.5-5.21-5.52-9.01v-13.7
	c0.02-5.58,4.55-10.09,10.12-10.11h5.52C800.55,427.73,805.07,432.25,805.1,437.83z"/>
<circle class="st2" cx="61.18" cy="511.38" r="8.09"/>
<path class="st2" d="M74.06,531.33v13.7c-0.01,3.79-2.13,7.26-5.51,9v15.22c0.14,4.07-3.05,7.49-7.12,7.63s-7.49-3.05-7.63-7.12
	c-0.01-0.17-0.01-0.34,0-0.5v-15.21c-3.38-1.74-5.5-5.21-5.52-9.01v-13.7c0.02-5.58,4.55-10.09,10.12-10.11h5.52
	C69.52,521.23,74.04,525.75,74.06,531.33z"/>
<circle class="st2" cx="142.4" cy="511.38" r="8.09"/>
<path class="st2" d="M155.29,531.33v13.7c-0.01,3.79-2.13,7.26-5.51,9v15.22c0.14,4.07-3.05,7.49-7.12,7.63
	c-4.07,0.14-7.49-3.05-7.63-7.12c-0.01-0.17-0.01-0.34,0-0.5v-15.21c-3.38-1.74-5.5-5.21-5.52-9.01v-13.7
	c0.02-5.58,4.55-10.09,10.12-10.11h5.52C150.74,521.23,155.27,525.75,155.29,531.33z"/>
<circle class="st2" cx="223.63" cy="511.38" r="8.09"/>
<path class="st2" d="M236.51,531.33v13.7c-0.01,3.79-2.13,7.26-5.51,9v15.22c0.14,4.07-3.05,7.49-7.12,7.63
	c-4.07,0.14-7.49-3.05-7.63-7.12c-0.01-0.17-0.01-0.34,0-0.5v-15.21c-3.38-1.74-5.5-5.21-5.52-9.01v-13.7
	c0.02-5.58,4.55-10.09,10.12-10.11h5.52C231.97,521.23,236.49,525.75,236.51,531.33z"/>
<circle class="st2" cx="304.85" cy="511.38" r="8.09"/>
<path class="st2" d="M317.74,531.33v13.7c-0.01,3.79-2.13,7.26-5.51,9v15.22c0.14,4.07-3.05,7.49-7.12,7.63s-7.49-3.05-7.63-7.12
	c-0.01-0.17-0.01-0.34,0-0.5v-15.21c-3.38-1.74-5.5-5.21-5.52-9.01v-13.7c0.02-5.58,4.55-10.09,10.12-10.11h5.52
	C313.2,521.23,317.72,525.75,317.74,531.33z"/>
<circle class="st2" cx="386.08" cy="511.38" r="8.09"/>
<path class="st2" d="M398.97,531.33v13.7c-0.01,3.79-2.13,7.26-5.51,9v15.22c0.14,4.07-3.05,7.49-7.12,7.63
	c-4.07,0.14-7.49-3.05-7.63-7.12c-0.01-0.17-0.01-0.34,0-0.5v-15.21c-3.38-1.74-5.5-5.21-5.52-9.01v-13.7
	c0.02-5.58,4.55-10.09,10.12-10.11h5.52C394.42,521.23,398.94,525.75,398.97,531.33z"/>
<circle class="st2" cx="467.31" cy="511.38" r="8.09"/>
<path class="st2" d="M480.19,531.33v13.7c-0.01,3.79-2.13,7.26-5.51,9v15.22c0.14,4.07-3.05,7.49-7.12,7.63
	c-4.07,0.14-7.49-3.05-7.63-7.12c-0.01-0.17-0.01-0.34,0-0.5v-15.21c-3.38-1.74-5.5-5.21-5.52-9.01v-13.7
	c0.02-5.58,4.55-10.09,10.12-10.11h5.52C475.65,521.23,480.17,525.75,480.19,531.33z"/>
<circle class="st2" cx="548.53" cy="511.38" r="8.09"/>
<path class="st2" d="M561.42,531.33v13.7c-0.01,3.79-2.13,7.26-5.51,9v15.22c0.14,4.07-3.05,7.49-7.12,7.63s-7.49-3.05-7.63-7.12
	c-0.01-0.17-0.01-0.34,0-0.5v-15.21c-3.38-1.74-5.5-5.21-5.52-9.01v-13.7c0.02-5.58,4.55-10.09,10.12-10.11h5.52
	C556.87,521.23,561.39,525.75,561.42,531.33z"/>
<circle class="st2" cx="629.76" cy="511.38" r="8.09"/>
<path class="st2" d="M642.64,531.33v13.7c-0.01,3.79-2.13,7.26-5.51,9v15.22c0.14,4.07-3.05,7.49-7.12,7.63s-7.49-3.05-7.63-7.12
	c-0.01-0.17-0.01-0.34,0-0.5v-15.21c-3.38-1.74-5.5-5.21-5.52-9.01v-13.7c0.02-5.58,4.55-10.09,10.12-10.11h5.52
	C638.1,521.23,642.62,525.75,642.64,531.33z"/>
<circle class="st2" cx="710.98" cy="511.38" r="8.09"/>
<path class="st2" d="M723.87,531.33v13.7c-0.01,3.79-2.13,7.26-5.51,9v15.22c0.14,4.07-3.05,7.49-7.12,7.63s-7.49-3.05-7.63-7.12
	c-0.01-0.17-0.01-0.34,0-0.5v-15.21c-3.38-1.74-5.5-5.21-5.52-9.01v-13.7c0.02-5.58,4.55-10.09,10.12-10.11h5.52
	C719.32,521.23,723.85,525.75,723.87,531.33z"/>
<circle class="st2" cx="792.21" cy="511.38" r="8.09"/>
<path class="st2" d="M805.1,531.33v13.7c-0.01,3.79-2.13,7.26-5.51,9v15.22c0.14,4.07-3.05,7.49-7.12,7.63s-7.49-3.05-7.63-7.12
	c-0.01-0.17-0.01-0.34,0-0.5v-15.21c-3.38-1.74-5.5-5.21-5.52-9.01v-13.7c0.02-5.58,4.55-10.09,10.12-10.11h5.52
	C800.55,521.23,805.07,525.75,805.1,531.33z"/>
<circle class="st2" cx="61.18" cy="604.88" r="8.09"/>
<path class="st2" d="M74.06,624.83v13.7c-0.01,3.79-2.13,7.26-5.51,9v15.22c0.14,4.07-3.05,7.49-7.12,7.63
	c-4.07,0.14-7.49-3.05-7.63-7.12c-0.01-0.17-0.01-0.34,0-0.5v-15.21c-3.38-1.74-5.5-5.21-5.52-9.01v-13.7
	c0.02-5.58,4.55-10.09,10.12-10.11h5.52C69.52,614.73,74.04,619.25,74.06,624.83z"/>
<circle class="st2" cx="142.4" cy="604.88" r="8.09"/>
<path class="st2" d="M155.29,624.83v13.7c-0.01,3.79-2.13,7.26-5.51,9v15.22c0.14,4.07-3.05,7.49-7.12,7.63
	c-4.07,0.14-7.49-3.05-7.63-7.12c-0.01-0.17-0.01-0.34,0-0.5v-15.21c-3.38-1.74-5.5-5.21-5.52-9.01v-13.7
	c0.02-5.58,4.55-10.09,10.12-10.11h5.52C150.74,614.73,155.27,619.25,155.29,624.83z"/>
<circle class="st2" cx="223.63" cy="604.88" r="8.09"/>
<path class="st2" d="M236.51,624.83v13.7c-0.01,3.79-2.13,7.26-5.51,9v15.22c0.14,4.07-3.05,7.49-7.12,7.63
	c-4.07,0.14-7.49-3.05-7.63-7.12c-0.01-0.17-0.01-0.34,0-0.5v-15.21c-3.38-1.74-5.5-5.21-5.52-9.01v-13.7
	c0.02-5.58,4.55-10.09,10.12-10.11h5.52C231.97,614.73,236.49,619.25,236.51,624.83z"/>
<circle class="st2" cx="304.85" cy="604.88" r="8.09"/>
<path class="st2" d="M317.74,624.83v13.7c-0.01,3.79-2.13,7.26-5.51,9v15.22c0.14,4.07-3.05,7.49-7.12,7.63
	c-4.07,0.14-7.49-3.05-7.63-7.12c-0.01-0.17-0.01-0.34,0-0.5v-15.21c-3.38-1.74-5.5-5.21-5.52-9.01v-13.7
	c0.02-5.58,4.55-10.09,10.12-10.11h5.52C313.2,614.73,317.72,619.25,317.74,624.83z"/>
<circle class="st2" cx="386.08" cy="604.88" r="8.09"/>
<path class="st2" d="M398.97,624.83v13.7c-0.01,3.79-2.13,7.26-5.51,9v15.22c0.14,4.07-3.05,7.49-7.12,7.63
	c-4.07,0.14-7.49-3.05-7.63-7.12c-0.01-0.17-0.01-0.34,0-0.5v-15.21c-3.38-1.74-5.5-5.21-5.52-9.01v-13.7
	c0.02-5.58,4.55-10.09,10.12-10.11h5.52C394.42,614.73,398.94,619.25,398.97,624.83z"/>
<circle class="st2" cx="467.31" cy="604.88" r="8.09"/>
<path class="st2" d="M480.19,624.83v13.7c-0.01,3.79-2.13,7.26-5.51,9v15.22c0.14,4.07-3.05,7.49-7.12,7.63
	c-4.07,0.14-7.49-3.05-7.63-7.12c-0.01-0.17-0.01-0.34,0-0.5v-15.21c-3.38-1.74-5.5-5.21-5.52-9.01v-13.7
	c0.02-5.58,4.55-10.09,10.12-10.11h5.52C475.65,614.73,480.17,619.25,480.19,624.83z"/>
<circle class="st2" cx="548.53" cy="604.88" r="8.09"/>
<path class="st2" d="M561.42,624.83v13.7c-0.01,3.79-2.13,7.26-5.51,9v15.22c0.14,4.07-3.05,7.49-7.12,7.63
	c-4.07,0.14-7.49-3.05-7.63-7.12c-0.01-0.17-0.01-0.34,0-0.5v-15.21c-3.38-1.74-5.5-5.21-5.52-9.01v-13.7
	c0.02-5.58,4.55-10.09,10.12-10.11h5.52C556.87,614.73,561.39,619.25,561.42,624.83z"/>
<circle class="st2" cx="629.76" cy="604.88" r="8.09"/>
<path class="st2" d="M642.64,624.83v13.7c-0.01,3.79-2.13,7.26-5.51,9v15.22c0.14,4.07-3.05,7.49-7.12,7.63
	c-4.07,0.14-7.49-3.05-7.63-7.12c-0.01-0.17-0.01-0.34,0-0.5v-15.21c-3.38-1.74-5.5-5.21-5.52-9.01v-13.7
	c0.02-5.58,4.55-10.09,10.12-10.11h5.52C638.1,614.73,642.62,619.25,642.64,624.83z"/>
<circle class="st2" cx="710.98" cy="604.88" r="8.09"/>
<path class="st2" d="M723.87,624.83v13.7c-0.01,3.79-2.13,7.26-5.51,9v15.22c0.14,4.07-3.05,7.49-7.12,7.63
	c-4.07,0.14-7.49-3.05-7.63-7.12c-0.01-0.17-0.01-0.34,0-0.5v-15.21c-3.38-1.74-5.5-5.21-5.52-9.01v-13.7
	c0.02-5.58,4.55-10.09,10.12-10.11h5.52C719.32,614.73,723.85,619.25,723.87,624.83z"/>
<circle class="st2" cx="792.21" cy="604.88" r="8.09"/>
<path class="st2" d="M805.1,624.83v13.7c-0.01,3.79-2.13,7.26-5.51,9v15.22c0.14,4.07-3.05,7.49-7.12,7.63
	c-4.07,0.14-7.49-3.05-7.63-7.12c-0.01-0.17-0.01-0.34,0-0.5v-15.21c-3.38-1.74-5.5-5.21-5.52-9.01v-13.7
	c0.02-5.58,4.55-10.09,10.12-10.11h5.52C800.55,614.73,805.07,619.25,805.1,624.83z"/>
<circle class="st2" cx="61.18" cy="698.38" r="8.09"/>
<path class="st2" d="M74.06,718.33v13.7c-0.01,3.79-2.13,7.26-5.51,9v15.22c0.14,4.07-3.05,7.49-7.12,7.63s-7.49-3.05-7.63-7.12
	c-0.01-0.17-0.01-0.34,0-0.5v-15.21c-3.38-1.74-5.5-5.21-5.52-9.01v-13.7c0.02-5.58,4.55-10.09,10.12-10.11h5.52
	C69.52,708.24,74.04,712.75,74.06,718.33z"/>
<circle class="st2" cx="142.4" cy="698.38" r="8.09"/>
<path class="st2" d="M155.29,718.33v13.7c-0.01,3.79-2.13,7.26-5.51,9v15.22c0.14,4.07-3.05,7.49-7.12,7.63
	c-4.07,0.14-7.49-3.05-7.63-7.12c-0.01-0.17-0.01-0.34,0-0.5v-15.21c-3.38-1.74-5.5-5.21-5.52-9.01v-13.7
	c0.02-5.58,4.55-10.09,10.12-10.11h5.52C150.74,708.24,155.27,712.75,155.29,718.33z"/>
<circle class="st2" cx="223.63" cy="698.38" r="8.09"/>
<path class="st2" d="M236.51,718.33v13.7c-0.01,3.79-2.13,7.26-5.51,9v15.22c0.14,4.07-3.05,7.49-7.12,7.63
	c-4.07,0.14-7.49-3.05-7.63-7.12c-0.01-0.17-0.01-0.34,0-0.5v-15.21c-3.38-1.74-5.5-5.21-5.52-9.01v-13.7
	c0.02-5.58,4.55-10.09,10.12-10.11h5.52C231.97,708.24,236.49,712.75,236.51,718.33z"/>
<circle class="st2" cx="304.85" cy="698.38" r="8.09"/>
<path class="st2" d="M317.74,718.33v13.7c-0.01,3.79-2.13,7.26-5.51,9v15.22c0.14,4.07-3.05,7.49-7.12,7.63s-7.49-3.05-7.63-7.12
	c-0.01-0.17-0.01-0.34,0-0.5v-15.21c-3.38-1.74-5.5-5.21-5.52-9.01v-13.7c0.02-5.58,4.55-10.09,10.12-10.11h5.52
	C313.2,708.24,317.72,712.75,317.74,718.33z"/>
<circle class="st2" cx="386.08" cy="698.38" r="8.09"/>
<path class="st2" d="M398.97,718.33v13.7c-0.01,3.79-2.13,7.26-5.51,9v15.22c0.14,4.07-3.05,7.49-7.12,7.63
	c-4.07,0.14-7.49-3.05-7.63-7.12c-0.01-0.17-0.01-0.34,0-0.5v-15.21c-3.38-1.74-5.5-5.21-5.52-9.01v-13.7
	c0.02-5.58,4.55-10.09,10.12-10.11h5.52C394.42,708.24,398.94,712.75,398.97,718.33z"/>
<circle class="st2" cx="467.31" cy="698.38" r="8.09"/>
<path class="st2" d="M480.19,718.33v13.7c-0.01,3.79-2.13,7.26-5.51,9v15.22c0.14,4.07-3.05,7.49-7.12,7.63
	c-4.07,0.14-7.49-3.05-7.63-7.12c-0.01-0.17-0.01-0.34,0-0.5v-15.21c-3.38-1.74-5.5-5.21-5.52-9.01v-13.7
	c0.02-5.58,4.55-10.09,10.12-10.11h5.52C475.65,708.24,480.17,712.75,480.19,718.33z"/>
<circle class="st2" cx="548.53" cy="698.38" r="8.09"/>
<path class="st2" d="M561.42,718.33v13.7c-0.01,3.79-2.13,7.26-5.51,9v15.22c0.14,4.07-3.05,7.49-7.12,7.63s-7.49-3.05-7.63-7.12
	c-0.01-0.17-0.01-0.34,0-0.5v-15.21c-3.38-1.74-5.5-5.21-5.52-9.01v-13.7c0.02-5.58,4.55-10.09,10.12-10.11h5.52
	C556.87,708.24,561.39,712.75,561.42,718.33z"/>
<circle class="st2" cx="629.76" cy="698.38" r="8.09"/>
<path class="st2" d="M642.64,718.33v13.7c-0.01,3.79-2.13,7.26-5.51,9v15.22c0.14,4.07-3.05,7.49-7.12,7.63s-7.49-3.05-7.63-7.12
	c-0.01-0.17-0.01-0.34,0-0.5v-15.21c-3.38-1.74-5.5-5.21-5.52-9.01v-13.7c0.02-5.58,4.55-10.09,10.12-10.11h5.52
	C638.1,708.24,642.62,712.75,642.64,718.33z"/>
<circle class="st2" cx="710.98" cy="698.38" r="8.09"/>
<path class="st2" d="M723.87,718.33v13.7c-0.01,3.79-2.13,7.26-5.51,9v15.22c0.14,4.07-3.05,7.49-7.12,7.63s-7.49-3.05-7.63-7.12
	c-0.01-0.17-0.01-0.34,0-0.5v-15.21c-3.38-1.74-5.5-5.21-5.52-9.01v-13.7c0.02-5.58,4.55-10.09,10.12-10.11h5.52
	C719.32,708.24,723.85,712.75,723.87,718.33z"/>
<circle class="st2" cx="792.21" cy="698.38" r="8.09"/>
<path class="st2" d="M805.1,718.33v13.7c-0.01,3.79-2.13,7.26-5.51,9v15.22c0.14,4.07-3.05,7.49-7.12,7.63s-7.49-3.05-7.63-7.12
	c-0.01-0.17-0.01-0.34,0-0.5v-15.21c-3.38-1.74-5.5-5.21-5.52-9.01v-13.7c0.02-5.58,4.55-10.09,10.12-10.11h5.52
	C800.55,708.24,805.07,712.75,805.1,718.33z"/>
<circle class="st2" cx="61.18" cy="791.88" r="8.09"/>
<path class="st2" d="M74.06,811.83v13.7c-0.01,3.79-2.13,7.26-5.51,9v15.22c0.14,4.07-3.05,7.49-7.12,7.63
	c-4.07,0.14-7.49-3.05-7.63-7.12c-0.01-0.17-0.01-0.34,0-0.5v-15.21c-3.38-1.74-5.5-5.21-5.52-9.01v-13.7
	c0.02-5.58,4.55-10.09,10.12-10.11h5.52C69.52,801.74,74.04,806.25,74.06,811.83z"/>
<circle class="st2" cx="142.4" cy="791.88" r="8.09"/>
<path class="st2" d="M155.29,811.83v13.7c-0.01,3.79-2.13,7.26-5.51,9v15.22c0.14,4.07-3.05,7.49-7.12,7.63
	c-4.07,0.14-7.49-3.05-7.63-7.12c-0.01-0.17-0.01-0.34,0-0.5v-15.21c-3.38-1.74-5.5-5.21-5.52-9.01v-13.7
	c0.02-5.58,4.55-10.09,10.12-10.11h5.52C150.74,801.74,155.27,806.25,155.29,811.83z"/>
<circle class="st2" cx="223.63" cy="791.88" r="8.09"/>
<path class="st2" d="M236.51,811.83v13.7c-0.01,3.79-2.13,7.26-5.51,9v15.22c0.14,4.07-3.05,7.49-7.12,7.63
	c-4.07,0.14-7.49-3.05-7.63-7.12c-0.01-0.17-0.01-0.34,0-0.5v-15.21c-3.38-1.74-5.5-5.21-5.52-9.01v-13.7
	c0.02-5.58,4.55-10.09,10.12-10.11h5.52C231.97,801.74,236.49,806.25,236.51,811.83z"/>
<circle class="st2" cx="304.85" cy="791.88" r="8.09"/>
<path class="st2" d="M317.74,811.83v13.7c-0.01,3.79-2.13,7.26-5.51,9v15.22c0.14,4.07-3.05,7.49-7.12,7.63
	c-4.07,0.14-7.49-3.05-7.63-7.12c-0.01-0.17-0.01-0.34,0-0.5v-15.21c-3.38-1.74-5.5-5.21-5.52-9.01v-13.7
	c0.02-5.58,4.55-10.09,10.12-10.11h5.52C313.2,801.74,317.72,806.25,317.74,811.83z"/>
<circle class="st2" cx="386.08" cy="791.88" r="8.09"/>
<path class="st2" d="M398.97,811.83v13.7c-0.01,3.79-2.13,7.26-5.51,9v15.22c0.14,4.07-3.05,7.49-7.12,7.63
	c-4.07,0.14-7.49-3.05-7.63-7.12c-0.01-0.17-0.01-0.34,0-0.5v-15.21c-3.38-1.74-5.5-5.21-5.52-9.01v-13.7
	c0.02-5.58,4.55-10.09,10.12-10.11h5.52C394.42,801.74,398.94,806.25,398.97,811.83z"/>
<circle class="st2" cx="467.31" cy="791.88" r="8.09"/>
<path class="st2" d="M480.19,811.83v13.7c-0.01,3.79-2.13,7.26-5.51,9v15.22c0.14,4.07-3.05,7.49-7.12,7.63
	c-4.07,0.14-7.49-3.05-7.63-7.12c-0.01-0.17-0.01-0.34,0-0.5v-15.21c-3.38-1.74-5.5-5.21-5.52-9.01v-13.7
	c0.02-5.58,4.55-10.09,10.12-10.11h5.52C475.65,801.74,480.17,806.25,480.19,811.83z"/>
<circle class="st2" cx="548.53" cy="791.88" r="8.09"/>
<path class="st2" d="M561.42,811.83v13.7c-0.01,3.79-2.13,7.26-5.51,9v15.22c0.14,4.07-3.05,7.49-7.12,7.63
	c-4.07,0.14-7.49-3.05-7.63-7.12c-0.01-0.17-0.01-0.34,0-0.5v-15.21c-3.38-1.74-5.5-5.21-5.52-9.01v-13.7
	c0.02-5.58,4.55-10.09,10.12-10.11h5.52C556.87,801.74,561.39,806.25,561.42,811.83z"/>
<circle class="st2" cx="629.76" cy="791.88" r="8.09"/>
<path class="st2" d="M642.64,811.83v13.7c-0.01,3.79-2.13,7.26-5.51,9v15.22c0.14,4.07-3.05,7.49-7.12,7.63
	c-4.07,0.14-7.49-3.05-7.63-7.12c-0.01-0.17-0.01-0.34,0-0.5v-15.21c-3.38-1.74-5.5-5.21-5.52-9.01v-13.7
	c0.02-5.58,4.55-10.09,10.12-10.11h5.52C638.1,801.74,642.62,806.25,642.64,811.83z"/>
<circle class="st2" cx="710.98" cy="791.88" r="8.09"/>
<path class="st2" d="M723.87,811.83v13.7c-0.01,3.79-2.13,7.26-5.51,9v15.22c0.14,4.07-3.05,7.49-7.12,7.63
	c-4.07,0.14-7.49-3.05-7.63-7.12c-0.01-0.17-0.01-0.34,0-0.5v-15.21c-3.38-1.74-5.5-5.21-5.52-9.01v-13.7
	c0.02-5.58,4.55-10.09,10.12-10.11h5.52C719.32,801.74,723.85,806.25,723.87,811.83z"/>
<circle class="st2" cx="792.21" cy="791.88" r="8.09"/>
<path class="st2" d="M805.1,811.83v13.7c-0.01,3.79-2.13,7.26-5.51,9v15.22c0.14,4.07-3.05,7.49-7.12,7.63
	c-4.07,0.14-7.49-3.05-7.63-7.12c-0.01-0.17-0.01-0.34,0-0.5v-15.21c-3.38-1.74-5.5-5.21-5.52-9.01v-13.7
	c0.02-5.58,4.55-10.09,10.12-10.11h5.52C800.55,801.74,805.07,806.25,805.1,811.83z"/>
<circle class="st2" cx="61.18" cy="885.38" r="8.09"/>
<path class="st2" d="M74.06,905.33v13.7c-0.01,3.79-2.13,7.26-5.51,9v15.22c0.14,4.07-3.05,7.49-7.12,7.63s-7.49-3.05-7.63-7.12
	c-0.01-0.17-0.01-0.34,0-0.5v-15.21c-3.38-1.74-5.5-5.21-5.52-9.01v-13.7c0.02-5.58,4.55-10.09,10.12-10.11h5.52
	C69.52,895.24,74.04,899.75,74.06,905.33z"/>
<circle class="st2" cx="142.4" cy="885.38" r="8.09"/>
<path class="st2" d="M155.29,905.33v13.7c-0.01,3.79-2.13,7.26-5.51,9v15.22c0.14,4.07-3.05,7.49-7.12,7.63
	c-4.07,0.14-7.49-3.05-7.63-7.12c-0.01-0.17-0.01-0.34,0-0.5v-15.21c-3.38-1.74-5.5-5.21-5.52-9.01v-13.7
	c0.02-5.58,4.55-10.09,10.12-10.11h5.52C150.74,895.24,155.27,899.75,155.29,905.33z"/>
<circle class="st2" cx="223.63" cy="885.38" r="8.09"/>
<path class="st2" d="M236.51,905.33v13.7c-0.01,3.79-2.13,7.26-5.51,9v15.22c0.14,4.07-3.05,7.49-7.12,7.63
	c-4.07,0.14-7.49-3.05-7.63-7.12c-0.01-0.17-0.01-0.34,0-0.5v-15.21c-3.38-1.74-5.5-5.21-5.52-9.01v-13.7
	c0.02-5.58,4.55-10.09,10.12-10.11h5.52C231.97,895.24,236.49,899.75,236.51,905.33z"/>
<circle class="st2" cx="304.85" cy="885.38" r="8.09"/>
<path class="st2" d="M317.74,905.33v13.7c-0.01,3.79-2.13,7.26-5.51,9v15.22c0.14,4.07-3.05,7.49-7.12,7.63s-7.49-3.05-7.63-7.12
	c-0.01-0.17-0.01-0.34,0-0.5v-15.21c-3.38-1.74-5.5-5.21-5.52-9.01v-13.7c0.02-5.58,4.55-10.09,10.12-10.11h5.52
	C313.2,895.24,317.72,899.75,317.74,905.33z"/>
<circle class="st2" cx="386.08" cy="885.38" r="8.09"/>
<path class="st2" d="M398.97,905.33v13.7c-0.01,3.79-2.13,7.26-5.51,9v15.22c0.14,4.07-3.05,7.49-7.12,7.63
	c-4.07,0.14-7.49-3.05-7.63-7.12c-0.01-0.17-0.01-0.34,0-0.5v-15.21c-3.38-1.74-5.5-5.21-5.52-9.01v-13.7
	c0.02-5.58,4.55-10.09,10.12-10.11h5.52C394.42,895.24,398.94,899.75,398.97,905.33z"/>
<circle class="st2" cx="467.31" cy="885.38" r="8.09"/>
<path class="st2" d="M480.19,905.33v13.7c-0.01,3.79-2.13,7.26-5.51,9v15.22c0.14,4.07-3.05,7.49-7.12,7.63
	c-4.07,0.14-7.49-3.05-7.63-7.12c-0.01-0.17-0.01-0.34,0-0.5v-15.21c-3.38-1.74-5.5-5.21-5.52-9.01v-13.7
	c0.02-5.58,4.55-10.09,10.12-10.11h5.52C475.65,895.24,480.17,899.75,480.19,905.33z"/>
<circle class="st2" cx="548.53" cy="885.38" r="8.09"/>
<path class="st2" d="M561.42,905.33v13.7c-0.01,3.79-2.13,7.26-5.51,9v15.22c0.14,4.07-3.05,7.49-7.12,7.63s-7.49-3.05-7.63-7.12
	c-0.01-0.17-0.01-0.34,0-0.5v-15.21c-3.38-1.74-5.5-5.21-5.52-9.01v-13.7c0.02-5.58,4.55-10.09,10.12-10.11h5.52
	C556.87,895.24,561.39,899.75,561.42,905.33z"/>
<circle class="st2" cx="629.76" cy="885.38" r="8.09"/>
<path class="st2" d="M642.64,905.33v13.7c-0.01,3.79-2.13,7.26-5.51,9v15.22c0.14,4.07-3.05,7.49-7.12,7.63s-7.49-3.05-7.63-7.12
	c-0.01-0.17-0.01-0.34,0-0.5v-15.21c-3.38-1.74-5.5-5.21-5.52-9.01v-13.7c0.02-5.58,4.55-10.09,10.12-10.11h5.52
	C638.1,895.24,642.62,899.75,642.64,905.33z"/>
<circle class="st2" cx="710.98" cy="885.38" r="8.09"/>
<path class="st2" d="M723.87,905.33v13.7c-0.01,3.79-2.13,7.26-5.51,9v15.22c0.14,4.07-3.05,7.49-7.12,7.63s-7.49-3.05-7.63-7.12
	c-0.01-0.17-0.01-0.34,0-0.5v-15.21c-3.38-1.74-5.5-5.21-5.52-9.01v-13.7c0.02-5.58,4.55-10.09,10.12-10.11h5.52
	C719.32,895.24,723.85,899.75,723.87,905.33z"/>
<circle class="st2" cx="792.21" cy="885.38" r="8.09"/>
<path class="st2" d="M805.1,905.33v13.7c-0.01,3.79-2.13,7.26-5.51,9v15.22c0.14,4.07-3.05,7.49-7.12,7.63s-7.49-3.05-7.63-7.12
	c-0.01-0.17-0.01-0.34,0-0.5v-15.21c-3.38-1.74-5.5-5.21-5.52-9.01v-13.7c0.02-5.58,4.55-10.09,10.12-10.11h5.52
	C800.55,895.24,805.07,899.75,805.1,905.33z"/>
<g>
	<g>
		<path class="st3" d="M303.36,978.24h4.72v16.16c0,2.13,0.54,3.67,1.63,4.62c1.09,0.95,2.48,1.42,4.17,1.42
			c1.71,0,3.1-0.47,4.18-1.42c1.08-0.95,1.62-2.49,1.62-4.62v-16.16h4.72v16.16c0,2.19-0.42,4.05-1.26,5.6
			c-0.84,1.55-2.04,2.73-3.61,3.54c-1.57,0.81-3.45,1.22-5.65,1.22c-2.2,0-4.08-0.41-5.65-1.22c-1.57-0.81-2.77-1.99-3.61-3.54
			c-0.84-1.55-1.26-3.41-1.26-5.6V978.24z"/>
		<path class="st3" d="M331.36,1004.2v-19.4h4.12l0.6,3.84v15.56H331.36z M344.68,1004.2v-11.36c0-1.44-0.35-2.53-1.04-3.26
			s-1.6-1.1-2.72-1.1c-0.95,0-1.78,0.26-2.51,0.78c-0.73,0.52-1.3,1.3-1.71,2.35s-0.62,2.35-0.62,3.91h-1.56
			c0-2.52,0.31-4.62,0.94-6.29c0.63-1.67,1.51-2.92,2.66-3.75c1.15-0.83,2.49-1.24,4.04-1.24c1.6,0,2.94,0.36,4.01,1.07
			c1.07,0.71,1.88,1.72,2.42,3.01c0.54,1.29,0.81,2.8,0.81,4.52v11.36H344.68z"/>
		<path class="st3" d="M359.04,981.24c-0.92,0-1.64-0.24-2.15-0.73c-0.51-0.49-0.77-1.16-0.77-2.03c0-0.84,0.26-1.51,0.77-2.01
			c0.51-0.5,1.23-0.75,2.15-0.75c0.89,0,1.6,0.25,2.13,0.75c0.53,0.5,0.79,1.17,0.79,2.01c0,0.87-0.26,1.54-0.79,2.03
			C360.64,981,359.93,981.24,359.04,981.24z M356.68,1004.2v-19.48h4.72v19.48H356.68z"/>
		<path class="st3" d="M366.16,984.8h5.44l4.64,15.36h-0.36l4.64-15.36h5.44l-7.24,19.4h-5.32L366.16,984.8z"/>
		<path class="st3" d="M397.4,1004.76c-1.65,0-3.17-0.43-4.54-1.28c-1.37-0.85-2.47-2.05-3.3-3.59c-0.83-1.54-1.24-3.34-1.24-5.41
			c0-2.13,0.41-3.97,1.23-5.5s1.92-2.71,3.29-3.52c1.37-0.81,2.89-1.22,4.56-1.22c1.55,0,2.88,0.31,4.01,0.93
			c1.13,0.62,2.03,1.46,2.72,2.52c0.69,1.06,1.15,2.26,1.39,3.59c0.24,1.33,0.25,2.71,0.04,4.12h-13.48v-2.56h10.14l-0.92,0.6
			c0.04-0.63,0.01-1.26-0.09-1.9c-0.1-0.64-0.29-1.23-0.57-1.76c-0.28-0.53-0.68-0.96-1.19-1.29c-0.51-0.33-1.17-0.49-1.97-0.49
			c-0.96,0-1.77,0.24-2.44,0.72c-0.67,0.48-1.17,1.13-1.52,1.96c-0.35,0.83-0.52,1.76-0.52,2.8v1.88c0,1.09,0.16,2.06,0.49,2.9
			c0.33,0.84,0.81,1.5,1.46,1.98c0.65,0.48,1.46,0.72,2.45,0.72c0.92,0,1.69-0.21,2.32-0.64s1.03-1.07,1.2-1.92h4.76
			c-0.2,1.25-0.67,2.36-1.41,3.31c-0.74,0.95-1.7,1.7-2.87,2.24C400.23,1004.49,398.89,1004.76,397.4,1004.76z"/>
		<path class="st3" d="M411.36,1004.2v-19.48h4.72v19.48H411.36z M414.92,995.68c0-2.55,0.29-4.65,0.86-6.32
			c0.57-1.67,1.34-2.9,2.31-3.71c0.97-0.81,2.04-1.21,3.23-1.21c0.32,0,0.62,0.02,0.91,0.06s0.57,0.1,0.85,0.18L423,989.4
			c-0.35-0.08-0.72-0.15-1.12-0.2c-0.4-0.05-0.76-0.08-1.08-0.08c-1.04,0-1.91,0.25-2.61,0.75s-1.23,1.24-1.58,2.21
			c-0.35,0.97-0.53,2.17-0.53,3.6H414.92z"/>
		<path class="st3" d="M434.3,1004.76c-1.87,0-3.47-0.26-4.81-0.77s-2.37-1.25-3.09-2.22c-0.72-0.97-1.09-2.13-1.1-3.49h4.36
			c0.04,0.96,0.42,1.66,1.14,2.1c0.72,0.44,1.7,0.66,2.94,0.66c0.68,0,1.28-0.1,1.81-0.3s0.94-0.47,1.23-0.82s0.44-0.73,0.44-1.16
			c0-0.55-0.2-0.98-0.59-1.29c-0.39-0.31-1.02-0.6-1.89-0.87l-4.24-1.52c-1.52-0.55-2.69-1.27-3.5-2.16
			c-0.81-0.89-1.22-1.96-1.22-3.2c0-1.64,0.74-2.96,2.23-3.97s3.48-1.51,5.97-1.51c2.48,0,4.4,0.54,5.75,1.63
			c1.35,1.09,2.05,2.46,2.09,4.13h-4.44c-0.07-0.64-0.37-1.15-0.92-1.52c-0.55-0.37-1.37-0.56-2.48-0.56c-1,0-1.78,0.2-2.35,0.61
			c-0.57,0.41-0.85,0.88-0.85,1.43c0,0.92,0.79,1.61,2.36,2.08l4.6,1.72c1.49,0.51,2.65,1.16,3.48,1.96
			c0.83,0.8,1.24,1.81,1.24,3.04c0,1.03-0.34,2-1.03,2.91c-0.69,0.91-1.64,1.66-2.87,2.23
			C437.33,1004.47,435.91,1004.76,434.3,1004.76z"/>
		<path class="st3" d="M450.92,981.24c-0.92,0-1.64-0.24-2.15-0.73c-0.51-0.49-0.77-1.16-0.77-2.03c0-0.84,0.26-1.51,0.77-2.01
			s1.23-0.75,2.15-0.75c0.89,0,1.6,0.25,2.13,0.75c0.53,0.5,0.79,1.17,0.79,2.01c0,0.87-0.26,1.54-0.79,2.03
			C452.52,981,451.81,981.24,450.92,981.24z M448.56,1004.2v-19.48h4.72v19.48H448.56z"/>
		<path class="st3" d="M458.84,987.92v-3.12h12.72v3.12H458.84z M467.84,1004.76c-1.15,0-2.2-0.21-3.15-0.64s-1.71-1.08-2.28-1.96
			c-0.57-0.88-0.85-2-0.85-3.36v-19.16h4.72v19c0,1.6,0.76,2.4,2.28,2.4c0.47,0,0.93-0.05,1.4-0.16c0.47-0.11,1-0.27,1.6-0.48
			l0.68,3.32c-0.75,0.29-1.47,0.54-2.18,0.74S468.61,1004.76,467.84,1004.76z"/>
		<path class="st3" d="M483.06,1004.76c-1.67,0-3.06-0.29-4.17-0.87c-1.11-0.58-1.95-1.34-2.51-2.29c-0.56-0.95-0.84-1.97-0.84-3.08
			c0-1.23,0.32-2.26,0.97-3.09c0.65-0.83,1.56-1.46,2.75-1.88c1.19-0.42,2.59-0.63,4.2-0.63c1.05,0,2.05,0.08,2.99,0.24
			s1.88,0.37,2.81,0.64v2.76c-0.73-0.24-1.53-0.43-2.4-0.56c-0.87-0.13-1.68-0.2-2.44-0.2c-1.12,0-2.04,0.21-2.76,0.62
			c-0.72,0.41-1.08,1.11-1.08,2.1c0,0.72,0.29,1.34,0.88,1.86c0.59,0.52,1.52,0.78,2.8,0.78c0.97,0,1.8-0.21,2.48-0.64
			s1.2-0.96,1.55-1.6c0.35-0.64,0.53-1.28,0.53-1.92h1.12c0,1.4-0.26,2.69-0.78,3.87s-1.29,2.12-2.31,2.83
			C485.83,1004.41,484.56,1004.76,483.06,1004.76z M489.42,1004.2l-0.6-4.72v-7.8c0-1.36-0.28-2.37-0.83-3.02s-1.49-0.98-2.81-0.98
			c-0.76,0-1.42,0.11-1.98,0.34s-0.99,0.55-1.29,0.97c-0.3,0.42-0.45,0.93-0.45,1.53h-5.16c0-1.47,0.35-2.66,1.06-3.59
			c0.71-0.93,1.72-1.61,3.05-2.04c1.33-0.43,2.92-0.65,4.77-0.65c1.68,0,3.15,0.27,4.4,0.81s2.23,1.37,2.92,2.49s1.04,2.55,1.04,4.3
			v12.36H489.42z"/>
		<path class="st3" d="M500.46,1004.2v-19.48h4.72v19.48H500.46z M504.02,995.68c0-2.55,0.29-4.65,0.86-6.32
			c0.57-1.67,1.34-2.9,2.31-3.71c0.97-0.81,2.04-1.21,3.23-1.21c0.32,0,0.62,0.02,0.91,0.06s0.57,0.1,0.85,0.18l-0.08,4.72
			c-0.35-0.08-0.72-0.15-1.12-0.2c-0.4-0.05-0.76-0.08-1.08-0.08c-1.04,0-1.91,0.25-2.61,0.75s-1.23,1.24-1.58,2.21
			c-0.35,0.97-0.53,2.17-0.53,3.6H504.02z"/>
		<path class="st3" d="M518.92,981.24c-0.92,0-1.64-0.24-2.15-0.73c-0.51-0.49-0.77-1.16-0.77-2.03c0-0.84,0.26-1.51,0.77-2.01
			s1.23-0.75,2.15-0.75c0.89,0,1.6,0.25,2.13,0.75c0.53,0.5,0.79,1.17,0.79,2.01c0,0.87-0.26,1.54-0.79,2.03
			C520.52,981,519.81,981.24,518.92,981.24z M516.56,1004.2v-19.48h4.72v19.48H516.56z"/>
		<path class="st3" d="M535.28,1004.76c-1.67,0-3.06-0.29-4.17-0.87c-1.11-0.58-1.95-1.34-2.51-2.29c-0.56-0.95-0.84-1.97-0.84-3.08
			c0-1.23,0.32-2.26,0.97-3.09c0.65-0.83,1.56-1.46,2.75-1.88c1.19-0.42,2.59-0.63,4.2-0.63c1.05,0,2.05,0.08,2.99,0.24
			s1.88,0.37,2.81,0.64v2.76c-0.73-0.24-1.53-0.43-2.4-0.56c-0.87-0.13-1.68-0.2-2.44-0.2c-1.12,0-2.04,0.21-2.76,0.62
			c-0.72,0.41-1.08,1.11-1.08,2.1c0,0.72,0.29,1.34,0.88,1.86c0.59,0.52,1.52,0.78,2.8,0.78c0.97,0,1.8-0.21,2.48-0.64
			s1.2-0.96,1.55-1.6c0.35-0.64,0.53-1.28,0.53-1.92h1.12c0,1.4-0.26,2.69-0.78,3.87s-1.29,2.12-2.31,2.83
			C538.05,1004.41,536.78,1004.76,535.28,1004.76z M541.64,1004.2l-0.6-4.72v-7.8c0-1.36-0.28-2.37-0.83-3.02s-1.49-0.98-2.81-0.98
			c-0.76,0-1.42,0.11-1.98,0.34s-0.99,0.55-1.29,0.97c-0.3,0.42-0.45,0.93-0.45,1.53h-5.16c0-1.47,0.35-2.66,1.06-3.59
			c0.71-0.93,1.72-1.61,3.05-2.04c1.33-0.43,2.92-0.65,4.77-0.65c1.68,0,3.15,0.27,4.4,0.81s2.23,1.37,2.92,2.49s1.04,2.55,1.04,4.3
			v12.36H541.64z"/>
	</g>
</g>
</svg>
