<svg id="Capa_1" data-name="Capa 1" xmlns="http://www.w3.org/2000/svg" viewBox="0 0 64 80"><defs><style>.cls-1{fill:#fff;}</style></defs><path class="cls-1" d="M23.37,42.31H16V21.08l4.19-2.6,7.57-4.7L32,11.17l4.22,2.61,7.58,4.7L48,21.09V27h4.69V24l4.19,2.59V15.87L50.1,11.68V3.43a1,1,0,0,0-1-1.05H42.79a1,1,0,0,0-1,1.05V6.5L34.37,1.93a4.58,4.58,0,0,0-4.81,0L7.13,15.86V26.58L11.31,24V43.47A3.55,3.55,0,0,0,14.85,47h8.52v-4.7Z"/><path class="cls-1" d="M53.53,30.39H44.37v-2a2.74,2.74,0,1,0-5.47,0v2H29.74a3,3,0,0,0-3,3V47.23a3,3,0,0,0,3,3H38.9V61H36.29a.87.87,0,1,0,0,1.74H47A.87.87,0,0,0,47,61h-2.6V50.22h9.16a3,3,0,0,0,3-3V33.38A3,3,0,0,0,53.53,30.39Zm-12.89-2a1,1,0,1,1,2,0v2h-2ZM29.53,48a.53.53,0,0,1-.53-.53.52.52,0,0,1,.53-.53.53.53,0,0,1,.53.53A.53.53,0,0,1,29.53,48Zm0-14.27a.53.53,0,0,1-.53-.53.52.52,0,0,1,.53-.53.53.53,0,0,1,.53.53A.53.53,0,0,1,29.53,33.7ZM42.63,61h-2V50.22h2Zm9.84-14.84H30.8V34.44H52.47ZM53.74,48a.53.53,0,0,1-.53-.53.52.52,0,0,1,.53-.53.53.53,0,0,1,.53.53A.53.53,0,0,1,53.74,48Zm0-14.27a.53.53,0,0,1-.53-.53.52.52,0,0,1,.53-.53.53.53,0,0,1,.53.53A.53.53,0,0,1,53.74,33.7Z"/><path class="cls-1" d="M45,39.51H34a.91.91,0,0,1,0-1.82H45a.91.91,0,1,1,0,1.82Z"/><path class="cls-1" d="M49.28,43.44H34a.91.91,0,1,1,0-1.82h15.3a.91.91,0,1,1,0,1.82Z"/></svg>